<?xml version="1.0" encoding="utf-8"?>
<!-- Generator: Adobe Illustrator 21.0.0, SVG Export Plug-In . SVG Version: 6.00 Build 0)  -->
<svg version="1.1" id="Layer_1" xmlns="http://www.w3.org/2000/svg" xmlns:xlink="http://www.w3.org/1999/xlink" x="0px" y="0px"
	 viewBox="0 0 1000 1000" style="enable-background:new 0 0 1000 1000;" xml:space="preserve">
<style type="text/css">
	.st0{fill:#4A69BD;}
	.st1{fill:#FFFFFF;}
	.st2{fill:none;stroke:#F9F6F4;stroke-width:3;stroke-miterlimit:10;}
	.st3{opacity:0.8;fill:none;stroke:#FFFFFF;stroke-width:2;stroke-miterlimit:10;}
</style>
<g>
	<g>
		<path class="st0" d="M489,498.7c9.6,0.8,19.2-1.2,28.8-1.5c9.6-0.3,20,1.4,26.9,8.2c5.2,5.1,7.7,12.5,8.1,19.7
			c0.8,14.7-6.7,29.2-18.2,38.2c-11.6,9-26.8,12.8-41.4,11.7c-14.6-1.1-28.7-6.8-40.9-14.9c-20.2-13.5-35.6-33.9-43.1-57
			c-3-9.1-4.7-18.9-2.7-28.3c1.9-9.2,8.7-19,18.2-21.7c13.7-3.8,20.5,10.7,26.2,20.3c4.5,7.5,9.8,14.4,17.6,18.8
			C474.8,495.9,481.8,498.2,489,498.7z"/>
	</g>
</g>
<g>
	<g>
		<path class="st0" d="M477.5,459.6c1.1,4.4,4.8,8.7,9.4,8.7c4.6,0,8.1-4.2,9.7-8.5c4.4-11.1,0.1-25-9.8-31.8
			c-7.1-4.8-15.8-2.1-12.5,6.8C477.3,443.2,475.3,451.1,477.5,459.6z"/>
	</g>
</g>
<g>
	<path class="st1" d="M501.3,516h-13.1c-1.4,0-2.5-0.9-2.5-1.9v-5.3c0-1.1,1.1-1.9,2.5-1.9h13.1c1.4,0,2.5,0.9,2.5,1.9v5.3
		C503.8,515.1,502.7,516,501.3,516z M488.3,513.9h12.9v-5.1h-12.9V513.9z"/>
	<g>
		<path class="st1" d="M475.7,555.7c0,0.5-0.4,0.9-0.9,0.9h-3.1c-0.5,0-0.9-0.4-0.9-0.9l0,0c0-0.5,0.4-0.9,0.9-0.9h3.1
			C475.3,554.8,475.7,555.2,475.7,555.7L475.7,555.7z"/>
		<path class="st1" d="M517.8,555.7c0,0.5-0.4,0.9-0.9,0.9h-3.1c-0.5,0-0.9-0.4-0.9-0.9l0,0c0-0.5,0.4-0.9,0.9-0.9h3.1
			C517.4,554.8,517.8,555.2,517.8,555.7L517.8,555.7z"/>
	</g>
	<path class="st2" d="M523.2,552.1c0,0.9-0.7,1.6-1.6,1.6h-54.6c-0.9,0-1.6-0.7-1.6-1.6v-37.5c0-0.9,0.7-1.6,1.6-1.6h54.6
		c0.9,0,1.6,0.7,1.6,1.6V552.1z"/>
	<circle class="st3" cx="495.1" cy="533.4" r="12.8"/>
	<g>
		<g>
			<path class="st1" d="M494.2,539.4c-0.6-0.2-1.3-0.4-2-0.8v0.8h-2.8v-4.6h2.8c0.2,0.7,0.5,1.2,1,1.6c0.5,0.4,1,0.6,1.7,0.6
				c0.4,0,0.7-0.1,0.9-0.2c0.2-0.2,0.3-0.3,0.3-0.5c0-0.3-0.2-0.5-0.5-0.7c-0.3-0.2-0.8-0.3-1.3-0.5c-0.5-0.1-1-0.3-1.6-0.5
				c-0.6-0.2-1.1-0.4-1.6-0.7c-0.5-0.3-0.9-0.7-1.3-1.2c-0.3-0.5-0.5-1.2-0.5-2c0-0.6,0.1-1.2,0.4-1.6c0.3-0.5,0.6-0.9,1.1-1.2
				c0.4-0.3,1-0.6,1.6-0.7c0.6-0.2,1.2-0.3,1.8-0.3v-1.8h2.2v2.1c0.4,0.1,0.7,0.2,0.9,0.3c0.3,0.1,0.5,0.2,0.7,0.4v-0.8h2.8v4.5H498
				c0-0.3-0.1-0.6-0.3-0.8c-0.2-0.2-0.4-0.5-0.6-0.6c-0.2-0.2-0.5-0.3-0.8-0.4c-0.3-0.1-0.6-0.2-0.8-0.2c-0.4,0-0.6,0.1-0.9,0.2
				c-0.2,0.1-0.3,0.3-0.3,0.6c0,0.3,0.2,0.5,0.5,0.7c0.3,0.2,0.8,0.3,1.3,0.5c0.5,0.1,1.1,0.3,1.7,0.5c0.6,0.2,1.2,0.4,1.7,0.7
				c0.5,0.3,0.9,0.7,1.3,1.3c0.3,0.5,0.5,1.2,0.5,2.1c0,0.6-0.1,1.2-0.4,1.6c-0.3,0.5-0.6,0.8-1.1,1.2c-0.4,0.3-1,0.5-1.6,0.7
				c-0.6,0.2-1.2,0.2-1.8,0.3v1.8h-2.2V539.4z"/>
		</g>
	</g>
</g>
</svg>
