<?xml version="1.0" encoding="utf-8"?>
<!-- Generator: Adobe Illustrator 21.0.0, SVG Export Plug-In . SVG Version: 6.00 Build 0)  -->
<svg version="1.1" id="Layer_1" xmlns="http://www.w3.org/2000/svg" xmlns:xlink="http://www.w3.org/1999/xlink" x="0px" y="0px"
	 viewBox="0 0 1000 1000" style="enable-background:new 0 0 1000 1000;" xml:space="preserve">
<style type="text/css">
	.st0{fill:#1ABC9C;}
	.st1{fill:#FFFFFF;}
</style>
<g>
	<g>
		<path class="st0" d="M469,494.2c9.6,0.8,19.2-1.2,28.8-1.5s20,1.4,26.9,8.2c5.2,5.1,7.7,12.5,8.1,19.7
			c0.8,14.7-6.7,29.2-18.2,38.2c-11.6,9-26.8,12.8-41.4,11.7c-14.6-1.1-28.7-6.8-40.9-14.9c-20.2-13.5-35.6-33.9-43.1-57
			c-3-9.1-4.7-18.9-2.7-28.3c1.9-9.2,8.7-19,18.2-21.7c13.7-3.8,20.5,10.7,26.2,20.3c4.5,7.5,9.8,14.4,17.6,18.8
			C454.7,491.4,461.8,493.7,469,494.2z"/>
	</g>
</g>
<g>
	<g>
		<path class="st0" d="M457.5,455.1c1.1,4.4,4.8,8.7,9.4,8.7c4.6,0,8.1-4.2,9.7-8.5c4.4-11.1,0.1-25-9.8-31.8
			c-7.1-4.8-15.8-2.1-12.5,6.8C457.3,438.7,455.3,446.6,457.5,455.1z"/>
	</g>
</g>
<g>
	<path class="st1" d="M481.1,534.3c0.7-0.2,2.3-0.7,3-2.9l1.5-4.5l0.6,0.2c0.3,0.1,0.6-0.1,0.7-0.3l0.8-2.4c0.1-0.3-0.1-0.6-0.3-0.7
		l-20-6.8c-0.3-0.1-0.6,0.1-0.7,0.3l-0.8,2.4c-0.1,0.3,0.1,0.6,0.3,0.7l0.6,0.2l-1.6,4.6c-0.7,2.2-0.3,2.9,0.7,4l4,4.8l-0.5,1.3
		c-1.5,0.3-5.6,1.2-6.1,1.4c-0.7,0.2-2.3,0.7-3,2.9l-1.3,3.9l-0.6-0.2c-0.3-0.1-0.6,0.1-0.7,0.3l-0.8,2.4c-0.1,0.3,0.1,0.6,0.3,0.7
		l20,6.8c0.3,0.1,0.6-0.1,0.7-0.3l0.8-2.4c0.1-0.3-0.1-0.6-0.3-0.7l-0.6-0.2l1.4-4c0.7-2.2,0.3-2.9-0.7-4l-4-4.8l0.5-1.3
		C476.5,535.4,480.6,534.5,481.1,534.3z M472.7,537.9l4.4,5.3c0.3,0.4,0.5,0.6,0.6,0.8c0.1,0.2,0,0.7-0.2,1.3l-1.4,4l-15-5.1
		l1.3-3.9c0.4-1.2,1.2-1.5,1.7-1.6c0.4-0.1,4.2-0.9,6.5-1.5c0.3-0.1,0.6-0.3,0.7-0.6l0.8-2.4c0.1-0.3,0-0.7-0.2-0.9l-4.4-5.3l0,0
		c-0.3-0.4-0.5-0.6-0.6-0.8c-0.1-0.2,0-0.7,0.2-1.3l1.6-4.6l15,5.1l-1.5,4.5c-0.4,1.2-1.2,1.5-1.7,1.6c-0.4,0.1-4.2,0.9-6.5,1.5
		c-0.3,0.1-0.6,0.3-0.7,0.6l-0.8,2.4C472.4,537.3,472.5,537.6,472.7,537.9z"/>
	<path class="st1" d="M473.8,533.3c0.9-0.1,6.3-1.2,6.3-1.2s0.4-0.2-0.1-0.3c-1.3-0.2-3.7,0.3-6.3-0.4c-2.6-0.7-3.1-3-4.8-3.1
		c-0.4,0-0.4,0.1-0.1,0.5c0.3,0.4,3.3,3.6,3.7,4.1C472.9,533.3,473.2,533.4,473.8,533.3z"/>
	<path class="st1" d="M463.8,543.6c-0.6,0.2-0.9,0.5,0.1,0.8c0.8,0.3,8.8,3,9.8,3.3c1,0.3,0.7-0.1,0.4-0.7c-0.6-1.2-1.9-3.1-4.3-3.9
		C467.4,542.3,465,543.1,463.8,543.6z"/>
	
		<ellipse transform="matrix(0.3221 -0.9467 0.9467 0.3221 -185.5389 809.7819)" class="st1" cx="472.7" cy="534.5" rx="0.3" ry="0.3"/>
	
		<ellipse transform="matrix(0.3219 -0.9468 0.9468 0.3219 -186.9888 810.3823)" class="st1" cx="472.3" cy="535.7" rx="0.3" ry="0.3"/>
	
		<ellipse transform="matrix(0.3219 -0.9468 0.9468 0.3219 -188.4887 810.8636)" class="st1" cx="471.8" cy="537" rx="0.3" ry="0.3"/>
	
		<ellipse transform="matrix(0.3219 -0.9468 0.9468 0.3219 -189.9906 811.3401)" class="st1" cx="471.4" cy="538.3" rx="0.3" ry="0.3"/>
	
		<ellipse transform="matrix(0.3222 -0.9467 0.9467 0.3222 -191.5884 811.5834)" class="st1" cx="471" cy="539.6" rx="0.3" ry="0.3"/>
	
		<ellipse transform="matrix(0.3221 -0.9467 0.9467 0.3221 -193.0725 812.1028)" class="st1" cx="470.5" cy="540.9" rx="0.3" ry="0.3"/>
	
		<ellipse transform="matrix(0.3218 -0.9468 0.9468 0.3218 -194.4893 812.7881)" class="st1" cx="470.1" cy="542.1" rx="0.3" ry="0.3"/>
	<path class="st1" d="M484.5,556.6c-0.4,0.2-0.9,0.5-1.3,0.7c-0.1,0-0.1,0.1-0.2,0.1c-0.1,0-0.1,0.1-0.2,0.1c-2,0.9-4,1.6-6.1,1.9
		c0,0-0.1,0-0.1,0c-0.5,0.1-1,0.2-1.5,0.2c0,0,0,0,0,0c-0.9,0.1-1.9,0.2-2.8,0.2c-10.8,0-20.1-7-23.5-16.6c-0.1-0.1-0.1-0.3-0.2-0.4
		c-0.8-2.5-1.3-5.1-1.3-7.8c0-2.7,0.4-5.4,1.3-7.9c0-0.1,0-0.1,0.1-0.2c0-0.1,0.1-0.3,0.2-0.4c0-0.1,0-0.1,0.1-0.2
		c2.8-7.7,9.4-13.5,17.4-15.5c0,0,0,0,0,0c0.1,0,0.2-0.1,0.4-0.1c0,0,0,0,0,0c1.8-0.4,3.6-0.6,5.4-0.6l0,2.6c0,0.8,0.5,1,1.1,0.5
		l5.4-4.6c0.6-0.5,0.6-1.3,0-1.9l-5.5-4.5c-0.6-0.5-1.1-0.3-1.1,0.5l0,2.6c-7.9,0-15.3,3.1-20.8,8.7c-0.5,0.5-1.1,1.1-1.6,1.7
		c0,0,0,0,0,0c0,0,0,0-0.1,0.1c-4.4,5.1-6.9,11.6-7,18.4c0,0.1,0,0.1,0,0.2c0,0.2,0,0.5,0,0.7c0,0.4,0,0.8,0,1.1c0,0,0,0.1,0,0.1
		c0.3,6.2,2.4,12.1,6.2,16.9c0,0,0,0,0,0.1c0.4,0.5,0.8,0.9,1.2,1.4c0,0,0.1,0.1,0.1,0.1c0.4,0.5,0.8,0.9,1.2,1.3
		c4.4,4.4,10,7.3,16,8.3c0,0,0,0,0.1,0c0,0,0,0,0,0c1.6,0.3,3.3,0.4,4.9,0.4c4.4,0,8.6-0.9,12.5-2.8c0.1,0,0.2-0.1,0.2-0.1
		c0.1,0,0.2-0.1,0.3-0.1c0.5-0.3,1.1-0.5,1.6-0.8c1.1-0.7,1.6-2.1,0.9-3.3C487.2,556.3,485.7,555.9,484.5,556.6z"/>
	<path class="st1" d="M493,521c0.5,0.7,1.2,1.1,2,1.1c0.5,0,0.9-0.1,1.3-0.4c1.1-0.7,1.4-2.2,0.6-3.3c-0.3-0.5-0.7-1-1.1-1.5
		c-0.8-1-2.3-1.2-3.3-0.4c-1,0.8-1.2,2.3-0.4,3.3C492.4,520.2,492.7,520.6,493,521z"/>
	<path class="st1" d="M496,527.3c0.2,0.5,0.3,1,0.4,1.5c0.3,1.1,1.2,1.8,2.3,1.8c0.2,0,0.4,0,0.6-0.1c1.3-0.3,2.1-1.6,1.7-2.9
		c-0.1-0.6-0.3-1.2-0.5-1.7c-0.4-1.3-1.7-1.9-3-1.5C496.3,524.7,495.6,526,496,527.3z"/>
	<path class="st1" d="M494.5,551c-1-0.9-2.5-0.8-3.4,0.2c-0.3,0.4-0.7,0.8-1,1.1c-0.9,0.9-0.9,2.5,0,3.4c0.5,0.5,1.1,0.7,1.7,0.7
		c0.6,0,1.2-0.2,1.7-0.7c0.4-0.4,0.8-0.9,1.2-1.3C495.6,553.3,495.5,551.8,494.5,551z"/>
	<path class="st1" d="M499.6,533.3c-1.3,0-2.4,1-2.5,2.3c0,0.5,0,1-0.1,1.5c-0.1,1.3,0.8,2.5,2.2,2.6c0.1,0,0.1,0,0.2,0
		c1.2,0,2.3-0.9,2.4-2.2c0.1-0.6,0.1-1.2,0.1-1.8C502,534.5,500.9,533.4,499.6,533.3z"/>
	<path class="st1" d="M498.6,542.6c-1.2-0.5-2.6,0.1-3.1,1.4c-0.2,0.5-0.4,0.9-0.6,1.4c-0.6,1.2,0,2.6,1.2,3.2
		c0.3,0.2,0.7,0.2,1,0.2c0.9,0,1.8-0.5,2.2-1.4c0.3-0.5,0.5-1.1,0.7-1.7C500.4,544.5,499.8,543.1,498.6,542.6z"/>
	<path class="st1" d="M490.4,514.4c0.8-1.1,0.6-2.6-0.5-3.3c-0.5-0.4-1-0.7-1.5-1c-1.1-0.7-2.6-0.4-3.3,0.7
		c-0.7,1.1-0.4,2.6,0.7,3.3c0.4,0.3,0.8,0.6,1.2,0.9c0.4,0.3,0.9,0.5,1.4,0.5C489.2,515.3,490,515,490.4,514.4z"/>
</g>
</svg>
