<?xml version="1.0" encoding="utf-8"?>
<!-- Generator: Adobe Illustrator 21.0.0, SVG Export Plug-In . SVG Version: 6.00 Build 0)  -->
<svg version="1.1" id="Layer_1" xmlns="http://www.w3.org/2000/svg" xmlns:xlink="http://www.w3.org/1999/xlink" x="0px" y="0px"
	 viewBox="0 0 1000 1000" style="enable-background:new 0 0 1000 1000;" xml:space="preserve">
<style type="text/css">
	.st0{fill:#2999C3;}
	.st1{fill:#FFFFFF;}
</style>
<g>
	<g>
		<path class="st0" d="M411.2,541.7c9.6,0.8,19.2-1.2,28.8-1.5c9.6-0.3,20,1.4,26.9,8.2c5.2,5.1,7.7,12.5,8.1,19.7
			c0.8,14.7-6.7,29.2-18.2,38.2c-11.6,9-26.8,12.8-41.4,11.7c-14.6-1.1-28.7-6.8-40.9-14.9c-20.2-13.5-35.6-33.9-43.1-57
			c-3-9.1-4.7-18.9-2.7-28.3c1.9-9.2,8.7-19,18.2-21.7c13.7-3.8,20.5,10.7,26.2,20.3c4.5,7.5,9.8,14.4,17.6,18.8
			C396.9,538.9,403.9,541.2,411.2,541.7z"/>
	</g>
</g>
<g>
	<g>
		<path class="st0" d="M399.6,502.6c1.1,4.4,4.8,8.7,9.4,8.7c4.6,0,8.1-4.2,9.7-8.5c4.4-11.1,0.1-25-9.8-31.8
			c-7.1-4.8-15.8-2.1-12.5,6.8C399.5,486.2,397.4,494.1,399.6,502.6z"/>
	</g>
</g>
<g>
	<g>
		<circle class="st1" cx="414" cy="559" r="1.6"/>
		<circle class="st1" cx="418.6" cy="552.8" r="2.4"/>
		<circle class="st1" cx="411.8" cy="548.1" r="1.6"/>
	</g>
	<path class="st1" d="M408.5,597.8c-2.5,0-4.9,0.1-7.4,0.1c-1.3,2.2-2.2,4.1-2.2,5.4c0,1.7,1,3.8,5.7,3.8c0.7,0,1.1-0.1,1.1-0.1
		c0,0,0.1,0,0.1,0h19.5c0,0,0.1,0,0.1,0c0,0,0.5,0.1,1.1,0.1c4.7,0,5.7-2.1,5.7-3.8c0-1.4-0.9-3.4-2.2-5.6
		C422.8,597.8,415.6,597.8,408.5,597.8z"/>
	<path class="st1" d="M421.6,584v-12.7h0.3c1.6,0,2.8-1.4,2.8-3.2c0-1.7-1.3-3.2-2.8-3.2h-12.8c-1.6,0-2.8,1.4-2.8,3.2
		c0,1.7,1.3,3.2,2.8,3.2h0.7V584c-0.8,0.8-3.5,3.8-6.1,7.3c-4.3,5.6-6.5,9.6-6.5,12.1c0,3.5,2.7,5.4,7.4,5.4c0.6,0,1.1,0,1.3-0.1
		h19.4c0.2,0,0.6,0.1,1.3,0.1c0,0,0,0,0,0c4.7,0,7.3-2,7.4-5.4C433.9,598,423.3,585.9,421.6,584z M426.5,607.2
		c-0.7,0-1.1-0.1-1.1-0.1c0,0-0.1,0-0.1,0h-19.5c0,0-0.1,0-0.1,0c0,0-0.5,0.1-1.1,0.1c-4.7,0-5.7-2.1-5.7-3.8
		c0-4.2,8.9-14.8,12.4-18.5c0.1-0.2,0.2-0.3,0.2-0.6v-13.8c0-0.5-0.4-0.8-0.8-0.8h-1.5c-0.6,0-1.2-0.7-1.2-1.5
		c0-0.8,0.5-1.5,1.2-1.5H422c0.6,0,1.2,0.7,1.2,1.5c0,0.8-0.5,1.5-1.2,1.5h-1.1c-0.5,0-0.8,0.4-0.8,0.8v13.8c0,0.2,0.1,0.4,0.2,0.5
		c3.4,3.7,12.1,14.3,12,18.5C432.2,605.2,431.2,607.2,426.5,607.2z"/>
</g>
</svg>
