<svg xmlns="http://www.w3.org/2000/svg" viewBox="0 0 655 57.42"><defs><style>.cls-1{isolation:isolate;}.cls-2{fill:#67c694;mix-blend-mode:multiply;}.cls-3{fill:#7ac943;}</style></defs><title>07</title><g class="cls-1"><g id="Layer_1" data-name="Layer 1"><ellipse id="_Path_" data-name="&lt;Path&gt;" class="cls-2" cx="327.5" cy="40.98" rx="327.5" ry="16.43"/><path id="_Path_2" data-name="&lt;Path&gt;" class="cls-3" d="M529.19,420s3-6.18,11.16-5.38,6-6.58,15.2-7.77,10.82,1.51,22-7.85,20.39,7.35,28.68.42,14.23-18.1,28.26-13.77,8.12,15.38,16.44,19.54,17,5.52,20.49,15Z" transform="translate(-77 -376.57)"/><path id="_Path_3" data-name="&lt;Path&gt;" class="cls-3" d="M324.22,421.65s-3.81-7.89-14.25-6.87-7.71-8.4-19.4-9.92-13.81,1.93-28-10-26,9.39-36.62.54-18.16-23.11-36.09-17.58-10.37,19.63-21,25-21.68,7-26.16,19.17Z" transform="translate(-77 -376.57)"/></g></g></svg>