<?xml version="1.0" encoding="utf-8"?>
<!-- Generator: Adobe Illustrator 21.0.0, SVG Export Plug-In . SVG Version: 6.00 Build 0)  -->
<svg version="1.1" id="Layer_1" xmlns="http://www.w3.org/2000/svg" xmlns:xlink="http://www.w3.org/1999/xlink" x="0px" y="0px"
	 viewBox="0 0 808 800" style="enable-background:new 0 0 808 800;" xml:space="preserve">
<style type="text/css">
	.st0{fill:#27A4A5;}
</style>
<path id="_x34_8._Student_cap_1_" class="st0" d="M377.2,409.3l-33.4-16.7c-0.4-0.2-0.9-0.2-1.3,0l-33.4,16.7
	c-0.5,0.2-0.8,0.7-0.8,1.3c0,0.5,0.3,1.1,0.8,1.3l11,5.5v11.1c0,6.8,10.1,12.2,23,12.2s23-5.4,23-12.2v-11.1l3.9-1.9v10.6
	c-1.8,0.6-3.1,2.3-3.1,4.3c0,1.8,1.1,3.3,2.6,4.1l-3.1,8.1c-0.2,0.4-0.1,0.9,0.2,1.3c0.3,0.4,0.7,0.6,1.2,0.6h7.3
	c0.5,0,0.9-0.2,1.2-0.6c0.3-0.4,0.3-0.9,0.2-1.3l-3.1-8.1c1.5-0.7,2.6-2.3,2.6-4.1c0-2-1.3-3.7-3.1-4.3v-12l4.3-2.1
	c0.5-0.2,0.8-0.7,0.8-1.3C378,410,377.7,409.5,377.2,409.3z M369.9,441.6l1.6-4.1l1.6,4.1H369.9z M371.5,431.9
	c-0.9,0-1.6-0.7-1.6-1.6c0-0.9,0.7-1.6,1.6-1.6c0,0,0,0,0,0c0,0,0,0,0,0c0.9,0,1.6,0.7,1.6,1.6C373.1,431.2,372.3,431.9,371.5,431.9
	z M363.2,428.5c0,2.3-2,4.6-5.5,6.3c-3.9,1.9-9,3-14.6,3c-5.5,0-10.7-1.1-14.6-3c-3.5-1.7-5.5-4-5.5-6.3v-9.6l19.4,9.7
	c0.2,0.1,0.4,0.2,0.6,0.2c0.2,0,0.4-0.1,0.6-0.2l19.4-9.7V428.5z M371.2,411.7l-27.9-2.5c-0.8-0.1-1.5,0.5-1.6,1.3
	c-0.1,0.8,0.5,1.5,1.3,1.6l23.2,2.1l-23.1,11.5L313,410.6l30.1-15.1l30.1,15.1L371.2,411.7z"/>
</svg>
