<?xml version="1.0" encoding="utf-8"?>
<!-- Generator: Adobe Illustrator 21.0.0, SVG Export Plug-In . SVG Version: 6.00 Build 0)  -->
<svg version="1.1" id="Layer_1" xmlns="http://www.w3.org/2000/svg" xmlns:xlink="http://www.w3.org/1999/xlink" x="0px" y="0px"
	 viewBox="0 0 808 800" style="enable-background:new 0 0 808 800;" xml:space="preserve">
<style type="text/css">
	.st0{fill:#27A4A5;}
</style>
<g id="_x32_2._Certificate_2_">
	<path class="st0" d="M361.8,345c0,0-0.1-0.1-0.1-0.1c-0.5-0.5-1.2-0.8-2-0.8h-46.3c-1.6,0-2.9,1.3-2.9,2.9v31.4
		c0,0.8,0.3,1.5,0.9,2.1c0.5,0.5,1.3,0.9,2.1,0.9h25.9l-3.5,6c-0.2,0.4-0.2,0.9,0.1,1.3c0.3,0.4,0.7,0.6,1.2,0.5l3.9-0.8l1.3,3.7
		c0.1,0.4,0.5,0.7,1,0.8c0,0,0.1,0,0.1,0c0.4,0,0.8-0.2,1-0.6l3.6-6.2l3.6,6.2c0.2,0.4,0.6,0.6,1,0.6c0,0,0.1,0,0.1,0
		c0.5,0,0.8-0.4,1-0.8l1.3-3.7l3.9,0.8c0.5,0.1,0.9-0.1,1.2-0.5c0.3-0.4,0.3-0.9,0.1-1.3l-3.5-6h3.2c1.6,0,2.9-1.3,2.9-2.9V347
		C362.6,346.3,362.3,345.6,361.8,345z M324.2,369.7h15.9c-0.7,1-1.3,2.2-1.6,3.5H322c-0.4-1.6-1.7-2.9-3.4-3.4v-14.1
		c1.6-0.4,2.9-1.7,3.4-3.4h29.1c0.4,1.6,1.7,2.9,3.4,3.4v12.7c-1.7-1.6-4-2.6-6.6-2.6c-2,0-3.8,0.6-5.3,1.6h-18.3
		c-0.6,0-1.2,0.5-1.2,1.2S323.6,369.7,324.2,369.7z M343.6,388.9l-0.8-2.3c-0.2-0.6-0.8-0.9-1.3-0.8l-2.4,0.5l2.3-4.1
		c1.3,1.2,2.9,2,4.6,2.3L343.6,388.9z M347.8,382.4c-4,0-7.2-3.2-7.2-7.2c0-4,3.2-7.2,7.2-7.2c3.9,0,7.2,3.2,7.2,7.2
		C355,379.2,351.8,382.4,347.8,382.4z M356.6,386.3l-2.4-0.5c-0.6-0.1-1.1,0.2-1.3,0.8l-0.8,2.3l-2.5-4.3c1.8-0.3,3.3-1.2,4.6-2.3
		L356.6,386.3z M360.3,378.4c0,0.3-0.3,0.6-0.6,0.6h-3.1c0.5-1.2,0.8-2.4,0.8-3.8c0-1.2-0.2-2.3-0.6-3.3v-17.3
		c0-0.6-0.5-1.2-1.2-1.2c-1.3,0-2.3-1.1-2.3-2.3c0-0.6-0.5-1.2-1.2-1.2H321c-0.6,0-1.2,0.5-1.2,1.2c0,1.3-1.1,2.3-2.3,2.3
		c-0.6,0-1.2,0.5-1.2,1.2v16.2c0,0.6,0.5,1.2,1.2,1.2c1.3,0,2.3,1,2.3,2.3c0,0.6,0.5,1.2,1.2,1.2h17.4c0,1.2,0.3,2.4,0.8,3.5h-25.7
		c-0.3,0-0.6-0.3-0.6-0.6V347c0-0.3,0.3-0.6,0.6-0.6h46.3c0.3,0,0.6,0.3,0.6,0.6V378.4z"/>
	<path class="st0" d="M331.7,358.1h9.6c0.6,0,1.2-0.5,1.2-1.2c0-0.6-0.5-1.2-1.2-1.2h-9.6c-0.6,0-1.2,0.5-1.2,1.2
		C330.5,357.6,331.1,358.1,331.7,358.1z"/>
	<path class="st0" d="M324.2,363.9h24.5c0.6,0,1.2-0.5,1.2-1.2c0-0.6-0.5-1.2-1.2-1.2h-24.5c-0.6,0-1.2,0.5-1.2,1.2
		C323.1,363.4,323.6,363.9,324.2,363.9z"/>
	<path class="st0" d="M347.8,370.6c-2.5,0-4.6,2.1-4.6,4.6c0,2.5,2.1,4.6,4.6,4.6c2.5,0,4.6-2.1,4.6-4.6
		C352.4,372.7,350.4,370.6,347.8,370.6z M347.8,377.5c-1.2,0-2.3-1-2.3-2.3s1-2.3,2.3-2.3c1.2,0,2.3,1,2.3,2.3
		S349.1,377.5,347.8,377.5z"/>
</g>
</svg>
