<?xml version="1.0" encoding="utf-8"?>
<!-- Generator: Adobe Illustrator 21.0.0, SVG Export Plug-In . SVG Version: 6.00 Build 0)  -->
<svg version="1.1" id="Layer_1" xmlns="http://www.w3.org/2000/svg" xmlns:xlink="http://www.w3.org/1999/xlink" x="0px" y="0px"
	 viewBox="0 0 808 800" style="enable-background:new 0 0 808 800;" xml:space="preserve">
<style type="text/css">
	.st0{fill:#27A4A5;}
</style>
<path class="st0" d="M343.3,407.5c-0.2,0-0.4,0-0.6-0.1c-0.1-0.1-0.2-0.1-0.3-0.2c0,0-0.1-0.1-0.1-0.1c-0.2-0.3-0.3-0.6-0.3-0.9
	v-5.7l-0.1,0c-5.1-0.7-8.9-5.1-8.9-10.2v-7.1c0-5.7,4.6-10.3,10.3-10.3h12.3v-1.2c0-5.7,4.6-10.3,10.3-10.3h18.6
	c2.8,0,5.3,1.1,7.3,3c2,2,3,4.5,3,7.3v7.1c0,5.1-3.8,9.5-8.9,10.2l-0.1,0v5.7c0,0.5-0.3,1-0.7,1.2c-0.2,0.1-0.4,0.1-0.6,0.1
	c-0.3,0-0.6-0.1-0.8-0.3l-8.9-6.6l-2.6,0v1.2c0,5.7-4.6,10.3-10.3,10.3H353l-9,6.7C343.8,407.5,343.5,407.5,343.3,407.5z
	 M343.3,375.6c-4.2,0-7.6,3.4-7.6,7.6v7.1c0,4.2,3.4,7.6,7.6,7.6c0.7,0,1.4,0.6,1.4,1.4v4.2l7.1-5.3c0.2-0.2,0.5-0.3,0.8-0.3h9.3
	c4.2,0,7.6-3.4,7.6-7.6v-1.2h-3.5c-5.7,0-10.3-4.6-10.3-10.3v-3.2H343.3z M365.9,364.1c-4.2,0-7.6,3.4-7.6,7.6v1.2h3.5
	c5.7,0,10.3,4.6,10.3,10.3v3.2h3.1c0.3,0,0.6,0.1,0.8,0.3l7.1,5.3v-4.2c0-0.7,0.6-1.4,1.4-1.4c4.2,0,7.6-3.4,7.6-7.6v-7.1
	c0-4.2-3.4-7.6-7.6-7.6H365.9z M358.3,378.8c0,4.2,3.4,7.6,7.6,7.6h3.5v-3.2c0-4.2-3.4-7.6-7.6-7.6h-3.5V378.8z"/>
</svg>
