<?xml version="1.0" encoding="utf-8"?>
<!-- Generator: Adobe Illustrator 21.0.0, SVG Export Plug-In . SVG Version: 6.00 Build 0)  -->
<svg version="1.1" id="Layer_1" xmlns="http://www.w3.org/2000/svg" xmlns:xlink="http://www.w3.org/1999/xlink" x="0px" y="0px"
	 viewBox="0 0 275 275" style="enable-background:new 0 0 275 275;" xml:space="preserve">
<style type="text/css">
	.st0{fill:#2999C3;}
	.st1{fill:#FFFFFF;}
</style>
<g>
	<g>
		<path class="st0" d="M154.4,134.5c16.7,1.3,33.4-2.1,50.2-2.6c16.8-0.5,34.8,2.5,46.8,14.2c9.1,8.9,13.4,21.7,14.1,34.4
			c1.4,25.5-11.7,50.8-31.8,66.6c-20.1,15.8-46.6,22.3-72.1,20.5c-25.5-1.9-50-11.8-71.2-26c-35.1-23.5-62-59.1-75-99.3
			c-5.2-15.9-8.2-33-4.8-49.4c3.4-16,15.1-33.1,31.8-37.8C66.1,48.4,78,73.7,88,90.5c7.8,13.1,17.1,25.2,30.6,32.8
			C129.6,129.5,141.9,133.5,154.4,134.5z"/>
	</g>
</g>
<g>
	<g>
		<path class="st0" d="M134.4,66.3c2,7.7,8.3,15.2,16.3,15.1c8-0.1,14-7.4,16.9-14.8c7.6-19.4,0.1-43.6-17.1-55.4
			c-12.3-8.4-27.5-3.7-21.9,11.8C134.1,37.8,130.6,51.4,134.4,66.3z"/>
	</g>
</g>
<g>
	<g>
		<circle class="st1" cx="159.5" cy="164.5" r="2.9"/>
		<circle class="st1" cx="167.5" cy="153.7" r="4.1"/>
		<circle class="st1" cx="155.5" cy="145.5" r="2.9"/>
	</g>
	<path class="st1" d="M149.7,232.2c-4.3,0-8.6,0.1-12.9,0.2c-2.3,3.8-3.8,7.2-3.8,9.5c0,3,1.8,6.7,10,6.7c1.1,0,1.9-0.1,1.9-0.1
		c0.1,0,0.1,0,0.2,0h34c0.1,0,0.1,0,0.2,0c0,0,0.8,0.1,1.9,0.1c8.2,0,10-3.6,10-6.7c0-2.4-1.5-5.9-3.8-9.7
		C174.8,232.2,162.1,232.2,149.7,232.2z"/>
	<path class="st1" d="M172.7,208.2V186h0.6c2.7,0,4.9-2.5,4.9-5.5c0-3-2.2-5.5-4.9-5.5H151c-2.7,0-4.9,2.5-4.9,5.5
		c0,3,2.2,5.5,4.9,5.5h1.2v22.1c-1.3,1.5-6.1,6.7-10.7,12.7c-7.5,9.7-11.3,16.8-11.3,21.1c0,6,4.7,9.5,12.8,9.5
		c1.1,0,1.9-0.1,2.2-0.1H179c0.3,0,1.1,0.1,2.2,0.1c0,0,0,0,0,0c8.1,0,12.8-3.5,12.8-9.5C194.1,232.6,175.6,211.5,172.7,208.2z
		 M181.2,248.6c-1.1,0-1.9-0.1-1.9-0.1c-0.1,0-0.1,0-0.2,0h-34c-0.1,0-0.1,0-0.2,0c0,0-0.8,0.1-1.9,0.1c-8.2,0-10-3.6-10-6.7
		c0-7.4,15.6-25.8,21.6-32.3c0.2-0.3,0.4-0.6,0.4-1v-24.1c0-0.8-0.6-1.4-1.4-1.4H151c-1.1,0-2.1-1.2-2.1-2.7c0-1.4,0.9-2.7,2.1-2.7
		h22.3c1.1,0,2.1,1.2,2.1,2.7c0,1.4-0.9,2.7-2.1,2.7h-2c-0.8,0-1.4,0.6-1.4,1.4v24.1c0,0.4,0.1,0.7,0.4,1c5.9,6.5,21,24.9,21,32.3
		C191.2,245,189.4,248.6,181.2,248.6z"/>
</g>
</svg>
