<?xml version="1.0" encoding="utf-8"?>
<!-- Generator: Adobe Illustrator 21.0.0, SVG Export Plug-In . SVG Version: 6.00 Build 0)  -->
<svg version="1.1" id="Layer_1" xmlns="http://www.w3.org/2000/svg" xmlns:xlink="http://www.w3.org/1999/xlink" x="0px" y="0px"
	 viewBox="0 0 275 275" style="enable-background:new 0 0 275 275;" xml:space="preserve">
<style type="text/css">
	.st0{fill:#1ABC9C;}
	.st1{fill:#FFFFFF;}
</style>
<g>
	<g>
		<path class="st0" d="M154.9,135.4c17,1.3,33.9-2.1,50.9-2.6c17-0.5,35.3,2.6,47.5,14.5c9.2,9,13.6,22,14.3,34.9
			c1.4,25.9-11.8,51.6-32.3,67.6c-20.4,16-47.3,22.7-73.2,20.8c-25.9-1.9-50.7-12-72.3-26.4c-35.7-23.8-63-60-76.2-100.8
			c-5.2-16.1-8.3-33.5-4.8-50.1C12.2,76.9,24.1,59.6,41,54.8c24.2-6.8,36.2,18.9,46.4,36c8,13.3,17.3,25.5,31.1,33.3
			C129.7,130.4,142.1,134.4,154.9,135.4z"/>
	</g>
</g>
<g>
	<g>
		<path class="st0" d="M134.5,66.2c2,7.8,8.4,15.4,16.5,15.3c8.1-0.1,14.3-7.5,17.2-15.1c7.7-19.7,0.1-44.3-17.3-56.2
			c-12.5-8.5-28-3.7-22.2,12C134.2,37.2,130.6,51.1,134.5,66.2z"/>
	</g>
</g>
<g>
	<path class="st1" d="M176.3,206.4c1.2-0.4,4.1-1.2,5.4-5.1l2.7-8l1.1,0.4c0.5,0.2,1.1-0.1,1.2-0.6l1.5-4.3c0.2-0.5-0.1-1.1-0.6-1.2
		l-35.3-12c-0.5-0.2-1.1,0.1-1.2,0.6l-1.5,4.3c-0.2,0.5,0.1,1.1,0.6,1.2l1.1,0.4l-2.8,8.2c-1.3,3.9-0.4,5.2,1.2,7.1l7.2,8.6
		l-0.8,2.3c-2.7,0.6-9.9,2.2-10.9,2.4c-1.2,0.4-4.1,1.2-5.4,5.1l-2.3,6.9l-1.1-0.4c-0.5-0.2-1.1,0.1-1.2,0.6l-1.5,4.3
		c-0.2,0.5,0.1,1.1,0.6,1.2l35.4,12c0.5,0.2,1.1-0.1,1.2-0.6l1.5-4.3c0.2-0.5-0.1-1.1-0.6-1.2l-1.1-0.4l2.4-7.1
		c1.3-3.9,0.4-5.2-1.2-7.1l-7.2-8.6l0.8-2.3C168.2,208.2,175.4,206.7,176.3,206.4z M161.4,212.6l7.8,9.3c0.6,0.7,0.9,1.1,1,1.5
		c0.1,0.4,0,1.2-0.4,2.3l-2.4,7.1l-26.6-9l2.3-6.9c0.7-2.2,2.1-2.6,3.1-2.9c0.8-0.2,7.3-1.7,11.6-2.6c0.6-0.1,1.1-0.6,1.3-1.1
		l1.4-4.2c0.2-0.6,0.1-1.2-0.3-1.7l-7.8-9.3l0,0c-0.6-0.7-0.9-1.1-1-1.5c-0.1-0.4,0-1.2,0.4-2.3l2.8-8.2l26.6,9l-2.7,8
		c-0.7,2.2-2.1,2.6-3.1,2.9c-0.8,0.2-7.3,1.7-11.6,2.6c-0.6,0.1-1.1,0.6-1.3,1.1l-1.4,4.2C160.9,211.5,161,212.2,161.4,212.6z"/>
	<path class="st1" d="M163.4,204.5c1.6-0.2,11.2-2.2,11.2-2.2s0.8-0.3-0.2-0.5c-2.3-0.4-6.5,0.5-11.1-0.7c-4.6-1.2-5.6-5.3-8.6-5.5
		c-0.7-0.1-0.7,0.2-0.2,0.9c0.6,0.7,5.8,6.4,6.5,7.2C161.8,204.5,162.3,204.7,163.4,204.5z"/>
	<path class="st1" d="M145.6,222.8c-1,0.4-1.5,0.8,0.2,1.4c1.4,0.5,15.6,5.3,17.4,5.9c1.8,0.6,1.3-0.2,0.7-1.3
		c-1.1-2.1-3.4-5.4-7.6-6.8C152.1,220.5,147.9,221.8,145.6,222.8z"/>
	
		<ellipse transform="matrix(0.3221 -0.9467 0.9467 0.3221 -86.1378 292.8434)" class="st1" cx="161.4" cy="206.6" rx="0.6" ry="0.5"/>
	
		<ellipse transform="matrix(0.3219 -0.9468 0.9468 0.3219 -88.7899 293.7053)" class="st1" cx="160.6" cy="208.8" rx="0.6" ry="0.5"/>
	
		<ellipse transform="matrix(0.3219 -0.9468 0.9468 0.3219 -91.4576 294.5226)" class="st1" cx="159.9" cy="211.1" rx="0.6" ry="0.5"/>
	
		<ellipse transform="matrix(0.3219 -0.9468 0.9468 0.3219 -94.1258 295.3381)" class="st1" cx="159.1" cy="213.4" rx="0.6" ry="0.5"/>
	
		<ellipse transform="matrix(0.3222 -0.9467 0.9467 0.3222 -96.8228 296.064)" class="st1" cx="158.3" cy="215.6" rx="0.6" ry="0.5"/>
	
		<ellipse transform="matrix(0.3221 -0.9467 0.9467 0.3221 -99.4856 296.8956)" class="st1" cx="157.6" cy="217.9" rx="0.6" ry="0.5"/>
	
		<ellipse transform="matrix(0.3218 -0.9468 0.9468 0.3218 -102.1294 297.7924)" class="st1" cx="156.8" cy="220.2" rx="0.6" ry="0.5"/>
	<path class="st1" d="M182.4,245.7c-0.8,0.4-1.6,0.9-2.4,1.3c-0.1,0.1-0.3,0.1-0.4,0.2c-0.1,0-0.3,0.1-0.4,0.2
		c-3.5,1.6-7.1,2.8-10.8,3.4c0,0-0.1,0-0.1,0c-0.9,0.2-1.8,0.3-2.7,0.4c0,0,0,0,0,0c-1.6,0.2-3.3,0.3-4.9,0.3
		c-19.2,0-35.5-12.3-41.6-29.4c-0.1-0.3-0.2-0.5-0.3-0.8c-1.5-4.4-2.2-9-2.2-13.9c0-4.9,0.8-9.5,2.2-13.9c0-0.1,0.1-0.2,0.1-0.3
		c0.1-0.3,0.2-0.5,0.3-0.8c0-0.1,0.1-0.2,0.1-0.4c5-13.5,16.5-24,30.7-27.5c0,0,0,0,0,0c0.2-0.1,0.4-0.1,0.6-0.2c0,0,0,0,0.1,0
		c3.1-0.7,6.3-1.1,9.6-1.1l0,4.5c0,1.4,0.9,1.8,2,0.9l9.6-8.1c1.1-0.9,1.1-2.4,0-3.3l-9.7-8c-1.1-0.9-2-0.5-2,0.9l0,4.5
		c-13.9,0.1-27,5.5-36.8,15.4c-1,1-1.9,2-2.8,3c0,0,0,0,0,0c0,0-0.1,0.1-0.1,0.1c-7.8,9.1-12.1,20.4-12.5,32.5c0,0.1,0,0.2,0,0.3
		c0,0.4,0,0.8,0,1.2c0,0.7,0,1.3,0,2c0,0.1,0,0.2,0,0.2c0.4,11,4.2,21.3,10.9,29.9c0,0,0,0.1,0.1,0.1c0.6,0.8,1.3,1.7,2,2.5
		c0,0.1,0.1,0.1,0.1,0.1c0.7,0.8,1.4,1.6,2.2,2.4c7.8,7.8,17.6,12.8,28.3,14.6c0,0,0.1,0,0.1,0c0,0,0,0,0.1,0
		c2.8,0.5,5.8,0.7,8.7,0.7c7.7,0,15.2-1.6,22.2-4.9c0.2-0.1,0.3-0.2,0.4-0.2c0.2-0.1,0.3-0.1,0.5-0.2c1-0.5,1.9-1,2.8-1.5
		c2-1.1,2.7-3.7,1.6-5.8C187,245.3,184.4,244.6,182.4,245.7z"/>
	<path class="st1" d="M197.2,182.8c0.8,1.2,2.1,1.9,3.5,1.9c0.8,0,1.6-0.2,2.4-0.7c1.9-1.3,2.5-3.9,1.1-5.9
		c-0.6-0.9-1.2-1.8-1.9-2.6c-1.4-1.9-4.1-2.2-5.9-0.8c-1.9,1.4-2.2,4.1-0.8,5.9C196.2,181.3,196.8,182,197.2,182.8z"/>
	<path class="st1" d="M202.6,193.9c0.3,0.8,0.5,1.7,0.7,2.6c0.5,1.9,2.2,3.2,4.1,3.2c0.3,0,0.7,0,1-0.1c2.3-0.6,3.6-2.9,3-5.1
		c-0.3-1-0.6-2.1-0.9-3.1c-0.7-2.2-3.1-3.4-5.3-2.7C203.1,189.3,201.9,191.6,202.6,193.9z"/>
	<path class="st1" d="M199.9,235.8c-1.8-1.5-4.4-1.3-6,0.4c-0.6,0.7-1.2,1.3-1.8,2c-1.6,1.7-1.6,4.3,0.1,6c0.8,0.8,1.9,1.2,3,1.2
		c1.1,0,2.2-0.4,3-1.3c0.7-0.8,1.5-1.6,2.2-2.4C201.9,240,201.7,237.3,199.9,235.8z"/>
	<path class="st1" d="M209.1,204.6c-2.3-0.1-4.3,1.8-4.3,4.1c0,0.9-0.1,1.8-0.2,2.7c-0.2,2.3,1.5,4.4,3.8,4.6c0.1,0,0.3,0,0.4,0
		c2.2,0,4-1.6,4.2-3.8c0.1-1.1,0.2-2.1,0.2-3.2C213.2,206.6,211.4,204.7,209.1,204.6z"/>
	<path class="st1" d="M207.2,221c-2.2-0.9-4.6,0.2-5.5,2.4c-0.3,0.8-0.7,1.7-1.1,2.5c-1,2.1-0.1,4.6,2.1,5.6
		c0.6,0.3,1.2,0.4,1.8,0.4c1.6,0,3.1-0.9,3.8-2.4c0.4-1,0.9-2,1.3-2.9C210.4,224.3,209.4,221.8,207.2,221z"/>
	<path class="st1" d="M192.8,171.1c1.4-1.9,1-4.5-0.9-5.9c-0.9-0.6-1.7-1.2-2.6-1.8c-2-1.3-4.6-0.7-5.8,1.2c-1.3,2-0.7,4.6,1.2,5.8
		c0.7,0.5,1.5,1,2.2,1.5c0.8,0.6,1.6,0.8,2.5,0.8C190.7,172.8,192,172.2,192.8,171.1z"/>
</g>
</svg>
