<?xml version="1.0" encoding="utf-8"?>
<!-- Generator: Adobe Illustrator 21.0.0, SVG Export Plug-In . SVG Version: 6.00 Build 0)  -->
<svg version="1.1" id="Layer_1" xmlns="http://www.w3.org/2000/svg" xmlns:xlink="http://www.w3.org/1999/xlink" x="0px" y="0px"
	 viewBox="0 0 808 800" style="enable-background:new 0 0 808 800;" xml:space="preserve">
<style type="text/css">
	.st0{fill:#27A4A5;}
</style>
<path id="_x34_4._Telescope_1_" class="st0" d="M390.4,365.9l-7.4-7.4c-0.9-0.9-2.3-0.9-3.1,0l-5.5,5.5c-0.9,0.9-0.9,2.3,0,3.1
	l0.2,0.2l-14,14c-0.8,0.8-0.9,2.1-0.2,2.9l-4.3,4.3c-0.2,0.2-0.3,0.4-0.3,0.6c0,0.2,0.1,0.4,0.2,0.6c0,0,0,0,0.1,0.1l2.9,2.9
	c0,0,0.1,0.1,0.1,0.1c0.2,0.1,0.3,0.2,0.5,0.2c0.2,0,0.5-0.1,0.6-0.3l4.3-4.3c0.4,0.3,0.9,0.5,1.4,0.5c0.6,0,1.1-0.2,1.6-0.6l4-4
	c0.3,0.7,0.8,1.3,1.5,1.6l-6.3,10.9c-0.2,0.4-0.1,1,0.3,1.2c0.1,0.1,0.3,0.1,0.4,0.1c0.3,0,0.6-0.2,0.8-0.4l5.2-9.1v10.5
	c0,0.5,0.4,0.9,0.9,0.9c0.5,0,0.9-0.4,0.9-0.9v-10.5l5.2,9.1c0.2,0.3,0.5,0.4,0.8,0.4c0.2,0,0.3,0,0.4-0.1c0.4-0.2,0.6-0.8,0.3-1.2
	l-6.3-11c0.9-0.5,1.5-1.5,1.5-2.6c0-1.3-0.8-2.3-1.9-2.8l6.2-6.2l0.2,0.2c0.4,0.4,1,0.7,1.6,0.7c0.6,0,1.1-0.2,1.6-0.7l5.5-5.5
	C391.2,368.2,391.2,366.8,390.4,365.9z M359.6,390.9l-1.6-1.6l3.7-3.7l1.6,1.6L359.6,390.9z M375.4,383.2c0,0.7-0.5,1.2-1.2,1.2
	c-0.7,0-1.2-0.5-1.2-1.2c0-0.7,0.5-1.2,1.2-1.2C374.9,382.1,375.4,382.6,375.4,383.2z M366.2,387c-0.2,0.2-0.5,0.2-0.6,0l-0.4-0.4
	l-2.9-2.9l-0.4-0.4c-0.2-0.2-0.2-0.5,0-0.6l14-14l4.4,4.4L366.2,387z M389.1,367.8l-5.5,5.5c-0.1,0.1-0.2,0.1-0.3,0.1
	c-0.1,0-0.2,0-0.3-0.1l-7.4-7.4c-0.2-0.2-0.2-0.5,0-0.6l3.2-3.2l4.1,4.1c0.2,0.2,0.4,0.3,0.6,0.3c0.2,0,0.5-0.1,0.6-0.3
	c0.3-0.3,0.3-0.9,0-1.3l-4.1-4.1l1-1c0.2-0.2,0.5-0.2,0.6,0l7.4,7.4C389.3,367.3,389.3,367.6,389.1,367.8z"/>
</svg>
