<?xml version="1.0" encoding="utf-8"?>
<!-- Generator: Adobe Illustrator 21.0.0, SVG Export Plug-In . SVG Version: 6.00 Build 0)  -->
<svg version="1.1" id="Layer_1" xmlns="http://www.w3.org/2000/svg" xmlns:xlink="http://www.w3.org/1999/xlink" x="0px" y="0px"
	 viewBox="0 0 808 800" style="enable-background:new 0 0 808 800;" xml:space="preserve">
<style type="text/css">
	.st0{fill:#006F3B;}
	.st1{fill:url(#SVGID_1_);}
	.st2{fill:#FFFFFF;}
	.st3{opacity:0.25;}
</style>
<g>
	<path class="st0" d="M365.6,346.3c0,6.9,5.6,12.5,12.5,12.5c6.9,0,12.5-5.6,12.5-12.5c0-6.9-5.6-12.5-12.5-12.5
		C371.2,333.8,365.6,339.4,365.6,346.3z"/>
	<linearGradient id="SVGID_1_" gradientUnits="userSpaceOnUse" x1="378.0678" y1="334.3519" x2="378.0678" y2="358.3149">
		<stop  offset="0" style="stop-color:#C9DA2A"/>
		<stop  offset="8.235908e-02" style="stop-color:#B3CB2C"/>
		<stop  offset="0.2051" style="stop-color:#99BA2E"/>
		<stop  offset="0.3411" style="stop-color:#85AD2F"/>
		<stop  offset="0.4953" style="stop-color:#77A330"/>
		<stop  offset="0.6831" style="stop-color:#6F9E31"/>
		<stop  offset="1" style="stop-color:#6C9C31"/>
	</linearGradient>
	<circle class="st1" cx="378.1" cy="346.3" r="12"/>
	<path class="st0" d="M376.2,353.8c0.6-0.6,10.3-9.9,10.3-9.9c0.6-0.6,0.4-1.2,0.1-1.6l-2.3-2.3c-0.3-0.3-1-0.5-1.6,0.1
		c0,0-5.9,5.9-6.5,6.5c-0.6-0.6-2.8-2.8-2.8-2.8c-0.6-0.6-1.2-0.4-1.6-0.1l-2.3,2.3c-0.3,0.3-0.5,1,0.1,1.6c0,0,2.2,2.2,2.8,2.8"/>
	<path class="st2" d="M386.2,342.7l-2.3-2.3c-0.2-0.2-0.5-0.2-0.8,0.1l-6.9,6.9l-3.3-3.3c-0.3-0.3-0.5-0.3-0.8-0.1l-2.3,2.3
		c-0.2,0.2-0.2,0.5,0.1,0.8l6.2,6.2l0,0l9.9-9.8C386.4,343.2,386.4,342.9,386.2,342.7z"/>
	<g class="st3">
		<path class="st2" d="M387,345c0-3.9-2-7.5-5.1-9.8c-1.3-0.4-2.6-0.7-4-0.7c-2,0-4,0.5-5.7,1.4c-3.7,2.1-6.1,6-6.1,10.5
			c0,5.2,3.3,9.6,7.9,11.3C381.2,357.2,387,351.7,387,345z"/>
	</g>
</g>
</svg>
