<?xml version="1.0" encoding="utf-8"?>
<!-- Generator: Adobe Illustrator 21.0.0, SVG Export Plug-In . SVG Version: 6.00 Build 0)  -->
<svg version="1.1" id="Layer_1" xmlns="http://www.w3.org/2000/svg" xmlns:xlink="http://www.w3.org/1999/xlink" x="0px" y="0px"
	 viewBox="0 0 864 93" style="enable-background:new 0 0 864 93;" xml:space="preserve">
<style type="text/css">
	.st0{fill:#67C694;}
	.st1{fill:#7AC943;}
</style>
<ellipse id="XMLID_1187_" class="st0" cx="433.9" cy="61.8" rx="420.1" ry="21.1"/>
<path id="XMLID_1180_" class="st1" d="M593.9,64.9c0,0,3.8-7.9,14.3-6.9c10.5,1,7.7-8.4,19.5-10S641.5,50,655.8,38
	c14.3-12,26.2,9.4,36.8,0.5c10.6-8.9,18.2-23.2,36.3-17.7c18,5.6,10.4,19.7,21.1,25.1c10.7,5.3,21.8,7.1,26.3,19.3L593.9,64.9z"/>
<path id="XMLID_1186_" class="st1" d="M330.9,67.1c0,0-4.9-10.1-18.3-8.8c-13.4,1.3-9.9-10.8-24.9-12.7c-15-2-17.7,2.5-36-12.8
	c-18.2-15.3-33.4,12-47,0.7C191.3,22,181.5,3.7,158.6,10.8c-23,7.1-13.3,25.2-26.9,32c-13.6,6.8-27.8,9-33.6,24.6L330.9,67.1z"/>
</svg>
