<?xml version="1.0" encoding="utf-8"?>
<!-- Generator: Adobe Illustrator 21.0.0, SVG Export Plug-In . SVG Version: 6.00 Build 0)  -->
<svg version="1.1" id="Layer_1" xmlns="http://www.w3.org/2000/svg" xmlns:xlink="http://www.w3.org/1999/xlink" x="0px" y="0px"
	 viewBox="0 0 808 800" style="enable-background:new 0 0 808 800;" xml:space="preserve">
<style type="text/css">
	.st0{fill:#961B1E;}
	.st1{fill:url(#SVGID_1_);}
	.st2{fill:#FFFFFF;}
	.st3{opacity:0.25;}
</style>
<g>
	<path class="st0" d="M338.1,343.7c0,6.9,5.6,12.5,12.5,12.5c6.9,0,12.5-5.6,12.5-12.5c0-6.9-5.6-12.5-12.5-12.5
		C343.7,331.2,338.1,336.8,338.1,343.7z"/>
	<linearGradient id="SVGID_1_" gradientUnits="userSpaceOnUse" x1="350.628" y1="331.7076" x2="350.628" y2="355.6725">
		<stop  offset="0" style="stop-color:#F38280"/>
		<stop  offset="9.750175e-02" style="stop-color:#E46767"/>
		<stop  offset="0.2182" style="stop-color:#D64D4F"/>
		<stop  offset="0.3519" style="stop-color:#CB393D"/>
		<stop  offset="0.5036" style="stop-color:#C32B30"/>
		<stop  offset="0.6884" style="stop-color:#BE2328"/>
		<stop  offset="1" style="stop-color:#BD2026"/>
	</linearGradient>
	<circle class="st1" cx="350.6" cy="343.7" r="12"/>
	<path class="st0" d="M343.9,339.3c-0.3,0.3-0.5,0.9,0.1,1.6c0,0,2.2,2.2,2.8,2.8c-0.6,0.6-2.8,2.8-2.8,2.8
		c-0.6,0.6-0.4,1.2-0.1,1.6l2.3,2.3c0.3,0.3,1,0.5,1.6-0.1c0,0,2.2-2.2,2.8-2.8c0.6,0.6,2.8,2.8,2.8,2.8c0.6,0.6,1.2,0.4,1.6,0.1
		l2.3-2.3c0.3-0.3,0.5-1-0.1-1.6c0,0-2.2-2.2-2.8-2.8c0.6-0.6,2.8-2.8,2.8-2.8c0.6-0.6,0.4-1.2,0.1-1.6l-2.3-2.3
		c-0.3-0.3-0.9-0.5-1.6,0.1c0,0-2.2,2.2-2.8,2.8c-0.6-0.6-2.8-2.8-2.8-2.8c-0.6-0.6-1.2-0.4-1.6-0.1L343.9,339.3z"/>
	<path class="st2" d="M356.7,339.7c0.2,0.2,0.2,0.5-0.1,0.7l-3.2,3.2l3.2,3.2c0.3,0.3,0.3,0.5,0.1,0.7l-2.3,2.3
		c-0.2,0.2-0.5,0.2-0.7-0.1l-3.2-3.2l-3.2,3.2c-0.3,0.3-0.5,0.3-0.7,0.1l-2.3-2.3c-0.2-0.2-0.2-0.5,0.1-0.7l3.2-3.2l-3.2-3.2
		c-0.3-0.3-0.3-0.5-0.1-0.7l2.3-2.3c0.2-0.2,0.5-0.2,0.7,0.1l3.2,3.2l3.2-3.2c0.3-0.3,0.5-0.3,0.7-0.1L356.7,339.7z"/>
	<g class="st3">
		<path class="st2" d="M359.5,342.2c0-3.9-1.9-7.4-5-9.7c-1.2-0.4-2.6-0.7-4-0.7c-2.7,0-5.1,0.9-7.1,2.3c-2.9,2.2-4.8,5.7-4.8,9.6
			c0,4.9,3,9.2,7.2,11C353.4,354.7,359.5,349.1,359.5,342.2z"/>
	</g>
</g>
</svg>
