<?xml version="1.0" encoding="utf-8"?>
<!-- Generator: Adobe Illustrator 21.0.0, SVG Export Plug-In . SVG Version: 6.00 Build 0)  -->
<svg version="1.1" id="Layer_1" xmlns="http://www.w3.org/2000/svg" xmlns:xlink="http://www.w3.org/1999/xlink" x="0px" y="0px"
	 viewBox="0 0 220 200" style="enable-background:new 0 0 220 200;" xml:space="preserve">
<style type="text/css">
	.st0{fill:#27A4A5;}
</style>
<path class="st0" d="M40,183.8c-0.7,0-1.4-0.2-2-0.5c-0.4-0.2-0.7-0.4-1-0.7c-0.1-0.1-0.2-0.2-0.3-0.3c-0.8-1-1.2-2-1.2-3.1V160
	l-0.3,0C18,157.6,5,142.7,5,125.3v-24c0-19.3,15.7-35,35-35h41.9v-4.1c0-19.3,15.7-35,35-35h63c9.4,0,18.1,3.7,24.7,10.3
	c6.6,6.6,10.3,15.4,10.3,24.7v24c0,17.4-13,32.3-30.2,34.7l-0.3,0v19.2c0,1.8-1,3.3-2.5,4.1c-0.6,0.3-1.3,0.5-2.1,0.5
	c-1,0-2-0.3-2.8-0.9L147,121.3l-8.9-0.1v4.1c0,19.3-15.7,35-35,35H73.2l-30.4,22.6C42,183.5,41,183.8,40,183.8z M40,75.4
	c-14.3,0-25.8,11.6-25.8,25.9v24c0,14.3,11.6,25.8,25.8,25.8c2.5,0,4.6,2.1,4.6,4.6v14.3l24.2-18c0.8-0.6,1.8-0.9,2.8-0.9h31.5
	c14.3,0,25.8-11.6,25.8-25.8v-4.1h-12c-19.3,0-35-15.7-35-35V75.4H40z M116.9,36.3c-14.3,0-25.8,11.6-25.8,25.8v4.1h12
	c19.3,0,35,15.7,35,35V112h10.4c1,0,2,0.3,2.7,0.9l24.2,18v-14.3c0-2.5,2.1-4.6,4.6-4.6c14.3,0,25.8-11.6,25.8-25.9v-24
	c0-14.3-11.6-25.8-25.8-25.8H116.9z M91.1,86.2c0,14.3,11.6,25.9,25.8,25.9h12v-10.7c0-14.3-11.6-25.9-25.8-25.9h-12V86.2z"/>
</svg>
