<?xml version="1.0" encoding="utf-8"?>
<!-- Generator: Adobe Illustrator 21.0.0, SVG Export Plug-In . SVG Version: 6.00 Build 0)  -->
<svg version="1.1" id="Layer_1" xmlns="http://www.w3.org/2000/svg" xmlns:xlink="http://www.w3.org/1999/xlink" x="0px" y="0px"
	 viewBox="0 0 220 200" style="enable-background:new 0 0 220 200;" xml:space="preserve">
<style type="text/css">
	.st0{fill:#27A4A5;}
</style>
<g id="_x32_2._Certificate_2_">
	<path class="st0" d="M204.5,12.4c-0.1-0.2-0.3-0.3-0.5-0.5c-2-1.8-4.6-3-7.5-3H23.4c-6,0-10.9,4.9-10.9,10.9v117.3
		c0,3,1.2,5.7,3.2,7.7c2,2,4.7,3.2,7.7,3.2h96.7l-13,22.5c-0.8,1.5-0.8,3.3,0.2,4.7c1,1.4,2.7,2.1,4.4,1.7l14.5-2.8l4.8,14
		c0.6,1.6,2,2.8,3.7,2.9c0.1,0,0.3,0,0.4,0c1.5,0,3-0.8,3.8-2.2l13.3-23.1l13.3,23.1c0.8,1.4,2.2,2.2,3.8,2.2c0.1,0,0.3,0,0.4,0
		c1.7-0.1,3.2-1.3,3.7-2.9l4.8-14l14.5,2.8c1.7,0.3,3.4-0.4,4.4-1.7c1-1.4,1.1-3.3,0.2-4.7l-13-22.5h12c6,0,10.9-4.9,10.9-10.9V19.8
		C207.5,16.9,206.3,14.3,204.5,12.4z M64.1,104.5h59.4c-2.7,3.8-4.7,8.2-5.8,12.9h-62c-1.6-6.1-6.4-11-12.6-12.6V52.1
		c6.1-1.6,11-6.4,12.6-12.6h108.7c1.6,6.1,6.4,11,12.6,12.6v47.5c-6.4-6.1-15-9.9-24.6-9.9c-7.4,0-14.2,2.3-19.9,6.1H64.1
		c-2.4,0-4.4,2-4.4,4.4S61.7,104.5,64.1,104.5z M136.3,176.2l-2.9-8.5c-0.7-2.1-2.8-3.3-5-2.9l-8.8,1.7l8.7-15.2
		c4.7,4.3,10.7,7.4,17.3,8.7L136.3,176.2z M152.3,152c-14.8,0-26.8-12-26.8-26.8c0-14.8,12-26.8,26.8-26.8c14.8,0,26.8,12,26.8,26.8
		C179.1,140,167.1,152,152.3,152z M185.2,166.6l-8.8-1.7c-2.1-0.4-4.3,0.8-5,2.9l-2.9,8.5l-9.3-16.1c6.6-1.3,12.5-4.4,17.2-8.8
		L185.2,166.6z M198.7,137.1c0,1.2-1,2.2-2.2,2.2H185c1.9-4.3,2.9-9.1,2.9-14.1c0-4.4-0.8-8.6-2.2-12.5V48.2c0-2.4-2-4.4-4.4-4.4
		c-4.8,0-8.7-3.9-8.7-8.7c0-2.4-2-4.4-4.4-4.4H51.8c-2.4,0-4.4,2-4.4,4.4c0,4.8-3.9,8.7-8.7,8.7c-2.4,0-4.4,2-4.4,4.4v60.5
		c0,2.4,2,4.4,4.4,4.4c4.8,0,8.7,3.9,8.7,8.7c0,2.4,2,4.4,4.4,4.4h65c0.1,4.6,1.1,9.1,2.9,13.1H23.4c-1.2,0-2.2-1-2.2-2.2V19.8
		c0-1.2,1-2.2,2.2-2.2h173.1c1.2,0,2.2,1,2.2,2.2V137.1z"/>
	<path class="st0" d="M92,61.2h36c2.4,0,4.4-2,4.4-4.4c0-2.4-2-4.4-4.4-4.4H92c-2.4,0-4.4,2-4.4,4.4C87.6,59.2,89.6,61.2,92,61.2z"
		/>
	<path class="st0" d="M64.1,82.8h91.8c2.4,0,4.4-2,4.4-4.4c0-2.4-2-4.4-4.4-4.4H64.1c-2.4,0-4.4,2-4.4,4.4
		C59.8,80.9,61.7,82.8,64.1,82.8z"/>
	<path class="st0" d="M152.3,108c-9.5,0-17.2,7.7-17.2,17.2c0,9.5,7.7,17.2,17.2,17.2c9.5,0,17.2-7.7,17.2-17.2
		C169.5,115.7,161.8,108,152.3,108z M152.3,133.7c-4.7,0-8.5-3.8-8.5-8.4s3.8-8.5,8.5-8.5c4.7,0,8.4,3.8,8.4,8.5
		S157,133.7,152.3,133.7z"/>
</g>
</svg>
