<?xml version="1.0" encoding="utf-8"?>
<!-- Generator: Adobe Illustrator 21.0.0, SVG Export Plug-In . SVG Version: 6.00 Build 0)  -->
<svg version="1.1" id="Layer_1" xmlns="http://www.w3.org/2000/svg" xmlns:xlink="http://www.w3.org/1999/xlink" x="0px" y="0px"
	 viewBox="0 0 808 800" style="enable-background:new 0 0 808 800;" xml:space="preserve">
<style type="text/css">
	.st0{fill:#0054A5;}
	.st1{fill:url(#SVGID_1_);}
	.st2{fill:#FFFFFF;}
	.st3{opacity:0.25;}
</style>
<g>
	<path class="st0" d="M413.8,383.7c0,6.9-5.6,12.5-12.5,12.5c-6.9,0-12.5-5.6-12.5-12.5c0-6.9,5.6-12.5,12.5-12.5
		C408.2,371.2,413.8,376.8,413.8,383.7z"/>
	
		<linearGradient id="SVGID_1_" gradientUnits="userSpaceOnUse" x1="-888.9886" y1="371.5943" x2="-888.9886" y2="395.5584" gradientTransform="matrix(-1 0 0 1 -487.7637 0)">
		<stop  offset="0" style="stop-color:#ABE0F9"/>
		<stop  offset="5.993545e-02" style="stop-color:#8DCCEE"/>
		<stop  offset="0.1477" style="stop-color:#67B4E1"/>
		<stop  offset="0.2427" style="stop-color:#479FD5"/>
		<stop  offset="0.3449" style="stop-color:#2D8ECB"/>
		<stop  offset="0.457" style="stop-color:#1981C4"/>
		<stop  offset="0.5841" style="stop-color:#0B78BF"/>
		<stop  offset="0.7389" style="stop-color:#0273BC"/>
		<stop  offset="1" style="stop-color:#0071BB"/>
	</linearGradient>
	<circle class="st1" cx="401.2" cy="383.6" r="12"/>
	<g>
		<path class="st2" d="M396.8,384.7v-1l3.5,0v3.1c-0.5,0.4-1.1,0.7-1.7,1c-0.6,0.2-1.2,0.3-1.8,0.3c-0.8,0-1.5-0.2-2.2-0.5
			c-0.7-0.3-1.2-0.8-1.5-1.5c-0.3-0.7-0.5-1.4-0.5-2.2c0-0.8,0.2-1.6,0.5-2.2c0.3-0.7,0.8-1.2,1.4-1.5c0.6-0.3,1.4-0.5,2.2-0.5
			c0.6,0,1.1,0.1,1.6,0.3c0.5,0.2,0.9,0.5,1.1,0.8c0.3,0.3,0.5,0.8,0.6,1.3l-1,0.3c-0.1-0.4-0.3-0.7-0.5-1c-0.2-0.2-0.4-0.4-0.8-0.6
			c-0.3-0.1-0.7-0.2-1.1-0.2c-0.5,0-0.9,0.1-1.3,0.2c-0.4,0.2-0.7,0.4-0.9,0.6c-0.2,0.2-0.4,0.5-0.5,0.8c-0.2,0.5-0.3,1.1-0.3,1.7
			c0,0.7,0.1,1.3,0.4,1.8c0.3,0.5,0.6,0.9,1.1,1.1c0.5,0.2,1,0.4,1.5,0.4c0.5,0,0.9-0.1,1.4-0.3c0.4-0.2,0.8-0.4,1-0.6v-1.5H396.8z"
			/>
		<path class="st2" d="M401.4,384.9c0-1.1,0.3-1.9,0.9-2.5c0.5-0.4,1.1-0.7,1.9-0.7c0.8,0,1.5,0.3,2,0.8c0.5,0.5,0.8,1.3,0.8,2.2
			c0,0.8-0.1,1.4-0.3,1.8c-0.2,0.4-0.6,0.8-1,1c-0.4,0.2-0.9,0.4-1.4,0.4c-0.8,0-1.5-0.3-2-0.8C401.6,386.7,401.4,385.9,401.4,384.9
			z M402.4,384.9c0,0.8,0.2,1.3,0.5,1.7c0.3,0.4,0.8,0.6,1.3,0.6c0.5,0,0.9-0.2,1.3-0.6c0.3-0.4,0.5-1,0.5-1.7
			c0-0.7-0.2-1.3-0.5-1.7c-0.3-0.4-0.8-0.6-1.3-0.6c-0.5,0-0.9,0.2-1.3,0.6C402.6,383.6,402.4,384.2,402.4,384.9z"/>
		<path class="st2" d="M407.7,379c0.2-0.3,0.4-0.4,0.7-0.4c0.3,0,0.5,0.1,0.7,0.4c0.2,0.3,0.3,0.6,0.3,0.9l-0.6,4.4c0,0,0,0.1,0,0.3
			c0,0.2,0,0.3-0.1,0.4c0,0.1-0.1,0.1-0.2,0.1c-0.1,0-0.2-0.1-0.3-0.2c0-0.1-0.1-0.3-0.1-0.6l-0.6-4.4
			C407.4,379.6,407.5,379.3,407.7,379z M409.2,386.4c0.2,0.2,0.2,0.4,0.2,0.7c0,0.2-0.1,0.5-0.2,0.6c-0.2,0.2-0.4,0.3-0.7,0.3
			c-0.3,0-0.5-0.1-0.7-0.3c-0.2-0.2-0.3-0.4-0.3-0.7c0-0.2,0.1-0.5,0.2-0.6c0.2-0.2,0.4-0.3,0.7-0.3
			C408.8,386.1,409,386.2,409.2,386.4z"/>
	</g>
	<g class="st3">
		<path class="st2" d="M410.2,382c0-3.9-1.9-7.4-5-9.7c-1.3-0.4-2.6-0.7-4-0.7c-6.6,0-12,5.4-12,12c0,4.9,3,9.1,7.2,11
			c0,0,0.1,0,0.1,0C404.1,394.6,410.2,388.9,410.2,382z"/>
	</g>
</g>
</svg>
