<?xml version="1.0" encoding="utf-8"?>
<!-- Generator: Adobe Illustrator 21.0.0, SVG Export Plug-In . SVG Version: 6.00 Build 0)  -->
<svg version="1.1" id="Layer_1" xmlns="http://www.w3.org/2000/svg" xmlns:xlink="http://www.w3.org/1999/xlink" x="0px" y="0px"
	 viewBox="0 0 220 200" style="enable-background:new 0 0 220 200;" xml:space="preserve">
<style type="text/css">
	.st0{fill:#27A4A5;}
</style>
<path id="_x34_8._Student_cap_1_" class="st0" d="M215.3,71.5L112,19.9c-1.3-0.6-2.8-0.6-4,0L4.7,71.5c-1.5,0.8-2.5,2.3-2.5,4
	c0,1.7,1,3.3,2.5,4l34.2,17.1V131c0,21.2,31.2,37.8,71.1,37.8s71.1-16.6,71.1-37.8V96.7l11.9-6v32.8c-5.5,1.9-9.5,7.1-9.5,13.2
	c0,5.6,3.3,10.4,8,12.6l-9.5,25.2c-0.5,1.4-0.3,2.9,0.5,4.1c0.8,1.2,2.2,1.9,3.7,1.9h22.7c1.5,0,2.9-0.7,3.7-1.9
	c0.8-1.2,1-2.8,0.5-4.1l-9.5-25.2c4.7-2.2,8-7.1,8-12.6c0-6.1-4-11.3-9.5-13.2V86.2l13.3-6.6c1.5-0.8,2.5-2.3,2.5-4
	C217.8,73.9,216.9,72.3,215.3,71.5z M192.7,171.6l4.8-12.7l4.8,12.7H192.7z M197.6,141.7c-2.7,0-5-2.2-5-5c0-2.7,2.2-5,5-5
	c0,0,0,0,0,0c0,0,0,0,0,0c2.7,0,5,2.2,5,5C202.6,139.5,200.3,141.7,197.6,141.7z M172.2,131c0,7-6.2,14.1-17,19.5
	c-12,6-28,9.3-45.1,9.3s-33.1-3.3-45.1-9.3c-10.8-5.4-17-12.5-17-19.5v-29.8l60.1,30.1c0.6,0.3,1.3,0.5,2,0.5c0.7,0,1.4-0.2,2-0.5
	l60.1-30.1V131z M196.7,78.9l-86.3-7.8c-2.5-0.2-4.7,1.6-4.9,4.1c-0.2,2.5,1.6,4.7,4.1,4.9l71.8,6.5L110,122.2L16.7,75.6L110,28.9
	l93.3,46.6L196.7,78.9z"/>
</svg>
