<?xml version="1.0" encoding="utf-8"?>
<!-- Generator: Adobe Illustrator 21.0.0, SVG Export Plug-In . SVG Version: 6.00 Build 0)  -->
<svg version="1.1" id="Layer_1" xmlns="http://www.w3.org/2000/svg" xmlns:xlink="http://www.w3.org/1999/xlink" x="0px" y="0px"
	 viewBox="0 0 130 153" style="enable-background:new 0 0 130 153;" xml:space="preserve">
<style type="text/css">
	.st0{fill:#27A4A5;}
</style>
<path id="_x34_4._Telescope_1_" class="st0" d="M115.8,40.7L95,19.8c-2.4-2.5-6.4-2.5-8.9,0L70.6,35.3c-2.4,2.4-2.4,6.4,0,8.9
	l0.7,0.7L31.8,84.3c-2.3,2.3-2.4,5.8-0.5,8.3L19,104.8c-0.5,0.5-0.7,1.1-0.7,1.8c0,0.6,0.2,1.1,0.6,1.6c0,0.1,0.1,0.1,0.2,0.2
	l8.2,8.2c0.1,0.1,0.2,0.2,0.3,0.2c0.4,0.3,1,0.5,1.5,0.5c0.7,0,1.3-0.3,1.8-0.7L43,104.4c1.1,0.9,2.5,1.3,3.9,1.3
	c1.6,0,3.2-0.6,4.4-1.8l11.3-11.2c0.8,2,2.3,3.7,4.2,4.6L49,127.9c-0.7,1.2-0.3,2.7,0.9,3.4c0.4,0.2,0.8,0.3,1.3,0.3
	c0.9,0,1.7-0.5,2.2-1.3l14.7-25.6v29.5c0,1.4,1.1,2.5,2.5,2.5c1.4,0,2.5-1.1,2.5-2.5v-29.5l14.7,25.6c0.5,0.8,1.3,1.3,2.2,1.3
	c0.4,0,0.9-0.1,1.3-0.3c1.2-0.7,1.6-2.2,0.9-3.4L74.4,97c2.6-1.4,4.3-4.2,4.3-7.3c0-3.6-2.2-6.6-5.4-7.8l17.5-17.5l0.7,0.7
	c1.2,1.2,2.8,1.8,4.4,1.8s3.2-0.7,4.4-1.8l15.4-15.4C118.2,47.1,118.2,43.1,115.8,40.7z M29,111.2l-4.6-4.6l10.4-10.4l4.6,4.6
	L29,111.2z M73.7,89.7c0,1.8-1.5,3.3-3.3,3.3c-1.8,0-3.3-1.5-3.3-3.3s1.5-3.3,3.3-3.3C72.2,86.3,73.7,87.8,73.7,89.7z M47.7,100.3
	c-0.5,0.5-1.3,0.5-1.8,0l-1.2-1.2l-8.2-8.2l-1.2-1.2c-0.5-0.5-0.5-1.3,0-1.8l39.5-39.5l12.4,12.4L47.7,100.3z M112.2,46L96.8,61.4
	c-0.3,0.3-0.7,0.4-0.9,0.4c-0.2,0-0.6-0.1-0.9-0.4L74.2,40.6c-0.5-0.5-0.5-1.3,0-1.8l9.1-9.1L95,41.3c0.5,0.5,1.1,0.7,1.8,0.7
	c0.6,0,1.3-0.2,1.8-0.7c1-1,1-2.6,0-3.5L86.9,26.1l2.7-2.7c0.5-0.5,1.3-0.5,1.8,0l20.8,20.8C112.7,44.7,112.7,45.5,112.2,46z"/>
</svg>
