<?xml version="1.0" encoding="utf-8"?>
<!-- Generator: Adobe Illustrator 21.0.0, SVG Export Plug-In . SVG Version: 6.00 Build 0)  -->
<svg version="1.1" id="Layer_1" xmlns="http://www.w3.org/2000/svg" xmlns:xlink="http://www.w3.org/1999/xlink" x="0px" y="0px"
	 viewBox="0 0 92 93" style="enable-background:new 0 0 92 93;" xml:space="preserve">
<style type="text/css">
	.st0{fill:#006F3B;}
	.st1{fill:url(#SVGID_1_);}
	.st2{fill:#FFFFFF;}
	.st3{opacity:0.25;}
</style>
<g>
	<path class="st0" d="M12,47.5c0,19.3,15.7,35,35,35c19.3,0,35-15.7,35-35c0-19.3-15.7-35-35-35C27.7,12.5,12,28.2,12,47.5z"/>
	<linearGradient id="SVGID_1_" gradientUnits="userSpaceOnUse" x1="47" y1="13.9517" x2="47" y2="81.0483">
		<stop  offset="0" style="stop-color:#C9DA2A"/>
		<stop  offset="8.235908e-02" style="stop-color:#B3CB2C"/>
		<stop  offset="0.2051" style="stop-color:#99BA2E"/>
		<stop  offset="0.3411" style="stop-color:#85AD2F"/>
		<stop  offset="0.4953" style="stop-color:#77A330"/>
		<stop  offset="0.6831" style="stop-color:#6F9E31"/>
		<stop  offset="1" style="stop-color:#6C9C31"/>
	</linearGradient>
	<path class="st1" d="M80.5,47.5C80.5,66,65.5,81,47,81c-18.5,0-33.5-15-33.5-33.5C13.5,29,28.5,14,47,14C65.5,14,80.5,29,80.5,47.5
		z"/>
	<path class="st0" d="M41.7,68.5c1.8-1.8,28.9-27.8,28.9-27.8c1.7-1.7,1.2-3.4,0.2-4.4l-6.4-6.4c-1-1-2.7-1.5-4.4,0.2
		c0,0-16.4,16.4-18.2,18.2c-1.8-1.8-8-8-8-8c-1.7-1.7-3.4-1.2-4.4-0.2L23,46.4c-1,1-1.5,2.7,0.2,4.4c0,0,6.2,6.2,8,8"/>
	<path class="st2" d="M69.7,37.3l-6.4-6.4c-0.6-0.6-1.3-0.5-2.1,0.2L41.8,50.5l-9.1-9.1c-0.8-0.8-1.5-0.9-2.1-0.2l-6.4,6.4
		c-0.6,0.6-0.5,1.3,0.2,2.1l17.3,17.3l0,0l27.8-27.5C70.2,38.7,70.3,38,69.7,37.3z"/>
	<g class="st3">
		<path class="st2" d="M71.9,43.7c0-11-5.5-20.9-14.1-27.4c-3.5-1.3-7.3-1.9-11.3-1.9c-5.7,0-11.1,1.4-15.8,3.9
			C20.4,24,13.5,34.9,13.5,47.5c0,14.5,9.2,26.9,22.2,31.6C55.9,77.9,71.9,62.5,71.9,43.7z"/>
	</g>
</g>
</svg>
