<?xml version="1.0" encoding="utf-8"?>
<!-- Generator: Adobe Illustrator 21.0.0, SVG Export Plug-In . SVG Version: 6.00 Build 0)  -->
<svg version="1.1" id="Layer_1" xmlns="http://www.w3.org/2000/svg" xmlns:xlink="http://www.w3.org/1999/xlink" x="0px" y="0px"
	 viewBox="0 0 92 93" style="enable-background:new 0 0 92 93;" xml:space="preserve">
<style type="text/css">
	.st0{fill:#961B1E;}
	.st1{fill:url(#SVGID_1_);}
	.st2{fill:#FFFFFF;}
	.st3{opacity:0.25;}
</style>
<g>
	<path class="st0" d="M11,46.5c0,19.3,15.7,35,35,35c19.3,0,35-15.7,35-35c0-19.3-15.7-35-35-35C26.7,11.5,11,27.2,11,46.5z"/>
	<linearGradient id="SVGID_1_" gradientUnits="userSpaceOnUse" x1="45.9986" y1="12.9488" x2="45.9986" y2="80.0506">
		<stop  offset="0" style="stop-color:#F38280"/>
		<stop  offset="9.750175e-02" style="stop-color:#E46767"/>
		<stop  offset="0.2182" style="stop-color:#D64D4F"/>
		<stop  offset="0.3519" style="stop-color:#CB393D"/>
		<stop  offset="0.5036" style="stop-color:#C32B30"/>
		<stop  offset="0.6884" style="stop-color:#BE2328"/>
		<stop  offset="1" style="stop-color:#BD2026"/>
	</linearGradient>
	<circle class="st1" cx="46" cy="46.5" r="33.6"/>
	<path class="st0" d="M27.1,34.1c-1,1-1.5,2.7,0.2,4.4c0,0,6.1,6.1,7.9,7.9c-1.7,1.7-7.8,7.8-7.8,7.8c-1.7,1.7-1.2,3.4-0.2,4.4
		l6.3,6.3c0.9,0.9,2.7,1.5,4.4-0.2c0,0,6.1-6.1,7.8-7.8c1.7,1.7,7.8,7.8,7.8,7.8c1.7,1.7,3.4,1.2,4.3,0.2l6.3-6.3
		c1-1,1.5-2.7-0.2-4.4c0,0-6.1-6.1-7.8-7.8c1.7-1.7,7.9-7.9,7.9-7.9c1.7-1.7,1.2-3.4,0.2-4.4l-6.3-6.3c-0.9-0.9-2.7-1.5-4.3,0.2
		c0,0-6.1,6.1-7.9,7.9C44,34.1,37.8,28,37.8,28c-1.7-1.7-3.4-1.2-4.3-0.2L27.1,34.1z"/>
	<path class="st2" d="M63.1,35.2c0.6,0.6,0.5,1.3-0.2,2.1l-9,9l8.9,8.9c0.8,0.8,0.9,1.4,0.2,2.1l-6.3,6.3c-0.6,0.6-1.3,0.5-2.1-0.2
		l-8.9-8.9l-8.9,8.9c-0.7,0.7-1.4,0.9-2.1,0.2l-6.4-6.4c-0.6-0.6-0.5-1.3,0.2-2.1l8.9-8.9l-9-9c-0.7-0.7-0.9-1.4-0.2-2.1l6.3-6.3
		c0.6-0.6,1.3-0.5,2.1,0.2l9,9l9-9c0.7-0.8,1.4-0.9,2.1-0.2L63.1,35.2z"/>
	<g class="st3">
		<path class="st2" d="M70.9,42.2c0-10.9-5.4-20.7-14-27.1c-3.5-1.2-7.3-1.9-11.2-1.9c-7.5,0-14.4,2.4-19.9,6.6
			c-8.1,6.1-13.3,15.8-13.3,26.8c0,13.8,8.3,25.7,20.3,30.8C53.8,77.2,70.9,61.5,70.9,42.2z"/>
	</g>
</g>
</svg>
