<?xml version="1.0" encoding="utf-8"?>
<!-- Generator: Adobe Illustrator 21.0.0, SVG Export Plug-In . SVG Version: 6.00 Build 0)  -->
<svg version="1.1" id="Layer_1" xmlns="http://www.w3.org/2000/svg" xmlns:xlink="http://www.w3.org/1999/xlink" x="0px" y="0px"
	 viewBox="0 0 92 93" style="enable-background:new 0 0 92 93;" xml:space="preserve">
<style type="text/css">
	.st0{fill:#0054A5;}
	.st1{fill:url(#SVGID_1_);}
	.st2{fill:#FFFFFF;}
	.st3{opacity:0.25;}
</style>
<g>
	<path class="st0" d="M81,46.5c0,19.3-15.7,35-35,35c-19.3,0-35-15.7-35-35c0-19.3,15.7-35,35-35C65.3,11.5,81,27.2,81,46.5z"/>
	
		<linearGradient id="SVGID_1_" gradientUnits="userSpaceOnUse" x1="-57.5451" y1="12.6619" x2="-57.5451" y2="79.7615" gradientTransform="matrix(-1 0 0 1 -11.7637 0)">
		<stop  offset="0" style="stop-color:#ABE0F9"/>
		<stop  offset="5.993545e-02" style="stop-color:#8DCCEE"/>
		<stop  offset="0.1477" style="stop-color:#67B4E1"/>
		<stop  offset="0.2427" style="stop-color:#479FD5"/>
		<stop  offset="0.3449" style="stop-color:#2D8ECB"/>
		<stop  offset="0.457" style="stop-color:#1981C4"/>
		<stop  offset="0.5841" style="stop-color:#0B78BF"/>
		<stop  offset="0.7389" style="stop-color:#0273BC"/>
		<stop  offset="1" style="stop-color:#0071BB"/>
	</linearGradient>
	<path class="st1" d="M12.2,46.2c0,18.5,15,33.6,33.6,33.6c18.5,0,33.5-15,33.5-33.6c0-18.5-15-33.5-33.5-33.5
		C27.3,12.7,12.2,27.7,12.2,46.2z"/>
	<g>
		<path class="st2" d="M33.3,49.3v-2.7l9.8,0v8.6c-1.5,1.2-3,2.1-4.6,2.7c-1.6,0.6-3.2,0.9-4.9,0.9c-2.3,0-4.3-0.5-6.2-1.5
			c-1.9-1-3.3-2.4-4.2-4.2c-0.9-1.8-1.4-3.9-1.4-6.2c0-2.2,0.5-4.3,1.4-6.3c0.9-1.9,2.3-3.4,4.1-4.3c1.8-0.9,3.8-1.4,6.1-1.4
			c1.7,0,3.2,0.3,4.5,0.8c1.3,0.5,2.4,1.3,3.2,2.3c0.8,1,1.3,2.2,1.7,3.8L40,42.5c-0.3-1.2-0.8-2.1-1.3-2.8
			c-0.5-0.7-1.2-1.2-2.2-1.6c-1-0.4-2-0.6-3.2-0.6c-1.4,0-2.6,0.2-3.6,0.6c-1,0.4-1.8,1-2.5,1.7c-0.6,0.7-1.1,1.5-1.5,2.3
			c-0.6,1.4-0.9,3-0.9,4.6c0,2.1,0.4,3.8,1.1,5.2c0.7,1.4,1.7,2.4,3.1,3.1c1.4,0.7,2.8,1,4.3,1c1.3,0,2.6-0.3,3.9-0.8
			c1.3-0.5,2.2-1.1,2.9-1.6v-4.3H33.3z"/>
		<path class="st2" d="M46.2,50c0-3.1,0.9-5.4,2.6-6.9c1.4-1.2,3.2-1.9,5.3-1.9c2.3,0,4.2,0.8,5.6,2.3c1.5,1.5,2.2,3.6,2.2,6.2
			c0,2.2-0.3,3.8-1,5.1c-0.6,1.2-1.6,2.2-2.8,2.9c-1.2,0.7-2.6,1-4,1c-2.3,0-4.2-0.8-5.7-2.3C46.9,55,46.2,52.8,46.2,50z M49.1,50
			c0,2.1,0.5,3.7,1.4,4.8c0.9,1.1,2.1,1.6,3.5,1.6c1.4,0,2.6-0.5,3.5-1.6c0.9-1.1,1.4-2.7,1.4-4.9c0-2.1-0.5-3.6-1.4-4.7
			c-0.9-1.1-2.1-1.6-3.5-1.6c-1.4,0-2.6,0.5-3.5,1.6C49.5,46.3,49.1,47.9,49.1,50z"/>
		<path class="st2" d="M63.9,33.5c0.5-0.7,1.2-1.1,2-1.1c0.8,0,1.5,0.4,2,1.1c0.5,0.7,0.8,1.6,0.8,2.6l-1.8,12.3
			c0,0.1,0,0.3-0.1,0.8c0,0.5-0.1,0.8-0.2,1.1c-0.1,0.2-0.3,0.3-0.6,0.4c-0.4,0-0.7-0.2-0.8-0.5c-0.1-0.3-0.2-0.9-0.3-1.8l-1.8-12.3
			C63.1,35,63.4,34.2,63.9,33.5z M68,54c0.5,0.5,0.7,1.1,0.7,1.8c0,0.7-0.2,1.3-0.7,1.8c-0.4,0.5-1.1,0.8-1.9,0.8
			c-0.8,0-1.5-0.3-2-0.8c-0.5-0.5-0.7-1.1-0.7-1.8c0-0.7,0.2-1.3,0.7-1.8c0.4-0.5,1.1-0.8,1.8-0.8C66.9,53.2,67.5,53.5,68,54z"/>
	</g>
	<g class="st3">
		<path class="st2" d="M71,41.8c0-10.9-5.5-20.7-14-27.2c-3.5-1.2-7.3-1.9-11.2-1.9c-18.5,0-33.6,15-33.6,33.5
			c0,13.7,8.3,25.5,20.1,30.7c0.1,0,0.2,0,0.3,0C53.8,76.9,71,61.2,71,41.8z"/>
	</g>
</g>
</svg>
