<svg id="Layer_1" data-name="Layer 1" xmlns="http://www.w3.org/2000/svg" viewBox="0 0 72.22 53.98"><defs><style>.cls-1{fill:#fff;}</style></defs><title>20</title><path id="_48._Student_cap" data-name="48. Student cap" class="cls-1" d="M72.28,20.47,37.67,3.17a1.5,1.5,0,0,0-1.35,0L1.72,20.47a1.5,1.5,0,0,0,0,2.69l11.46,5.73v11.5c0,7.1,10.46,12.66,23.82,12.66s23.82-5.56,23.82-12.66V28.89l4-2v11a4.68,4.68,0,0,0-.5,8.65L61.12,55a1.5,1.5,0,0,0,1.41,2h7.59a1.5,1.5,0,0,0,1.41-2l-3.2-8.43a4.68,4.68,0,0,0-.5-8.65V25.39l4.45-2.22a1.5,1.5,0,0,0,0-2.69ZM64.71,54l1.62-4.27L67.94,54Zm1.62-10a1.67,1.67,0,0,1,0-3.34h0a1.67,1.67,0,0,1,0,3.34Zm-8.51-3.57c0,2.35-2.08,4.73-5.7,6.54A34.62,34.62,0,0,1,37,50a34.62,34.62,0,0,1-15.11-3.11c-3.63-1.81-5.7-4.2-5.7-6.54v-10L36.33,40.47a1.5,1.5,0,0,0,1.35,0L57.81,30.4ZM66,22.93,37.13,20.32a1.5,1.5,0,1,0-.27,3l24,2.17L37,37.44,5.76,21.82,37,6.2,68.24,21.82Z" transform="translate(-0.89 -3.01)"/></svg>