<svg id="Layer_1" data-name="Layer 1" xmlns="http://www.w3.org/2000/svg" viewBox="0 0 56.38 52.69"><defs><style>.cls-1{fill:#fff;}</style></defs><title>30</title><g id="_22._Certificate" data-name="22. Certificate"><path class="cls-1" d="M57.58,2.28l-.14-.14a3.14,3.14,0,0,0-2.16-.86H5.21A3.16,3.16,0,0,0,2.05,4.44V38.36a3.16,3.16,0,0,0,3.16,3.16h28L29.43,48a1.27,1.27,0,0,0,1.34,1.88l4.2-.82,1.39,4a1.26,1.26,0,0,0,1.08.84h.12a1.26,1.26,0,0,0,1.1-.63l3.85-6.67,3.85,6.67a1.26,1.26,0,0,0,1.1.63h.12a1.26,1.26,0,0,0,1.08-.84l1.39-4,4.2.82A1.27,1.27,0,0,0,55.56,48l-3.76-6.5h3.47a3.17,3.17,0,0,0,3.16-3.16V4.44A3.13,3.13,0,0,0,57.58,2.28ZM17,28.93H34.14a10.33,10.33,0,0,0-1.68,3.74H14.53A5.08,5.08,0,0,0,10.9,29V13.76a5.08,5.08,0,0,0,3.63-3.63H46a5.08,5.08,0,0,0,3.63,3.63V27.5a10.24,10.24,0,0,0-12.86-1.1H17a1.26,1.26,0,0,0,0,2.53ZM37.85,49.67,37,47.21a1.25,1.25,0,0,0-1.43-.83l-2.55.5,2.53-4.39a10.33,10.33,0,0,0,5,2.52Zm4.64-7a7.75,7.75,0,1,1,7.75-7.75A7.76,7.76,0,0,1,42.49,42.67ZM52,46.88l-2.55-.5a1.25,1.25,0,0,0-1.43.83l-.85,2.46L44.46,45a10.3,10.3,0,0,0,5-2.54Zm3.93-8.53a.63.63,0,0,1-.63.63H51.93a10.34,10.34,0,0,0,.19-7.67V12.65a1.26,1.26,0,0,0-1.26-1.26,2.53,2.53,0,0,1-2.53-2.53A1.26,1.26,0,0,0,47.06,7.6H13.43a1.26,1.26,0,0,0-1.26,1.26,2.53,2.53,0,0,1-2.53,2.53,1.26,1.26,0,0,0-1.26,1.26V30.14a1.27,1.27,0,0,0,1.26,1.26,2.53,2.53,0,0,1,2.53,2.53,1.27,1.27,0,0,0,1.26,1.26H32.21A10.2,10.2,0,0,0,33,39H5.21a.63.63,0,0,1-.63-.63V4.44a.63.63,0,0,1,.63-.63H55.28a.63.63,0,0,1,.63.63Z" transform="translate(-2.05 -1.28)"/><path class="cls-1" d="M25,16.4h10.4a1.26,1.26,0,0,0,0-2.53H25a1.26,1.26,0,0,0,0,2.53Z" transform="translate(-2.05 -1.28)"/><path class="cls-1" d="M17,22.66H43.51a1.26,1.26,0,0,0,0-2.53H17a1.26,1.26,0,0,0,0,2.53Z" transform="translate(-2.05 -1.28)"/><path class="cls-1" d="M42.49,29.94a5,5,0,1,0,5,5A5,5,0,0,0,42.49,29.94Zm0,7.42a2.45,2.45,0,1,1,2.44-2.44A2.45,2.45,0,0,1,42.49,37.36Z" transform="translate(-2.05 -1.28)"/></g></svg>