<svg id="Layer_1" data-name="Layer 1" xmlns="http://www.w3.org/2000/svg" viewBox="0 0 64.75 48.3"><defs><style>.cls-1{fill:#fff;}</style></defs><title>40</title><path class="cls-1" d="M12.13,50.18A1.33,1.33,0,0,1,11.5,50a1.26,1.26,0,0,1-.32-.22l-.1-.1a1.48,1.48,0,0,1-.36-.95V42.85h-.08a10.84,10.84,0,0,1-9.3-10.7v-7.4a10.81,10.81,0,0,1,10.8-10.8H25.05V12.68a10.81,10.81,0,0,1,10.8-10.8H55.28a10.83,10.83,0,0,1,10.8,10.8v7.4a10.84,10.84,0,0,1-9.3,10.7H56.7v5.92A1.39,1.39,0,0,1,55.91,38a1.35,1.35,0,0,1-.63.15,1.45,1.45,0,0,1-.85-.27L45.12,30.9l-2.76,0v1.26a10.81,10.81,0,0,1-10.8,10.8H22.35l-9.37,7A1.48,1.48,0,0,1,12.13,50.18Zm0-33.41a8,8,0,0,0-8,8v7.4a8,8,0,0,0,8,8,1.42,1.42,0,0,1,1.41,1.41V46L21,40.4a1.46,1.46,0,0,1,.85-.28h9.72a8,8,0,0,0,8-8V30.88H35.85a10.81,10.81,0,0,1-10.8-10.8V16.77ZM35.85,4.71a8,8,0,0,0-8,8v1.26h3.69a10.81,10.81,0,0,1,10.8,10.8v3.31h3.2a1.42,1.42,0,0,1,.84.28l7.46,5.55V29.47a1.42,1.42,0,0,1,1.41-1.41,8,8,0,0,0,8-8v-7.4a8,8,0,0,0-8-8Zm-8,15.37a8,8,0,0,0,8,8h3.69V24.74a8,8,0,0,0-8-8H27.88Z" transform="translate(-1.33 -1.88)"/></svg>