<?xml version="1.0" encoding="utf-8"?>
<!-- Generator: Adobe Illustrator 21.0.0, SVG Export Plug-In . SVG Version: 6.00 Build 0)  -->
<svg version="1.1" id="Layer_1" xmlns="http://www.w3.org/2000/svg" xmlns:xlink="http://www.w3.org/1999/xlink" x="0px" y="0px"
	 viewBox="0 0 275 275" style="enable-background:new 0 0 275 275;" xml:space="preserve">
<style type="text/css">
	.st0{fill:#4A69BD;}
	.st1{fill:#FFFFFF;}
	.st2{fill:none;stroke:#F9F6F4;stroke-width:3;stroke-miterlimit:10;}
	.st3{opacity:0.8;fill:none;stroke:#FFFFFF;stroke-width:2;stroke-miterlimit:10;}
</style>
<g>
	<g>
		<path class="st0" d="M155.5,135.4c16.9,1.3,33.8-2.1,50.8-2.6c17-0.5,35.2,2.6,47.4,14.4c9.2,9,13.6,22,14.3,34.8
			c1.4,25.8-11.8,51.4-32.2,67.4c-20.4,15.9-47.2,22.6-73,20.7c-25.8-1.9-50.6-12-72.1-26.3C55,220,27.8,184,14.6,143.3
			c-5.2-16.1-8.3-33.4-4.8-50C13.2,77.1,25.1,59.8,42,55.1C66.1,48.3,78.1,73.9,88.3,91c7.9,13.3,17.3,25.5,31,33.2
			C130.4,130.4,142.8,134.4,155.5,135.4z"/>
	</g>
</g>
<g>
	<g>
		<path class="st0" d="M135.2,66.4c2,7.8,8.4,15.3,16.5,15.3c8.1-0.1,14.2-7.5,17.1-15c7.7-19.7,0.1-44.2-17.3-56.1
			c-12.5-8.5-27.9-3.7-22.1,12C134.9,37.5,131.3,51.4,135.2,66.4z"/>
	</g>
</g>
<g>
	<path class="st1" d="M177.2,165.8h-23.1c-2.4,0-4.4-1.5-4.4-3.4v-9.3c0-1.9,2-3.4,4.4-3.4h23.1c2.4,0,4.4,1.5,4.4,3.4v9.3
		C181.6,164.3,179.6,165.8,177.2,165.8z M154.3,162.3H177v-9h-22.7V162.3z"/>
	<g>
		<path class="st1" d="M132.1,235.9c0,0.8-0.7,1.5-1.5,1.5h-5.4c-0.8,0-1.5-0.7-1.5-1.5l0,0c0-0.8,0.7-1.5,1.5-1.5h5.4
			C131.4,234.4,132.1,235,132.1,235.9L132.1,235.9z"/>
		<path class="st1" d="M206.3,235.9c0,0.8-0.7,1.5-1.5,1.5h-5.4c-0.8,0-1.5-0.7-1.5-1.5l0,0c0-0.8,0.7-1.5,1.5-1.5h5.4
			C205.6,234.4,206.3,235,206.3,235.9L206.3,235.9z"/>
	</g>
	<path class="st2" d="M215.9,229.6c0,1.5-1.2,2.8-2.8,2.8h-96.3c-1.5,0-2.8-1.2-2.8-2.8v-66.1c0-1.5,1.2-2.8,2.8-2.8h96.3
		c1.5,0,2.8,1.2,2.8,2.8V229.6z"/>
	<circle class="st3" cx="166.2" cy="196.6" r="22.6"/>
	<g>
		<g>
			<path class="st1" d="M164.7,207.2c-1.1-0.3-2.3-0.7-3.4-1.4v1.3h-4.9V199h4.9c0.3,1.2,0.9,2.1,1.7,2.8c0.9,0.7,1.8,1,2.9,1
				c0.7,0,1.3-0.1,1.6-0.4c0.3-0.3,0.5-0.6,0.5-0.9c0-0.5-0.3-1-0.9-1.3c-0.6-0.3-1.3-0.6-2.2-0.8c-0.9-0.2-1.8-0.5-2.9-0.8
				c-1-0.3-2-0.7-2.9-1.3c-0.9-0.6-1.6-1.3-2.2-2.2c-0.6-0.9-0.9-2.1-0.9-3.6c0-1.1,0.2-2,0.7-2.9c0.5-0.8,1.1-1.5,1.9-2.1
				c0.8-0.6,1.7-1,2.7-1.3c1-0.3,2.1-0.5,3.3-0.5v-3.2h3.8v3.7c0.6,0.2,1.2,0.4,1.7,0.6c0.5,0.2,0.9,0.4,1.2,0.6v-1.4h5v8h-5
				c-0.1-0.5-0.3-1-0.5-1.4c-0.3-0.4-0.6-0.8-1-1.1c-0.4-0.3-0.8-0.6-1.3-0.7c-0.5-0.2-1-0.3-1.5-0.3c-0.6,0-1.1,0.1-1.5,0.4
				c-0.4,0.2-0.6,0.6-0.6,1c0,0.5,0.3,1,0.9,1.2c0.6,0.3,1.4,0.5,2.3,0.8c0.9,0.2,1.9,0.5,2.9,0.8c1.1,0.3,2,0.7,2.9,1.3
				c0.9,0.6,1.6,1.3,2.2,2.2c0.6,0.9,0.9,2.1,0.9,3.6c0,1.1-0.2,2.1-0.7,2.9c-0.5,0.8-1.1,1.5-1.9,2c-0.8,0.5-1.7,0.9-2.7,1.2
				c-1,0.3-2.1,0.4-3.3,0.5v3.1h-3.8V207.2z"/>
		</g>
	</g>
</g>
</svg>
