<svg id="Layer_1" data-name="Layer 1" xmlns="http://www.w3.org/2000/svg" xmlns:xlink="http://www.w3.org/1999/xlink" viewBox="0 0 131.2 184.64"><defs><style>.cls-1{fill:#f27a38;}.cls-2{fill:#d35d22;}.cls-3{fill:#ce8c5f;}.cls-4{fill:#e5a87a;}.cls-5{fill:#f4ba92;}.cls-6,.cls-7{opacity:0.6;}.cls-6{fill:url(#radial-gradient);}.cls-7{fill:url(#radial-gradient-2);}.cls-8{fill:#492207;}.cls-9{fill:#632f0b;}.cls-10{fill:#fff;}.cls-11{fill:#af5b1c;}.cls-12{fill:#db6b49;}.cls-13{fill:#d8976a;}</style><radialGradient id="radial-gradient" cx="4626.59" cy="135.5" r="11.03" gradientTransform="matrix(-1.69, 0.07, 0.05, 1.16, 8211.71, -111.77)" gradientUnits="userSpaceOnUse"><stop offset="0" stop-color="#ed7d51" stop-opacity="0.9"/><stop offset="1" stop-color="#ed7d51" stop-opacity="0"/></radialGradient><radialGradient id="radial-gradient-2" cx="4653" cy="135" r="11.03" gradientTransform="matrix(-1.69, 0.07, 0.05, 1.16, 8211.69, -112.11)" xlink:href="#radial-gradient"/></defs><title>BOY-01</title><path class="cls-1" d="M309.94,425.83c.22-6.1,2.68-12.38,8.23-15.59,10.6-6.13,25.56-4.12,37.22-3.56,15.36.75,31.59-2.65,46.92-.77,11.46,1.41,21.81,2.1,27.8,12.69a30.56,30.56,0,0,1,4,16.38c-.07,3.78-1.07,12.41-5.76,13.37,3.49-4.22-2.54-3.52-5.46-3.4-3.47.15-7,.38-10,1.65l-16.61,5.61c.32-.22-.31,0-.54.08-5.23,2.07-13.49,1.23-19.11.74-12-1.06-25.15,0-36.88-2.65-4.32-1-5.34-1.91-7.8-5.18a8.34,8.34,0,0,0-6.59-3.77c-2.82-.26-12.72.14-13,3.52-.48-3.17-2.08-6.12-2.54-9.3S309.82,429.07,309.94,425.83Z" transform="translate(-308.11 -287.01)"/><path class="cls-2" d="M413,446c4-1.18,8.83-2.42,13-2,2.51.26,3.45,1.47,3.67,4.06a1.81,1.81,0,0,0,.64-.57,18,18,0,0,0,1.87-4.81,29.72,29.72,0,0,0,1.25-11.61,27.17,27.17,0,0,0-6-14.75c-3.14-4.05-9.09-8.16-14.5-8.15-.79,0-.84-1.22-.05-1.22,10.16,0,19.85,10.6,21.23,20.65a35.12,35.12,0,0,1-.43,14.08,29.85,29.85,0,0,1-2.1,6,9,9,0,0,1-1.88,1.8.62.62,0,0,1-1.15-.26c-.33-3.17-1.44-4.11-4.56-3.95a46.61,46.61,0,0,0-10.69,1.92A.61.61,0,0,1,413,446Z" transform="translate(-308.11 -287.01)"/><path class="cls-2" d="M343.63,403.88l51.65,4.25c-.2,4.64-6.31,9.32-10,11.21a41.6,41.6,0,0,1-18.2,4.38C358,423.7,338.85,416.68,343.63,403.88Z" transform="translate(-308.11 -287.01)"/><path class="cls-3" d="M314.51,360.4c3.53.56,9.24,1.9,9.18,6.64l8,21.42c-5,.78-8.88.2-12.82-4.28-3.68-4.18-5.52-9.45-7.51-14.55C309.48,364.95,307.94,359.36,314.51,360.4Z" transform="translate(-308.11 -287.01)"/><path class="cls-4" d="M421.7,373.62s-.3,29.12-41.52,39.75c0,0-13.47,7.62-27.11-3.45s-24.18-14-30-43.77c0,0-18-49.18,48-47.07S421.7,373.62,421.7,373.62Z" transform="translate(-308.11 -287.01)"/><path class="cls-5" d="M332.57,354.91c1.07-8.33,3.75-17.16,12.34-19.79,6.86-2.1,14.27-1.1,21.22-.51,14.51,1.22,37-2.08,43.78,14.08,2.93,6.94,2.71,14.44,2.68,21.95-.07,13.78-6.62,33-20.73,37.85-10.76,3.69-25.24,5.56-36,1C337,401.55,330.21,373.33,332.57,354.91Z" transform="translate(-308.11 -287.01)"/><path class="cls-6" d="M388.46,363.35a24.82,24.82,0,0,1,11.84-.06c7.77,2,18.15,11.62,9.26,19.93s-34.91,11.23-32.28-8.66C378.11,368.24,382.95,364.76,388.46,363.35Z" transform="translate(-308.11 -287.01)"/><path class="cls-7" d="M343.77,364.32a24.82,24.82,0,0,1,11.84-.06c7.77,2,18.15,11.62,9.26,19.93s-34.91,11.23-32.28-8.66C333.42,369.22,338.26,365.73,343.77,364.32Z" transform="translate(-308.11 -287.01)"/><path class="cls-8" d="M324.84,312.87a5.61,5.61,0,0,1,.88.77l21.39,13.19c-10.57.45-18.71,2.46-22.1,13.5-2.8,9.1-2.27,18.75-1.87,28.17-.5-5.49-8.12-9.21-12.6-8C305.45,346.55,307.51,317.36,324.84,312.87Z" transform="translate(-308.11 -287.01)"/><path class="cls-9" d="M350.58,293.2c17.35-6.05,37.64-8.13,55-1.09,27.49,11.11,41.78,46.51,28.92,73a4.18,4.18,0,0,1-1.59-.83l-2.66,2.26c-3.29-1.93-8,5.29-9.18,8-.49-17.47-.82-41.08-20.2-48.7-16.33-6.42-35.75,3.06-52.46,1.93-7.87-.53-15.82-1.63-22.1-6.67-7.92-6.34-14.08-18.53-14.71-28.77C321.17,307.57,337.74,297.68,350.58,293.2Z" transform="translate(-308.11 -287.01)"/><path class="cls-8" d="M337.75,326.33c13.89,1.69,27.57-1.71,41.35-2.89,9.46-.81,19.87-.53,27.82,5.35,13.56,10,15.12,29.33,14.77,44.83,0,.79-1.24.84-1.22.05.35-15.28-1.08-34.66-14.8-44.27-8.66-6.07-20-5.44-30-4.41-12.76,1.31-25.34,4.1-38.22,2.53C336.7,327.43,337,326.23,337.75,326.33Z" transform="translate(-308.11 -287.01)"/><path class="cls-8" d="M311.55,292.18l0,.06a.53.53,0,0,1,.36.38c1.79,6.26,10.85,7.82,16.4,7.51,4.23-.24,8.37-2,12.24-3.58s7.8-3.14,11.82-4.43c13-4.16,26.86-6.26,40.42-4.47,14.54,1.92,26.18,9.5,34.9,21.12,9,12,12.17,26.67,10.32,41.45a85.18,85.18,0,0,1-3.27,14.42c-.23.75-1.43.48-1.19-.28,4.88-15.87,5.59-32.5-2.24-47.56-7.5-14.44-20.32-24.56-36.31-27.57-14.29-2.69-29.36-.1-43,4.29-7.69,2.47-15,6.7-23.05,7.76-4.78.63-11-.65-14.8-3.62-.19-.15-.35-.31-.53-.46.75,2.38,1.34,4.83,2.19,7.18,1.89,5.24,4.92,9.86,7.31,14.86.33.7-.69,1.37-1,.66-2.12-4.45-4.81-8.6-6.72-13.15s-2.44-9.61-4.84-13.93C310.14,292.15,311.17,291.49,311.55,292.18Z" transform="translate(-308.11 -287.01)"/><path class="cls-10" d="M401.66,363.91s3.17-12-6-13-9.35,12.21-9.35,12.21S397.87,362,401.66,363.91Z" transform="translate(-308.11 -287.01)"/><path d="M393.12,362.79c-.37-3.84,1.45-9.2,4.85-11.29,6.27,2.61,3.68,12.41,3.68,12.41C399.86,363,396.34,362.76,393.12,362.79Z" transform="translate(-308.11 -287.01)"/><path class="cls-10" d="M355.69,363.43s.66-12.36-8.48-11.49-6.67,13.86-6.67,13.86S351.58,362.29,355.69,363.43Z" transform="translate(-308.11 -287.01)"/><path d="M347.11,364.08c-1.14-3.69-.46-9.3,2.45-12,6.67,1.28,6.13,11.4,6.13,11.4C353.75,362.89,350.25,363.4,347.11,364.08Z" transform="translate(-308.11 -287.01)"/><path class="cls-3" d="M419.93,375.22c.28-4.86,2.59-8.56,6.9-10.48,5-2.21,10.27-2,9,4.59-1.34,7-9.35,26.1-19.22,21.59a6.59,6.59,0,0,1-1.26-.8Z" transform="translate(-308.11 -287.01)"/><path class="cls-11" d="M384.87,363.68c-.09.65.84,1.1,1.11.42l0-.09a32.21,32.21,0,0,1,17.4,1.17c.75.26,1-.94.28-1.19l-.5-.15s0,0,0,0c-1.5-4.86.21-12.34-6.6-13.26-8.15-1.11-9.32,6.61-11.49,12.44A.53.53,0,0,0,384.87,363.68Zm1.63-1c1.82-5.35,3.58-13.2,11.07-10.7,4.37,1.46,3.44,7.55,4.26,11.44A33.18,33.18,0,0,0,386.5,362.67Z" transform="translate(-308.11 -287.01)"/><path class="cls-11" d="M340.24,367.17a22.77,22.77,0,0,1,16.9-2.18c.76.21,1-1,.28-1.19-.18,0-.36-.07-.54-.12-1.29-5.78-3.26-14.62-11.35-12.47-6.44,1.71-4.78,9.68-5.62,14.68a.64.64,0,0,0,0,.09l-.32.17C338.9,366.54,339.56,367.57,340.24,367.17Zm1-1.87c.37-4.12-.61-11.53,4.1-12.78,7.43-2,9.05,5.35,10.26,10.86A24.31,24.31,0,0,0,341.2,365.31Z" transform="translate(-308.11 -287.01)"/><path class="cls-8" d="M392.75,341.14c3.7-.12,7.57.49,10.32,3.17,1.7,1.65-.79,4.36-2.49,2.7-2.05-2-4.94-2.29-7.68-2.2C390.54,344.88,390.39,341.21,392.75,341.14Z" transform="translate(-308.11 -287.01)"/><path class="cls-8" d="M339,347a11,11,0,0,1,9.07-4.6c2.35.06,2.53,3.73.16,3.67a7.6,7.6,0,0,0-6.52,3.41C340.32,351.42,337.63,348.91,339,347Z" transform="translate(-308.11 -287.01)"/><path class="cls-12" d="M359.78,372.86c2.37-3.65,5.66-3.91,8.48-9.54a48.72,48.72,0,0,0,2.44-7.46c4.49,7.57,8.77,25.35-4.67,27.17C360.17,383.83,356.72,377.58,359.78,372.86Z" transform="translate(-308.11 -287.01)"/><path class="cls-12" d="M346,386.93a1.11,1.11,0,0,1,1.18.91c14.14,4.81,32.06,7,45.42-1.11a1.23,1.23,0,0,1,2-1.19l.32.29a1.22,1.22,0,0,1-1.55,1.87c-13.65,8.39-32,6.26-46.49,1.33a1.12,1.12,0,0,1-.78.35A1.22,1.22,0,0,1,346,386.93Z" transform="translate(-308.11 -287.01)"/><path class="cls-2" d="M327.1,406.72a.61.61,0,0,1,.05,1.22c-17.74,1.23-18.73,22.06-14.66,35.42,3.85-3.21,10.22-2.59,14.81-1.91.78.12.5,1.31-.27,1.19-4.43-.65-11.07-1.36-14.42,2.29a.61.61,0,0,1-1.05-.46C307,430.32,308.18,408,327.1,406.72Z" transform="translate(-308.11 -287.01)"/><path class="cls-12" d="M364.68,397.8a14.77,14.77,0,0,0,6.88,0c.78-.13.82,1.09.05,1.22a15.51,15.51,0,0,1-7.21,0C363.65,398.77,363.92,397.58,364.68,397.8Z" transform="translate(-308.11 -287.01)"/><path class="cls-3" d="M385.4,364.25c6-2.44,12.56-1.61,18.48.71.73.29.15,1.37-.57,1.08-5.62-2.21-11.82-2.94-17.53-.63C385,365.71,384.67,364.54,385.4,364.25Z" transform="translate(-308.11 -287.01)"/><path class="cls-3" d="M340,366.78c5.63-2.61,11.71-4.43,17.74-2.12.74.28.16,1.36-.57,1.08-5.69-2.18-11.54-.24-16.8,2.2C339.62,368.28,339.25,367.11,340,366.78Z" transform="translate(-308.11 -287.01)"/><path class="cls-13" d="M407.27,457.45c.07-6.88,2.62-15.43,10.52-15.76,4.67-.19,10.61.74,12.54,5.6l-1.42.26c1.48-.27-1.75,7-2.12,7.73-2.45,4.69-6.28,12.19-11.49,14.29C408.88,472.17,407.23,461.59,407.27,457.45Z" transform="translate(-308.11 -287.01)"/><path class="cls-13" d="M321.8,435.79c3.77-.7,7.67.08,9.9,3.37,2.65,3.9,3,10.69.25,14.54l-2.26,14.19C319.14,463.69,301.48,439.56,321.8,435.79Z" transform="translate(-308.11 -287.01)"/><path class="cls-5" d="M325.84,442.11c1.74-4.91,4.45-8.82,6.58-13.55,1.67-3.72,5.22-10.5,2.43-14.48-2.57-3.68-7.54-5.17-9.91-9.38-2.1-3.73-1.39-9.92,0-13.72,1.21-3.42,5.15-9.34,7.46-3.3,1.78,4.66,2.65,7.71,7,11,5.25,4,16,7,14.43,15.14-1,5.23-3.54,10-4.39,15.36-1.12,7.06,1.45,15.38-.16,22.37-1,4.39-2.35,9.77-4.7,13.63-2.55,4.19-8.55,3.8-13,3C319.19,465.88,323.27,449.37,325.84,442.11Z" transform="translate(-308.11 -287.01)"/><path class="cls-3" d="M322.83,455.48c-.9,5.49,1.35,11.79,7.22,13.52,3.86,1.13,10,1.24,13.32-1.51s4.12-8.56,5.07-12.6c2.86-12.14.63-25.81,4.83-37.67,1.38-3.9,1.19-8.46-1.94-11.4-2.93-2.76-7-3.77-10.33-5.94-3.72-2.43-4.56-5.53-6.1-9.41-.76-1.93-1.62-3.84-3.5-4.88-4.23-2.34-7.31,5.19-8.15,8-1,3.16-1.15,6.72.38,9.75s3.91,4.93,6.45,7.14c3.48,3,5.17,6.24,4.09,10.89a54.67,54.67,0,0,1-3.9,10.34c-2,4.38-3.86,8.88-5.56,13.39C323.44,448.45,323.42,451.88,322.83,455.48Zm4.51-13.71c1.76-4.27,3.64-8.47,5.46-12.71,1.74-4.08,4.36-9.82,2.39-14.27-2.73-6.14-11.05-8.19-11.4-15.7a17.06,17.06,0,0,1,2.53-9.52c.73-1.18,2.28-3.66,4.1-3,1.65.56,2.48,2.13,3.08,3.64.87,2.2,1.4,4.7,2.67,6.72a14.61,14.61,0,0,0,5.88,5c2.95,1.52,6.7,2.79,9,5.33a8.33,8.33,0,0,1,1.86,5.23c.1,3.29-1.54,6.27-2.38,9.39-.77,2.88-1.4,5.81-1.93,8.75-1.1,6.08.84,13.37-.32,19.45-.86,4.53-1.59,10.29-4,14.34-1.59,2.7-7.53,4.16-10.36,4a13.65,13.65,0,0,1-4.09-.79C320.54,464.06,324.35,449,327.34,441.77Z" transform="translate(-308.11 -287.01)"/><path class="cls-5" d="M414.14,444.18c-1.75-4.91-5.1-10.06-7.24-14.79-1.68-3.72-4.62-9.23-1.84-13.22,2.56-3.68,5.13-3.86,7.49-8.08,2.09-3.74,1.37-9.92,0-13.72-1.22-3.42-5.18-9.33-7.47-3.28-1.77,4.66-2.63,7.72-6.94,11-5.24,4-16,7-14.39,15.18,1,5.22,3.57,10,4.43,15.35,1.14,7.06,1.08,14.25,2.71,21.24,1,4.38,2.37,9.76,4.73,13.62,2.56,4.18,11,3.68,15.43,2.86C423.41,468,416.73,451.43,414.14,444.18Z" transform="translate(-308.11 -287.01)"/><path class="cls-3" d="M353.21,411.16a25.31,25.31,0,0,0,16.23,5.51c5.56-.19,10.15-2,14.8-4.64a11.86,11.86,0,0,0,0,8.66c4.24,11.84,4.54,24.4,7.42,36.53,1,4,.39,8.59,3.83,11.41s13.19,3.69,17,2.55c5.87-1.74,6.78-8.1,5.87-13.58a55.22,55.22,0,0,0-3.14-10.47c-1.72-4.51-3.57-9-5.6-13.38a54.62,54.62,0,0,1-3.93-10.33c-1.1-4.64-1.81-6.54,1.66-9.57,2.53-2.21,4.89-4.09,6.43-7.15s1.32-6.6.36-9.75c-.16-.51-.39-1.19-.69-1.93a.61.61,0,0,0,.14-.09,11.84,11.84,0,0,0,2.81-4.88c.25-.75-.94-1-1.19-.28a10.93,10.93,0,0,1-2.28,4.06c-1.45-3.09-3.91-6.52-7-4.82-1.88,1-2.73,3-3.49,4.89-1.53,3.88-2.36,7-6.07,9.43-3.3,2.17-7.39,3.2-10.31,6-.17.16-.3.35-.46.52a.6.6,0,0,0-.14.05c-4.74,2.85-9.49,5.36-15.16,5.56A24.79,24.79,0,0,1,354,410.26C353.41,409.78,352.58,410.68,353.21,411.16Zm31.45,4.74a8.33,8.33,0,0,1,1.85-5.24c2.25-2.54,6-3.82,8.95-5.35a14.59,14.59,0,0,0,5.87-5c1.26-2,1.79-4.53,2.65-6.73.6-1.51,1.43-3.09,3.07-3.65,1.82-.62,3.37,1.85,4.1,3a17.06,17.06,0,0,1,2.55,9.52c-.33,7.52-6.25,8.26-9,14.41-2,4.45.67,10.19,2.42,14.26,1.83,4.24,3.72,8.43,5.49,12.7,3,7.25,9.41,22.37.15,25.9a13.68,13.68,0,0,1-4.09.8c-2.83.16-11.22-1.17-12.82-3.87-2.39-4-3.13-9.8-4-14.33-1.17-6.07-1.75-12.24-2.87-18.32-.54-2.93-1.18-5.86-2-8.74C386.21,422.16,384.56,419.19,384.65,415.9Z" transform="translate(-308.11 -287.01)"/><path class="cls-2" d="M413.71,441.69c3.94.46,20.42-.93,16.3,7.26a.61.61,0,0,1-1.08-.57c3.15-6.27-12.25-5.11-15.49-5.49C412.65,442.79,412.94,441.59,413.71,441.69Z" transform="translate(-308.11 -287.01)"/><path class="cls-2" d="M311.69,443.52c3.73-6.67,9.26-8.86,16.72-8.36.78.05.84,1.27.05,1.22-7-.46-12.17,1.4-15.69,7.71C312.39,444.79,311.3,444.22,311.69,443.52Z" transform="translate(-308.11 -287.01)"/></svg>