<svg id="Layer_1" data-name="Layer 1" xmlns="http://www.w3.org/2000/svg" xmlns:xlink="http://www.w3.org/1999/xlink" viewBox="0 0 118.28 161.67"><defs><style>.cls-1{fill:#ce8c5f;}.cls-2{fill:#d89a71;}.cls-3{fill:#e5a87a;}.cls-4,.cls-5{opacity:0.8;}.cls-4{fill:url(#radial-gradient);}.cls-5{fill:url(#radial-gradient-2);}.cls-6{fill:#632f0b;}.cls-7{fill:#512507;}.cls-8{fill:#db6b49;}.cls-9{fill:#fff;}</style><radialGradient id="radial-gradient" cx="4333.26" cy="2801.71" r="13.09" gradientTransform="matrix(-0.95, -0.61, -0.43, 0.68, 5616.27, 1103.2)" gradientUnits="userSpaceOnUse"><stop offset="0" stop-color="#ed7d51" stop-opacity="0.9"/><stop offset="1" stop-color="#ed7d51" stop-opacity="0"/></radialGradient><radialGradient id="radial-gradient-2" cx="3132.04" cy="3986.08" r="13.09" gradientTransform="matrix(-0.71, -0.88, -0.62, 0.5, 5027.74, 1133.38)" xlink:href="#radial-gradient"/></defs><title>BOY-02</title><path class="cls-1" d="M354.43,401.19c9.39,4-2.41,12.23-7.08,14.92-3.31,1.9-7,3.86-10.64,4.52-5,.91-7-.24-9.41-4.63Z" transform="translate(-253.27 -298.43)"/><path class="cls-1" d="M253.28,350.95c-.17-4.67,1.74-10.46,3.37-14.85,1.35-3.62,3.83-11.18,8.58-11.4,6.09-.28,4.89,8.32,5.52,12.23l-9.09,22c-1.61-.66-3.89-.25-5.56-1.46C254.25,356.1,253.36,353.15,253.28,350.95Z" transform="translate(-253.27 -298.43)"/><path class="cls-2" d="M255,373c-.92-14,3.79-28.68,14.44-37.82a27.77,27.77,0,0,1,11.86-5.76,47.37,47.37,0,0,1,13.81-.76c7.66.79,16.95,3.09,23.11,8.13a144.45,144.45,0,0,1,10.93,9.67c1.71,1.72,2.61,3.77,4.66,5.21,1.83,1.29,3.94,2.17,5.77,3.45,6.26,4.35,12.89,8,16.71,14.79,3.48,6.13,3.49,15.79,1.35,22.35-1.93,5.92-7.27,10.37-11.68,14.48-5,4.66-10.42,8.89-16.75,11.58-23.1,9.8-53.93,9.09-66.9-15.74C257.37,393.17,255.15,375.94,255,373Z" transform="translate(-253.27 -298.43)"/><path class="cls-3" d="M268.77,346.1c5.1-7.71,16.66-12.62,26.16-9.81,10.62,3.14,15,13.57,22.56,20.05,10.74,9.24,24,12.54,29.93,26,2.71,6.13,2,12.57-1.79,18.29-8.39,12.7-26.42,18.8-42.07,17.92-10-.56-20.57-2.27-28.9-7.38C251.86,397.15,256.18,365.13,268.77,346.1Z" transform="translate(-253.27 -298.43)"/><path class="cls-4" d="M282.45,356.09a19,19,0,0,1,7.72,5.34c4.11,4.88,6.33,16.08-3.34,17.65s-27.93-8.3-16.89-20.51C273.44,354.69,278.21,354.53,282.45,356.09Z" transform="translate(-253.27 -298.43)"/><path class="cls-5" d="M323,387.9a19,19,0,0,1,5.63,7.5c2.35,5.93.91,17.26-8.76,15.69s-23.87-16.71-9.53-24.8C314.91,383.72,319.49,385.08,323,387.9Z" transform="translate(-253.27 -298.43)"/><path class="cls-6" d="M264.13,335.85c3.57-6.33,21.38-32.49,50.24-30.16-1.6,1.59-4.2,4-5.33,6.25,12.25-6.41,26.69-6.35,38.88-13,.55,8.25,8.15,16.1,11.89,23.24s6.72,14.88,3.5,22.78c1.32-2.07,1.91-6.55,3.13-8.65,1.77,5.38,3.15,16.44,3.66,22.24a91.19,91.19,0,0,1-.5,22.06c-1.08,6.69-4.25,11.27-8.67,16.27-1.57,1.78-3.6,3.56-5.36,5.27-.86.84-11.65,6.54-12.83,7.64,4.23-5.51,10-10.46,12.86-16.87,5.66-12.65-3.4-28.41-14.12-35.1-4.92-3.07-8.83-4-12.83-8.56-11.92-13.49-29.83-25.56-51.1-15.47-4.08,1.94-10.42,5.31-12.85,9.28-.77,1.27-1.33,2.71-2,3.9C262.22,341.82,262,342,264.13,335.85Z" transform="translate(-253.27 -298.43)"/><path class="cls-7" d="M308.79,312.92s0,0,0-.07c.13-3.11,2.75-5,4.91-6.87.71-.62,1.6.54.89,1.15a20.08,20.08,0,0,0-3.41,3.27c4.09-3.11,10-4,14.83-4.83a70.49,70.49,0,0,0,21.7-7.06.6.6,0,0,1,.5-.05.65.65,0,0,1,.86.58c.69,8.64,7.6,15.16,11.07,22.78,3.06,6.73,4.78,12.92,4,19.94a12.42,12.42,0,0,0,1.7-4.44.73.73,0,0,1,1.44.2c0,.07,0,.13,0,.2a.58.58,0,0,1,.08.14c4.66,13.41,5.23,29.71,2.8,43.63-2.6,14.88-15.08,21.72-27,28.9-.79.48-1.69-.67-.89-1.15,5.48-3.31,11.1-6.41,16.06-10.48a29.23,29.23,0,0,0,10.49-18.3c2.22-12.73,1.66-27.82-2.29-40.32a31.92,31.92,0,0,1-3.07,5.35.69.69,0,0,1-.13.2l-.26.4c-.51.79-1.66-.1-1.15-.88l.23-.34c1.94-9.07-.51-16.53-4.41-24.73-3.26-6.84-9-12.27-10-20a61.69,61.69,0,0,1-18,6.29c-6.31,1.1-15.25,1.58-19.58,7a.57.57,0,0,1-.5.35.75.75,0,0,1-.88-.79h0Z" transform="translate(-253.27 -298.43)"/><path class="cls-6" d="M329.15,373.17a12.23,12.23,0,0,1,8.62,7.59c.68,1.75-2,2.88-2.68,1.13a9.26,9.26,0,0,0-6.34-5.84C326.94,375.64,327.32,372.76,329.15,373.17Z" transform="translate(-253.27 -298.43)"/><path class="cls-8" d="M310.37,371.22c-7.89,5.17-3.46,21.55-12.55,16.94C282.15,380.19,310.37,371.22,310.37,371.22Z" transform="translate(-253.27 -298.43)"/><path class="cls-8" d="M287.81,390.81c5.93,10.75,17.19,18.72,29.8,17.51a11,11,0,0,0,0-2.55.73.73,0,0,1,1.44-.19,13.55,13.55,0,0,1-1,6.74.73.73,0,0,1-1.34-.56,13.72,13.72,0,0,0,.63-2c-13.11,1-24.7-7.22-30.87-18.42C286,390.55,287.37,390,287.81,390.81Z" transform="translate(-253.27 -298.43)"/><path class="cls-9" d="M330.12,397.84s-6.06-7-11.16-10.51c0,0,5.25-9.72,11.92-3.26S330.12,397.84,330.12,397.84Z" transform="translate(-253.27 -298.43)"/><path d="M329.55,383.12a7.23,7.23,0,0,1-4.52,7.82,5.17,5.17,0,0,1-1.58.22,43.37,43.37,0,0,0-4.56-4S323.67,378.91,329.55,383.12Z" transform="translate(-253.27 -298.43)"/><path class="cls-8" d="M318.76,387.9c4.17,3.2,7.36,7.32,10.9,11.16a.64.64,0,0,0,1.05-.13l.06,0c1.88-2.49,4.1-4.86,4.72-8,.51-2.63-.94-5.88-2.86-7.63-4.54-4.14-10.61-1.67-14.1,2.57a.75.75,0,0,0,.21,1.12A.61.61,0,0,0,318.76,387.9Zm1-1.06a.76.76,0,0,0-.15-.07c2.72-3.29,8.38-6.46,12-2.48,4.41,4.81,1.63,8.88-1.54,13.09C326.78,393.72,323.7,389.87,319.76,386.84Z" transform="translate(-253.27 -298.43)"/><path class="cls-9" d="M293.91,362.82s-7.88-4.86-13.8-6.67c0,0,2.09-10.85,10.39-6.69S293.91,362.82,293.91,362.82Z" transform="translate(-253.27 -298.43)"/><path d="M288.94,348.95a7.23,7.23,0,0,1-2,8.81,5.11,5.11,0,0,1-1.45.68A43.34,43.34,0,0,0,280,356S282.07,346.7,288.94,348.95Z" transform="translate(-253.27 -298.43)"/><path class="cls-6" d="M291.49,342.36c3.85.5,6.35,3.48,7.75,6.91a1.45,1.45,0,0,1-2.71,1.06c-1-2.49-2.67-4.73-5.5-5.09C289.17,345,289.63,342.12,291.49,342.36Z" transform="translate(-253.27 -298.43)"/><path class="cls-8" d="M279.33,355.62c5,2.49,10.2,4.79,14.75,8.14a.72.72,0,0,0,1-.17.57.57,0,0,0,.61-.44c1.66-5.43,1.83-11.74-4-14.67-5.46-2.74-9.16,1-12.31,5.25a.68.68,0,0,0-.12.6A.75.75,0,0,0,279.33,355.62Zm1.22-1c2.22-3,5.51-7.34,9.77-5.2,5.39,2.71,5.66,7.67,4.14,12.86C290.14,359.17,285.31,356.94,280.55,354.6Z" transform="translate(-253.27 -298.43)"/><path class="cls-1" d="M254.24,367.31c0-3.78,1.46-7.47.94-11.23a.73.73,0,0,1,1.44-.19,22.18,22.18,0,0,1-.65,7.42c-.68,3.48-.28,7.25,0,10.77a77,77,0,0,0,4.24,20.36,52,52,0,0,0,9.93,17.18c15.51,17.16,39.89,12,59.47,6.54.89-.25,1.47,1.09.56,1.34-15.17,4.24-33.8,8.91-48.8,1.73a42.49,42.49,0,0,1-11.64-7.95c-4.37-4.51-7.45-10.14-9.92-15.87a70.34,70.34,0,0,1-4.86-19A88.83,88.83,0,0,1,254.24,367.31Z" transform="translate(-253.27 -298.43)"/><path class="cls-3" d="M293.6,453.87c.1-3.43,5.41-3.06,7.94-3.56-2.74-.54-9-1.7-8.29-5.51,2.37-1,5-2.16,7.56-1.76-1.45-.68-6.75-1.63-6.07-4.18.6-2.23,7.39-1.9,9-1.84,2.15.08,6.55.09,8.39,1.31,2.31,1.54,2.23,4.57-1.3,5.2l-.4.14c2.11.36,4.11,2.77,3.41,5s-3.59,2.56-5.72,3.26c2.54.86,5.87,3.27,3.25,6-1.84,1.92-7.76.59-10,.21S293.5,457.32,293.6,453.87Z" transform="translate(-253.27 -298.43)"/><path class="cls-1" d="M300.73,458.83c2.9.45,9.59,2.77,11.77-.29,2.06-2.88.63-5.26-1.77-6.65a6.05,6.05,0,0,0,1.49-.65c3.35-2.07,2.84-5.49,0-7.37a3.82,3.82,0,0,0-.56-6.49c-2.34-1.26-5.32-1.1-7.88-.91a40.11,40.11,0,0,0-6.13.61c-3.37.79-4.06,3.09-.95,5.11l.21.11c-1.73.26-3.4.92-3.76,2.41-.59,2.42,1.41,4,3.6,5-1.94.54-3.68,1.75-4,3.77C292,457.28,298.3,458.45,300.73,458.83Zm10.21-15.71a.59.59,0,0,0-.21,0c-2.84-.09-5.86-.1-8.68-.42-.45-.05-.9-.12-1.34-.2a.52.52,0,0,0-.4-.22l-.69,0a7,7,0,0,1-2.9-1.51c-1.35-1.22-.61-1.95.81-2.28a38.78,38.78,0,0,1,7.93-.75c1.74,0,4.57-.24,5.91,1.12S313,442.3,310.93,443.12Zm-1.24,7.63c-.54.06-1.08.09-1.61.1h0a.59.59,0,0,0-.31,0,12.89,12.89,0,0,1-1.79-.12,48.37,48.37,0,0,1-4.94-.92l-.55-.17a.5.5,0,0,0-.38-.22l-.3,0c-2.6-.95-8-3.33-4.79-5.09a8.47,8.47,0,0,1,4.44-.88c3.51,1.05,7.71.79,11.17.89h0a.59.59,0,0,0,.27.27C314.13,446.21,313,450.39,309.69,450.75Zm-15.31,1.82a6.65,6.65,0,0,1,4.79-1.95l.8.22c2.34.58,5.58,1.49,8.47,1.4a8.35,8.35,0,0,1,1.79.68q3.56,5.22-.8,5.71a16.21,16.21,0,0,1-3.88-.3c-1.76-.33-3.55-.52-5.3-.86C298.83,457.2,291.55,455.56,294.38,452.57Z" transform="translate(-253.27 -298.43)"/></svg>