<?xml version="1.0" encoding="utf-8"?>
<!-- Generator: Adobe Illustrator 22.0.0, SVG Export Plug-In . SVG Version: 6.00 Build 0)  -->
<svg version="1.1" id="Layer_1" xmlns="http://www.w3.org/2000/svg" xmlns:xlink="http://www.w3.org/1999/xlink" x="0px" y="0px"
	 viewBox="0 0 11 12" style="enable-background:new 0 0 11 12;" xml:space="preserve">
<style type="text/css">
	.st0{fill:#555555;}
	.st1{fill:#FDFEFE;}
	.st2{fill:#EFEFEF;}
</style>
<g>
	<g>
		<path class="st0" d="M4.9,0L2.5,0C1.2,0,0.2,1.1,0.2,2.4v1.1c0,1.3,1.1,2.4,2.4,2.4h0.9l1.5,1.5V5.9c1.3,0,2.3-1.1,2.3-2.4V2.4
			C7.2,1.1,6.1,0,4.9,0z"/>
		<g>
			<g>
				<rect x="1.4" y="1.7" class="st1" width="4.4" height="0.5"/>
				<rect x="1.4" y="2.8" class="st1" width="4.4" height="0.5"/>
				<rect x="2.4" y="3.8" class="st1" width="3.4" height="0.5"/>
			</g>
		</g>
	</g>
	<g>
		<path class="st2" d="M6.3,7.2l0,0.2c0,0.2-0.1,0.4-0.3,0.5L5.9,8C5.7,8.1,5.8,8.4,6,8.4l0.1,0c0.1,0,0.1,0.1,0.1,0.1l0,0.1
			l0.5-0.1L6.4,9.1l0.1,0.1c0.1,0.1,0.1,0.2,0.1,0.3l0,0.2C6.6,9.9,6.8,10,7,10l0.9-0.1c0.2,0,0.4,0.1,0.4,0.3l0,0
			c0,0.3-0.2,0.6-0.5,0.7c-0.2,0.1-0.3,0.1-0.3,0.1c-0.3,0.1-0.6,0.4-0.8,0.7L6.5,12h4.2l-0.3-0.6C10.3,11.1,9.6,10,9.6,10
			c0-0.2,0.1-0.4,0.3-0.6l0,0c0.4-0.3,0.6-0.7,0.7-1.2c0.2-1,0-2.3-1.4-2.5c-0.6-0.1-1-0.1-1.4,0C7,5.8,6.4,6.4,6.3,7.2z"/>
		<path class="st0" d="M8.6,7.6c0.2-0.1,0.4-0.2,0.6-0.2c0.2,0,0.4,0.1,0.5,0.3c0.1,0.3-0.1,0.6-0.3,0.8c0,0-0.1,0.1-0.1,0.1
			c0,0,0,0.1,0,0.1C9.3,9.2,9.4,9.6,9.6,10c0.3-0.4,0.7-0.8,0.9-1.3c0.2-0.5,0.4-1,0.3-1.5c0-0.2-0.1-0.4-0.2-0.6
			c-0.1-0.2-0.2-0.3-0.3-0.4c-0.2-0.2-0.6-0.4-0.9-0.4C8.5,5.5,7,5.2,6.5,6.4c0.5-0.1,1.3,0.1,1.8,0C8.2,6.6,7.9,7,8.1,7.2
			C8.3,7.4,8.5,7.4,8.6,7.6z"/>
	</g>
</g>
</svg>
