<svg xmlns="http://www.w3.org/2000/svg" xmlns:xlink="http://www.w3.org/1999/xlink" width="200" height="200" viewBox="0 0 200 200">
  <defs>
    <clipPath id="clip-Artboard_2">
      <rect width="200" height="200"/>
    </clipPath>
  </defs>
  <g id="Artboard_2" data-name="Artboard – 2" clip-path="url(#clip-Artboard_2)">
    <rect width="200" height="200" fill="#fff"/>
    <g id="Group_120" data-name="Group 120" transform="translate(-156 -1011.279)">
      <g id="Path_127" data-name="Path 127" transform="translate(156 1011.279)" fill="none">
        <path d="M100,0A100,100,0,1,1,0,100,100,100,0,0,1,100,0Z" stroke="none"/>
        <path d="M 99.99994659423828 2 C 93.34947204589844 2 86.70376586914063 2.669891357421875 80.24742126464844 3.991058349609375 C 73.95618438720703 5.278427124023438 67.7679443359375 7.1993408203125 61.85455322265625 9.70050048828125 C 56.04808044433594 12.15641784667969 50.44760131835938 15.1962890625 45.20863342285156 18.73565673828125 C 40.01895141601563 22.24176025390625 35.13870239257813 26.268310546875 30.70352172851563 30.70352172851563 C 26.268310546875 35.13870239257813 22.24176025390625 40.01895141601563 18.73565673828125 45.20863342285156 C 15.1962890625 50.44760131835938 12.15641784667969 56.04808044433594 9.70050048828125 61.85455322265625 C 7.1993408203125 67.7679443359375 5.278427124023438 73.95618438720703 3.991058349609375 80.24742126464844 C 2.669891357421875 86.70376586914063 2 93.34947204589844 2 99.99994659423828 C 2 106.6504211425781 2.669891357421875 113.2961273193359 3.991058349609375 119.7524719238281 C 5.278427124023438 126.0437088012695 7.1993408203125 132.2319488525391 9.70050048828125 138.1453399658203 C 12.15641784667969 143.9518127441406 15.1962890625 149.5522918701172 18.73565673828125 154.791259765625 C 22.24176025390625 159.9809417724609 26.268310546875 164.8611755371094 30.70352172851563 169.2963714599609 C 35.13870239257813 173.7315826416016 40.01895141601563 177.7581329345703 45.20863342285156 181.2642364501953 C 50.44760131835938 184.8036041259766 56.04808044433594 187.8434753417969 61.85455322265625 190.2993927001953 C 67.7679443359375 192.8005523681641 73.95618438720703 194.7214660644531 80.24742126464844 196.0088348388672 C 86.70376586914063 197.3300018310547 93.34947204589844 197.9998931884766 99.99994659423828 197.9998931884766 C 106.6504211425781 197.9998931884766 113.2961273193359 197.3300018310547 119.7524719238281 196.0088348388672 C 126.0437088012695 194.7214660644531 132.2319488525391 192.8005523681641 138.1453399658203 190.2993927001953 C 143.9518127441406 187.8434753417969 149.5522918701172 184.8036041259766 154.791259765625 181.2642364501953 C 159.9809417724609 177.7581329345703 164.8611755371094 173.7315826416016 169.2963714599609 169.2963714599609 C 173.7315826416016 164.8611755371094 177.7581329345703 159.9809417724609 181.2642364501953 154.791259765625 C 184.8036041259766 149.5522918701172 187.8434753417969 143.9518127441406 190.2993927001953 138.1453399658203 C 192.8005523681641 132.2319488525391 194.7214660644531 126.0437088012695 196.0088348388672 119.7524719238281 C 197.3300018310547 113.2961273193359 197.9998931884766 106.6504211425781 197.9998931884766 99.99994659423828 C 197.9998931884766 93.34947204589844 197.3300018310547 86.70376586914063 196.0088348388672 80.24742126464844 C 194.7214660644531 73.95618438720703 192.8005523681641 67.7679443359375 190.2993927001953 61.85455322265625 C 187.8434753417969 56.04808044433594 184.8036041259766 50.44760131835938 181.2642364501953 45.20863342285156 C 177.7581329345703 40.01895141601563 173.7315826416016 35.13870239257813 169.2963714599609 30.70352172851563 C 164.8611755371094 26.268310546875 159.9809417724609 22.24176025390625 154.791259765625 18.73565673828125 C 149.5522918701172 15.1962890625 143.9518127441406 12.15641784667969 138.1453399658203 9.70050048828125 C 132.2319488525391 7.1993408203125 126.0437088012695 5.278427124023438 119.7524719238281 3.991058349609375 C 113.2961273193359 2.669891357421875 106.6504211425781 2 99.99994659423828 2 M 99.99994659423828 0 C 155.2283935546875 0 199.9998931884766 44.77149963378906 199.9998931884766 99.99994659423828 C 199.9998931884766 155.2283935546875 155.2283935546875 199.9998931884766 99.99994659423828 199.9998931884766 C 44.77149963378906 199.9998931884766 0 155.2283935546875 0 99.99994659423828 C 0 44.77149963378906 44.77149963378906 0 99.99994659423828 0 Z" stroke="none" fill="#223555"/>
      </g>
      <g id="Ellipse_7" data-name="Ellipse 7" transform="translate(163.31 1018.079)" fill="none" stroke="#223555" stroke-width="1">
        <circle cx="92.69" cy="92.69" r="92.69" stroke="none"/>
        <circle cx="92.69" cy="92.69" r="92.19" fill="none"/>
      </g>
      <path id="Path_6" data-name="Path 6" d="M184.081,55.229,150.252,33.463a1.454,1.454,0,0,0-1.573,2.445l33.334,21.447h-7.771L136.3,32.941h0a3.94,3.94,0,0,0-4.253,0L94.1,57.356H86.325l47.842-30.784,6.776,4.359a1.454,1.454,0,1,0,1.573-2.445l-6.776-4.359a2.91,2.91,0,0,0-3.143,0l-48.34,31.1a2.735,2.735,0,0,0,1.48,5.035H93.07v9.4a2.411,2.411,0,0,0,1.91,2.355v2.559a2.41,2.41,0,0,0,2.407,2.407h.2V94.8a1.454,1.454,0,1,0,2.907,0V75.53a1.454,1.454,0,0,0-1.454-1.454H97.888V72.07h10.3v2.006h-1.153a1.454,1.454,0,0,0-1.454,1.454v32.12a1.454,1.454,0,0,0,1.454,1.454h1.153v2.182h-10.3V109.1h1.153a1.454,1.454,0,0,0,1.454-1.454v-3.716a1.454,1.454,0,0,0-2.907,0V106.2h-.2A2.409,2.409,0,0,0,94.98,108.6v2.559a2.411,2.411,0,0,0-1.91,2.355v2.935H87.92a2.918,2.918,0,0,0-2.914,2.914v3.058a2.918,2.918,0,0,0,2.914,2.914h92.5a2.918,2.918,0,0,0,2.914-2.914v-3.058a2.918,2.918,0,0,0-2.914-2.914h-5.15v-2.935a2.411,2.411,0,0,0-1.91-2.355V108.6a2.41,2.41,0,0,0-2.407-2.407h-.2V76.984h.2a2.41,2.41,0,0,0,2.407-2.407V72.018a2.411,2.411,0,0,0,1.91-2.355v-9.4H182.6a2.735,2.735,0,0,0,1.48-5.034ZM133.616,35.387a1.026,1.026,0,0,1,1.107,0h0l34.146,21.969H99.47ZM124.2,66.728v2.935a2.411,2.411,0,0,0,1.91,2.355v2.559a2.41,2.41,0,0,0,2.407,2.407h.2V106.2h-.2a2.41,2.41,0,0,0-2.407,2.407v2.559a2.411,2.411,0,0,0-1.91,2.355v2.935H113v-2.935a2.411,2.411,0,0,0-1.91-2.355V108.6a2.41,2.41,0,0,0-2.407-2.407h-.2V76.984h.2a2.41,2.41,0,0,0,2.407-2.407V72.018A2.411,2.411,0,0,0,113,69.663V66.728Zm31.133,0v2.935a2.411,2.411,0,0,0,1.91,2.355v2.559a2.41,2.41,0,0,0,2.407,2.407h.2V106.2h-.2a2.41,2.41,0,0,0-2.407,2.407v2.559a2.411,2.411,0,0,0-1.91,2.355v2.935h-11.2v-2.935a2.411,2.411,0,0,0-1.91-2.355V108.6a2.41,2.41,0,0,0-2.407-2.407h-.2V76.984h.2a2.41,2.41,0,0,0,2.407-2.407V72.018a2.411,2.411,0,0,0,1.91-2.355V66.728Zm17.025,2.434H158.244V66.728h14.117v2.434ZM169.3,109.1h1.153v2.182h-10.3V109.1h1.153a1.454,1.454,0,0,0,1.454-1.454V75.53a1.454,1.454,0,0,0-1.454-1.454h-1.153V72.07h10.3v2.006H169.3a1.454,1.454,0,0,0-1.454,1.454v32.12A1.454,1.454,0,0,0,169.3,109.1ZM130.174,74.076h-1.153V72.07h10.3v2.006h-1.153a1.454,1.454,0,0,0-1.454,1.454v32.12a1.454,1.454,0,0,0,1.454,1.454h1.153v2.182h-10.3V109.1h1.153a1.454,1.454,0,0,0,1.454-1.454V75.53A1.454,1.454,0,0,0,130.174,74.076Zm-3.064,40.045a1.452,1.452,0,0,0,.45.072h13.2a1.451,1.451,0,0,0,.463-.077v2.335H127.111Zm14.117-44.959H127.111V66.728h14.117Zm-31.133,0H95.977V66.728h14.117v2.434ZM95.977,114.118a1.451,1.451,0,0,0,.457.074h13.2a1.45,1.45,0,0,0,.457-.074v2.333H95.977v-2.333Zm84.448,5.247,0,3.065h0l-92.505-.007.007-3.065Zm-22.182-2.914V114.12a1.449,1.449,0,0,0,.453.073h13.2a1.454,1.454,0,0,0,.461-.076v2.335ZM172.361,63.82H95.977V60.263h76.384V63.82Z" transform="translate(122.341 1036.444)" fill="#223555"/>
    </g>
  </g>
</svg>
