<svg xmlns="http://www.w3.org/2000/svg" xmlns:xlink="http://www.w3.org/1999/xlink" width="200" height="200" viewBox="0 0 200 200">
  <defs>
    <clipPath id="clip-Artboard_2">
      <rect width="200" height="200"/>
    </clipPath>
  </defs>
  <g id="Artboard_2" data-name="Artboard – 2" clip-path="url(#clip-Artboard_2)">
    <rect width="200" height="200" fill="#fff"/>
    <g id="Group_120" data-name="Group 120" transform="translate(-1015 -1011)">
      <g id="Path_125" data-name="Path 125" transform="translate(1022.289 1018.06)" fill="none">
        <path d="M92.431,0A92.431,92.431,0,1,1,0,92.431,92.431,92.431,0,0,1,92.431,0Z" stroke="none"/>
        <path d="M 92.43121337890625 1 C 86.22707366943359 1 80.02711486816406 1.624969482421875 74.00357055664063 2.857574462890625 C 68.13364410400391 4.058731079101563 62.35976409912109 5.851043701171875 56.84237670898438 8.184707641601563 C 51.42489624023438 10.47608947753906 46.19969177246094 13.312255859375 41.31185913085938 16.61442565917969 C 36.47018432617188 19.8853759765625 31.91728210449219 23.64187622070313 27.77958679199219 27.77958679199219 C 23.64187622070313 31.91728210449219 19.8853759765625 36.47018432617188 16.61442565917969 41.31185913085938 C 13.312255859375 46.19969177246094 10.47608947753906 51.42489624023438 8.184707641601563 56.84237670898438 C 5.851043701171875 62.35976409912109 4.058731079101563 68.13364410400391 2.857574462890625 74.00357055664063 C 1.624969482421875 80.02711486816406 1 86.22707366943359 1 92.43121337890625 C 1 98.63535308837891 1.624969482421875 104.8353118896484 2.857574462890625 110.8588562011719 C 4.058731079101563 116.7287826538086 5.851043701171875 122.5026702880859 8.184707641601563 128.0200500488281 C 10.47608947753906 133.4375305175781 13.312255859375 138.6627349853516 16.61442565917969 143.5505676269531 C 19.8853759765625 148.3922424316406 23.64187622070313 152.9451446533203 27.77958679199219 157.0828247070313 C 31.91728210449219 161.2205505371094 36.47018432617188 164.97705078125 41.31185913085938 168.2480010986328 C 46.19969177246094 171.5501708984375 51.42489624023438 174.3863372802734 56.84237670898438 176.6777191162109 C 62.35976409912109 179.0113830566406 68.13364410400391 180.8036956787109 74.00357055664063 182.0048522949219 C 80.02711486816406 183.2374572753906 86.22707366943359 183.8624267578125 92.43121337890625 183.8624267578125 C 98.63535308837891 183.8624267578125 104.8353118896484 183.2374572753906 110.8588562011719 182.0048522949219 C 116.7287826538086 180.8036956787109 122.5026702880859 179.0113830566406 128.0200500488281 176.6777191162109 C 133.4375305175781 174.3863372802734 138.6627349853516 171.5501708984375 143.5505676269531 168.2480010986328 C 148.3922424316406 164.97705078125 152.9451446533203 161.2205505371094 157.0828247070313 157.0828247070313 C 161.2205505371094 152.9451446533203 164.97705078125 148.3922424316406 168.2480010986328 143.5505676269531 C 171.5501708984375 138.6627349853516 174.3863372802734 133.4375305175781 176.6777191162109 128.0200500488281 C 179.0113830566406 122.5026702880859 180.8036956787109 116.7287826538086 182.0048522949219 110.8588562011719 C 183.2374572753906 104.8353118896484 183.8624267578125 98.63535308837891 183.8624267578125 92.43121337890625 C 183.8624267578125 86.22707366943359 183.2374572753906 80.02711486816406 182.0048522949219 74.00357055664063 C 180.8036956787109 68.13364410400391 179.0113830566406 62.35976409912109 176.6777191162109 56.84237670898438 C 174.3863372802734 51.42489624023438 171.5501708984375 46.19969177246094 168.2480010986328 41.31185913085938 C 164.97705078125 36.47018432617188 161.2205505371094 31.91728210449219 157.0828247070313 27.77958679199219 C 152.9451446533203 23.64187622070313 148.3922424316406 19.8853759765625 143.5505676269531 16.61442565917969 C 138.6627349853516 13.312255859375 133.4375305175781 10.47608947753906 128.0200500488281 8.184707641601563 C 122.5026702880859 5.851043701171875 116.7287826538086 4.058731079101563 110.8588562011719 2.857574462890625 C 104.8353118896484 1.624969482421875 98.63535308837891 1 92.43121337890625 1 M 92.43121337890625 0 C 143.4795532226563 0 184.8624267578125 41.38287353515625 184.8624267578125 92.43121337890625 C 184.8624267578125 143.4795532226563 143.4795532226563 184.8624267578125 92.43121337890625 184.8624267578125 C 41.38287353515625 184.8624267578125 0 143.4795532226563 0 92.43121337890625 C 0 41.38287353515625 41.38287353515625 0 92.43121337890625 0 Z" stroke="none" fill="#223555"/>
      </g>
      <g id="Path_126" data-name="Path 126" transform="translate(1015 1011.279)" fill="none">
        <path d="M99.721,0A99.721,99.721,0,1,1,0,99.721,99.721,99.721,0,0,1,99.721,0Z" stroke="none"/>
        <path d="M 99.72064971923828 1.999984741210938 C 93.08912658691406 1.999984741210938 86.46233367919922 2.66796875 80.0244140625 3.985366821289063 C 73.7510986328125 5.269073486328125 67.58049011230469 7.184524536132813 61.6839599609375 9.678543090820313 C 55.89404296875 12.12747192382813 50.30952453613281 15.15867614746094 45.08549499511719 18.68797302246094 C 39.91056823730469 22.18405151367188 35.04425048828125 26.19914245605469 30.6217041015625 30.6217041015625 C 26.19914245605469 35.04425048828125 22.18405151367188 39.91056823730469 18.68797302246094 45.08549499511719 C 15.15867614746094 50.30952453613281 12.12747192382813 55.89404296875 9.678543090820313 61.6839599609375 C 7.184524536132813 67.58049011230469 5.269073486328125 73.7510986328125 3.985366821289063 80.0244140625 C 2.66796875 86.46233367919922 1.999984741210938 93.08912658691406 1.999984741210938 99.72064971923828 C 1.999984741210938 106.3521728515625 2.66796875 112.9789428710938 3.985366821289063 119.4168853759766 C 5.269073486328125 125.6901779174805 7.184524536132813 131.8608093261719 9.678543090820313 137.7573089599609 C 12.12747192382813 143.5472259521484 15.15867614746094 149.1317749023438 18.68797302246094 154.3558044433594 C 22.18405151367188 159.5307006835938 26.19914245605469 164.3970184326172 30.6217041015625 168.8195953369141 C 35.04425048828125 173.2421569824219 39.91056823730469 177.2572326660156 45.08549499511719 180.7533264160156 C 50.30952453613281 184.2826232910156 55.89404296875 187.3138275146484 61.6839599609375 189.7627563476563 C 67.58049011230469 192.2567749023438 73.7510986328125 194.1722259521484 80.0244140625 195.4559326171875 C 86.46233367919922 196.7733306884766 93.08912658691406 197.4413146972656 99.72064971923828 197.4413146972656 C 106.3521728515625 197.4413146972656 112.9789428710938 196.7733306884766 119.4168853759766 195.4559326171875 C 125.6901779174805 194.1722259521484 131.8608093261719 192.2567749023438 137.7573089599609 189.7627563476563 C 143.5472259521484 187.3138275146484 149.1317749023438 184.2826232910156 154.3558044433594 180.7533264160156 C 159.5307006835938 177.2572326660156 164.3970184326172 173.2421569824219 168.8195953369141 168.8195953369141 C 173.2421569824219 164.3970184326172 177.2572326660156 159.5307006835938 180.7533264160156 154.3558044433594 C 184.2826232910156 149.1317749023438 187.3138275146484 143.5472259521484 189.7627563476563 137.7573089599609 C 192.2567749023438 131.8608093261719 194.1722259521484 125.6901779174805 195.4559326171875 119.4168853759766 C 196.7733306884766 112.9789428710938 197.4413146972656 106.3521728515625 197.4413146972656 99.72064971923828 C 197.4413146972656 93.08912658691406 196.7733306884766 86.46233367919922 195.4559326171875 80.0244140625 C 194.1722259521484 73.7510986328125 192.2567749023438 67.58049011230469 189.7627563476563 61.6839599609375 C 187.3138275146484 55.89404296875 184.2826232910156 50.30952453613281 180.7533264160156 45.08549499511719 C 177.2572326660156 39.91056823730469 173.2421569824219 35.04425048828125 168.8195953369141 30.6217041015625 C 164.3970184326172 26.19914245605469 159.5307006835938 22.18405151367188 154.3558044433594 18.68797302246094 C 149.1317749023438 15.15867614746094 143.5472259521484 12.12747192382813 137.7573089599609 9.678543090820313 C 131.8608093261719 7.184524536132813 125.6901779174805 5.269073486328125 119.4168853759766 3.985366821289063 C 112.9789428710938 2.66796875 106.3521728515625 1.999984741210938 99.72064971923828 1.999984741210938 M 99.72064971923828 -1.52587890625e-05 C 154.7948303222656 -1.52587890625e-05 199.4413146972656 44.64643859863281 199.4413146972656 99.72064971923828 C 199.4413146972656 154.7948303222656 154.7948303222656 199.4413146972656 99.72064971923828 199.4413146972656 C 44.64643859863281 199.4413146972656 -1.52587890625e-05 154.7948303222656 -1.52587890625e-05 99.72064971923828 C -1.52587890625e-05 44.64643859863281 44.64643859863281 -1.52587890625e-05 99.72064971923828 -1.52587890625e-05 Z" stroke="none" fill="#223555"/>
      </g>
      <g id="Group_7" data-name="Group 7" transform="translate(1064.868 1060.638)">
        <path id="Path_7" data-name="Path 7" d="M93.248,4.625a1.476,1.476,0,0,0,1.475-1.475V-4.525A1.476,1.476,0,0,0,93.248-6H-4.525A1.476,1.476,0,0,0-6-4.525V3.149A1.476,1.476,0,0,0-4.525,4.625H-1.16V84.1H-4.525A1.476,1.476,0,0,0-6,85.574v7.674a1.476,1.476,0,0,0,1.475,1.475H93.248a1.476,1.476,0,0,0,1.475-1.475V85.574A1.476,1.476,0,0,0,93.248,84.1H89.883V4.625Zm-96.3-7.674H91.773V1.674H78.2a1.475,1.475,0,0,0,0,2.951h1.555V84.1h-1.91V63.181A10.793,10.793,0,0,0,68.523,52.5V4.625h2.79a1.475,1.475,0,0,0,0-2.951H-3.049ZM30.332,84.1V76.484H46.1a1.475,1.475,0,0,0,0-2.951H30.332V65.919c34.385,0,6.462,0,28.061,0v7.615h-5.4a1.475,1.475,0,0,0,0,2.951h5.4V84.1Zm-16.5,0V76.484H20.2V84.1Zm0-18.18H20.2v7.615H13.831ZM20.2,62.968H13.835A7.841,7.841,0,0,1,20.2,55.488Zm2.951-22.006a1.475,1.475,0,0,0-2.951,0V52.5A10.793,10.793,0,0,0,10.88,63.181V84.1H8.97V4.625H20.2V33.879a1.475,1.475,0,0,0,2.951,0V4.625h4.228V84.1H23.153ZM58.393,4.625v7.748a16.974,16.974,0,0,0-28.061,0V4.625ZM37.939,60.307A9.011,9.011,0,0,1,35.4,55.339a2.81,2.81,0,0,0,2.54-2.793V49.778a14.877,14.877,0,0,0,6.421,1.858,14.875,14.875,0,0,0,6.421-1.858v2.768a2.81,2.81,0,0,0,2.54,2.793,9.076,9.076,0,0,1-15.383,4.968ZM58.393,52.4h-4.66V47.94A17.84,17.84,0,0,0,58.393,43Zm-.04-29.44L57.3,37.276c-.477,6.477-8.9,11.41-12.937,11.41S31.9,43.753,31.425,37.276L30.371,22.961a14.029,14.029,0,1,1,27.982,0ZM34.99,47.94V52.4H30.332V43A17.836,17.836,0,0,0,34.99,47.94Zm-4.658,7.412h2.094a11.927,11.927,0,0,0,4.045,7.615H30.332Zm25.965,0h2.1v7.615h-6.14A11.932,11.932,0,0,0,56.3,55.352ZM61.344,4.625h4.228V84.1H61.344ZM74.887,62.968H68.523V55.491a7.833,7.833,0,0,1,6.364,7.477Zm-6.364,2.951h6.37v7.615h-6.37Zm0,10.566h6.37V84.1h-6.37ZM1.791,4.625H6.02V84.1H1.791ZM91.773,91.773H-3.049V87.05H91.773ZM86.932,84.1H82.7V4.625h4.228Zm0,0" transform="translate(6 6)" fill="#223555"/>
      </g>
    </g>
  </g>
</svg>
