<svg xmlns="http://www.w3.org/2000/svg" xmlns:xlink="http://www.w3.org/1999/xlink" width="79.967" height="111.867" viewBox="0 0 79.967 111.867">
  <defs>
    <clipPath id="clip-path">
      <rect id="Rectangle_19" data-name="Rectangle 19" width="79.967" height="111.867" fill="none"/>
    </clipPath>
  </defs>
  <g id="Group_14" data-name="Group 14" transform="translate(-316 -244)">
    <g id="Group_11" data-name="Group 11" transform="translate(316 244)">
      <g id="Group_10" data-name="Group 10" transform="translate(0 0)" clip-path="url(#clip-path)">
        <path id="Path_21" data-name="Path 21" d="M316.506,294.891a5.836,5.836,0,0,0,1.689,6.5c3.557,3.56,10.875,16.413,14.5,25.47,2.472,6.177,7.9,12.24,12.017,16.241a9.253,9.253,0,0,1,2.762,6.614v.682a5.591,5.591,0,0,0,5.592,5.592h29.821a5.591,5.591,0,0,0,5.592-5.592v-5.726a1.707,1.707,0,0,1,.5-1.268c6.88-6.291,6.958-16.792,6.958-17.236V296.659a7.654,7.654,0,0,0-6.913-7.751,7.448,7.448,0,0,0-4.27,1.016v-2.9a7.413,7.413,0,0,0-11.263-6.376,7.368,7.368,0,0,0-11.1-5.635v-3.087a14.724,14.724,0,0,0,7.456-12.86,14.911,14.911,0,1,0-29.822,0,14.725,14.725,0,0,0,7.455,12.86v30.008a20.611,20.611,0,0,1-.888,6.5,1.884,1.884,0,0,1-1.343,1.253,1.8,1.8,0,0,1-1.678-.44,26.49,26.49,0,0,1-3.854-4.619c-3.234-4.838-11.373-13.877-16.468-13.877a7.3,7.3,0,0,0-6.734,4.138Zm27.236-35.824a11.183,11.183,0,0,1,22.366,0,11.07,11.07,0,0,1-3.727,8.347v-8.347a7.456,7.456,0,1,0-14.911,0v8.347a11.074,11.074,0,0,1-3.728-8.347ZM336.6,306.7a30.339,30.339,0,0,0,4.4,5.265,5.517,5.517,0,0,0,5.141,1.34,5.618,5.618,0,0,0,3.97-3.675,24.275,24.275,0,0,0,1.083-7.693V259.067a3.728,3.728,0,1,1,7.455,0v39.141a1.864,1.864,0,0,0,3.728,0V281.434a3.728,3.728,0,0,1,7.456,0v16.774a1.864,1.864,0,1,0,3.728,0V287.025a3.728,3.728,0,1,1,7.455,0v13.047a1.864,1.864,0,0,0,3.728,0v-3.728a3.7,3.7,0,0,1,1.093-2.634,3.774,3.774,0,0,1,2.908-1.084,3.969,3.969,0,0,1,3.454,4.033v29.507c0,.091-.095,9.319-5.748,14.487a5.44,5.44,0,0,0-1.707,4.017V350.4a1.864,1.864,0,0,1-1.865,1.864H353.062A1.863,1.863,0,0,1,351.2,350.4v-.682a13.008,13.008,0,0,0-3.893-9.289c-3.158-3.066-8.805-9.089-11.15-14.952-3.836-9.584-11.425-22.82-15.324-26.719-.888-.887-1.185-1.708-.883-2.438a3.676,3.676,0,0,1,3.292-1.836c2.533,0,9.4,6.28,13.36,12.218Zm0,0" transform="translate(-316.105 -244.122)" fill="#b89b5e"/>
      </g>
    </g>
    <path id="Path_22" data-name="Path 22" d="M632.035,557.644a1.863,1.863,0,0,0,1.864-1.864V544.6a1.864,1.864,0,0,0-3.727,0V555.78a1.863,1.863,0,0,0,1.863,1.864Zm0,0" transform="translate(-245.529 -233.464)" fill="#b89b5e"/>
    <path id="Path_23" data-name="Path 23" d="M623.5,635.587a1.861,1.861,0,0,0,1.317-.545,7.566,7.566,0,0,0,2.41-5.047,1.84,1.84,0,0,0-1.819-1.837,1.874,1.874,0,0,0-1.908,1.794,4.1,4.1,0,0,1-1.319,2.454,1.863,1.863,0,0,0,1.319,3.181Zm0,0" transform="translate(-238.861 -300.224)" fill="#b89b5e"/>
    <path id="Path_24" data-name="Path 24" d="M495.541,708.544H497.4a1.864,1.864,0,1,0,0-3.728h-1.863a1.864,1.864,0,1,0,0,3.728Zm0,0" transform="translate(-138.856 -360.132)" fill="#b89b5e"/>
    <g id="Group_13" data-name="Group 13" transform="translate(316 244)">
      <g id="Group_12" data-name="Group 12" transform="translate(0 0)" clip-path="url(#clip-path)">
        <path id="Path_25" data-name="Path 25" d="M538.2,708.544h13.048a1.864,1.864,0,0,0,0-3.728H538.2a1.864,1.864,0,0,0,0,3.728Zm0,0" transform="translate(-488.192 -604.133)" fill="#b89b5e"/>
        <path id="Path_26" data-name="Path 26" d="M398.766,274.861a1.864,1.864,0,0,0,1.359-3.141,18.593,18.593,0,0,1-.816-24.635,1.864,1.864,0,1,0-2.873-2.374,22.323,22.323,0,0,0,.971,29.563,1.866,1.866,0,0,0,1.359.587Zm0,0" transform="translate(-374.856 -244)" fill="#b89b5e"/>
        <path id="Path_27" data-name="Path 27" d="M560.837,269.924a1.863,1.863,0,0,0,2.508-.809,22.288,22.288,0,0,0-2.664-24.4,1.864,1.864,0,1,0-2.872,2.374,18.565,18.565,0,0,1,2.22,20.33,1.864,1.864,0,0,0,.807,2.508Zm0,0" transform="translate(-504.62 -244)" fill="#b89b5e"/>
      </g>
    </g>
  </g>
</svg>
