<svg xmlns="http://www.w3.org/2000/svg" width="16" height="20.869" viewBox="0 0 16 20.869">
  <g id="Group_24" data-name="Group 24" transform="translate(-859.525 -1169.186)">
    <path id="Path_36" data-name="Path 36" d="M873.791,1184.1l-3.323-1.661a.918.918,0,0,1-.508-.823v-1.175q.12-.148.25-.331a7.947,7.947,0,0,0,1.028-2.018,1.379,1.379,0,0,0,.81-1.256v-1.393a1.384,1.384,0,0,0-.348-.911v-1.851a3.117,3.117,0,0,0-.727-2.269,5.451,5.451,0,0,0-6.893,0,3.109,3.109,0,0,0-.727,2.269v1.851a1.384,1.384,0,0,0-.348.911v1.393a1.379,1.379,0,0,0,.521,1.08,7.28,7.28,0,0,0,1.218,2.517v1.151a.919.919,0,0,1-.479.807l-3.1,1.693a3.135,3.135,0,0,0-1.636,2.755v1.126c0,1.651,5.233,2.088,8,2.088s8-.437,8-2.088v-1.058a3.122,3.122,0,0,0-1.734-2.806Zm1.038,3.864c0,.472-2.578,1.391-7.3,1.391s-7.3-.919-7.3-1.391v-1.126a2.441,2.441,0,0,1,1.272-2.143l3.1-1.693a1.615,1.615,0,0,0,.843-1.418v-1.4l-.082-.1a6.562,6.562,0,0,1-1.185-2.457l-.033-.138-.119-.077a.691.691,0,0,1-.321-.582v-1.393a.683.683,0,0,1,.233-.512l.113-.1v-2.211a2.4,2.4,0,0,1,.557-1.746,4.815,4.815,0,0,1,5.84-.007,2.437,2.437,0,0,1,.564,1.753l0,2.211.116.106a.683.683,0,0,1,.233.511v1.393a.694.694,0,0,1-.494.661l-.173.052-.056.172a7.3,7.3,0,0,1-.985,1.987,4.411,4.411,0,0,1-.292.375l-.087.1v1.435a1.608,1.608,0,0,0,.893,1.445l3.322,1.661a2.426,2.426,0,0,1,1.35,2.184Zm0,0" fill="#848282"/>
  </g>
</svg>
