<svg xmlns="http://www.w3.org/2000/svg" xmlns:xlink="http://www.w3.org/1999/xlink" width="144" height="144" viewBox="0 0 144 144">
  <defs>
    <clipPath id="clip-Artboard_2">
      <rect width="144" height="144"/>
    </clipPath>
  </defs>
  <g id="Artboard_2" data-name="Artboard – 2" clip-path="url(#clip-Artboard_2)">
    <rect width="144" height="144" fill="#fff"/>
    <g id="Group_124" data-name="Group 124" transform="translate(7 0.58)">
      <path id="Path_1" data-name="Path 1" d="M156.766,111.653,130.129,85.016a4.791,4.791,0,0,0-5.87-.715L109.294,69.337a1.964,1.964,0,1,0-2.777,2.777l14.862,14.862L115.9,92.451l-27.26-27.26,5.475-5.475,3.648,3.647a1.964,1.964,0,1,0,2.777-2.777L96.9,56.938l9.492-9.492.751.751a4.94,4.94,0,0,0,6.986,0l3.5-3.5a4.94,4.94,0,0,0,0-6.986L90.778,10.867a4.939,4.939,0,0,0-6.986,0l-3.5,3.5a4.94,4.94,0,0,0,0,6.986l.751.751L51.03,52.117l-.751-.751a4.946,4.946,0,0,0-6.986,0l-3.5,3.5a4.94,4.94,0,0,0,0,6.986L66.64,88.7a4.94,4.94,0,0,0,6.986,0l3.5-3.5h0a4.946,4.946,0,0,0,0-6.986l-.751-.751,9.492-9.492,27.363,27.363a4.791,4.791,0,0,0,.715,5.87l26.638,26.638a4.8,4.8,0,0,0,6.79,0l9.4-9.4a4.8,4.8,0,0,0,0-6.79Zm-73.7-94.51,3.5-3.5a1.011,1.011,0,0,1,1.431,0L114.846,40.49a1.011,1.011,0,0,1,0,1.431l-3.5,3.5a1.037,1.037,0,0,1-1.431,0L83.071,18.574a1.011,1.011,0,0,1,0-1.431ZM74.348,82.42l-3.5,3.5a1.036,1.036,0,0,1-1.431,0L42.572,59.073a1.011,1.011,0,0,1,0-1.431l3.5-3.5a1.013,1.013,0,0,1,1.431,0L74.347,80.988A1.014,1.014,0,0,1,74.348,82.42ZM84.477,63.8h0L73.6,74.682,53.808,54.894,83.822,24.88,103.61,44.669,92.731,55.547l0,0Zm69.512,51.864-9.4,9.4a.873.873,0,0,1-1.235,0L116.721,98.423a.873.873,0,0,1,0-1.235l.571-.571h0l8.824-8.824a.873.873,0,0,1,1.235,0l26.638,26.638a.873.873,0,0,1,0,1.235Z" transform="translate(-28.647 0)" fill="#b89b5e"/>
      <path id="Path_2" data-name="Path 2" d="M74.586,390.845H71.577V380.5a4.191,4.191,0,0,0-4.187-4.187H33.538a1.964,1.964,0,1,0,0,3.928H67.391a.259.259,0,0,1,.259.259v10.349H15.467V380.5a.259.259,0,0,1,.259-.259H21.2a1.964,1.964,0,1,0,0-3.928H15.726A4.191,4.191,0,0,0,11.54,380.5v10.349H8.531A8.54,8.54,0,0,0,0,399.375v5.592a3.289,3.289,0,0,0,3.286,3.286H79.831a3.289,3.289,0,0,0,3.286-3.286v-5.592A8.54,8.54,0,0,0,74.586,390.845Zm4.6,13.48H3.928v-4.95a4.608,4.608,0,0,1,4.6-4.6H74.586a4.608,4.608,0,0,1,4.6,4.6v4.95Z" transform="translate(0 -274.074)" fill="#b89b5e"/>
    </g>
  </g>
</svg>
