<svg xmlns="http://www.w3.org/2000/svg" xmlns:xlink="http://www.w3.org/1999/xlink" width="72" height="72" viewBox="0 0 72 72">
  <defs>
    <clipPath id="clip-Artboard_2">
      <rect width="72" height="72"/>
    </clipPath>
  </defs>
  <g id="Artboard_2" data-name="Artboard – 2" clip-path="url(#clip-Artboard_2)">
    <rect width="72" height="72" fill="#fff"/>
    <path id="Path_29" data-name="Path 29" d="M655.712,155.722H615.32A15.022,15.022,0,0,1,600.143,140.9V99.3A15.021,15.021,0,0,1,615.32,84.47h40.392A15.019,15.019,0,0,1,670.886,99.3v41.6a15.019,15.019,0,0,1-15.174,14.826ZM664.782,99.3a8.913,8.913,0,0,0-9.069-8.724H615.32a8.913,8.913,0,0,0-9.071,8.724v41.6a8.911,8.911,0,0,0,9.071,8.721h40.392a8.912,8.912,0,0,0,9.069-8.721V99.3Zm-29.268,39.294a18.494,18.494,0,1,1,18.5-18.5,18.516,18.516,0,0,1-18.5,18.5Zm0-30.882A12.387,12.387,0,1,0,647.9,120.1a12.4,12.4,0,0,0-12.385-12.387ZM655.361,105a4.325,4.325,0,1,1,4.331-4.323A4.321,4.321,0,0,1,655.361,105Z" transform="translate(-599.015 -84.47)" fill="#b89b5e"/>
  </g>
</svg>
