<svg xmlns="http://www.w3.org/2000/svg" xmlns:xlink="http://www.w3.org/1999/xlink" width="200" height="200" viewBox="0 0 200 200">
  <defs>
    <clipPath id="clip-Artboard_2">
      <rect width="200" height="200"/>
    </clipPath>
  </defs>
  <g id="Artboard_2" data-name="Artboard – 2" clip-path="url(#clip-Artboard_2)">
    <rect width="200" height="200" fill="#fff"/>
    <g id="Group_120" data-name="Group 120" transform="translate(-1015 -1011)">
      <g id="Ellipse_9" data-name="Ellipse 9" transform="translate(1022.289 1018.06)" fill="none" stroke="#b89b5e" stroke-width="1">
        <circle cx="92.431" cy="92.431" r="92.431" stroke="none"/>
        <circle cx="92.431" cy="92.431" r="91.931" fill="none"/>
      </g>
      <g id="Ellipse_5" data-name="Ellipse 5" transform="translate(1015 1011.279)" fill="none" stroke="#b89b5e" stroke-width="2">
        <circle cx="99.721" cy="99.721" r="99.721" stroke="none"/>
        <circle cx="99.721" cy="99.721" r="98.721" fill="none"/>
      </g>
      <g id="Group_7" data-name="Group 7" transform="translate(1064.868 1060.638)">
        <path id="Path_7" data-name="Path 7" d="M93.248,4.625a1.476,1.476,0,0,0,1.475-1.475V-4.525A1.476,1.476,0,0,0,93.248-6H-4.525A1.476,1.476,0,0,0-6-4.525V3.149A1.476,1.476,0,0,0-4.525,4.625H-1.16V84.1H-4.525A1.476,1.476,0,0,0-6,85.574v7.674a1.476,1.476,0,0,0,1.475,1.475H93.248a1.476,1.476,0,0,0,1.475-1.475V85.574A1.476,1.476,0,0,0,93.248,84.1H89.883V4.625Zm-96.3-7.674H91.773V1.674H78.2a1.475,1.475,0,0,0,0,2.951h1.555V84.1h-1.91V63.181A10.793,10.793,0,0,0,68.523,52.5V4.625h2.79a1.475,1.475,0,0,0,0-2.951H-3.049ZM30.332,84.1V76.484H46.1a1.475,1.475,0,0,0,0-2.951H30.332V65.919c34.385,0,6.462,0,28.061,0v7.615h-5.4a1.475,1.475,0,0,0,0,2.951h5.4V84.1Zm-16.5,0V76.484H20.2V84.1Zm0-18.18H20.2v7.615H13.831ZM20.2,62.968H13.835A7.841,7.841,0,0,1,20.2,55.488Zm2.951-22.006a1.475,1.475,0,0,0-2.951,0V52.5A10.793,10.793,0,0,0,10.88,63.181V84.1H8.97V4.625H20.2V33.879a1.475,1.475,0,0,0,2.951,0V4.625h4.228V84.1H23.153ZM58.393,4.625v7.748a16.974,16.974,0,0,0-28.061,0V4.625ZM37.939,60.307A9.011,9.011,0,0,1,35.4,55.339a2.81,2.81,0,0,0,2.54-2.793V49.778a14.877,14.877,0,0,0,6.421,1.858,14.875,14.875,0,0,0,6.421-1.858v2.768a2.81,2.81,0,0,0,2.54,2.793,9.076,9.076,0,0,1-15.383,4.968ZM58.393,52.4h-4.66V47.94A17.84,17.84,0,0,0,58.393,43Zm-.04-29.44L57.3,37.276c-.477,6.477-8.9,11.41-12.937,11.41S31.9,43.753,31.425,37.276L30.371,22.961a14.029,14.029,0,1,1,27.982,0ZM34.99,47.94V52.4H30.332V43A17.836,17.836,0,0,0,34.99,47.94Zm-4.658,7.412h2.094a11.927,11.927,0,0,0,4.045,7.615H30.332Zm25.965,0h2.1v7.615h-6.14A11.932,11.932,0,0,0,56.3,55.352ZM61.344,4.625h4.228V84.1H61.344ZM74.887,62.968H68.523V55.491a7.833,7.833,0,0,1,6.364,7.477Zm-6.364,2.951h6.37v7.615h-6.37Zm0,10.566h6.37V84.1h-6.37ZM1.791,4.625H6.02V84.1H1.791ZM91.773,91.773H-3.049V87.05H91.773ZM86.932,84.1H82.7V4.625h4.228Zm0,0" transform="translate(6 6)" fill="#b89b5e"/>
      </g>
    </g>
  </g>
</svg>
