<svg xmlns="http://www.w3.org/2000/svg" xmlns:xlink="http://www.w3.org/1999/xlink" width="200" height="200" viewBox="0 0 200 200">
  <defs>
    <clipPath id="clip-Artboard_2">
      <rect width="200" height="200"/>
    </clipPath>
  </defs>
  <g id="Artboard_2" data-name="Artboard – 2" clip-path="url(#clip-Artboard_2)">
    <rect width="200" height="200" fill="#fff"/>
    <g id="Group_121" data-name="Group 121" transform="translate(-369 -1011)">
      <g id="Ellipse_2" data-name="Ellipse 2" transform="translate(369 1011)" fill="none" stroke="#b89b5e" stroke-width="2">
        <circle cx="99.721" cy="99.721" r="99.721" stroke="none"/>
        <circle cx="99.721" cy="99.721" r="98.721" fill="none"/>
      </g>
      <g id="Ellipse_8" data-name="Ellipse 8" transform="translate(376.289 1018.289)" fill="none" stroke="#b89b5e" stroke-width="1">
        <circle cx="92.431" cy="92.431" r="92.431" stroke="none"/>
        <circle cx="92.431" cy="92.431" r="91.931" fill="none"/>
      </g>
      <g id="Group_8" data-name="Group 8" transform="translate(427.315 1056.559)">
        <path id="Path_9" data-name="Path 9" d="M160.048,234.8a7.021,7.021,0,1,1,7.021-7.021,7.029,7.029,0,0,1-7.021,7.021Zm0-10.756a3.735,3.735,0,1,0,3.735,3.735,3.74,3.74,0,0,0-3.735-3.735Zm0,0" transform="translate(-131.204 -173.103)" fill="#b89b5e"/>
        <path id="Path_10" data-name="Path 10" d="M106.824,70.892a1.568,1.568,0,0,0-1.562,1.573v46.677a6.558,6.558,0,0,0,6.526,6.574H158.73a6.558,6.558,0,0,0,6.526-6.574V49.33a6.557,6.557,0,0,0-6.526-6.573h-6.884a5.787,5.787,0,0,0,.1-1.082,5.7,5.7,0,0,0-5.671-5.71H124.239a5.7,5.7,0,0,0-5.67,5.71,5.79,5.79,0,0,0,.1,1.082h-6.884a6.557,6.557,0,0,0-6.526,6.573V66.173a1.562,1.562,0,1,0,3.124,0V49.33a3.419,3.419,0,0,1,3.4-3.427h8.643a5.659,5.659,0,0,0,1.852,1.132,5.693,5.693,0,0,0,5.659,5.377h14.633a5.7,5.7,0,0,0,5.659-5.377,5.668,5.668,0,0,0,1.852-1.132h8.643a3.419,3.419,0,0,1,3.4,3.427v69.812a3.42,3.42,0,0,1-3.4,3.428H111.788a3.42,3.42,0,0,1-3.4-3.428V72.465a1.568,1.568,0,0,0-1.562-1.573Zm17.415-31.781H146.28a2.564,2.564,0,0,1,0,5.128H124.239a2.564,2.564,0,0,1,0-5.128Zm18.337,10.155H127.943a2.553,2.553,0,0,1-2.452-1.88h19.536a2.552,2.552,0,0,1-2.452,1.88Zm0,0" transform="translate(-92.937 -26.772)" fill="#b89b5e"/>
        <path id="Path_11" data-name="Path 11" d="M160.048,150.7a7.021,7.021,0,1,0-7.021-7.021,7.029,7.029,0,0,0,7.021,7.021Zm0-10.756a3.735,3.735,0,1,1-3.735,3.735,3.739,3.739,0,0,1,3.735-3.735Zm0,0" transform="translate(-131.204 -106.679)" fill="#b89b5e"/>
        <path id="Path_12" data-name="Path 12" d="M160.048,318.9a7.021,7.021,0,1,0-7.021-7.021,7.029,7.029,0,0,0,7.021,7.021Zm0-10.756a3.735,3.735,0,1,1-3.735,3.735,3.739,3.739,0,0,1,3.735-3.735Zm0,0" transform="translate(-131.204 -239.527)" fill="#b89b5e"/>
        <path id="Path_13" data-name="Path 13" d="M261.833,147.328H239.291a1.643,1.643,0,0,0,0,3.286h22.542a1.643,1.643,0,1,0,0-3.286Zm0,0" transform="translate(-198.406 -114.97)" fill="#b89b5e"/>
        <path id="Path_14" data-name="Path 14" d="M307.93,169.469h-9.611a1.643,1.643,0,0,0,0,3.286h9.611a1.643,1.643,0,1,0,0-3.286Zm0,0" transform="translate(-244.682 -132.439)" fill="#b89b5e"/>
        <path id="Path_15" data-name="Path 15" d="M239.291,233.868h22.542a1.643,1.643,0,1,0,0-3.286H239.291a1.643,1.643,0,1,0,0,3.286Zm0,0" transform="translate(-198.406 -180.655)" fill="#b89b5e"/>
        <path id="Path_16" data-name="Path 16" d="M239.948,252.723a1.643,1.643,0,1,0,0,3.286h6.532a1.643,1.643,0,1,0,0-3.286Zm0,0" transform="translate(-198.496 -198.123)" fill="#b89b5e"/>
        <path id="Path_17" data-name="Path 17" d="M239.291,319.806h22.542a1.643,1.643,0,1,0,0-3.286H239.291a1.643,1.643,0,0,0,0,3.286Zm0,0" transform="translate(-198.406 -248.457)" fill="#b89b5e"/>
        <path id="Path_18" data-name="Path 18" d="M273.3,338.656a1.643,1.643,0,0,0,0,3.286h6.532a1.643,1.643,0,1,0,0-3.286Zm0,0" transform="translate(-224.837 -265.921)" fill="#b89b5e"/>
        <path id="Path_19" data-name="Path 19" d="M166.094,402.416a1.643,1.643,0,0,0,1.643,1.643H181.9a1.643,1.643,0,1,0,0-3.286H167.737a1.642,1.642,0,0,0-1.643,1.643Zm0,0" transform="translate(-141.582 -314.929)" fill="#b89b5e"/>
        <path id="Path_20" data-name="Path 20" d="M131.968,48.824a1.584,1.584,0,0,0,1.585-1.585V-2.937A3.067,3.067,0,0,0,130.489-6H52.063A3.067,3.067,0,0,0,49-2.937V99.107a3.067,3.067,0,0,0,3.063,3.063h78.425a3.067,3.067,0,0,0,3.063-3.063V53.578a1.585,1.585,0,1,0-3.169,0V99H52.169V-2.831h78.214V47.24a1.584,1.584,0,0,0,1.585,1.585Zm0,0" transform="translate(-49 6)" fill="#b89b5e"/>
      </g>
    </g>
  </g>
</svg>
