<svg xmlns="http://www.w3.org/2000/svg" xmlns:xlink="http://www.w3.org/1999/xlink" width="200" height="200" viewBox="0 0 200 200">
  <defs>
    <clipPath id="clip-Artboard_2">
      <rect width="200" height="200"/>
    </clipPath>
  </defs>
  <g id="Artboard_2" data-name="Artboard – 2" clip-path="url(#clip-Artboard_2)">
    <rect width="200" height="200" fill="#fff"/>
    <g id="Group_120" data-name="Group 120" transform="translate(-156 -1011.279)">
      <g id="Ellipse_1" data-name="Ellipse 1" transform="translate(156 1011.279)" fill="none" stroke="#b89b5e" stroke-width="2">
        <circle cx="100" cy="100" r="100" stroke="none"/>
        <circle cx="100" cy="100" r="99" fill="none"/>
      </g>
      <g id="Ellipse_7" data-name="Ellipse 7" transform="translate(163.31 1018.079)" fill="none" stroke="#b89b5e" stroke-width="1">
        <circle cx="92.69" cy="92.69" r="92.69" stroke="none"/>
        <circle cx="92.69" cy="92.69" r="92.19" fill="none"/>
      </g>
      <path id="Path_6" data-name="Path 6" d="M184.081,55.229,150.252,33.463a1.454,1.454,0,0,0-1.573,2.445l33.334,21.447h-7.771L136.3,32.941h0a3.94,3.94,0,0,0-4.253,0L94.1,57.356H86.325l47.842-30.784,6.776,4.359a1.454,1.454,0,1,0,1.573-2.445l-6.776-4.359a2.91,2.91,0,0,0-3.143,0l-48.34,31.1a2.735,2.735,0,0,0,1.48,5.035H93.07v9.4a2.411,2.411,0,0,0,1.91,2.355v2.559a2.41,2.41,0,0,0,2.407,2.407h.2V94.8a1.454,1.454,0,1,0,2.907,0V75.53a1.454,1.454,0,0,0-1.454-1.454H97.888V72.07h10.3v2.006h-1.153a1.454,1.454,0,0,0-1.454,1.454v32.12a1.454,1.454,0,0,0,1.454,1.454h1.153v2.182h-10.3V109.1h1.153a1.454,1.454,0,0,0,1.454-1.454v-3.716a1.454,1.454,0,0,0-2.907,0V106.2h-.2A2.409,2.409,0,0,0,94.98,108.6v2.559a2.411,2.411,0,0,0-1.91,2.355v2.935H87.92a2.918,2.918,0,0,0-2.914,2.914v3.058a2.918,2.918,0,0,0,2.914,2.914h92.5a2.918,2.918,0,0,0,2.914-2.914v-3.058a2.918,2.918,0,0,0-2.914-2.914h-5.15v-2.935a2.411,2.411,0,0,0-1.91-2.355V108.6a2.41,2.41,0,0,0-2.407-2.407h-.2V76.984h.2a2.41,2.41,0,0,0,2.407-2.407V72.018a2.411,2.411,0,0,0,1.91-2.355v-9.4H182.6a2.735,2.735,0,0,0,1.48-5.034ZM133.616,35.387a1.026,1.026,0,0,1,1.107,0h0l34.146,21.969H99.47ZM124.2,66.728v2.935a2.411,2.411,0,0,0,1.91,2.355v2.559a2.41,2.41,0,0,0,2.407,2.407h.2V106.2h-.2a2.41,2.41,0,0,0-2.407,2.407v2.559a2.411,2.411,0,0,0-1.91,2.355v2.935H113v-2.935a2.411,2.411,0,0,0-1.91-2.355V108.6a2.41,2.41,0,0,0-2.407-2.407h-.2V76.984h.2a2.41,2.41,0,0,0,2.407-2.407V72.018A2.411,2.411,0,0,0,113,69.663V66.728Zm31.133,0v2.935a2.411,2.411,0,0,0,1.91,2.355v2.559a2.41,2.41,0,0,0,2.407,2.407h.2V106.2h-.2a2.41,2.41,0,0,0-2.407,2.407v2.559a2.411,2.411,0,0,0-1.91,2.355v2.935h-11.2v-2.935a2.411,2.411,0,0,0-1.91-2.355V108.6a2.41,2.41,0,0,0-2.407-2.407h-.2V76.984h.2a2.41,2.41,0,0,0,2.407-2.407V72.018a2.411,2.411,0,0,0,1.91-2.355V66.728Zm17.025,2.434H158.244V66.728h14.117v2.434ZM169.3,109.1h1.153v2.182h-10.3V109.1h1.153a1.454,1.454,0,0,0,1.454-1.454V75.53a1.454,1.454,0,0,0-1.454-1.454h-1.153V72.07h10.3v2.006H169.3a1.454,1.454,0,0,0-1.454,1.454v32.12A1.454,1.454,0,0,0,169.3,109.1ZM130.174,74.076h-1.153V72.07h10.3v2.006h-1.153a1.454,1.454,0,0,0-1.454,1.454v32.12a1.454,1.454,0,0,0,1.454,1.454h1.153v2.182h-10.3V109.1h1.153a1.454,1.454,0,0,0,1.454-1.454V75.53A1.454,1.454,0,0,0,130.174,74.076Zm-3.064,40.045a1.452,1.452,0,0,0,.45.072h13.2a1.451,1.451,0,0,0,.463-.077v2.335H127.111Zm14.117-44.959H127.111V66.728h14.117Zm-31.133,0H95.977V66.728h14.117v2.434ZM95.977,114.118a1.451,1.451,0,0,0,.457.074h13.2a1.45,1.45,0,0,0,.457-.074v2.333H95.977v-2.333Zm84.448,5.247,0,3.065h0l-92.505-.007.007-3.065Zm-22.182-2.914V114.12a1.449,1.449,0,0,0,.453.073h13.2a1.454,1.454,0,0,0,.461-.076v2.335ZM172.361,63.82H95.977V60.263h76.384V63.82Z" transform="translate(122.341 1036.444)" fill="#b89b5e"/>
    </g>
  </g>
</svg>
