<svg xmlns="http://www.w3.org/2000/svg" xmlns:xlink="http://www.w3.org/1999/xlink" width="200" height="200" viewBox="0 0 200 200">
  <defs>
    <clipPath id="clip-Artboard_2">
      <rect width="200" height="200"/>
    </clipPath>
  </defs>
  <g id="Artboard_2" data-name="Artboard – 2" clip-path="url(#clip-Artboard_2)">
    <rect width="200" height="200" fill="#fff"/>
    <g id="Group_122" data-name="Group 122" transform="translate(-585 -1011)">
      <g id="Ellipse_3" data-name="Ellipse 3" transform="translate(585 1011.279)" fill="none" stroke="#b89b5e" stroke-width="2">
        <circle cx="99.721" cy="99.721" r="99.721" stroke="none"/>
        <circle cx="99.721" cy="99.721" r="98.721" fill="none"/>
      </g>
      <g id="Ellipse_6" data-name="Ellipse 6" transform="translate(592.289 1018.569)" fill="none" stroke="#b89b5e" stroke-width="1">
        <circle cx="92.431" cy="92.431" r="92.431" stroke="none"/>
        <circle cx="92.431" cy="92.431" r="91.931" fill="none"/>
      </g>
      <path id="Path_3" data-name="Path 3" d="M97.011,132.083a1.508,1.508,0,0,0-2.92.754,23.413,23.413,0,0,1,.7,4.435H66.24A5.469,5.469,0,0,0,65,136.91c0-.034,0-.068,0-.1a19.052,19.052,0,0,0-8.742-16.014,23.268,23.268,0,0,1,7.754-4.351,7.841,7.841,0,0,0,14.732.012A23.464,23.464,0,0,1,92,127.543a1.508,1.508,0,0,0,2.651-1.44,26.507,26.507,0,0,0-4.312-5.851,12.316,12.316,0,0,0,3.591-4.741c3.944-8.391,3.934-24.421,1.16-31.66A25.381,25.381,0,0,0,54.644,73.837,1.508,1.508,0,1,0,56.633,76.1,22.371,22.371,0,0,1,92.279,84.93c2.513,6.559,2.512,21.669-1.074,29.3a8.5,8.5,0,0,1-3.158,3.929,26.433,26.433,0,0,0-8.72-4.686A18.5,18.5,0,0,0,89.854,96.8v-3.05A1.509,1.509,0,0,0,88.6,92.26c-7.465-1.283-12.63-8.858-12.68-8.933a1.522,1.522,0,0,0-2.65.269c-.035.087-3.7,8.643-18.852,8.643a1.508,1.508,0,0,0-1.508,1.508V96.8a18.5,18.5,0,0,0,10.514,16.667,26.22,26.22,0,0,0-8.709,4.691,8.493,8.493,0,0,1-3.155-3.927c-3.587-7.63-3.588-22.739-1.073-29.3a22.4,22.4,0,0,1,2.4-4.586,1.508,1.508,0,1,0-2.494-1.7,25.49,25.49,0,0,0-2.718,5.2c-2.775,7.238-2.785,23.269,1.161,31.659a15.341,15.341,0,0,0,1.665,2.8,18.967,18.967,0,0,0-4.1-.544,13.213,13.213,0,0,1,.033-4.152,1.508,1.508,0,0,0-2.945-.648,14.184,14.184,0,0,0-.207,3.88,6.428,6.428,0,0,1-2.847-3.95,1.508,1.508,0,0,0-2.974.495,9.419,9.419,0,0,0,3.064,5.16q-.7.21-1.382.471a26.322,26.322,0,0,0-9.721-5.551,18.615,18.615,0,0,0,7.679-6.838A5.493,5.493,0,0,0,44.1,98.585c3.936-11.427,2.2-18.12.009-21.741A13.852,13.852,0,0,0,33.886,70.3a13.046,13.046,0,0,0-7.138,1.063c-2.1-2.5-4.482-3.836-9.433-3.836-5.681,0-13.735,2.946-17.995,9.415-4.728,7.177-3.015,15.618-.549,21.714a5.466,5.466,0,0,0-.947,3.082,5.493,5.493,0,0,0,8.01,4.887,18.606,18.606,0,0,0,7.666,6.833,26.3,26.3,0,0,0-11.134,6.933,1.508,1.508,0,0,0,2.177,2.088,23.323,23.323,0,0,1,9.552-6.042,7.841,7.841,0,0,0,14.735.006,23.314,23.314,0,0,1,7.35,4.012,19.062,19.062,0,0,0-9.28,16.349c0,.034,0,.068,0,.1a5.475,5.475,0,0,0-1.239.36H-1.943a23.424,23.424,0,0,1,3.075-10.249,1.508,1.508,0,0,0-.552-2.059,1.508,1.508,0,0,0-2.06.553A26.458,26.458,0,0,0-5,138.72v.06A1.508,1.508,0,0,0-3.5,140.288h26.2a5.5,5.5,0,0,0,7.375,7.05,19.035,19.035,0,0,0,31.736,0,5.5,5.5,0,0,0,7.376-7.05H96.343a1.508,1.508,0,0,0,1.508-1.508v-.06a26.553,26.553,0,0,0-.84-6.637ZM39.606,104.225a2.446,2.446,0,0,1-1.116-.269,18.29,18.29,0,0,0,1.279-4.688,2.481,2.481,0,0,1-.163,4.957ZM1.839,78.605c3.646-5.537,10.578-8.059,15.477-8.059,4.783,0,6.142,1.375,7.812,3.64a1.514,1.514,0,0,0,2.052.358,9.936,9.936,0,0,1,6.3-1.253A10.894,10.894,0,0,1,41.531,78.4c2.538,4.2,2.549,10.467.052,18.208a5.5,5.5,0,0,0-1.648-.358V93.747a1.51,1.51,0,0,0-1.253-1.487C31.218,90.977,26.052,83.4,26,83.327a1.518,1.518,0,0,0-2.646.26A12.3,12.3,0,0,1,19.661,87.9c-3.673,2.841-8.915,4.342-15.16,4.342a1.508,1.508,0,0,0-1.508,1.508v2.508a5.45,5.45,0,0,0-1.768.406c-2.732-7.215-2.529-13.283.614-18.055Zm1.483,25.62a2.481,2.481,0,0,1-.164-4.957,18.309,18.309,0,0,0,1.277,4.685,2.454,2.454,0,0,1-1.113.272Zm2.724-6.4c0-.008,0-.015,0-.022-.022-.333-.036-.667-.036-1.005V95.228c11.438-.41,16.75-5.441,18.9-8.39,2.075,2.466,6.321,6.689,12.014,8.129V96.8c0,.338-.015.672-.036,1.005,0,.007,0,.015,0,.022a15.451,15.451,0,0,1-30.835,0Zm15.418,20.763a4.834,4.834,0,0,1-4.426-2.905,23.8,23.8,0,0,1,8.851,0,4.836,4.836,0,0,1-4.425,2.9Zm49.919,0a4.834,4.834,0,0,1-4.425-2.9,23.732,23.732,0,0,1,4.425-.415,23.483,23.483,0,0,1,4.422.423,4.835,4.835,0,0,1-4.422,2.9ZM55.928,96.8v-1.57c11.438-.409,16.751-5.441,18.9-8.389,2.075,2.465,6.321,6.689,12.014,8.129V96.8a15.455,15.455,0,1,1-30.91,0ZM27.81,144.816a2.481,2.481,0,0,1-.651-4.876,18.919,18.919,0,0,0,1.446,4.74,2.44,2.44,0,0,1-.795.135Zm18.142,8.028a16.036,16.036,0,1,1,16.036-16.035,16.053,16.053,0,0,1-16.036,16.035Zm18.142-8.028a2.435,2.435,0,0,1-.795-.135,18.884,18.884,0,0,0,1.445-4.74,2.481,2.481,0,0,1-.65,4.876Zm0,0" transform="translate(639.337 999.732)" fill="#b89b5e"/>
    </g>
  </g>
</svg>
