<svg xmlns="http://www.w3.org/2000/svg" xmlns:xlink="http://www.w3.org/1999/xlink" width="200" height="200" viewBox="0 0 200 200">
  <defs>
    <clipPath id="clip-Artboard_2">
      <rect width="200" height="200"/>
    </clipPath>
  </defs>
  <g id="Artboard_2" data-name="Artboard – 2" clip-path="url(#clip-Artboard_2)">
    <rect width="200" height="200" fill="#fff"/>
    <g id="Group_123" data-name="Group 123" transform="translate(-801 -1011.279)">
      <g id="Ellipse_10" data-name="Ellipse 10" transform="translate(808.281 1018.052)" fill="none" stroke="#b89b5e" stroke-width="1">
        <circle cx="92.319" cy="92.319" r="92.319" stroke="none"/>
        <circle cx="92.319" cy="92.319" r="91.819" fill="none"/>
      </g>
      <g id="Ellipse_4" data-name="Ellipse 4" transform="translate(801 1011.279)" fill="none" stroke="#b89b5e" stroke-width="2">
        <circle cx="99.6" cy="99.6" r="99.6" stroke="none"/>
        <circle cx="99.6" cy="99.6" r="98.6" fill="none"/>
      </g>
      <path id="Path_8" data-name="Path 8" d="M109.4,61.112c0-.034,0-.069-.005-.1,0-.017,0-.033,0-.05s-.008-.058-.013-.087-.007-.044-.011-.066-.011-.042-.016-.063-.015-.058-.024-.086-.011-.03-.017-.046c-.012-.033-.024-.066-.039-.1l0-.011L97.461,34.307h8.649a2.731,2.731,0,0,0,2.728-2.728v-3.62a2.731,2.731,0,0,0-2.728-2.728H92.191a9.379,9.379,0,0,1-6.9-2.994,16.893,16.893,0,0,0-12.316-5.2h-9.6V13.659a7.721,7.721,0,1,0-9.86,0v3.374h-9.6a16.893,16.893,0,0,0-12.317,5.2,9.377,9.377,0,0,1-6.9,2.994H10.772a2.731,2.731,0,0,0-2.728,2.728v3.62a2.731,2.731,0,0,0,2.728,2.728h8.619L7.61,60.5l0,.012c-.014.031-.025.063-.037.1-.006.016-.013.032-.018.048s-.016.055-.023.083-.012.044-.017.066-.007.042-.011.062-.01.06-.014.09,0,.032,0,.047c0,.035-.005.071-.005.106,0,0,0,.008,0,.012v1.49A13.751,13.751,0,0,0,21.212,76.349h1.175A13.751,13.751,0,0,0,36.123,62.614v-1.49s0-.009,0-.013c0-.034,0-.068-.005-.1,0-.017,0-.035,0-.052s-.008-.057-.013-.086-.007-.045-.012-.067-.011-.042-.016-.063-.015-.058-.024-.087-.011-.031-.017-.046c-.012-.033-.024-.066-.038-.1l0-.012L24.178,34.307h1.086A16.892,16.892,0,0,0,37.58,29.1a9.377,9.377,0,0,1,6.9-2.994h9.028V86.587H37.89a4.642,4.642,0,0,0-4.637,4.637v2.7H30.605a4.722,4.722,0,0,0-4.716,4.716v4.836a1.517,1.517,0,0,0,1.518,1.518H89.476a1.517,1.517,0,0,0,1.518-1.518V98.641a4.722,4.722,0,0,0-4.716-4.716H83.629v-2.7a4.642,4.642,0,0,0-4.637-4.637H63.371V42.719a1.518,1.518,0,0,0-3.035,0V86.587h-3.79V26.109h3.79v7.01a1.518,1.518,0,1,0,3.035,0v-7.01H73a8.151,8.151,0,0,1,5.832,2.511,18.391,18.391,0,0,0,13.359,5.687h.483L80.893,60.5l0,.01c-.015.033-.027.066-.039.1-.005.014-.011.029-.016.043s-.017.059-.025.089-.011.041-.016.061-.008.045-.012.067-.01.057-.013.086,0,.034,0,.051c0,.034,0,.069-.005.1,0,0,0,.008,0,.012v1.49A13.751,13.751,0,0,0,94.495,76.349H95.67a13.751,13.751,0,0,0,13.735-13.735v-1.49S109.4,61.116,109.4,61.112ZM58.441,3.035a4.684,4.684,0,0,1,2.515,8.637q-.086.055-.173.105l-.09.052q-.12.066-.244.125l-.087.04q-.1.044-.2.084l-.085.033c-.089.033-.179.064-.27.092l-.073.021q-.114.033-.23.06l-.078.018c-.1.021-.195.039-.293.054l-.049.006c-.086.012-.172.021-.258.028l-.082.006c-.1.007-.2.011-.306.011s-.2,0-.306-.011l-.082-.006c-.086-.007-.172-.016-.258-.028l-.049-.006c-.1-.015-.2-.033-.293-.054l-.078-.018q-.115-.027-.228-.059l-.074-.021q-.136-.042-.269-.091l-.087-.034q-.1-.039-.195-.083l-.09-.041q-.122-.058-.242-.124l-.094-.054q-.085-.049-.168-.1a4.684,4.684,0,0,1,2.513-8.639Zm1.9,12.173v1.825h-3.79V15.208l.075.016q.172.042.347.076l.115.021q.176.031.355.055l.082.01a7.77,7.77,0,0,0,.922.057c.161,0,.321-.007.479-.016h0c.147-.009.293-.023.438-.04l.086-.011q.176-.023.35-.054l.118-.021c.116-.023.232-.048.346-.076ZM22.387,73.315H21.212a10.712,10.712,0,0,1-10.7-10.673H33.088A10.712,10.712,0,0,1,22.387,73.315Zm9.869-13.708H11.34L21.785,36.383ZM78.992,89.622h0a1.6,1.6,0,0,1,1.6,1.6v2.7H48.91a1.518,1.518,0,0,0,0,3.035H86.277a1.683,1.683,0,0,1,1.681,1.681v3.319H28.924V98.641a1.683,1.683,0,0,1,1.681-1.681h8.613a1.518,1.518,0,1,0,0-3.035H36.288v-2.7a1.6,1.6,0,0,1,1.6-1.6h41.1Zm13.2-58.35a15.381,15.381,0,0,1-11.173-4.757A11.2,11.2,0,0,0,73,23.074H44.484a12.383,12.383,0,0,0-9.118,3.952,13.847,13.847,0,0,1-10.1,4.246H11.079V28.266H24.692a12.383,12.383,0,0,0,9.118-3.952,13.849,13.849,0,0,1,10.1-4.246H72.97a13.847,13.847,0,0,1,10.1,4.246,12.384,12.384,0,0,0,9.118,3.952H105.8v3.006Zm2.877,5.111,10.472,23.224H84.623Zm.6,36.932H94.495a10.712,10.712,0,0,1-10.7-10.673H106.37A10.712,10.712,0,0,1,95.67,73.315Z" transform="translate(842.667 1058.095)" fill="#b89b5e"/>
    </g>
  </g>
</svg>
