<svg xmlns="http://www.w3.org/2000/svg" xmlns:xlink="http://www.w3.org/1999/xlink" width="42" height="42" viewBox="0 0 42 42">
  <defs>
    <clipPath id="clip-Artboard_2">
      <rect width="42" height="42"/>
    </clipPath>
  </defs>
  <g id="Artboard_2" data-name="Artboard – 2" clip-path="url(#clip-Artboard_2)">
    <rect width="42" height="42" fill="#fff"/>
    <g id="Group_127" data-name="Group 127" transform="translate(-145.918 -152.216)">
      <path id="Path_62" data-name="Path 62" d="M187.888,246.4a3.592,3.592,0,0,0,2.46-.928l-11.91-11.91-.824.593q-1.337.985-2.17,1.536a13.355,13.355,0,0,1-2.217,1.126,6.754,6.754,0,0,1-2.581.575H170.6a6.752,6.752,0,0,1-2.581-.575,13.312,13.312,0,0,1-2.216-1.126q-.833-.55-2.17-1.536c-.248-.182-.524-.382-.822-.6L150.9,245.47a3.594,3.594,0,0,0,2.46.928Z" transform="translate(-3.723 -56.76)" fill="#848282"/>
      <path id="Path_63" data-name="Path 63" d="M150.128,198.583a12.412,12.412,0,0,1-2.37-2.041v18.121l10.5-10.5Q155.1,201.966,150.128,198.583Z" transform="translate(-1.393 -29.284)" fill="#848282"/>
      <path id="Path_64" data-name="Path 64" d="M274.561,198.583q-4.793,3.244-8.148,5.587l10.493,10.493V196.542A12.913,12.913,0,0,1,274.561,198.583Z" transform="translate(-89.472 -29.284)" fill="#848282"/>
      <path id="Path_65" data-name="Path 65" d="M184.165,157.092h-34.53a3.35,3.35,0,0,0-2.78,1.219,4.733,4.733,0,0,0-.973,3.05,5.483,5.483,0,0,0,1.29,3.2,11.634,11.634,0,0,0,2.745,2.709q.8.564,4.809,3.343c1.444,1,2.7,1.872,3.778,2.625.919.641,1.713,1.2,2.368,1.656l.35.249.647.466q.763.551,1.267.892t1.22.762a7.134,7.134,0,0,0,1.349.634,3.733,3.733,0,0,0,1.172.211h.047a3.732,3.732,0,0,0,1.173-.211,7.1,7.1,0,0,0,1.349-.634q.715-.422,1.22-.762t1.267-.892l.647-.466.351-.25,2.374-1.65,8.6-5.975a11.16,11.16,0,0,0,2.862-2.885,6.206,6.206,0,0,0,1.148-3.542,3.784,3.784,0,0,0-3.753-3.754Z" transform="translate(0 0)" fill="#848282"/>
    </g>
  </g>
</svg>
