<svg xmlns="http://www.w3.org/2000/svg" xmlns:xlink="http://www.w3.org/1999/xlink" width="42" height="42" viewBox="0 0 42 42">
  <defs>
    <clipPath id="clip-Artboard_2">
      <rect width="42" height="42"/>
    </clipPath>
  </defs>
  <g id="Artboard_2" data-name="Artboard – 2" clip-path="url(#clip-Artboard_2)">
    <rect width="42" height="42" fill="#fff"/>
    <g id="Group_126" data-name="Group 126" transform="translate(-1842.035 -342)">
      <path id="Path_66" data-name="Path 66" d="M1873.713,370.807l-5.749-2.873a1.587,1.587,0,0,1-.879-1.425v-2.033q.208-.256.432-.573a13.735,13.735,0,0,0,1.778-3.491,2.386,2.386,0,0,0,1.4-2.174v-2.41a2.4,2.4,0,0,0-.6-1.577v-3.2a5.4,5.4,0,0,0-1.258-3.925c-1.236-1.41-3.243-2.124-5.964-2.124s-4.724.714-5.96,2.124a5.379,5.379,0,0,0-1.258,3.925v3.2a2.4,2.4,0,0,0-.6,1.577v2.41a2.385,2.385,0,0,0,.9,1.868,12.592,12.592,0,0,0,2.106,4.354v1.992a1.589,1.589,0,0,1-.829,1.4l-5.367,2.929a5.424,5.424,0,0,0-2.83,4.765v1.948c0,2.856,9.052,3.611,13.837,3.611s13.841-.755,13.841-3.611v-1.83a5.4,5.4,0,0,0-3-4.854Zm1.8,6.684" transform="translate(0)" fill="#848282"/>
    </g>
  </g>
</svg>
