<svg xmlns="http://www.w3.org/2000/svg" xmlns:xlink="http://www.w3.org/1999/xlink" viewBox="0 0 616.9 474.94"><defs><style>.cls-1{isolation:isolate;}.cls-2{fill:url(#linear-gradient);}.cls-3{fill:#f4c74a;}.cls-4{opacity:0.4;font-size:22.58px;fill:#4d4d4d;}.cls-34,.cls-4{font-family:SpicyRice-Regular, Spicy Rice;}.cls-5,.cls-6,.cls-8{fill:#fff;}.cls-5,.cls-6{opacity:0.3;}.cls-6{stroke:#fff;}.cls-15,.cls-6{stroke-miterlimit:10;}.cls-7{fill:#ffcb9c;}.cls-9{fill:#4b1568;}.cls-10{fill:#1b364f;}.cls-11,.cls-37{fill:#274f6d;}.cls-11{opacity:0.38;}.cls-12{fill:#ed83ac;}.cls-13{fill:#ff6252;}.cls-14{fill:#1d1d1b;}.cls-15{fill:none;stroke:#1d1d1b;}.cls-16{fill:#283560;}.cls-17{fill:#ff7d7d;}.cls-18{fill:#162d3f;}.cls-19{fill:#7fefba;opacity:0.68;mix-blend-mode:multiply;}.cls-20{fill:#36a9e1;}.cls-21{fill:#dadada;}.cls-22,.cls-29{fill:#ededed;}.cls-22{opacity:0.22;}.cls-23{fill:#e2a65d;}.cls-24{fill:#eab46c;}.cls-25{fill:#ffea94;}.cls-26{fill:#f9c485;}.cls-27{fill:#b2b2b2;}.cls-28{fill:#f99;}.cls-30{fill:#ffcfc5;}.cls-31{fill:#ffa399;}.cls-32{fill:#ce3e3e;}.cls-33{opacity:0.31;fill:url(#Degradado_sin_nombre_2);}.cls-34{font-size:90.31px;fill:#fbb03b;}.cls-35{fill:#ffb5a9;}.cls-36{fill:#122f44;}.cls-37{opacity:0.39;}.cls-38{fill:#ff7676;}.cls-39{fill:#161616;}.cls-40{fill:#cc534e;}.cls-41{fill:#65c5ef;opacity:0.5;}</style><linearGradient id="linear-gradient" x1="411.34" y1="622.53" x2="409.98" y2="46.28" gradientUnits="userSpaceOnUse"><stop offset="0.1" stop-color="#4a69bd"/><stop offset="0.35" stop-color="#368baf"/><stop offset="0.6" stop-color="#27a6a5"/><stop offset="0.82" stop-color="#1db69e"/><stop offset="1" stop-color="#1abc9c"/></linearGradient><linearGradient id="Degradado_sin_nombre_2" x1="246.98" y1="-16208.97" x2="246.98" y2="-16125.77" gradientTransform="matrix(1, 0, 0, -1, -82.09, -15963)" gradientUnits="userSpaceOnUse"><stop offset="0.22" stop-color="#fff" stop-opacity="0"/><stop offset="1" stop-color="#fff"/></linearGradient></defs><title>ABOUT US</title><g class="cls-1"><g id="Layer_1" data-name="Layer 1"><path class="cls-2" d="M699,419.13c0,121.32-167.78,156.81-303.93,156.81-142.2,0-272.31-10.72-272.31-149.71S216.08,101,358.28,101,699,333.31,699,419.13Z" transform="translate(-82.09 -101)"/><path class="cls-3" d="M122.75,426.23c0-138.28,92.39-323.33,233.37-325.21l-1.71,0C166,101,82.09,292.93,82.09,429.18S212.21,575.94,354.41,575.94q7.47,0,15.07-.14C237.63,574.18,122.75,556.83,122.75,426.23Z" transform="translate(-82.09 -101)"/><text class="cls-4" transform="matrix(3.95, 0, 0, -1, 96.16, 428.83)">ABOUT US</text><path id="_Path_" data-name="&lt;Path&gt;" class="cls-5" d="M332.81,147.5h60.41s-3-7.35-6.8-7.65-4.83,2-6,1.76-3.17-6.26-8-6.56-6.72,4.2-9.36,5-7.85.36-11.93-6.21-11.81.55-12,5.61c-.3,7.78-12.16,3.52-12.16,8Z" transform="translate(-82.09 -101)"/><path id="_Path_2" data-name="&lt;Path&gt;" class="cls-5" d="M219.91,223.32h60.41s-3-7.35-6.8-7.65-4.83,2-6,1.76-3.17-6.26-8-6.56-6.72,4.2-9.36,5-7.85.36-11.93-6.21-11.81.55-12,5.61c-.3,7.78-12.16,3.52-12.16,8Z" transform="translate(-82.09 -101)"/><path id="_Path_3" data-name="&lt;Path&gt;" class="cls-6" d="M579.28,271.59H518.88s3-7.54,6.8-7.84,4.83,1.89,6,1.67,3.17-6.3,8-6.6,6.72,4.17,9.36,5,7.85.35,11.93-6.22,11.81.73,12,5.79c.3,7.78,12.16,3.7,12.16,8.21Z" transform="translate(-82.09 -101)"/><g id="_Group_" data-name="&lt;Group&gt;"><g id="_Group_2" data-name="&lt;Group&gt;"><path id="_Path_4" data-name="&lt;Path&gt;" class="cls-7" d="M366,395.6l-36.39-18.92-2.45,1.76,32,26.52s1.63-4.59,2.36-5.23l.47-.4c.76-.59,1.22-1,1.93-1.45.2-.13.36-.33.56-.48A6.19,6.19,0,0,0,366,395.6Z" transform="translate(-82.09 -101)"/><path id="_Path_5" data-name="&lt;Path&gt;" class="cls-7" d="M326.61,372.76s-6.45-7.48-7.26-7.86-1.29.61-.11,1.84,4.42,5.24,4.42,5.24-6-5.81-6.6-5.76-.93.83,0,1.54,4.7,4.82,4.7,4.82a47.38,47.38,0,0,0-4.88-3.34c-1-.39-.39,1,.5,1.61s4.14,3.14,4.14,3.14-3.53-1.32-4.13-1.18-.38.61,0,.85,4.47,1.7,4.47,1.7,2.51,3.21,5.16,3.09,3-1.64,2.88-2-2.71-7.52-3.47-8.39-1.68.41-.85,2.1S327.21,372.83,326.61,372.76Z" transform="translate(-82.09 -101)"/></g><g id="_Group_3" data-name="&lt;Group&gt;"><polygon id="_Path_6" data-name="&lt;Path&gt;" class="cls-8" points="288.06 415.46 289.46 421.99 293.46 421.49 293.46 413.97 288.06 415.46"/><path id="_Path_7" data-name="&lt;Path&gt;" d="M375.51,522s2.39,2.76,1.44,5.19-18.15.63-18.15.63-.63-.39.48-.86l8-3s3.39-1.83,5.14-1.55A6.39,6.39,0,0,0,375.51,522Z" transform="translate(-82.09 -101)"/></g><g id="_Group_4" data-name="&lt;Group&gt;"><polygon id="_Path_8" data-name="&lt;Path&gt;" class="cls-8" points="307.64 415.46 306.24 421.99 302.24 421.49 302.24 413.97 307.64 415.46"/><path id="_Path_9" data-name="&lt;Path&gt;" d="M384.38,522s-2.39,2.76-1.44,5.19,18.15.63,18.15.63.63-.39-.48-.86l-8-3s-3.39-1.83-5.14-1.55A6.39,6.39,0,0,1,384.38,522Z" transform="translate(-82.09 -101)"/></g><path id="_Path_10" data-name="&lt;Path&gt;" class="cls-9" d="M356.88,457.54s-11.09,7.64-2.14,10,32.53-2.55,32.53-2.55Z" transform="translate(-82.09 -101)"/><path id="_Path_11" data-name="&lt;Path&gt;" class="cls-10" d="M354.11,447.65s5,47.31,15.34,71.14h7.85l1.35-41,4.15,41h8s13.22-30.9,8.79-67.85S354.11,447.65,354.11,447.65Z" transform="translate(-82.09 -101)"/><path id="_Path_12" data-name="&lt;Path&gt;" class="cls-11" d="M355.85,460.29s4.33-4.44,9.73.64S365,473,367,478.86s.53,12.33-5.63,13.28A216.2,216.2,0,0,1,355.85,460.29Z" transform="translate(-82.09 -101)"/><path id="_Path_13" data-name="&lt;Path&gt;" class="cls-11" d="M400.36,472.78s-5.57-4.15-12.08,1.25,0,14.32,3.48,17.82-2.31,11.1,3.56,12.71A132.29,132.29,0,0,0,400.36,472.78Z" transform="translate(-82.09 -101)"/><path id="_Path_14" data-name="&lt;Path&gt;" class="cls-12" d="M359.61,413.81l-12.85-12.56,7.35-13,36.44,10.6,1.44,7.12-.21,6h0a38.06,38.06,0,0,1,6.25,7.94c8.93,14.86,6.82,42.19,6.82,42.19s-12.62,11.05-25.88,3-27.5,0-27.5,0c-5-20.18,2.91-41.87,2.91-41.87A31.94,31.94,0,0,1,359.61,413.81Z" transform="translate(-82.09 -101)"/><path id="_Path_15" data-name="&lt;Path&gt;" class="cls-12" d="M381.34,397.89s21.32-2.06,32,20.21l-13.93,8Z" transform="translate(-82.09 -101)"/><path id="_Path_16" data-name="&lt;Path&gt;" class="cls-7" d="M373.72,380.79c-.9,4.2-.91,8.24,3.74,12.59a17.1,17.1,0,0,0,1.81,1.43c.76.54,2.06,2,.36,5.45-2.26,4.55,11,7.58,10.73.44s4.5-10.71,8-14.44,4.86-13.07.14-17.44c-1.85-1.72-7.35-2.57-11.28-1.76A18,18,0,0,0,373.72,380.79Z" transform="translate(-82.09 -101)"/><polygon id="_Path_17" data-name="&lt;Path&gt;" class="cls-13" points="304.39 272.48 298.72 279.79 303.64 282.12 304.39 272.48"/><path id="_Path_18" data-name="&lt;Path&gt;" class="cls-7" d="M398.8,380.84s3.75-2.34,4.17,2.84-4.34,5-5.34,3.58S398.8,380.84,398.8,380.84Z" transform="translate(-82.09 -101)"/><g id="_Group_5" data-name="&lt;Group&gt;"><circle id="_Path_19" data-name="&lt;Path&gt;" class="cls-14" cx="372.95" cy="384.86" r="3.29" transform="translate(-161.65 570.99) rotate(-78.3)"/><circle id="_Path_20" data-name="&lt;Path&gt;" class="cls-14" cx="373.9" cy="380.29" r="2.82" transform="translate(-156.42 568.28) rotate(-78.3)"/><circle id="_Path_21" data-name="&lt;Path&gt;" class="cls-14" cx="374.75" cy="376.17" r="1.94" transform="translate(-151.71 565.83) rotate(-78.3)"/><circle id="_Path_22" data-name="&lt;Path&gt;" class="cls-14" cx="396.19" cy="384.91" r="2.82" transform="translate(-143.18 593.78) rotate(-78.3)"/><circle id="_Path_23" data-name="&lt;Path&gt;" class="cls-14" cx="397.04" cy="380.79" r="1.94" transform="translate(-138.46 591.34) rotate(-78.3)"/><circle id="_Path_24" data-name="&lt;Path&gt;" class="cls-14" cx="375.06" cy="384.21" r="2.82" transform="translate(-159.34 572.54) rotate(-78.3)"/><circle id="_Path_25" data-name="&lt;Path&gt;" class="cls-14" cx="378.67" cy="386.04" r="3.29" transform="translate(-158.25 577.53) rotate(-78.3)"/><circle id="_Path_26" data-name="&lt;Path&gt;" class="cls-14" cx="384.1" cy="387.17" r="3.29" transform="translate(-155.02 583.75) rotate(-78.3)"/><circle id="_Path_27" data-name="&lt;Path&gt;" class="cls-14" cx="390.54" cy="388.5" r="3.29" transform="translate(-151.19 591.13) rotate(-78.3)"/><circle id="_Path_28" data-name="&lt;Path&gt;" class="cls-14" cx="391.35" cy="392.03" r="3.29" transform="translate(-154.01 594.73) rotate(-78.3)"/><circle id="_Path_29" data-name="&lt;Path&gt;" class="cls-14" cx="373.36" cy="390.11" r="3.29" transform="translate(-166.46 575.58) rotate(-78.3)"/><circle id="_Path_30" data-name="&lt;Path&gt;" class="cls-14" cx="374.97" cy="394.64" r="3.29" transform="translate(-169.62 580.77) rotate(-78.3)"/><circle id="_Path_31" data-name="&lt;Path&gt;" class="cls-14" cx="379.36" cy="398.91" r="3.29" transform="translate(-170.3 588.48) rotate(-78.3)"/><circle id="_Path_32" data-name="&lt;Path&gt;" class="cls-14" cx="384.79" cy="400.04" r="3.29" transform="matrix(0.2, -0.98, 0.98, 0.2, -167.07, 594.69)"/><circle id="_Path_33" data-name="&lt;Path&gt;" class="cls-14" cx="390.16" cy="397.79" r="3.29" transform="translate(-160.6 598.15) rotate(-78.3)"/><circle id="_Path_34" data-name="&lt;Path&gt;" class="cls-14" cx="386.48" cy="394.79" r="3.29" transform="translate(-160.59 592.16) rotate(-78.3)"/><circle id="_Path_35" data-name="&lt;Path&gt;" class="cls-14" cx="386.8" cy="390.37" r="3.29" transform="translate(-156.01 588.95) rotate(-78.3)"/><circle id="_Path_36" data-name="&lt;Path&gt;" class="cls-14" cx="381.41" cy="395.98" r="3.29" transform="translate(-165.79 588.14) rotate(-78.3)"/><circle id="_Path_37" data-name="&lt;Path&gt;" class="cls-14" cx="382.42" cy="391.11" r="3.29" transform="translate(-160.23 585.25) rotate(-78.3)"/><circle id="_Path_38" data-name="&lt;Path&gt;" class="cls-14" cx="376.86" cy="389.44" r="3.29" transform="translate(-163.01 578.47) rotate(-78.3)"/><circle id="_Path_39" data-name="&lt;Path&gt;" class="cls-14" cx="378.64" cy="393.17" r="3.29" transform="translate(-165.25 583.18) rotate(-78.3)"/><circle id="_Path_40" data-name="&lt;Path&gt;" class="cls-14" cx="395.3" cy="389.17" r="3.29" transform="translate(-148.05 596.32) rotate(-78.3)"/><path id="_Path_41" data-name="&lt;Path&gt;" class="cls-8" d="M376.12,389.65a2.5,2.5,0,0,1-.18-2.89,2.27,2.27,0,0,1,2-1c2.62,0,3.8,3.5,7.69,2.68s3.19,3.41,0,4C382.82,393,378.5,392.68,376.12,389.65Z" transform="translate(-82.09 -101)"/><circle id="_Path_42" data-name="&lt;Path&gt;" class="cls-14" cx="393.76" cy="394.33" r="3.29" transform="matrix(0.2, -0.98, 0.98, 0.2, -154.34, 598.92)"/></g><ellipse id="_Path_43" data-name="&lt;Path&gt;" class="cls-14" cx="390.23" cy="377.43" rx="1.68" ry="0.93" transform="translate(-190.36 491.44) rotate(-67.38)"/><ellipse id="_Path_44" data-name="&lt;Path&gt;" class="cls-14" cx="382.42" cy="374.23" rx="1.68" ry="0.93" transform="translate(-192.22 482.27) rotate(-67.38)"/><path id="_Path_45" data-name="&lt;Path&gt;" class="cls-7" d="M411.3,419.29s3.1,8.18-4.14,17.58c-5.35,7-22.69,4.91-26.51-8.92l2.95-2.75s3.9,4.67,8.33,6.07c2.84.9,10,1.13,8.68-5.94-.09-.49.14.47,0,0Z" transform="translate(-82.09 -101)"/><rect id="_Rectangle_" data-name="&lt;Rectangle&gt;" class="cls-15" x="387.34" y="375" width="6.42" height="5.94" rx="1.63" ry="1.63" transform="translate(506.95 782.92) rotate(-155.48)"/><rect id="_Rectangle_2" data-name="&lt;Rectangle&gt;" class="cls-15" x="378.21" y="370.51" width="6.42" height="5.94" rx="1.63" ry="1.63" transform="translate(491.37 770.56) rotate(-155.48)"/><line id="_Path_46" data-name="&lt;Path&gt;" class="cls-15" x1="306.43" y1="273.68" x2="302.95" y2="272.25"/><line id="_Path_47" data-name="&lt;Path&gt;" class="cls-15" x1="312.26" y1="276.34" x2="319.08" y2="279.29"/><g id="_Group_6" data-name="&lt;Group&gt;"><g id="_Group_7" data-name="&lt;Group&gt;"><path id="_Path_48" data-name="&lt;Path&gt;" class="cls-16" d="M377.59,426.08h0a1.37,1.37,0,0,1-.84-1.74l37.37-107.69a1.37,1.37,0,0,1,1.74-.84h0a1.37,1.37,0,0,1,.84,1.74L379.32,425.24A1.37,1.37,0,0,1,377.59,426.08Z" transform="translate(-82.09 -101)"/></g><g id="_Group_8" data-name="&lt;Group&gt;"><g id="_Group_9" data-name="&lt;Group&gt;"><path id="_Path_49" data-name="&lt;Path&gt;" class="cls-3" d="M348.83,353.12a10,10,0,0,1,6.51,7.29,9.92,9.92,0,0,1,16.11,5.46,9.92,9.92,0,0,1,16.11,5.46,9.92,9.92,0,0,1,16.11,5.46,9.92,9.92,0,0,1,16.11,5.46,9.92,9.92,0,0,1,16.11,5.46A9.92,9.92,0,0,1,452,393.27,59.6,59.6,0,0,0,339.15,355,10,10,0,0,1,348.83,353.12Z" transform="translate(-82.09 -101)"/></g><g id="_Group_10" data-name="&lt;Group&gt;"><path id="_Path_50" data-name="&lt;Path&gt;" class="cls-8" d="M408.47,316.78s-32.88-1.19-53.14,43.63c0,0-4.35-13-16.19-5.39C339.15,355,354.19,305.92,408.47,316.78Z" transform="translate(-82.09 -101)"/></g><g id="_Group_11" data-name="&lt;Group&gt;"><path id="_Path_51" data-name="&lt;Path&gt;" class="cls-8" d="M418.44,320s27.64,19.9,17.4,68c0,0,11.23-7.93,16.24,5.24C452.08,393.2,469.37,343,418.44,320Z" transform="translate(-82.09 -101)"/></g><g id="_Group_12" data-name="&lt;Group&gt;"><path id="_Path_52" data-name="&lt;Path&gt;" class="cls-8" d="M413.07,318s-23.07,6.22-32,46a11.33,11.33,0,0,1,6.51,7.29s4.15-3.39,9.18-2a10.15,10.15,0,0,1,6.93,7.42s5-3.46,9.6-1.83C413.28,375,429.12,342,413.07,318Z" transform="translate(-82.09 -101)"/></g></g></g><path id="_Path_53" data-name="&lt;Path&gt;" class="cls-7" d="M374.77,424.61a.47.47,0,0,1,.51-.38l1,.12-1-.48a.53.53,0,0,1-.3-.55h0a.53.53,0,0,1,.68-.43,6.13,6.13,0,0,0,.72.18l-.61-.42a.77.77,0,0,1-.46-.77h0a.8.8,0,0,1,1.14-.47l1,.54-1.32-.93a.79.79,0,0,1-.3-.89h0a.79.79,0,0,1,1.14-.43c1.41.82,3.27,2,3.27,2,.24.07.72,1.19.42,1l.33-1.8c1,1.45,2.32,3.72,2.42,3.87s.69,2.84-1.39,3.41-5.17-2.79-5.17-2.79l-1.68-.21a.47.47,0,0,1-.4-.55Z" transform="translate(-82.09 -101)"/><path id="_Path_54" data-name="&lt;Path&gt;" class="cls-7" d="M381.28,419.59a16.8,16.8,0,0,0,1.08,3.48l-2.5-.32Z" transform="translate(-82.09 -101)"/></g><path id="_Path_55" data-name="&lt;Path&gt;" class="cls-17" d="M165.94,349.18S164,351,167.78,354.4s2.37-5.21,2.37-5.21l-3.18-.95Z" transform="translate(-82.09 -101)"/><path id="_Path_56" data-name="&lt;Path&gt;" class="cls-10" d="M210.37,375.42a41.94,41.94,0,0,0-19.2-12.36c-7.69-2.31-17.16-13.47-17.16-13.47s-12.17,1.37-8,15.18,1.12,15.63-.62,19.7c-1.35,3.17-3.11,9.42-4.6,12.63a.76.76,0,0,0-.07.33,2.59,2.59,0,0,0,.32,1.45,2.39,2.39,0,0,0,.68.8h0s2.82,2.24,3.32,1.87c3.86-2.84,12.71-13.2,13.93-14.55,1.48-1.64,3.42-13.23,3.42-13.23a35,35,0,0,0,13.08,5.75s-5.43,6-7.67,7.27l-3.48,2a33.23,33.23,0,0,1,1,3.59c4.88-1,16.82-5.74,21.52-8.46a14.9,14.9,0,0,0,3.49-2.62S210.43,375.48,210.37,375.42Z" transform="translate(-82.09 -101)"/><path class="cls-18" d="M191.17,363.06a27.45,27.45,0,0,1-8.69-5.18v15.94a35,35,0,0,0,13,5.7s-5.43,6-7.67,7.27l-3.48,2a33.22,33.22,0,0,1,1,3.59c4.88-1,16.82-5.74,21.52-8.46a14.9,14.9,0,0,0,3.49-2.62s.05-5.78,0-5.84A41.94,41.94,0,0,0,191.17,363.06Z" transform="translate(-82.09 -101)"/><ellipse id="_Path_57" data-name="&lt;Path&gt;" class="cls-19" cx="165.08" cy="306.65" rx="88.38" ry="4.19"/><g id="_Group_13" data-name="&lt;Group&gt;"><g id="_Group_14" data-name="&lt;Group&gt;"><g id="_Group_15" data-name="&lt;Group&gt;"><rect id="_Rectangle_3" data-name="&lt;Rectangle&gt;" class="cls-8" x="264.51" y="325.84" width="14.02" height="25.54" rx="5.27" ry="5.27" transform="translate(72.26 -180.3) rotate(23.06)"/><rect id="_Rectangle_4" data-name="&lt;Rectangle&gt;" class="cls-20" x="265.09" y="328.8" width="13.06" height="19.16" transform="translate(72.17 -180.36) rotate(23.06)"/><path id="_Path_58" data-name="&lt;Path&gt;" class="cls-21" d="M276.85,329.18,274.18,328a.18.18,0,0,1-.1-.24h0a.18.18,0,0,1,.24-.1l2.67,1.14a.18.18,0,0,1,.1.24h0A.18.18,0,0,1,276.85,329.18Z" transform="translate(-82.09 -101)"/><circle id="_Path_59" data-name="&lt;Path&gt;" class="cls-21" cx="267.17" cy="348.81" r="1.13" transform="translate(-240.52 356.99) rotate(-66.94)"/><polygon id="_Path_60" data-name="&lt;Path&gt;" class="cls-22" points="187.27 226.01 191.78 248.75 199.28 231.12 187.27 226.01"/></g><g id="_Group_16" data-name="&lt;Group&gt;"><rect id="_Rectangle_5" data-name="&lt;Rectangle&gt;" class="cls-8" x="220.62" y="306.48" width="25.06" height="37.73" rx="8.19" ry="8.19" transform="translate(-166.42 -19.41) rotate(-16.86)"/><rect id="_Rectangle_6" data-name="&lt;Rectangle&gt;" class="cls-20" x="221.47" y="310.47" width="23.71" height="30.26" transform="translate(-166.49 -19.34) rotate(-16.86)"/><circle id="_Path_61" data-name="&lt;Path&gt;" class="cls-21" cx="238.23" cy="341.77" r="1.13" transform="translate(-170.97 -17.23) rotate(-16.86)"/><path id="_Path_62" data-name="&lt;Path&gt;" class="cls-21" d="M229.68,308.89l-2.78.84a.18.18,0,0,1-.22-.12h0a.18.18,0,0,1,.12-.22l2.78-.84a.18.18,0,0,1,.22.12h0A.18.18,0,0,1,229.68,308.89Z" transform="translate(-82.09 -101)"/><polygon id="_Path_63" data-name="&lt;Path&gt;" class="cls-22" points="135.5 213.56 166.97 235.65 158.19 206.69 135.5 213.56"/></g><rect id="_Rectangle_7" data-name="&lt;Rectangle&gt;" class="cls-23" x="128.28" y="245.97" width="57.6" height="59.45"/><rect id="_Rectangle_8" data-name="&lt;Rectangle&gt;" class="cls-24" x="146.46" y="245.97" width="57.6" height="59.45"/><rect id="_Rectangle_9" data-name="&lt;Rectangle&gt;" class="cls-25" x="170.26" y="245.97" width="8.96" height="59.45"/><polygon id="_Path_64" data-name="&lt;Path&gt;" class="cls-26" points="212.51 265.04 154.91 265.04 146.46 245.97 204.06 245.97 212.51 265.04"/><polygon id="_Path_65" data-name="&lt;Path&gt;" class="cls-26" points="118.55 265.04 138.01 265.04 146.46 245.97 127 245.97 118.55 265.04"/><g id="_Group_17" data-name="&lt;Group&gt;"><g id="_Group_18" data-name="&lt;Group&gt;"><path id="_Path_66" data-name="&lt;Path&gt;" class="cls-27" d="M277,304.36l-1.78-.42L278,292a16.56,16.56,0,1,0-32.21-7.69l-2.85,12-1.78-.42,2.85-12a18.38,18.38,0,1,1,35.76,8.53Z" transform="translate(-82.09 -101)"/></g><g id="_Group_19" data-name="&lt;Group&gt;"><path id="_Path_67" data-name="&lt;Path&gt;" class="cls-8" d="M248.5,307.19A8.83,8.83,0,0,1,252.6,290" transform="translate(-82.09 -101)"/></g><g id="_Group_20" data-name="&lt;Group&gt;"><path id="_Path_68" data-name="&lt;Path&gt;" class="cls-28" d="M248.28,308.47h0a1.45,1.45,0,0,1-1.07-1.74l3.94-16.51a1.45,1.45,0,0,1,1.74-1.07h0a1.45,1.45,0,0,1,1.07,1.74L250,307.4A1.45,1.45,0,0,1,248.28,308.47Z" transform="translate(-82.09 -101)"/></g><g id="_Group_21" data-name="&lt;Group&gt;"><circle id="_Path_69" data-name="&lt;Path&gt;" class="cls-8" cx="242.33" cy="295.86" r="2.06" transform="translate(-183.8 361.89) rotate(-76.58)"/></g><g id="_Group_22" data-name="&lt;Group&gt;"><path id="_Path_70" data-name="&lt;Path&gt;" class="cls-8" d="M264.73,311.07a8.83,8.83,0,0,0,4.1-17.17" transform="translate(-82.09 -101)"/></g><g id="_Group_23" data-name="&lt;Group&gt;"><path id="_Path_71" data-name="&lt;Path&gt;" class="cls-28" d="M264.35,312.31h0a1.45,1.45,0,0,0,1.74-1.07L270,294.72A1.45,1.45,0,0,0,269,293h0a1.45,1.45,0,0,0-1.74,1.07l-3.94,16.51A1.45,1.45,0,0,0,264.35,312.31Z" transform="translate(-82.09 -101)"/></g><g id="_Group_24" data-name="&lt;Group&gt;"><circle id="_Path_72" data-name="&lt;Path&gt;" class="cls-8" cx="275.35" cy="303.74" r="2.06" transform="translate(-166.11 400.06) rotate(-76.58)"/></g></g><g id="_Group_25" data-name="&lt;Group&gt;"><rect id="_Rectangle_10" data-name="&lt;Rectangle&gt;" class="cls-27" x="227.23" y="282.85" width="3.55" height="3.85" transform="translate(69.95 -173.46) rotate(26.65)"/><path id="_Path_73" data-name="&lt;Path&gt;" class="cls-8" d="M223.75,295.23h0a2.6,2.6,0,0,1-1.16-3.49l3.35-6.68,4.65,2.34-3.35,6.68A2.6,2.6,0,0,1,223.75,295.23Z" transform="translate(-82.09 -101)"/><path id="_Path_74" data-name="&lt;Path&gt;" class="cls-28" d="M224.78,293.2h0a1.18,1.18,0,0,1-.53-1.59l2.16-4.31,2.12,1.06-2.16,4.31A1.18,1.18,0,0,1,224.78,293.2Z" transform="translate(-82.09 -101)"/></g><g id="_Group_26" data-name="&lt;Group&gt;"><rect id="_Rectangle_11" data-name="&lt;Rectangle&gt;" class="cls-27" x="228.97" y="304.92" width="1.59" height="0.71" transform="translate(-159.61 -22.79) rotate(-16.57)"/><g id="_Group_27" data-name="&lt;Group&gt;"><g id="_Group_28" data-name="&lt;Group&gt;"><path id="_Path_75" data-name="&lt;Path&gt;" class="cls-8" d="M249,256.06h0a5.33,5.33,0,0,1-.92,7.46l-4.14,3.23a5.33,5.33,0,0,1-7.46-.92h0a5.33,5.33,0,0,1,.92-7.46l4.14-3.23A5.33,5.33,0,0,1,249,256.06Z" transform="translate(-82.09 -101)"/></g><g id="_Group_29" data-name="&lt;Group&gt;"><rect id="_Path_76" data-name="&lt;Path&gt;" class="cls-29" x="240.24" y="257.45" width="0.26" height="10.61" transform="translate(-192.87 102.5) rotate(-37.97)"/></g><g id="_Group_30" data-name="&lt;Group&gt;"><rect id="_Path_77" data-name="&lt;Path&gt;" class="cls-29" x="235.91" y="264.16" width="4.99" height="0.26" transform="translate(-194.25 101.69) rotate(-37.98)"/></g></g><g id="_Group_31" data-name="&lt;Group&gt;"><path id="_Path_78" data-name="&lt;Path&gt;" class="cls-8" d="M229.26,304.41s-1.76-4.65,3.8-10.21c5.87-5.88,5.4-14.73,2.48-20.46-3.22-6.31,1.35-9.16,1.4-9.19l.13.22c-.18.11-4.41,2.77-1.31,8.86,3,5.81,3.44,14.78-2.53,20.76-5.44,5.45-3.76,9.89-3.74,9.93Z" transform="translate(-82.09 -101)"/></g><rect id="_Rectangle_12" data-name="&lt;Rectangle&gt;" class="cls-8" x="228.52" y="303.61" width="1.92" height="1.58" transform="translate(-161.2 -20.41) rotate(-17.04)"/></g></g></g><path id="_Path_79" data-name="&lt;Path&gt;" class="cls-30" d="M203.94,335.62c.64,1.79,1.56,3.56,3.62,4.24a.92.92,0,0,0,1-.38c.72-1,.64-1.1,1.38-1.52,1.52-.87,4.06,2.33,7.33,2s10.81-7.47,8.63-12.37-6.56-7.17-12.18-2.3c-4.86,4.21-6,5.84-8.9,7.49A2.63,2.63,0,0,0,203.94,335.62Z" transform="translate(-82.09 -101)"/><path id="_Path_80" data-name="&lt;Path&gt;" class="cls-31" d="M219.8,346.35l-1.5-2.46-17.31.3h0a3.76,3.76,0,0,0-3.16,3.61,3.33,3.33,0,0,0,3.18,3.32c.09,0,1.28-.26,1.37-.27l-1.1.26,1.28-.29a2.34,2.34,0,0,0,.36-.09Z" transform="translate(-82.09 -101)"/><g id="_Group_32" data-name="&lt;Group&gt;"><path id="_Path_81" data-name="&lt;Path&gt;" class="cls-8" d="M185.06,389.41l-2.57.77a2.85,2.85,0,0,0-.72,2.75l.64.92,4.6-2.69Z" transform="translate(-82.09 -101)"/><path id="_Path_82" data-name="&lt;Path&gt;" d="M182.49,390.18s-2.08-1-3.42-.07,2.45,11.29,2.45,11.29.34.33.45-.43l.57-5.41s.6-2.38.15-3.41A4.06,4.06,0,0,1,182.49,390.18Z" transform="translate(-82.09 -101)"/></g><g id="_Group_33" data-name="&lt;Group&gt;"><path id="_Path_83" data-name="&lt;Path&gt;" class="cls-8" d="M161.92,397.66l-1.63,4.19c-.15.68,1.53,2,2.22,2.13l1.11.19,1.29-5.17Z" transform="translate(-82.09 -101)"/><path id="_Path_84" data-name="&lt;Path&gt;" d="M160.29,401.73s-1.79,1.48-1.45,3.1,11.31,2.33,11.31,2.33.44-.18-.21-.59l-4.72-2.71s-1.93-1.51-3.06-1.52A4.06,4.06,0,0,1,160.29,401.73Z" transform="translate(-82.09 -101)"/></g><path id="_Path_85" data-name="&lt;Path&gt;" class="cls-28" d="M195.73,331.41c-8.28.76-22.24,2.9-30.28,18.51,0,0,6.52,1.54,15.92,9.61s16.22,5,20.33.87c3-3,5.54-10.12,7.09-15.36a11.44,11.44,0,0,0-2.41-10.84h0C203.58,331,199.95,331,195.73,331.41Z" transform="translate(-82.09 -101)"/><polygon id="_Path_86" data-name="&lt;Path&gt;" class="cls-30" points="118.92 240.05 114.96 250.13 121.72 249.39 124.75 243.51 118.92 240.05"/><circle id="_Path_87" data-name="&lt;Path&gt;" class="cls-30" cx="131.07" cy="225.14" r="2.76"/><polygon id="_Path_88" data-name="&lt;Path&gt;" class="cls-13" points="141.05 230.75 139.62 236.1 136.95 234.54 141.05 230.75"/><ellipse id="_Path_89" data-name="&lt;Path&gt;" class="cls-14" cx="221.03" cy="331.98" rx="0.6" ry="0.36" transform="translate(-250.66 145.66) rotate(-43.99)"/><ellipse id="_Path_90" data-name="&lt;Path&gt;" class="cls-14" cx="223.32" cy="334.57" rx="0.6" ry="0.36" transform="translate(-251.83 148.02) rotate(-44)"/><path id="_Path_91" data-name="&lt;Path&gt;" class="cls-14" d="M215.41,324s-2,4.35-.35,4.92,3.47,2.38,3.41,4.22-.34,3.93,2.5,4.9c0,0-1.06,3.57-5.91,2.89s-8.11-6.71-3.85-12.82Z" transform="translate(-82.09 -101)"/><g id="_Group_34" data-name="&lt;Group&gt;"><g id="_Group_35" data-name="&lt;Group&gt;"><path id="_Path_92" data-name="&lt;Path&gt;" class="cls-32" d="M217.13,335.28a2.87,2.87,0,0,0,.09-1.22,1,1,0,0,0-1.12-.94c-.68.05-1,.82-1.23,1.7a4.41,4.41,0,0,0,.6,2.91c.61.75,1,1.12,1.67,1.17a1.18,1.18,0,0,0,1.15-1,1.28,1.28,0,0,0-.5-1.09A1.5,1.5,0,0,1,217.13,335.28Z" transform="translate(-82.09 -101)"/></g><g id="_Group_36" data-name="&lt;Group&gt;"><path id="_Path_93" data-name="&lt;Path&gt;" class="cls-17" d="M215.18,333.91a2.63,2.63,0,0,1,.65,1.56,2.83,2.83,0,0,1-.51,2,4.46,4.46,0,0,1-.51-2.2A3,3,0,0,1,215.18,333.91Z" transform="translate(-82.09 -101)"/></g></g><path id="_Path_94" data-name="&lt;Path&gt;" class="cls-14" d="M217.66,322.88s5.65-.85,5.66,6,8.89,6.26,9.64-.9c.63-6-5.65-7.46-8.27-6a2.32,2.32,0,0,1-2,.12C221.67,321.71,220,321.49,217.66,322.88Z" transform="translate(-82.09 -101)"/><polygon id="_Path_95" data-name="&lt;Path&gt;" class="cls-33" points="204.08 245.97 225.61 162.77 104.17 162.77 127.02 245.97 204.08 245.97"/><path id="_Path_96" data-name="&lt;Path&gt;" class="cls-30" d="M218.12,346.6l-.55-2.6-18.29,4.62h0a3.76,3.76,0,0,0-2.29,4.22,3.33,3.33,0,0,0,3.83,2.54c.09,0,1.19-.54,1.28-.57l-1,.5,1.18-.56a2.34,2.34,0,0,0,.33-.17Z" transform="translate(-82.09 -101)"/><path id="_Path_97" data-name="&lt;Path&gt;" class="cls-30" d="M218.12,346.6l.57.37h4.18a3.06,3.06,0,0,0-.45-.72l-.82-1a3.06,3.06,0,0,0-.79-.67l-.53-.31a3.06,3.06,0,0,0-2-.39l-.72.1Z" transform="translate(-82.09 -101)"/><text class="cls-34" transform="translate(95.47 428.28)">ABOUT US</text><g id="_Group_37" data-name="&lt;Group&gt;"><g id="_Group_38" data-name="&lt;Group&gt;"><g id="_Group_39" data-name="&lt;Group&gt;"><g id="_Group_40" data-name="&lt;Group&gt;"><g id="_Group_41" data-name="&lt;Group&gt;"><path class="cls-35" d="M571.28,381.14c2.83.38,4.83-.45,7.6.22a14.22,14.22,0,0,1,.89-5.52c1.25-2.79,6.26-7.36,6.52-8.2s-.29-.94-.41-1.57.54-1.07.36-1.6-.54-.24-1-.87.36-1.26-.23-2-1.92.09-2-.75,2.51-3.65,4-5.06,1.41-2.1,1.26-2.25-.76-1.07-3,0-4.95,5.85-5.91,7.13-5.11,6.56-6.15,4.57,2.07-4.53,2.07-4.53c.74-.71.74-1.44.54-1.71s-1.5-1.12-3.08.61-4.52,4.19-1.75,16.7a19.44,19.44,0,0,1,.33,4.82Z" transform="translate(-82.09 -101)"/></g></g></g><g id="_Group_42" data-name="&lt;Group&gt;"><path class="cls-35" d="M516.83,378.68s-.47,25.42,28.09,30.92c34.12,6.57,34.05-30,34.05-30h-7.67S568.85,398,549.57,395c-13.43-2.13-12.92-20.77-12.92-20.77Z" transform="translate(-82.09 -101)"/></g></g><g id="_Group_43" data-name="&lt;Group&gt;"><g id="_Group_44" data-name="&lt;Group&gt;"><g id="_Group_45" data-name="&lt;Group&gt;"><path id="_Path_98" data-name="&lt;Path&gt;" class="cls-8" d="M565.82,492.42l-7.06,7.86c-1,1.18,1.53,2.16,2.76,3.1l-.88,4.69,9.94-11.27Z" transform="translate(-82.09 -101)"/></g><g id="_Group_46" data-name="&lt;Group&gt;"><path id="_Path_99" data-name="&lt;Path&gt;" d="M563.38,499.55a5,5,0,0,0-6.46,2.4,5,5,0,0,0-.47,2.37c.23,3.7,24.27,8.73,24.27,8.73s1-.25-.28-1.37l-9.57-7.48s-3.79-3.94-6.28-4.32A6,6,0,0,1,563.38,499.55Z" transform="translate(-82.09 -101)"/></g><g id="_Group_47" data-name="&lt;Group&gt;"><path id="_Path_100" data-name="&lt;Path&gt;" class="cls-36" d="M597.69,437.6c-8.45-1.9-36.57-8.88-59.63-.84-4,1.38-8,1.48-14.3,1.41-.58,9.2,3,21.5,6.49,30.25,10.6.53,29.5.65,39.74-4.25,0,0-1.94,18-4.35,23.2-1,2.15-2.39,5.23-3.7,8.12,2.31,1.54,4.7,2.52,6.83,4.31,7.46-8.28,28.26-31.35,33.21-42.44C608,443.84,604,439,597.69,437.6Z" transform="translate(-82.09 -101)"/></g></g><g id="_Group_48" data-name="&lt;Group&gt;"><g id="_Group_49" data-name="&lt;Group&gt;"><path id="_Path_101" data-name="&lt;Path&gt;" class="cls-8" d="M540.79,501.19l-9.22,5.16c-1.34.79.75,2.53,1.6,3.83l-2.35,4.16,13-7.45Z" transform="translate(-82.09 -101)"/></g><g id="_Group_50" data-name="&lt;Group&gt;"><path id="_Path_102" data-name="&lt;Path&gt;" d="M536.18,507.15a5,5,0,0,0-6.89.18,5,5,0,0,0-1.21,2.09c-1,3.57,20.14,16.1,20.14,16.1s1,.09.18-1.39L541.76,514s-2.31-5-4.55-6.12A6,6,0,0,1,536.18,507.15Z" transform="translate(-82.09 -101)"/></g><g id="_Group_51" data-name="&lt;Group&gt;"><path id="_Path_103" data-name="&lt;Path&gt;" class="cls-10" d="M588.67,459.61c-7.38-4.53-31.73-20.23-56.15-20.07-4.2,0-8-1.18-14-3.29-3.53,8.51-4.16,21.3-3.63,30.72,9.86,3.93,27.71,10.15,39,8.82,0,0-7.64,16.38-11.61,20.55-1.63,1.71-4,4.18-6.13,6.49a74.21,74.21,0,0,1,4.52,7c9.73-5.42,37.43-21.24,45.69-30.13C596.42,468.86,594.23,463,588.67,459.61Z" transform="translate(-82.09 -101)"/></g></g><path id="_Path_104" data-name="&lt;Path&gt;" class="cls-10" d="M503.53,436.26s-6.69,26.2,16.33,32.63-1.34-32.63-1.34-32.63Z" transform="translate(-82.09 -101)"/><path id="_Path_105" data-name="&lt;Path&gt;" class="cls-37" d="M523,469.37c-12.06-5.3-4.76-23.77,7.5-19a19.5,19.5,0,0,1,4.45,2.52c14.74,10.9,24.8,6.89,29.64,10.77s.84,11.92-12.9,12.27C543.6,476.17,531.93,473.31,523,469.37Z" transform="translate(-82.09 -101)"/></g><path id="_Path_106" data-name="&lt;Path&gt;" class="cls-28" d="M546.74,370.63C556.4,381.3,570.5,400.76,566.1,433c0,0-17.35-2.51-37.85,16.85-19.06,18-27.27,4.38-27.27,4.38S494,403,512.87,372.49c3.08-5,8.93-11.78,14.79-11.78H529C535.81,360.72,542.16,365.57,546.74,370.63Z" transform="translate(-82.09 -101)"/><ellipse id="_Path_107" data-name="&lt;Path&gt;" class="cls-38" cx="447.04" cy="265.84" rx="10.87" ry="6.17"/><path id="_Path_108" data-name="&lt;Path&gt;" class="cls-30" d="M524.38,370.38c4.27,1,8.87,1.51,12.82-1.61a2.13,2.13,0,0,0,.55-2.44c-1-2.7-1.32-2.64-1.2-4.61.26-4,9.68-4.9,13.1-11.7s-.73-30.41-13-32.44-22.22,3.59-19.94,20.66c2,14.75,3.74,19,3.19,26.74C519.77,367.26,522.17,369.84,524.38,370.38Z" transform="translate(-82.09 -101)"/><circle id="_Path_109" data-name="&lt;Path&gt;" class="cls-30" cx="435.81" cy="238.54" r="6.09"/><path id="_Path_110" data-name="&lt;Path&gt;" class="cls-39" d="M520.07,325.54a12.3,12.3,0,0,1,12.59-.85c2.36,1.2,6.44,2.38,12.63,1.38,9.72-1.56,8.71-16.05-1.68-16.39a11.81,11.81,0,0,0-6.88,2.12,14.5,14.5,0,0,0-3.15,2.75s-4.82-6.72-14.08-3.42-7.41,16.12-2.61,17.57A11.83,11.83,0,0,1,520.07,325.54Z" transform="translate(-82.09 -101)"/><ellipse id="_Path_111" data-name="&lt;Path&gt;" class="cls-39" cx="451.63" cy="232.85" rx="1.25" ry="1.98"/><ellipse id="_Path_112" data-name="&lt;Path&gt;" class="cls-39" cx="463.07" cy="232.85" rx="1.25" ry="1.98"/><circle id="_Path_113" data-name="&lt;Path&gt;" class="cls-15" cx="449.57" cy="233.52" r="7.14"/><circle id="_Path_114" data-name="&lt;Path&gt;" class="cls-15" cx="465.6" cy="233.52" r="7.14"/><polygon id="_Path_115" data-name="&lt;Path&gt;" class="cls-13" points="457.77 227.7 463.06 241.63 456.71 241.63 457.77 227.7"/><line id="_Path_116" data-name="&lt;Path&gt;" class="cls-15" x1="460.95" y1="228.09" x2="454.22" y2="228.09"/><line id="_Path_117" data-name="&lt;Path&gt;" class="cls-15" x1="434.32" y1="231.93" x2="443.6" y2="229.6"/><circle id="_Path_118" data-name="&lt;Path&gt;" class="cls-40" cx="454.36" cy="248.83" r="2.73"/><g id="_Group_52" data-name="&lt;Group&gt;"><g id="_Group_53" data-name="&lt;Group&gt;"><path id="_Path_119" data-name="&lt;Path&gt;" class="cls-39" d="M572.94,371.48h0a1.27,1.27,0,0,1-.37-1.76L584,352.31a1.27,1.27,0,0,1,1.76-.36h0a1.27,1.27,0,0,1,.36,1.76l-11.43,17.42A1.27,1.27,0,0,1,572.94,371.48Z" transform="translate(-82.09 -101)"/><g id="_Group_54" data-name="&lt;Group&gt;"><path id="_Path_120" data-name="&lt;Path&gt;" class="cls-30" d="M571.27,387c2.85.18,4.79-.8,7.6-.32a14.22,14.22,0,0,1,.49-5.57c1-2.88,5.72-7.79,5.92-8.64s-.36-.92-.52-1.53.46-1.11.25-1.62-.56-.2-1.09-.79.27-1.28-.37-1.93-1.91.22-2-.61,2.24-3.81,3.61-5.33,1.26-2.2,1.09-2.33-.84-1-3,.16-4.52,6.19-5.39,7.53-4.63,6.91-5.81,5,1.75-4.66,1.75-4.66c.69-.76.63-1.49.41-1.74s-1.57-1-3,.82-4.21,4.5-.56,16.79a19.44,19.44,0,0,1,.67,4.79Z" transform="translate(-82.09 -101)"/></g></g><path id="_Path_121" data-name="&lt;Path&gt;" class="cls-30" d="M516.79,388.46s1.33,25.39,30.21,28.85c34.5,4.13,31.83-32.35,31.83-32.35l-7.65.54S570.05,404,550.6,402.37c-13.55-1.17-14.36-19.8-14.36-19.8Z" transform="translate(-82.09 -101)"/></g></g><path class="cls-41" d="M437.6,215.15C433.8,197.57,410.71,187.64,386,193s-41.57,23.93-37.76,41.52,26.89,27.52,51.56,22.17a61.8,61.8,0,0,0,16.56-6.11l16.77,4.29-7.77-10.47C434.89,236.23,439.85,225.52,437.6,215.15Z" transform="translate(-82.09 -101)"/></g></g></svg>