<?xml version="1.0" encoding="utf-8"?>
<!-- Generator: Adobe Illustrator 21.0.0, SVG Export Plug-In . SVG Version: 6.00 Build 0)  -->
<svg version="1.1" id="Layer_1" xmlns="http://www.w3.org/2000/svg" xmlns:xlink="http://www.w3.org/1999/xlink" x="0px" y="0px"
	 viewBox="0 0 700 600" style="enable-background:new 0 0 700 600;" xml:space="preserve">
<style type="text/css">
	.st0{fill:url(#SVGID_1_);}
	.st1{fill:#F4C74A;}
	.st2{opacity:0.4;}
	.st3{fill:#4D4D4D;}
	.st4{opacity:0.3;fill:#FFFFFF;}
	.st5{opacity:0.3;fill:#FFFFFF;stroke:#FFFFFF;stroke-miterlimit:10;}
	.st6{fill:#FFCB9C;}
	.st7{fill:#FFFFFF;}
	.st8{fill:#4B1568;}
	.st9{fill:#1B364F;}
	.st10{opacity:0.38;fill:#274F6D;}
	.st11{fill:#ED83AC;}
	.st12{fill:#FF6252;}
	.st13{fill:#1D1D1B;}
	.st14{fill:none;stroke:#1D1D1B;stroke-miterlimit:10;}
	.st15{fill:#283560;}
	.st16{fill:#FF7D7D;}
	.st17{fill:#162D3F;}
	.st18{opacity:0.68;fill:#7FEFBA;}
	.st19{fill:#36A9E1;}
	.st20{fill:#DADADA;}
	.st21{opacity:0.22;fill:#EDEDED;}
	.st22{fill:#E2A65D;}
	.st23{fill:#EAB46C;}
	.st24{fill:#FFEA94;}
	.st25{fill:#F9C485;}
	.st26{fill:#B2B2B2;}
	.st27{fill:#FF9999;}
	.st28{fill:#EDEDED;}
	.st29{fill:#FFCFC5;}
	.st30{fill:#FFA399;}
	.st31{fill:#CE3E3E;}
	.st32{opacity:0.31;fill:url(#XMLID_14_);}
	.st33{fill:#FBB03B;}
	.st34{fill:#FFB5A9;}
	.st35{fill:#122F44;}
	.st36{opacity:0.39;fill:#274F6D;}
	.st37{fill:#FF7676;}
	.st38{fill:#161616;}
	.st39{fill:#CC534E;}
	.st40{opacity:0.5;fill:#65C5EF;}
</style>
<g>
	<linearGradient id="SVGID_1_" gradientUnits="userSpaceOnUse" x1="373.262" y1="617.7185" x2="371.7426" y2="-26.809">
		<stop  offset="9.732377e-02" style="stop-color:#4A69BD"/>
		<stop  offset="0.3504" style="stop-color:#368BAF"/>
		<stop  offset="0.6011" style="stop-color:#27A6A5"/>
		<stop  offset="0.8239" style="stop-color:#1DB69E"/>
		<stop  offset="0.9959" style="stop-color:#1ABC9C"/>
	</linearGradient>
	<path class="st0" d="M695,390.2c0,135.7-187.7,175.4-339.9,175.4c-159,0-304.6-12-304.6-167.4S154.9,34.4,313.9,34.4
		S695,294.2,695,390.2z"/>
	<path class="st1" d="M50.5,398.2c0-154.7,103.3-361.6,261-363.7c-0.6,0-1.3,0-1.9,0C98.8,34.4,5,249.1,5,401.5
		s145.5,164.1,304.6,164.1c5.6,0,11.2-0.1,16.9-0.2C179,563.6,50.5,544.2,50.5,398.2z"/>
</g>
<g class="st2">
	<path class="st3" d="M166,518.2c-1.8,1.5-3.4,2.9-4.8,4.4s-2.6,3-3.5,4.5c-0.9,1.5-1.5,3.1-1.8,4.6c-2-0.1-4.3-0.2-6.7-0.2
		c-2.4,0-4.9,0-7.5,0c-3,0-6,0-8.8,0.1s-5.5,0.1-7.9,0.2c-0.3-1.6-0.8-3.1-1.5-4.6c-0.7-1.5-1.5-3-2.6-4.5c-1.1-1.5-2.4-2.9-3.9-4.4
		c-1.5-1.5-3.3-2.9-5.3-4.4c2.3,0.1,4.5,0.1,6.7,0.1c2.2,0,4.3,0,6.4,0c2.1,0,4.3,0,6.4,0c2.2,0,4.4-0.1,6.6-0.1
		c-0.1,0.1-0.3,0.3-0.5,0.5c-0.2,0.2-0.5,0.3-0.7,0.5s-0.5,0.4-0.6,0.7c-0.2,0.3-0.3,0.6-0.3,1s0.1,0.7,0.3,1
		c0.2,0.3,0.5,0.6,0.9,0.9c0.4,0.3,0.9,0.5,1.6,0.6c0.7,0.1,1.5,0.2,2.5,0.2c0.9,0,1.6-0.1,2.3-0.2c0.7-0.2,1.2-0.4,1.7-0.7
		c0.5-0.3,0.8-0.6,1-1c0.2-0.4,0.3-0.7,0.3-1.1c0-0.4-0.1-0.7-0.2-0.9c-0.1-0.2-0.3-0.5-0.5-0.6c-0.2-0.2-0.4-0.4-0.7-0.5
		c-0.2-0.2-0.5-0.3-0.7-0.5c5.4,0.3,10.7,0.4,15.9,0.4c1.9,0,3.8,0,5.7,0c1.9,0,3.8-0.1,5.8-0.1C169.7,515.3,167.8,516.8,166,518.2z
		 M143.4,522.5c-0.7-0.2-1.5-0.4-2.5-0.4c-0.9,0-1.8,0.1-2.6,0.3c-0.8,0.2-1.1,0.5-1.1,1c0,0.2,0.1,0.4,0.3,0.6
		c0.2,0.2,0.5,0.5,0.8,0.7c0.3,0.3,0.6,0.6,0.9,0.9c0.3,0.3,0.6,0.7,0.9,1.1c1.1-0.7,2-1.2,2.6-1.7c0.6-0.4,1-0.8,1.3-1
		c0.3-0.3,0.5-0.5,0.6-0.7C144.4,523.1,144.1,522.8,143.4,522.5z"/>
	<path class="st3" d="M222.8,521.2c-1.8,0.7-4.8,1.2-9,1.7c1.9,0.3,3.6,0.6,4.9,0.9c1.3,0.3,2.4,0.7,3.3,1c0.8,0.4,1.4,0.7,1.8,1.1
		c0.4,0.4,0.6,0.7,0.6,1.1c0,0.7-0.4,1.3-1.1,1.8c-0.7,0.5-1.7,0.9-3,1.3c-1.2,0.4-2.7,0.7-4.5,0.9c-1.7,0.2-3.6,0.4-5.5,0.5
		c-2,0.1-4,0.2-6.2,0.3c-2.2,0.1-4.3,0.1-6.4,0.1c-1.4,0-2.6,0-3.7,0c-1.1,0-2.2,0-3.2,0c-1,0-2.1,0-3.2,0c-1.1,0-2.3,0-3.6,0
		c-1.6,0-3.4,0-5.6,0c-2.2,0-4.5,0.1-6.8,0.2c0.8-0.2,1.5-0.4,2.1-0.8c0.6-0.4,1.1-0.8,1.5-1.3c0.4-0.5,0.7-1.1,0.9-1.6
		c0.2-0.6,0.4-1.2,0.5-1.7c0.1-0.6,0.2-1.1,0.3-1.6c0-0.5,0.1-0.9,0.1-1.3c0-0.8-0.1-1.7-0.3-2.7c-0.2-0.9-0.6-1.9-1.1-2.8
		s-1.3-1.7-2.2-2.5c-0.9-0.8-2.1-1.4-3.6-1.9c2.2,0,4.5,0.1,6.7,0.1c2.3,0,4.5,0,6.6,0c0.5,0,1.2,0,1.9,0c0.7,0,1.5,0,2.4,0
		c0.8,0,1.7,0,2.6,0s1.7,0,2.6,0c2,0,4.1,0,6.2-0.1c3.4,0,6.7,0.1,9.9,0.3c3.2,0.2,6.1,0.5,8.6,0.9c2.5,0.4,4.5,0.9,6,1.6
		c1.5,0.6,2.3,1.4,2.3,2.3C225.6,519.8,224.7,520.6,222.8,521.2z M202.4,517.6c-0.6-0.2-1.3-0.2-2.1-0.2c-0.7,0-1.3,0-1.8,0.1
		c-0.6,0.1-1,0.2-1.4,0.4c-0.4,0.2-0.7,0.4-0.9,0.7c-0.2,0.3-0.3,0.6-0.3,1.1c0,0.3,0.1,0.6,0.2,1c0.1,0.4,0.5,0.7,0.9,1.1
		c0.8-0.2,1.6-0.5,2.4-0.8c0.8-0.3,1.4-0.6,2-0.8c0.6-0.3,1.1-0.6,1.4-0.9c0.4-0.3,0.5-0.6,0.5-0.9C203.3,518,203,517.7,202.4,517.6
		z M196.5,524.7c0,0.1,0,0.2,0,0.3c0,0.2,0.1,0.5,0.2,0.8c0.1,0.3,0.3,0.7,0.7,1c0.3,0.3,0.8,0.6,1.4,0.8c0.6,0.2,1.4,0.4,2.5,0.4
		c0.7,0,1.4-0.1,2-0.2c0.6-0.2,0.9-0.4,0.9-0.6c0-0.2-0.3-0.5-0.8-0.8c-0.6-0.3-1.2-0.5-2-0.8s-1.6-0.5-2.5-0.7
		c-0.9-0.2-1.6-0.4-2.3-0.5C196.5,524.5,196.5,524.6,196.5,524.7z"/>
	<path class="st3" d="M281.5,526.3c-1.3,1.2-3.2,2.3-5.5,3.2c-2.4,0.9-5.3,1.6-8.6,2.1c-3.4,0.5-7.1,0.8-11.2,0.8
		c-2.4,0-4.8-0.1-7.1-0.4c-2.3-0.2-4.4-0.6-6.5-1c-2-0.4-3.9-1-5.6-1.6c-1.7-0.6-3.1-1.3-4.3-2c-1.2-0.7-2.1-1.5-2.8-2.4
		c-0.7-0.9-1-1.7-1-2.7c0-1.2,0.6-2.4,1.7-3.5c1.1-1.1,2.8-2.1,5-2.9c2.3-0.8,5.1-1.5,8.5-1.9c3.4-0.5,7.5-0.7,12.1-0.7
		c4.7,0,8.7,0.2,12.1,0.7c3.4,0.5,6.3,1.1,8.5,1.9c2.2,0.8,3.9,1.8,5,2.9c1.1,1.1,1.7,2.3,1.7,3.5
		C283.5,523.7,282.8,525,281.5,526.3z M263.1,522c-0.4-0.4-0.9-0.8-1.5-1.1c-0.6-0.3-1.4-0.5-2.3-0.7c-0.9-0.2-1.9-0.3-3-0.3
		c-1.1,0-2.1,0.1-3,0.3c-0.9,0.2-1.6,0.4-2.3,0.7c-0.6,0.3-1.1,0.7-1.4,1.1s-0.5,0.9-0.5,1.3c0,0.5,0.2,1,0.6,1.5s0.9,1,1.6,1.4
		c0.7,0.4,1.4,0.7,2.3,1c0.9,0.3,1.8,0.4,2.8,0.4c1,0,2-0.1,2.9-0.3c0.9-0.2,1.7-0.5,2.4-0.9c0.7-0.4,1.2-0.8,1.6-1.4
		c0.4-0.5,0.6-1.1,0.6-1.7C263.6,522.9,263.4,522.4,263.1,522z"/>
	<path class="st3" d="M339.9,531.7c-0.8,0-1.8,0-2.9,0c-1.2,0-2.5,0-3.9,0c-2.2,0-4.7,0-7.4,0.1c-2.8,0-5.8,0.1-9,0.3
		c0.4-0.2,0.8-0.5,1.1-0.8c0.3-0.4,0.6-0.8,0.9-1.2s0.5-0.9,0.6-1.4c0.2-0.5,0.3-1,0.4-1.5c0.3-1.2,0.4-2.4,0.5-3.7
		c0-0.9-0.2-1.7-0.4-2.3c-0.2-0.6-0.6-1.1-1-1.5c-0.5-0.4-1.1-0.7-1.8-0.8c-0.7-0.2-1.5-0.2-2.6-0.2c-0.7,0-1.4,0.1-1.9,0.2
		c-0.5,0.1-0.9,0.4-1.3,0.7c-0.3,0.4-0.6,0.9-0.7,1.5c-0.1,0.6-0.2,1.5-0.2,2.5c0,0.8,0.1,1.6,0.3,2.4c0.2,0.8,0.5,1.6,0.8,2.3
		c0.3,0.7,0.7,1.4,1.1,2c0.4,0.6,0.8,1.2,1.3,1.7c-0.8,0-1.7,0-2.8-0.1c-0.9,0-2,0-3.3,0s-2.7,0-4.2,0c-2.4,0-5.1,0-8,0.1
		c-2.9,0-5.9,0.1-9.2,0.3c0.8-0.3,1.4-0.7,1.9-1.3c0.5-0.6,0.8-1.2,1.1-1.9c0.3-0.7,0.4-1.4,0.5-2.1c0.1-0.7,0.1-1.3,0.1-1.9
		c0-0.5,0-0.8,0-1.1c0-0.3,0-0.6-0.1-0.8c0-0.2-0.1-0.4-0.1-0.6c0-0.2-0.1-0.3-0.1-0.5c0-0.2-0.1-0.3-0.1-0.5c0-0.2,0-0.4,0-0.7
		c0-0.6,0.1-1.2,0.3-1.8c0.2-0.6,0.6-1.2,1.2-1.8c0.6-0.6,1.5-1.1,2.6-1.6c1.1-0.5,2.6-0.9,4.5-1.3c1.8-0.4,4.1-0.7,6.7-0.9
		c2.6-0.2,5.8-0.3,9.5-0.3c3.9,0,7.2,0.1,10,0.4s5.1,0.6,7,1c1.9,0.4,3.4,0.9,4.5,1.5c1.1,0.6,2,1.2,2.6,1.8c0.6,0.6,1,1.2,1.2,1.9
		c0.2,0.6,0.3,1.2,0.3,1.8c0,0.3,0,0.5,0,0.7c0,0.2,0,0.5-0.1,0.7c0,0.2-0.1,0.4-0.1,0.6s0,0.4,0,0.6c0,1.5,0.2,2.9,0.7,4.3
		c0.5,1.3,1.1,2.5,1.8,3.4C341.6,531.8,340.8,531.8,339.9,531.7z"/>
	<path class="st3" d="M382.4,516.7c-0.6,0.9-1.2,1.8-1.6,2.7c-0.4,0.9-0.7,1.8-0.9,2.6c-0.2,0.9-0.3,1.7-0.3,2.6
		c0,0.6,0.1,1.3,0.2,1.9c0.1,0.6,0.3,1.2,0.6,1.8c3.2-0.7,6.2-1.5,9.1-2.5c2.8-1,5.4-2,7.8-3.2l-1.8,9.5c-4.2-0.2-8.7-0.3-13.7-0.4
		c-5-0.1-10-0.1-15-0.1c-3.5,0-7,0-10.4,0.1c-3.4,0-6.6,0.1-9.7,0.2l-1.2-9.4c0.9,0.5,2,0.9,3.2,1.4s2.5,0.9,3.9,1.4
		c1.4,0.5,2.8,0.9,4.4,1.3c1.5,0.4,3,0.8,4.5,1.2c0.2-0.6,0.3-1.2,0.4-1.7c0.1-0.5,0.2-1,0.2-1.4c0.1-0.5,0.1-0.9,0.1-1.3
		c-0.1-0.9-0.3-1.9-0.6-2.9c-0.3-0.9-0.7-1.9-1.3-3c-0.6-1.1-1.4-2.3-2.6-3.5c3.3,0.1,6.5,0.2,9.5,0.3c3,0,5.7,0.1,8.1,0.1
		c1.4,0,2.7,0,3.8,0c1.1,0,2.1,0,3,0c1,0,1.8,0,2.6,0C383.8,514.9,383.1,515.8,382.4,516.7z"/>
	<path class="st3" d="M467.5,531.7c-0.8,0-1.8,0-2.9,0c-1.2,0-2.5,0-3.9,0c-2.2,0-4.7,0-7.4,0.1c-2.8,0-5.8,0.1-9,0.3
		c0.4-0.2,0.8-0.5,1.1-0.8s0.6-0.8,0.9-1.2s0.5-0.9,0.6-1.4c0.2-0.5,0.3-1,0.4-1.5c0.3-1.2,0.4-2.4,0.5-3.7c0-0.9-0.2-1.7-0.4-2.3
		s-0.6-1.1-1-1.5c-0.5-0.4-1.1-0.7-1.8-0.8s-1.5-0.2-2.6-0.2c-0.7,0-1.4,0.1-1.9,0.2c-0.5,0.1-0.9,0.4-1.3,0.7s-0.6,0.9-0.7,1.5
		c-0.1,0.6-0.2,1.5-0.2,2.5c0,0.8,0.1,1.6,0.3,2.4c0.2,0.8,0.5,1.6,0.8,2.3c0.3,0.7,0.7,1.4,1.1,2c0.4,0.6,0.8,1.2,1.3,1.7
		c-0.8,0-1.7,0-2.8-0.1c-0.9,0-2,0-3.3,0c-1.3,0-2.7,0-4.2,0c-2.4,0-5.1,0-8,0.1c-2.9,0-5.9,0.1-9.2,0.3c0.8-0.3,1.4-0.7,1.9-1.3
		c0.5-0.6,0.8-1.2,1.1-1.9c0.3-0.7,0.4-1.4,0.5-2.1c0.1-0.7,0.1-1.3,0.1-1.9c0-0.5,0-0.8,0-1.1c0-0.3,0-0.6-0.1-0.8
		s-0.1-0.4-0.1-0.6c0-0.2-0.1-0.3-0.1-0.5c0-0.2-0.1-0.3-0.1-0.5c0-0.2,0-0.4,0-0.7c0-0.6,0.1-1.2,0.3-1.8s0.6-1.2,1.2-1.8
		c0.6-0.6,1.5-1.1,2.6-1.6s2.6-0.9,4.5-1.3s4.1-0.7,6.7-0.9c2.6-0.2,5.8-0.3,9.5-0.3c3.9,0,7.2,0.1,10,0.4s5.1,0.6,7,1
		c1.9,0.4,3.4,0.9,4.5,1.5c1.1,0.6,2,1.2,2.6,1.8c0.6,0.6,1,1.2,1.2,1.9c0.2,0.6,0.3,1.2,0.3,1.8c0,0.3,0,0.5,0,0.7
		c0,0.2,0,0.5-0.1,0.7c0,0.2-0.1,0.4-0.1,0.6s0,0.4,0,0.6c0,1.5,0.2,2.9,0.7,4.3c0.5,1.3,1.1,2.5,1.8,3.4
		C469.2,531.8,468.4,531.8,467.5,531.7z"/>
	<path class="st3" d="M522.5,529.6c-0.8,0.5-2.2,1-4,1.4c-1.8,0.4-4.2,0.7-7.2,1s-6.6,0.4-10.8,0.4c-4.2,0-8-0.1-11.3-0.4
		c-3.3-0.3-6.1-0.7-8.4-1.2c-2.3-0.5-4-1.1-5.2-1.8c-1.2-0.7-1.8-1.4-1.8-2.2c0-0.7,0.3-1.2,0.8-1.7c0.6-0.5,1.4-0.9,2.4-1.2
		c1.1-0.3,2.3-0.6,3.8-0.9c1.5-0.3,3.2-0.5,5.1-0.8s3.9-0.5,6.2-0.8c2.2-0.3,4.6-0.6,7.2-1c1.3-0.2,2.3-0.5,3-0.8s1-0.6,1-0.9
		c0-0.1-0.1-0.3-0.3-0.4s-0.6-0.3-1-0.4c-0.4-0.1-0.9-0.2-1.5-0.3c-0.6-0.1-1.2-0.1-1.8-0.1c-0.6,0-1.1,0-1.7,0.1
		c-0.5,0-1,0.1-1.4,0.2c-0.4,0.1-0.7,0.2-1,0.3s-0.4,0.2-0.4,0.4c0,0.3,0.3,0.5,0.8,0.6c0.5,0.1,1.2,0.2,2.1,0.2
		c0.5,0,1.1,0,1.8-0.1c-0.6,0.3-1.3,0.5-2.2,0.7c-0.9,0.2-2,0.4-3.1,0.5s-2.4,0.3-3.7,0.3c-1.3,0.1-2.7,0.1-4,0.1
		c-1.8,0-3.4-0.1-4.9-0.2c-1.5-0.1-2.9-0.3-4-0.6c-1.2-0.3-2.1-0.6-2.7-0.9s-1-0.8-1-1.3c0-0.7,0.7-1.3,2-1.9
		c1.3-0.6,3.2-1.1,5.4-1.5s4.9-0.8,7.9-1c3-0.3,6.2-0.4,9.5-0.4c3.7,0,7.2,0.2,10.6,0.5c3.4,0.3,6.4,0.7,9,1.3
		c2.6,0.6,4.6,1.2,6.2,2c1.5,0.8,2.3,1.7,2.3,2.6c0,0.7-0.3,1.3-1,1.8c-0.7,0.5-1.6,0.9-2.8,1.3c-1.2,0.4-2.6,0.7-4.1,1
		c-1.6,0.3-3.3,0.5-5,0.7c-1.8,0.2-3.6,0.4-5.5,0.6c-1.9,0.2-3.7,0.4-5.5,0.6c-1.1,0.1-2.2,0.3-3.1,0.4c-1,0.2-1.8,0.4-2.5,0.6
		s-1.2,0.4-1.7,0.7c-0.4,0.2-0.6,0.5-0.6,0.7c0,0.3,0.2,0.5,0.5,0.7c0.4,0.2,0.8,0.3,1.4,0.5c0.6,0.1,1.2,0.2,1.9,0.3
		c0.7,0.1,1.3,0.1,2,0.1c0.9,0,1.7,0,2.4-0.1c0.6-0.1,1.1-0.1,1.5-0.2c0.4-0.1,0.6-0.2,0.8-0.3c0.1-0.1,0.2-0.2,0.2-0.3
		c0-0.1-0.2-0.3-0.6-0.4c-0.4-0.1-1-0.2-1.9-0.2c-0.4,0-0.8,0-1.3,0.1s-1,0.1-1.4,0.3c0-0.1,0-0.2,0.1-0.4s0.3-0.4,0.5-0.6
		s0.7-0.4,1.2-0.6c0.5-0.2,1.2-0.4,2.1-0.6s2-0.3,3.3-0.4c1.3-0.1,2.9-0.2,4.7-0.2c1.7,0,3.3,0.1,4.7,0.2c1.4,0.1,2.7,0.3,3.8,0.6
		s1.9,0.5,2.5,0.9c0.6,0.3,0.9,0.7,0.9,1.1C523.7,528.6,523.3,529.1,522.5,529.6z"/>
</g>
<path id="XMLID_815_" class="st4" d="M285.4,86.4H353c0,0-3.4-8.2-7.6-8.6c-4.2-0.3-5.4,2.2-6.8,2c-1.4-0.3-3.5-7-9-7.3
	c-5.4-0.3-7.5,4.7-10.5,5.6c-3,0.9-8.8,0.4-13.3-6.9c-4.6-7.3-13.2,0.6-13.4,6.3c-0.3,8.7-13.6,3.9-13.6,9H285.4z"/>
<path id="XMLID_475_" class="st4" d="M159.1,171.2h67.6c0,0-3.4-8.2-7.6-8.6c-4.2-0.3-5.4,2.2-6.8,2c-1.4-0.3-3.5-7-9-7.3
	c-5.4-0.3-7.5,4.7-10.5,5.6c-3,0.9-8.8,0.4-13.3-6.9c-4.6-7.3-13.2,0.6-13.4,6.3c-0.3,8.7-13.6,3.9-13.6,9H159.1z"/>
<path id="XMLID_814_" class="st5" d="M561.1,225.2h-67.6c0,0,3.4-8.4,7.6-8.8c4.2-0.3,5.4,2.1,6.8,1.9c1.4-0.3,3.5-7,9-7.4
	c5.4-0.3,7.5,4.7,10.5,5.6c3,0.9,8.8,0.4,13.3-7c4.6-7.3,13.2,0.8,13.4,6.5c0.3,8.7,13.6,4.1,13.6,9.2H561.1z"/>
<g id="XMLID_770_">
	<g id="XMLID_952_">
		<path id="XMLID_954_" class="st6" d="M322.5,363.9l-40.7-21.2l-2.7,2l35.8,29.7c0,0,1.8-5.1,2.6-5.9c0.3-0.2,0.4-0.4,0.5-0.5
			c0.8-0.7,1.4-1.1,2.2-1.6c0.2-0.1,0.4-0.4,0.6-0.5C321.9,365.1,322.5,363.9,322.5,363.9z"/>
		<path id="XMLID_953_" class="st6" d="M278.5,338.4c0,0-7.2-8.4-8.1-8.8c-0.9-0.4-1.4,0.7-0.1,2.1c1.3,1.4,4.9,5.9,4.9,5.9
			s-6.7-6.5-7.4-6.4c-0.7,0.1-1,0.9,0,1.7c1,0.8,5.3,5.4,5.3,5.4s-4.3-3.3-5.5-3.7c-1.1-0.4-0.4,1.1,0.6,1.8c1,0.7,4.6,3.5,4.6,3.5
			s-4-1.5-4.6-1.3c-0.7,0.2-0.4,0.7,0,1c0.5,0.3,5,1.9,5,1.9s2.8,3.6,5.8,3.5c3-0.1,3.4-1.8,3.2-2.3c-0.2-0.4-3-8.4-3.9-9.4
			c-0.8-1-1.9,0.5-0.9,2.3C278.3,337.3,279.2,338.4,278.5,338.4z"/>
	</g>
	<g id="XMLID_949_">
		<polygon id="XMLID_951_" class="st7" points="327.2,499.1 328.8,506.4 333.2,505.8 333.2,497.4 		"/>
		<path id="XMLID_950_" d="M333.2,505.3c0,0,2.7,3.1,1.6,5.8c-1.1,2.7-20.3,0.7-20.3,0.7s-0.7-0.4,0.5-1l9-3.3c0,0,3.8-2,5.7-1.7
			C331.4,506.1,333.2,505.3,333.2,505.3z"/>
	</g>
	<g id="XMLID_946_">
		<polygon id="XMLID_948_" class="st7" points="349.1,499.1 347.5,506.4 343.1,505.8 343.1,497.4 		"/>
		<path id="XMLID_947_" d="M343.1,505.3c0,0-2.7,3.1-1.6,5.8c1.1,2.7,20.3,0.7,20.3,0.7s0.7-0.4-0.5-1l-9-3.3c0,0-3.8-2-5.7-1.7
			C344.9,506.1,343.1,505.3,343.1,505.3z"/>
	</g>
	<path id="XMLID_945_" class="st8" d="M312.3,433.2c0,0-12.4,8.5-2.4,11.1c10,2.6,36.4-2.9,36.4-2.9L312.3,433.2z"/>
	<path id="XMLID_944_" class="st9" d="M309.3,422.1c0,0,5.5,52.9,17.2,79.6h8.8l1.5-45.9l4.6,45.9h9c0,0,14.8-34.6,9.8-75.9
		C355.2,384.5,309.3,422.1,309.3,422.1z"/>
	<path id="XMLID_943_" class="st10" d="M311.2,436.3c0,0,4.8-5,10.9,0.7c6,5.7-0.7,13.5,1.6,20.1c2.3,6.5,0.6,13.8-6.3,14.9
		C317.4,471.9,312.7,453.8,311.2,436.3z"/>
	<path id="XMLID_942_" class="st10" d="M361,450.2c0,0-6.2-4.6-13.5,1.4c-7.3,6,0,16,3.9,19.9c3.9,3.9-2.6,12.4,4,14.2
		C355.3,485.8,360.6,468.8,361,450.2z"/>
	<path id="XMLID_941_" class="st11" d="M315.4,384.3L301,370.2l8.2-14.6l40.8,11.9l1.6,8l-0.2,6.7l0,0c2.5,2.4,4.8,5.3,7,8.9
		c10,16.6,7.6,47.2,7.6,47.2s-14.1,12.4-28.9,3.4c-14.8-9-30.8,0-30.8,0c-5.6-22.6,3.3-46.8,3.3-46.8
		C310.3,392.3,312.4,388.1,315.4,384.3z"/>
	<path id="XMLID_940_" class="st11" d="M339.7,366.5c0,0,23.8-2.3,35.8,22.6L360,398L339.7,366.5z"/>
	<path id="XMLID_939_" class="st6" d="M331.2,347.3c-1,4.7-1,9.2,4.2,14.1c0.6,0.6,1.3,1.1,2,1.6c0.8,0.6,2.3,2.3,0.4,6.1
		c-2.5,5.1,12.3,8.5,12,0.5c-0.3-8,5-12,9-16.2c3.9-4.2,5.4-14.6,0.2-19.5c-2.1-1.9-8.2-2.9-12.6-2
		C338.8,333.5,332.8,339.9,331.2,347.3z"/>
	<polygon id="XMLID_938_" class="st12" points="345.5,339.2 339.1,347.3 344.6,349.9 	"/>
	<path id="XMLID_935_" class="st6" d="M359.2,347.4c0,0,4.2-2.6,4.7,3.2c0.5,5.8-4.9,5.6-6,4C356.8,353,359.2,347.4,359.2,347.4z"/>
	<g id="XMLID_792_">
		
			<ellipse id="XMLID_932_" transform="matrix(0.2028 -0.9792 0.9792 0.2028 -81.2522 603.9654)" class="st13" cx="330.3" cy="351.9" rx="3.7" ry="3.7"/>
		
			<ellipse id="XMLID_931_" transform="matrix(0.2028 -0.9792 0.9792 0.2028 -75.4074 600.9356)" class="st13" cx="331.4" cy="346.8" rx="3.2" ry="3.2"/>
		
			<ellipse id="XMLID_930_" transform="matrix(0.2028 -0.9792 0.9792 0.2028 -70.1338 598.1888)" class="st13" cx="332.3" cy="342.2" rx="2.2" ry="2.2"/>
		
			<ellipse id="XMLID_816_" transform="matrix(0.2028 -0.9792 0.9792 0.2028 -60.5945 629.4587)" class="st13" cx="356.3" cy="351.9" rx="3.2" ry="3.2"/>
		
			<ellipse id="XMLID_812_" transform="matrix(0.2028 -0.9792 0.9792 0.2028 -55.3145 626.7217)" class="st13" cx="357.3" cy="347.3" rx="2.2" ry="2.2"/>
		
			<ellipse id="XMLID_811_" transform="matrix(0.2028 -0.9792 0.9792 0.2028 -78.6661 605.7007)" class="st13" cx="332.7" cy="351.2" rx="3.2" ry="3.2"/>
		
			<ellipse id="XMLID_810_" transform="matrix(0.2028 -0.9792 0.9792 0.2028 -77.4516 611.2835)" class="st13" cx="336.7" cy="353.2" rx="3.7" ry="3.7"/>
		
			<ellipse id="XMLID_809_" transform="matrix(0.2028 -0.9792 0.9792 0.2028 -73.8405 618.2365)" class="st13" cx="342.8" cy="354.5" rx="3.7" ry="3.7"/>
		
			<ellipse id="XMLID_808_" transform="matrix(0.2028 -0.9792 0.9792 0.2028 -69.5565 626.485)" class="st13" cx="350" cy="356" rx="3.7" ry="3.7"/>
		
			<ellipse id="XMLID_807_" transform="matrix(0.2028 -0.9792 0.9792 0.2028 -72.7035 630.5133)" class="st13" cx="350.9" cy="359.9" rx="3.7" ry="3.7"/>
		
			<ellipse id="XMLID_806_" transform="matrix(0.2028 -0.9792 0.9792 0.2028 -86.6357 609.097)" class="st13" cx="330.8" cy="357.8" rx="3.7" ry="3.7"/>
		
			<ellipse id="XMLID_805_" transform="matrix(0.2028 -0.9792 0.9792 0.2028 -90.1673 614.9034)" class="st13" cx="332.6" cy="362.8" rx="3.7" ry="3.7"/>
		
			<ellipse id="XMLID_804_" transform="matrix(0.2028 -0.9792 0.9792 0.2028 -90.9306 623.5212)" class="st13" cx="337.5" cy="367.6" rx="3.7" ry="3.7"/>
		
			<ellipse id="XMLID_803_" transform="matrix(0.2028 -0.9792 0.9792 0.2028 -87.3201 630.4733)" class="st13" cx="343.6" cy="368.9" rx="3.7" ry="3.7"/>
		
			<ellipse id="XMLID_802_" transform="matrix(0.2028 -0.9792 0.9792 0.2028 -80.0727 634.3405)" class="st13" cx="349.6" cy="366.3" rx="3.7" ry="3.7"/>
		
			<ellipse id="XMLID_801_" transform="matrix(0.2028 -0.9792 0.9792 0.2028 -80.0656 627.6397)" class="st13" cx="345.5" cy="363" rx="3.7" ry="3.7"/>
		
			<ellipse id="XMLID_800_" transform="matrix(0.2028 -0.9792 0.9792 0.2028 -74.9469 624.0472)" class="st13" cx="345.8" cy="358.1" rx="3.7" ry="3.7"/>
		
			<ellipse id="XMLID_799_" transform="matrix(0.2028 -0.9792 0.9792 0.2028 -85.8845 623.1499)" class="st13" cx="339.8" cy="364.3" rx="3.7" ry="3.7"/>
		
			<ellipse id="XMLID_798_" transform="matrix(0.2028 -0.9792 0.9792 0.2028 -79.6599 619.9171)" class="st13" cx="340.9" cy="358.9" rx="3.7" ry="3.7"/>
		
			<ellipse id="XMLID_797_" transform="matrix(0.2028 -0.9792 0.9792 0.2028 -82.7786 612.3286)" class="st13" cx="334.7" cy="357" rx="3.7" ry="3.7"/>
		
			<ellipse id="XMLID_796_" transform="matrix(0.2028 -0.9792 0.9792 0.2028 -85.28 617.5999)" class="st13" cx="336.7" cy="361.2" rx="3.7" ry="3.7"/>
		
			<ellipse id="XMLID_795_" transform="matrix(0.2028 -0.9792 0.9792 0.2028 -66.0453 632.2927)" class="st13" cx="355.3" cy="356.7" rx="3.7" ry="3.7"/>
		<path id="XMLID_794_" class="st7" d="M333.9,357.2c-0.7-0.9-0.8-2.2-0.2-3.2c0.4-0.6,1.1-1.1,2.3-1.1c2.9,0,4.3,3.9,8.6,3
			c4.4-0.9,3.6,3.8,0,4.5C341.4,361,336.5,360.6,333.9,357.2z"/>
		
			<ellipse id="XMLID_793_" transform="matrix(0.2028 -0.9792 0.9792 0.2028 -73.0782 635.2014)" class="st13" cx="353.6" cy="362.5" rx="3.7" ry="3.7"/>
	</g>
	
		<ellipse id="XMLID_791_" transform="matrix(0.3847 -0.9231 0.9231 0.3847 -101.9946 534.1539)" class="st13" cx="349.6" cy="343.6" rx="1.9" ry="1"/>
	
		<ellipse id="XMLID_790_" transform="matrix(0.3847 -0.9231 0.9231 0.3847 -104.0677 523.8939)" class="st13" cx="340.9" cy="340" rx="1.9" ry="1"/>
	<path id="XMLID_789_" class="st6" d="M373.2,390.4c0,0,3.5,9.1-4.6,19.7c-6,7.8-25.4,5.5-29.7-10l3.3-3.1c0,0,4.4,5.2,9.3,6.8
		c3.2,1,11.2,1.3,9.7-6.6c-0.1-0.6,0.2,0.5,0,0L373.2,390.4z"/>
	<path id="XMLID_788_" class="st14" d="M346.8,346.4l3.6,1.6c0.8,0.4,1.8,0,2.2-0.8l1.4-3.1c0.4-0.8,0-1.8-0.8-2.2l-3.6-1.6
		c-0.8-0.4-1.8,0-2.2,0.8l-1.4,3.1C345.7,345,346,346,346.8,346.4z"/>
	<path id="XMLID_787_" class="st14" d="M336.6,341.4l3.6,1.6c0.8,0.4,1.8,0,2.2-0.8l1.4-3.1c0.4-0.8,0-1.8-0.8-2.2l-3.6-1.6
		c-0.8-0.4-1.8,0-2.2,0.8l-1.4,3.1C335.4,340,335.8,341,336.6,341.4z"/>
	<line id="XMLID_786_" class="st14" x1="347.7" y1="340.5" x2="343.9" y2="338.9"/>
	<line id="XMLID_785_" class="st14" x1="354.3" y1="343.5" x2="361.9" y2="346.8"/>
	<g id="XMLID_773_">
		<g id="XMLID_783_">
			<path id="XMLID_784_" class="st15" d="M335.5,398L335.5,398c-0.8-0.3-1.2-1.1-0.9-1.9l41.8-120.4c0.3-0.8,1.2-1.2,1.9-0.9l0,0
				c0.8,0.3,1.2,1.1,0.9,1.9l-41.8,120.4C337.2,397.8,336.3,398.3,335.5,398z"/>
		</g>
		<g id="XMLID_774_">
			<g id="XMLID_781_">
				<path id="XMLID_782_" class="st1" d="M303.3,316.4c3.8,1.3,6.5,4.5,7.3,8.2c2.9-2.4,6.9-3.3,10.7-2c3.8,1.3,6.5,4.5,7.3,8.2
					c2.9-2.4,6.9-3.3,10.7-2.1c3.8,1.3,6.5,4.5,7.3,8.2c2.9-2.4,6.9-3.3,10.7-2.1c3.8,1.3,6.5,4.5,7.3,8.2c2.9-2.4,6.9-3.3,10.7-2
					c3.8,1.3,6.5,4.5,7.3,8.2c2.9-2.4,6.9-3.3,10.7-2.1c3.8,1.3,6.5,4.5,7.3,8.2c2.9-2.4,6.9-3.3,10.7-2.1c3.9,1.3,6.5,4.5,7.3,8.3
					c11.2-34.6-7.4-71.9-42-83.7c-34.6-11.7-72.1,6.6-84.3,40.9C295.4,316,299.5,315.1,303.3,316.4z"/>
			</g>
			<g id="XMLID_779_">
				<path id="XMLID_780_" class="st7" d="M370.1,275.7c0,0-36.8-1.3-59.4,48.8c0,0-4.9-14.6-18.1-6
					C292.5,318.5,309.3,263.6,370.1,275.7z"/>
			</g>
			<g id="XMLID_777_">
				<path id="XMLID_778_" class="st7" d="M381.2,279.3c0,0,30.9,22.3,19.5,76c0,0,12.6-8.9,18.2,5.9
					C418.8,361.2,438.2,305.1,381.2,279.3z"/>
			</g>
			<g id="XMLID_775_">
				<path id="XMLID_776_" class="st7" d="M375.2,277.1c0,0-25.8,7-35.8,51.5c0,0,5.4,1.8,7.3,8.2c0,0,4.6-3.8,10.3-2.2
					c0,0,6,1.4,7.8,8.3c0,0,5.6-3.9,10.7-2C375.4,340.8,393.2,304,375.2,277.1z"/>
			</g>
		</g>
	</g>
	<path id="XMLID_772_" class="st6" d="M332.4,396.3c0.1-0.3,0.3-0.5,0.6-0.4c0.6,0.1,1.1,0.1,1.1,0.1s-0.5-0.2-1.2-0.5
		c-0.2-0.1-0.4-0.4-0.3-0.6c0,0,0,0,0,0c0-0.4,0.4-0.6,0.8-0.5c0.5,0.1,0.8,0.2,0.8,0.2s-0.3-0.2-0.7-0.5c-0.3-0.2-0.5-0.4-0.5-0.9
		l0,0c0.2-0.5,0.8-0.8,1.3-0.5c0.7,0.4,1.1,0.6,1.1,0.6s-0.6-0.5-1.5-1c-0.3-0.2-0.5-0.6-0.3-1v0c0.2-0.5,0.8-0.8,1.3-0.5
		c1.6,0.9,3.7,2.3,3.7,2.3c0.3,0.1,0.8,1.3,0.5,1.1l0.4-2c1.1,1.6,2.6,4.2,2.7,4.3c0.2,0.3,0.8,3.2-1.5,3.8
		c-2.3,0.6-5.8-3.1-5.8-3.1s-0.9-0.1-1.9-0.2C332.5,396.9,332.3,396.7,332.4,396.3C332.4,396.4,332.4,396.4,332.4,396.3z"/>
	<path id="XMLID_771_" class="st6" d="M339.6,390.7c0,0-0.1,0.3,1.2,3.9l-2.8-0.4L339.6,390.7z"/>
</g>
<g>
	<path id="XMLID_1104_" class="st16" d="M98.8,312c0,0-2.1,2.1,2.1,5.8c4.2,3.8,2.7-5.8,2.7-5.8l-3.6-1.1L98.8,312z"/>
	<path id="XMLID_1103_" class="st9" d="M148.5,341.3c-3-3.3-10-10.4-21.5-13.8c-8.6-2.6-19.2-15.1-19.2-15.1s-13.6,1.5-8.9,17
		c4.7,15.5,1.2,17.5-0.7,22c-1.5,3.5-3.5,10.5-5.1,14.1c-0.1,0.1-0.1,0.2-0.1,0.4c0,0.6,0,1,0.4,1.6c0.2,0.4,0.4,0.7,0.8,0.9l0,0
		c0,0,3.2,2.5,3.7,2.1c4.3-3.2,14.2-14.8,15.6-16.3c1.7-1.8,3.8-14.8,3.8-14.8s6.6,5,14.6,6.4c0,0-6.1,6.7-8.6,8.1
		c-1,0.6-2.5,1.4-3.9,2.2c0.5,1.3,0.8,2.7,1.1,4c5.5-1.2,18.8-6.4,24.1-9.5c1.8-1,3-2,3.9-2.9C148.5,347.9,148.5,341.4,148.5,341.3z
		"/>
	<path class="st17" d="M127,327.5c-3.2-1-6.6-3.3-9.7-5.8v17.8c0.8,0.6,7,5,14.6,6.4c0,0-6.1,6.7-8.6,8.1c-1,0.6-2.5,1.4-3.9,2.2
		c0.5,1.3,0.8,2.7,1.1,4c5.5-1.2,18.8-6.4,24.1-9.5c1.8-1,3-2,3.9-2.9c0,0,0.1-6.5,0-6.5C145.5,338,138.5,331,127,327.5z"/>
	<ellipse id="XMLID_1102_" class="st18" cx="189.6" cy="377.4" rx="98.8" ry="4.7"/>
	<g id="XMLID_1021_">
		<g id="XMLID_1039_">
			<g id="XMLID_1096_">
				<path id="XMLID_1101_" class="st7" d="M213.6,314.3l-4.7-2c-2.7-1.1-3.9-4.2-2.8-6.9l7.1-16.6c1.1-2.7,4.2-3.9,6.9-2.8l4.7,2
					c2.7,1.1,3.9,4.2,2.8,6.9l-7.1,16.6C219.4,314.2,216.3,315.4,213.6,314.3z"/>
				
					<rect id="XMLID_1100_" x="209.7" y="289.2" transform="matrix(0.9201 0.3917 -0.3917 0.9201 134.8257 -61.0314)" class="st19" width="14.6" height="21.4"/>
				<path id="XMLID_1099_" class="st20" d="M222.8,289.6l-3-1.3c-0.1,0-0.1-0.2-0.1-0.3l0,0c0-0.1,0.2-0.1,0.3-0.1l3,1.3
					c0.1,0,0.1,0.2,0.1,0.3l0,0C223.1,289.6,222.9,289.6,222.8,289.6z"/>
				
					<ellipse id="XMLID_1098_" transform="matrix(0.3917 -0.9201 0.9201 0.3917 -157.7122 384.5826)" class="st20" cx="212" cy="311.6" rx="1.3" ry="1.3"/>
				<polygon id="XMLID_1097_" class="st21" points="214.5,287.2 219.5,312.6 227.9,292.9 				"/>
			</g>
			<g id="XMLID_1090_">
				<path id="XMLID_1095_" class="st7" d="M185.6,303.8l-11.1,3.4c-4.3,1.3-8.9-1.1-10.2-5.5l-7.5-24.7c-1.3-4.3,1.1-8.9,5.5-10.2
					l11.1-3.4c4.3-1.3,8.9,1.1,10.2,5.5l7.5,24.7C192.4,297.9,190,302.5,185.6,303.8z"/>
				
					<rect id="XMLID_1094_" x="160.9" y="268.7" transform="matrix(0.957 -0.29 0.29 0.957 -75.3436 62.7781)" class="st19" width="26.5" height="33.8"/>
				
					<ellipse id="XMLID_1093_" transform="matrix(0.957 -0.29 0.29 0.957 -80.3506 65.1423)" class="st20" cx="179.6" cy="303.7" rx="1.3" ry="1.3"/>
				<path id="XMLID_1092_" class="st20" d="M170.1,266.9l-3.1,0.9c-0.1,0-0.2,0-0.3-0.1l0,0c0-0.1,0-0.2,0.1-0.3l3.1-0.9
					c0.1,0,0.2,0,0.3,0.1l0,0C170.2,266.8,170.2,266.9,170.1,266.9z"/>
				<polygon id="XMLID_1091_" class="st21" points="156.6,273.3 191.8,298 181.9,265.6 				"/>
			</g>
			<rect id="XMLID_1089_" x="148.5" y="309.5" class="st22" width="64.4" height="66.5"/>
			<rect id="XMLID_1088_" x="168.8" y="309.5" class="st23" width="64.4" height="66.5"/>
			<rect id="XMLID_1087_" x="195.4" y="309.5" class="st24" width="10" height="66.5"/>
			<polygon id="XMLID_1086_" class="st25" points="242.7,330.8 178.3,330.8 168.8,309.5 233.2,309.5 			"/>
			<polygon id="XMLID_1085_" class="st25" points="137.6,330.8 159.4,330.8 168.8,309.5 147,309.5 			"/>
			<g id="XMLID_1070_">
				<g id="XMLID_1083_">
					<path id="XMLID_1084_" class="st26" d="M223,261.9l-2-0.5l3.2-13.4c2.4-9.9-3.8-19.9-13.7-22.3c-9.9-2.4-19.9,3.8-22.3,13.7
						l-3.2,13.4l-2-0.5l3.2-13.4c2.6-11,13.7-17.9,24.8-15.2c11,2.6,17.9,13.7,15.2,24.8L223,261.9z"/>
				</g>
				<g id="XMLID_1081_">
					<path id="XMLID_1082_" class="st7" d="M191.1,265c-5.3-1.3-8.6-6.6-7.3-11.9c1.3-5.3,6.6-8.6,11.9-7.3"/>
				</g>
				<g id="XMLID_1079_">
					<path id="XMLID_1080_" class="st27" d="M190.9,266.4L190.9,266.4c-0.9-0.2-1.4-1.1-1.2-1.9l4.4-18.5c0.2-0.9,1.1-1.4,1.9-1.2
						l0,0c0.9,0.2,1.4,1.1,1.2,1.9l-4.4,18.5C192.6,266.1,191.7,266.7,190.9,266.4z"/>
				</g>
				<g id="XMLID_1077_">
					
						<ellipse id="XMLID_1078_" transform="matrix(0.2321 -0.9727 0.9727 0.2321 -103.9917 372.9571)" class="st7" cx="184.2" cy="252.3" rx="2.3" ry="2.3"/>
				</g>
				<g id="XMLID_1075_">
					<path id="XMLID_1076_" class="st7" d="M209.3,269.4c5.3,1.3,10.6-2,11.9-7.3c1.3-5.3-2-10.6-7.3-11.9"/>
				</g>
				<g id="XMLID_1073_">
					<path id="XMLID_1074_" class="st27" d="M208.9,270.7L208.9,270.7c0.9,0.2,1.7-0.3,1.9-1.2l4.4-18.5c0.2-0.9-0.3-1.7-1.2-1.9
						l0,0c-0.9-0.2-1.7,0.3-1.9,1.2l-4.4,18.5C207.4,269.7,208,270.5,208.9,270.7z"/>
				</g>
				<g id="XMLID_1071_">
					
						<ellipse id="XMLID_1072_" transform="matrix(0.2321 -0.9727 0.9727 0.2321 -84.2051 415.6506)" class="st7" cx="221.2" cy="261.2" rx="2.3" ry="2.3"/>
				</g>
			</g>
			<g id="XMLID_1066_">
				
					<rect id="XMLID_1069_" x="167.3" y="237.8" transform="matrix(0.8938 0.4485 -0.4485 0.8938 125.5948 -50.454)" class="st26" width="4" height="4.3"/>
				<path id="XMLID_1068_" class="st7" d="M163.4,251.6L163.4,251.6c-1.4-0.7-2-2.5-1.3-3.9l3.7-7.5l5.2,2.6l-3.7,7.5
					C166.6,251.8,164.9,252.4,163.4,251.6z"/>
				<path id="XMLID_1067_" class="st27" d="M164.6,249.4L164.6,249.4c-0.7-0.3-0.9-1.1-0.6-1.8l2.4-4.8l2.4,1.2l-2.4,4.8
					C166,249.4,165.3,249.7,164.6,249.4z"/>
			</g>
			<g id="XMLID_1041_">
				
					<rect id="XMLID_1065_" x="169.3" y="262.5" transform="matrix(0.9585 -0.2852 0.2852 0.9585 -67.9037 59.45)" class="st26" width="1.8" height="0.8"/>
				<g id="XMLID_1058_">
					<g id="XMLID_1063_">
						<path id="XMLID_1064_" class="st7" d="M191.6,207.8L191.6,207.8c2,2.6,1.5,6.3-1,8.3l-4.6,3.6c-2.6,2-6.3,1.5-8.3-1l0,0
							c-2-2.6-1.5-6.3,1-8.3l4.6-3.6C185.9,204.8,189.6,205.3,191.6,207.8z"/>
					</g>
					<g id="XMLID_1061_">
						
							<rect id="XMLID_1062_" x="181.9" y="209.4" transform="matrix(0.7883 -0.6152 0.6152 0.7883 -93.9411 157.5695)" class="st28" width="0.3" height="11.9"/>
					</g>
					<g id="XMLID_1059_">
						
							<rect id="XMLID_1060_" x="177" y="216.9" transform="matrix(0.7882 -0.6154 0.6154 0.7882 -95.4776 156.6393)" class="st28" width="5.6" height="0.3"/>
					</g>
				</g>
				<g id="XMLID_1056_">
					<path id="XMLID_1057_" class="st7" d="M169.6,261.9c0-0.1-2-5.2,4.2-11.4c6.6-6.6,6-16.5,2.8-22.9c-3.6-7.1,1.5-10.2,1.6-10.3
						l0.1,0.2c-0.2,0.1-4.9,3.1-1.5,9.9c3.3,6.5,3.8,16.5-2.8,23.2c-6.1,6.1-4.2,11.1-4.2,11.1L169.6,261.9z"/>
				</g>
				
					<rect id="XMLID_1055_" x="168.8" y="261" transform="matrix(0.9561 -0.293 0.293 0.9561 -69.2729 61.2522)" class="st7" width="2.1" height="1.8"/>
			</g>
		</g>
	</g>
	<path id="XMLID_1014_" class="st29" d="M141.3,296.8c0.7,2,1.7,4,4,4.7c0.4,0.1,0.9-0.1,1.1-0.4c0.8-1.1,0.7-1.2,1.5-1.7
		c1.7-1,4.5,2.6,8.2,2.2c3.6-0.4,12.1-8.4,9.7-13.8c-2.4-5.5-7.3-8-13.6-2.6c-5.4,4.7-6.7,6.5-9.9,8.4
		C141.3,294.1,140.9,295.8,141.3,296.8z"/>
	<path id="XMLID_1012_" class="st30" d="M159,308.8l-1.7-2.7l-19.4,0.3l0,0c-1.7,0.1-3.5,2-3.5,4c0,2.1,1.8,3.7,3.6,3.7
		c0.1,0,1.4-0.3,1.5-0.3l-1.2,0.3l1.4-0.3c0.1,0,0.3-0.1,0.4-0.1L159,308.8z"/>
	<g id="XMLID_1006_">
		<path id="XMLID_1008_" class="st7" d="M120.2,357l-2.9,0.9c-0.7,0.4-1.2,2.4-0.8,3.1l0.7,1l5.1-3L120.2,357z"/>
		<path id="XMLID_1007_" d="M117.3,357.8c0,0-2.3-1.2-3.8-0.1c-1.5,1.1,2.7,12.6,2.7,12.6s0.4,0.4,0.5-0.5l0.6-6
			c0,0,0.7-2.7,0.2-3.8C117.1,359.1,117.3,357.8,117.3,357.8z"/>
	</g>
	<g id="XMLID_1000_">
		<path id="XMLID_1004_" class="st7" d="M94.3,366.2l-1.8,4.7c-0.2,0.8,1.7,2.3,2.5,2.4l1.2,0.2l1.4-5.8L94.3,366.2z"/>
		<path id="XMLID_1002_" d="M92.5,370.8c0,0-2,1.7-1.6,3.5c0.4,1.8,12.7,2.6,12.7,2.6s0.5-0.2-0.2-0.7l-5.3-3c0,0-2.2-1.7-3.4-1.7
			C93.5,371.4,92.5,370.8,92.5,370.8z"/>
	</g>
	<path id="XMLID_998_" class="st27" d="M132.1,292.1c-9.3,0.9-24.9,3.2-33.9,20.7c0,0,7.3,1.7,17.8,10.7s18.1,5.6,22.7,1
		c3.4-3.4,6.2-11.3,7.9-17.2c1.2-4.2,0.2-8.8-2.7-12.1l0,0C140.9,291.7,136.8,291.7,132.1,292.1z"/>
	<polygon id="XMLID_994_" class="st29" points="138,302.9 133.6,314.2 141.1,313.3 144.5,306.8 	"/>
	<circle id="XMLID_992_" class="st29" cx="151.6" cy="286.2" r="3.1"/>
	<polygon id="XMLID_981_" class="st12" points="162.8,292.5 161.2,298.5 158.2,296.7 	"/>
	
		<ellipse id="XMLID_979_" transform="matrix(0.7194 -0.6946 0.6946 0.7194 -158.3262 193.5414)" class="st13" cx="160.4" cy="292.7" rx="0.7" ry="0.4"/>
	
		<ellipse id="XMLID_977_" transform="matrix(0.7194 -0.6946 0.6946 0.7194 -159.6291 196.1649)" class="st13" cx="163" cy="295.6" rx="0.7" ry="0.4"/>
	<path id="XMLID_975_" class="st13" d="M154.1,283.8c0,0-2.3,4.9-0.4,5.5c1.9,0.6,3.9,2.7,3.8,4.7c-0.1,2.1-0.4,4.4,2.8,5.5
		c0,0-1.2,4-6.6,3.2c-5.4-0.8-9.1-7.5-4.3-14.3L154.1,283.8z"/>
	<g id="XMLID_965_">
		<g id="XMLID_968_">
			<path id="XMLID_969_" class="st31" d="M156,296.4c0,0,0.2-0.8,0.1-1.4c-0.1-0.6-0.5-1.1-1.2-1c-0.8,0.1-1.1,0.9-1.4,1.9
				c-0.1,0.6,0,2.4,0.7,3.2c0.7,0.8,1.2,1.3,1.9,1.3c0.7,0.1,1.2-0.6,1.3-1.2c0.1-0.6-0.3-1-0.6-1.2
				C156.5,297.9,155.9,297.4,156,296.4z"/>
		</g>
		<g id="XMLID_966_">
			<path id="XMLID_967_" class="st16" d="M153.9,294.9c0,0,0.6,0.6,0.7,1.7c0.1,1.2-0.2,1.7-0.6,2.3c0,0-0.7-1.2-0.6-2.5
				C153.5,295.4,153.9,294.9,153.9,294.9z"/>
		</g>
	</g>
	<path id="XMLID_964_" class="st13" d="M156.6,282.6c0,0,6.3-1,6.3,6.7s9.9,7,10.8-1c0.7-6.7-6.3-8.3-9.2-6.7
		c-0.7,0.4-1.5,0.4-2.2,0.1C161.1,281.3,159.2,281,156.6,282.6z"/>
	
		<linearGradient id="XMLID_14_" gradientUnits="userSpaceOnUse" x1="189.4269" y1="-16127.5107" x2="189.4269" y2="-16034.4463" gradientTransform="matrix(1 0 0 -1 0 -15818)">
		<stop  offset="0.2211" style="stop-color:#FFFFFF;stop-opacity:0"/>
		<stop  offset="1" style="stop-color:#FFFFFF"/>
	</linearGradient>
	<polygon id="XMLID_963_" class="st32" points="233.3,309.5 257.3,216.4 121.5,216.4 147.1,309.5 	"/>
	<path id="XMLID_961_" class="st29" d="M157.1,309.1l-0.6-2.9l-20.5,5.2l0,0c-1.6,0.4-3,2.7-2.6,4.7c0.4,2.1,2.6,3.2,4.3,2.8
		c0.1,0,1.3-0.6,1.4-0.6l-1.1,0.6l1.3-0.6c0.1-0.1,0.3-0.1,0.4-0.2L157.1,309.1z"/>
	<path id="XMLID_957_" class="st29" d="M157.1,309.1l0.6,0.4l4.7,0c-0.1-0.3-0.3-0.6-0.5-0.8l-0.9-1.1c-0.3-0.3-0.6-0.6-0.9-0.8
		l-0.6-0.3c-0.7-0.4-1.5-0.5-2.2-0.4l-0.8,0.1L157.1,309.1z"/>
</g>
<g>
	<path class="st33" d="M171.8,514c-2-0.3-4-0.4-5.9-0.5c-1.9-0.1-3.8-0.1-5.7-0.1c-5.2,0-10.6,0.5-16.1,1.5c0.2-0.8,0.4-1.5,0.7-2.1
		c0.2-0.6,0.5-1.3,0.7-2c0.2-0.7,0.4-1.6,0.5-2.6c0.1-1,0.2-2.3,0.2-3.8c0-1.6-0.1-3.1-0.3-4.5c-0.2-1.4-0.6-2.7-1-3.8
		c-0.5-1.1-1-2-1.7-2.6c-0.7-0.7-1.5-1-2.3-1c-1,0-1.8,0.3-2.5,0.9c-0.7,0.6-1.2,1.4-1.6,2.4c-0.4,1-0.7,2.2-0.9,3.5
		c-0.2,1.3-0.3,2.7-0.3,4.2s0.1,2.8,0.3,3.8c0.2,1.1,0.4,2,0.6,2.8s0.5,1.5,0.7,2.1c0.2,0.6,0.4,1.2,0.5,1.8
		c-2.3-0.3-4.5-0.5-6.7-0.6c-2.2-0.1-4.4-0.2-6.5-0.2s-4.3,0.1-6.5,0.2c-2.2,0.1-4.4,0.3-6.8,0.6c2-5.9,3.8-11.8,5.4-17.6
		c1.5-5.8,2.8-11.7,3.9-17.6s2-11.8,2.6-17.9c0.7-6,1.2-12.2,1.5-18.5c2.4,0.3,5.1,0.6,8,0.7c2.9,0.1,5.9,0.2,9,0.2
		c2.6,0,5.1-0.1,7.6-0.2c2.4-0.1,4.7-0.4,6.8-0.8c0.2,6.3,0.8,12.5,1.8,18.5c1,6.1,2.1,12.1,3.6,18.1s3.1,11.9,4.9,17.7
		C167.8,502.5,169.8,508.3,171.8,514z M144.2,475.7c-0.1-0.6-0.3-1.5-0.6-2.8c-0.3-1.1-0.7-2.4-1.3-4.2c-0.6-1.7-1.5-4-2.6-6.7
		c-0.3,1.7-0.6,3.2-0.9,4.6c-0.3,1.3-0.6,2.5-0.9,3.6c-0.3,1.1-0.6,2-0.8,2.9s-0.3,1.7-0.3,2.5c0,1.6,0.4,2.9,1.2,3.8
		c0.8,0.9,1.6,1.4,2.6,1.4c1,0,1.9-0.5,2.6-1.5S144.1,477.2,144.2,475.7z"/>
	<path class="st33" d="M226.4,494.2c0,3.6-0.8,6.8-2.3,9.3s-3.6,4.7-6.1,6.3c-2.5,1.6-5.4,2.8-8.7,3.6c-3.3,0.8-6.6,1.2-10.1,1.4
		c-2.2-0.1-4.3-0.1-6.3-0.2c-0.9,0-1.7-0.1-2.6-0.1s-1.8,0-2.6-0.1c-0.8,0-1.6,0-2.4,0s-1.4,0-1.9,0c-2.2,0.1-4.4,0.1-6.7,0.1
		c-2.3,0-4.6,0.1-6.8,0.3c1.5-2,2.7-4.6,3.6-7.7c0.9-3.1,1.7-6.5,2.2-10.1c0.5-3.6,0.9-7.3,1.1-11.1s0.3-7.4,0.3-10.7
		c0-1.4,0-3.1-0.1-5.2c0-2-0.1-4.2-0.3-6.5c-0.1-2.3-0.3-4.6-0.5-6.9c-0.2-2.3-0.6-4.5-1-6.5s-0.9-3.8-1.5-5.4
		c-0.6-1.5-1.3-2.6-2.1-3.3c2.4,0.4,4.7,0.6,6.9,0.7c2.2,0.1,4.1,0.2,5.7,0.2c1.4,0,2.6,0,3.7-0.1c1.1,0,2.2-0.1,3.2-0.2
		c1.1-0.1,2.1-0.1,3.3-0.2c1.1,0,2.4-0.1,3.8-0.1c2.2,0,4.3,0.2,6.5,0.4c2.2,0.2,4.3,0.6,6.3,1.1c2,0.5,3.9,1.2,5.6,2.1
		c1.7,0.9,3.2,2.1,4.5,3.5c1.3,1.4,2.3,3.2,3,5.2c0.7,2,1.1,4.4,1.1,7.2c0,1.5-0.2,3-0.6,4.4c-0.4,1.5-1,2.9-1.8,4.3
		c-0.8,1.4-1.9,2.8-3.3,4.1c-1.4,1.3-3,2.5-5,3.6c4.2,1.7,7.3,4,9.1,6.7C225.5,487.4,226.4,490.6,226.4,494.2z M203.8,496.6
		c0-1.2-0.2-2.4-0.5-3.6c-0.4-1.2-0.8-2.4-1.5-3.6s-1.3-2.3-2.1-3.4c-0.8-1.1-1.6-2.1-2.4-3.1c-0.5,1.5-0.8,2.9-1,4.4
		c-0.1,1.4-0.2,2.7-0.2,3.9c0,1.7,0.1,3.1,0.3,4.3c0.2,1.1,0.6,2,1,2.7c0.4,0.7,0.9,1.2,1.5,1.5c0.6,0.3,1.2,0.4,1.9,0.4
		c0.8,0,1.5-0.3,2.1-0.9S203.8,497.7,203.8,496.6z M197,472c0.7-0.5,1.4-1.2,2.3-2c0.9-0.8,1.7-1.8,2.5-2.8c0.8-1,1.5-2,2-3.1
		s0.8-2.1,0.8-3.1c0-1.1-0.3-1.9-0.9-2.6c-0.6-0.7-1.3-1-2-1c-1.1,0-1.9,0.5-2.5,1.4c-0.6,1-1.1,2.1-1.5,3.4
		c-0.3,1.3-0.6,2.6-0.7,3.9c-0.1,1.3-0.2,2.4-0.2,3.2c0,0.4,0,0.8,0,1.3C196.9,471.1,196.9,471.5,197,472z"/>
	<path class="st33" d="M285.1,480.4c0,5-0.6,9.7-1.7,14.1c-1.1,4.4-2.8,8.2-5.1,11.5c-2.3,3.3-5.1,5.9-8.6,7.7
		c-3.5,1.9-7.6,2.8-12.3,2.8c-4.7,0-8.8-0.9-12.3-2.8c-3.5-1.9-6.3-4.5-8.6-7.7c-2.3-3.3-4-7.1-5.1-11.5c-1.1-4.4-1.7-9.1-1.7-14.1
		c0-3.7,0.3-7.2,1-10.7c0.7-3.4,1.6-6.6,2.9-9.6c1.2-3,2.7-5.7,4.4-8.1c1.7-2.4,3.6-4.5,5.6-6.2c2.1-1.7,4.2-3.1,6.6-4
		c2.3-1,4.7-1.4,7.2-1.4c4.1,0,7.9,1,11.3,3c3.4,2,6.3,4.8,8.7,8.4c2.4,3.6,4.3,7.8,5.6,12.7C284.4,469.4,285.1,474.7,285.1,480.4z
		 M264.9,476.1c0-2.5-0.2-4.7-0.6-6.8c-0.4-2.1-0.9-3.9-1.6-5.4c-0.7-1.5-1.5-2.7-2.4-3.6c-0.9-0.9-1.9-1.3-2.9-1.3
		c-1,0-1.9,0.5-2.8,1.6c-0.9,1-1.7,2.4-2.3,4c-0.7,1.6-1.2,3.5-1.6,5.5c-0.4,2-0.6,4.1-0.6,6.1c0,1.9,0.2,3.7,0.5,5.4
		c0.3,1.7,0.8,3.1,1.5,4.3c0.6,1.2,1.4,2.2,2.3,2.9c0.9,0.7,1.9,1.1,3.1,1.1c1.1,0,2.1-0.4,3.1-1.1c0.9-0.7,1.7-1.7,2.4-2.9
		c0.6-1.2,1.1-2.7,1.5-4.3C264.7,479.9,264.9,478.1,264.9,476.1z"/>
	<path class="st33" d="M344.8,442.3c-0.8,3.8-1.4,8.3-1.8,13.6c-0.5,5.3-0.7,11-0.7,17c0,0.9,0,1.7,0,2.5c0,0.8,0,1.6,0.1,2.5
		c0,0.9,0.1,1.7,0.1,2.7c0,0.9,0,1.9,0,3c0,2.2-0.1,4.6-0.3,7.1s-0.6,5-1.2,7.4c-0.6,2.5-1.5,4.8-2.7,7.1c-1.2,2.3-2.7,4.3-4.6,6
		c-1.9,1.7-4.3,3.1-7.1,4.1c-2.8,1-6.2,1.6-10.2,1.6c-3.7,0-6.9-0.4-9.6-1.3c-2.7-0.8-4.9-2-6.8-3.5c-1.9-1.5-3.4-3.2-4.5-5.2
		c-1.2-2-2-4.1-2.7-6.4c-0.6-2.3-1-4.7-1.3-7.1c-0.2-2.5-0.3-4.9-0.3-7.3c0-1.1,0-2,0-2.7c0-0.7,0-1.4,0.1-2c0-0.6,0.1-1.2,0.1-1.8
		c0-0.6,0.1-1.4,0.1-2.2c0-0.9,0.1-1.9,0.1-3.1c0-1.2,0-2.7,0-4.5c0-2.2,0-4.7-0.1-7.5c-0.1-2.8-0.3-5.5-0.5-8.3
		c-0.3-2.7-0.6-5.2-1.1-7.4c-0.5-2.3-1.1-3.9-1.9-5.1c3.3,0.6,6.4,1,9.3,1.2c2.9,0.2,5.6,0.3,8.1,0.3c1.6,0,3,0,4.3-0.1
		c1.3-0.1,2.4-0.1,3.3-0.2c1.1-0.1,2-0.2,2.8-0.3c-0.4,2-0.9,4.3-1.3,6.9c-0.4,2.5-0.8,5.2-1.1,8.1c-0.3,2.9-0.6,5.9-0.8,9.1
		s-0.3,6.4-0.3,9.7c0,4.1,0.1,7.4,0.2,10c0.1,2.6,0.4,4.6,0.7,6c0.3,1.4,0.8,2.4,1.3,2.9c0.5,0.5,1.2,0.8,1.9,0.8c1,0,1.9-0.3,2.6-1
		c0.7-0.6,1.3-1.7,1.8-3.3c0.5-1.5,0.8-3.5,1-6c0.2-2.5,0.3-5.6,0.4-9.4c-0.1-5.4-0.2-10.4-0.5-15c-0.1-2-0.2-4-0.4-6
		c-0.2-2-0.4-3.9-0.6-5.7s-0.5-3.4-0.9-4.8c-0.3-1.4-0.7-2.6-1.1-3.4c3.3,0.6,6.3,1,9.1,1.2c2.8,0.2,5.3,0.3,7.5,0.3
		c1.5,0,2.8,0,4-0.1c1.2-0.1,2.2-0.1,3-0.2C343.2,442.5,344,442.4,344.8,442.3z"/>
	<path class="st33" d="M387.7,513.2c-0.8-0.1-1.6-0.1-2.6-0.2c-0.9-0.1-1.9-0.1-3-0.1c-1.2,0-2.5,0-3.9,0c-2.4,0-5.2,0.1-8.2,0.3
		c-3,0.2-6.3,0.5-9.6,1c1.2-4.9,2-9.6,2.6-14.1c0.6-4.5,1-8.5,1.3-12c0.3-4.1,0.5-8,0.6-11.6c0-1.5,0-3.2-0.1-5.1
		c-0.1-1.6-0.1-3.4-0.2-5.5c-0.1-2.1-0.2-4.3-0.4-6.8c-1.5,1.5-3.1,3.1-4.6,4.8c-1.5,1.7-3,3.5-4.4,5.3c-1.4,1.8-2.7,3.7-4,5.5
		c-1.2,1.9-2.3,3.7-3.2,5.5l1.2-37.7c3.1,0.4,6.4,0.6,9.8,0.8c3.4,0.2,6.9,0.3,10.5,0.3c5.1,0,10.2-0.2,15.2-0.5
		c5-0.4,9.6-0.9,13.9-1.6l1.8,38.1c-2.4-4.5-5-8.7-7.9-12.7c-2.9-4-5.9-7.3-9.2-9.9c-0.3,2.2-0.5,4.6-0.6,7c-0.1,2.5-0.2,5-0.2,7.5
		c0,3.3,0.1,6.7,0.3,10.2c0.2,3.5,0.5,7,0.9,10.6c0.4,3.6,0.9,7.1,1.6,10.6C386.1,506.4,386.8,509.9,387.7,513.2z"/>
	<path class="st33" d="M474.1,442.3c-0.8,3.8-1.4,8.3-1.8,13.6c-0.5,5.3-0.7,11-0.7,17c0,0.9,0,1.7,0,2.5c0,0.8,0,1.6,0.1,2.5
		c0,0.9,0.1,1.7,0.1,2.7c0,0.9,0,1.9,0,3c0,2.2-0.1,4.6-0.3,7.1s-0.6,5-1.2,7.4c-0.6,2.5-1.5,4.8-2.7,7.1c-1.2,2.3-2.7,4.3-4.6,6
		c-1.9,1.7-4.3,3.1-7.1,4.1c-2.8,1-6.2,1.6-10.2,1.6c-3.7,0-6.9-0.4-9.6-1.3c-2.7-0.8-4.9-2-6.8-3.5c-1.9-1.5-3.4-3.2-4.5-5.2
		c-1.2-2-2-4.1-2.7-6.4c-0.6-2.3-1-4.7-1.3-7.1c-0.2-2.5-0.3-4.9-0.3-7.3c0-1.1,0-2,0-2.7c0-0.7,0-1.4,0.1-2c0-0.6,0.1-1.2,0.1-1.8
		c0-0.6,0.1-1.4,0.1-2.2c0-0.9,0.1-1.9,0.1-3.1c0-1.2,0-2.7,0-4.5c0-2.2,0-4.7-0.1-7.5s-0.3-5.5-0.5-8.3c-0.3-2.7-0.6-5.2-1.1-7.4
		c-0.5-2.3-1.1-3.9-1.9-5.1c3.3,0.6,6.4,1,9.3,1.2c2.9,0.2,5.6,0.3,8.1,0.3c1.6,0,3,0,4.3-0.1c1.3-0.1,2.4-0.1,3.3-0.2
		c1.1-0.1,2-0.2,2.8-0.3c-0.4,2-0.9,4.3-1.3,6.9c-0.4,2.5-0.8,5.2-1.1,8.1c-0.3,2.9-0.6,5.9-0.8,9.1s-0.3,6.4-0.3,9.7
		c0,4.1,0.1,7.4,0.2,10c0.1,2.6,0.4,4.6,0.7,6c0.3,1.4,0.8,2.4,1.3,2.9c0.5,0.5,1.2,0.8,1.9,0.8c1,0,1.9-0.3,2.6-1
		c0.7-0.6,1.3-1.7,1.8-3.3c0.5-1.5,0.8-3.5,1-6c0.2-2.5,0.3-5.6,0.4-9.4c-0.1-5.4-0.2-10.4-0.5-15c-0.1-2-0.2-4-0.4-6
		c-0.2-2-0.4-3.9-0.6-5.7c-0.2-1.8-0.5-3.4-0.9-4.8c-0.3-1.4-0.7-2.6-1.1-3.4c3.3,0.6,6.3,1,9.1,1.2c2.8,0.2,5.3,0.3,7.5,0.3
		c1.5,0,2.8,0,4-0.1c1.2-0.1,2.2-0.1,3-0.2C472.6,442.5,473.4,442.4,474.1,442.3z"/>
	<path class="st33" d="M528.7,457.1c0,1.6-0.3,3.1-0.9,4.5c-0.6,1.3-1.5,2.5-2.5,3.4c-1.1,1-2.4,1.7-3.8,2.2c-1.5,0.5-3,0.8-4.8,0.8
		c-1.9,0-3.5-0.2-4.8-0.7c-1.3-0.5-2.5-1-3.4-1.8s-1.6-1.5-2.1-2.4c-0.5-0.9-0.9-1.7-1.2-2.5c-0.3-0.8-0.5-1.6-0.5-2.3
		s-0.1-1.2-0.1-1.6c0.4,0.7,0.9,1.1,1.4,1.3s1,0.3,1.3,0.3c0.9,0,1.6-0.2,1.9-0.7c0.4-0.5,0.6-1,0.6-1.6c0-0.4-0.1-0.7-0.2-1.1
		c-0.1-0.4-0.4-0.8-0.8-1.1c-0.4-0.3-0.9-0.6-1.5-0.9c-0.6-0.2-1.4-0.3-2.4-0.3c-0.7,0-1.3,0.1-2,0.4c-0.7,0.2-1.3,0.6-1.9,1.1
		c-0.6,0.5-1,1.1-1.4,1.9c-0.4,0.8-0.5,1.6-0.5,2.7c0,1,0.2,2,0.6,2.9c0.4,1,1,1.9,1.7,2.7c0.7,0.9,1.5,1.6,2.5,2.3s2,1.3,3.2,1.7
		c1.8,0.8,3.7,1.5,5.6,2.2s3.8,1.5,5.6,2.4c1.8,0.9,3.5,1.8,5.1,2.9s3,2.4,4.2,3.9c1.2,1.5,2.2,3.3,2.9,5.3s1.1,4.4,1.1,7.1
		c0,3.8-0.8,7.4-2.3,10.5c-1.6,3.2-3.6,5.9-6.3,8.1c-2.6,2.3-5.6,4-9.1,5.2c-3.4,1.2-7,1.8-10.8,1.8c-3.4,0-6.6-0.5-9.7-1.5
		s-5.7-2.4-8-4.1c-2.3-1.7-4.1-3.8-5.5-6.1c-1.4-2.4-2-4.9-2-7.6c0-2,0.3-3.8,1-5.3c0.7-1.5,1.6-2.8,2.7-3.8c1.2-1,2.5-1.8,4.1-2.2
		s3.2-0.7,5-0.7c1.4,0,2.7,0.1,4.1,0.4c1.3,0.3,2.6,0.7,3.7,1.3c1.2,0.6,2.2,1.3,3.2,2.1c0.9,0.8,1.7,1.8,2.2,2.8
		c-0.7-0.2-1.3-0.3-1.8-0.3c-0.9,0-1.6,0.3-2.1,0.8c-0.5,0.5-0.8,1.3-0.8,2.4c0,0.6,0.1,1.1,0.4,1.6c0.3,0.5,0.6,0.9,1,1.3
		c0.4,0.4,0.9,0.6,1.4,0.8c0.5,0.2,1.1,0.3,1.7,0.3c0.7,0,1.3-0.1,1.8-0.4c0.6-0.3,1.1-0.6,1.5-1.1c0.4-0.5,0.8-1,1-1.5
		c0.2-0.6,0.3-1.1,0.3-1.7c0-1.2-0.4-2.3-1.1-3.5s-1.7-2.2-3.1-3.2c-2.6-1.6-5-2.9-7.3-4.1c-2.3-1.2-4.4-2.2-6.3-3.3
		c-1.9-1-3.6-2.1-5.2-3.1c-1.5-1.1-2.8-2.3-3.9-3.7c-1.1-1.4-1.9-3-2.4-4.9c-0.6-1.9-0.8-4.1-0.8-6.7c0-3.2,0.6-6.1,1.8-8.9
		c1.2-2.8,3-5.2,5.3-7.2c2.3-2.1,5.2-3.7,8.5-4.9c3.4-1.2,7.2-1.8,11.4-1.8c4.3,0,8,0.5,10.9,1.6c3,1,5.4,2.4,7.3,4
		c1.9,1.6,3.2,3.5,4,5.5C528.3,453.2,528.7,455.2,528.7,457.1z"/>
</g>
<g id="XMLID_469_">
	<g id="XMLID_754_">
		<g>
			<g id="XMLID_45_">
				<g id="XMLID_46_">
					<g id="XMLID_47_">
						<path class="st34" d="M552.1,347.7c3.2,0.4,5.4-0.5,8.5,0.2c0.1-2.6,0.2-4.4,1-6.2c1.4-3.1,7-8.2,7.3-9.2
							c0.3-0.9-0.3-1.1-0.5-1.8c-0.1-0.7,0.6-1.2,0.4-1.8c-0.2-0.6-0.6-0.3-1.2-1c-0.5-0.7,0.4-1.4-0.3-2.2
							c-0.7-0.8-2.1,0.1-2.2-0.8s2.8-4.1,4.5-5.7c1.7-1.6,1.6-2.4,1.4-2.5c-0.2-0.2-0.9-1.2-3.4-0.1c-2.5,1.1-5.5,6.5-6.6,8
							c-1.1,1.4-5.7,7.3-6.9,5.1s2.3-5.1,2.3-5.1c0.8-0.8,0.8-1.6,0.6-1.9c-0.2-0.3-1.7-1.3-3.4,0.7c-1.7,1.8-5.1,4.7-2,18.7
							C552.2,344.1,552.2,345.9,552.1,347.7L552.1,347.7z"/>
					</g>
				</g>
			</g>
			<g id="XMLID_44_">
				<path class="st34" d="M491.2,345c0,0-0.5,28.4,31.4,34.6c38.2,7.4,38.1-33.6,38.1-33.6l-8.6,0c0,0-2.7,20.6-24.3,17.2
					c-15-2.4-14.4-23.2-14.4-23.2L491.2,345z"/>
			</g>
		</g>
	</g>
	<g id="XMLID_737_">
		<g id="XMLID_747_">
			<g id="XMLID_752_">
				<path id="XMLID_753_" class="st7" d="M546,472.2l-7.9,8.8c-1.1,1.3,1.7,2.4,3.1,3.5l-1,5.2l11.1-12.6L546,472.2z"/>
			</g>
			<g id="XMLID_750_">
				<path id="XMLID_751_" d="M543.3,480.2c-2.8-1-6,0-7.2,2.7c-0.4,0.8-0.6,1.7-0.5,2.6c0.3,4.1,27.1,9.8,27.1,9.8s1.1-0.3-0.3-1.5
					l-10.7-8.4c0,0-4.2-4.4-7-4.8C544.2,480.5,543.7,480.3,543.3,480.2z"/>
			</g>
			<g id="XMLID_748_">
				<path id="XMLID_749_" class="st35" d="M581.7,410.9c-9.5-2.1-40.9-9.9-66.7-0.9c-4.4,1.5-8.9,1.7-16,1.6
					c-0.7,10.3,3.3,24,7.3,33.8c11.9,0.6,33,0.7,44.4-4.8c0,0-2.2,20.1-4.9,25.9c-1.1,2.4-2.7,5.8-4.1,9.1c2.6,1.7,5.3,2.8,7.6,4.8
					c8.3-9.3,31.6-35.1,37.1-47.5C593.2,417.9,588.8,412.5,581.7,410.9z"/>
			</g>
		</g>
		<g id="XMLID_740_">
			<g id="XMLID_745_">
				<path id="XMLID_746_" class="st7" d="M518.1,482l-10.3,5.8c-1.5,0.9,0.8,2.8,1.8,4.3l-2.6,4.6l14.6-8.3L518.1,482z"/>
			</g>
			<g id="XMLID_743_">
				<path id="XMLID_744_" d="M512.9,488.7c-2.3-1.9-5.7-2-7.7,0.2c-0.6,0.6-1.1,1.4-1.4,2.3c-1.1,4,22.5,18,22.5,18s1.2,0.1,0.2-1.6
					l-7.4-11.4c0,0-2.6-5.5-5.1-6.8C513.6,489.2,513.2,489,512.9,488.7z"/>
			</g>
			<g id="XMLID_741_">
				<path id="XMLID_742_" class="st9" d="M571.6,435.5c-8.3-5.1-35.5-22.6-62.8-22.5c-4.7,0-9-1.3-15.7-3.7
					c-3.9,9.5-4.6,23.8-4.1,34.4c11,4.4,31,11.4,43.6,9.9c0,0-8.5,18.3-13,23c-1.8,1.9-4.4,4.7-6.9,7.3c1.9,2.5,3.4,5.2,5.1,7.8
					c10.9-6.1,41.9-23.8,51.1-33.7C580.3,445.8,577.8,439.3,571.6,435.5z"/>
			</g>
		</g>
		<path id="XMLID_739_" class="st9" d="M476.4,409.4c0,0-7.5,29.3,18.3,36.5c25.7,7.2-1.5-36.5-1.5-36.5H476.4z"/>
		<path id="XMLID_738_" class="st36" d="M498.1,446.4c-13.5-5.9-5.3-26.6,8.4-21.2c1.6,0.6,3.3,1.5,5,2.8
			c16.5,12.2,27.7,7.7,33.2,12c5.4,4.3,0.9,13.3-14.4,13.7C521.2,454,508.1,450.8,498.1,446.4z"/>
	</g>
	<path id="XMLID_736_" class="st27" d="M524.7,336c10.8,11.9,26.6,33.7,21.7,69.7c0,0-19.4-2.8-42.3,18.8
		c-21.3,20.1-30.5,4.9-30.5,4.9s-7.8-57.3,13.3-91.4c3.4-5.6,10-13.2,16.5-13.2h1.5C512.5,324.9,519.6,330.3,524.7,336z"/>
	<ellipse id="XMLID_735_" class="st37" cx="505" cy="331.7" rx="12.2" ry="6.9"/>
	<path id="XMLID_732_" class="st29" d="M499.7,335.7c4.8,1.2,9.9,1.7,14.3-1.8c0.8-0.6,1-1.8,0.6-2.7c-1.2-3-1.5-3-1.3-5.2
		c0.3-4.5,10.8-5.5,14.7-13.1c3.8-7.6-0.8-34-14.5-36.3c-13.7-2.3-24.8,4-22.3,23.1c2.2,16.5,4.2,21.2,3.6,29.9
		C494.5,332.2,497.2,335.1,499.7,335.7z"/>
	<circle id="XMLID_566_" class="st29" cx="492.5" cy="301.2" r="6.8"/>
	<path id="XMLID_554_" class="st38" d="M494.9,285.5c4.1-2.9,9.6-3.2,14.1-1c2.6,1.3,7.2,2.7,14.1,1.5c10.9-1.7,9.7-18-1.9-18.3
		c-2.7-0.1-5.4,0.8-7.7,2.4c-1.2,0.8-2.5,1.8-3.5,3.1c0,0-5.4-7.5-15.7-3.8c-10.4,3.7-8.3,18-2.9,19.7
		C491.3,289.1,492.4,287.3,494.9,285.5z"/>
	<ellipse id="XMLID_539_" class="st38" cx="510.1" cy="294.8" rx="1.4" ry="2.2"/>
	<ellipse id="XMLID_533_" class="st38" cx="522.9" cy="294.8" rx="1.4" ry="2.2"/>
	<circle id="XMLID_526_" class="st14" cx="507.8" cy="295.6" r="8"/>
	<circle id="XMLID_524_" class="st14" cx="525.8" cy="295.6" r="8"/>
	<polygon id="XMLID_520_" class="st12" points="517,289.1 522.9,304.7 515.8,304.7 	"/>
	<line id="XMLID_517_" class="st14" x1="520.6" y1="289.5" x2="513" y2="289.5"/>
	<line id="XMLID_515_" class="st14" x1="490.8" y1="293.8" x2="501.2" y2="291.2"/>
	<circle id="XMLID_513_" class="st39" cx="513.2" cy="312.7" r="3.1"/>
	<g id="XMLID_471_">
		<g id="XMLID_487_">
			<path id="XMLID_507_" class="st38" d="M554,336.9L554,336.9c-0.7-0.4-0.8-1.3-0.4-2l12.8-19.5c0.4-0.7,1.3-0.8,2-0.4h0
				c0.7,0.4,0.8,1.3,0.4,2L556,336.5C555.5,337.2,554.7,337.4,554,336.9z"/>
			<g id="XMLID_499_">
				<path id="XMLID_501_" class="st29" d="M552.1,354.3c3.2,0.2,5.4-0.9,8.5-0.4c-0.1-2.6-0.1-4.4,0.6-6.2c1.2-3.2,6.4-8.7,6.6-9.7
					c0.2-1-0.4-1-0.6-1.7c-0.2-0.7,0.5-1.2,0.3-1.8c-0.2-0.6-0.6-0.2-1.2-0.9c-0.6-0.7,0.3-1.4-0.4-2.2c-0.7-0.7-2.1,0.2-2.3-0.7
					c-0.1-0.9,2.5-4.3,4-6c1.5-1.7,1.4-2.5,1.2-2.6c-0.2-0.2-0.9-1.1-3.4,0.2c-2.4,1.3-5.1,6.9-6,8.4c-1,1.5-5.2,7.7-6.5,5.6
					c-1.3-2.1,2-5.2,2-5.2c0.8-0.8,0.7-1.7,0.5-1.9c-0.2-0.3-1.8-1.1-3.4,0.9c-1.5,1.9-4.7,5-0.6,18.8
					C551.9,350.7,552.1,352.5,552.1,354.3L552.1,354.3z"/>
			</g>
		</g>
		<path id="XMLID_473_" class="st29" d="M491.2,355.9c0,0,1.5,28.4,33.8,32.3c38.6,4.6,35.6-36.2,35.6-36.2l-8.6,0.6
			c0,0-1.3,20.7-23,18.9c-15.2-1.3-16.1-22.1-16.1-22.1L491.2,355.9z"/>
	</g>
</g>
<path class="st40" d="M402.6,162.1c-4.3-19.7-30.1-30.8-57.7-24.8s-46.5,26.8-42.2,46.4c4.3,19.7,30.1,30.8,57.7,24.8
	c6.8-1.5,13-3.8,18.5-6.8l18.8,4.8l-8.7-11.7C399.6,185.7,405.1,173.7,402.6,162.1z"/>
</svg>
