<?xml version="1.0" encoding="utf-8"?>
<!-- Generator: Adobe Illustrator 21.0.0, SVG Export Plug-In . SVG Version: 6.00 Build 0)  -->
<svg version="1.1" id="Layer_1" xmlns="http://www.w3.org/2000/svg" xmlns:xlink="http://www.w3.org/1999/xlink" x="0px" y="0px"
	 viewBox="0 0 808 800" style="enable-background:new 0 0 808 800;" xml:space="preserve">
<style type="text/css">
	.st0{fill:url(#SVGID_1_);}
	.st1{fill:#F4C74A;}
	.st2{opacity:0.4;}
	.st3{fill:#333333;}
	.st4{font-family:'SpicyRice-Regular';}
	.st5{font-size:21.5949px;}
	.st6{opacity:0.3;}
	.st7{fill:#FFFFFF;}
	.st8{fill:#FFFFFF;stroke:#FFFFFF;stroke-miterlimit:10;}
	.st9{fill:#FFCB9C;}
	.st10{fill:#36A9E1;}
	.st11{fill:#1D71B8;}
	.st12{fill:#1B364F;}
	.st13{opacity:0.38;fill:#274F6D;}
	.st14{fill:#FF6252;}
	.st15{fill:#CE3E3E;}
	.st16{fill:#FF7D7D;}
	.st17{fill:none;stroke:#1D1D1B;stroke-miterlimit:10;}
	.st18{fill:#F9B233;}
	.st19{fill:#7D4E24;}
	.st20{fill:#CBBBA0;}
	.st21{fill:#3C3C3B;}
	.st22{fill:#FBB03B;}
	.st23{font-size:95.0095px;}
</style>
<g>
	<g>
		<linearGradient id="SVGID_1_" gradientUnits="userSpaceOnUse" x1="427.9935" y1="627.0451" x2="426.7231" y2="88.1529">
			<stop  offset="9.732377e-02" style="stop-color:#4A69BD"/>
			<stop  offset="0.3504" style="stop-color:#368BAF"/>
			<stop  offset="0.6011" style="stop-color:#27A6A5"/>
			<stop  offset="0.8239" style="stop-color:#1DB69E"/>
			<stop  offset="0.9959" style="stop-color:#1ABC9C"/>
		</linearGradient>
		<path class="st0" d="M697,436.8c0,113.5-156.9,146.6-284.2,146.6c-133,0-254.7-10-254.7-140s87.3-304.1,220.3-304.1
			S697,356.6,697,436.8z"/>
		<path class="st1" d="M158.1,443.5c0-129.3,86.4-302.4,218.2-304.1c-0.5,0-1.1,0-1.6,0c-176.2,0-254.7,179.5-254.7,306.9
			s121.7,137.2,254.7,137.2c4.7,0,9.4,0,14.1-0.1C265.5,581.8,158.1,565.6,158.1,443.5z"/>
	</g>
	<g class="st2">
		<text transform="matrix(4.422 0 0 -1 230.6338 550.9258)" class="st3 st4 st5">ARTICLE</text>
	</g>
	<g id="XMLID_1895_" class="st6">
		<path id="XMLID_1898_" class="st7" d="M406.7,210.2h56.5c0,0-2.8-6.9-6.4-7.2c-3.5-0.3-4.5,1.9-5.6,1.6c-1.1-0.2-3-5.9-7.5-6.1
			c-4.5-0.3-6.3,3.9-8.8,4.7c-2.5,0.8-7.3,0.3-11.2-5.8c-3.8-6.1-11,0.5-11.2,5.2c-0.3,7.3-11.4,3.3-11.4,7.5H406.7z"/>
		<path id="XMLID_1897_" class="st8" d="M536.3,308.1h-56.5c0,0,2.8-7.1,6.4-7.3c3.5-0.3,4.5,1.8,5.6,1.6c1.1-0.2,3-5.9,7.5-6.2
			c4.5-0.3,6.3,3.9,8.8,4.7c2.5,0.8,7.3,0.3,11.2-5.8c3.8-6.1,11,0.7,11.2,5.4c0.3,7.3,11.4,3.5,11.4,7.7H536.3z"/>
		<path id="XMLID_1896_" class="st7" d="M283.6,288.1h-56.5c0,0,2.8-6.9,6.4-7.2c3.5-0.3,4.5,1.9,5.6,1.6c1.1-0.2,3-5.9,7.5-6.1
			c4.5-0.3,6.3,3.9,8.8,4.7c2.5,0.8,7.3,0.3,11.2-5.8c3.8-6.1,11,0.5,11.2,5.2c0.3,7.3,11.4,3.3,11.4,7.5H283.6z"/>
	</g>
	<g>
		<path id="XMLID_1894_" class="st9" d="M415.4,314.2c0,0,37.4,17.6,32.4,58.2l-6.4-0.1c0,0-6.9-31.4-31.3-39.1L415.4,314.2z"/>
		<path id="XMLID_1893_" class="st10" d="M387.3,298.5c0,0,28.9,11,43.6,34l-21.3,8.4L387.3,298.5z"/>
		<circle id="XMLID_1892_" cx="373.1" cy="246.2" r="4.7"/>
		<circle id="XMLID_1891_" cx="369.7" cy="249.8" r="4.7"/>
		<ellipse id="XMLID_1890_" class="st11" cx="351.8" cy="389.2" rx="12" ry="5.4"/>
		<g id="XMLID_1880_">
			<g id="XMLID_1887_">
				<polygon id="XMLID_1889_" class="st7" points="387.6,467.4 385.5,476.9 379.7,476.2 379.7,465.2 				"/>
				<path id="XMLID_1888_" d="M379.7,475.5c0,0-3.5,4-2.1,7.6c1.4,3.6,26.5,0.9,26.5,0.9s0.9-0.6-0.7-1.3l-11.7-4.3
					c0,0-5-2.7-7.5-2.3C382.1,476.5,379.7,475.5,379.7,475.5z"/>
			</g>
			<g id="XMLID_1884_">
				<polygon id="XMLID_1886_" class="st7" points="359,467.4 361,476.9 366.9,476.2 366.9,465.2 				"/>
				<path id="XMLID_1885_" d="M366.8,475.5c0,0,3.5,4,2.1,7.6c-1.4,3.6-26.5,0.9-26.5,0.9s-0.9-0.6,0.7-1.3l11.7-4.3
					c0,0,5-2.7,7.5-2.3C364.4,476.5,366.8,475.5,366.8,475.5z"/>
			</g>
			<path id="XMLID_1883_" class="st12" d="M411,366.9c0,0-7.2,69.1-22.4,103.9h-11.5l-2-60l-6.1,60h-11.7c0,0-19.3-45.1-12.8-99.1
				C351,317.7,411,366.9,411,366.9z"/>
			<path id="XMLID_1882_" class="st13" d="M408.5,385.3c0,0-6.3-6.5-14.2,0.9c-7.9,7.4,0.9,17.7-2.1,26.2c-3,8.5-0.8,18,8.2,19.4
				C400.4,431.9,406.6,408.3,408.5,385.3z"/>
			<path id="XMLID_1881_" class="st13" d="M343.4,403.6c0,0,8.1-6.1,17.6,1.8c9.5,7.9-0.1,20.9-5.1,26c-5,5.1,3.4,16.2-5.2,18.6
				C350.8,450,344,427.9,343.4,403.6z"/>
		</g>
		<path id="XMLID_1879_" class="st10" d="M339.9,389.5c0,0,10-15.5,39.1,7.8c29.1,23.3,35.4,2,35.4,2s6.5-93.3-35.1-104.2
			C379.3,295.1,329.3,297.7,339.9,389.5z"/>
		<ellipse id="XMLID_1878_" class="st11" cx="377.1" cy="300.7" rx="10.2" ry="5.6"/>
		<circle id="XMLID_1877_" cx="390.3" cy="277.9" r="4.7"/>
		<circle id="XMLID_1876_" cx="387" cy="282.9" r="4.7"/>
		<circle id="XMLID_1875_" cx="396.1" cy="271.8" r="4.7"/>
		<circle id="XMLID_1874_" cx="399.1" cy="265.6" r="4.7"/>
		<circle id="XMLID_1873_" cx="400.9" cy="259.1" r="4.7"/>
		<g id="XMLID_1867_">
			<path id="XMLID_1872_" class="st9" d="M358.1,268.7c-0.5,6.3,0.4,12.2,9.3,17.6c0,0,4.3,5.5,2,12c-2.2,6.5,16.2,8.3,14.5-1.3
				c-0.1-0.6-0.2-1.3-0.2-1.9c-0.6-9,4.7-18.2,8.5-23.5c4.1-5.7,4.2-18.5-2.9-23.5c-2.8-2-10.4-2.2-15.5-0.4
				C365.1,250.9,358.8,259.5,358.1,268.7z"/>
			<polygon id="XMLID_1871_" class="st14" points="370.5,254.8 365.5,267.7 372.5,267.8 			"/>
			<path id="XMLID_1870_" class="st9" d="M392.7,267.1c0,0,3-0.7,4,2.6c1,3.3-4.3,9.3-6.3,5.9C388.4,272.2,392.7,267.1,392.7,267.1z
				"/>
			
				<ellipse id="XMLID_1869_" transform="matrix(0.2531 -0.9674 0.9674 0.2531 21.4018 547.4714)" cx="365.3" cy="259.9" rx="1.3" ry="0.9"/>
			
				<ellipse id="XMLID_1868_" transform="matrix(0.2531 -0.9674 0.9674 0.2531 29.2936 558.8158)" cx="376.6" cy="260.4" rx="1.3" ry="0.9"/>
		</g>
		<g id="XMLID_1862_">
			<g id="XMLID_1865_">
				<path id="XMLID_1866_" class="st15" d="M370.5,272.6c0,0-1.8-1-3.4-1c-1.5,0-3,0.6-3.3,2.6c-0.3,1.9,1.7,3.3,4,4.4
					c1.4,0.7,6,1.3,8.5,0.1c2.5-1.3,3.7-2.3,4.2-4c0.5-1.7-0.9-3.4-2.2-3.8c-1.3-0.5-2.7,0.2-3.3,0.8
					C374.4,272.2,372.9,273.5,370.5,272.6z"/>
			</g>
			<g id="XMLID_1863_">
				<path id="XMLID_1864_" class="st16" d="M365.5,277.3c0,0,1.8-1.2,4.7-0.9c2.9,0.3,4.1,1.4,5.4,2.6c0,0-3.3,1-6.4,0.1
					C366.6,278.4,365.5,277.3,365.5,277.3z"/>
			</g>
		</g>
		<circle id="XMLID_1861_" class="st17" cx="362.3" cy="257.9" r="6"/>
		<circle id="XMLID_1860_" class="st17" cx="377.5" cy="257.9" r="6"/>
		<line id="XMLID_1859_" class="st17" x1="367.9" y1="255.8" x2="371.5" y2="255.8"/>
		<line id="XMLID_1858_" class="st17" x1="395" y1="263.3" x2="383.5" y2="257.3"/>
		<circle id="XMLID_1857_" cx="382.3" cy="242.9" r="4.7"/>
		<circle id="XMLID_1856_" cx="375.2" cy="245" r="4.7"/>
		<circle id="XMLID_1855_" cx="388.7" cy="246.6" r="4.7"/>
		<circle id="XMLID_1854_" cx="390.3" cy="253.2" r="4.7"/>
		<circle id="XMLID_1853_" cx="396.1" cy="249" r="4.7"/>
		<circle id="XMLID_1852_" cx="399.1" cy="253.2" r="4.7"/>
		<circle id="XMLID_1851_" cx="392.5" cy="242.9" r="4.7"/>
		<circle id="XMLID_1850_" cx="386.6" cy="238.9" r="4.7"/>
		<circle id="XMLID_1849_" cx="377.5" cy="240.3" r="4.7"/>
		<circle id="XMLID_1848_" cx="370.6" cy="243.6" r="4.7"/>
		<circle id="XMLID_1847_" cx="396.1" cy="257.9" r="4.7"/>
		<circle id="XMLID_1846_" cx="395" cy="264.8" r="4.7"/>
		<polygon id="XMLID_1845_" class="st18" points="392.6,219.8 389.2,199.2 412.9,195.5 416.3,216.1 		"/>
		<path id="XMLID_1844_" class="st19" d="M453.2,487.9l-5.8,1c-4.9,0.8-9.5-2.4-10.3-7.3l-44.5-261.8l23.4-4l44.5,261.8
			C461.4,482.4,458.1,487,453.2,487.9z"/>
		
			<rect id="XMLID_1843_" x="410" y="308.7" transform="matrix(0.9859 -0.1676 0.1676 0.9859 -47.8344 75.2253)" class="st18" width="23.8" height="24.7"/>
		<path id="XMLID_1203_" class="st9" d="M441.4,372.4c0,0-4.4,3-4.9,5.6c-0.4,2.1,2.2,0.4,3.2-0.2c0.4-0.2,0.9-0.2,1.2,0.2
			c0.3,0.3,0.5,1.1,0.4,2.2c-0.1,1.6-0.9,3.1-1.9,4.3c-0.9,0.9-1.8,2.2-1.9,2.9c-0.2,1.4,0.8,3,2.7,1.5c0,0,2.2-1.2,4.2-4.3
			c0,0,0-0.1,0-0.1l0,0c1.7-2.6,3.2-6.4,3.3-12C448.1,360.2,441.4,372.4,441.4,372.4z"/>
		<g id="XMLID_1200_">
			<path id="XMLID_1202_" class="st9" d="M348.9,321.1c0,0-4.4,17.4,6.5,31.9c8,10.7,30.8,7,43-20.9l-6.2-4.2
				c0,0-9.6,13.6-16.4,15.6c-4.4,1.3-8.1-2.8-8-7.3c0-0.8,0.7-9.1,0.9-9.8L348.9,321.1z"/>
			<path id="XMLID_1201_" class="st9" d="M392.1,327.8c0,0-0.6-5.4,0.5-8.1c1.1-2.7,4.3-3.4,5.7-2.4c1.5,0.9,0,2.3-2,2.3
				c-1.9,0-1,1.5,0.6,1.5c2.1,0,3.4-9.6,5.7-11.1c3-2-0.7,7.6-0.7,7.6s4.1,2.7,3,5.8c-1,3.1-6.7,8.7-6.7,8.7L392.1,327.8z"/>
		</g>
		<polygon class="st20" points="396.6,171.7 389.2,199.4 412.9,195.6 		"/>
		<polygon class="st21" points="403.8,182.4 396.6,171.7 393.4,183.7 		"/>
	</g>
	<g>
		<text transform="matrix(1 0 0 1 232.4268 552.0889)" class="st22 st4 st23">ARTICLE</text>
	</g>
</g>
</svg>
