<?xml version="1.0" encoding="utf-8"?>
<!-- Generator: Adobe Illustrator 21.0.0, SVG Export Plug-In . SVG Version: 6.00 Build 0)  -->
<svg version="1.1" id="Layer_1" xmlns="http://www.w3.org/2000/svg" xmlns:xlink="http://www.w3.org/1999/xlink" x="0px" y="0px"
	 viewBox="0 0 700 600" style="enable-background:new 0 0 700 600;" xml:space="preserve">
<style type="text/css">
	.st0{fill:url(#SVGID_1_);}
	.st1{fill:#F4C74A;}
	.st2{opacity:0.4;}
	.st3{fill:#333333;}
	.st4{opacity:0.3;}
	.st5{fill:#FFFFFF;}
	.st6{fill:#FFFFFF;stroke:#FFFFFF;stroke-miterlimit:10;}
	.st7{fill:#FFCB9C;}
	.st8{fill:#36A9E1;}
	.st9{fill:#1D71B8;}
	.st10{fill:#1B364F;}
	.st11{opacity:0.38;fill:#274F6D;}
	.st12{fill:#FF6252;}
	.st13{fill:#CE3E3E;}
	.st14{fill:#FF7D7D;}
	.st15{fill:none;stroke:#1D1D1B;stroke-miterlimit:10;}
	.st16{fill:#F9B233;}
	.st17{fill:#7D4E24;}
	.st18{fill:#CBBBA0;}
	.st19{fill:#3C3C3B;}
	.st20{fill:#FBB03B;}
</style>
<g>
	<linearGradient id="SVGID_1_" gradientUnits="userSpaceOnUse" x1="372.9923" y1="612.487" x2="371.4906" y2="-24.5677">
		<stop  offset="9.732377e-02" style="stop-color:#4A69BD"/>
		<stop  offset="0.3504" style="stop-color:#368BAF"/>
		<stop  offset="0.6011" style="stop-color:#27A6A5"/>
		<stop  offset="0.8239" style="stop-color:#1DB69E"/>
		<stop  offset="0.9959" style="stop-color:#1ABC9C"/>
	</linearGradient>
	<path class="st0" d="M691,387.6C691,521.7,505.5,561,355,561c-157.2,0-301.1-11.8-301.1-165.5S157.1,35.9,314.3,35.9
		S691,292.7,691,387.6z"/>
	<path class="st1" d="M53.9,395.5c0-152.9,102.1-357.4,258-359.5c-0.6,0-1.3,0-1.9,0C101.7,35.9,9,248.1,9,398.7
		S152.8,561,310.1,561c5.5,0,11.1-0.1,16.7-0.2C181,559,53.9,539.9,53.9,395.5z"/>
</g>
<g class="st2">
	<g>
		<path class="st3" d="M200.3,526.7c-2.1,1.5-3.9,3-5.5,4.5c-1.6,1.5-2.9,3-4,4.6c-1.1,1.5-1.7,3.1-2,4.7c-2.3-0.1-4.8-0.2-7.6-0.2
			c-2.7,0-5.6,0-8.5,0c-3.4,0-6.8,0-10,0.1c-3.3,0-6.2,0.1-9,0.2c-0.4-1.6-0.9-3.2-1.7-4.7c-0.8-1.5-1.7-3-2.9-4.5
			c-1.2-1.5-2.7-3-4.4-4.4c-1.7-1.5-3.7-3-6-4.5c2.6,0.1,5.1,0.1,7.6,0.2c2.4,0,4.9,0,7.3,0c2.4,0,4.9,0,7.3,0
			c2.4,0,4.9-0.1,7.5-0.2c-0.1,0.2-0.3,0.3-0.6,0.5c-0.3,0.2-0.5,0.3-0.8,0.5c-0.3,0.2-0.5,0.4-0.7,0.7c-0.2,0.3-0.3,0.6-0.3,1
			s0.1,0.7,0.3,1.1c0.2,0.3,0.5,0.6,1,0.9c0.5,0.3,1.1,0.5,1.8,0.6c0.8,0.1,1.7,0.2,2.8,0.2c1,0,1.9-0.1,2.6-0.3
			c0.8-0.2,1.4-0.4,1.9-0.7c0.5-0.3,0.9-0.6,1.2-1c0.3-0.4,0.4-0.7,0.4-1.1c0-0.4-0.1-0.7-0.2-1c-0.1-0.3-0.3-0.5-0.6-0.7
			c-0.2-0.2-0.5-0.4-0.7-0.5c-0.3-0.2-0.5-0.3-0.7-0.5c6.1,0.3,12.1,0.4,18,0.4c2.2,0,4.3,0,6.4,0c2.1,0,4.3-0.1,6.6-0.1
			C204.5,523.8,202.3,525.3,200.3,526.7z M174.6,531.1c-0.8-0.3-1.7-0.4-2.9-0.4c-1.1,0-2,0.1-2.9,0.3c-0.9,0.2-1.3,0.5-1.3,1
			c0,0.2,0.1,0.4,0.4,0.6c0.2,0.2,0.5,0.5,0.9,0.7c0.3,0.3,0.7,0.6,1,0.9c0.4,0.3,0.7,0.7,1,1.2c1.3-0.7,2.3-1.3,2.9-1.7
			c0.7-0.4,1.2-0.8,1.5-1.1c0.4-0.3,0.6-0.5,0.7-0.7C175.8,531.7,175.4,531.3,174.6,531.1z"/>
		<path class="st3" d="M269.5,522.7c-0.6,0.2-1.2,0.3-1.7,0.5s-0.9,0.4-1.3,0.6c-0.3,0.2-0.6,0.5-0.9,0.7c-0.6,0.5-0.9,1.1-1,1.7
			c-0.1,0.6-0.1,1.1-0.2,1.7s-0.4,1-1,1.5c-0.6,0.5-1.6,0.9-2.9,1.2c-1.3,0.4-3.3,0.7-5.9,0.9c2.2,0.3,4.1,0.6,5.6,0.9
			c1.5,0.3,2.8,0.7,3.7,1c1,0.4,1.6,0.7,2.1,1.1c0.4,0.4,0.6,0.7,0.6,1.1c0,0.7-0.4,1.3-1.2,1.8c-0.8,0.5-1.9,0.9-3.3,1.3
			c-1.4,0.4-3,0.7-4.9,0.9c-1.9,0.2-3.9,0.4-6,0.6c-2.1,0.1-4.4,0.2-6.8,0.3c-2.4,0.1-4.7,0.1-7,0.1c-1.7,0-3.2,0-4.6,0
			c-1.4,0-2.7,0-4,0c-1.3,0-2.6,0-3.9,0c-1.3,0-2.7,0-4.3,0c-1.8,0-3.9,0-6.4,0c-2.5,0-5.1,0.1-7.7,0.2c1.1-0.3,2.1-0.7,2.8-1.2
			c0.7-0.5,1.3-1,1.8-1.6c0.5-0.6,0.8-1.2,1-1.8c0.2-0.6,0.3-1.2,0.4-1.8c0.1-0.6,0.1-1.2,0.1-1.7c0-0.5,0-0.9,0-1.3
			c-0.2-1.3-0.7-2.6-1.3-3.8c-0.3-0.5-0.6-1-1-1.5s-0.9-1-1.4-1.5s-1.2-0.9-1.9-1.3c-0.7-0.4-1.5-0.7-2.4-1c2.3,0.1,4.8,0.2,7.7,0.3
			c2.8,0,5.7,0.1,8.5,0.1c2.2,0,4.3,0,6.3,0c2,0,3.8,0,5.3-0.1c1.5,0,2.8-0.1,3.7-0.1c0.9,0,1.4-0.1,1.4-0.1c-0.6,0.6-1,1.2-1.4,1.7
			c-0.4,0.5-0.6,1-0.8,1.5c-0.2,0.5-0.3,0.9-0.4,1.3c-0.1,0.4-0.1,0.8-0.1,1.2c0,0.4,0,0.8,0.1,1.1c0,0.3,0.1,0.7,0.2,1.1
			c1-0.2,2-0.4,2.8-0.7c0.8-0.2,1.6-0.6,2.1-1c0.6-0.4,1-0.9,1.4-1.5c0.3-0.6,0.5-1.4,0.5-2.3c0-0.2,0-0.5-0.1-0.7s-0.1-0.4-0.2-0.6
			c-0.1-0.2-0.2-0.4-0.4-0.7c-0.1-0.2-0.3-0.5-0.4-0.7c1,0.1,2.4,0.1,4.1,0.2c1.5,0,3.4,0.1,5.7,0.1c2.3,0,5.2,0.1,8.7,0.1
			c1.8,0,3.7,0,5.8,0c2.1,0,4.3,0,6.7-0.1C270.9,522.4,270.2,522.5,269.5,522.7z M235,533.4c0,0.1,0,0.2,0,0.3
			c0,0.2,0.1,0.4,0.2,0.8c0.1,0.3,0.4,0.7,0.8,1c0.4,0.3,0.9,0.6,1.6,0.9c0.7,0.2,1.6,0.4,2.8,0.4c0.8,0,1.6-0.1,2.3-0.2
			c0.7-0.2,1-0.4,1-0.6c0-0.3-0.3-0.5-0.9-0.8c-0.6-0.3-1.3-0.5-2.2-0.8c-0.9-0.2-1.8-0.5-2.8-0.7c-1-0.2-1.9-0.4-2.7-0.5
			C235.1,533.2,235,533.3,235,533.4z"/>
		<path class="st3" d="M314.7,525.2c-0.7,0.9-1.3,1.8-1.8,2.7c-0.5,0.9-0.8,1.8-1,2.7c-0.2,0.9-0.4,1.7-0.4,2.6
			c0,0.6,0.1,1.3,0.2,1.9c0.1,0.6,0.3,1.2,0.6,1.8c3.6-0.7,7.1-1.5,10.3-2.5c3.2-1,6.1-2.1,8.8-3.2l-2,9.6
			c-4.7-0.2-9.9-0.3-15.5-0.4c-5.6-0.1-11.3-0.1-17-0.1c-4,0-7.9,0-11.8,0.1c-3.8,0-7.5,0.1-10.9,0.2l-1.3-9.5
			c1,0.5,2.2,0.9,3.6,1.4c1.4,0.5,2.9,0.9,4.4,1.4c1.6,0.5,3.2,0.9,4.9,1.3c1.7,0.4,3.4,0.8,5.2,1.2c0.2-0.6,0.3-1.2,0.4-1.7
			s0.2-1,0.3-1.4c0.1-0.5,0.1-0.9,0.1-1.3c-0.1-0.9-0.3-1.9-0.7-2.9c-0.3-0.9-0.8-1.9-1.5-3c-0.7-1.1-1.6-2.3-2.9-3.6
			c3.8,0.1,7.4,0.2,10.8,0.3c3.4,0,6.5,0.1,9.2,0.1c1.6,0,3.1,0,4.4,0c1.3,0,2.4,0,3.4,0c1.1,0,2.1,0,2.9,0
			C316.3,523.4,315.4,524.3,314.7,525.2z"/>
		<path class="st3" d="M365.2,525c-0.6,0.8-1.2,1.7-1.6,2.6c-0.4,0.9-0.7,1.8-0.9,2.7c-0.2,0.9-0.3,1.8-0.3,2.6
			c0,0.7,0.1,1.5,0.2,2.2c0.1,0.7,0.3,1.4,0.6,2c0.3,0.6,0.6,1.3,0.9,1.8c0.3,0.6,0.7,1.1,1.2,1.6c-0.8,0-1.7,0-2.8-0.1
			c-0.9,0-2,0-3.4-0.1c-1.3,0-2.8,0-4.5,0c-2.5,0-5.3,0-8.4,0.1c-3.1,0-6.5,0.1-10.2,0.3c0.5-0.2,0.9-0.5,1.2-0.9
			c0.3-0.4,0.7-0.8,0.9-1.2c0.3-0.4,0.5-0.9,0.7-1.4c0.2-0.5,0.4-1,0.5-1.5c0.1-0.5,0.2-1,0.3-1.4c0.1-0.5,0.1-0.9,0.2-1.2
			c0-0.4,0.1-0.6,0.1-0.9c0-0.2,0-0.4,0-0.4c0-0.2,0-0.4,0-0.9s-0.1-0.9-0.2-1.5c-0.1-0.6-0.3-1.2-0.5-1.9c-0.2-0.7-0.5-1.3-0.9-2
			c-0.4-0.7-0.9-1.3-1.5-1.8s-1.3-1-2.1-1.4c4.6,0.2,8.9,0.3,12.8,0.3c3.9,0.1,7.4,0.1,10.4,0.1c1.5,0,2.9,0,4.1,0c1.2,0,2.2,0,3,0
			c1,0,1.8,0,2.6,0C366.7,523.3,365.9,524.2,365.2,525z"/>
		<path class="st3" d="M430.8,536.8c-0.3,0.4-0.8,0.8-1.5,1.2s-1.7,0.8-2.9,1.1c-1.2,0.4-2.7,0.7-4.5,1c-1.8,0.3-3.9,0.5-6.4,0.7
			c-2.5,0.2-5.3,0.3-8.5,0.3c-3.6,0-6.9-0.1-10.1-0.4s-6.1-0.7-8.7-1.2c-2.6-0.5-5-1.1-7.1-1.7s-3.8-1.4-5.3-2.2
			c-1.5-0.8-2.6-1.6-3.3-2.4c-0.8-0.8-1.2-1.6-1.2-2.5c0-0.7,0.3-1.5,0.9-2.2s1.5-1.4,2.6-2.1c1.2-0.6,2.6-1.2,4.3-1.8
			s3.7-1,5.9-1.4c2.2-0.4,4.7-0.7,7.4-1c2.7-0.2,5.7-0.3,8.9-0.3c4.3,0,8.3,0.2,11.8,0.6c3.5,0.4,6.5,0.9,9,1.5
			c2.5,0.6,4.4,1.3,5.7,2.1c1.3,0.8,2,1.6,2,2.5c0,0.6-0.3,1.2-1,1.8c-0.7,0.6-1.7,1.1-2.9,1.5c-0.4-0.6-1.2-1.1-2.4-1.4
			c-1.2-0.4-2.5-0.7-3.9-0.9c-1.4-0.2-2.9-0.4-4.3-0.4c-1.5-0.1-2.7-0.1-3.6-0.1c-0.7,0-1.6,0-2.5,0.1c-0.9,0-1.9,0.1-2.9,0.2
			s-2,0.2-2.9,0.4c-1,0.2-1.8,0.4-2.5,0.7s-1.3,0.6-1.8,1c-0.5,0.4-0.7,0.8-0.7,1.4c0,0.8,0.2,1.4,0.7,1.9c0.5,0.5,1.1,1,1.9,1.3
			c0.8,0.4,1.7,0.6,2.6,0.8c1,0.2,1.9,0.4,2.8,0.5c0.9,0.1,1.8,0.2,2.5,0.2c0.8,0,1.3,0,1.7,0c0.7,0,1.4,0,1.9-0.1
			c0.5,0,0.9-0.1,1.2-0.2c0.3-0.1,0.5-0.2,0.7-0.2s0.2-0.2,0.2-0.3c0-0.2-0.2-0.3-0.7-0.5c-0.5-0.1-1.3-0.2-2.5-0.2
			c-0.5,0-1,0-1.4,0.1c-0.4,0-0.8,0.1-1.2,0.2c-0.4,0.1-0.7,0.2-0.9,0.4c-0.8-0.3-1.4-0.5-1.8-0.9c-0.4-0.3-0.6-0.7-0.6-1
			c0-0.3,0.2-0.7,0.7-1c0.4-0.3,1.1-0.6,2-0.9s2.1-0.5,3.5-0.6c1.4-0.2,3.1-0.2,5.1-0.2c2.2,0,4.2,0.1,6,0.3
			c1.8,0.2,3.3,0.5,4.5,0.9c1.2,0.4,2.2,0.7,2.8,1.2c0.7,0.4,1,0.9,1,1.3C431.2,536,431.1,536.4,430.8,536.8z"/>
		<path class="st3" d="M482.5,529.3c-1.7-0.7-3.6-1.3-5.9-1.7s-4.5-0.6-6.9-0.6c-1.7,0-3.3,0.1-4.6,0.3c-1.3,0.2-2.5,0.5-3.4,0.9
			c-0.9,0.4-1.6,0.9-2.1,1.5c-0.5,0.6-0.7,1.3-0.7,2.2c0,0.7,0.1,1.4,0.4,2.1c0.3,0.7,0.7,1.5,1.2,2.2s1.1,1.5,1.8,2.2
			c0.7,0.7,1.5,1.3,2.3,1.9c-0.7,0-1.5,0-2.5-0.1c-0.8,0-1.8,0-3,0c-1.2,0-2.5,0-4,0c-2.4,0-5.1,0-8.2,0.1c-3.1,0-6.6,0.2-10.4,0.3
			c0.6-0.5,1-1.1,1.4-1.7c0.4-0.6,0.7-1.3,1-2c0.3-0.7,0.5-1.4,0.6-2.2c0.1-0.8,0.2-1.5,0.2-2.3c0-0.9-0.1-1.9-0.3-2.8
			c-0.2-0.9-0.5-1.9-0.8-2.8c-0.4-0.9-0.8-1.7-1.4-2.5c-0.6-0.8-1.2-1.5-1.9-2.2c3.2,0.1,6.3,0.3,9.2,0.3c2.9,0.1,5.5,0.1,7.8,0.2
			c2.6,0,5.1,0.1,7.4,0.1c0.1,0,0.6,0,1.5,0c1,0,2.2,0,3.7,0c1.5,0,3.2,0,5,0c1.9,0,3.7,0,5.6-0.1c1.9,0,3.7-0.1,5.5-0.1
			c1.7,0,3.3-0.1,4.5-0.2L482.5,529.3z"/>
		<path class="st3" d="M537.2,529.3c-0.8-0.3-1.8-0.7-3.1-1c-1.3-0.3-2.7-0.6-4.3-0.9c-1.6-0.2-3.2-0.4-4.9-0.6
			c-1.7-0.1-3.3-0.2-4.7-0.2c-1,0-1.9,0-2.7,0.1c-0.9,0.1-1.6,0.2-2.3,0.4c-0.6,0.2-1.2,0.4-1.5,0.6c-0.4,0.3-0.6,0.6-0.6,1
			c0,0.5,0.6,1,1.8,1.3c1.2,0.3,3,0.5,5.3,0.5c0.2,0,0.6,0,1.2,0c0.6,0,1.3-0.1,2-0.2c0.8-0.1,1.5-0.2,2.3-0.4
			c0.8-0.2,1.5-0.4,2.1-0.7v5.1c-0.6-0.2-1.3-0.4-2-0.5c-0.6-0.1-1.4-0.3-2.3-0.4s-1.9-0.2-2.9-0.2c-1.3,0-2.4,0.1-3.3,0.2
			c-0.9,0.1-1.7,0.3-2.3,0.4c-0.6,0.2-1,0.4-1.3,0.6s-0.4,0.4-0.4,0.6c0,0.2,0.1,0.4,0.3,0.6c0.2,0.2,0.7,0.4,1.3,0.5
			c0.6,0.2,1.5,0.3,2.7,0.4c1.2,0.1,2.7,0.2,4.5,0.2c1.5,0,3.2-0.1,5-0.2c1.5-0.1,3.2-0.3,5.2-0.5c1.9-0.2,4-0.6,6.1-1v5.8
			c-2.5-0.1-5.3-0.2-8.3-0.3c-2.6-0.1-5.7-0.1-9.2-0.2c-3.5,0-7.2-0.1-11.2-0.1c-3.3,0-6.7,0-10.1,0.1c-3.5,0.1-7,0.1-10.6,0.3
			c0.5-0.2,0.9-0.5,1.2-0.9c0.3-0.4,0.7-0.8,0.9-1.2c0.3-0.5,0.5-0.9,0.7-1.4s0.4-1,0.5-1.5c0.1-0.5,0.2-1,0.3-1.4
			c0.1-0.5,0.1-0.9,0.2-1.2c0-0.4,0.1-0.6,0.1-0.9c0-0.2,0-0.4,0-0.4c0-0.2,0-0.4,0-0.9c0-0.4-0.1-0.9-0.2-1.5s-0.3-1.2-0.5-1.9
			s-0.5-1.3-0.9-2c-0.4-0.6-0.9-1.2-1.5-1.8s-1.3-1-2.1-1.4c2.2,0.1,4.5,0.2,6.9,0.2c2.4,0.1,4.6,0.1,6.9,0.1c2.2,0,4.3,0.1,6.2,0.1
			c1.9,0,3.6,0,5,0c2.9,0,5.7,0,8.2,0c2.5,0,4.9,0,7.1,0c2.2,0,4.3-0.1,6.3-0.1c2,0,4-0.1,5.9-0.2L537.2,529.3z"/>
	</g>
</g>
<g id="XMLID_1895_" class="st4">
	<path id="XMLID_1898_" class="st5" d="M347.8,119.7h66.8c0,0-3.3-8.1-7.5-8.5c-4.2-0.3-5.3,2.2-6.7,1.9c-1.3-0.3-3.5-6.9-8.8-7.2
		c-5.3-0.3-7.4,4.6-10.4,5.6c-2.9,0.9-8.7,0.4-13.2-6.9c-4.5-7.3-13.1,0.6-13.3,6.2c-0.3,8.6-13.4,3.9-13.4,8.9H347.8z"/>
	<path id="XMLID_1897_" class="st6" d="M501,235.4h-66.8c0,0,3.3-8.3,7.5-8.7c4.2-0.3,5.3,2.1,6.7,1.8c1.3-0.3,3.5-7,8.8-7.3
		c5.3-0.3,7.4,4.6,10.4,5.5c2.9,0.9,8.7,0.4,13.2-6.9c4.5-7.3,13.1,0.8,13.3,6.4c0.3,8.6,13.4,4.1,13.4,9.1H501z"/>
	<path id="XMLID_1896_" class="st5" d="M202.3,211.8h-66.8c0,0,3.3-8.1,7.5-8.5c4.2-0.3,5.3,2.2,6.7,1.9c1.3-0.3,3.5-6.9,8.8-7.2
		c5.3-0.3,7.4,4.6,10.4,5.6c2.9,0.9,8.7,0.4,13.2-6.9c4.5-7.3,13.1,0.6,13.3,6.2c0.3,8.6,13.4,3.9,13.4,8.9H202.3z"/>
</g>
<g>
	<path id="XMLID_1894_" class="st7" d="M358.1,242.7c0,0,44.3,20.8,38.3,68.8l-7.6-0.1c0,0-8.2-37.2-37-46.2L358.1,242.7z"/>
	<path id="XMLID_1893_" class="st8" d="M324.8,224.1c0,0,34.2,13,51.5,40.1l-25.2,10L324.8,224.1z"/>
	<circle id="XMLID_1892_" cx="308.1" cy="162.3" r="5.6"/>
	<circle id="XMLID_1891_" cx="304.1" cy="166.5" r="5.6"/>
	<ellipse id="XMLID_1890_" class="st9" cx="282.9" cy="331.3" rx="14.2" ry="6.3"/>
	<g id="XMLID_1880_">
		<g id="XMLID_1887_">
			<polygon id="XMLID_1889_" class="st5" points="325.2,423.7 322.8,435 315.9,434.2 315.9,421.2 			"/>
			<path id="XMLID_1888_" d="M316,433.4c0,0-4.1,4.8-2.5,9c1.6,4.2,31.3,1.1,31.3,1.1s1.1-0.7-0.8-1.5l-13.9-5.1
				c0,0-5.9-3.2-8.9-2.7C318.7,434.6,316,433.4,316,433.4z"/>
		</g>
		<g id="XMLID_1884_">
			<polygon id="XMLID_1886_" class="st5" points="291.4,423.7 293.8,435 300.7,434.2 300.7,421.2 			"/>
			<path id="XMLID_1885_" d="M300.6,433.4c0,0,4.1,4.8,2.5,9c-1.6,4.2-31.3,1.1-31.3,1.1s-1.1-0.7,0.8-1.5l13.9-5.1
				c0,0,5.9-3.2,8.9-2.7C297.9,434.6,300.6,433.4,300.6,433.4z"/>
		</g>
		<path id="XMLID_1883_" class="st10" d="M352.9,304.9c0,0-8.6,81.7-26.5,122.9h-13.6l-2.3-70.9l-7.2,70.9h-13.8
			c0,0-22.8-53.4-15.2-117.2C282,246.8,352.9,304.9,352.9,304.9z"/>
		<path id="XMLID_1882_" class="st11" d="M349.9,326.7c0,0-7.5-7.7-16.8,1.1c-9.3,8.8,1.1,20.9-2.5,31c-3.6,10.1-0.9,21.3,9.7,22.9
			C340.4,381.8,347.7,353.9,349.9,326.7z"/>
		<path id="XMLID_1881_" class="st11" d="M273,348.3c0,0,9.6-7.2,20.9,2.2c11.2,9.3-0.1,24.7-6,30.8c-6,6.1,4,19.2-6.1,21.9
			C281.7,403.2,273.7,377.1,273,348.3z"/>
	</g>
	<path id="XMLID_1879_" class="st8" d="M268.8,331.7c0,0,11.8-18.3,46.2,9.2c34.4,27.5,41.9,2.4,41.9,2.4s7.6-110.3-41.5-123.2
		C315.4,220.1,256.3,223.1,268.8,331.7z"/>
	<ellipse id="XMLID_1878_" class="st9" cx="312.8" cy="226.7" rx="12" ry="6.6"/>
	<circle id="XMLID_1877_" cx="328.4" cy="199.8" r="5.6"/>
	<circle id="XMLID_1876_" cx="324.6" cy="205.6" r="5.6"/>
	<circle id="XMLID_1875_" cx="335.3" cy="192.6" r="5.6"/>
	<circle id="XMLID_1874_" cx="338.9" cy="185.2" r="5.6"/>
	<circle id="XMLID_1873_" cx="341" cy="177.5" r="5.6"/>
	<g id="XMLID_1867_">
		<path id="XMLID_1872_" class="st7" d="M290.3,188.9c-0.6,7.5,0.5,14.5,11,20.9c0,0,5,6.5,2.4,14.2c-2.6,7.7,19.1,9.8,17.2-1.6
			c-0.1-0.7-0.2-1.5-0.3-2.2c-0.8-10.6,5.6-21.5,10.1-27.7c4.8-6.7,5-21.8-3.5-27.8c-3.3-2.3-12.3-2.5-18.3-0.4
			C298.6,167.8,291.2,178,290.3,188.9z"/>
		<polygon id="XMLID_1871_" class="st12" points="305,172.4 299.1,187.7 307.4,187.7 		"/>
		<path id="XMLID_1870_" class="st7" d="M331.3,187c0,0,3.5-0.8,4.7,3.1c1.1,3.9-5.1,11-7.4,7C326.2,193,331.3,187,331.3,187z"/>
		
			<ellipse id="XMLID_1869_" transform="matrix(0.2531 -0.9674 0.9674 0.2531 50.5789 422.3842)" cx="298.9" cy="178.4" rx="1.6" ry="1.1"/>
		
			<ellipse id="XMLID_1868_" transform="matrix(0.2531 -0.9674 0.9674 0.2531 59.9083 435.7951)" cx="312.2" cy="179.1" rx="1.6" ry="1.1"/>
	</g>
	<g id="XMLID_1862_">
		<g id="XMLID_1865_">
			<path id="XMLID_1866_" class="st13" d="M305.1,193.5c0,0-2.1-1.2-4-1.1c-1.8,0-3.6,0.7-3.9,3c-0.3,2.3,2,3.9,4.7,5.2
				c1.6,0.8,7.1,1.6,10,0.1c2.9-1.5,4.4-2.7,5-4.7c0.6-2-1-4-2.6-4.5c-1.6-0.5-3.2,0.3-3.9,0.9C309.7,193,307.9,194.6,305.1,193.5z"
				/>
		</g>
		<g id="XMLID_1863_">
			<path id="XMLID_1864_" class="st14" d="M299.2,199c0,0,2.1-1.4,5.6-1.1c3.5,0.4,4.8,1.7,6.4,3.1c0,0-3.9,1.2-7.6,0.1
				C300.4,200.3,299.2,199,299.2,199z"/>
		</g>
	</g>
	<circle id="XMLID_1861_" class="st15" cx="295.4" cy="176.2" r="7.1"/>
	<circle id="XMLID_1860_" class="st15" cx="313.3" cy="176.2" r="7.1"/>
	<line id="XMLID_1859_" class="st15" x1="302" y1="173.6" x2="306.2" y2="173.6"/>
	<line id="XMLID_1858_" class="st15" x1="333.9" y1="182.5" x2="320.4" y2="175.4"/>
	<circle id="XMLID_1857_" cx="318.9" cy="158.3" r="5.6"/>
	<circle id="XMLID_1856_" cx="310.6" cy="160.9" r="5.6"/>
	<circle id="XMLID_1855_" cx="326.5" cy="162.7" r="5.6"/>
	<circle id="XMLID_1854_" cx="328.4" cy="170.5" r="5.6"/>
	<circle id="XMLID_1853_" cx="335.3" cy="165.6" r="5.6"/>
	<circle id="XMLID_1852_" cx="338.9" cy="170.5" r="5.6"/>
	<circle id="XMLID_1851_" cx="331.1" cy="158.3" r="5.6"/>
	<circle id="XMLID_1850_" cx="324" cy="153.6" r="5.6"/>
	<circle id="XMLID_1849_" cx="313.3" cy="155.3" r="5.6"/>
	<circle id="XMLID_1848_" cx="305.1" cy="159.2" r="5.6"/>
	<circle id="XMLID_1847_" cx="335.3" cy="176.2" r="5.6"/>
	<circle id="XMLID_1846_" cx="334" cy="184.3" r="5.6"/>
	<polygon id="XMLID_1845_" class="st16" points="331.1,131.1 327.1,106.7 355.1,102.4 359.2,126.7 	"/>
	<path id="XMLID_1844_" class="st17" d="M402.8,448l-6.9,1.2c-5.7,1-11.2-2.9-12.2-8.6l-52.6-309.4l27.7-4.7l52.6,309.4
		C412.4,441.5,408.6,447,402.8,448z"/>
	
		<rect id="XMLID_1843_" x="351.7" y="236.2" transform="matrix(0.9859 -0.1676 0.1676 0.9859 -36.8499 64.8288)" class="st16" width="28.1" height="29.2"/>
	<path id="XMLID_1203_" class="st7" d="M388.8,311.4c0,0-5.2,3.5-5.7,6.6c-0.4,2.5,2.7,0.4,3.8-0.3c0.5-0.3,1.1-0.2,1.4,0.2
		c0.3,0.4,0.6,1.3,0.4,2.6c-0.1,1.9-1,3.7-2.3,5.1c-1,1.1-2.2,2.6-2.3,3.5c-0.2,1.6,1,3.5,3.2,1.8c0,0,2.6-1.4,5-5.1
		c0,0,0.1-0.1,0.1-0.1l0,0c2-3,3.8-7.6,4-14.1C396.7,297,388.8,311.4,388.8,311.4z"/>
	<g id="XMLID_1200_">
		<path id="XMLID_1202_" class="st7" d="M279.5,250.8c0,0-5.2,20.5,7.6,37.7c9.5,12.7,36.5,8.3,50.8-24.7l-7.3-5
			c0,0-11.3,16-19.3,18.4c-5.2,1.5-9.5-3.3-9.5-8.7c0-0.9,0.8-10.7,1.1-11.6L279.5,250.8z"/>
		<path id="XMLID_1201_" class="st7" d="M330.6,258.8c0,0-0.7-6.4,0.5-9.6c1.3-3.2,5-4,6.8-2.9c1.7,1.1,0,2.7-2.3,2.7
			c-2.3,0-1.1,1.8,0.8,1.8c2.5,0,4.1-11.4,6.7-13.2c3.5-2.4-0.8,9-0.8,9s4.8,3.2,3.6,6.9c-1.2,3.7-7.9,10.3-7.9,10.3L330.6,258.8z"
			/>
	</g>
	<polygon class="st18" points="335.8,74.2 327.1,107 355.1,102.5 	"/>
	<polygon class="st19" points="344.4,86.8 335.8,74.2 332.1,88.4 	"/>
</g>
<g>
	<path class="st20" d="M208.5,524.5c-2.3-0.3-4.5-0.5-6.6-0.6c-2.1-0.1-4.2-0.2-6.4-0.2c-5.8,0-11.8,0.6-17.9,1.7
		c0.2-0.9,0.5-1.7,0.7-2.3c0.3-0.7,0.5-1.4,0.7-2.2c0.2-0.8,0.4-1.8,0.5-2.9c0.1-1.1,0.2-2.5,0.2-4.2c0-1.8-0.1-3.4-0.4-5
		c-0.3-1.6-0.6-3-1.2-4.2c-0.5-1.2-1.1-2.2-1.9-2.9c-0.7-0.7-1.6-1.1-2.6-1.1c-1.1,0-2,0.3-2.8,1c-0.7,0.7-1.4,1.6-1.8,2.7
		c-0.5,1.1-0.8,2.4-1,3.9c-0.2,1.5-0.3,3-0.3,4.7s0.1,3.1,0.3,4.3c0.2,1.2,0.4,2.2,0.7,3.1c0.3,0.9,0.5,1.7,0.8,2.3
		c0.3,0.7,0.4,1.3,0.5,2c-2.5-0.3-5-0.5-7.4-0.7c-2.4-0.1-4.9-0.2-7.3-0.2s-4.8,0.1-7.3,0.2c-2.4,0.1-4.9,0.4-7.5,0.7
		c2.3-6.6,4.3-13.1,6-19.6c1.7-6.5,3.2-13,4.4-19.5c1.2-6.5,2.2-13.2,2.9-19.9c0.7-6.7,1.3-13.5,1.7-20.6c2.7,0.4,5.7,0.6,8.9,0.8
		c3.2,0.2,6.6,0.2,10,0.2c2.9,0,5.7-0.1,8.4-0.2c2.7-0.1,5.2-0.5,7.5-0.9c0.3,7,0.9,13.9,2,20.6c1.1,6.8,2.4,13.5,4,20.1
		c1.6,6.6,3.4,13.2,5.5,19.7C204.1,511.7,206.3,518.1,208.5,524.5z M177.8,482c-0.1-0.7-0.3-1.7-0.7-3.1c-0.3-1.2-0.8-2.7-1.5-4.6
		c-0.7-1.9-1.6-4.4-2.9-7.4c-0.3,1.9-0.6,3.6-1,5.1c-0.4,1.5-0.7,2.8-1,4c-0.3,1.2-0.6,2.3-0.9,3.3c-0.2,1-0.4,1.9-0.4,2.8
		c0,1.8,0.4,3.2,1.3,4.3c0.9,1,1.8,1.5,2.9,1.5c1.1,0,2.1-0.5,2.9-1.6C177.3,485,177.8,483.6,177.8,482z"/>
	<path class="st20" d="M273.2,524.8c-2.4-0.2-4.6-0.3-6.7-0.4c-2.1-0.1-4-0.1-5.7-0.1c-3.4,0-6.3,0.1-8.6,0.3
		c-2.3,0.2-4.2,0.4-5.6,0.6c-1.7,0.3-3.1,0.5-4.1,0.9c0.1-1.1,0.3-2.2,0.4-3.2c0.1-1,0.3-1.9,0.4-2.9c0.1-0.9,0.2-1.9,0.2-2.8
		c0.1-0.9,0.1-1.9,0.1-2.9c0-4-0.2-7.4-0.5-10c-0.3-2.7-0.8-4.9-1.3-6.7c-0.6-1.8-1.3-3.2-2.1-4.3c-0.8-1.1-1.8-2.1-2.8-3
		c-0.1,1.6-0.1,3.2-0.2,4.8c0,1.5-0.1,3.2-0.1,4.9c0,1.7,0,3.4,0.1,5.3c0.1,1.8,0.2,3.8,0.4,5.8c0.2,2,0.5,4.2,0.8,6.6
		c0.4,2.3,0.8,4.8,1.4,7.5c0-0.1-0.5-0.3-1.4-0.5c-0.9-0.2-2.1-0.3-3.7-0.5c-1.5-0.1-3.3-0.3-5.3-0.4c-2-0.1-4.1-0.1-6.2-0.1
		c-2.8,0-5.6,0.1-8.4,0.3c-2.8,0.2-5.4,0.6-7.6,1.2c0.9-1.1,1.7-2.6,2.4-4.3c0.7-1.7,1.3-3.6,1.9-5.7s1-4.3,1.4-6.6
		c0.4-2.3,0.7-4.6,1-6.8c0.7-5.2,1.1-10.8,1.3-16.7c0-1.5,0-3.3,0-5.5c0-2.2,0-4.7-0.1-7.3c-0.1-2.6-0.2-5.3-0.4-8.1
		c-0.2-2.8-0.5-5.4-1-8c-0.5-2.6-1.1-4.9-1.8-7c-0.7-2.1-1.7-3.8-2.8-5.1c2.6,0.4,5.2,0.7,7.7,0.8s4.6,0.2,6.4,0.2
		c1.5,0,3,0,4.3-0.1c1.3-0.1,2.6-0.1,3.9-0.2c1.3-0.1,2.6-0.1,4-0.2c1.4-0.1,2.9-0.1,4.6-0.1c2.3,0,4.6,0.1,7,0.4
		c2.3,0.2,4.6,0.7,6.7,1.3c2.1,0.6,4.1,1.4,6,2.5c1.8,1,3.5,2.4,4.8,3.9c1.4,1.6,2.4,3.5,3.2,5.7c0.8,2.2,1.2,4.8,1.2,7.8
		c0,1.6-0.2,3.3-0.6,4.9c-0.4,1.6-1.1,3.3-2.1,4.9c-1,1.6-2.2,3.1-3.7,4.6c-1.5,1.4-3.4,2.8-5.6,4c2.6,1.1,4.6,2.4,5.9,3.9
		c1.3,1.6,2.3,3.4,2.9,5.4c0.6,2,0.9,4.2,1,6.6c0.1,2.4,0.1,4.8,0.2,7.4c0.1,2.7,0.5,5.3,1,7.6c0.2,1,0.5,2,0.9,3
		c0.3,1,0.8,2,1.3,2.9c0.5,0.9,1.1,1.7,1.7,2.4C271.6,523.9,272.4,524.4,273.2,524.8z M236.8,477.5c0.8-0.6,1.7-1.3,2.7-2.2
		c1-0.9,1.9-1.9,2.8-3c0.9-1.1,1.6-2.2,2.2-3.4c0.6-1.2,0.9-2.4,0.9-3.6c0-1.2-0.3-2.1-1-2.9c-0.7-0.7-1.4-1.1-2.3-1.1
		c-1.2,0-2.1,0.5-2.8,1.6c-0.7,1.1-1.2,2.3-1.6,3.8c-0.4,1.5-0.6,2.9-0.8,4.4c-0.1,1.5-0.2,2.6-0.2,3.4c0,0.4,0,0.9,0,1.4
		S236.7,477,236.8,477.5z"/>
	<path class="st20" d="M318.5,523.7c-0.8-0.1-1.8-0.1-2.9-0.2c-1-0.1-2.1-0.1-3.3-0.2c-1.3,0-2.7-0.1-4.3-0.1
		c-2.7,0-5.8,0.1-9.1,0.3c-3.4,0.2-7,0.6-10.7,1.1c1.3-5.4,2.2-10.6,2.9-15.6c0.7-5,1.2-9.5,1.5-13.4c0.4-4.6,0.6-8.9,0.7-12.9
		c0-1.7,0-3.6-0.1-5.6c-0.1-1.8-0.2-3.8-0.3-6.1c-0.1-2.3-0.3-4.8-0.4-7.5c-1.7,1.6-3.4,3.4-5.1,5.3c-1.7,1.9-3.3,3.8-4.9,5.9
		c-1.6,2-3,4.1-4.4,6.2c-1.4,2.1-2.6,4.1-3.6,6.1l1.3-41.9c3.4,0.4,7.1,0.7,10.9,0.9c3.8,0.2,7.7,0.3,11.7,0.3
		c5.7,0,11.4-0.2,16.9-0.6c5.6-0.4,10.7-1,15.4-1.8l2,42.3c-2.6-5-5.5-9.7-8.7-14.1c-3.2-4.4-6.6-8.1-10.2-11.1
		c-0.3,2.5-0.5,5.1-0.6,7.8c-0.1,2.7-0.2,5.5-0.2,8.4c0,3.7,0.1,7.5,0.4,11.4c0.2,3.9,0.6,7.8,1,11.8c0.5,3.9,1.1,7.9,1.8,11.8
		C316.7,516.1,317.5,519.9,318.5,523.7z"/>
	<path class="st20" d="M368.6,523.5c-0.8-0.1-1.6-0.1-2.6-0.2c-0.8-0.1-1.8-0.1-3-0.2c-1.2,0-2.5-0.1-4.1-0.1c-3,0-6.4,0.1-10.3,0.4
		c-3.9,0.3-8.2,0.7-12.7,1.5c0.8-1.6,1.5-3.7,2.1-6.3s1.1-5.2,1.5-8.1c0.4-2.9,0.7-5.8,0.9-8.7c0.2-3,0.4-5.7,0.5-8.3
		c0.1-2.6,0.2-4.8,0.2-6.6c0-1.9,0-3.1,0-3.8c0-0.1,0-0.7,0-1.7c0-1,0-2.3-0.1-3.8c0-1.6-0.1-3.4-0.2-5.4c-0.1-2-0.2-4.1-0.3-6.3
		c-0.1-2.2-0.3-4.4-0.5-6.6s-0.4-4.3-0.7-6.3c-0.3-2-0.6-3.8-0.9-5.3c-0.3-1.6-0.8-2.8-1.2-3.8c3.7,0.7,7.1,1.1,10.2,1.3
		c3.1,0.2,5.9,0.3,8.4,0.3c1.6,0,3.1,0,4.4-0.1s2.4-0.1,3.3-0.2c1.1-0.1,2-0.2,2.8-0.3c-0.4,2-0.8,4.3-1.2,6.8
		c-0.3,2.5-0.6,5.2-0.9,8c-0.3,2.8-0.4,5.8-0.6,8.9c-0.1,3.1-0.2,6.3-0.2,9.6c0,3.8,0.1,7.7,0.3,11.6c0.2,3.9,0.5,7.8,0.9,11.7
		c0.4,3.9,0.9,7.7,1.6,11.4C366.8,516.6,367.6,520.1,368.6,523.5z"/>
	<path class="st20" d="M431.9,465.8c0,1.9-0.3,3.8-1,5.7s-1.6,3.7-2.8,5.2c-1.2,1.6-2.7,2.8-4.5,3.8s-3.7,1.5-6,1.5
		c-2,0-3.7-0.3-5.1-1c-1.4-0.7-2.6-1.6-3.5-2.7c-0.9-1.1-1.6-2.4-2-3.8c-0.4-1.4-0.7-2.9-0.7-4.4c0-1.5,0.2-3,0.6-4.5s1-2.7,1.8-3.9
		c0.2,0.8,0.5,1.4,0.9,1.8c0.4,0.4,0.7,0.7,1.2,0.9c0.4,0.2,0.9,0.3,1.4,0.4c1.2,0,2-0.3,2.5-0.9c0.5-0.6,0.7-1.3,0.7-2.1
		c0-0.4-0.1-0.7-0.2-1.1c-0.1-0.4-0.4-0.7-0.7-1.1s-0.7-0.6-1.2-0.8c-0.5-0.2-1.1-0.3-1.9-0.3c-0.4,0-1,0.1-1.7,0.2
		c-0.8,0.1-1.6,0.4-2.5,0.9c-0.9,0.5-1.8,1.1-2.8,2.1c-1,0.9-1.8,2.2-2.6,3.7s-1.4,3.5-1.9,5.9c-0.5,2.3-0.7,5.2-0.7,8.6
		c0,2.3,0.2,4.3,0.7,6c0.5,1.7,1.1,3.2,1.8,4.4c0.7,1.2,1.6,2.2,2.5,3c1,0.8,1.9,1.4,2.9,1.8c1,0.4,1.9,0.7,2.9,0.9
		c0.9,0.2,1.8,0.2,2.5,0.2c1,0,2.1-0.2,3.6-0.5s2.9-1,4.3-1.9c1.4-0.9,2.7-2.2,3.9-3.8c1.2-1.6,1.9-3.7,2.4-6.3
		c1.3,1.8,2.3,3.9,2.9,6.4s1,5.1,1,7.8c0,3.7-0.7,7.3-2,10.8s-3.2,6.6-5.7,9.3c-2.5,2.7-5.5,4.9-9,6.5s-7.4,2.4-11.7,2.4
		c-3.2,0-6.1-0.5-8.8-1.5c-2.7-1-5.2-2.4-7.4-4.2c-2.2-1.8-4.2-3.9-5.9-6.3c-1.7-2.4-3.1-5.1-4.3-7.9c-1.2-2.9-2-5.9-2.6-9
		c-0.6-3.2-0.9-6.4-0.9-9.6c0-3.6,0.4-7.2,1.2-10.8c0.8-3.6,1.9-7.1,3.3-10.5c1.4-3.4,3.2-6.5,5.3-9.5c2.1-2.9,4.4-5.5,7-7.7
		c2.6-2.2,5.5-3.9,8.7-5.2s6.5-1.9,10-1.9c3.2,0,6.1,0.4,8.5,1.1c2.4,0.8,4.6,1.8,6.3,3c1.8,1.3,3.3,2.7,4.5,4.3
		c1.2,1.6,2.2,3.3,2.9,5c0.7,1.7,1.2,3.4,1.5,5.1C431.7,462.8,431.9,464.4,431.9,465.8z"/>
	<path class="st20" d="M485.8,524.6c-1.3-0.3-2.8-0.5-4.5-0.8s-3.5-0.4-5.4-0.5c-1.9-0.1-3.7-0.2-5.6-0.2c-1.8-0.1-3.5-0.1-5-0.1
		c-1.5,0-2.7,0-3.6,0c-1,0-1.5,0-1.5,0c-2.3,0-4.7,0.1-7.3,0.3c-2.3,0.2-4.9,0.4-7.8,0.8c-2.9,0.3-6,0.8-9.1,1.5
		c0.7-2.8,1.4-6,1.9-9.5s1-7.2,1.4-11.1c0.4-3.9,0.6-8,0.8-12.1s0.3-8.3,0.3-12.5c0-3.4-0.1-6.8-0.2-10.2c-0.1-3.3-0.3-6.6-0.6-9.6
		c-0.3-3.1-0.6-6-1-8.7c-0.4-2.7-0.8-5.2-1.4-7.5c3.8,0.7,7.2,1.2,10.3,1.4c3.1,0.2,5.8,0.3,8.2,0.3c1.5,0,2.8,0,4-0.1
		c1.2-0.1,2.2-0.1,3-0.2c1-0.1,1.8-0.2,2.5-0.3c-0.8,2.6-1.6,5.5-2.2,8.6c-0.7,3.1-1.3,6.2-1.8,9.5s-0.9,6.5-1.2,9.7
		c-0.3,3.3-0.4,6.4-0.4,9.3c0,3.8,0.2,7,0.7,9.7c0.5,2.7,1.2,4.9,2.1,6.6c0.9,1.7,2.1,3,3.4,3.8c1.3,0.8,2.9,1.2,4.6,1.2
		c2.3,0,4.6-0.8,6.8-2.5c2.2-1.7,4.2-4.1,5.8-7.3L485.8,524.6z"/>
	<path class="st20" d="M540.2,524.6c-1.9-0.4-3.8-0.6-5.8-0.8c-2-0.2-4.1-0.4-6.3-0.5c-2.2-0.1-4.6-0.2-7.1-0.2c-2.5,0-5.2,0-8.1,0
		c-1.4,0-3,0-5,0.1c-1.9,0-4,0.1-6.2,0.3c-2.2,0.1-4.5,0.4-6.8,0.6c-2.3,0.3-4.6,0.6-6.9,1.1c0.8-1.6,1.5-3.7,2.1-6.2
		c0.6-2.5,1.1-5.2,1.5-8s0.7-5.7,0.9-8.6c0.2-2.9,0.4-5.6,0.5-8.2c0.1-2.5,0.2-4.7,0.2-6.6c0-1.8,0-3.1,0-3.8c0-0.1,0-0.7,0-1.7
		c0-1,0-2.3-0.1-3.8c0-1.6-0.1-3.4-0.2-5.4c-0.1-2-0.2-4.1-0.3-6.3c-0.1-2.2-0.3-4.4-0.5-6.6s-0.4-4.3-0.7-6.3
		c-0.3-2-0.6-3.8-0.9-5.4c-0.3-1.6-0.8-2.9-1.2-3.8c3.6,0.5,7.1,0.9,10.6,1.1c3.5,0.2,6.8,0.4,10.1,0.4c4,0,7.7-0.1,11.2-0.3
		c3.5-0.2,6.5-0.5,9.1-0.8c3-0.3,5.8-0.7,8.3-1.2v25.7c-2.1-2-4.2-3.5-6.1-4.6s-3.7-1.8-5.2-2.4c-1.8-0.6-3.4-0.9-4.9-1
		c-1.8,0-3.3,0.2-4.5,0.7c-1.2,0.5-2,1-2.7,1.8c-0.6,0.7-1.1,1.5-1.3,2.4c-0.2,0.9-0.3,1.8-0.3,2.7c0,1,0.1,1.9,0.4,2.9
		c0.3,1,0.7,1.8,1.3,2.6c0.6,0.8,1.3,1.4,2.3,1.9c0.9,0.5,2,0.7,3.3,0.7c1.1,0,2-0.2,2.9-0.7c0.9-0.5,1.6-1.1,2.2-1.7
		c0.7-0.7,1.4-1.5,2-2.4v22.3c-0.6-1.4-1.3-2.5-2.1-3.3c-0.8-0.8-1.6-1.4-2.3-1.8c-0.8-0.4-1.4-0.6-2-0.7c-0.6-0.1-1-0.1-1.2-0.1
		c-2.4,0-4.2,0.7-5.3,2.2c-1.2,1.5-1.8,3.3-1.8,5.6c0,1.7,0.2,3.1,0.6,4.3c0.4,1.2,0.9,2.1,1.5,2.9s1.4,1.3,2.2,1.6
		c0.9,0.3,1.8,0.5,2.7,0.5c1.5,0,3-0.3,4.7-1s3.3-1.5,4.9-2.6s3-2.3,4.3-3.8c1.3-1.4,2.3-2.8,3.1-4.3L540.2,524.6z"/>
</g>
</svg>
