<?xml version="1.0" encoding="utf-8"?>
<!-- Generator: Adobe Illustrator 21.0.0, SVG Export Plug-In . SVG Version: 6.00 Build 0)  -->
<svg version="1.1" id="Layer_1" xmlns="http://www.w3.org/2000/svg" xmlns:xlink="http://www.w3.org/1999/xlink" x="0px" y="0px"
	 viewBox="0 0 700 600" style="enable-background:new 0 0 700 600;" xml:space="preserve">
<style type="text/css">
	.st0{fill:url(#SVGID_1_);}
	.st1{fill:#F4C74A;}
	.st2{fill:#B2B2B2;}
	.st3{fill:#537273;}
	.st4{fill:#36A9E1;}
	.st5{fill:#DADADA;}
	.st6{fill:#1D1D1B;}
	.st7{fill:#FCB6A8;}
	.st8{fill:#FFFFFF;}
	.st9{fill:#122F44;}
	.st10{fill:#FFB5A9;}
	.st11{fill:#1B364F;}
	.st12{opacity:0.39;fill:#274F6D;}
	.st13{fill:#8839B2;}
	.st14{fill:#7322A8;}
	.st15{fill:#FFCFC5;}
	.st16{fill:#161616;}
	.st17{fill:none;stroke:#1D1D1B;stroke-miterlimit:10;}
	.st18{fill:#FF6252;}
	.st19{opacity:0.3;}
	.st20{fill:#FFFFFF;stroke:#FFFFFF;stroke-miterlimit:10;}
	.st21{opacity:0.4;}
	.st22{fill:#4D4D4D;}
	.st23{fill:#FBB03B;}
	.st24{fill:#FF9999;}
	.st25{fill:#FF7676;}
	.st26{fill:#CC534E;}
</style>
<g>
	<linearGradient id="SVGID_1_" gradientUnits="userSpaceOnUse" x1="373.1272" y1="615.8766" x2="371.6166" y2="-24.9144">
		<stop  offset="9.732377e-02" style="stop-color:#4A69BD"/>
		<stop  offset="0.3504" style="stop-color:#368BAF"/>
		<stop  offset="0.6011" style="stop-color:#27A6A5"/>
		<stop  offset="0.8239" style="stop-color:#1DB69E"/>
		<stop  offset="0.9959" style="stop-color:#1ABC9C"/>
	</linearGradient>
	<path class="st0" d="M693,389.7c0,134.9-186.6,174.4-338,174.4c-158.1,0-302.8-11.9-302.8-166.5S156,35.9,314.1,35.9
		S693,294.3,693,389.7z"/>
	<path class="st1" d="M52.2,397.6C52.2,243.8,154.9,38,311.7,36c-0.6,0-1.3,0-1.9,0C100.3,35.9,7,249.4,7,400.9
		s144.7,163.2,302.8,163.2c5.5,0,11.1-0.1,16.8-0.2C180,562.1,52.2,542.8,52.2,397.6z"/>
</g>
<g id="XMLID_722_">
	<path id="XMLID_731_" class="st2" d="M157.1,337.9h-1c-0.9,0-1.7-0.8-1.7-1.7v-15.1c0-0.9,0.8-1.7,1.7-1.7h1c0.9,0,1.7,0.8,1.7,1.7
		v15.1C158.8,337.1,158.1,337.9,157.1,337.9z"/>
	<path id="XMLID_730_" class="st2" d="M280,347.1h-1c-0.9,0-1.7-0.8-1.7-1.7v-15.1c0-0.9,0.8-1.7,1.7-1.7h1c0.9,0,1.7,0.8,1.7,1.7
		v15.1C281.7,346.3,280.9,347.1,280,347.1z"/>
	<path id="XMLID_729_" class="st2" d="M157.1,359.1h-1c-0.9,0-1.7-0.8-1.7-1.7v-15.1c0-0.9,0.8-1.7,1.7-1.7h1c0.9,0,1.7,0.8,1.7,1.7
		v15.1C158.8,358.3,158.1,359.1,157.1,359.1z"/>
	<path id="XMLID_727_" class="st3" d="M260.9,517.5h-85.8c-10.3,0-18.6-8.3-18.6-18.6V311.2c0-10.3,8.3-18.6,18.6-18.6h85.8
		c10.3,0,18.6,8.3,18.6,18.6V499C279.5,509.2,271.2,517.5,260.9,517.5z"/>
	<rect id="XMLID_726_" x="160.7" y="321.2" class="st4" width="114.6" height="159.7"/>
	<path id="XMLID_725_" class="st5" d="M230.1,307.7H206c-0.9,0-1.6-0.7-1.6-1.6l0,0c0-0.9,0.7-1.6,1.6-1.6h24.2
		c0.9,0,1.6,0.7,1.6,1.6l0,0C231.8,306.9,231,307.7,230.1,307.7z"/>
	<circle id="XMLID_724_" class="st6" cx="196.2" cy="305.8" r="1.4"/>
	<circle id="XMLID_723_" class="st7" cx="217" cy="498.4" r="12.3"/>
</g>
<g id="XMLID_415_">
	<g id="XMLID_717_">
		<g id="XMLID_720_">
			<path id="XMLID_721_" class="st8" d="M339.4,335.7l7.4,7.8c1.1,1.1,2.3-1.4,3.4-2.5l2.8-0.6l-8.7-9.1L339.4,335.7z"/>
		</g>
		<g id="XMLID_718_">
			<path id="XMLID_719_" d="M346.2,338.1c-1.7,2.1-1.8,5.2,0.2,7c0.6,0.6,1.3,1,2.1,1.2c3.6,1,16.4-20.5,16.4-20.5s0.1-1.1-1.4-0.2
				l-10.4,6.7c0,0-5,2.3-6.2,4.6C346.7,337.5,346.5,337.8,346.2,338.1z"/>
		</g>
	</g>
	<g id="XMLID_416_">
		<path id="XMLID_716_" class="st9" d="M225,258.4c0,0,31.8,1.1,60.8,11.9c9.6,3.6,18.3,9.1,25.6,16.2l36.3,47.3l-6.2,5.3
			c0,0-9.7-8-20.4-14c-15.9-8.9-26.7-15.4-35.5-27l-61.7-16.5l-27.6-7.2l1-16H225z"/>
		<g id="XMLID_704_">
			<g>
				<g id="XMLID_93_">
					<g id="XMLID_94_">
						<g id="XMLID_95_">
							<path class="st10" d="M269.2,203c2.9,0.4,4.9-0.5,7.7,0.2c0.1-2.4,0.2-4,0.9-5.6c1.3-2.8,6.4-7.5,6.6-8.3
								c0.3-0.8-0.3-1-0.4-1.6c-0.1-0.6,0.6-1.1,0.4-1.6c-0.2-0.5-0.6-0.2-1.1-0.9c-0.5-0.6,0.4-1.3-0.2-2c-0.6-0.7-2,0.1-2-0.8
								c-0.1-0.9,2.5-3.7,4.1-5.2c1.5-1.4,1.4-2.1,1.3-2.3c-0.2-0.1-0.8-1.1-3.1-0.1c-2.3,1-5,6-6,7.2c-1,1.3-5.2,6.7-6.3,4.7
								c-1.1-2,2.1-4.6,2.1-4.6c0.8-0.7,0.7-1.5,0.5-1.7c-0.2-0.3-1.5-1.1-3.1,0.6c-1.5,1.7-4.6,4.3-1.8,17
								C269.2,199.7,269.2,201.4,269.2,203L269.2,203z"/>
						</g>
					</g>
				</g>
				<g id="XMLID_92_">
					<path class="st10" d="M213.8,200.5c0,0-0.5,25.9,28.6,31.5c34.7,6.7,34.6-30.5,34.6-30.5l-7.8,0c0,0-2.5,18.7-22.1,15.6
						c-13.7-2.2-13.1-21.1-13.1-21.1L213.8,200.5z"/>
				</g>
			</g>
		</g>
		<g id="XMLID_697_">
			<g id="XMLID_702_">
				<path id="XMLID_703_" class="st8" d="M235.1,325.1l-9.4,5.2c-1.4,0.8,0.8,2.6,1.6,3.9l-2.4,4.2l13.3-7.6L235.1,325.1z"/>
			</g>
			<g id="XMLID_700_">
				<path id="XMLID_701_" d="M230.4,331.2c-2.1-1.7-5.2-1.8-7,0.2c-0.6,0.6-1,1.3-1.2,2.1c-1,3.6,20.5,16.4,20.5,16.4
					s1.1,0.1,0.2-1.4l-6.7-10.3c0,0-2.4-5-4.6-6.2C231.1,331.7,230.7,331.4,230.4,331.2z"/>
			</g>
			<g id="XMLID_698_">
				<path id="XMLID_699_" class="st11" d="M283.8,282.8c-7.5-4.6-32.3-20.6-57.1-20.4c-4.3,0-8.2-1.2-14.2-3.3
					c-3.6,8.7-4.2,21.7-3.7,31.2c10,4,28.2,10.3,39.6,9c0,0-7.8,16.7-11.8,20.9c-1.7,1.7-4,4.2-6.2,6.6c1.7,2.2,3.1,4.7,4.6,7.1
					c9.9-5.5,38.1-21.6,46.5-30.6C291.7,292.2,289.5,286.3,283.8,282.8z"/>
			</g>
		</g>
		<path id="XMLID_696_" class="st11" d="M197.2,259.1c0,0-6.8,26.7,16.6,33.2c23.4,6.5-1.4-33.2-1.4-33.2H197.2z"/>
		<path id="XMLID_695_" class="st12" d="M217,292.8c-12.3-5.4-4.8-24.2,7.6-19.3c1.5,0.6,3,1.4,4.5,2.6c15,11.1,25.2,7,30.2,11
			c4.9,3.9,0.9,12.1-13.1,12.5C238,299.7,226.1,296.8,217,292.8z"/>
		<path id="XMLID_694_" class="st13" d="M240.7,192.3c9.8,10.9,20.8,37.5,16.3,70.3c0,0-17.3-5.5-35.2,10.3
			c-20,17.6-27.7,4.5-27.7,4.5s-7.1-52.1,12.1-83.1c3.1-5.1,9.1-12,15-12h1.4C229.6,182.2,236.1,187.2,240.7,192.3z"/>
		<ellipse id="XMLID_693_" class="st14" cx="223.6" cy="190.4" rx="12.6" ry="7.1"/>
		<path id="XMLID_691_" class="st15" d="M218.1,194.5c4.9,1.2,10.3,1.7,14.8-1.9c0.8-0.7,1-1.8,0.6-2.8c-1.2-3.1-1.5-3.1-1.4-5.3
			c0.3-4.7,11.2-5.7,15.2-13.5s-0.8-35.2-15-37.5c-14.2-2.3-25.7,4.1-23.1,23.9c2.3,17.1,4.3,21.9,3.7,30.9
			C212.8,190.9,215.5,193.9,218.1,194.5z"/>
		<circle id="XMLID_689_" class="st15" cx="210.6" cy="158.8" r="7"/>
		<ellipse id="XMLID_687_" class="st16" cx="228.9" cy="152.2" rx="1.4" ry="2.3"/>
		<ellipse id="XMLID_685_" class="st16" cx="242.1" cy="152.2" rx="1.4" ry="2.3"/>
		<circle id="XMLID_684_" class="st17" cx="226.5" cy="153" r="8.3"/>
		<circle id="XMLID_683_" class="st17" cx="245.1" cy="153" r="8.3"/>
		<polygon id="XMLID_682_" class="st18" points="236,146.3 242.1,162.4 234.8,162.4 		"/>
		<line id="XMLID_681_" class="st17" x1="239.7" y1="146.7" x2="231.9" y2="146.7"/>
		<line id="XMLID_680_" class="st17" x1="208.9" y1="151.2" x2="219.6" y2="148.5"/>
		<g id="XMLID_671_">
			<g id="XMLID_674_">
				<path id="XMLID_678_" class="st16" d="M270.1,193.2L270.1,193.2c-0.6-0.4-0.8-1.2-0.4-1.8l11.6-17.7c0.4-0.6,1.2-0.8,1.8-0.4h0
					c0.6,0.4,0.8,1.2,0.4,1.8l-11.6,17.7C271.5,193.4,270.7,193.6,270.1,193.2z"/>
				<g id="XMLID_675_">
					<path id="XMLID_676_" class="st15" d="M268.4,209c2.9,0.2,4.9-0.8,7.7-0.3c-0.1-2.4-0.1-4,0.5-5.7c1.1-2.9,5.8-7.9,6-8.8
						c0.2-0.9-0.4-0.9-0.5-1.6c-0.2-0.6,0.5-1.1,0.3-1.6s-0.6-0.2-1.1-0.8c-0.5-0.6,0.3-1.3-0.4-2c-0.6-0.7-1.9,0.2-2.1-0.6
						c-0.1-0.8,2.3-3.9,3.7-5.4s1.3-2.2,1.1-2.4s-0.9-1-3.1,0.2c-2.2,1.2-4.6,6.3-5.5,7.7c-0.9,1.4-4.7,7-5.9,5.1
						c-1.2-1.9,1.8-4.7,1.8-4.7c0.7-0.8,0.6-1.5,0.4-1.8c-0.2-0.3-1.6-1-3.1,0.8c-1.4,1.8-4.3,4.6-0.6,17.1
						C268.2,205.7,268.3,207.4,268.4,209L268.4,209z"/>
				</g>
			</g>
			<path id="XMLID_672_" class="st15" d="M213,210.4c0,0,1.4,25.8,30.7,29.3c35.1,4.2,32.4-32.9,32.4-32.9l-7.8,0.6
				c0,0-1.1,18.9-20.9,17.2c-13.8-1.2-14-15.6-14-15.6L213,210.4z"/>
		</g>
		<circle id="XMLID_669_" class="st16" cx="246.8" cy="167" r="5.1"/>
		<circle id="XMLID_667_" class="st16" cx="242.3" cy="173.1" r="5.1"/>
		<circle id="XMLID_665_" class="st16" cx="235.6" cy="177.2" r="5.1"/>
		<circle id="XMLID_663_" class="st16" cx="227.4" cy="179.7" r="5.1"/>
		<circle id="XMLID_661_" class="st16" cx="218.3" cy="177.2" r="5.1"/>
		<circle id="XMLID_659_" class="st16" cx="213.2" cy="170.2" r="5.1"/>
		<circle id="XMLID_657_" class="st16" cx="214.2" cy="161.9" r="5.1"/>
		<circle id="XMLID_655_" class="st16" cx="220.4" cy="168" r="5.1"/>
		<circle id="XMLID_653_" class="st16" cx="226.9" cy="170.7" r="5.1"/>
		<circle id="XMLID_651_" class="st16" cx="231.7" cy="173.1" r="5.1"/>
		<circle id="XMLID_649_" class="st16" cx="239" cy="168.3" r="5.1"/>
		<circle id="XMLID_647_" class="st16" cx="232.6" cy="168" r="5.1"/>
		<circle id="XMLID_645_" class="st16" cx="225.9" cy="167" r="5.1"/>
		<circle id="XMLID_643_" class="st16" cx="220" cy="165.6" r="5.1"/>
		<circle id="XMLID_641_" class="st16" cx="223.8" cy="174.6" r="5.1"/>
		<circle id="XMLID_639_" class="st16" cx="214.2" cy="175.8" r="5.1"/>
		<circle id="XMLID_637_" class="st16" cx="217.2" cy="182.2" r="5.1"/>
		<circle id="XMLID_635_" class="st16" cx="223.6" cy="185.3" r="5.1"/>
		<circle id="XMLID_448_" class="st16" cx="231.1" cy="185.3" r="5.1"/>
		<circle id="XMLID_434_" class="st16" cx="240" cy="183.2" r="5.1"/>
		<circle id="XMLID_432_" class="st16" cx="245.1" cy="177.1" r="5.1"/>
		<circle id="XMLID_430_" class="st16" cx="247.8" cy="171.6" r="5.1"/>
		<g id="XMLID_418_">
			<g id="XMLID_428_">
				<path id="XMLID_429_" class="st8" d="M231.9,170.2c0,0-1.4-1.7-3-2.3c-1.5-0.6-3.3-0.6-4.3,1.2c-1.1,1.8,0.3,4,2.2,6.1
					c1.1,1.2,5.4,3.8,8.4,3.5c3-0.3,4.7-0.7,5.9-2.2c1.2-1.5,0.5-3.7-0.6-4.7c-1.2-1-2.8-0.9-3.6-0.6
					C236,171.4,233.9,172,231.9,170.2z"/>
			</g>
		</g>
	</g>
</g>
<g id="XMLID_1_" class="st19">
	<path id="XMLID_5_" class="st8" d="M332.8,99.3h67.2c0,0-3.4-8.2-7.6-8.5c-4.2-0.3-5.4,2.2-6.7,2c-1.3-0.3-3.5-7-8.9-7.3
		c-5.4-0.3-7.5,4.7-10.4,5.6c-2.9,0.9-8.7,0.4-13.3-6.9c-4.5-7.3-13.1,0.6-13.4,6.2c-0.3,8.6-13.5,3.9-13.5,8.9H332.8z"/>
	<path id="XMLID_4_" class="st20" d="M486.8,215.7h-67.2c0,0,3.4-8.4,7.6-8.7c4.2-0.3,5.4,2.1,6.7,1.9c1.3-0.3,3.5-7,8.9-7.3
		c5.4-0.3,7.5,4.6,10.4,5.6c2.9,0.9,8.7,0.4,13.3-6.9c4.5-7.3,13.1,0.8,13.4,6.4c0.3,8.6,13.5,4.1,13.5,9.1H486.8z"/>
	<path id="XMLID_3_" class="st8" d="M186.4,191.9h-67.2c0,0,3.4-8.2,7.6-8.5c4.2-0.3,5.4,2.2,6.7,2c1.3-0.3,3.5-7,8.9-7.3
		c5.4-0.3,7.5,4.7,10.4,5.6c2.9,0.9,8.7,0.4,13.3-6.9c4.5-7.3,13.1,0.6,13.4,6.2c0.3,8.6,13.5,3.9,13.5,8.9H186.4z"/>
</g>
<g class="st21">
	<path class="st22" d="M138.6,537.8c-0.2,0.5-0.7,0.9-1.3,1.4c-0.6,0.5-1.4,0.9-2.4,1.4c-1,0.4-2.3,0.8-3.8,1.2
		c-1.5,0.4-3.3,0.6-5.3,0.8c-2.1,0.2-4.4,0.3-7.2,0.3c-3,0-5.8-0.2-8.4-0.5c-2.6-0.4-5.1-0.8-7.3-1.4s-4.2-1.3-5.9-2.1
		c-1.7-0.8-3.2-1.7-4.4-2.6c-1.2-0.9-2.1-1.9-2.8-2.9s-1-2-1-3c0-0.9,0.2-1.8,0.7-2.7c0.5-0.9,1.2-1.7,2.2-2.5
		c1-0.8,2.2-1.5,3.6-2.2c1.4-0.7,3.1-1.3,4.9-1.8c1.9-0.5,4-0.9,6.2-1.2c2.3-0.3,4.8-0.4,7.4-0.4c3.6,0,6.9,0.2,9.9,0.7
		c3,0.5,5.5,1.1,7.5,1.8s3.7,1.6,4.8,2.6c1.1,1,1.7,2,1.7,3c0,0.8-0.3,1.5-0.9,2.2c-0.6,0.7-1.4,1.3-2.5,1.8c-0.4-0.7-1-1.3-2-1.7
		s-2.1-0.8-3.3-1.1c-1.2-0.3-2.4-0.4-3.6-0.5c-1.2-0.1-2.2-0.1-3-0.1c-0.6,0-1.3,0-2.1,0.1c-0.8,0-1.6,0.1-2.4,0.3
		c-0.8,0.1-1.6,0.3-2.4,0.5c-0.8,0.2-1.5,0.5-2.1,0.8c-0.6,0.3-1.1,0.7-1.5,1.2c-0.4,0.5-0.6,1-0.6,1.7c0,0.9,0.2,1.7,0.6,2.4
		c0.4,0.7,1,1.2,1.6,1.6s1.4,0.8,2.2,1c0.8,0.3,1.6,0.4,2.4,0.6c0.8,0.1,1.5,0.2,2.1,0.2c0.6,0,1.1,0,1.5,0c0.6,0,1.1,0,1.6-0.1
		c0.4-0.1,0.8-0.1,1-0.2c0.3-0.1,0.5-0.2,0.6-0.3c0.1-0.1,0.2-0.2,0.2-0.3c0-0.2-0.2-0.4-0.6-0.6c-0.4-0.2-1.1-0.3-2.1-0.3
		c-0.4,0-0.8,0-1.2,0.1c-0.3,0.1-0.7,0.1-1,0.3c-0.3,0.1-0.6,0.3-0.7,0.5c-0.7-0.3-1.2-0.7-1.5-1.1c-0.3-0.4-0.5-0.8-0.5-1.2
		s0.2-0.8,0.6-1.2c0.4-0.4,0.9-0.8,1.7-1.1s1.7-0.6,2.9-0.8c1.2-0.2,2.6-0.3,4.3-0.3c1.9,0,3.6,0.1,5,0.4c1.5,0.3,2.7,0.6,3.8,1.1
		c1,0.4,1.8,0.9,2.4,1.4c0.6,0.5,0.8,1.1,0.8,1.6C139,536.9,138.9,537.3,138.6,537.8z"/>
	<path class="st22" d="M192.2,535.4c-1.2,1.5-3,2.8-5.3,3.9c-2.3,1.1-5,2-8.2,2.6c-3.2,0.6-6.7,0.9-10.6,0.9c-2.3,0-4.5-0.1-6.7-0.4
		c-2.2-0.3-4.2-0.7-6.1-1.2c-1.9-0.5-3.7-1.2-5.3-1.9c-1.6-0.8-3-1.6-4.1-2.5c-1.1-0.9-2-1.9-2.7-3c-0.6-1.1-1-2.2-1-3.3
		c0-1.5,0.5-3,1.6-4.3c1-1.4,2.6-2.5,4.8-3.5c2.1-1,4.8-1.8,8.1-2.4c3.2-0.6,7.1-0.9,11.5-0.9c4.4,0,8.3,0.3,11.5,0.9
		c3.2,0.6,5.9,1.4,8.1,2.4c2.1,1,3.7,2.2,4.8,3.5c1,1.4,1.6,2.8,1.6,4.3C194.1,532.3,193.5,533.9,192.2,535.4z M174.7,530.2
		c-0.3-0.5-0.8-1-1.4-1.3c-0.6-0.4-1.3-0.7-2.2-0.9c-0.9-0.2-1.8-0.3-2.9-0.3c-1.1,0-2,0.1-2.9,0.3c-0.8,0.2-1.6,0.5-2.1,0.9
		c-0.6,0.4-1,0.8-1.4,1.3s-0.5,1.1-0.5,1.7c0,0.6,0.2,1.2,0.6,1.9s0.9,1.2,1.5,1.7c0.6,0.5,1.4,0.9,2.2,1.2s1.7,0.5,2.6,0.5
		c1,0,1.9-0.1,2.7-0.4c0.9-0.3,1.6-0.6,2.2-1.1c0.6-0.5,1.1-1,1.5-1.7c0.4-0.6,0.6-1.3,0.6-2.1C175.2,531.2,175.1,530.7,174.7,530.2
		z"/>
	<path class="st22" d="M222.8,523.1c-0.5,0.9-0.9,1.9-1.3,2.8c-0.4,1-0.6,1.9-0.8,2.9c-0.2,1-0.3,1.9-0.3,2.9c1.6-0.9,3-1.8,4.3-2.8
		c1.3-0.9,2.4-1.9,3.3-2.9c0.9-1,1.6-2,2.1-3c0.5-1,0.8-2,0.8-3.1c3.3,0.2,6.4,0.3,9.3,0.4c2.9,0.1,5.4,0.1,7.7,0.1
		c1.2,0,2.2,0,3.1,0c0.9,0,1.7,0,2.4,0c0.8,0,1.4,0,2-0.1c-0.7,0.9-1.4,1.9-1.9,3c-0.5,1-1,2.1-1.3,3.2c-0.4,1.1-0.6,2.1-0.8,3.2
		c-0.2,1.1-0.2,2.1-0.2,3.2c0,0.9,0.1,1.8,0.2,2.7c0.1,0.9,0.3,1.7,0.5,2.5c0.2,0.8,0.5,1.5,0.7,2.2c0.3,0.7,0.6,1.3,1,1.9
		c-0.6,0-1.4-0.1-2.2-0.1c-0.7,0-1.6,0-2.7-0.1s-2.3,0-3.6,0c-2,0-4.3,0-6.9,0.1c-2.6,0.1-5.4,0.2-8.5,0.4c0.4-0.3,0.7-0.6,1-1
		c0.3-0.4,0.6-0.9,0.8-1.5c0.2-0.5,0.4-1.1,0.6-1.8c0.2-0.6,0.3-1.2,0.4-1.8c0.2-1.4,0.4-3,0.5-4.6v-0.6c-2.1,1.6-4,3.3-5.7,5.1
		c-1.7,1.8-3.2,3.8-4.5,6c-0.6,0-1.4-0.1-2.2-0.1c-0.7,0-1.6,0-2.7-0.1s-2.3,0-3.6,0c-2,0-4.3,0-6.8,0.1c-2.6,0.1-5.4,0.2-8.5,0.4
		c0.4-0.3,0.7-0.6,1-1c0.3-0.4,0.6-0.9,0.8-1.5c0.2-0.5,0.4-1.1,0.6-1.8c0.2-0.6,0.3-1.2,0.4-1.8c0.1-0.6,0.2-1.2,0.3-1.8
		c0.1-0.6,0.1-1.1,0.1-1.5c0-0.4,0.1-0.8,0.1-1.1c0-0.3,0-0.4,0-0.5c0-0.2,0-0.5,0-1.1c0-0.5-0.1-1.1-0.2-1.8
		c-0.1-0.7-0.2-1.5-0.4-2.3c-0.2-0.8-0.4-1.6-0.8-2.4c-0.3-0.8-0.7-1.5-1.2-2.2c-0.5-0.7-1.1-1.3-1.8-1.7c3.8,0.2,7.4,0.3,10.6,0.4
		c3.2,0.1,6,0.1,8.4,0.1c1.2,0,2.3,0,3.3,0c1,0,1.8,0,2.4,0c0.8,0,1.5,0,2.1-0.1C223.9,521.3,223.4,522.2,222.8,523.1z"/>
	<path class="st22" d="M293.7,523.6c-0.6,1.1-1.1,2.2-1.5,3.3c-0.4,1.1-0.7,2.2-0.9,3.3s-0.3,2.1-0.3,3.2c0,0.8,0.1,1.6,0.2,2.3
		c0.1,0.8,0.3,1.5,0.5,2.2c3-0.8,5.9-1.8,8.6-3.1c2.7-1.2,5.1-2.5,7.4-3.9l-1.7,11.8c-3.9-0.2-8.3-0.4-13-0.5
		c-4.7-0.1-9.5-0.2-14.3-0.2c-3.4,0-6.6,0-9.9,0.1c-3.2,0.1-6.3,0.1-9.2,0.3l-1.1-11.6c0.9,0.6,1.9,1.1,3,1.7
		c1.2,0.6,2.4,1.1,3.7,1.7c1.3,0.6,2.7,1.1,4.1,1.6c1.4,0.5,2.9,1,4.3,1.5c0.2-0.8,0.3-1.4,0.4-2.1c0.1-0.6,0.2-1.2,0.2-1.7
		c0.1-0.6,0.1-1.1,0.1-1.6c-0.1-1.1-0.2-2.3-0.6-3.6c-0.3-1.1-0.7-2.3-1.2-3.7c-0.6-1.4-1.4-2.8-2.4-4.3c3.2,0.2,6.2,0.3,9,0.3
		c2.8,0.1,5.4,0.1,7.7,0.1c1.4,0,2.6,0,3.6,0c1.1,0,2,0,2.8,0c0.9,0,1.7,0,2.4-0.1C295,521.4,294.3,522.5,293.7,523.6z"/>
	<path class="st22" d="M358,525.5c-1.7,1.8-3.3,3.6-4.6,5.5c-1.3,1.8-2.5,3.7-3.3,5.6c-0.9,1.9-1.4,3.8-1.7,5.7
		c-1.9-0.1-4.1-0.2-6.3-0.3c-2.3,0-4.7-0.1-7.1-0.1c-2.9,0-5.7,0-8.4,0.1c-2.7,0-5.2,0.1-7.5,0.2c-0.3-2-0.8-3.9-1.4-5.7
		c-0.6-1.9-1.5-3.7-2.5-5.5c-1-1.8-2.2-3.6-3.7-5.4s-3.1-3.6-5-5.4c2.2,0.1,4.3,0.1,6.3,0.2c2,0,4.1,0.1,6.1,0.1s4.1,0,6.1-0.1
		c2,0,4.1-0.1,6.3-0.2c-0.1,0.2-0.2,0.4-0.5,0.6c-0.2,0.2-0.4,0.4-0.7,0.6c-0.2,0.2-0.4,0.5-0.6,0.9c-0.2,0.3-0.3,0.7-0.3,1.2
		s0.1,0.9,0.3,1.3c0.2,0.4,0.4,0.8,0.8,1.1c0.4,0.3,0.9,0.6,1.5,0.7c0.6,0.2,1.4,0.3,2.3,0.3c0.8,0,1.6-0.1,2.2-0.3
		c0.6-0.2,1.2-0.5,1.6-0.8c0.4-0.3,0.8-0.7,1-1.2c0.2-0.4,0.3-0.9,0.3-1.4c0-0.5-0.1-0.9-0.2-1.2s-0.3-0.6-0.5-0.8s-0.4-0.4-0.6-0.6
		c-0.2-0.2-0.4-0.4-0.6-0.6c5.1,0.3,10.2,0.5,15,0.5c1.8,0,3.6,0,5.4,0c1.8,0,3.6-0.1,5.5-0.2C361.5,521.9,359.7,523.7,358,525.5z
		 M336.5,530.8c-0.6-0.3-1.4-0.5-2.4-0.5c-0.9,0-1.7,0.1-2.4,0.4c-0.7,0.3-1.1,0.7-1.1,1.2c0,0.2,0.1,0.5,0.3,0.8
		c0.2,0.3,0.4,0.6,0.7,0.9s0.6,0.7,0.9,1.1c0.3,0.4,0.6,0.9,0.8,1.4c1.1-0.8,1.9-1.5,2.4-2.1c0.6-0.5,1-1,1.2-1.3
		c0.3-0.4,0.5-0.7,0.6-0.9C337.5,531.5,337.2,531.1,336.5,530.8z"/>
	<path class="st22" d="M412.3,537.8c-0.2,0.5-0.7,0.9-1.3,1.4c-0.6,0.5-1.4,0.9-2.4,1.4c-1,0.4-2.3,0.8-3.8,1.2s-3.3,0.6-5.3,0.8
		c-2.1,0.2-4.4,0.3-7.2,0.3c-3,0-5.8-0.2-8.4-0.5c-2.6-0.4-5.1-0.8-7.3-1.4s-4.2-1.3-5.9-2.1s-3.2-1.7-4.4-2.6
		c-1.2-0.9-2.1-1.9-2.8-2.9c-0.6-1-1-2-1-3c0-0.9,0.2-1.8,0.7-2.7c0.5-0.9,1.2-1.7,2.2-2.5c1-0.8,2.2-1.5,3.6-2.2
		c1.4-0.7,3.1-1.3,4.9-1.8c1.9-0.5,4-0.9,6.2-1.2c2.3-0.3,4.8-0.4,7.4-0.4c3.6,0,6.9,0.2,9.9,0.7c3,0.5,5.5,1.1,7.5,1.8
		c2.1,0.8,3.7,1.6,4.8,2.6s1.7,2,1.7,3c0,0.8-0.3,1.5-0.9,2.2s-1.4,1.3-2.5,1.8c-0.4-0.7-1-1.3-2-1.7s-2.1-0.8-3.3-1.1
		c-1.2-0.3-2.4-0.4-3.6-0.5c-1.2-0.1-2.2-0.1-3-0.1c-0.6,0-1.3,0-2.1,0.1c-0.8,0-1.6,0.1-2.4,0.3c-0.8,0.1-1.6,0.3-2.4,0.5
		c-0.8,0.2-1.5,0.5-2.1,0.8s-1.1,0.7-1.5,1.2c-0.4,0.5-0.6,1-0.6,1.7c0,0.9,0.2,1.7,0.6,2.4c0.4,0.7,1,1.2,1.6,1.6
		c0.7,0.4,1.4,0.8,2.2,1s1.6,0.4,2.4,0.6c0.8,0.1,1.5,0.2,2.1,0.2c0.6,0,1.1,0,1.5,0c0.6,0,1.1,0,1.6-0.1s0.8-0.1,1-0.2
		c0.3-0.1,0.5-0.2,0.6-0.3s0.2-0.2,0.2-0.3c0-0.2-0.2-0.4-0.6-0.6c-0.4-0.2-1.1-0.3-2.1-0.3c-0.4,0-0.8,0-1.2,0.1
		c-0.3,0.1-0.7,0.1-1,0.3s-0.6,0.3-0.7,0.5c-0.7-0.3-1.2-0.7-1.5-1.1s-0.5-0.8-0.5-1.2s0.2-0.8,0.6-1.2c0.4-0.4,0.9-0.8,1.7-1.1
		c0.8-0.3,1.7-0.6,2.9-0.8c1.2-0.2,2.6-0.3,4.3-0.3c1.9,0,3.6,0.1,5,0.4c1.5,0.3,2.7,0.6,3.8,1.1c1,0.4,1.8,0.9,2.4,1.4
		s0.8,1.1,0.8,1.6C412.7,536.9,412.6,537.3,412.3,537.8z"/>
	<path class="st22" d="M450.6,523.6c-0.6,1.1-1.1,2.2-1.5,3.3s-0.7,2.2-0.9,3.3s-0.3,2.1-0.3,3.2c0,0.8,0.1,1.6,0.2,2.3
		s0.3,1.5,0.5,2.2c3-0.8,5.9-1.8,8.6-3.1c2.7-1.2,5.1-2.5,7.4-3.9l-1.7,11.8c-3.9-0.2-8.3-0.4-13-0.5c-4.7-0.1-9.5-0.2-14.3-0.2
		c-3.4,0-6.6,0-9.9,0.1c-3.2,0.1-6.3,0.1-9.2,0.3l-1.1-11.6c0.9,0.6,1.9,1.1,3,1.7c1.2,0.6,2.4,1.1,3.7,1.7c1.3,0.6,2.7,1.1,4.1,1.6
		c1.4,0.5,2.9,1,4.3,1.5c0.2-0.8,0.3-1.4,0.4-2.1c0.1-0.6,0.2-1.2,0.2-1.7c0.1-0.6,0.1-1.1,0.1-1.6c-0.1-1.1-0.2-2.3-0.6-3.6
		c-0.3-1.1-0.7-2.3-1.2-3.7c-0.6-1.4-1.4-2.8-2.4-4.3c3.2,0.2,6.2,0.3,9,0.3c2.8,0.1,5.4,0.1,7.7,0.1c1.4,0,2.6,0,3.6,0
		c1.1,0,2,0,2.8,0c0.9,0,1.7,0,2.4-0.1C452,521.4,451.2,522.5,450.6,523.6z"/>
	<path class="st22" d="M531.3,542.2c-0.8,0-1.7,0-2.8-0.1c-1.1,0-2.3,0-3.7,0c-2.1,0-4.4,0-7.1,0.1c-2.6,0.1-5.5,0.2-8.5,0.4
		c0.4-0.3,0.8-0.6,1.1-1c0.3-0.4,0.6-0.9,0.8-1.5c0.2-0.5,0.4-1.1,0.6-1.8c0.2-0.6,0.3-1.2,0.4-1.8c0.2-1.4,0.4-3,0.5-4.6
		c0-1.2-0.1-2.1-0.3-2.9c-0.2-0.8-0.5-1.4-1-1.9c-0.4-0.5-1-0.8-1.7-1c-0.7-0.2-1.5-0.3-2.4-0.3c-0.7,0-1.3,0.1-1.8,0.2
		c-0.5,0.2-0.9,0.5-1.2,0.9c-0.3,0.4-0.5,1.1-0.7,1.9c-0.1,0.8-0.2,1.8-0.2,3.1c0,1,0.1,2,0.3,3s0.5,1.9,0.8,2.8s0.7,1.7,1.1,2.5
		c0.4,0.8,0.8,1.5,1.2,2.1c-0.7,0-1.6-0.1-2.6-0.1c-0.9,0-1.9,0-3.1-0.1c-1.2,0-2.5,0-4,0c-2.3,0-4.8,0-7.5,0.1
		c-2.7,0.1-5.6,0.2-8.7,0.4c0.7-0.3,1.3-0.9,1.8-1.6c0.4-0.7,0.8-1.5,1-2.3c0.2-0.8,0.4-1.7,0.5-2.6c0.1-0.9,0.1-1.6,0.1-2.3
		c0-0.6,0-1,0-1.4c0-0.4,0-0.7-0.1-1c0-0.3-0.1-0.5-0.1-0.7c0-0.2-0.1-0.4-0.1-0.6c0-0.2-0.1-0.4-0.1-0.6c0-0.2,0-0.5,0-0.8
		c0-0.8,0.1-1.5,0.3-2.3s0.6-1.5,1.2-2.2c0.6-0.7,1.4-1.4,2.5-2s2.5-1.1,4.2-1.6c1.7-0.5,3.9-0.8,6.4-1.1c2.5-0.3,5.5-0.4,9-0.4
		c3.7,0,6.9,0.2,9.5,0.5c2.6,0.3,4.9,0.7,6.7,1.3s3.2,1.2,4.3,1.9s1.9,1.4,2.5,2.2c0.6,0.8,1,1.5,1.1,2.3c0.2,0.8,0.3,1.5,0.3,2.2
		c0,0.3,0,0.6,0,0.9c0,0.3,0,0.6-0.1,0.8c0,0.3-0.1,0.5-0.1,0.8s0,0.5,0,0.8c0,1.9,0.2,3.6,0.6,5.3c0.4,1.6,1,3,1.7,4.2
		C533,542.3,532.2,542.2,531.3,542.2z"/>
	<path class="st22" d="M583.5,539.6c-0.8,0.6-2,1.2-3.8,1.7c-1.7,0.5-4,0.9-6.8,1.2c-2.8,0.3-6.2,0.5-10.2,0.5
		c-4,0-7.6-0.2-10.7-0.5c-3.1-0.4-5.8-0.9-8-1.5s-3.8-1.4-5-2.2c-1.1-0.9-1.7-1.8-1.7-2.7c0-0.8,0.3-1.5,0.8-2.1
		c0.5-0.6,1.3-1.1,2.3-1.5c1-0.4,2.2-0.8,3.6-1.1s3-0.6,4.8-1c1.8-0.3,3.7-0.7,5.9-1s4.4-0.8,6.8-1.3c1.3-0.3,2.2-0.6,2.9-1
		c0.7-0.4,1-0.7,1-1.1c0-0.2-0.1-0.4-0.3-0.5c-0.2-0.2-0.5-0.3-0.9-0.5c-0.4-0.1-0.9-0.3-1.4-0.3c-0.5-0.1-1.1-0.1-1.7-0.1
		c-0.6,0-1.1,0-1.6,0.1c-0.5,0.1-1,0.1-1.3,0.3c-0.4,0.1-0.7,0.2-0.9,0.4c-0.2,0.1-0.4,0.3-0.4,0.5c0,0.3,0.2,0.6,0.7,0.7
		s1.2,0.2,2,0.2c0.5,0,1.1,0,1.7-0.1c-0.5,0.3-1.2,0.6-2.1,0.9c-0.9,0.3-1.9,0.5-3,0.6c-1.1,0.2-2.3,0.3-3.5,0.4
		c-1.2,0.1-2.5,0.1-3.8,0.1c-1.7,0-3.2-0.1-4.7-0.2c-1.5-0.2-2.7-0.4-3.8-0.7c-1.1-0.3-1.9-0.7-2.6-1.2c-0.6-0.5-0.9-1-0.9-1.6
		c0-0.8,0.6-1.6,1.9-2.4c1.3-0.7,3-1.4,5.1-1.9c2.2-0.5,4.7-1,7.5-1.3c2.9-0.3,5.9-0.5,9-0.5c3.5,0,6.9,0.2,10.1,0.6s6,0.9,8.5,1.6
		c2.4,0.7,4.4,1.5,5.9,2.5c1.5,1,2.2,2.1,2.2,3.3c0,0.8-0.3,1.6-1,2.2c-0.7,0.6-1.6,1.2-2.7,1.6c-1.1,0.5-2.4,0.9-3.9,1.2
		c-1.5,0.3-3.1,0.6-4.8,0.9c-1.7,0.3-3.4,0.5-5.2,0.7c-1.8,0.2-3.5,0.5-5.2,0.7c-1.1,0.1-2.1,0.3-3,0.5c-0.9,0.2-1.7,0.5-2.4,0.7
		c-0.7,0.3-1.2,0.5-1.6,0.8c-0.4,0.3-0.6,0.6-0.6,0.9c0,0.3,0.2,0.6,0.5,0.8c0.3,0.2,0.8,0.4,1.3,0.6c0.5,0.2,1.1,0.3,1.8,0.4
		s1.3,0.1,1.9,0.1c0.9,0,1.6,0,2.2-0.1c0.6-0.1,1.1-0.2,1.4-0.3c0.4-0.1,0.6-0.2,0.7-0.3c0.1-0.1,0.2-0.2,0.2-0.4
		c0-0.2-0.2-0.3-0.5-0.5c-0.4-0.2-1-0.2-1.8-0.2c-0.3,0-0.8,0-1.2,0.1c-0.5,0.1-0.9,0.2-1.3,0.4c0-0.1,0-0.3,0.1-0.5
		s0.2-0.4,0.5-0.7c0.3-0.3,0.6-0.5,1.1-0.8c0.5-0.3,1.2-0.5,2-0.7c0.8-0.2,1.9-0.4,3.1-0.5c1.2-0.1,2.7-0.2,4.5-0.2
		c1.6,0,3.1,0.1,4.5,0.2c1.4,0.2,2.6,0.4,3.6,0.7c1,0.3,1.8,0.6,2.4,1.1s0.9,0.9,0.9,1.4C584.7,538.3,584.3,538.9,583.5,539.6z"/>
</g>
<g>
	<path class="st23" d="M154.3,478.3c0,1.5-0.3,3-0.8,4.6c-0.5,1.5-1.3,2.9-2.3,4.2c-1,1.3-2.2,2.3-3.6,3.1c-1.4,0.8-3,1.2-4.8,1.2
		c-1.6,0-2.9-0.3-4.1-0.8c-1.1-0.5-2.1-1.3-2.8-2.2c-0.7-0.9-1.3-1.9-1.6-3.1s-0.5-2.3-0.5-3.6c0-1.2,0.2-2.4,0.5-3.6
		c0.3-1.2,0.8-2.2,1.4-3.1c0.2,0.6,0.4,1.1,0.7,1.4c0.3,0.3,0.6,0.6,0.9,0.7c0.4,0.2,0.7,0.3,1.1,0.3c0.9,0,1.6-0.3,2-0.8
		s0.6-1.1,0.6-1.7c0-0.3-0.1-0.6-0.2-0.9c-0.1-0.3-0.3-0.6-0.6-0.9c-0.3-0.3-0.6-0.5-1-0.7c-0.4-0.2-0.9-0.3-1.5-0.3
		c-0.3,0-0.8,0-1.4,0.1c-0.6,0.1-1.3,0.3-2,0.7c-0.7,0.4-1.5,0.9-2.3,1.7c-0.8,0.7-1.5,1.7-2.1,3c-0.6,1.3-1.1,2.8-1.5,4.7
		c-0.4,1.9-0.6,4.2-0.6,6.9c0,1.9,0.2,3.5,0.6,4.8c0.4,1.4,0.8,2.5,1.4,3.5c0.6,1,1.3,1.8,2,2.4c0.8,0.6,1.5,1.1,2.3,1.5
		c0.8,0.4,1.6,0.6,2.3,0.7c0.8,0.1,1.4,0.2,2,0.2c0.8,0,1.7-0.1,2.9-0.4c1.2-0.3,2.3-0.8,3.5-1.5c1.1-0.7,2.2-1.8,3.1-3
		c0.9-1.3,1.6-3,1.9-5c1,1.4,1.8,3.2,2.4,5.2c0.5,2,0.8,4.1,0.8,6.3c0,3-0.5,5.9-1.6,8.7c-1.1,2.8-2.6,5.3-4.6,7.5
		c-2,2.2-4.4,3.9-7.2,5.2s-6,2-9.4,2c-2.6,0-4.9-0.4-7.1-1.2c-2.2-0.8-4.2-1.9-6-3.4c-1.8-1.4-3.4-3.1-4.7-5.1
		c-1.4-2-2.5-4.1-3.4-6.4c-0.9-2.3-1.6-4.7-2.1-7.3c-0.5-2.5-0.7-5.1-0.7-7.7c0-2.9,0.3-5.8,0.9-8.7c0.6-2.9,1.5-5.7,2.7-8.5
		c1.2-2.7,2.6-5.2,4.2-7.6c1.7-2.4,3.6-4.4,5.7-6.2c2.1-1.8,4.4-3.1,7-4.1c2.5-1,5.2-1.5,8.1-1.5c2.6,0,4.9,0.3,6.8,0.9
		c2,0.6,3.7,1.4,5.1,2.4c1.4,1,2.6,2.2,3.6,3.5c1,1.3,1.7,2.6,2.3,4s1,2.8,1.2,4.1C154.2,475.9,154.3,477.1,154.3,478.3z"/>
	<path class="st23" d="M207,495.5c0,4.5-0.5,8.7-1.5,12.6c-1,3.9-2.5,7.4-4.5,10.3c-2,2.9-4.6,5.2-7.7,6.9c-3.1,1.7-6.8,2.5-11,2.5
		c-4.2,0-7.9-0.8-11-2.5c-3.1-1.7-5.7-4-7.7-6.9c-2-2.9-3.6-6.4-4.6-10.3c-1-3.9-1.5-8.1-1.5-12.6c0-3.3,0.3-6.5,0.9-9.5
		c0.6-3.1,1.5-5.9,2.6-8.6c1.1-2.6,2.4-5.1,3.9-7.2c1.5-2.2,3.2-4,5.1-5.6c1.8-1.5,3.8-2.7,5.9-3.6c2.1-0.9,4.2-1.3,6.4-1.3
		c3.7,0,7.1,0.9,10.1,2.7s5.6,4.3,7.8,7.5s3.8,7,5,11.3C206.4,485.6,207,490.3,207,495.5z M189,491.7c0-2.2-0.2-4.2-0.5-6.1
		s-0.8-3.5-1.4-4.9c-0.6-1.4-1.3-2.4-2.1-3.2c-0.8-0.8-1.7-1.2-2.6-1.2c-0.9,0-1.7,0.5-2.5,1.4s-1.5,2.1-2.1,3.6
		c-0.6,1.5-1.1,3.1-1.4,4.9s-0.5,3.6-0.5,5.4c0,1.7,0.2,3.3,0.5,4.8s0.7,2.8,1.3,3.9c0.6,1.1,1.2,1.9,2.1,2.6
		c0.8,0.6,1.7,0.9,2.8,0.9c1,0,1.9-0.3,2.8-0.9c0.8-0.6,1.5-1.5,2.1-2.6c0.6-1.1,1-2.4,1.3-3.9S189,493.4,189,491.7z"/>
	<path class="st23" d="M236.2,524.8c-0.6-0.1-1.2-0.1-2-0.2c-0.6-0.1-1.4-0.1-2.3-0.1c-0.9,0-2,0-3.1,0c-2.3,0-5,0.1-8.1,0.3
		c-3.1,0.2-6.5,0.6-10.1,1.2c0.6-1.3,1.2-3,1.7-5s0.9-4.2,1.2-6.5c0.3-2.3,0.6-4.7,0.7-7c0.2-2.4,0.3-4.6,0.4-6.7
		c0.1-2.1,0.1-3.8,0.2-5.3c0-1.5,0-2.5,0-3.1c0-0.1,0-0.6,0-1.4c0-0.8,0-1.8-0.1-3.1c0-1.3-0.1-2.7-0.1-4.3
		c-0.1-1.6-0.1-3.3-0.2-5.1c-0.1-1.8-0.2-3.5-0.4-5.3c-0.2-1.8-0.4-3.5-0.6-5.1c-0.2-1.6-0.5-3-0.8-4.3c-0.3-1.3-0.6-2.3-1-3
		c3,0.5,5.7,0.9,8.1,1.1c2.4,0.2,4.6,0.3,6.5,0.3c1.3,0,2.4,0,3.5-0.1c1-0.1,1.9-0.1,2.5-0.2c0.8-0.1,1.5-0.2,2.1-0.3
		c1.3,6.2,2.7,12,4.3,17.3c1.6,5.3,3.4,10.3,5.5,14.8v-1.8c-0.1-4.8-0.3-9.3-0.5-13.4c-0.1-1.8-0.3-3.5-0.4-5.3
		c-0.1-1.8-0.3-3.5-0.6-5.1c-0.2-1.6-0.5-3-0.8-4.3c-0.3-1.3-0.6-2.3-1-3c2.9,0.5,5.7,0.9,8.1,1.1c2.5,0.2,4.7,0.3,6.6,0.3
		c1.3,0,2.4,0,3.5-0.1c1-0.1,1.9-0.1,2.5-0.2c0.8-0.1,1.5-0.2,2.1-0.3c-0.4,1.6-0.7,3.5-0.9,5.5s-0.5,4.2-0.7,6.5
		c-0.2,2.3-0.4,4.7-0.5,7.2c-0.1,2.5-0.2,5.1-0.2,7.8c0,3,0.1,6.1,0.2,9.2c0.1,3.1,0.4,6.3,0.7,9.4c0.3,3.1,0.8,6.1,1.3,9.1
		c0.5,3,1.1,5.8,1.8,8.6c-0.5-0.1-1.2-0.1-1.9-0.2c-0.6-0.1-1.4-0.1-2.3-0.1s-1.9,0-3,0c-2.1,0-4.6,0.1-7.3,0.3
		c-2.8,0.2-5.7,0.6-8.9,1.2c0-3-0.2-6-0.7-8.9c-0.5-2.9-1.2-5.8-2.1-8.6c-0.9-2.8-1.9-5.6-3.2-8.3c-1.2-2.7-2.6-5.4-4.1-8
		c0,2.8,0.1,5.6,0.3,8.4c0.2,2.8,0.5,5.6,0.8,8.4c0.3,2.8,0.8,5.5,1.2,8.1C235,519.7,235.5,522.3,236.2,524.8z"/>
	<path class="st23" d="M304.3,524.8c-0.7-0.1-1.5-0.1-2.3-0.2c-0.8-0.1-1.7-0.1-2.7-0.1c-1,0-2.2,0-3.5,0c-2.2,0-4.6,0.1-7.3,0.2
		c-2.7,0.2-5.6,0.5-8.6,0.9c1-4.4,1.8-8.5,2.3-12.6c0.5-4,0.9-7.6,1.2-10.8c0.3-3.7,0.5-7.1,0.5-10.4c0-1.4,0-2.9-0.1-4.5
		c-0.1-1.4-0.1-3.1-0.2-4.9c-0.1-1.9-0.2-3.9-0.4-6.1c-1.4,1.3-2.8,2.7-4.1,4.3s-2.7,3.1-3.9,4.7c-1.3,1.6-2.4,3.3-3.6,5
		c-1.1,1.7-2.1,3.3-2.9,4.9l1.1-33.7c2.8,0.3,5.7,0.6,8.8,0.8c3.1,0.2,6.2,0.3,9.4,0.3c4.6,0,9.1-0.2,13.6-0.5
		c4.5-0.3,8.6-0.8,12.4-1.4l1.6,34.1c-2.1-4-4.5-7.8-7-11.4c-2.6-3.5-5.3-6.5-8.2-8.9c-0.2,2-0.4,4.1-0.5,6.3
		c-0.1,2.2-0.2,4.4-0.2,6.7c0,3,0.1,6,0.3,9.2c0.2,3.1,0.5,6.3,0.8,9.5c0.4,3.2,0.8,6.3,1.4,9.5
		C302.8,518.8,303.5,521.8,304.3,524.8z"/>
	<path class="st23" d="M368.9,525.6c-1.8-0.2-3.6-0.4-5.3-0.5c-1.7-0.1-3.4-0.1-5.1-0.1c-4.7,0-9.5,0.5-14.4,1.4
		c0.2-0.7,0.4-1.3,0.6-1.9c0.2-0.5,0.4-1.1,0.6-1.8c0.2-0.7,0.3-1.4,0.4-2.3c0.1-0.9,0.2-2,0.2-3.4c0-1.4-0.1-2.8-0.3-4
		c-0.2-1.3-0.5-2.4-0.9-3.4s-0.9-1.8-1.5-2.4c-0.6-0.6-1.3-0.9-2.1-0.9c-0.9,0-1.6,0.3-2.2,0.8c-0.6,0.5-1.1,1.3-1.5,2.2
		c-0.4,0.9-0.6,2-0.8,3.1c-0.2,1.2-0.2,2.4-0.2,3.8c0,1.3,0.1,2.5,0.2,3.4s0.4,1.8,0.6,2.5s0.4,1.3,0.6,1.9c0.2,0.5,0.4,1.1,0.4,1.6
		c-2-0.2-4-0.4-6-0.5c-2-0.1-3.9-0.2-5.8-0.2c-1.9,0-3.9,0.1-5.8,0.2c-2,0.1-4,0.3-6.1,0.5c1.8-5.3,3.4-10.5,4.8-15.8
		c1.4-5.2,2.5-10.4,3.5-15.7c1-5.3,1.8-10.6,2.4-16c0.6-5.4,1.1-10.9,1.3-16.5c2.2,0.3,4.6,0.5,7.2,0.6c2.6,0.1,5.3,0.2,8,0.2
		c2.3,0,4.6-0.1,6.8-0.2c2.2-0.1,4.2-0.4,6.1-0.8c0.2,5.6,0.7,11.2,1.6,16.6c0.9,5.4,1.9,10.8,3.2,16.2c1.3,5.3,2.7,10.6,4.4,15.8
		C365.4,515.2,367.1,520.4,368.9,525.6z M344.2,491.3c-0.1-0.6-0.2-1.4-0.5-2.5c-0.3-0.9-0.7-2.2-1.2-3.7c-0.5-1.5-1.3-3.5-2.3-6
		c-0.2,1.5-0.5,2.9-0.8,4.1c-0.3,1.2-0.6,2.3-0.8,3.2c-0.3,1-0.5,1.8-0.7,2.6c-0.2,0.8-0.3,1.5-0.3,2.3c0,1.5,0.3,2.6,1,3.4
		c0.7,0.8,1.5,1.2,2.3,1.2c0.9,0,1.7-0.4,2.3-1.3S344.1,492.6,344.2,491.3z"/>
	<path class="st23" d="M416,478.3c0,1.5-0.3,3-0.8,4.6c-0.5,1.5-1.3,2.9-2.3,4.2c-1,1.3-2.2,2.3-3.6,3.1c-1.4,0.8-3,1.2-4.8,1.2
		c-1.6,0-2.9-0.3-4.1-0.8c-1.1-0.5-2.1-1.3-2.8-2.2c-0.7-0.9-1.3-1.9-1.6-3.1s-0.5-2.3-0.5-3.6c0-1.2,0.2-2.4,0.5-3.6
		c0.3-1.2,0.8-2.2,1.4-3.1c0.2,0.6,0.4,1.1,0.7,1.4c0.3,0.3,0.6,0.6,0.9,0.7c0.4,0.2,0.7,0.3,1.1,0.3c0.9,0,1.6-0.3,2-0.8
		s0.6-1.1,0.6-1.7c0-0.3-0.1-0.6-0.2-0.9s-0.3-0.6-0.6-0.9s-0.6-0.5-1-0.7c-0.4-0.2-0.9-0.3-1.5-0.3c-0.3,0-0.8,0-1.4,0.1
		c-0.6,0.1-1.3,0.3-2,0.7c-0.7,0.4-1.5,0.9-2.3,1.7c-0.8,0.7-1.5,1.7-2.1,3c-0.6,1.3-1.1,2.8-1.5,4.7c-0.4,1.9-0.6,4.2-0.6,6.9
		c0,1.9,0.2,3.5,0.6,4.8c0.4,1.4,0.8,2.5,1.4,3.5s1.3,1.8,2,2.4c0.8,0.6,1.5,1.1,2.3,1.5c0.8,0.4,1.6,0.6,2.3,0.7
		c0.8,0.1,1.4,0.2,2,0.2c0.8,0,1.7-0.1,2.9-0.4c1.2-0.3,2.3-0.8,3.5-1.5c1.1-0.7,2.2-1.8,3.1-3c0.9-1.3,1.6-3,1.9-5
		c1,1.4,1.8,3.2,2.4,5.2c0.5,2,0.8,4.1,0.8,6.3c0,3-0.5,5.9-1.6,8.7c-1.1,2.8-2.6,5.3-4.6,7.5c-2,2.2-4.4,3.9-7.2,5.2
		c-2.8,1.3-6,2-9.4,2c-2.6,0-4.9-0.4-7.1-1.2c-2.2-0.8-4.2-1.9-6-3.4c-1.8-1.4-3.4-3.1-4.7-5.1c-1.4-2-2.5-4.1-3.4-6.4
		c-0.9-2.3-1.6-4.7-2.1-7.3s-0.7-5.1-0.7-7.7c0-2.9,0.3-5.8,0.9-8.7c0.6-2.9,1.5-5.7,2.7-8.5c1.2-2.7,2.6-5.2,4.2-7.6
		c1.7-2.4,3.6-4.4,5.7-6.2c2.1-1.8,4.4-3.1,7-4.1c2.5-1,5.2-1.5,8.1-1.5c2.6,0,4.9,0.3,6.8,0.9c2,0.6,3.7,1.4,5.1,2.4
		c1.4,1,2.6,2.2,3.6,3.5s1.7,2.6,2.3,4c0.6,1.4,1,2.8,1.2,4.1S416,477.1,416,478.3z"/>
	<path class="st23" d="M454.4,524.8c-0.7-0.1-1.5-0.1-2.3-0.2c-0.8-0.1-1.7-0.1-2.7-0.1c-1,0-2.2,0-3.5,0c-2.2,0-4.6,0.1-7.3,0.2
		c-2.7,0.2-5.6,0.5-8.6,0.9c1-4.4,1.8-8.5,2.3-12.6c0.5-4,0.9-7.6,1.2-10.8c0.3-3.7,0.5-7.1,0.5-10.4c0-1.4,0-2.9-0.1-4.5
		c-0.1-1.4-0.1-3.1-0.2-4.9c-0.1-1.9-0.2-3.9-0.4-6.1c-1.4,1.3-2.8,2.7-4.1,4.3s-2.7,3.1-3.9,4.7c-1.3,1.6-2.4,3.3-3.6,5
		c-1.1,1.7-2.1,3.3-2.9,4.9l1.1-33.7c2.8,0.3,5.7,0.6,8.8,0.8c3.1,0.2,6.2,0.3,9.4,0.3c4.6,0,9.1-0.2,13.6-0.5
		c4.5-0.3,8.6-0.8,12.4-1.4l1.6,34.1c-2.1-4-4.5-7.8-7-11.4c-2.6-3.5-5.3-6.5-8.2-8.9c-0.2,2-0.4,4.1-0.5,6.3
		c-0.1,2.2-0.2,4.4-0.2,6.7c0,3,0.1,6,0.3,9.2c0.2,3.1,0.5,6.3,0.8,9.5c0.4,3.2,0.8,6.3,1.4,9.5S453.6,521.8,454.4,524.8z"/>
	<path class="st23" d="M531.7,461.4c-0.7,3.4-1.2,7.4-1.6,12.2c-0.4,4.7-0.6,9.8-0.6,15.2c0,0.8,0,1.5,0,2.2c0,0.7,0,1.5,0.1,2.2
		c0,0.8,0.1,1.6,0.1,2.4c0,0.8,0,1.7,0,2.6c0,2-0.1,4.1-0.2,6.3c-0.2,2.2-0.5,4.5-1.1,6.7c-0.6,2.2-1.4,4.3-2.4,6.4
		c-1,2-2.4,3.8-4.1,5.4c-1.7,1.5-3.8,2.8-6.4,3.7c-2.5,0.9-5.6,1.4-9.1,1.4c-3.3,0-6.2-0.4-8.6-1.1c-2.4-0.8-4.4-1.8-6.1-3.1
		c-1.7-1.3-3-2.8-4-4.6c-1-1.8-1.8-3.7-2.4-5.7c-0.6-2-0.9-4.2-1.1-6.4c-0.2-2.2-0.3-4.4-0.3-6.6c0-1,0-1.8,0-2.4s0-1.3,0.1-1.8
		c0-0.5,0.1-1.1,0.1-1.7s0.1-1.2,0.1-2c0-0.8,0.1-1.7,0.1-2.8c0-1.1,0-2.4,0-4.1c0-2,0-4.2-0.1-6.7s-0.2-5-0.5-7.4
		c-0.2-2.4-0.6-4.6-1-6.7c-0.4-2-1-3.5-1.7-4.5c3,0.5,5.8,0.9,8.4,1.1c2.6,0.2,5,0.3,7.2,0.3c1.4,0,2.7,0,3.8-0.1
		c1.1-0.1,2.1-0.1,3-0.2c1-0.1,1.8-0.2,2.5-0.3c-0.4,1.8-0.8,3.9-1.1,6.1c-0.4,2.3-0.7,4.7-1,7.3c-0.3,2.6-0.5,5.3-0.7,8.2
		c-0.2,2.9-0.3,5.8-0.3,8.7c0,3.7,0.1,6.7,0.2,9c0.1,2.3,0.3,4.1,0.6,5.4c0.3,1.3,0.7,2.2,1.1,2.6c0.5,0.5,1,0.7,1.7,0.7
		c0.9,0,1.7-0.3,2.3-0.9c0.6-0.6,1.2-1.5,1.6-2.9c0.4-1.4,0.7-3.2,0.9-5.4c0.2-2.2,0.3-5,0.3-8.4c-0.1-4.8-0.2-9.3-0.4-13.4
		c-0.1-1.8-0.2-3.5-0.4-5.3c-0.2-1.8-0.4-3.5-0.6-5.1s-0.5-3-0.8-4.3c-0.3-1.3-0.6-2.3-1-3c2.9,0.5,5.7,0.9,8.2,1.1
		c2.5,0.2,4.8,0.3,6.8,0.3c1.3,0,2.5,0,3.6-0.1c1-0.1,1.9-0.1,2.7-0.2C530.3,461.6,531,461.5,531.7,461.4z"/>
	<path class="st23" d="M580.5,474.7c0,1.5-0.3,2.8-0.8,4c-0.5,1.2-1.3,2.2-2.3,3.1c-1,0.9-2.1,1.5-3.4,2c-1.3,0.5-2.7,0.7-4.3,0.7
		c-1.7,0-3.1-0.2-4.3-0.6c-1.2-0.4-2.2-0.9-3-1.6c-0.8-0.6-1.5-1.3-1.9-2.1c-0.5-0.8-0.8-1.5-1.1-2.3c-0.3-0.7-0.4-1.4-0.5-2
		c-0.1-0.6-0.1-1.1-0.1-1.4c0.4,0.6,0.8,1,1.2,1.1c0.5,0.2,0.9,0.2,1.2,0.2c0.8,0,1.4-0.2,1.7-0.7c0.3-0.4,0.5-0.9,0.5-1.4
		c0-0.3-0.1-0.7-0.2-1c-0.1-0.4-0.4-0.7-0.7-1s-0.8-0.6-1.4-0.8c-0.6-0.2-1.3-0.3-2.1-0.3c-0.6,0-1.2,0.1-1.8,0.3s-1.2,0.6-1.7,1
		c-0.5,0.5-0.9,1-1.3,1.7c-0.3,0.7-0.5,1.5-0.5,2.4c0,0.9,0.2,1.8,0.6,2.6c0.4,0.9,0.9,1.7,1.5,2.4c0.6,0.8,1.4,1.5,2.3,2.1
		c0.9,0.6,1.8,1.1,2.8,1.5c1.6,0.7,3.3,1.3,5,2c1.7,0.6,3.4,1.4,5,2.1c1.6,0.8,3.1,1.6,4.6,2.6c1.4,1,2.7,2.2,3.8,3.5
		s1.9,2.9,2.6,4.7c0.6,1.8,0.9,3.9,0.9,6.3c0,3.4-0.7,6.6-2.1,9.4c-1.4,2.8-3.3,5.3-5.6,7.3c-2.3,2-5,3.6-8.1,4.7s-6.3,1.7-9.6,1.7
		c-3,0-5.9-0.4-8.6-1.3s-5.1-2.1-7.2-3.7c-2.1-1.6-3.7-3.4-4.9-5.5s-1.8-4.4-1.8-6.8c0-1.8,0.3-3.4,0.9-4.7c0.6-1.4,1.4-2.5,2.4-3.4
		c1-0.9,2.3-1.6,3.7-2c1.4-0.4,2.9-0.7,4.5-0.7c1.2,0,2.4,0.1,3.6,0.4c1.2,0.3,2.3,0.7,3.4,1.2c1,0.5,2,1.1,2.8,1.9
		c0.8,0.7,1.5,1.6,2,2.5c-0.6-0.2-1.2-0.3-1.6-0.3c-0.8,0-1.4,0.2-1.9,0.7s-0.7,1.2-0.7,2.1c0,0.5,0.1,1,0.4,1.4
		c0.2,0.4,0.5,0.8,0.9,1.1c0.4,0.3,0.8,0.6,1.3,0.8c0.5,0.2,1,0.3,1.5,0.3c0.6,0,1.1-0.1,1.6-0.4c0.5-0.2,0.9-0.6,1.3-1
		c0.4-0.4,0.7-0.9,0.9-1.4c0.2-0.5,0.3-1,0.3-1.5c0-1-0.3-2.1-0.9-3.1c-0.6-1.1-1.6-2-2.8-2.8c-2.3-1.4-4.5-2.6-6.5-3.7
		c-2-1-3.9-2-5.6-2.9s-3.2-1.9-4.6-2.8s-2.5-2-3.5-3.3c-1-1.2-1.7-2.7-2.2-4.3s-0.8-3.7-0.8-6c0-2.8,0.5-5.5,1.6-7.9
		c1.1-2.5,2.7-4.6,4.7-6.5s4.6-3.3,7.6-4.3c3-1.1,6.4-1.6,10.2-1.6c3.9,0,7.1,0.5,9.8,1.4s4.8,2.1,6.5,3.6c1.7,1.5,2.9,3.1,3.6,4.9
		C580.1,471.1,580.5,472.9,580.5,474.7z"/>
</g>
<g id="XMLID_6_">
	<g id="XMLID_170_">
		<g>
			<g id="XMLID_89_">
				<g id="XMLID_90_">
					<g id="XMLID_91_">
						<path class="st10" d="M487.3,350.2c3.6,0.5,6.1-0.6,9.5,0.3c0.1-2.9,0.2-5,1.1-6.9c1.6-3.5,7.9-9.2,8.2-10.3
							c0.3-1-0.4-1.2-0.5-2c-0.1-0.8,0.7-1.3,0.5-2c-0.2-0.7-0.7-0.3-1.3-1.1c-0.6-0.8,0.5-1.6-0.3-2.5c-0.7-0.9-2.4,0.1-2.5-0.9
							c-0.1-1.1,3.1-4.6,5-6.4c1.9-1.8,1.8-2.6,1.6-2.8c-0.2-0.2-1-1.3-3.8-0.1c-2.8,1.3-6.2,7.4-7.4,9c-1.2,1.6-6.4,8.2-7.7,5.7
							c-1.3-2.5,2.6-5.7,2.6-5.7c0.9-0.9,0.9-1.8,0.7-2.1c-0.3-0.3-1.9-1.4-3.9,0.8c-1.9,2-5.7,5.3-2.2,21
							C487.4,346.1,487.4,348.2,487.3,350.2L487.3,350.2z"/>
					</g>
				</g>
			</g>
			<g id="XMLID_88_">
				<path class="st10" d="M418.9,347.1c0,0-0.6,31.9,35.3,38.8c42.9,8.3,42.8-37.7,42.8-37.7l-9.6,0c0,0-3.1,23.1-27.3,19.3
					c-16.9-2.7-16.2-26.1-16.2-26.1L418.9,347.1z"/>
			</g>
		</g>
	</g>
	<g id="XMLID_150_">
		<g id="XMLID_160_">
			<g id="XMLID_168_">
				<path id="XMLID_169_" class="st8" d="M480.5,490l-8.9,9.9c-1.3,1.5,1.9,2.7,3.5,3.9l-1.1,5.9l12.5-14.2L480.5,490z"/>
			</g>
			<g id="XMLID_163_">
				<path id="XMLID_166_" d="M477.4,498.9c-3.1-1.2-6.7,0-8.1,3c-0.4,0.9-0.7,1.9-0.6,3c0.3,4.6,30.5,11,30.5,11s1.3-0.3-0.4-1.7
					l-12-9.4c0,0-4.8-5-7.9-5.4C478.4,499.2,477.9,499.1,477.4,498.9z"/>
			</g>
			<g id="XMLID_161_">
				<path id="XMLID_162_" class="st9" d="M520.5,421.1c-10.6-2.4-45.9-11.2-74.9-1.1c-5,1.7-10,1.9-18,1.8c-0.7,11.6,3.7,27,8.2,38
					c13.3,0.7,37.1,0.8,49.9-5.3c0,0-2.4,22.6-5.5,29.1c-1.2,2.7-3,6.6-4.6,10.2c2.9,1.9,5.9,3.2,8.6,5.4
					c9.4-10.4,35.5-39.4,41.7-53.3C533.5,429,528.5,422.9,520.5,421.1z"/>
			</g>
		</g>
		<g id="XMLID_153_">
			<g id="XMLID_158_">
				<path id="XMLID_159_" class="st8" d="M449,501l-11.6,6.5c-1.7,1,0.9,3.2,2,4.8l-3,5.2l16.4-9.4L449,501z"/>
			</g>
			<g id="XMLID_156_">
				<path id="XMLID_157_" d="M443.2,508.5c-2.6-2.1-6.4-2.2-8.7,0.2c-0.7,0.7-1.2,1.6-1.5,2.6c-1.2,4.5,25.3,20.2,25.3,20.2
					s1.3,0.1,0.2-1.7l-8.3-12.8c0,0-2.9-6.2-5.7-7.7C444.1,509.1,443.6,508.8,443.2,508.5z"/>
			</g>
			<g id="XMLID_154_">
				<path id="XMLID_155_" class="st11" d="M509.2,448.8c-9.3-5.7-39.9-25.4-70.5-25.2c-5.3,0-10.1-1.5-17.6-4.1
					c-4.4,10.7-5.2,26.7-4.6,38.6c12.4,4.9,34.8,12.8,49,11.1c0,0-9.6,20.6-14.6,25.8c-2,2.1-5,5.2-7.7,8.2c2.1,2.8,3.9,5.8,5.7,8.8
					c12.2-6.8,47-26.7,57.4-37.8C518.9,460.4,516.2,453,509.2,448.8z"/>
			</g>
		</g>
		<path id="XMLID_152_" class="st11" d="M402.2,419.4c0,0-8.4,32.9,20.5,41c28.9,8.1-1.7-41-1.7-41H402.2z"/>
		<path id="XMLID_151_" class="st12" d="M426.6,461c-15.2-6.7-6-29.9,9.4-23.8c1.8,0.7,3.7,1.7,5.6,3.2
			c18.5,13.7,31.1,8.7,37.2,13.5c6.1,4.9,1.1,15-16.2,15.4C452.6,469.6,437.9,466,426.6,461z"/>
	</g>
	<path id="XMLID_149_" class="st24" d="M456.5,337c12.1,13.4,29.8,37.8,24.3,78.3c0,0-21.8-3.1-47.5,21.2
		C409.3,459.1,399,442,399,442s-8.7-64.4,14.9-102.6c3.9-6.3,11.2-14.8,18.6-14.8h1.7C442.8,324.6,450.8,330.7,456.5,337z"/>
	<ellipse id="XMLID_148_" class="st25" cx="434.4" cy="332.2" rx="13.7" ry="7.8"/>
	<path id="XMLID_145_" class="st15" d="M428.4,336.7c5.4,1.3,11.1,1.9,16.1-2c0.9-0.7,1.1-2,0.7-3.1c-1.3-3.4-1.7-3.3-1.5-5.8
		c0.3-5.1,12.2-6.2,16.5-14.7c4.3-8.5-0.9-38.2-16.3-40.7c-15.4-2.5-27.9,4.5-25,25.9c2.5,18.5,4.7,23.8,4,33.6
		C422.6,332.8,425.6,336,428.4,336.7z"/>
	<circle id="XMLID_139_" class="st15" cx="420.3" cy="298" r="7.6"/>
	<path id="XMLID_136_" class="st16" d="M423,280.4c4.6-3.3,10.8-3.6,15.8-1.1c3,1.5,8.1,3,15.9,1.7c12.2-2,10.9-20.2-2.1-20.6
		c-3.1-0.1-6.1,0.9-8.6,2.7c-1.4,0.9-2.8,2.1-4,3.4c0,0-6.1-8.4-17.7-4.3c-11.6,4.2-9.3,20.2-3.3,22.1
		C419,284.3,420.2,282.3,423,280.4z"/>
	<ellipse id="XMLID_133_" class="st16" cx="440.2" cy="290.8" rx="1.6" ry="2.5"/>
	<ellipse id="XMLID_125_" class="st16" cx="454.5" cy="290.8" rx="1.6" ry="2.5"/>
	<circle id="XMLID_112_" class="st17" cx="437.6" cy="291.6" r="9"/>
	<circle id="XMLID_68_" class="st17" cx="457.7" cy="291.6" r="9"/>
	<polygon id="XMLID_63_" class="st18" points="447.9,284.3 454.5,301.8 446.5,301.8 	"/>
	<line id="XMLID_21_" class="st17" x1="451.9" y1="284.8" x2="443.4" y2="284.8"/>
	<line id="XMLID_20_" class="st17" x1="418.4" y1="289.6" x2="430.1" y2="286.7"/>
	<circle id="XMLID_19_" class="st26" cx="443.6" cy="310.9" r="3.4"/>
	<g id="XMLID_7_">
		<g id="XMLID_11_">
			<path id="XMLID_16_" class="st16" d="M489.4,338.1L489.4,338.1c-0.7-0.5-0.9-1.5-0.5-2.2l14.3-21.9c0.5-0.7,1.5-0.9,2.2-0.5h0
				c0.7,0.5,0.9,1.5,0.5,2.2l-14.3,21.9C491.1,338.3,490.1,338.6,489.4,338.1z"/>
			<g id="XMLID_12_">
				<path id="XMLID_13_" class="st15" d="M487.3,357.6c3.6,0.2,6-1,9.5-0.4c-0.1-2.9-0.1-5,0.6-7c1.3-3.6,7.2-9.8,7.4-10.9
					c0.3-1.1-0.4-1.2-0.7-1.9c-0.2-0.8,0.6-1.4,0.3-2c-0.3-0.6-0.7-0.2-1.4-1c-0.7-0.7,0.3-1.6-0.5-2.4c-0.8-0.8-2.4,0.3-2.6-0.8
					c-0.2-1,2.8-4.8,4.5-6.7c1.7-1.9,1.6-2.8,1.4-2.9c-0.2-0.2-1.1-1.3-3.8,0.2c-2.7,1.5-5.7,7.8-6.8,9.5c-1.1,1.7-5.8,8.7-7.3,6.3
					c-1.5-2.4,2.2-5.9,2.2-5.9c0.9-1,0.8-1.9,0.5-2.2c-0.3-0.3-2-1.3-3.8,1c-1.7,2.2-5.3,5.6-0.7,21.1
					C487.1,353.6,487.2,355.6,487.3,357.6L487.3,357.6z"/>
			</g>
		</g>
		<path id="XMLID_8_" class="st15" d="M418.9,359.4c0,0,1.7,31.9,37.9,36.2c43.3,5.2,40-40.6,40-40.6l-9.6,0.7
			c0,0-1.4,23.3-25.8,21.2c-17-1.5-18-24.9-18-24.9L418.9,359.4z"/>
	</g>
</g>
</svg>
