<?xml version="1.0" encoding="utf-8"?>
<!-- Generator: Adobe Illustrator 21.0.0, SVG Export Plug-In . SVG Version: 6.00 Build 0)  -->
<svg version="1.1" id="Layer_1" xmlns="http://www.w3.org/2000/svg" xmlns:xlink="http://www.w3.org/1999/xlink" x="0px" y="0px"
	 viewBox="0 0 808 800" style="enable-background:new 0 0 808 800;" xml:space="preserve">
<style type="text/css">
	.st0{fill:url(#SVGID_1_);}
	.st1{fill:#F4C74A;}
	.st2{fill:#B2B2B2;}
	.st3{fill:#537273;}
	.st4{fill:#36A9E1;}
	.st5{fill:#DADADA;}
	.st6{fill:#1D1D1B;}
	.st7{fill:#FCB6A8;}
	.st8{fill:#FFFFFF;}
	.st9{fill:#122F44;}
	.st10{fill:#FFB5A9;}
	.st11{fill:#1B364F;}
	.st12{opacity:0.39;fill:#274F6D;}
	.st13{fill:#8839B2;}
	.st14{fill:#7322A8;}
	.st15{fill:#FFCFC5;}
	.st16{fill:#161616;}
	.st17{fill:none;stroke:#1D1D1B;stroke-miterlimit:10;}
	.st18{fill:#FF6252;}
	.st19{opacity:0.4;fill:#4D4D4D;}
	.st20{font-family:'SpicyRice-Regular';}
	.st21{font-size:27.2393px;}
	.st22{fill:#FBB03B;}
	.st23{font-size:78.9061px;}
	.st24{fill:#FF9999;}
	.st25{fill:#FF7676;}
	.st26{fill:#CC534E;}
	.st27{opacity:0.3;}
	.st28{fill:#FFFFFF;stroke:#FFFFFF;stroke-miterlimit:10;}
</style>
<g>
	<linearGradient id="SVGID_1_" gradientUnits="userSpaceOnUse" x1="427.7352" y1="644.2443" x2="426.4164" y2="84.8019">
		<stop  offset="9.732377e-02" style="stop-color:#4A69BD"/>
		<stop  offset="0.3504" style="stop-color:#368BAF"/>
		<stop  offset="0.6011" style="stop-color:#27A6A5"/>
		<stop  offset="0.8239" style="stop-color:#1DB69E"/>
		<stop  offset="0.9959" style="stop-color:#1ABC9C"/>
	</linearGradient>
	<path class="st0" d="M707,446.8C707,564.6,544.1,599,411.9,599c-138.1,0-264.4-10.4-264.4-145.3s90.6-315.7,228.7-315.7
		S707,363.5,707,446.8z"/>
	<path class="st1" d="M147.6,453.7c0-134.3,89.7-313.9,226.6-315.7c-0.6,0-1.1,0-1.7,0c-182.9,0-264.4,186.3-264.4,318.6
		S234.4,599,372.5,599c4.8,0,9.7,0,14.6-0.1C259.1,597.3,147.6,580.5,147.6,453.7z"/>
</g>
<g id="XMLID_722_">
	<path id="XMLID_731_" class="st2" d="M239,401.5h-0.5c-0.9,0-1.7-0.8-1.7-1.7v-12.7c0-0.9,0.8-1.7,1.7-1.7h0.5
		c0.9,0,1.7,0.8,1.7,1.7v12.7C240.6,400.8,239.9,401.5,239,401.5z"/>
	<path id="XMLID_730_" class="st2" d="M346.2,409.6h-0.5c-0.9,0-1.7-0.8-1.7-1.7v-12.7c0-0.9,0.8-1.7,1.7-1.7h0.5
		c0.9,0,1.7,0.8,1.7,1.7v12.7C347.9,408.8,347.2,409.6,346.2,409.6z"/>
	<path id="XMLID_729_" class="st2" d="M239,420.1h-0.5c-0.9,0-1.7-0.8-1.7-1.7v-12.7c0-0.9,0.8-1.7,1.7-1.7h0.5
		c0.9,0,1.7,0.8,1.7,1.7v12.7C240.6,419.3,239.9,420.1,239,420.1z"/>
	<path id="XMLID_727_" class="st3" d="M327.4,558.4h-70.2c-10.3,0-18.6-8.3-18.6-18.6V380.6c0-10.3,8.3-18.6,18.6-18.6h70.2
		c10.3,0,18.6,8.3,18.6,18.6v159.2C346,550.1,337.7,558.4,327.4,558.4z"/>
	<rect id="XMLID_726_" x="242.3" y="387" class="st4" width="100.1" height="139.5"/>
	<path id="XMLID_725_" class="st5" d="M302.9,375.2h-21.1c-0.8,0-1.4-0.6-1.4-1.4l0,0c0-0.8,0.6-1.4,1.4-1.4h21.1
		c0.8,0,1.4,0.6,1.4,1.4l0,0C304.3,374.5,303.7,375.2,302.9,375.2z"/>
	<circle id="XMLID_724_" class="st6" cx="273.3" cy="373.5" r="1.2"/>
	<circle id="XMLID_723_" class="st7" cx="291.4" cy="541.7" r="10.7"/>
</g>
<g id="XMLID_415_">
	<g id="XMLID_717_">
		<g id="XMLID_720_">
			<path id="XMLID_721_" class="st8" d="M398.3,399.6l6.4,6.9c1,1,2-1.2,3-2.2l2.5-0.5l-7.6-8L398.3,399.6z"/>
		</g>
		<g id="XMLID_718_">
			<path id="XMLID_719_" d="M404.2,401.8c-1.5,1.8-1.6,4.5,0.2,6.1c0.5,0.5,1.1,0.9,1.9,1.1c3.2,0.9,14.3-17.9,14.3-17.9
				s0.1-0.9-1.2-0.2l-9,5.9c0,0-4.4,2-5.4,4C404.7,401.2,404.5,401.5,404.2,401.8z"/>
		</g>
	</g>
	<g id="XMLID_416_">
		<path id="XMLID_716_" class="st9" d="M298.4,332.2c0,0,27.8,0.9,53.1,10.4c8.4,3.1,16,8,22.4,14.2l31.7,41.3l-5.4,4.6
			c0,0-8.5-7-17.8-12.2c-13.8-7.7-23.3-13.4-31-23.6l-53.9-14.4l-24.1-6.2l0.8-13.9H298.4z"/>
		<g id="XMLID_704_">
			<g>
				<g id="XMLID_93_">
					<g id="XMLID_94_">
						<g id="XMLID_95_">
							<path class="st10" d="M337,283.8c2.5,0.3,4.3-0.4,6.8,0.2c0.1-2.1,0.2-3.5,0.8-4.9c1.1-2.5,5.6-6.5,5.8-7.3
								c0.2-0.7-0.3-0.8-0.4-1.4c-0.1-0.6,0.5-1,0.3-1.4s-0.5-0.2-0.9-0.8c-0.4-0.6,0.3-1.1-0.2-1.7c-0.5-0.6-1.7,0.1-1.8-0.7
								c-0.1-0.7,2.2-3.2,3.5-4.5c1.3-1.3,1.3-1.9,1.1-2c-0.1-0.1-0.7-0.9-2.7,0c-2,0.9-4.4,5.2-5.2,6.3c-0.9,1.1-4.5,5.8-5.5,4.1
								c-0.9-1.8,1.8-4,1.8-4c0.7-0.6,0.7-1.3,0.5-1.5c-0.2-0.2-1.3-1-2.7,0.5c-1.3,1.4-4,3.7-1.6,14.8
								C337,280.9,337,282.3,337,283.8L337,283.8z"/>
						</g>
					</g>
				</g>
				<g id="XMLID_92_">
					<path class="st10" d="M288.6,281.6c0,0-0.4,22.6,24.9,27.5c30.3,5.8,30.2-26.6,30.2-26.6l-6.8,0c0,0-2.2,16.4-19.3,13.6
						c-11.9-1.9-11.5-18.4-11.5-18.4L288.6,281.6z"/>
				</g>
			</g>
		</g>
		<g id="XMLID_697_">
			<g id="XMLID_702_">
				<path id="XMLID_703_" class="st8" d="M307.2,390.4L299,395c-1.2,0.7,0.7,2.2,1.4,3.4l-2.1,3.7l11.6-6.6L307.2,390.4z"/>
			</g>
			<g id="XMLID_700_">
				<path id="XMLID_701_" d="M303.1,395.7c-1.8-1.5-4.5-1.6-6.1,0.2c-0.5,0.5-0.9,1.1-1.1,1.9c-0.9,3.2,17.9,14.3,17.9,14.3
					s0.9,0.1,0.2-1.2l-5.9-9c0,0-2.1-4.4-4-5.4C303.7,396.1,303.4,395.9,303.1,395.7z"/>
			</g>
			<g id="XMLID_698_">
				<path id="XMLID_699_" class="st11" d="M349.8,353.5c-6.6-4-28.2-18-49.9-17.8c-3.7,0-7.1-1-12.4-2.9c-3.1,7.6-3.7,18.9-3.2,27.3
					c8.8,3.5,24.6,9,34.6,7.8c0,0-6.8,14.5-10.3,18.2c-1.4,1.5-3.5,3.7-5.4,5.8c1.5,2,2.7,4.1,4,6.2c8.6-4.8,33.2-18.9,40.6-26.8
					C356.6,361.7,354.7,356.5,349.8,353.5z"/>
			</g>
		</g>
		<path id="XMLID_696_" class="st11" d="M274.1,332.7c0,0-5.9,23.3,14.5,29c20.4,5.7-1.2-29-1.2-29H274.1z"/>
		<path id="XMLID_695_" class="st12" d="M291.4,362.1c-10.7-4.7-4.2-21.1,6.7-16.8c1.3,0.5,2.6,1.2,3.9,2.2
			c13.1,9.7,22,6.1,26.3,9.6c4.3,3.4,0.7,10.6-11.5,10.9C309.7,368.2,299.4,365.6,291.4,362.1z"/>
		<path id="XMLID_694_" class="st13" d="M312.2,274.4c8.6,9.5,18.2,32.7,14.3,61.4c0,0-15.1-4.8-30.7,9
			c-17.5,15.4-24.2,3.9-24.2,3.9s-6.2-45.5,10.6-72.6c2.7-4.4,7.9-10.5,13.1-10.5h1.2C302.4,265.6,308.1,270,312.2,274.4z"/>
		<ellipse id="XMLID_693_" class="st14" cx="297.2" cy="272.8" rx="11" ry="6.2"/>
		<path id="XMLID_691_" class="st15" d="M292.4,276.3c4.3,1,9,1.5,12.9-1.6c0.7-0.6,0.9-1.6,0.6-2.5c-1.1-2.7-1.3-2.7-1.2-4.7
			c0.3-4.1,9.8-4.9,13.2-11.8c3.5-6.9-0.7-30.7-13.1-32.8c-12.4-2-22.4,3.6-20.1,20.9c2,14.9,3.8,19.1,3.2,27
			C287.7,273.2,290.1,275.8,292.4,276.3z"/>
		<circle id="XMLID_689_" class="st15" cx="285.8" cy="245.2" r="6.1"/>
		<ellipse id="XMLID_687_" class="st16" cx="301.8" cy="239.5" rx="1.3" ry="2"/>
		<ellipse id="XMLID_685_" class="st16" cx="313.4" cy="239.5" rx="1.3" ry="2"/>
		<circle id="XMLID_684_" class="st17" cx="299.7" cy="240.1" r="7.2"/>
		<circle id="XMLID_683_" class="st17" cx="315.9" cy="240.1" r="7.2"/>
		<polygon id="XMLID_682_" class="st18" points="308,234.2 313.4,248.3 307,248.3 		"/>
		<line id="XMLID_681_" class="st17" x1="311.2" y1="234.6" x2="304.4" y2="234.6"/>
		<line id="XMLID_680_" class="st17" x1="284.3" y1="238.5" x2="293.7" y2="236.2"/>
		<g id="XMLID_671_">
			<g id="XMLID_674_">
				<path id="XMLID_678_" class="st16" d="M337.8,275.2L337.8,275.2c-0.5-0.3-0.7-1-0.3-1.6l10.1-15.5c0.3-0.5,1-0.7,1.6-0.3h0
					c0.5,0.3,0.7,1,0.3,1.6l-10.1,15.5C339,275.4,338.3,275.5,337.8,275.2z"/>
				<g id="XMLID_675_">
					<path id="XMLID_676_" class="st15" d="M336.3,289c2.5,0.2,4.2-0.7,6.7-0.3c-0.1-2.1-0.1-3.5,0.4-4.9c0.9-2.6,5.1-6.9,5.3-7.7
						c0.2-0.8-0.3-0.8-0.5-1.4s0.4-1,0.2-1.4c-0.2-0.5-0.5-0.2-1-0.7c-0.5-0.5,0.2-1.1-0.3-1.7c-0.6-0.6-1.7,0.2-1.8-0.5
						c-0.1-0.7,2-3.4,3.2-4.7c1.2-1.3,1.1-2,1-2.1c-0.1-0.1-0.7-0.9-2.7,0.1c-1.9,1-4,5.5-4.8,6.7c-0.8,1.2-4.1,6.1-5.2,4.4
						c-1-1.7,1.6-4.1,1.6-4.1c0.6-0.7,0.6-1.3,0.4-1.5c-0.2-0.2-1.4-0.9-2.7,0.7c-1.2,1.5-3.7,4-0.5,14.9
						C336.1,286.2,336.2,287.6,336.3,289L336.3,289z"/>
				</g>
			</g>
			<path id="XMLID_672_" class="st15" d="M287.9,290.3c0,0,1.2,22.5,26.8,25.6c30.6,3.7,28.3-28.7,28.3-28.7l-6.8,0.5
				c0,0-1,16.5-18.3,15c-12-1-12.2-13.6-12.2-13.6L287.9,290.3z"/>
		</g>
		<circle id="XMLID_669_" class="st16" cx="317.5" cy="252.4" r="4.5"/>
		<circle id="XMLID_667_" class="st16" cx="313.5" cy="257.7" r="4.5"/>
		<circle id="XMLID_665_" class="st16" cx="307.6" cy="261.3" r="4.5"/>
		<circle id="XMLID_663_" class="st16" cx="300.6" cy="263.4" r="4.5"/>
		<circle id="XMLID_661_" class="st16" cx="292.5" cy="261.3" r="4.5"/>
		<circle id="XMLID_659_" class="st16" cx="288.1" cy="255.2" r="4.5"/>
		<circle id="XMLID_657_" class="st16" cx="289" cy="247.9" r="4.5"/>
		<circle id="XMLID_655_" class="st16" cx="294.4" cy="253.2" r="4.5"/>
		<circle id="XMLID_653_" class="st16" cx="300.1" cy="255.6" r="4.5"/>
		<circle id="XMLID_651_" class="st16" cx="304.3" cy="257.7" r="4.5"/>
		<circle id="XMLID_649_" class="st16" cx="310.6" cy="253.5" r="4.5"/>
		<circle id="XMLID_647_" class="st16" cx="305" cy="253.2" r="4.5"/>
		<circle id="XMLID_645_" class="st16" cx="299.2" cy="252.4" r="4.5"/>
		<circle id="XMLID_643_" class="st16" cx="294.1" cy="251.1" r="4.5"/>
		<circle id="XMLID_641_" class="st16" cx="297.4" cy="259" r="4.5"/>
		<circle id="XMLID_639_" class="st16" cx="289" cy="260" r="4.5"/>
		<circle id="XMLID_637_" class="st16" cx="291.6" cy="265.6" r="4.5"/>
		<circle id="XMLID_635_" class="st16" cx="297.2" cy="268.3" r="4.5"/>
		<circle id="XMLID_448_" class="st16" cx="303.7" cy="268.3" r="4.5"/>
		<circle id="XMLID_434_" class="st16" cx="311.5" cy="266.5" r="4.5"/>
		<circle id="XMLID_432_" class="st16" cx="315.9" cy="261.2" r="4.5"/>
		<circle id="XMLID_430_" class="st16" cx="318.4" cy="256.4" r="4.5"/>
		<g id="XMLID_418_">
			<g id="XMLID_428_">
				<path id="XMLID_429_" class="st8" d="M304.4,255.1c0,0-1.2-1.5-2.6-2.1c-1.3-0.5-2.9-0.5-3.8,1.1c-0.9,1.6,0.3,3.5,1.9,5.3
					c1,1.1,4.8,3.3,7.4,3.1c2.6-0.2,4.1-0.6,5.1-1.9c1.1-1.3,0.4-3.3-0.6-4.1c-1-0.9-2.4-0.8-3.2-0.5
					C308,256.2,306.2,256.8,304.4,255.1z"/>
			</g>
		</g>
	</g>
</g>
<text transform="matrix(3.0293 0 0 -1 177.9717 560.8242)" class="st19 st20 st21">CONTACT US</text>
<text transform="matrix(1 0 0 1 193.3145 564.9238)" class="st22 st20 st23">CONTACT US</text>
<g id="XMLID_6_">
	<g id="XMLID_170_">
		<g>
			<g id="XMLID_60_">
				<g id="XMLID_61_">
					<g id="XMLID_62_">
						<path class="st10" d="M527.4,412.3c3.1,0.4,5.3-0.5,8.3,0.2c0.1-2.6,0.2-4.3,1-6.1c1.4-3.1,6.9-8.1,7.2-9
							c0.3-0.9-0.3-1-0.4-1.7c-0.1-0.7,0.6-1.2,0.4-1.8c-0.2-0.6-0.6-0.3-1.1-1c-0.5-0.7,0.4-1.4-0.3-2.1c-0.6-0.8-2.1,0.1-2.2-0.8
							c-0.1-0.9,2.7-4,4.4-5.6c1.6-1.6,1.5-2.3,1.4-2.5c-0.2-0.2-0.8-1.2-3.3-0.1c-2.5,1.1-5.4,6.4-6.5,7.8c-1.1,1.4-5.6,7.2-6.7,5
							c-1.1-2.2,2.3-5,2.3-5c0.8-0.8,0.8-1.6,0.6-1.9c-0.2-0.3-1.6-1.2-3.4,0.7c-1.6,1.8-5,4.6-1.9,18.3
							C527.5,408.7,527.5,410.5,527.4,412.3L527.4,412.3z"/>
					</g>
				</g>
			</g>
			<g id="XMLID_59_">
				<path class="st10" d="M467.7,409.6c0,0-0.5,27.9,30.8,33.9c37.4,7.2,37.3-32.9,37.3-32.9l-8.4,0c0,0-2.7,20.2-23.8,16.8
					c-14.7-2.3-14.2-22.8-14.2-22.8L467.7,409.6z"/>
			</g>
		</g>
	</g>
	<g id="XMLID_150_">
		<g id="XMLID_160_">
			<g id="XMLID_168_">
				<path id="XMLID_169_" class="st8" d="M521.5,534.3l-7.7,8.6c-1.1,1.3,1.7,2.4,3,3.4l-1,5.1l10.9-12.4L521.5,534.3z"/>
			</g>
			<g id="XMLID_163_">
				<path id="XMLID_166_" d="M518.8,542.1c-2.7-1-5.9,0-7.1,2.6c-0.4,0.8-0.6,1.7-0.5,2.6c0.2,4.1,26.6,9.6,26.6,9.6
					s1.1-0.3-0.3-1.5l-10.5-8.2c0,0-4.2-4.3-6.9-4.7C519.6,542.4,519.2,542.3,518.8,542.1z"/>
			</g>
			<g id="XMLID_161_">
				<path id="XMLID_162_" class="st9" d="M556.4,474.2c-9.3-2.1-40.1-9.7-65.4-0.9c-4.4,1.5-8.8,1.6-15.7,1.6
					c-0.6,10.1,3.2,23.6,7.1,33.2c11.6,0.6,32.4,0.7,43.6-4.7c0,0-2.1,19.7-4.8,25.4c-1.1,2.4-2.6,5.7-4.1,8.9
					c2.5,1.7,5.2,2.8,7.5,4.7c8.2-9.1,31-34.4,36.4-46.5C567.7,481,563.4,475.8,556.4,474.2z"/>
			</g>
		</g>
		<g id="XMLID_153_">
			<g id="XMLID_158_">
				<path id="XMLID_159_" class="st8" d="M494,543.9l-10.1,5.7c-1.5,0.9,0.8,2.8,1.8,4.2l-2.6,4.6l14.3-8.2L494,543.9z"/>
			</g>
			<g id="XMLID_156_">
				<path id="XMLID_157_" d="M489,550.5c-2.2-1.9-5.6-1.9-7.6,0.2c-0.6,0.6-1.1,1.4-1.3,2.3c-1.1,3.9,22.1,17.7,22.1,17.7
					s1.1,0.1,0.2-1.5l-7.3-11.2c0,0-2.5-5.4-5-6.7C489.7,551,489.3,550.8,489,550.5z"/>
			</g>
			<g id="XMLID_154_">
				<path id="XMLID_155_" class="st11" d="M546.5,498.3c-8.1-5-34.8-22.2-61.6-22c-4.6,0-8.8-1.3-15.3-3.6c-3.9,9.3-4.6,23.4-4,33.7
					c10.8,4.3,30.4,11.1,42.7,9.7c0,0-8.4,18-12.7,22.5c-1.8,1.9-4.3,4.6-6.7,7.1c1.8,2.4,3.4,5.1,5,7.7c10.7-5.9,41-23.3,50.1-33
					C555,508.5,552.6,502.1,546.5,498.3z"/>
			</g>
		</g>
		<path id="XMLID_152_" class="st11" d="M453.2,472.7c0,0-7.3,28.7,17.9,35.8c25.2,7-1.5-35.8-1.5-35.8H453.2z"/>
		<path id="XMLID_151_" class="st12" d="M474.5,509c-13.2-5.8-5.2-26.1,8.2-20.8c1.6,0.6,3.2,1.5,4.9,2.8
			c16.2,11.9,27.2,7.6,32.5,11.8c5.3,4.3,0.9,13.1-14.1,13.5C497.1,516.5,484.3,513.4,474.5,509z"/>
	</g>
	<path id="XMLID_149_" class="st24" d="M500.5,400.8c10.6,11.7,26.1,33,21.2,68.4c0,0-19-2.7-41.5,18.5
		c-20.9,19.7-29.9,4.8-29.9,4.8s-7.6-56.2,13-89.6c3.4-5.5,9.8-12.9,16.2-12.9h1.5C488.5,389.9,495.5,395.2,500.5,400.8z"/>
	<ellipse id="XMLID_148_" class="st25" cx="481.2" cy="396.6" rx="11.9" ry="6.8"/>
	<path id="XMLID_145_" class="st15" d="M476,400.5c4.7,1.1,9.7,1.7,14.1-1.8c0.8-0.6,1-1.7,0.6-2.7c-1.1-3-1.5-2.9-1.3-5.1
		c0.3-4.4,10.6-5.4,14.4-12.8c3.7-7.5-0.8-33.3-14.2-35.6c-13.4-2.2-24.4,3.9-21.9,22.7c2.2,16.2,4.1,20.8,3.5,29.3
		C471,397.1,473.6,399.9,476,400.5z"/>
	<circle id="XMLID_139_" class="st15" cx="468.9" cy="366.7" r="6.7"/>
	<path id="XMLID_136_" class="st16" d="M471.3,351.3c4.1-2.8,9.4-3.2,13.8-0.9c2.6,1.3,7.1,2.6,13.8,1.5c10.7-1.7,9.6-17.6-1.8-18
		c-2.7-0.1-5.3,0.8-7.5,2.3c-1.2,0.8-2.5,1.8-3.5,3c0,0-5.3-7.4-15.4-3.7c-10.2,3.6-8.1,17.7-2.9,19.3
		C467.8,354.8,468.9,353,471.3,351.3z"/>
	<ellipse id="XMLID_133_" class="st16" cx="486.3" cy="360.4" rx="1.4" ry="2.2"/>
	<ellipse id="XMLID_125_" class="st16" cx="498.8" cy="360.4" rx="1.4" ry="2.2"/>
	<circle id="XMLID_112_" class="st17" cx="484" cy="361.2" r="7.8"/>
	<circle id="XMLID_68_" class="st17" cx="501.6" cy="361.2" r="7.8"/>
	<polygon id="XMLID_63_" class="st18" points="493,354.8 498.8,370.1 491.8,370.1 	"/>
	<line id="XMLID_21_" class="st17" x1="496.5" y1="355.2" x2="489.1" y2="355.2"/>
	<line id="XMLID_20_" class="st17" x1="467.3" y1="359.4" x2="477.5" y2="356.9"/>
	<circle id="XMLID_19_" class="st26" cx="489.3" cy="378" r="3"/>
	<g id="XMLID_7_">
		<g id="XMLID_11_">
			<path id="XMLID_16_" class="st16" d="M529.3,401.7L529.3,401.7c-0.6-0.4-0.8-1.3-0.4-1.9l12.5-19.1c0.4-0.6,1.3-0.8,1.9-0.4h0
				c0.6,0.4,0.8,1.3,0.4,1.9l-12.5,19.1C530.8,401.9,529.9,402.1,529.3,401.7z"/>
			<g id="XMLID_12_">
				<path id="XMLID_13_" class="st15" d="M527.4,418.8c3.1,0.2,5.2-0.9,8.3-0.4c-0.1-2.6-0.1-4.3,0.5-6.1c1.1-3.2,6.3-8.5,6.5-9.5
					c0.2-0.9-0.4-1-0.6-1.7c-0.2-0.7,0.5-1.2,0.3-1.8c-0.2-0.6-0.6-0.2-1.2-0.9c-0.6-0.7,0.3-1.4-0.4-2.1c-0.7-0.7-2.1,0.2-2.2-0.7
					c-0.1-0.9,2.5-4.2,4-5.8c1.5-1.7,1.4-2.4,1.2-2.6c-0.2-0.1-0.9-1.1-3.3,0.2c-2.4,1.3-5,6.8-5.9,8.3c-1,1.5-5.1,7.6-6.4,5.5
					c-1.3-2.1,1.9-5.1,1.9-5.1c0.8-0.8,0.7-1.6,0.5-1.9c-0.2-0.3-1.7-1.1-3.3,0.9c-1.5,1.9-4.6,4.9-0.6,18.4
					C527.2,415.2,527.4,417,527.4,418.8L527.4,418.8z"/>
			</g>
		</g>
		<path id="XMLID_8_" class="st15" d="M467.7,420.3c0,0,1.5,27.8,33.1,31.6c37.8,4.5,34.9-35.5,34.9-35.5l-8.4,0.6
			c0,0-1.2,20.3-22.6,18.5c-14.9-1.3-15.7-21.7-15.7-21.7L467.7,420.3z"/>
	</g>
</g>
<g id="XMLID_1_" class="st27">
	<path id="XMLID_5_" class="st8" d="M392.5,193.3h58.6c0,0-2.9-7.1-6.6-7.4c-3.7-0.3-4.7,1.9-5.9,1.7c-1.2-0.2-3.1-6.1-7.8-6.4
		c-4.7-0.3-6.5,4.1-9.1,4.9c-2.6,0.8-7.6,0.4-11.6-6c-4-6.4-11.5,0.5-11.7,5.4c-0.3,7.6-11.8,3.4-11.8,7.8H392.5z"/>
	<path id="XMLID_4_" class="st28" d="M527,294.9h-58.6c0,0,2.9-7.3,6.6-7.6c3.7-0.3,4.7,1.8,5.9,1.6c1.2-0.2,3.1-6.1,7.8-6.4
		c4.7-0.3,6.5,4.1,9.1,4.9c2.6,0.8,7.6,0.3,11.6-6c4-6.4,11.5,0.7,11.7,5.6c0.3,7.6,11.8,3.6,11.8,8H527z"/>
	<path id="XMLID_3_" class="st8" d="M264.8,274.1h-58.6c0,0,2.9-7.1,6.6-7.4c3.7-0.3,4.7,1.9,5.9,1.7c1.2-0.2,3.1-6.1,7.8-6.4
		c4.7-0.3,6.5,4.1,9.1,4.9c2.6,0.8,7.6,0.4,11.6-6c4-6.4,11.5,0.5,11.7,5.4c0.3,7.6,11.8,3.4,11.8,7.8H264.8z"/>
</g>
</svg>
