<?xml version="1.0" encoding="utf-8"?>
<!-- Generator: Adobe Illustrator 21.0.0, SVG Export Plug-In . SVG Version: 6.00 Build 0)  -->
<svg version="1.1" id="Layer_1" xmlns="http://www.w3.org/2000/svg" xmlns:xlink="http://www.w3.org/1999/xlink" x="0px" y="0px"
	 viewBox="0 0 1000 1000" style="enable-background:new 0 0 1000 1000;" xml:space="preserve">
<style type="text/css">
	.st0{fill:url(#SVGID_1_);}
	.st1{fill:#F4C74A;}
	.st2{fill:#743B9B;}
	.st3{fill:#353535;}
	.st4{fill:#48B6F0;}
	.st5{fill:#409CC9;}
	.st6{fill:#9149BF;}
	.st7{fill:#FFBB9F;}
	.st8{fill:#FE927A;}
	.st9{fill:none;}
	.st10{fill:#FF7D7D;}
	.st11{fill:#1B364F;}
	.st12{fill:#162D3F;}
	.st13{opacity:0.68;fill:#7FEFBA;}
	.st14{fill:#FFFFFF;}
	.st15{fill:#36A9E1;}
	.st16{fill:#DADADA;}
	.st17{opacity:0.22;fill:#EDEDED;}
	.st18{fill:#E2A65D;}
	.st19{fill:#EAB46C;}
	.st20{fill:#FFEA94;}
	.st21{fill:#F9C485;}
	.st22{fill:#B2B2B2;}
	.st23{fill:#FF9999;}
	.st24{fill:#EDEDED;}
	.st25{fill:#FFCFC5;}
	.st26{fill:#FFA399;}
	.st27{fill:#FF6252;}
	.st28{fill:#1D1D1B;}
	.st29{fill:#CE3E3E;}
	.st30{opacity:0.31;fill:url(#XMLID_6_);}
	.st31{opacity:0.3;}
	.st32{fill:#FFFFFF;stroke:#FFFFFF;stroke-miterlimit:10;}
</style>
<linearGradient id="SVGID_1_" gradientUnits="userSpaceOnUse" x1="544.4703" y1="835.4507" x2="542.7943" y2="124.4894">
	<stop  offset="9.732377e-02" style="stop-color:#4A69BD"/>
	<stop  offset="0.3504" style="stop-color:#368BAF"/>
	<stop  offset="0.6011" style="stop-color:#27A6A5"/>
	<stop  offset="0.8239" style="stop-color:#1DB69E"/>
	<stop  offset="0.9959" style="stop-color:#1ABC9C"/>
</linearGradient>
<path class="st0" d="M899.4,584.5c0,149.7-207,193.5-375,193.5c-175.4,0-336-13.2-336-184.7S303.6,192,479,192
	S899.4,478.6,899.4,584.5z"/>
<path class="st1" d="M188.4,593.3c0-170.6,114-398.9,287.9-401.2c-0.7,0-1.4,0-2.1,0c-232.5,0-336,236.8-336,404.9
	S298.8,778,474.2,778c6.1,0,12.3-0.1,18.6-0.2C330.2,775.8,188.4,754.4,188.4,593.3z"/>
<g>
	<g>
		<g>
			<path class="st1" d="M753.9,631c21.1-1.8,41.2-9.4,62-13.5c20.8-4,43.9-4,61.2,8.2c13.1,9.2,21.2,24.3,24.6,40
				c6.9,31.5-4.2,65.7-26,89.5c-21.9,23.7-53.6,37.4-85.7,40.2c-32.2,2.8-64.7-4.5-94.1-17.9c-48.6-22.1-89.4-61-113.8-108.5
				c-9.7-18.8-16.9-39.5-16-60.6c0.9-20.7,12.1-44.3,31.9-53.6c28.3-13.2,48.3,15.9,64.2,34.8c12.5,14.8,26.4,27.9,44.9,34.7
				C721.9,629.9,738,632.4,753.9,631z"/>
		</g>
		<g>
			<path class="st1" d="M824.2,590.6c6.6,5.7,17,8.5,24.2,3.4c7.2-5.1,8-15.5,6-24c-5.3-22.3-27.2-39.5-50.2-39.3
				c-16.4,0.1-27.2,13.9-12.3,24.4C806.1,565.1,811.5,579.6,824.2,590.6z"/>
		</g>
	</g>
	<g>
		<g>
			<path class="st2" d="M799.5,754.1c-1.5-2.1-3.7-3.8-6.3-4.1c-1.8-0.2-3.7,0.2-5.3,1.1c-1.6,0.9-3.3,2-4.3,3.6
				c-1.1,1.8-1.2,4-0.7,6c0.8,3,2.5,5.7,4.7,7.8c2,1.9,4.9,2.1,7.5,1.2c1.2-0.4,2.4-1.1,3.5-1.9c1.3-1,2.6-2.4,3.1-4
				c0-0.2,0.1-0.3,0.1-0.5C802.5,760,801.4,756.7,799.5,754.1z"/>
		</g>
		<g>
			<g>
				<path class="st3" d="M766.1,766.5c1.1,2.4,1,5.4-0.3,7.8c-0.3,0.6-0.8,1.2-1.1,1.9c-0.3,0.7-0.4,1.4-0.1,2.1
					c0.4,1,1.6,1.4,2.6,1.3c1-0.1,2-0.6,2.9-1.2c6.9-4.1,13.4-8.6,19.7-13.5c0.6-0.4,1.1-0.9,1.3-1.6c0.2-0.7-0.1-1.4-0.5-1.9
					c-0.4-0.5-1-0.9-1.7-1.1c-2.1-0.9-4.5-0.8-6.8-0.7c-7.8,0.3-15.6,0.6-23.4,0.9c0,0.2,0,0.3,0,0.5c0,0.5,3.6,1.7,4.1,2
					C764.3,763.8,765.4,765,766.1,766.5z"/>
			</g>
			<g>
				<path class="st3" d="M703,742.5c1.2,2.6,1.1,5.7-0.3,8.1c-0.4,0.7-0.8,1.3-1.1,1.9c-0.3,0.7-0.4,1.5-0.1,2.2
					c0.4,1,1.6,1.5,2.7,1.4c1.1-0.1,2.1-0.7,3-1.2c7.2-4.2,14.1-9,20.6-14.1c0.6-0.5,1.2-1,1.4-1.7c0.2-0.7-0.1-1.4-0.5-2
					c-0.5-0.5-1.1-0.9-1.7-1.2c-2.2-0.9-4.7-0.8-7.1-0.7c-8.2,0.3-16.3,0.6-24.5,0.9c0,0.2,0,0.3,0,0.5c0,0.5,3.8,1.8,4.3,2.1
					C701.1,739.6,702.2,740.9,703,742.5z"/>
			</g>
		</g>
		<g>
			<path class="st2" d="M756.7,770.5c1.8-0.9,3.8-1.5,5.8-1.2c2.8,0.4,5.2,2.3,6.9,4.5c2.1,2.8,3.3,6.5,2.7,10c-0.7,3.5-5.5,7-9,7.4
				c-1.6,0.2-2.4,0.2-3.6-1.4c-1.3-1.8-2.3-3.1-3.4-5c-1.1-1.9-2.1-3.9-3.1-5.8c-0.7-1.4-1.5-3.5-0.7-5
				C753.1,772.6,755.3,771.3,756.7,770.5z"/>
		</g>
		<g>
			<path class="st3" d="M809.7,751.1c-2.7,2.1-5.6,4-8.7,5.6c-3.3,1.8-6.9,3.3-10.5,4.5c-2.2,0.7-4.4,1.3-6.7,1.8
				c-6.4,1.3-13,1.7-19.6,1c0,0-0.1,0-0.1,0c-7.7-0.9-15.2-3.1-22.6-5.4c-9-2.8-18.1-5.5-27.1-8.3c-3.6-1.1-7.2-2.2-10.7-3.3
				c-4.1-1.3-8.2-2.5-12.4-3.8c-3.4-1-6.8-2.1-9.8-4c-3-1.9-5.4-4.9-5.9-8.4c-0.6-4,1.6-7.9,4.7-10.6c0.7-0.6,1.6-1.2,2.4-1.7
				c6.3-3.6,12.5-4.2,18.7-3.5c3.6,0.4,7.3,1.2,11.1,2.1c12.2,2.9,24.4,5.8,36.6,8.8c17.5,4.2,34.9,8.3,52.4,12.5
				c1.7,0.4,3.5,0.8,5.2,1.2c1.9,0.4,4,1.1,5.4,2.4c0.7,0.6,1.1,1.3,1.3,2.2C814.2,747,811.9,749.4,809.7,751.1z"/>
		</g>
		<g>
			<path class="st4" d="M808.4,748.7c-2.7,2.1-5.7,4-8.8,5.7c-4.2,2.2-8.7,4-13.3,5.2c-1.1,0.3-2.3,0.6-3.4,0.8
				c-6.2,1.3-12.7,1.6-19,0.9c-1.7-0.2-3.4-0.5-5.1-0.8c-5.7-1.1-11.4-2.8-17-4.5c-8.2-2.5-16.4-5-24.7-7.5
				c-4.5-1.4-9.1-2.8-13.6-4.2c-3.6-1.1-7.2-2.2-10.7-3.3c-3.3-1-6.7-2-9.6-3.9c-2.9-1.9-5.3-4.8-5.8-8.2c-0.4-3.1,0.8-6.2,2.9-8.6
				c0.7-0.6,1.6-1.2,2.4-1.7c6.3-3.6,12.5-4.2,18.7-3.5c3.6,0.4,7.3,1.2,11.1,2.1c12.2,2.9,24.4,5.8,36.6,8.8
				c17.5,4.2,34.9,8.3,52.4,12.5c1.7,0.4,3.5,0.8,5.2,1.2c1.9,0.4,4,1.1,5.4,2.4C812.8,744.7,810.6,747.1,808.4,748.7z"/>
		</g>
		<g>
			<path class="st2" d="M692.5,749.3c1.5-0.8,3.2-1.2,4.9-1c2.4,0.3,4.4,1.9,5.8,3.9c1.8,2.4,2.8,5.5,2.3,8.5
				c-0.6,3-4.7,5.9-7.7,6.3c-1.4,0.2-2,0.2-3-1.2c-1.1-1.5-1.9-2.6-2.9-4.3c-0.9-1.6-1.8-3.3-2.6-5c-0.6-1.2-1.3-3-0.6-4.2
				C689.4,751,691.3,749.9,692.5,749.3z"/>
		</g>
		<g>
			<path class="st5" d="M801.6,738.4c-13.2,9.4-30.9,12.6-46.4,7.8c-8.9-2.7-17.4-7.8-26.4-9c-1.9-0.3-3.8-0.3-5.7-0.2
				c-4.6,0.3-9.1,1.9-13.6,2.6c-3.2,0.5-6.6,0.4-9.6-0.8c-0.5-0.2-1-0.4-1.5-0.7c-0.7-0.4-1.4-0.9-2.1-1.5c-0.2-0.2-0.4-0.4-0.6-0.6
				c-3.3-3.8-3.5-9.8-1-14.3c1.7-3.1,4-5.3,6.7-6.7c3.6,0.4,7.3,1.2,11.1,2.1c12.2,2.9,24.4,5.8,36.6,8.8
				C766.7,730.1,784.2,734.3,801.6,738.4z"/>
		</g>
		<g>
			<path class="st6" d="M751.3,781c0.9,3.2,2.7,6.2,5.2,8.6c1.3,1.2,2.8,2.3,4.6,2.2c1.6-0.1,3.1-1.1,3.8-2.5
				c0.7-1.4,0.8-3.1,0.5-4.6c-0.3-1.6-1-3-1.7-4.4c-1-2-2.2-3.9-4-5.4c-1.6-1.3-4.7-2.8-6.6-1.4C750.7,775.2,750.6,778.4,751.3,781z
				"/>
		</g>
		<g>
			<path class="st6" d="M687.9,758.2c0.8,2.8,2.3,5.3,4.4,7.3c1.1,1,2.4,1.9,3.9,1.9c1.4,0,2.6-1,3.3-2.2c0.6-1.2,0.7-2.6,0.5-3.9
				c-0.3-1.3-0.8-2.6-1.5-3.8c-0.9-1.7-1.9-3.4-3.4-4.6c-1.3-1.1-4-2.4-5.6-1.2C687.4,753.3,687.3,755.9,687.9,758.2z"/>
		</g>
		<g>
			<g>
				<path class="st2" d="M757.7,786.7c0.8,0.5,1.9,0.9,2.6,0.4c0.7-0.5,0.7-1.5,0.7-2.3c-0.1-1.3-0.3-2.5-0.8-3.7
					c-0.5-1.2-1.4-2.2-2.6-2.6c-0.9-0.4-2.3-0.4-3.1,0.3c-0.7,0.6-0.4,1.8-0.3,2.7C754.7,783.4,755.9,785.4,757.7,786.7z"/>
			</g>
			<g>
				<path class="st2" d="M693.4,763c0.7,0.5,1.6,0.8,2.3,0.3c0.6-0.4,0.6-1.3,0.6-2c-0.1-1.1-0.2-2.2-0.7-3.1
					c-0.4-1-1.2-1.9-2.2-2.2c-0.8-0.3-2-0.3-2.6,0.2c-0.6,0.5-0.4,1.6-0.2,2.3C690.8,760.3,691.8,762,693.4,763z"/>
			</g>
		</g>
	</g>
	<g>
		<g>
			<g>
				<path class="st4" d="M746,513.1c-0.6,3.4-2.9,6.2-5.1,8.9c-3.9,4.8-7.9,9.6-11.8,14.4c-0.3,0.4-0.6,0.7-0.9,1
					c-4.9,5.4-10.5,6.5-17.1,2c-3.2-2.2-6.8-3.9-9.8-6.5c-2.2-1.9-5.6-6.1-5.6-9.2c0-1.5,0.7-3,1.4-4.4c3.4-6.8,9.1-12.4,15.8-16
					c6.5-3.5,15.8-5.9,23.1-3.9c4.8,1.3,9,5.4,9.9,10.1C746.2,510.8,746.2,512,746,513.1z"/>
			</g>
			<g>
				<path class="st5" d="M733,509.9c-1.1-3-4.9-3.8-8.1-3.8c-0.2,0-0.4,0-0.6,0.1l0.1-0.1c0,0,0,0-0.1,0c0,0,0,0,0,0.1
					c-1.9,0.3-3.9,1.9-5.5,2.8c-2.1,1.2-4,2.6-5.9,4c-3.8,3-7.3,6.4-10.2,10.3c-0.4,0.5-0.7,0.5-0.8,1.2c-0.1,0.7-0.2,1.7,0.4,2.4
					c1.2,1.1,2.8,1.8,4.4,2.3c1.2,0.4,2.5,0.7,3.8,1c1.2,0.3,2.4,0.7,3.5,1.3c2.2,1.1,3.3,3.4,5.4,1.1c1.5-1.7,2.1-4.5,3.3-6.4
					c0,0,0-0.1,0.1-0.1c1.4-2.2,3.1-4.3,5-6.1c1.5-1.4,3.1-2.7,4.2-4.3C733.1,513.9,733.7,511.7,733,509.9z"/>
			</g>
			<g>
				<path class="st5" d="M746,513.1c-0.6,3.4-2.9,6.2-5.1,8.9c-3.9,4.8-7.9,9.6-11.8,14.4c-0.3,0.4-0.6,0.7-0.9,1
					c-0.6-0.2-1.2-0.5-1.7-0.9c-1.9-1.5-2.3-4.2-1.9-6.6c0.8-4.5,4-8.2,7.6-10.9c3.6-2.8,7.7-4.8,11.4-7.5c0.9-0.6,1.7-1.3,2.4-2
					C746.2,510.8,746.2,512,746,513.1z"/>
			</g>
		</g>
		<g>
			<g>
				<path class="st7" d="M722.6,526c-0.4,0.7-0.7,1.4-1.1,2.2c-0.3,0.8-0.7,1.6-1,2.3c-0.4,0.7-0.7,1.4-1.2,1.9
					c-1.7,1.9-2.7,0.8-4.2-0.3c-0.4-0.3-0.8-0.5-1.2-0.8c-1.1-0.6-2.3-0.9-3.5-1.3c-0.8-1.4-1.6-3.1-2.5-4.8
					c-1.6-3.1-3.3-6.3-4.3-8.2c2.7-0.6,11.4-3.2,13.7-1.3c0.1,0.1,0.3,0.4,0.6,0.8c0,0,0,0.1,0.1,0.1c0.1,0.2,0.3,0.5,0.4,0.8
					c0.1,0.1,0.1,0.2,0.2,0.3c0.2,0.4,0.5,0.9,0.7,1.4c0,0,0,0,0,0c0.1,0.1,0.1,0.3,0.2,0.4c0,0,0,0,0,0c0.1,0.1,0.1,0.3,0.2,0.4
					c0.8,1.7,1.7,3.6,2.6,5.4C722.5,525.7,722.5,525.9,722.6,526z"/>
			</g>
			<g>
				<path class="st8" d="M722.6,526c-0.4,0.7-0.7,1.4-1.1,2.2c-0.5,0.2-1,0.2-1.4,0c-0.7-0.3-1.8-2.5-2.2-3.3
					c-0.5-1.2-1-2.3-1.5-3.5c-0.3-0.8-1.1-2-1.1-2.8c0.1-1.1,1.3-1.8,2.6-2h0c0,0,0,0.1,0.1,0.1c0.1,0.2,0.3,0.5,0.4,0.8
					c0.3,0.5,0.6,1.1,0.9,1.7c0,0,0,0,0,0c0.1,0.1,0.1,0.3,0.2,0.4c0,0,0,0,0,0c0.1,0.1,0.1,0.3,0.2,0.4c0.8,1.7,1.7,3.6,2.6,5.4
					C722.5,525.7,722.5,525.9,722.6,526z"/>
			</g>
			<g>
				<path class="st8" d="M673.6,499.5c-0.5-0.5-1-1-1.7-1.3c-0.7-0.2-1.5-0.1-1.9,0.5c-0.4,0.6-0.2,1.3,0,2c0.2,0.7,0.3,1.3,0.5,2
					c0.2,0.9,0.5,1.9,1,2.7c0.5,0.8,1.3,1.5,2.3,1.6c1.2,0.1,2.4-0.8,2.7-2L673.6,499.5z"/>
			</g>
			<g>
				<path class="st8" d="M719.8,480.2c-0.1-0.9-0.2-1.8,0.1-2.6c0.3-0.8,1-1.6,1.9-1.5c1,0,1.8,1,2.2,1.9c0.6,1.1,1.1,2.2,1.5,3.3
					c0.4,0.9,0.7,1.8,0.7,2.8s-0.4,2-1.2,2.6c-0.8,0.6-2,0.5-2.6-0.2c0.1,0,0.3,0,0.4,0L719.8,480.2z"/>
			</g>
			<g>
				<path class="st7" d="M726.5,499.5c0,1.7-0.1,3.3-0.4,5c-0.4,2.1-1,4.2-1.9,6.1c-2.7,6-7.5,11.1-13.6,13.7
					c-0.1,0.1-0.3,0.1-0.4,0.2c-3.7,1.5-7.8,2.1-11.8,1.8c-1.7-0.1-3.4-0.4-5-0.9c-4.7-1.3-9-3.7-12.3-7.3
					c-5.3-5.7-7.8-13.3-9.6-20.9c-1-4.2-1.8-8.4-2.8-12.5c-0.8-3-2.9-6.7-3-9.9c0-3,3.2-5,5.3-6.7c3.3-2.8,6.8-5.4,10.7-7.4
					c6.3-3.3,13.9-4.8,20.7-2.5c5.3,1.8,9.6,5.7,12.8,10.2c0,0,0,0,0,0c3.2,4.6,5.4,9.7,7.4,14.9
					C724.4,488.6,726.3,493.9,726.5,499.5z"/>
			</g>
			<g>
				<path class="st8" d="M726.5,499.5c0,1.7-0.1,3.3-0.4,5c-0.4,2.1-1,4.2-1.9,6.1c-2.7,6-7.5,11.1-13.6,13.7c0,0,0-0.1,0-0.2
					c-0.3-1.3,1.8-2.5,2.6-3.3c2.4-2.6,4.2-5.6,5.4-8.9c0.2-0.6,0.5-1.2,0.7-1.9c0.5-1.6,0.9-3.3,1.2-4.9c0.3-1.7,0.4-3.3,0.5-5
					c0.3-9.8-2.7-19.3-5.5-28.7c-0.3-0.9-0.5-2.1-0.4-3c0,0,0,0,0,0c3.2,4.6,5.4,9.7,7.4,14.9C724.4,488.6,726.3,493.9,726.5,499.5z
					"/>
			</g>
			<g>
				<polygon class="st8" points="695.5,494.4 699.7,503.2 702.8,501.7 				"/>
			</g>
			<g>
				<ellipse transform="matrix(0.9 -0.436 0.436 0.9 -142.712 359.277)" class="st8" cx="711.5" cy="490.6" rx="7.4" ry="3.6"/>
			</g>
			<g>
				<path class="st3" d="M699.7,504.2c-0.3,0-0.7-0.2-0.8-0.5l-4.3-8.8c-0.2-0.5,0-1,0.4-1.3c0.5-0.2,1,0,1.3,0.4l3.9,8l2.2-1.1
					c0.5-0.2,1,0,1.3,0.4c0.2,0.5,0,1-0.4,1.3l-3,1.5C700,504.1,699.9,504.2,699.7,504.2z"/>
			</g>
			<g>
				<path class="st3" d="M707.4,515.9c-0.3,0-0.7-0.2-0.8-0.5c-0.2-0.5,0-1,0.4-1.3c2.1-1,3.7-2.8,4.5-5.1c0.8-2.2,0.6-4.6-0.4-6.8
					c-0.2-0.5,0-1,0.4-1.3c0.5-0.2,1,0,1.3,0.4c1.3,2.6,1.4,5.5,0.5,8.2c-0.9,2.7-2.9,4.9-5.5,6.1
					C707.7,515.9,707.5,515.9,707.4,515.9z"/>
			</g>
			<g>
				<path class="st3" d="M701.7,488.3c-0.1,0-0.1,0-0.2,0c-0.5-0.1-0.8-0.6-0.7-1.1c0.6-3.2,3.7-5.2,6.8-4.6
					c0.5,0.1,0.8,0.6,0.7,1.1c-0.1,0.5-0.6,0.8-1.1,0.7c-1-0.2-2.1,0-3,0.6c-0.9,0.6-1.5,1.5-1.7,2.5
					C702.5,488,702.1,488.3,701.7,488.3z"/>
			</g>
			<g>
				<path class="st3" d="M682.6,496.5c-0.1,0-0.3,0-0.4-0.1c-0.5-0.2-0.6-0.8-0.4-1.3c1.5-2.9,5-4,7.9-2.5c0.5,0.2,0.6,0.8,0.4,1.3
					c-0.2,0.5-0.8,0.6-1.3,0.4c-1.9-1-4.3-0.2-5.3,1.7C683.2,496.3,682.9,496.5,682.6,496.5z"/>
			</g>
			<g>
				<path class="st3" d="M696.7,464.2c5.5,3.7,11.7,6.3,18.3,7.5c2.2,0.4,4-1.7,3.3-3.8c-2.1-6.2-4.8-12.2-9.5-16.5
					c-4.2-3.8-10-5.9-15.7-5.7c-4.3,0.2-8.5,1.7-11.9,4.1c-3.7,2.6-8.2,4-12.7,3.4c-2-0.2-4-0.7-5.9-1.5c-1.7-0.7-3.3,1-2.6,2.6
					c1.2,2.6,3,5,5.3,6.8c-6.2,0.6-12.5-1.3-17.4-5c-2.3-1.7-5.6,0.2-5.3,3.1c0.7,7,3.4,13.9,8.2,19.1c6.6,7.2,17.3,10.9,26.7,8.2
					C686.8,484,697.2,474,696.7,464.2z"/>
			</g>
			<g>
				<path class="st9" d="M718.6,524.4c-0.1,0.1-0.1,0.1-0.2,0.2"/>
			</g>
			<g>
				<path class="st8" d="M694.5,495.7c-0.4-0.4-1.2-0.4-1.6,0c-0.1,0.1-2.1,2.2-3.9,5.2c-0.1,0.1-0.3,0-0.2-0.1c1-3.1,2-4.7,2-4.7
					c0.3-0.5,0.2-1.2-0.3-1.6c-0.5-0.3-1.2-0.2-1.6,0.3c-0.1,0.1-1,1.6-2,4.5c0,0.1-0.3,0.1-0.2-0.1c0.3-2.4,0.8-4,0.8-4
					c0.2-0.6-0.2-1.2-0.8-1.4c-0.6-0.2-1.2,0.2-1.4,0.8c0,0.2-0.8,2.8-1.1,6.3c0,0.2-0.2,0.1-0.2,0c0-1.5,0.1-2.6,0.1-2.6
					c0.1-0.6-0.3-1.2-0.9-1.3c-0.6-0.1-1.2,0.3-1.3,0.9c0,0.2-0.8,4.9,1.1,9.2c0,0.1,0.1,0.1,0.1,0.2c-3.6,5.6,4.4,5.1,4.3,2.1
					c0.3,0,0.7,0,0.8,0c0.2,0,0.3,0,0.5,0c4.4,0,6.8-3,7.4-4.7c0.2-0.6-0.1-1.2-0.6-1.5c-0.6-0.2-1.2,0.1-1.5,0.6c0,0-0.4,1-1.4,1.8
					c-1.4,1.3-3.6-0.4-2.7-2.1c1.9-3.7,4.5-6.4,4.5-6.4C694.9,496.9,694.9,496.2,694.5,495.7z"/>
			</g>
		</g>
		<g>
			<g>
				<path class="st7" d="M728.1,704.9l-2.3,0.6l-1.1,0.3l-5.4,1.3c-0.7-2.6-1.6-5.1-2.6-7.6c-0.3-0.9-1.3-2.2-0.9-3.1
					c0.3-0.8,1.6-1.7,2.3-2.1c0.9-0.5,2.1-0.8,3.1-0.4c0.2,0.1,0.3,0.1,0.5,0.2c0.2,0.1,0.4,0.2,0.5,0.4c0.4,0.3,0.7,0.7,1,1.1
					C725.4,698.3,727.1,701.5,728.1,704.9z"/>
			</g>
			<g>
				<path class="st8" d="M728.1,704.9l-2.3,0.6l-1.1,0.3c-0.5-0.1-1-0.2-1.4-0.6c-0.9-0.8-0.9-2.1-0.9-3.3c-0.2-2.3-1.1-4.1-2.1-6.1
					c-0.5-0.9,0.3-1.5,1.4-1.8c0.2,0.1,0.4,0.2,0.5,0.4c0.4,0.3,0.7,0.7,1,1.1C725.4,698.3,727.1,701.5,728.1,704.9z"/>
			</g>
			<g>
				<path class="st7" d="M789.2,709.9l-8.6,3.1c-1-2.5-2.1-4.9-3.4-7.3c-0.4-0.8-1.5-2-1.3-3c0.2-0.8,1.4-1.9,2.1-2.3
					c0.5-0.4,1.2-0.7,1.8-0.8c0.4-0.1,0.8-0.1,1.2,0c0.9,0.2,1.6,0.9,2.2,1.5c2.3,2.3,4.2,5,5.6,8
					C789,709.3,789.1,709.6,789.2,709.9z"/>
			</g>
			<g>
				<path class="st8" d="M788.8,709c-0.5,0.4-1.1,0.6-1.7,0.8c-1.1,0.4-2.3,0.7-3.3,0.1c-1-0.6-1.2-1.9-1.6-3
					c-0.6-2.2-1.8-3.8-3.2-5.5c-0.6-0.7-0.1-1.4,0.8-1.9c0.4-0.1,0.8-0.1,1.2,0c0.9,0.2,1.6,0.9,2.2,1.5
					C785.5,703.4,787.4,706.1,788.8,709z"/>
			</g>
			<g>
				<path class="st3" d="M781.3,696.6c-10.2-16.4-35.8-32.7-40.1-51.5c-2.8-12.3,34.3-28.9,42.6-58.2l-26,0
					c-1.2,2.6-2.2,5.2-3.2,7.7c-2-1.5-4.5-2.4-7-2.9c-2.9-0.6-6-0.6-8.9,0.1c2.9-4.4,6.1-8.7,9.6-12.7l-21.1,0
					c-15.3,19.8-45,42.2-46.3,64.4c-0.9,17,15.4,30.4,30.5,50.3c1.9,2.5,4.2,4.6,7.1,3.3c2.4-1,4.1-3.9,3-6.3
					c-8.9-19.4-25.5-26.3-25.2-45.5c0.2-17.5,20.6-29.6,29.8-40.7c1.5-0.3,7.5,0.4,8.2,0.4c2.8-0.1,11.8,0.6,14.5,1.5
					c2.6,0.9-27.4,24.3-25.2,38.2c3.3,21.1,31.2,38.6,48.4,57.1c2.1,2.3,5.2,3.5,7.7,1.6l0,0C782,701.9,782.7,698.9,781.3,696.6z"/>
			</g>
			<g>
				<path class="st6" d="M792.6,719.1c-1.7,1.4-4,2.2-6,3.1c-2.2,1.1-4.3,2.2-6.6,3c-0.7,0.3-1.5,0.6-2.2,0.7
					c-0.7,0.1-1.6,0.2-2.8,0.3c-4.7,0.3-12,0-12,0c-1.5,0.3-2.9-0.6-3.2-2.1c-0.8-4.1,1.1-8.2,4.5-10.5c1.1-0.8,2.2-1.2,3.4-1.5
					c3.2-0.8,6.6-0.2,10.1-0.9c2.5-0.5,4.3-2.1,6.5-3.2c2.5-1.3,5.8-1,8,0.6c1.2,0.9,2.1,2.1,2.5,3.8l0.1,0.6
					C795.3,715.2,794.5,717.6,792.6,719.1z"/>
			</g>
			<g>
				<path class="st6" d="M731.9,712.5c-1.4,1.7-3.5,2.9-5.3,4.2c-1.9,1.5-3.8,2.9-5.9,4.2c-0.7,0.4-1.3,0.8-2.1,1.1
					c-0.6,0.3-1.6,0.5-2.7,0.8c-4.6,1.2-11.8,2.3-11.8,2.3c-1.4,0.6-3-0.1-3.6-1.5c-1.6-3.9-0.5-8.3,2.4-11.2c0.9-1,2-1.6,3-2.1
					c3-1.4,6.5-1.5,9.7-2.8c2.4-1,3.8-2.9,5.8-4.4c2.2-1.8,5.5-2.1,7.9-1c1.4,0.6,2.5,1.7,3.2,3.2l0.2,0.5
					C733.8,708.2,733.5,710.7,731.9,712.5z"/>
			</g>
			<g>
				<path class="st2" d="M792.6,719.1c-1.7,1.4-4,2.2-6,3.1c-2.2,1.1-4.3,2.2-6.6,3c-0.7,0.3-1.5,0.6-2.2,0.7
					c-0.7,0.1-1.6,0.2-2.8,0.3c0.2-0.1,0.4-0.2,0.6-0.3c1.9-1,3.7-2.2,5.4-3.6c3.4-2.8,6.2-6.2,8.1-10.1c0.5-1,1-2,1.7-2.8
					c0.4-0.4,0.8-0.7,1.3-0.9c1.2,0.9,2.1,2.1,2.5,3.8l0.1,0.6C795.3,715.2,794.5,717.6,792.6,719.1z"/>
			</g>
			<g>
				<path class="st2" d="M731.9,712.5c-1.4,1.7-3.5,2.9-5.3,4.2c-1.9,1.5-3.8,2.9-5.9,4.2c-0.7,0.4-1.3,0.8-2.1,1.1
					c-0.6,0.3-1.6,0.5-2.7,0.8c0.2-0.1,0.4-0.3,0.5-0.4c1.7-1.4,3.2-2.9,4.6-4.6c2.8-3.4,4.9-7.3,6-11.5c0.3-1.1,0.6-2.2,1.2-3.1
					c0.3-0.4,0.7-0.8,1.1-1.1c1.4,0.6,2.5,1.7,3.2,3.2l0.2,0.5C733.8,708.2,733.5,710.7,731.9,712.5z"/>
			</g>
		</g>
		<g>
			<g>
				<path class="st7" d="M827.1,470.6c-0.2-0.6-0.9-1-1.5-0.8c-0.2,0.1-3.1,1-6.4,3c-0.1,0.1-0.3-0.1-0.2-0.2
					c2.5-2.5,4.2-3.5,4.3-3.5c0.6-0.3,0.8-1.1,0.5-1.7c-0.3-0.6-1.1-0.8-1.7-0.5c-0.1,0.1-1.8,1-4.2,3.3c-0.1,0.1-0.3,0-0.2-0.2
					c1.5-2.1,2.8-3.5,2.8-3.5c0.5-0.5,0.4-1.3,0-1.7c-0.5-0.5-1.3-0.4-1.7,0c-0.1,0.1-2.1,2.3-4.2,5.5c-0.1,0.1-0.3,0-0.2-0.1
					c0.7-1.5,1.4-2.4,1.4-2.4c0.4-0.5,0.3-1.3-0.2-1.7c-0.5-0.4-1.3-0.3-1.7,0.2c-0.1,0.2-3.2,4.3-3.5,9.4c0,0.1,0,0.2,0,0.2
					c-6.3,3.6-22.6,14.5-28,17.9c-9.7,6.2-13.2,8.7-22.1,15.9c-3.3,2.7-7.6,5.4-10,9c-2,3-3.2,7.5-4,11c11.2-5.9,15.8-10,26-17.6
					c2.6-1.9,39.9-29.1,41.3-32c0.3,0.1,0.7,0.4,0.8,0.4c0.1,0.1,0.3,0.2,0.4,0.3c4.2,2.2,8,0.5,9.5-0.8c0.5-0.4,0.6-1.2,0.1-1.7
					c-0.4-0.5-1.2-0.6-1.7-0.1c0,0-0.9,0.7-2.3,1.1c-2,0.5-3.2-2.2-1.5-3.4c3.6-2.6,7.5-3.9,7.6-3.9
					C826.9,471.9,827.3,471.2,827.1,470.6z"/>
			</g>
			<g>
				<path class="st2" d="M803,479.1c0.8-0.7,1.7-1.4,2.5-2.1c0.8-0.7,1.7-1.4,2.7-1.4c1.3,0,2.3,1.2,3.1,2.2
					c0.8,1.1,1.7,2.4,1.6,3.8c-0.1,1.4-1.2,2.5-2.2,3.4c-1.4,1.3-2.9,2.7-4.3,4L803,479.1z"/>
			</g>
			<g>
				<path class="st6" d="M784,586.4c-1.2,2.3-3.5,3.8-5.9,5c-0.4,0.2-0.7,0.3-1,0.5c-0.3,0.2-0.6,0.3-1,0.5
					c-0.1,0.1-0.2,0.1-0.3,0.2c-14.9,7-36.2,8.1-52.8,3.8c-1.5-0.4-2.5-0.6-3.9-1.3c-1.4-0.7-2.2-2.2-2.4-3.7
					c-0.2-1.5,0-3.1,0.2-4.6l64-13.9c0.9,1.4,1.7,2.7,2.4,4.1c0.1,0.3,0.3,0.6,0.4,0.9c0,0.1,0.1,0.2,0.1,0.3c0.1,0.3,0.3,0.7,0.4,1
					C785,581.6,785.1,584.2,784,586.4z"/>
			</g>
			<g>
				<path class="st2" d="M679.2,510.6c0.3-1.2,1.6-2,2.9-2.1c1.3-0.1,2.5,0.3,3.7,0.8c1,0.4,2,0.8,2.5,1.7c0.6,1,0.3,2.3-0.3,3.2
					c-0.7,0.9-1.6,1.6-2.6,2.2L679.2,510.6z"/>
			</g>
			<g>
				<path class="st2" d="M784,586.4c-1.2,2.3-3.5,3.8-5.9,5c-0.4,0.2-0.7,0.3-1,0.5c-0.3,0.2-0.6,0.3-1,0.5
					c-0.1,0.1-0.2,0.1-0.3,0.2c-0.9-2.1-0.1-4.5,0.9-6.6c1.5-3.3,2.2-8.9,6.6-8.9c0.1,0.3,0.3,0.6,0.4,0.9c0,0.1,0.1,0.2,0.1,0.3
					c0.1,0.3,0.3,0.7,0.4,1C785,581.6,785.1,584.2,784,586.4z"/>
			</g>
			<g>
				<path class="st4" d="M809.5,487c-0.1,0.2-0.2,0.4-0.3,0.5c-0.2,0.4-0.5,0.8-0.7,1.2c-0.6,0.9-1.4,1.8-2.2,2.6
					c-0.6,0.6-1.3,1.2-2.1,1.8c-0.8,0.6-1.6,1.2-2.4,1.8c-1.9,1.4-3.7,2.7-5.5,4c-7.3,5.4-14,10.2-21.7,15.9
					c-4.6,3.5-2.4,2.3-6.4,5.7c-3.1,2.6-6.3,5.4-10.2,8.6c-0.8,0.6-1.6,1.3-2.4,2c-0.6,0.5-1.3,1.1-2,1.6c-1,0.8-3.7,3.1-4.9,4.1
					c0,0,0,0,0,0c-0.2,0.2-0.3,0.3-0.4,0.4c-0.1,0-0.1,0.1-0.1,0.1c0,0,0,0,0,0c0.2,0.1,0.4,0.2,0.6,0.3c14,7.3,26.6,13,35.9,31.5
					c3.9,7.7-4.9,14.4-10.7,17.7c-8.7,5-18.6,6.3-28.4,7.5c-7.2,0.9-14.4,0.9-21.6,0.2c-4.6-0.4-8.4-3.4-9-7.6
					c-0.1-0.6-0.1-1.2-0.1-1.9c0,0,0-0.1,0-0.1c0.8-10-0.7-12-4-15.5c0,0,0,0,0,0c-1-1.1-2.2-2.4-3.6-4.1c-1.6-2-3.4-4.5-5.4-7.7
					c-4.7,1.8-13.3,9.3-20.5,11.4c-5.6,1.6-12.6,2.3-17.2-1.9c-4.1-3.7-6.2-9.5-5.9-15c0.4-8.9,9.2-23.9,12.3-32.2
					c1.4-3.6,4.5-7.9,8.2-9.1c2-0.7,4-0.4,6,0.3c3.4,1.3,4.3,5.2,2.6,8.4c-4.1,7.6-12.3,19.4-13.3,27.2c0,0,0,0,0,0.1
					c0,0.2,0,0.5-0.1,0.7c-0.1,0.9,0,1.7,0.2,2.4c0.1,0.4,0.3,0.7,0.5,0.9c0.1,0.1,0.1,0.1,0.2,0.2c2.1,1.5,8.1-2.5,11.8-5.2
					c5.5-3.9,9.7-8.7,15.5-12.1c0.6-0.4,1.3-0.7,1.9-1c0.1-0.1,0.3-0.1,0.4-0.2c0.1-0.1,0.3-0.1,0.5-0.2c0,0,0,0,0,0
					c0.3-0.1,0.5-0.2,0.8-0.4c0.5-0.2,0.9-0.4,1.3-0.6c1.7-0.7,3.1-1.1,3.5-0.8c1.4,1,3,1.6,4.6,1.8c1.5,1.1,2.5,2.2,4.2,0.3
					c0.5-0.5,0.9-1.2,1.2-1.9c1.8-1.6,2.5-3.8,2.5-3.8s11-7.3,17.4-10.3c2.1-1,4.3-2,6.4-2.9c2.7-1.2,5.3-2.3,7.9-3.7
					c0.6-0.3,1.2-0.6,1.7-0.9c5.9-3.3,14.3-9.1,16-10.5c8-6.8,15.1-13.3,24.4-19.2c3-1.9,6.8-3.6,10-2
					C810.3,478.9,811,483.6,809.5,487z"/>
			</g>
			<g>
				<g>
					<path class="st5" d="M809.5,487c-0.1,0.2-0.2,0.4-0.3,0.5c-0.2-0.6-0.3-1.2-0.6-1.7c-1.3-2.4-4.2-3.5-6.9-3.3
						c-2.7,0.2-5.2,1.4-7.5,2.8c-6.8,4.1-12.8,9.4-19.1,14.2c-4.6,3.5-9.5,6.7-14.9,8.9c-1.4,0.5-4,2-5.3,1.4
						c0.6-0.3,1.2-0.6,1.7-0.9c5.9-3.3,14.3-9.1,16-10.5c8-6.8,15.1-13.3,24.4-19.2c3-1.9,6.8-3.6,10-2
						C810.3,478.9,811,483.6,809.5,487z"/>
				</g>
				<g>
					<path class="st5" d="M782.9,579.1c-0.5,0.5-0.9,0.9-1.4,1.4c-0.3-0.3-0.5-0.6-0.8-0.9c-1.5-2.1-2-4.8-2.6-7.3
						c-2.5-9.6-9-18-17.5-23.1c-2.4-1.4-4.9-2.6-7.2-4.1c-3.4-2.4-5.3-7.7-5.3-7.7c0,0,0,0,0,0c0.2,0.1,0.4,0.2,0.6,0.3
						c14,7.3,26.6,13,35.9,31.5C786.4,572.5,785.5,576.5,782.9,579.1z"/>
				</g>
				<g>
					<path class="st5" d="M697.9,540.7c-5.9,3.5-11.7,7-17.6,10.5c-1.1,0.6-2.2,1.3-3.4,1.1c-1.4-0.2-2.1-0.8-2.2-1.6
						c0.1,0.1,0.1,0.1,0.2,0.2c2.1,1.5,8.1-2.5,11.8-5.2c5.5-3.9,9.7-8.7,15.5-12.1c0.8,0.3,1.4,0.7,1.4,1.3
						C703.9,536.8,699.6,539.7,697.9,540.7z"/>
				</g>
			</g>
			<g>
				<path class="st5" d="M727.9,586.1c-1.8,1.4-4.2,1.9-6.4,1.9c-2.2,0-4.4-0.3-6.5-1.1c-0.1-0.6-0.1-1.2-0.1-1.9c0,0,0-0.1,0-0.1
					c0.8-10-0.7-12-4-15.5c3,2.1,6.3,3.7,9.8,4.7c1.9,0.5,3.9,0.9,5.7,1.8c1.8,0.9,3.4,2.3,3.9,4.3
					C730.9,582.3,729.8,584.7,727.9,586.1z"/>
			</g>
		</g>
	</g>
</g>
<g>
	<path id="XMLID_633_" class="st10" d="M223.2,584.2c0,0-4.2,4.2,4.1,11.7c8.4,7.5,5.3-11.7,5.3-11.7l-7.1-2.1L223.2,584.2z"/>
	<path id="XMLID_632_" class="st11" d="M322.9,643c-6-6.7-20-20.8-43.1-27.7c-17.3-5.2-38.5-30.2-38.5-30.2s-27.3,3.1-17.9,34
		c9.4,31,2.5,35.1-1.4,44.2c-3,7.1-7,21.1-10.3,28.3c-0.1,0.2-0.2,0.5-0.2,0.7c0,1.3,0.1,2,0.7,3.2c0.4,0.7,0.9,1.3,1.5,1.8l0,0
		c-0.1,0,6.3,5,7.4,4.2c8.6-6.4,28.5-29.6,31.2-32.6c3.3-3.7,7.7-29.7,7.7-29.7s13.2,9.9,29.3,12.9c0,0-12.2,13.5-17.2,16.3
		c-2.1,1.2-5,2.8-7.8,4.4c1,2.6,1.6,5.3,2.3,8.1c10.9-2.3,37.7-12.9,48.3-19c3.6-2.1,6.1-4,7.8-5.9C322.8,656.1,323,643.1,322.9,643
		z"/>
	<path class="st12" d="M279.8,615.3c-6.4-1.9-13.3-6.5-19.5-11.6v35.7c1.5,1.1,14.1,10,29.2,12.8c0,0-12.2,13.5-17.2,16.3
		c-2.1,1.2-5,2.8-7.8,4.4c1,2.6,1.6,5.3,2.3,8.1c10.9-2.3,37.7-12.9,48.3-19c3.6-2.1,6.1-4,7.8-5.9c0,0,0.1-13,0-13.1
		C316.9,636.3,302.8,622.2,279.8,615.3z"/>
	<ellipse id="XMLID_631_" class="st13" cx="405.4" cy="715.3" rx="198.2" ry="9.4"/>
	<g id="XMLID_557_">
		<g id="XMLID_558_">
			<g id="XMLID_624_">
				<path id="XMLID_630_" class="st14" d="M457.3,590.4l-17.1-7.3c-3.3-1.4-4.8-5.2-3.4-8.5l17.4-40.8c1.4-3.3,5.2-4.8,8.5-3.4
					l17.1,7.3c3.3,1.4,4.8,5.2,3.4,8.5L465.8,587C464.4,590.3,460.6,591.8,457.3,590.4z"/>
				
					<rect id="XMLID_629_" x="445.6" y="538.4" transform="matrix(0.9201 0.3917 -0.3917 0.9201 256.1275 -135.5333)" class="st15" width="29.3" height="43"/>
				<path id="XMLID_627_" class="st16" d="M472,539.3l-6-2.6c-0.2-0.1-0.3-0.3-0.2-0.5l0,0c0.1-0.2,0.3-0.3,0.5-0.2l6,2.6
					c0.2,0.1,0.3,0.3,0.2,0.5l0,0C472.4,539.3,472.2,539.4,472,539.3z"/>
				
					<ellipse id="XMLID_626_" transform="matrix(0.3917 -0.9201 0.9201 0.3917 -262.8397 769.0748)" class="st16" cx="450.2" cy="583.3" rx="2.5" ry="2.5"/>
				<polygon id="XMLID_625_" class="st17" points="455.2,534.4 465.3,585.4 482.1,545.9 				"/>
			</g>
			<g id="XMLID_618_">
				<path id="XMLID_623_" class="st14" d="M405.3,565.4L367.2,577c-4.3,1.3-8.9-1.1-10.2-5.5l-19.8-65.3c-1.3-4.3,1.1-8.9,5.5-10.2
					l38.1-11.5c4.3-1.3,8.9,1.1,10.2,5.5l19.8,65.3C412,559.5,409.6,564.1,405.3,565.4z"/>
				
					<rect id="XMLID_622_" x="347.7" y="497.3" transform="matrix(0.957 -0.29 0.29 0.957 -137.9824 131.3859)" class="st15" width="53.2" height="67.9"/>
				
					<ellipse id="XMLID_621_" transform="matrix(0.957 -0.29 0.29 0.957 -148.0233 136.1268)" class="st16" cx="385.3" cy="567.5" rx="2.5" ry="2.5"/>
				<path id="XMLID_620_" class="st16" d="M366.2,493.8l-6.2,1.9c-0.2,0.1-0.4-0.1-0.5-0.3l0,0c-0.1-0.2,0.1-0.4,0.3-0.5l6.2-1.9
					c0.2-0.1,0.4,0.1,0.5,0.3l0,0C366.5,493.5,366.4,493.7,366.2,493.8z"/>
				<polygon id="XMLID_619_" class="st17" points="339,506.5 409.6,556 389.9,491.1 				"/>
			</g>
			<rect id="XMLID_617_" x="322.8" y="579.2" class="st18" width="129.2" height="133.3"/>
			<rect id="XMLID_616_" x="363.6" y="579.2" class="st19" width="129.2" height="133.3"/>
			<rect id="XMLID_609_" x="417" y="579.2" class="st20" width="20.1" height="133.3"/>
			<polygon id="XMLID_608_" class="st21" points="511.8,622 382.6,622 363.6,579.2 492.8,579.2 			"/>
			<polygon id="XMLID_607_" class="st21" points="301,622 344.7,622 363.6,579.2 320,579.2 			"/>
			<g id="XMLID_592_">
				<g id="XMLID_605_">
					<path id="XMLID_606_" class="st22" d="M472.2,483.6l-4-1l6.4-26.8c4.8-19.9-7.6-40-27.5-44.7c-19.9-4.8-40,7.6-44.7,27.5
						l-6.4,26.8l-4-1l6.4-26.8c5.3-22.1,27.6-35.8,49.7-30.5c22.1,5.3,35.8,27.6,30.5,49.7L472.2,483.6z"/>
				</g>
				<g id="XMLID_603_">
					<path id="XMLID_604_" class="st14" d="M408.4,490c-10.6-2.5-17.2-13.2-14.7-23.9c2.5-10.6,13.2-17.2,23.9-14.7"/>
				</g>
				<g id="XMLID_601_">
					<path id="XMLID_602_" class="st23" d="M407.9,492.8L407.9,492.8c-1.7-0.4-2.8-2.2-2.4-3.9l8.8-37c0.4-1.7,2.2-2.8,3.9-2.4l0,0
						c1.7,0.4,2.8,2.2,2.4,3.9l-8.8,37C411.4,492.2,409.6,493.3,407.9,492.8z"/>
				</g>
				<g id="XMLID_599_">
					
						<ellipse id="XMLID_600_" transform="matrix(0.2321 -0.9727 0.9727 0.2321 -148.9259 740.4636)" class="st14" cx="394.5" cy="464.6" rx="4.6" ry="4.6"/>
				</g>
				<g id="XMLID_597_">
					<path id="XMLID_598_" class="st14" d="M444.8,498.7c10.6,2.5,21.3-4,23.9-14.7c2.5-10.6-4-21.3-14.7-23.9"/>
				</g>
				<g id="XMLID_595_">
					<path id="XMLID_596_" class="st23" d="M443.9,501.4L443.9,501.4c1.7,0.4,3.5-0.7,3.9-2.4l8.8-37c0.4-1.7-0.7-3.5-2.4-3.9l0,0
						c-1.7-0.4-3.5,0.7-3.9,2.4l-8.8,37C441.1,499.3,442.2,501,443.9,501.4z"/>
				</g>
				<g id="XMLID_593_">
					
						<ellipse id="XMLID_594_" transform="matrix(0.2321 -0.9727 0.9727 0.2321 -109.2481 826.0773)" class="st14" cx="468.6" cy="482.2" rx="4.6" ry="4.6"/>
				</g>
			</g>
			<g id="XMLID_588_">
				
					<rect id="XMLID_591_" x="360.7" y="435.4" transform="matrix(0.8938 0.4485 -0.4485 0.8938 235.9237 -116.8362)" class="st22" width="8" height="8.6"/>
				<path id="XMLID_590_" class="st14" d="M352.8,463.1L352.8,463.1c-2.9-1.4-4-5-2.6-7.8l7.5-15l10.4,5.2l-7.5,15
					C359.2,463.4,355.7,464.6,352.8,463.1z"/>
				<path id="XMLID_589_" class="st23" d="M355.2,458.6L355.2,458.6c-1.3-0.7-1.8-2.3-1.2-3.6l4.8-9.7l4.7,2.4l-4.8,9.7
					C358.1,458.7,356.5,459.3,355.2,458.6z"/>
			</g>
			<g id="XMLID_559_">
				
					<rect id="XMLID_587_" x="364.6" y="484.9" transform="matrix(0.9585 -0.2852 0.2852 0.9585 -123.2984 124.6514)" class="st22" width="3.6" height="1.6"/>
				<g id="XMLID_577_">
					<g id="XMLID_585_">
						<path id="XMLID_586_" class="st14" d="M409.4,375.3L409.4,375.3c4,5.2,3.1,12.7-2.1,16.7l-9.3,7.2c-5.2,4-12.7,3.1-16.7-2.1
							l0,0c-4-5.2-3.1-12.7,2.1-16.7l9.3-7.2C397.8,369.2,405.3,370.1,409.4,375.3z"/>
					</g>
					<g id="XMLID_583_">
						
							<rect id="XMLID_584_" x="389.8" y="378.4" transform="matrix(0.7883 -0.6152 0.6152 0.7883 -157.5542 322.6396)" class="st24" width="0.6" height="23.8"/>
					</g>
					<g id="XMLID_578_">
						
							<rect id="XMLID_582_" x="380.1" y="393.5" transform="matrix(0.7882 -0.6154 0.6154 0.7882 -160.6252 320.773)" class="st24" width="11.2" height="0.6"/>
					</g>
				</g>
				<g id="XMLID_561_">
					<path id="XMLID_562_" class="st14" d="M365.2,483.7c0-0.1-3.9-10.4,8.5-22.9c13.2-13.2,12.1-33,5.6-45.9
						c-7.2-14.1,3-20.6,3.1-20.6l0.3,0.5c-0.4,0.2-9.9,6.2-2.9,19.9c6.6,13,7.7,33.2-5.7,46.6c-12.2,12.2-8.4,22.2-8.4,22.3
						L365.2,483.7z"/>
				</g>
				
					<rect id="XMLID_560_" x="363.6" y="481.9" transform="matrix(0.9561 -0.293 0.293 0.9561 -125.663 128.3631)" class="st14" width="4.3" height="3.5"/>
			</g>
		</g>
	</g>
	<path id="XMLID_555_" class="st25" d="M308.4,553.7c1.4,4,3.5,8,8.1,9.5c0.8,0.3,1.8-0.1,2.3-0.9c1.6-2.3,1.4-2.5,3.1-3.4
		c3.4-1.9,9.1,5.2,16.4,4.4c7.3-0.8,24.2-16.8,19.4-27.8c-4.9-11-14.7-16.1-27.3-5.2c-10.9,9.4-13.4,13.1-20,16.8
		C308.5,548.3,307.7,551.6,308.4,553.7z"/>
	<path id="XMLID_494_" class="st26" d="M344,577.8l-3.4-5.5l-38.8,0.7l0,0c-3.4,0.1-7,3.9-7.1,8.1c-0.1,4.3,3.7,7.4,7.1,7.4
		c0.2,0,2.9-0.6,3.1-0.6l-2.5,0.6l2.9-0.6c0.3,0,0.5-0.1,0.8-0.2L344,577.8z"/>
	<g id="XMLID_488_">
		<path id="XMLID_493_" class="st14" d="M266.1,674.4l-5.8,1.7c-1.3,0.8-2.5,4.9-1.6,6.2l1.4,2.1l10.3-6L266.1,674.4z"/>
		<path id="XMLID_489_" d="M260.3,676.1c0,0-4.7-2.3-7.7-0.2c-3,2.2,5.5,25.3,5.5,25.3s0.8,0.7,1-1l1.3-12.1c0,0,1.3-5.3,0.3-7.7
			C259.9,678.6,260.3,676.1,260.3,676.1z"/>
	</g>
	<g id="XMLID_484_">
		<path id="XMLID_486_" class="st14" d="M214.2,692.9l-3.7,9.4c-0.3,1.5,3.4,4.5,5,4.8l2.5,0.4l2.9-11.6L214.2,692.9z"/>
		<path id="XMLID_485_" d="M210.5,702c0,0-4,3.3-3.3,7c0.8,3.6,25.4,5.2,25.4,5.2s1-0.4-0.5-1.3l-10.6-6.1c0,0-4.3-3.4-6.9-3.4
			C212.6,703.4,210.5,702,210.5,702z"/>
	</g>
	<path id="XMLID_483_" class="st23" d="M290,544.3c-18.6,1.7-49.9,6.5-67.9,41.5c0,0,14.6,3.4,35.7,21.6c21.1,18.1,36.4,11.2,45.6,2
		c6.8-6.8,12.4-22.7,15.9-34.5c2.5-8.5,0.5-17.7-5.4-24.3l0,0C307.6,543.5,299.5,543.4,290,544.3z"/>
	<polygon id="XMLID_481_" class="st25" points="301.9,565.9 293,588.5 308.1,586.9 314.9,573.7 	"/>
	<circle id="XMLID_480_" class="st25" cx="329.1" cy="532.5" r="6.2"/>
	<polygon id="XMLID_479_" class="st27" points="351.5,545.1 348.3,557.1 342.3,553.6 	"/>
	
		<ellipse id="XMLID_466_" transform="matrix(0.7194 -0.6946 0.6946 0.7194 -281.6469 393.9075)" class="st28" cx="346.7" cy="545.6" rx="1.3" ry="0.8"/>
	
		<ellipse id="XMLID_465_" transform="matrix(0.7194 -0.6946 0.6946 0.7194 -284.2559 399.1676)" class="st28" cx="351.9" cy="551.4" rx="1.3" ry="0.8"/>
	<path id="XMLID_463_" class="st28" d="M334.1,527.6c0,0-4.5,9.8-0.8,11c3.8,1.3,7.8,5.3,7.6,9.5c-0.1,4.1-0.8,8.8,5.6,11
		c0,0-2.4,8-13.2,6.5c-10.9-1.5-18.2-15.1-8.6-28.8L334.1,527.6z"/>
	<g id="XMLID_456_">
		<g id="XMLID_460_">
			<path id="XMLID_462_" class="st29" d="M338,553c0,0,0.5-1.6,0.2-2.7c-0.3-1.2-1-2.2-2.5-2.1c-1.5,0.1-2.3,1.8-2.8,3.8
				c-0.3,1.2,0,4.8,1.3,6.5c1.4,1.7,2.3,2.5,3.7,2.6c1.4,0.1,2.5-1.2,2.6-2.3c0.1-1.1-0.6-2-1.1-2.4C339,555.9,337.7,555,338,553z"
				/>
		</g>
		<g id="XMLID_457_">
			<path id="XMLID_459_" class="st10" d="M333.6,549.9c0,0,1.2,1.2,1.5,3.5c0.2,2.3-0.4,3.4-1.2,4.6c0,0-1.3-2.3-1.1-4.9
				C332.9,550.9,333.6,549.9,333.6,549.9z"/>
		</g>
	</g>
	<path id="XMLID_449_" class="st28" d="M339.2,525.1c0,0,12.7-1.9,12.7,13.5c0,15.4,20,14,21.6-2c1.4-13.4-12.7-16.7-18.5-13.4
		c-1.4,0.8-3,0.9-4.5,0.3C348.2,522.5,344.3,522,339.2,525.1z"/>
	
		<linearGradient id="XMLID_6_" gradientUnits="userSpaceOnUse" x1="404.9579" y1="-15961.1934" x2="404.9579" y2="-15774.5723" gradientTransform="matrix(1 0 0 -1 0 -15382)">
		<stop  offset="0.2211" style="stop-color:#FFFFFF;stop-opacity:0"/>
		<stop  offset="1" style="stop-color:#FFFFFF"/>
	</linearGradient>
	<polygon id="XMLID_447_" class="st30" points="492.9,579.2 541.2,392.6 268.8,392.6 320,579.2 	"/>
	<path id="XMLID_444_" class="st25" d="M340.2,578.4l-1.2-5.8l-41,10.4l0,0c-3.3,0.9-6,5.4-5.1,9.5c0.9,4.2,5.2,6.4,8.6,5.7
		c0.2,0,2.7-1.2,2.9-1.3l-2.3,1.1l2.7-1.3c0.3-0.1,0.5-0.2,0.7-0.4L340.2,578.4z"/>
	<path id="XMLID_439_" class="st25" d="M340.2,578.4l1.3,0.8l9.4,0c-0.3-0.6-0.6-1.1-1-1.6l-1.8-2.2c-0.5-0.6-1.1-1.1-1.8-1.5
		l-1.2-0.7c-1.3-0.8-2.9-1.1-4.5-0.9l-1.6,0.2L340.2,578.4z"/>
</g>
<g id="XMLID_424_" class="st31">
	<path id="XMLID_436_" class="st14" d="M504.6,244.9h64.1c0,0-3.2-7.8-7.2-8.1c-4-0.3-5.1,2.1-6.4,1.9c-1.3-0.2-3.4-6.6-8.5-7
		c-5.1-0.3-7.1,4.5-9.9,5.3c-2.8,0.9-8.3,0.4-12.7-6.6c-4.3-7-12.5,0.6-12.7,6c-0.3,8.3-12.9,3.7-12.9,8.5H504.6z"/>
	<path id="XMLID_427_" class="st32" d="M651.6,356h-64.1c0,0,3.2-8,7.2-8.3c4-0.3,5.1,2,6.4,1.8c1.3-0.2,3.4-6.7,8.5-7
		c5.1-0.3,7.1,4.4,9.9,5.3c2.8,0.9,8.3,0.4,12.7-6.6c4.3-7,12.5,0.8,12.7,6.1c0.3,8.3,12.9,3.9,12.9,8.7H651.6z"/>
	<path id="XMLID_425_" class="st14" d="M365,333.3h-64.1c0,0,3.2-7.8,7.2-8.1c4-0.3,5.1,2.1,6.4,1.9c1.3-0.2,3.4-6.6,8.5-7
		c5.1-0.3,7.1,4.5,9.9,5.3c2.8,0.9,8.3,0.4,12.7-6.6c4.3-7,12.5,0.6,12.7,6c0.3,8.3,12.9,3.7,12.9,8.5H365z"/>
</g>
</svg>
