<?xml version="1.0" encoding="utf-8"?>
<!-- Generator: Adobe Illustrator 21.0.0, SVG Export Plug-In . SVG Version: 6.00 Build 0)  -->
<svg version="1.1" id="Layer_1" xmlns="http://www.w3.org/2000/svg" xmlns:xlink="http://www.w3.org/1999/xlink" x="0px" y="0px"
	 viewBox="0 0 700 600" style="enable-background:new 0 0 700 600;" xml:space="preserve">
<style type="text/css">
	.st0{fill:url(#SVGID_1_);}
	.st1{fill:#F4C74A;}
	.st2{fill:#743B9B;}
	.st3{fill:#353535;}
	.st4{fill:#48B6F0;}
	.st5{fill:#409CC9;}
	.st6{fill:#9149BF;}
	.st7{fill:#FFBB9F;}
	.st8{fill:#FE927A;}
	.st9{fill:none;}
	.st10{fill:#FF7D7D;}
	.st11{fill:#1B364F;}
	.st12{fill:#162D3F;}
	.st13{opacity:0.68;fill:#7FEFBA;}
	.st14{fill:#FFFFFF;}
	.st15{fill:#36A9E1;}
	.st16{fill:#DADADA;}
	.st17{opacity:0.22;fill:#EDEDED;}
	.st18{fill:#E2A65D;}
	.st19{fill:#EAB46C;}
	.st20{fill:#FFEA94;}
	.st21{fill:#F9C485;}
	.st22{fill:#B2B2B2;}
	.st23{fill:#FF9999;}
	.st24{fill:#EDEDED;}
	.st25{fill:#FFCFC5;}
	.st26{fill:#FFA399;}
	.st27{fill:#FF6252;}
	.st28{fill:#1D1D1B;}
	.st29{fill:#CE3E3E;}
	.st30{opacity:0.31;fill:url(#XMLID_6_);}
	.st31{opacity:0.3;}
	.st32{fill:#FFFFFF;stroke:#FFFFFF;stroke-miterlimit:10;}
</style>
<g>
	<linearGradient id="SVGID_1_" gradientUnits="userSpaceOnUse" x1="371.2168" y1="608.6301" x2="369.7018" y2="-34.0681">
		<stop  offset="9.732377e-02" style="stop-color:#4A69BD"/>
		<stop  offset="0.3504" style="stop-color:#368BAF"/>
		<stop  offset="0.6011" style="stop-color:#27A6A5"/>
		<stop  offset="0.8239" style="stop-color:#1DB69E"/>
		<stop  offset="0.9959" style="stop-color:#1ABC9C"/>
	</linearGradient>
	<path class="st0" d="M692,381.8c0,135.3-187.1,174.9-339,174.9c-158.6,0-303.7-12-303.7-167S153.4,27,312,27S692,286.1,692,381.8z"
		/>
	<path class="st1" d="M49.3,389.7c0-154.2,103-360.6,260.3-362.7c-0.6,0-1.3,0-1.9,0C97.6,27,4,241,4,393s145.1,163.7,303.7,163.7
		c5.6,0,11.2-0.1,16.8-0.2C177.5,554.7,49.3,535.4,49.3,389.7z"/>
	<g>
		<g>
			<g>
				<path class="st1" d="M560.5,423.8c19.1-1.6,37.3-8.5,56.1-12.2c18.8-3.7,39.7-3.6,55.4,7.4c11.8,8.3,19.1,22,22.2,36.1
					c6.3,28.5-3.8,59.4-23.5,80.9c-19.8,21.5-48.4,33.8-77.5,36.3c-29.1,2.6-58.5-4.1-85.1-16.2c-43.9-20-80.8-55.1-102.9-98
					c-8.7-17-15.3-35.7-14.5-54.8c0.8-18.7,11-40.1,28.8-48.4c25.6-11.9,43.6,14.4,58.1,31.5c11.3,13.4,23.9,25.2,40.6,31.3
					C531.6,422.9,546.2,425.1,560.5,423.8z"/>
			</g>
			<g>
				<path class="st1" d="M624.1,387.3c6,5.2,15.4,7.7,21.9,3.1c6.5-4.6,7.3-14,5.4-21.7c-4.8-20.2-24.6-35.7-45.4-35.6
					c-14.8,0.1-24.6,12.6-11.2,22.1C607.7,364.2,612.6,377.4,624.1,387.3z"/>
			</g>
		</g>
		<g>
			<g>
				<path class="st2" d="M601.7,535.1c-1.4-1.9-3.4-3.4-5.7-3.7c-1.6-0.2-3.3,0.2-4.8,1c-1.5,0.8-3,1.8-3.9,3.2
					c-1,1.6-1.1,3.6-0.6,5.4c0.7,2.7,2.2,5.1,4.3,7.1c1.9,1.8,4.4,1.9,6.8,1.1c1.1-0.4,2.2-1,3.1-1.7c1.2-0.9,2.4-2.1,2.8-3.6
					c0-0.1,0.1-0.3,0.1-0.4C604.5,540.5,603.5,537.4,601.7,535.1z"/>
			</g>
			<g>
				<g>
					<path class="st3" d="M571.6,546.3c1,2.2,0.9,4.9-0.2,7c-0.3,0.6-0.7,1.1-0.9,1.7c-0.3,0.6-0.4,1.3-0.1,1.9
						c0.4,0.9,1.4,1.3,2.4,1.2s1.8-0.6,2.6-1.1c6.2-3.7,12.2-7.7,17.8-12.2c0.5-0.4,1-0.8,1.2-1.5c0.2-0.6,0-1.2-0.4-1.7
						c-0.4-0.5-0.9-0.8-1.5-1c-1.9-0.8-4.1-0.7-6.1-0.6c-7,0.3-14.1,0.5-21.1,0.8c0,0.2,0,0.3,0,0.5c0,0.5,3.3,1.6,3.7,1.8
						C569.9,543.9,571,545,571.6,546.3z"/>
				</g>
				<g>
					<path class="st3" d="M514.5,524.6c1.1,2.3,1,5.1-0.3,7.4c-0.3,0.6-0.7,1.1-1,1.8c-0.3,0.6-0.4,1.3-0.1,2
						c0.4,0.9,1.5,1.3,2.5,1.2c1-0.1,1.9-0.6,2.7-1.1c6.5-3.8,12.7-8.1,18.7-12.8c0.5-0.4,1.1-0.9,1.3-1.5c0.2-0.6-0.1-1.3-0.5-1.8
						c-0.4-0.5-1-0.8-1.6-1.1c-2-0.8-4.3-0.8-6.4-0.7c-7.4,0.3-14.7,0.6-22.1,0.8c0,0.2,0,0.3,0,0.5c0,0.5,3.4,1.6,3.9,1.9
						C512.8,522,513.8,523.2,514.5,524.6z"/>
				</g>
			</g>
			<g>
				<path class="st2" d="M563.1,550c1.6-0.8,3.4-1.3,5.2-1.1c2.5,0.3,4.7,2.1,6.2,4.1c1.9,2.6,3,5.9,2.4,9c-0.6,3.1-5,6.3-8.2,6.7
					c-1.5,0.2-2.1,0.2-3.2-1.3c-1.2-1.6-2.1-2.8-3.1-4.5c-1-1.7-1.9-3.5-2.8-5.3c-0.6-1.3-1.4-3.1-0.6-4.5
					C559.8,551.8,561.8,550.6,563.1,550z"/>
			</g>
			<g>
				<path class="st3" d="M611,532.4c-2.5,1.9-5.1,3.6-7.8,5.1c-3,1.6-6.2,3-9.5,4c-2,0.6-4,1.2-6,1.6c-5.8,1.2-11.8,1.5-17.7,0.9
					c0,0-0.1,0-0.1,0c-7-0.8-13.7-2.8-20.4-4.9c-8.2-2.5-16.3-5-24.5-7.5c-3.2-1-6.5-2-9.7-3c-3.7-1.1-7.4-2.3-11.2-3.4
					c-3.1-0.9-6.2-1.9-8.9-3.6c-2.7-1.8-4.9-4.5-5.4-7.6c-0.5-3.6,1.4-7.2,4.3-9.6c0.7-0.6,1.4-1.1,2.2-1.5
					c5.7-3.2,11.3-3.8,16.9-3.2c3.3,0.3,6.6,1.1,10,1.9c11,2.6,22.1,5.3,33.1,7.9c15.8,3.8,31.6,7.5,47.4,11.3
					c1.6,0.4,3.1,0.8,4.7,1.1c1.7,0.4,3.6,1,4.8,2.1c0.6,0.5,1,1.2,1.2,2C615,528.6,613,530.9,611,532.4z"/>
			</g>
			<g>
				<path class="st4" d="M609.8,530.3c-2.5,1.9-5.1,3.6-7.9,5.1c-3.8,2-7.9,3.6-12,4.7c-1,0.3-2.1,0.5-3.1,0.7
					c-5.6,1.2-11.4,1.4-17.1,0.8c-1.5-0.2-3.1-0.4-4.6-0.7c-5.2-1-10.3-2.5-15.3-4.1c-7.4-2.3-14.9-4.5-22.3-6.8
					c-4.1-1.3-8.2-2.5-12.3-3.8c-3.2-1-6.5-2-9.7-3c-3-0.9-6-1.8-8.7-3.6c-2.6-1.7-4.8-4.3-5.3-7.5c-0.4-2.8,0.7-5.6,2.6-7.8
					c0.7-0.6,1.4-1.1,2.2-1.5c5.7-3.2,11.3-3.8,16.9-3.2c3.3,0.3,6.6,1.1,10,1.9c11,2.6,22.1,5.3,33.1,7.9
					c15.8,3.8,31.6,7.5,47.4,11.3c1.6,0.4,3.1,0.8,4.7,1.1c1.7,0.4,3.6,1,4.8,2.1C613.8,526.6,611.8,528.7,609.8,530.3z"/>
			</g>
			<g>
				<path class="st2" d="M505.1,530.7c1.4-0.7,2.9-1.1,4.4-0.9c2.1,0.3,4,1.8,5.3,3.5c1.6,2.2,2.6,5,2.1,7.7c-0.5,2.7-4.2,5.4-7,5.7
					c-1.3,0.2-1.8,0.2-2.7-1.1c-1-1.4-1.8-2.4-2.6-3.9c-0.8-1.5-1.6-3-2.4-4.5c-0.5-1.1-1.2-2.7-0.5-3.8
					C502.3,532.3,504,531.3,505.1,530.7z"/>
			</g>
			<g>
				<path class="st5" d="M603.7,520.9c-12,8.5-27.9,11.4-42,7.1c-8-2.4-15.7-7.1-23.8-8.2c-1.7-0.2-3.4-0.3-5.1-0.2
					c-4.2,0.3-8.2,1.7-12.3,2.4c-2.9,0.4-6,0.4-8.7-0.7c-0.5-0.2-0.9-0.4-1.3-0.6c-0.7-0.4-1.3-0.8-1.9-1.3
					c-0.2-0.2-0.4-0.4-0.6-0.6c-3-3.4-3.1-8.9-0.9-12.9c1.5-2.8,3.6-4.8,6.1-6.1c3.3,0.3,6.6,1.1,10,1.9c11,2.6,22.1,5.3,33.1,7.9
					C572.1,513.4,587.9,517.2,603.7,520.9z"/>
			</g>
			<g>
				<path class="st6" d="M558.2,559.4c0.8,2.9,2.4,5.6,4.7,7.7c1.1,1.1,2.6,2,4.1,2c1.5-0.1,2.8-1,3.5-2.3s0.8-2.8,0.5-4.2
					c-0.3-1.4-0.9-2.7-1.6-4c-0.9-1.8-2-3.6-3.6-4.9c-1.4-1.1-4.2-2.5-6-1.2C557.6,554.2,557.5,557,558.2,559.4z"/>
			</g>
			<g>
				<path class="st6" d="M500.9,538.8c0.7,2.5,2.1,4.8,4,6.6c1,0.9,2.2,1.7,3.5,1.7c1.3,0,2.4-0.9,3-2c0.6-1.1,0.6-2.4,0.4-3.6
					c-0.2-1.2-0.8-2.3-1.3-3.4c-0.8-1.5-1.7-3-3.1-4.1c-1.2-1-3.6-2.1-5.1-1.1C500.4,534.3,500.3,536.8,500.9,538.8z"/>
			</g>
			<g>
				<g>
					<path class="st2" d="M564,564.5c0.7,0.5,1.7,0.8,2.4,0.3c0.6-0.5,0.7-1.3,0.6-2.1c-0.1-1.1-0.2-2.3-0.7-3.3
						c-0.5-1-1.3-2-2.4-2.4c-0.8-0.3-2.1-0.4-2.8,0.2c-0.6,0.5-0.4,1.7-0.2,2.4C561.2,561.6,562.3,563.4,564,564.5z"/>
				</g>
				<g>
					<path class="st2" d="M505.8,543.2c0.6,0.4,1.4,0.7,2,0.3c0.5-0.4,0.6-1.1,0.5-1.8c-0.1-1-0.2-2-0.6-2.8c-0.4-0.9-1.1-1.7-2-2
						c-0.7-0.3-1.8-0.3-2.4,0.2c-0.5,0.4-0.3,1.4-0.2,2C503.5,540.7,504.4,542.2,505.8,543.2z"/>
				</g>
			</g>
		</g>
		<g>
			<g>
				<g>
					<path class="st4" d="M553.4,317.3c-0.5,3.1-2.6,5.6-4.6,8.1c-3.6,4.3-7.1,8.7-10.7,13c-0.3,0.3-0.5,0.6-0.8,0.9
						c-4.5,4.8-9.5,5.9-15.4,1.8c-2.9-2-6.2-3.5-8.8-5.9c-2-1.8-5.1-5.5-5-8.3c0-1.4,0.6-2.7,1.2-4c3.1-6.1,8.2-11.2,14.3-14.5
						c5.9-3.2,14.3-5.4,20.9-3.5c4.3,1.2,8.1,4.9,9,9.2C553.6,315.1,553.6,316.2,553.4,317.3z"/>
				</g>
				<g>
					<path class="st5" d="M541.7,314.3c-1-2.7-4.5-3.5-7.3-3.4c-0.2,0-0.4,0-0.6,0.1l0.1,0c0,0,0,0-0.1,0c0,0,0,0,0,0
						c-1.7,0.3-3.6,1.7-4.9,2.5c-1.9,1.1-3.6,2.3-5.4,3.7c-3.5,2.7-6.6,5.8-9.2,9.3c-0.4,0.5-0.6,0.4-0.7,1.1
						c-0.1,0.6-0.2,1.5,0.3,2.1c1.1,1,2.5,1.7,4,2.1c1.1,0.4,2.3,0.6,3.5,0.9c1.1,0.3,2.1,0.6,3.1,1.1c1.9,1,3,3.1,4.9,1
						c1.3-1.5,1.9-4.1,3-5.8c0,0,0-0.1,0-0.1c1.3-2,2.8-3.9,4.5-5.5c1.3-1.3,2.8-2.4,3.8-3.9C541.7,318,542.3,316,541.7,314.3z"/>
				</g>
				<g>
					<path class="st5" d="M553.4,317.3c-0.5,3.1-2.6,5.6-4.6,8.1c-3.6,4.3-7.1,8.7-10.7,13c-0.3,0.3-0.5,0.6-0.8,0.9
						c-0.6-0.2-1.1-0.4-1.5-0.8c-1.7-1.4-2.1-3.8-1.7-6c0.7-4,3.6-7.4,6.9-9.9c3.3-2.5,7-4.3,10.3-6.8c0.8-0.6,1.5-1.2,2.1-1.8
						C553.6,315.1,553.6,316.2,553.4,317.3z"/>
				</g>
			</g>
			<g>
				<g>
					<path class="st7" d="M532.3,328.9c-0.4,0.6-0.7,1.3-1,2c-0.3,0.7-0.6,1.4-0.9,2.1c-0.3,0.6-0.7,1.2-1.1,1.7
						c-1.5,1.7-2.5,0.7-3.8-0.3c-0.3-0.2-0.7-0.5-1.1-0.7c-1-0.5-2.1-0.8-3.1-1.1c-0.7-1.3-1.5-2.8-2.2-4.3c-1.5-2.8-3-5.7-3.9-7.4
						c2.5-0.5,10.3-2.9,12.4-1.2c0.1,0.1,0.3,0.4,0.5,0.7c0,0,0,0.1,0.1,0.1c0.1,0.2,0.2,0.4,0.4,0.7c0,0.1,0.1,0.2,0.1,0.3
						c0.2,0.4,0.4,0.8,0.6,1.3c0,0,0,0,0,0c0.1,0.1,0.1,0.3,0.2,0.4c0,0,0,0,0,0c0.1,0.1,0.1,0.3,0.2,0.4c0.7,1.5,1.6,3.2,2.4,4.9
						C532.1,328.7,532.2,328.8,532.3,328.9z"/>
				</g>
				<g>
					<path class="st8" d="M532.3,328.9c-0.4,0.6-0.7,1.3-1,2c-0.4,0.2-0.9,0.2-1.3,0c-0.7-0.3-1.7-2.3-2-2.9c-0.4-1-0.9-2.1-1.4-3.1
						c-0.3-0.7-1-1.8-1-2.6c0.1-1,1.2-1.6,2.3-1.9h0c0,0,0,0.1,0.1,0.1c0.1,0.2,0.2,0.4,0.4,0.7c0.2,0.4,0.5,1,0.8,1.5c0,0,0,0,0,0
						c0.1,0.1,0.1,0.3,0.2,0.4c0,0,0,0,0,0c0.1,0.1,0.1,0.3,0.2,0.4c0.7,1.5,1.6,3.2,2.4,4.9C532.1,328.7,532.2,328.8,532.3,328.9z"
						/>
				</g>
				<g>
					<path class="st8" d="M488,304.9c-0.4-0.5-0.9-0.9-1.5-1.2s-1.4-0.1-1.7,0.4c-0.3,0.5-0.2,1.2,0,1.8c0.2,0.6,0.3,1.2,0.5,1.8
						c0.2,0.8,0.4,1.7,0.9,2.4c0.5,0.7,1.2,1.4,2.1,1.5c1.1,0.1,2.2-0.7,2.4-1.8L488,304.9z"/>
				</g>
				<g>
					<path class="st8" d="M529.7,287.5c-0.1-0.8-0.2-1.6,0.1-2.3c0.2-0.7,0.9-1.4,1.7-1.4c0.9,0,1.6,0.9,2,1.8c0.5,1,1,2,1.4,3
						c0.3,0.8,0.6,1.7,0.6,2.6c0,0.9-0.3,1.8-1.1,2.3c-0.7,0.5-1.8,0.5-2.4-0.2c0.1,0,0.3,0,0.4,0L529.7,287.5z"/>
				</g>
				<g>
					<path class="st7" d="M535.7,304.9c0,1.5-0.1,3-0.3,4.5c-0.3,1.9-0.9,3.8-1.7,5.5c-2.4,5.4-6.8,10-12.3,12.4
						c-0.1,0.1-0.3,0.1-0.4,0.2c-3.4,1.4-7,1.9-10.7,1.6c-1.5-0.1-3.1-0.4-4.6-0.8c-4.2-1.1-8.2-3.4-11.2-6.6
						c-4.8-5.1-7.1-12-8.6-18.9c-0.9-3.8-1.6-7.6-2.6-11.3c-0.7-2.8-2.7-6.1-2.7-8.9c0-2.7,2.9-4.5,4.8-6.1c3-2.5,6.2-4.9,9.7-6.7
						c5.7-2.9,12.6-4.3,18.7-2.3c4.8,1.6,8.7,5.1,11.6,9.2c0,0,0,0,0,0c2.9,4.1,4.8,8.8,6.6,13.5
						C533.9,295.1,535.6,299.9,535.7,304.9z"/>
				</g>
				<g>
					<path class="st8" d="M535.7,304.9c0,1.5-0.1,3-0.3,4.5c-0.3,1.9-0.9,3.8-1.7,5.5c-2.4,5.4-6.8,10-12.3,12.4c0,0,0-0.1,0-0.1
						c-0.2-1.2,1.6-2.2,2.3-3c2.2-2.3,3.8-5.1,4.9-8c0.2-0.6,0.4-1.1,0.6-1.7c0.5-1.5,0.8-3,1.1-4.5c0.3-1.5,0.4-3,0.4-4.5
						c0.3-8.8-2.4-17.5-5-25.9c-0.3-0.8-0.4-1.9-0.3-2.7c0,0,0,0,0,0c2.9,4.1,4.8,8.8,6.6,13.5C533.9,295.1,535.6,299.9,535.7,304.9
						z"/>
				</g>
				<g>
					<polygon class="st8" points="507.7,300.3 511.6,308.3 514.3,307 					"/>
				</g>
				<g>
					<ellipse transform="matrix(0.9 -0.436 0.436 0.9 -77.1968 257.3735)" class="st8" cx="522.2" cy="296.9" rx="6.7" ry="3.2"/>
				</g>
				<g>
					<path class="st3" d="M511.6,309.1c-0.3,0-0.6-0.2-0.8-0.5l-3.9-8c-0.2-0.4,0-0.9,0.4-1.1c0.4-0.2,0.9,0,1.1,0.4l3.5,7.2l2-1
						c0.4-0.2,0.9,0,1.1,0.4c0.2,0.4,0,0.9-0.4,1.1l-2.8,1.3C511.8,309.1,511.7,309.1,511.6,309.1z"/>
				</g>
				<g>
					<path class="st3" d="M518.5,319.8c-0.3,0-0.6-0.2-0.8-0.5c-0.2-0.4,0-0.9,0.4-1.1c1.9-0.9,3.4-2.6,4.1-4.6
						c0.7-2,0.6-4.2-0.4-6.1c-0.2-0.4,0-0.9,0.4-1.1c0.4-0.2,0.9,0,1.1,0.4c1.1,2.3,1.3,5,0.4,7.4c-0.8,2.4-2.6,4.4-4.9,5.5
						C518.7,319.8,518.6,319.8,518.5,319.8z"/>
				</g>
				<g>
					<path class="st3" d="M513.4,294.8c-0.1,0-0.1,0-0.2,0c-0.5-0.1-0.8-0.5-0.7-1c0.6-2.9,3.3-4.7,6.2-4.2c0.5,0.1,0.8,0.5,0.7,1
						c-0.1,0.5-0.5,0.8-1,0.7c-0.9-0.2-1.9,0-2.7,0.5c-0.8,0.5-1.3,1.3-1.5,2.3C514.1,294.6,513.7,294.8,513.4,294.8z"/>
				</g>
				<g>
					<path class="st3" d="M496.1,302.2c-0.1,0-0.3,0-0.4-0.1c-0.4-0.2-0.6-0.7-0.4-1.1c1.3-2.6,4.5-3.6,7.1-2.3
						c0.4,0.2,0.6,0.7,0.4,1.1c-0.2,0.4-0.7,0.6-1.1,0.4c-1.8-0.9-3.9-0.2-4.8,1.5C496.7,302.1,496.4,302.2,496.1,302.2z"/>
				</g>
				<g>
					<path class="st3" d="M508.8,273c5,3.4,10.6,5.7,16.5,6.8c2,0.4,3.6-1.5,3-3.5c-1.9-5.6-4.3-11-8.6-14.9
						c-3.8-3.4-9-5.3-14.2-5.1c-3.9,0.2-7.6,1.5-10.8,3.7c-3.3,2.4-7.4,3.6-11.5,3.1c-1.8-0.2-3.6-0.6-5.3-1.3
						c-1.5-0.6-3,0.9-2.3,2.4c1.1,2.4,2.7,4.5,4.8,6.1c-5.6,0.5-11.3-1.2-15.7-4.5c-2.1-1.6-5.1,0.1-4.8,2.8
						c0.6,6.4,3.1,12.6,7.4,17.3c6,6.5,15.6,9.8,24.2,7.4C499.9,290.9,509.3,281.9,508.8,273z"/>
				</g>
				<g>
					<path class="st9" d="M528.6,327.5c-0.1,0-0.1,0.1-0.2,0.1"/>
				</g>
				<g>
					<path class="st8" d="M506.8,301.5c-0.4-0.4-1-0.4-1.4,0c-0.1,0.1-1.9,2-3.5,4.7c-0.1,0.1-0.2,0-0.2-0.1
						c0.9-2.8,1.8-4.2,1.8-4.2c0.3-0.5,0.2-1.1-0.3-1.4c-0.5-0.3-1.1-0.2-1.4,0.3c-0.1,0.1-0.9,1.4-1.8,4.1c0,0.1-0.2,0.1-0.2-0.1
						c0.3-2.2,0.7-3.6,0.7-3.7c0.2-0.5-0.2-1.1-0.7-1.3c-0.5-0.2-1.1,0.2-1.3,0.7c0,0.1-0.7,2.5-1,5.7c0,0.1-0.2,0.1-0.2,0
						c0-1.4,0.1-2.3,0.1-2.3c0.1-0.6-0.3-1.1-0.8-1.2c-0.6-0.1-1.1,0.3-1.2,0.8c0,0.2-0.7,4.4,1,8.3c0,0.1,0.1,0.1,0.1,0.2
						c-3.3,5.1,4,4.7,3.9,1.9c0.3,0,0.6,0,0.8,0c0.1,0,0.3,0,0.4,0c4,0,6.1-2.7,6.7-4.2c0.2-0.5-0.1-1.1-0.6-1.3
						c-0.5-0.2-1.1,0.1-1.3,0.6c0,0-0.4,0.9-1.3,1.7c-1.3,1.1-3.2-0.4-2.4-1.9c1.7-3.3,4-5.8,4.1-5.8
						C507.2,302.6,507.2,301.9,506.8,301.5z"/>
				</g>
			</g>
			<g>
				<g>
					<path class="st7" d="M537.2,490.6l-2.1,0.5l-1,0.2l-4.9,1.2c-0.7-2.3-1.4-4.6-2.3-6.9c-0.3-0.8-1.2-2-0.9-2.8
						c0.3-0.7,1.5-1.5,2.1-1.9c0.8-0.5,1.9-0.7,2.8-0.4c0.2,0.1,0.3,0.1,0.4,0.2c0.2,0.1,0.3,0.2,0.5,0.4c0.3,0.3,0.6,0.6,0.9,1
						C534.7,484.7,536.3,487.6,537.2,490.6z"/>
				</g>
				<g>
					<path class="st8" d="M537.2,490.6l-2.1,0.5l-1,0.2c-0.5-0.1-0.9-0.2-1.3-0.5c-0.8-0.7-0.8-1.9-0.9-3c-0.2-2.1-1-3.7-1.9-5.5
						c-0.4-0.8,0.3-1.3,1.3-1.6c0.2,0.1,0.3,0.2,0.5,0.4c0.3,0.3,0.6,0.6,0.9,1C534.7,484.7,536.3,487.6,537.2,490.6z"/>
				</g>
				<g>
					<path class="st7" d="M592.5,495.1l-7.7,2.8c-0.9-2.3-1.9-4.5-3.1-6.6c-0.4-0.7-1.4-1.8-1.2-2.7c0.2-0.7,1.3-1.7,1.9-2.1
						c0.5-0.4,1.1-0.6,1.7-0.7c0.4-0.1,0.7-0.1,1.1,0c0.8,0.2,1.4,0.8,2,1.4c2.1,2.1,3.8,4.5,5.1,7.2
						C592.2,494.6,592.3,494.9,592.5,495.1z"/>
				</g>
				<g>
					<path class="st8" d="M592.1,494.4c-0.4,0.3-1,0.6-1.5,0.7c-1,0.3-2.1,0.6-2.9,0.1c-0.9-0.5-1.1-1.7-1.4-2.7
						c-0.6-2-1.7-3.4-2.9-5c-0.5-0.7-0.1-1.3,0.7-1.7c0.4-0.1,0.7-0.1,1.1,0c0.8,0.2,1.4,0.8,2,1.4
						C589.1,489.3,590.8,491.7,592.1,494.4z"/>
				</g>
				<g>
					<path class="st3" d="M585.3,483.2c-9.3-14.8-32.3-29.6-36.2-46.5c-2.6-11.1,31-26.1,38.5-52.7l-23.5,0c-1.1,2.3-2,4.7-2.9,7
						c-1.8-1.3-4.1-2.2-6.3-2.6c-2.6-0.5-5.4-0.5-8,0.1c2.6-4,5.5-7.8,8.7-11.5l-19.1,0c-13.9,17.9-40.7,38.2-41.8,58.2
						c-0.9,15.4,13.9,27.5,27.6,45.5c1.7,2.3,3.8,4.1,6.4,3c2.2-0.9,3.7-3.5,2.7-5.7c-8-17.6-23-23.8-22.8-41.1
						c0.2-15.8,18.6-26.8,27-36.8c1.3-0.3,6.8,0.4,7.4,0.4c2.5-0.1,10.7,0.5,13.1,1.3c2.4,0.8-24.8,22-22.8,34.5
						c3,19,28.2,34.9,43.8,51.6c1.9,2.1,4.7,3.1,6.9,1.4l0,0C585.9,487.9,586.6,485.2,585.3,483.2z"/>
				</g>
				<g>
					<path class="st6" d="M595.5,503.4c-1.6,1.3-3.6,2-5.4,2.8c-2,1-3.9,1.9-6,2.7c-0.7,0.3-1.3,0.5-2,0.7c-0.6,0.1-1.5,0.2-2.5,0.3
						c-4.2,0.2-10.9,0-10.9,0c-1.3,0.3-2.6-0.6-2.9-1.9c-0.8-3.7,1-7.4,4.1-9.5c1-0.7,2-1.1,3.1-1.4c2.9-0.7,6-0.2,9.1-0.8
						c2.3-0.5,3.9-1.9,5.9-2.9c2.3-1.2,5.2-0.9,7.2,0.5c1.1,0.8,1.9,1.9,2.2,3.4l0.1,0.5C598,499.9,597.2,502.1,595.5,503.4z"/>
				</g>
				<g>
					<path class="st6" d="M540.7,497.5c-1.3,1.5-3.2,2.6-4.8,3.8c-1.7,1.3-3.5,2.7-5.3,3.8c-0.6,0.4-1.2,0.8-1.9,1
						c-0.6,0.2-1.4,0.5-2.4,0.7c-4.1,1.1-10.7,2.1-10.7,2.1c-1.3,0.5-2.7-0.1-3.2-1.3c-1.5-3.5-0.4-7.5,2.2-10.1
						c0.8-0.9,1.8-1.5,2.7-1.9c2.7-1.3,5.8-1.3,8.8-2.5c2.1-0.9,3.5-2.6,5.2-4c2-1.6,4.9-1.9,7.2-0.9c1.2,0.6,2.3,1.5,2.8,2.9
						l0.2,0.5C542.4,493.6,542.1,495.9,540.7,497.5z"/>
				</g>
				<g>
					<path class="st2" d="M595.5,503.4c-1.6,1.3-3.6,2-5.4,2.8c-2,1-3.9,1.9-6,2.7c-0.7,0.3-1.3,0.5-2,0.7c-0.6,0.1-1.5,0.2-2.5,0.3
						c0.2-0.1,0.4-0.2,0.6-0.3c1.7-0.9,3.4-2,4.9-3.3c3-2.5,5.6-5.6,7.3-9.1c0.5-0.9,0.9-1.8,1.6-2.6c0.3-0.3,0.7-0.6,1.2-0.8
						c1.1,0.8,1.9,1.9,2.2,3.4l0.1,0.5C598,499.9,597.2,502.1,595.5,503.4z"/>
				</g>
				<g>
					<path class="st2" d="M540.7,497.5c-1.3,1.5-3.2,2.6-4.8,3.8c-1.7,1.3-3.5,2.7-5.3,3.8c-0.6,0.4-1.2,0.8-1.9,1
						c-0.6,0.2-1.4,0.5-2.4,0.7c0.2-0.1,0.3-0.2,0.5-0.4c1.5-1.2,2.9-2.6,4.2-4.1c2.5-3,4.4-6.6,5.5-10.4c0.3-1,0.5-2,1.1-2.8
						c0.3-0.4,0.6-0.8,1-1c1.2,0.6,2.3,1.5,2.8,2.9l0.2,0.5C542.4,493.6,542.1,495.9,540.7,497.5z"/>
				</g>
			</g>
			<g>
				<g>
					<path class="st7" d="M626.7,278.8c-0.2-0.6-0.8-0.9-1.4-0.7c-0.2,0.1-2.8,0.9-5.7,2.7c-0.1,0.1-0.3-0.1-0.2-0.2
						c2.3-2.3,3.8-3.2,3.9-3.2c0.5-0.3,0.7-1,0.4-1.5c-0.3-0.5-1-0.7-1.5-0.4c-0.1,0.1-1.6,0.9-3.8,3c-0.1,0.1-0.3,0-0.2-0.2
						c1.4-1.9,2.5-3.1,2.5-3.2c0.4-0.4,0.4-1.1,0-1.6c-0.4-0.4-1.1-0.4-1.6,0c-0.1,0.1-1.9,2-3.8,5c-0.1,0.1-0.3,0-0.2-0.1
						c0.7-1.3,1.3-2.2,1.3-2.2c0.4-0.5,0.3-1.2-0.2-1.5c-0.5-0.4-1.2-0.3-1.5,0.2c-0.1,0.2-2.9,3.9-3.2,8.5c0,0.1,0,0.1,0,0.2
						c-5.7,3.3-20.5,13.1-25.3,16.2c-8.8,5.6-11.9,7.8-20,14.4c-3,2.4-6.9,4.9-9.1,8.2c-1.8,2.7-2.9,6.8-3.7,9.9
						c10.1-5.4,14.3-9,23.5-15.9c2.3-1.8,36-26.3,37.4-29c0.2,0.1,0.6,0.3,0.7,0.4c0.1,0.1,0.3,0.2,0.4,0.2c3.8,2,7.2,0.5,8.6-0.7
						c0.5-0.4,0.5-1.1,0.1-1.6c-0.4-0.5-1.1-0.5-1.6-0.1c0,0-0.8,0.7-2,1c-1.8,0.5-2.9-2-1.4-3.1c3.3-2.3,6.8-3.5,6.8-3.6
						C626.6,280,626.9,279.4,626.7,278.8z"/>
				</g>
				<g>
					<path class="st2" d="M604.9,286.5c0.8-0.6,1.5-1.3,2.3-1.9c0.7-0.6,1.5-1.2,2.5-1.2c1.2,0,2.1,1.1,2.8,2c0.8,1,1.6,2.1,1.5,3.4
						c-0.1,1.3-1.1,2.2-2,3.1c-1.3,1.2-2.6,2.4-3.9,3.6L604.9,286.5z"/>
				</g>
				<g>
					<path class="st6" d="M587.7,383.5c-1.1,2.1-3.2,3.4-5.3,4.5c-0.3,0.2-0.6,0.3-0.9,0.5c-0.3,0.1-0.6,0.3-0.9,0.4
						c-0.1,0-0.2,0.1-0.3,0.1c-13.5,6.3-32.8,7.3-47.7,3.4c-1.3-0.3-2.3-0.5-3.5-1.1c-1.2-0.6-2-2-2.2-3.3c-0.2-1.4,0-2.8,0.2-4.1
						l57.8-12.5c0.8,1.2,1.6,2.5,2.2,3.7c0.1,0.3,0.3,0.6,0.4,0.8c0,0.1,0.1,0.2,0.1,0.3c0.1,0.3,0.2,0.6,0.3,0.9
						C588.6,379.1,588.7,381.5,587.7,383.5z"/>
				</g>
				<g>
					<path class="st2" d="M493,314.9c0.3-1.1,1.5-1.8,2.6-1.9c1.1-0.1,2.3,0.3,3.3,0.7c0.9,0.3,1.8,0.7,2.3,1.5
						c0.5,0.9,0.3,2.1-0.3,2.9c-0.6,0.9-1.5,1.4-2.3,2L493,314.9z"/>
				</g>
				<g>
					<path class="st2" d="M587.7,383.5c-1.1,2.1-3.2,3.4-5.3,4.5c-0.3,0.2-0.6,0.3-0.9,0.5c-0.3,0.1-0.6,0.3-0.9,0.4
						c-0.1,0-0.2,0.1-0.3,0.1c-0.8-1.9-0.1-4.1,0.8-5.9c1.4-3,2-8,6-8.1c0.1,0.3,0.3,0.6,0.4,0.8c0,0.1,0.1,0.2,0.1,0.3
						c0.1,0.3,0.2,0.6,0.3,0.9C588.6,379.1,588.7,381.5,587.7,383.5z"/>
				</g>
				<g>
					<path class="st4" d="M610.8,293.6c-0.1,0.2-0.1,0.3-0.2,0.5c-0.2,0.4-0.4,0.7-0.6,1.1c-0.6,0.8-1.2,1.6-2,2.3
						c-0.6,0.6-1.2,1.1-1.9,1.6c-0.7,0.6-1.4,1.1-2.2,1.7c-1.7,1.3-3.3,2.5-4.9,3.6c-6.6,4.9-12.6,9.2-19.6,14.4
						c-4.2,3.1-2.2,2.1-5.8,5.2c-2.8,2.4-5.7,4.9-9.2,7.7c-0.7,0.6-1.4,1.2-2.2,1.8c-0.6,0.5-1.2,1-1.8,1.4
						c-0.9,0.7-3.4,2.8-4.4,3.7c0,0,0,0,0,0c-0.2,0.1-0.3,0.3-0.4,0.3c-0.1,0-0.1,0.1-0.1,0.1c0,0,0,0,0,0c0.2,0.1,0.3,0.2,0.5,0.3
						c12.7,6.6,24,11.8,32.5,28.5c3.5,6.9-4.5,13-9.7,16c-7.9,4.5-16.8,5.7-25.7,6.8c-6.5,0.8-13,0.8-19.5,0.2
						c-4.2-0.4-7.6-3.1-8.2-6.9c-0.1-0.5-0.1-1.1-0.1-1.7c0,0,0-0.1,0-0.1c0.8-9.1-0.6-10.9-3.6-14c0,0,0,0,0,0
						c-0.9-1-2-2.2-3.3-3.7c-1.4-1.8-3.1-4.1-4.9-7c-4.3,1.6-12,8.4-18.5,10.3c-5,1.5-11.4,2.1-15.6-1.8c-3.7-3.4-5.6-8.6-5.3-13.6
						c0.4-8,8.3-21.6,11.1-29.1c1.2-3.3,4.1-7.1,7.4-8.2c1.8-0.6,3.6-0.4,5.4,0.3c3.1,1.1,3.9,4.7,2.3,7.6
						c-3.7,6.9-11.2,17.5-12,24.6c0,0,0,0,0,0.1c0,0.2,0,0.4-0.1,0.6c0,0.8,0,1.5,0.2,2.2c0.1,0.4,0.2,0.6,0.4,0.8
						c0.1,0.1,0.1,0.1,0.2,0.1c1.9,1.4,7.3-2.3,10.7-4.7c5-3.6,8.8-7.9,14-10.9c0.6-0.3,1.1-0.6,1.7-0.9c0.1-0.1,0.2-0.1,0.4-0.2
						c0.1-0.1,0.3-0.1,0.4-0.2c0,0,0,0,0,0c0.2-0.1,0.5-0.2,0.7-0.3c0.4-0.2,0.8-0.4,1.2-0.5c1.5-0.6,2.8-1,3.2-0.7
						c1.3,0.9,2.7,1.4,4.1,1.6c1.3,1,2.3,2,3.8,0.3c0.4-0.5,0.8-1.1,1.1-1.7c1.7-1.4,2.3-3.4,2.3-3.4s10-6.6,15.7-9.3
						c1.9-0.9,3.9-1.8,5.8-2.6c2.4-1.1,4.8-2.1,7.2-3.3c0.5-0.3,1-0.5,1.6-0.8c5.3-2.9,12.9-8.2,14.5-9.5
						c7.2-6.2,13.6-12.1,22.1-17.4c2.7-1.7,6.2-3.3,9.1-1.8C611.5,286.3,612.2,290.6,610.8,293.6z"/>
				</g>
				<g>
					<g>
						<path class="st5" d="M610.8,293.6c-0.1,0.2-0.1,0.3-0.2,0.5c-0.1-0.5-0.3-1-0.6-1.5c-1.1-2.2-3.8-3.2-6.2-3s-4.7,1.3-6.8,2.6
							c-6.2,3.7-11.6,8.5-17.3,12.9c-4.2,3.2-8.6,6.1-13.5,8c-1.2,0.5-3.6,1.8-4.8,1.3c0.5-0.3,1-0.5,1.6-0.8
							c5.3-2.9,12.9-8.2,14.5-9.5c7.2-6.2,13.6-12.1,22.1-17.4c2.7-1.7,6.2-3.3,9.1-1.8C611.5,286.3,612.2,290.6,610.8,293.6z"/>
					</g>
					<g>
						<path class="st5" d="M586.8,376.9c-0.4,0.4-0.8,0.8-1.2,1.2c-0.3-0.3-0.5-0.5-0.7-0.8c-1.4-1.9-1.8-4.3-2.4-6.6
							c-2.3-8.6-8.1-16.3-15.8-20.9c-2.1-1.3-4.4-2.3-6.5-3.7c-3.1-2.2-4.8-7-4.8-7c0,0,0,0,0,0c0.2,0.1,0.3,0.2,0.5,0.3
							c12.7,6.6,24,11.8,32.5,28.5C589.9,370.9,589.1,374.5,586.8,376.9z"/>
					</g>
					<g>
						<path class="st5" d="M509.9,342.2c-5.3,3.2-10.6,6.3-15.9,9.5c-1,0.6-2,1.2-3.1,1c-1.3-0.2-1.9-0.7-2-1.5
							c0.1,0.1,0.1,0.1,0.2,0.1c1.9,1.4,7.3-2.3,10.7-4.7c5-3.6,8.8-7.9,14-10.9c0.7,0.3,1.2,0.7,1.3,1.1
							C515.3,338.7,511.5,341.3,509.9,342.2z"/>
					</g>
				</g>
				<g>
					<path class="st5" d="M537.1,383.2c-1.6,1.2-3.8,1.7-5.8,1.7c-2,0-4-0.3-5.9-1c-0.1-0.5-0.1-1.1-0.1-1.7c0,0,0-0.1,0-0.1
						c0.8-9.1-0.6-10.9-3.6-14c2.7,1.9,5.7,3.4,8.9,4.3c1.7,0.5,3.5,0.8,5.1,1.6c1.6,0.8,3.1,2.1,3.5,3.9
						C539.8,379.8,538.7,382,537.1,383.2z"/>
				</g>
			</g>
		</g>
	</g>
	<g>
		<path id="XMLID_633_" class="st10" d="M80.8,381.5c0,0-3.8,3.8,3.7,10.6c7.6,6.8,4.8-10.6,4.8-10.6l-6.5-1.9L80.8,381.5z"/>
		<path id="XMLID_632_" class="st11" d="M170.9,434.7c-5.4-6.1-18.1-18.8-38.9-25.1c-15.6-4.7-34.8-27.3-34.8-27.3
			s-24.7,2.8-16.2,30.8c8.5,28,2.3,31.7-1.3,39.9c-2.7,6.4-6.3,19.1-9.3,25.6c-0.1,0.2-0.1,0.4-0.1,0.7c0,1.2,0.1,1.8,0.7,2.9
			c0.3,0.6,0.8,1.2,1.4,1.6l0,0c-0.1,0,5.7,4.5,6.7,3.8c7.8-5.8,25.8-26.8,28.2-29.5c3-3.3,6.9-26.8,6.9-26.8s11.9,9,26.5,11.7
			c0,0-11,12.2-15.6,14.7c-1.9,1.1-4.5,2.6-7.1,4c0.9,2.4,1.4,4.8,2.1,7.3c9.9-2.1,34.1-11.6,43.6-17.2c3.2-1.9,5.5-3.6,7.1-5.3
			C170.9,446.5,171,434.8,170.9,434.7z"/>
		<path class="st12" d="M131.9,409.6c-5.8-1.7-12-5.9-17.6-10.5v32.3c1.4,1,12.7,9.1,26.4,11.6c0,0-11,12.2-15.6,14.7
			c-1.9,1.1-4.5,2.6-7.1,4c0.9,2.4,1.4,4.8,2.1,7.3c9.9-2.1,34.1-11.6,43.6-17.2c3.2-1.9,5.5-3.6,7.1-5.3c0,0,0.1-11.7,0-11.8
			C165.5,428.6,152.8,415.9,131.9,409.6z"/>
		<ellipse id="XMLID_631_" class="st13" cx="245.5" cy="500" rx="179.2" ry="8.5"/>
		<g id="XMLID_557_">
			<g id="XMLID_558_">
				<g id="XMLID_624_">
					<path id="XMLID_630_" class="st14" d="M291.9,386.9l-14.3-6.1c-3.3-1.4-4.8-5.2-3.4-8.5l15.2-35.8c1.4-3.3,5.2-4.8,8.5-3.4
						l14.3,6.1c3.3,1.4,4.8,5.2,3.4,8.5l-15.2,35.8C298.9,386.7,295.1,388.3,291.9,386.9z"/>
					
						<rect id="XMLID_629_" x="281.8" y="340.1" transform="matrix(0.9201 0.3917 -0.3917 0.9201 164.4353 -86.8461)" class="st15" width="26.5" height="38.8"/>
					<path id="XMLID_627_" class="st16" d="M305.7,340.9l-5.4-2.3c-0.2-0.1-0.3-0.3-0.2-0.5l0,0c0.1-0.2,0.3-0.3,0.5-0.2l5.4,2.3
						c0.2,0.1,0.3,0.3,0.2,0.5l0,0C306.1,340.9,305.9,341,305.7,340.9z"/>
					
						<ellipse id="XMLID_626_" transform="matrix(0.3917 -0.9201 0.9201 0.3917 -176.3003 494.752)" class="st16" cx="286" cy="380.7" rx="2.3" ry="2.3"/>
					<polygon id="XMLID_625_" class="st17" points="290.5,336.5 299.6,382.6 314.8,346.9 					"/>
				</g>
				<g id="XMLID_618_">
					<path id="XMLID_623_" class="st14" d="M244.6,364.8l-32.9,10c-4.3,1.3-8.9-1.1-10.2-5.5L184,311.7c-1.3-4.3,1.1-8.9,5.5-10.2
						l32.9-10c4.3-1.3,8.9,1.1,10.2,5.5l17.4,57.5C251.4,358.9,248.9,363.4,244.6,364.8z"/>
					
						<rect id="XMLID_622_" x="193.4" y="303" transform="matrix(0.957 -0.29 0.29 0.957 -87.4177 77.3881)" class="st15" width="48.1" height="61.4"/>
					
						<ellipse id="XMLID_621_" transform="matrix(0.957 -0.29 0.29 0.957 -96.4953 81.675)" class="st16" cx="227.3" cy="366.4" rx="2.3" ry="2.3"/>
					<path id="XMLID_620_" class="st16" d="M210,299.8l-5.6,1.7c-0.2,0.1-0.4-0.1-0.5-0.2l0,0c-0.1-0.2,0.1-0.4,0.2-0.5l5.6-1.7
						c0.2-0.1,0.4,0.1,0.5,0.2l0,0C210.3,299.5,210.2,299.7,210,299.8z"/>
					<polygon id="XMLID_619_" class="st17" points="185.5,311.3 249.3,356.1 231.5,297.3 					"/>
				</g>
				<rect id="XMLID_617_" x="170.9" y="377" class="st18" width="116.8" height="120.5"/>
				<rect id="XMLID_616_" x="207.7" y="377" class="st19" width="116.8" height="120.5"/>
				<rect id="XMLID_609_" x="256" y="377" class="st20" width="18.2" height="120.5"/>
				<polygon id="XMLID_608_" class="st21" points="341.6,415.6 224.9,415.6 207.7,377 324.5,377 				"/>
				<polygon id="XMLID_607_" class="st21" points="151.1,415.6 190.6,415.6 207.7,377 168.3,377 				"/>
				<g id="XMLID_592_">
					<g id="XMLID_605_">
						<path id="XMLID_606_" class="st22" d="M305.9,290.6l-3.6-0.9l5.8-24.2c4.3-18-6.9-36.1-24.9-40.4c-18-4.3-36.1,6.9-40.4,24.9
							l-5.8,24.2l-3.6-0.9l5.8-24.2c4.8-20,24.9-32.4,44.9-27.6c20,4.8,32.4,24.9,27.6,44.9L305.9,290.6z"/>
					</g>
					<g id="XMLID_603_">
						<path id="XMLID_604_" class="st14" d="M248.2,296.3c-9.6-2.3-15.5-11.9-13.3-21.6c2.3-9.6,11.9-15.5,21.6-13.3"/>
					</g>
					<g id="XMLID_601_">
						<path id="XMLID_602_" class="st23" d="M247.7,298.9L247.7,298.9c-1.6-0.4-2.5-2-2.2-3.5l8-33.5c0.4-1.6,2-2.5,3.5-2.2l0,0
							c1.6,0.4,2.5,2,2.2,3.5l-8,33.5C250.9,298.3,249.3,299.3,247.7,298.9z"/>
					</g>
					<g id="XMLID_599_">
						
							<ellipse id="XMLID_600_" transform="matrix(0.2321 -0.9727 0.9727 0.2321 -84.9204 439.1234)" class="st14" cx="235.7" cy="273.3" rx="4.2" ry="4.2"/>
					</g>
					<g id="XMLID_597_">
						<path id="XMLID_598_" class="st14" d="M281.1,304.2c9.6,2.3,19.3-3.6,21.6-13.3c2.3-9.6-3.6-19.3-13.3-21.6"/>
					</g>
					<g id="XMLID_595_">
						<path id="XMLID_596_" class="st23" d="M280.3,306.7L280.3,306.7c1.6,0.4,3.2-0.6,3.5-2.2l8-33.5c0.4-1.6-0.6-3.2-2.2-3.5l0,0
							c-1.6-0.4-3.2,0.6-3.5,2.2l-8,33.5C277.8,304.7,278.7,306.3,280.3,306.7z"/>
					</g>
					<g id="XMLID_593_">
						
							<ellipse id="XMLID_594_" transform="matrix(0.2321 -0.9727 0.9727 0.2321 -49.0514 516.5185)" class="st14" cx="302.6" cy="289.3" rx="4.2" ry="4.2"/>
					</g>
				</g>
				<g id="XMLID_588_">
					
						<rect id="XMLID_591_" x="205.1" y="247" transform="matrix(0.8938 0.4485 -0.4485 0.8938 134.6752 -66.9336)" class="st22" width="7.2" height="7.8"/>
					<path id="XMLID_590_" class="st14" d="M198,272.1L198,272.1c-2.6-1.3-3.7-4.5-2.4-7.1l6.8-13.5l9.4,4.7l-6.8,13.5
						C203.8,272.3,200.6,273.4,198,272.1z"/>
					<path id="XMLID_589_" class="st23" d="M200.1,268L200.1,268c-1.2-0.6-1.7-2-1.1-3.2l4.4-8.7l4.3,2.2l-4.4,8.7
						C202.7,268.1,201.3,268.6,200.1,268z"/>
				</g>
				<g id="XMLID_559_">
					
						<rect id="XMLID_587_" x="208.6" y="291.7" transform="matrix(0.9585 -0.2852 0.2852 0.9585 -74.673 72.0923)" class="st22" width="3.2" height="1.4"/>
					<g id="XMLID_577_">
						<g id="XMLID_585_">
							<path id="XMLID_586_" class="st14" d="M249.1,192.7L249.1,192.7c3.6,4.7,2.8,11.5-1.9,15.1l-8.4,6.5
								c-4.7,3.6-11.5,2.8-15.1-1.9l0,0c-3.6-4.7-2.8-11.5,1.9-15.1l8.4-6.5C238.6,187.1,245.4,188,249.1,192.7z"/>
						</g>
						<g id="XMLID_583_">
							
								<rect id="XMLID_584_" x="231.4" y="195.5" transform="matrix(0.7883 -0.6152 0.6152 0.7883 -77.8351 186.2003)" class="st24" width="0.5" height="21.5"/>
						</g>
						<g id="XMLID_578_">
							
								<rect id="XMLID_582_" x="222.6" y="209.1" transform="matrix(0.7882 -0.6154 0.6154 0.7882 -80.6025 184.4733)" class="st24" width="10.1" height="0.5"/>
						</g>
					</g>
					<g id="XMLID_561_">
						<path id="XMLID_562_" class="st14" d="M209.2,290.7c0-0.1-3.6-9.4,7.7-20.7c11.9-11.9,11-29.9,5-41.5
							c-6.5-12.8,2.7-18.6,2.8-18.6l0.3,0.4c-0.4,0.2-8.9,5.6-2.6,18c6,11.8,7,30-5.1,42.1c-11,11-7.6,20-7.6,20.1L209.2,290.7z"/>
					</g>
					
						<rect id="XMLID_560_" x="207.7" y="289.1" transform="matrix(0.9561 -0.293 0.293 0.9561 -75.9556 74.1641)" class="st14" width="3.9" height="3.2"/>
				</g>
			</g>
		</g>
		<path id="XMLID_555_" class="st25" d="M157.8,354c1.3,3.6,3.2,7.2,7.3,8.6c0.8,0.3,1.6-0.1,2-0.8c1.5-2.1,1.3-2.2,2.8-3.1
			c3.1-1.8,8.2,4.7,14.9,4c6.6-0.8,21.9-15.1,17.5-25.1c-4.4-9.9-13.3-14.5-24.7-4.7c-9.8,8.5-12.1,11.8-18,15.2
			C157.9,349.1,157.2,352.1,157.8,354z"/>
		<path id="XMLID_494_" class="st26" d="M190,375.7l-3.1-5l-35.1,0.6l0,0c-3,0.1-6.4,3.5-6.4,7.3c-0.1,3.9,3.3,6.7,6.5,6.7
			c0.2,0,2.6-0.5,2.8-0.6l-2.2,0.5l2.6-0.6c0.2,0,0.5-0.1,0.7-0.2L190,375.7z"/>
		<g id="XMLID_488_">
			<path id="XMLID_493_" class="st14" d="M119.6,463l-5.2,1.6c-1.2,0.7-2.3,4.4-1.5,5.6l1.3,1.9l9.3-5.5L119.6,463z"/>
			<path id="XMLID_489_" d="M114.3,464.6c0,0-4.2-2.1-6.9-0.2c-2.7,2,5,22.9,5,22.9s0.7,0.7,0.9-0.9l1.2-11c0,0,1.2-4.8,0.3-6.9
				C114,466.8,114.3,464.6,114.3,464.6z"/>
		</g>
		<g id="XMLID_484_">
			<path id="XMLID_486_" class="st14" d="M72.6,479.8l-3.3,8.5c-0.3,1.4,3.1,4.1,4.5,4.3l2.2,0.4l2.6-10.5L72.6,479.8z"/>
			<path id="XMLID_485_" d="M69.3,488c0,0-3.6,3-2.9,6.3c0.7,3.3,22.9,4.7,22.9,4.7s0.9-0.4-0.4-1.2l-9.6-5.5c0,0-3.9-3.1-6.2-3.1
				C71.2,489.2,69.3,488,69.3,488z"/>
		</g>
		<path id="XMLID_483_" class="st23" d="M141.2,345.4c-16.8,1.5-45.1,5.9-61.4,37.5c0,0,13.2,3.1,32.3,19.5s32.9,10.1,41.2,1.8
			c6.1-6.2,11.2-20.5,14.4-31.1c2.3-7.7,0.4-16-4.9-22l0,0C157.1,344.7,149.7,344.6,141.2,345.4z"/>
		<polygon id="XMLID_481_" class="st25" points="151.9,365 143.9,385.4 157.6,383.9 163.7,372 		"/>
		<circle id="XMLID_480_" class="st25" cx="176.5" cy="334.7" r="5.6"/>
		<polygon id="XMLID_479_" class="st27" points="196.8,346.1 193.9,357 188.5,353.8 		"/>
		
			<ellipse id="XMLID_466_" transform="matrix(0.7194 -0.6946 0.6946 0.7194 -186.7203 230.9268)" class="st28" cx="192.5" cy="346.6" rx="1.2" ry="0.7"/>
		
			<ellipse id="XMLID_465_" transform="matrix(0.7194 -0.6946 0.6946 0.7194 -189.0769 235.6665)" class="st28" cx="197.1" cy="351.8" rx="1.2" ry="0.7"/>
		<path id="XMLID_463_" class="st28" d="M181.1,330.4c0,0-4.1,8.8-0.7,10c3.4,1.2,7,4.8,6.9,8.6c-0.1,3.7-0.7,8,5.1,9.9
			c0,0-2.2,7.2-12,5.9c-9.8-1.4-16.5-13.6-7.8-26L181.1,330.4z"/>
		<g id="XMLID_456_">
			<g id="XMLID_460_">
				<path id="XMLID_462_" class="st29" d="M184.6,353.3c0,0,0.4-1.4,0.2-2.5c-0.2-1.1-0.9-2-2.3-1.9c-1.4,0.1-2.1,1.7-2.5,3.4
					c-0.3,1.1,0,4.4,1.2,5.9c1.2,1.5,2.1,2.3,3.4,2.4c1.3,0.1,2.2-1.1,2.3-2.1c0.1-1-0.6-1.8-1-2.2
					C185.4,355.9,184.3,355.1,184.6,353.3z"/>
			</g>
			<g id="XMLID_457_">
				<path id="XMLID_459_" class="st10" d="M180.6,350.5c0,0,1.1,1.1,1.3,3.2c0.2,2.1-0.4,3.1-1,4.1c0,0-1.2-2.1-1-4.5
					C180,351.4,180.6,350.5,180.6,350.5z"/>
			</g>
		</g>
		<path id="XMLID_449_" class="st28" d="M185.7,328.1c0,0,11.5-1.7,11.5,12.2c0,13.9,18,12.7,19.6-1.8c1.3-12.2-11.5-15.1-16.8-12.1
			c-1.2,0.7-2.7,0.8-4.1,0.2C193.8,325.8,190.3,325.3,185.7,328.1z"/>
		
			<linearGradient id="XMLID_6_" gradientUnits="userSpaceOnUse" x1="245.0998" y1="-16194.9775" x2="245.0998" y2="-16026.2744" gradientTransform="matrix(1 0 0 -1 0 -15818)">
			<stop  offset="0.2211" style="stop-color:#FFFFFF;stop-opacity:0"/>
			<stop  offset="1" style="stop-color:#FFFFFF"/>
		</linearGradient>
		<polygon id="XMLID_447_" class="st30" points="324.6,377 368.2,208.3 122,208.3 168.3,377 		"/>
		<path id="XMLID_444_" class="st25" d="M186.6,376.2l-1.1-5.3l-37.1,9.4l0,0c-2.9,0.8-5.4,4.8-4.6,8.6c0.8,3.8,4.7,5.8,7.8,5.2
			c0.2,0,2.4-1.1,2.6-1.1l-2.1,1l2.4-1.1c0.2-0.1,0.5-0.2,0.7-0.3L186.6,376.2z"/>
		<path id="XMLID_439_" class="st25" d="M186.6,376.2l1.2,0.8l8.5,0c-0.2-0.5-0.5-1-0.9-1.5l-1.7-2c-0.5-0.5-1-1-1.6-1.4l-1.1-0.6
			c-1.2-0.7-2.6-1-4-0.8l-1.5,0.2L186.6,376.2z"/>
	</g>
	<g id="XMLID_424_" class="st31">
		<path id="XMLID_436_" class="st14" d="M335.2,74.8h57.9c0,0-2.9-7.1-6.5-7.3c-3.6-0.3-4.6,1.9-5.8,1.7c-1.2-0.2-3-6-7.7-6.3
			c-4.6-0.3-6.4,4-9,4.8c-2.5,0.8-7.5,0.3-11.4-6c-3.9-6.3-11.3,0.5-11.5,5.4c-0.3,7.5-11.7,3.4-11.7,7.7H335.2z"/>
		<path id="XMLID_427_" class="st32" d="M468.1,175.2h-57.9c0,0,2.9-7.2,6.5-7.5c3.6-0.3,4.6,1.8,5.8,1.6c1.2-0.2,3-6,7.7-6.3
			c4.6-0.3,6.4,4,9,4.8c2.5,0.8,7.5,0.3,11.4-6c3.9-6.3,11.3,0.7,11.5,5.6c0.3,7.5,11.7,3.6,11.7,7.9H468.1z"/>
		<path id="XMLID_425_" class="st14" d="M209,154.7h-57.9c0,0,2.9-7.1,6.5-7.3c3.6-0.3,4.6,1.9,5.8,1.7c1.2-0.2,3-6,7.7-6.3
			c4.6-0.3,6.4,4,9,4.8c2.5,0.8,7.5,0.3,11.4-6c3.9-6.3,11.3,0.5,11.5,5.4c0.3,7.5,11.7,3.4,11.7,7.7H209z"/>
	</g>
</g>
</svg>
