<?xml version="1.0" encoding="utf-8"?>
<!-- Generator: Adobe Illustrator 21.0.0, SVG Export Plug-In . SVG Version: 6.00 Build 0)  -->
<svg version="1.1" id="Layer_1" xmlns="http://www.w3.org/2000/svg" xmlns:xlink="http://www.w3.org/1999/xlink" x="0px" y="0px"
	 viewBox="0 0 808 800" style="enable-background:new 0 0 808 800;" xml:space="preserve">
<style type="text/css">
	.st0{fill:url(#SVGID_1_);}
	.st1{fill:#F4C74A;}
	.st2{fill:#FBB03B;}
	.st3{font-family:'SpicyRice-Regular';}
	.st4{font-size:127.3244px;}
	.st5{fill:#1D1D1B;}
	.st6{fill:#FFCB9C;}
	.st7{fill:#1E223F;}
	.st8{fill:#FFFFFF;}
	.st9{fill:#DADADA;}
	.st10{fill:#292B51;}
	.st11{fill:#EFEFEF;}
	.st12{fill:#B2B2B2;}
	.st13{fill:#706F6F;}
	.st14{fill:#FFBB83;}
	.st15{fill:#FF6252;}
	.st16{fill:#C6C6C6;}
	.st17{fill:none;stroke:#C6C6C6;stroke-width:0.3;stroke-miterlimit:10;}
	.st18{opacity:0.54;fill:#FF6252;}
	.st19{fill:none;stroke:#1D1D1B;stroke-miterlimit:10;}
	.st20{opacity:0.3;}
	.st21{fill:#FFFFFF;stroke:#FFFFFF;stroke-miterlimit:10;}
</style>
<g>
	<linearGradient id="SVGID_1_" gradientUnits="userSpaceOnUse" x1="466.4226" y1="669.483" x2="465.1243" y2="118.6993">
		<stop  offset="9.732377e-02" style="stop-color:#4A69BD"/>
		<stop  offset="0.3504" style="stop-color:#368BAF"/>
		<stop  offset="0.6011" style="stop-color:#27A6A5"/>
		<stop  offset="0.8239" style="stop-color:#1DB69E"/>
		<stop  offset="0.9959" style="stop-color:#1ABC9C"/>
	</linearGradient>
	<path class="st0" d="M741.4,475.1C741.4,591,581,625,450.9,625c-135.9,0-260.3-10.2-260.3-143.1S279.8,171,415.7,171
		S741.4,393,741.4,475.1z"/>
	<path class="st1" d="M190.6,481.9c0-132.2,88.3-309,223.1-310.8c-0.5,0-1.1,0-1.6,0c-180.1,0-260.3,183.4-260.3,313.7
		S276.1,625,412,625c4.8,0,9.6,0,14.4-0.1C300.4,623.3,190.6,606.7,190.6,481.9z"/>
</g>
<g>
	<text transform="matrix(1 0 0 1 262.5664 592.8545)" class="st2 st3 st4">LOG IN</text>
</g>
<g id="XMLID_1627_">
	<circle id="XMLID_1712_" class="st5" cx="404" cy="339.1" r="6.6"/>
	<circle id="XMLID_1711_" class="st5" cx="405.8" cy="350.2" r="6.6"/>
	<circle id="XMLID_1710_" class="st5" cx="405" cy="358.2" r="6.6"/>
	<circle id="XMLID_1709_" class="st5" cx="367.5" cy="364.8" r="6.6"/>
	<path id="XMLID_1708_" class="st6" d="M406.6,362.8c-2.1,7.4-5.5,13.7-17.9,16.1c0,0-7.1,4.4-7.3,12.8c-0.2,8.3-21.8,2.7-15.9-7.5
		c5.8-10.2,3.4-24.1,1.1-32.2c-2.3-8.1,2.9-22.7,13.1-25.5c4-1.1,12.7,1.9,17.7,6C406,339.6,409.6,352,406.6,362.8z"/>
	
		<ellipse id="XMLID_1707_" transform="matrix(9.419991e-02 -0.9956 0.9956 9.419991e-02 16.0277 717.0856)" cx="402.1" cy="349.7" rx="1.6" ry="1.1"/>
	
		<ellipse id="XMLID_1706_" transform="matrix(9.423656e-02 -0.9955 0.9955 9.423656e-02 8.227 700.4252)" cx="389" cy="345.7" rx="1.6" ry="1.1"/>
	<g id="XMLID_1701_">
		<path id="XMLID_1705_" class="st7" d="M441.9,434.1c-11.5-14-35.9,9.3-44.6,14.9c-5.3,3.3-2-2.1-5.1,7.8
			c3.2,5.8,6.6,11.3,8.9,17.4c0.1-0.1,0.2-0.3,0.3-0.4c1.9-2.6,4.7-4.2,7.9-4.7c2.2-0.4,9.4,1,13.2,0.7c-2.3-4.1,4.3-7.7,7.1-3.6
			c0.3,0.5,0.5,0.9,0.7,1.5c0.7,0.4,1.1,0.9,1.4,1.6c6.7,5.1,20.4,15.7,23.7,19.8c1.8,2.2,4.4,5.5,6.9,8.5c2.9-1.5,6-2.7,9-3.9
			C466.2,481.1,451.3,445.5,441.9,434.1z"/>
		<g id="XMLID_1702_">
			<path id="XMLID_1704_" class="st8" d="M462.2,497.5l2.8,5.6c1.3,1.4,6.4,1.9,7.7,0.5l2.1-2.2l-5.4-7.1L462.2,497.5z"/>
			<path id="XMLID_1703_" d="M465,503.1c0,0-1.7,6.1,1.6,9.2c3.3,3.1,29-12.4,29-12.4s0.7-1.1-1.4-1l-14.8,1.3c0,0-6.7-0.4-9.2,1.4
				C468,503,465,503.1,465,503.1z"/>
		</g>
	</g>
	<path id="XMLID_1700_" class="st9" d="M350.2,467.7c0,0-8.5-2.8-16.6-0.5c-8.1,2.4,2.7,13,11.2,11.9
		C353.3,478,350.2,467.7,350.2,467.7z"/>
	<g id="XMLID_1695_">
		<g id="XMLID_1697_">
			<path id="XMLID_1699_" class="st8" d="M424.1,527.2l-3.3,6.5c-0.4,1.9,2.2,6.3,4.1,6.6l3,0.5l3.4-14.2L424.1,527.2z"/>
			<path id="XMLID_1698_" d="M420.8,533.8c0,0-6,2.1-6.6,6.6c-0.6,4.5,26.9,16.5,26.9,16.5s1.3-0.1,0-1.7l-9.6-11.3
				c0,0-3.6-5.7-6.5-6.7C422.6,536.2,420.8,533.8,420.8,533.8z"/>
		</g>
		<path id="XMLID_1696_" class="st10" d="M451.8,453.6c-7.7-0.3-27,0.2-47,6.1c0,0-0.1-0.1-0.1-0.1l-64,7.9
			c-1.1,2.6-2.1,6.8-2.1,9.6c0,15.5,16.6,28.1,37.1,28.1c3.1,0,6-0.3,8.9-0.8c0,0,0,0,0,0c12.9-2.1,30.5-6.1,39.7-12.8
			c0,0,1.6,22.1-0.1,28.9c-0.7,2.8-1.7,6.8-2.7,10.6c3.1,1.3,6.1,3.1,9,4.8c7.2-11.6,27.3-45.1,30.8-59.5
			C465.6,458.9,459.8,453.9,451.8,453.6z"/>
	</g>
	<path id="XMLID_1694_" class="st11" d="M331.7,473.3c0,0,1.7-8.4,19.8-4.9c18.2,3.5,39.5-0.1,48.4-7.8c0,0,5.6-24.2-10.2-42.7
		c-3.5-4.1-5.1-9.3-4.3-14.5l0.3-1.9c0.9-6.3-1.3-12.6-6.1-17.2l0,0c-6.8-6.5-17.5-6.4-24.1,0.3
		C338.8,401.3,313.5,435.2,331.7,473.3z"/>
	<g id="XMLID_1678_">
		<g id="XMLID_1691_">
			<line id="XMLID_1693_" class="st8" x1="472.4" y1="382.8" x2="447.2" y2="448.9"/>
			<path id="XMLID_1692_" class="st9" d="M447.4,450.3c-0.2,0-0.4,0-0.7-0.1c-0.7-0.3-1.1-1.1-0.8-1.8l25.2-66.1
				c0.3-0.7,1.1-1.1,1.8-0.8c0.7,0.3,1.1,1.1,0.8,1.8l-25.2,66.1C448.3,449.9,447.9,450.2,447.4,450.3z"/>
		</g>
		<g id="XMLID_1689_">
			<path id="XMLID_1690_" class="st12" d="M383.5,458.6l64.9-8.5c0.4,0,0.7,0.2,0.7,0.6l0.3,2.2c0,0.4-0.2,0.7-0.6,0.7l-64.9,8.5
				c-0.4,0-0.7-0.2-0.7-0.6l-0.3-2.2C382.9,459,383.2,458.6,383.5,458.6z"/>
		</g>
		<g id="XMLID_1687_">
			
				<rect id="XMLID_1688_" x="441" y="451.8" transform="matrix(0.9916 -0.1294 0.1294 0.9916 -54.8204 61.1782)" class="st13" width="4.9" height="1.5"/>
		</g>
		<g id="XMLID_1685_">
			
				<rect id="XMLID_1686_" x="434" y="452.7" transform="matrix(0.9916 -0.1294 0.1294 0.9916 -54.9993 60.2707)" class="st13" width="4.9" height="1.5"/>
		</g>
		<g id="XMLID_1683_">
			
				<rect id="XMLID_1684_" x="392.4" y="458.1" transform="matrix(0.9916 -0.1294 0.1294 0.9916 -56.0512 54.9336)" class="st13" width="4.9" height="1.5"/>
		</g>
		<g id="XMLID_1681_">
			
				<ellipse id="XMLID_1682_" transform="matrix(0.9916 -0.1294 0.1294 0.9916 -56.285 53.7054)" class="st13" cx="385.3" cy="460.2" rx="0.8" ry="0.8"/>
		</g>
		<g id="XMLID_1679_">
			
				<ellipse id="XMLID_1680_" transform="matrix(0.9916 -0.1294 0.1294 0.9916 -56.1871 54.2023)" class="st13" cx="389.2" cy="459.7" rx="0.8" ry="0.8"/>
		</g>
	</g>
	<polygon id="XMLID_1677_" class="st8" points="358.4,380.5 367.1,373.7 384.5,386.5 381.1,398 	"/>
	<g id="XMLID_1673_">
		<path id="XMLID_1676_" class="st14" d="M403.9,424.6c0,0,2.1,0.6,3.6-0.5c1.5-1.1,3.5-1.8,4.5-1.5c1,0.2,2.1,0.2,2.1-1
			c0-1.2-2.9-0.6-3.6-1.1C409.8,419.9,403.9,422.1,403.9,424.6z"/>
		<path id="XMLID_1675_" class="st6" d="M353.3,412.2c0,0-4.6,19.7,6.8,34.5c8.4,10.9,31.8,6.8,43.8-22.1l-6.4-4.3
			c0,0-9.6,14.1-16.6,16.3c-4.5,1.4-8.3-2.7-8.4-7.4c0-0.8,0.6-9.3,0.8-10.1L353.3,412.2z"/>
		<path id="XMLID_1674_" class="st6" d="M397.5,420.3c0,0,8.3-9.9,16.9-4.5c6.1,3.9,4.4,7.7,3.6,7.7c-1,0-1.4-0.8-1.8-1.8
			c-1.2-2.9-8.3-1.5-9.6,1c-0.6,1.1-1.7,2-4.3,2C399.7,424.8,397.5,420.3,397.5,420.3z"/>
	</g>
	<circle id="XMLID_1672_" class="st5" cx="398.4" cy="330.2" r="6.6"/>
	<circle id="XMLID_1671_" class="st5" cx="405" cy="328.2" r="6.6"/>
	<circle id="XMLID_1670_" class="st5" cx="389" cy="334.8" r="6.6"/>
	<circle id="XMLID_1669_" class="st5" cx="387.9" cy="323.7" r="6.6"/>
	<circle id="XMLID_1668_" class="st5" cx="379.5" cy="331.2" r="6.6"/>
	<circle id="XMLID_1667_" class="st5" cx="375.4" cy="326.3" r="6.6"/>
	<circle id="XMLID_1666_" class="st5" cx="368.8" cy="334.8" r="6.6"/>
	<circle id="XMLID_1665_" class="st5" cx="372.9" cy="339.1" r="6.6"/>
	<circle id="XMLID_1664_" class="st5" cx="380.7" cy="337.8" r="6.6"/>
	<circle id="XMLID_1663_" class="st5" cx="365" cy="343.2" r="6.6"/>
	<circle id="XMLID_1662_" class="st5" cx="371.6" cy="348.1" r="6.6"/>
	<circle id="XMLID_1661_" class="st5" cx="367.5" cy="353.3" r="6.6"/>
	<circle id="XMLID_1660_" class="st5" cx="359.4" cy="358.2" r="6.6"/>
	<circle id="XMLID_1659_" class="st5" cx="359.4" cy="350.7" r="6.6"/>
	<circle id="XMLID_1658_" class="st5" cx="358.4" cy="340.7" r="6.6"/>
	<circle id="XMLID_1657_" class="st5" cx="362.2" cy="331.2" r="6.6"/>
	<circle id="XMLID_1656_" class="st5" cx="368.8" cy="323.7" r="6.6"/>
	<circle id="XMLID_1655_" class="st5" cx="380.7" cy="318.9" r="6.6"/>
	<circle id="XMLID_1654_" class="st5" cx="396.9" cy="319.7" r="6.6"/>
	<circle id="XMLID_1653_" class="st5" cx="391.1" cy="319.7" r="6.6"/>
	<polygon id="XMLID_1652_" class="st15" points="398.3,341.8 398.6,358.5 390.6,355.7 	"/>
	<g id="XMLID_1634_">
		<g id="XMLID_1649_">
			<g id="XMLID_1650_">
				<path id="XMLID_1651_" class="st8" d="M393,364c0,0,1.9-0.3,3.3,0.2c1.3,0.5,2.5,1.5,2.1,3.3c-0.4,1.8-2.5,2.4-5,2.6
					c-1.4,0.1-5.7-0.8-7.5-2.7c-1.8-1.9-2.6-3.2-2.5-4.9c0.1-1.7,1.9-2.7,3.2-2.7c1.3,0,2.3,1.1,2.7,1.7
					C389.7,362.4,390.6,364,393,364z"/>
			</g>
		</g>
		<path id="XMLID_1648_" class="st16" d="M385.5,361.3l-0.1-0.1c-0.2-0.1-0.2-0.4,0-0.5l0,0c0.1-0.2,0.4-0.2,0.5,0l0.1,0.1
			c0.2,0.1,0.2,0.4,0,0.5l0,0C385.9,361.4,385.6,361.4,385.5,361.3z"/>
		<path id="XMLID_1647_" class="st16" d="M387.1,363.6l-0.1-0.1c-0.2-0.1-0.2-0.4,0-0.5l0,0c0.1-0.2,0.4-0.2,0.5,0l0.1,0.1
			c0.2,0.1,0.2,0.4,0,0.5l0,0C387.5,363.7,387.3,363.7,387.1,363.6z"/>
		<path id="XMLID_1646_" class="st16" d="M389.4,365.3l-0.1-0.1c-0.2-0.1-0.2-0.4,0-0.5l0,0c0.1-0.2,0.4-0.2,0.5,0l0.1,0.1
			c0.2,0.1,0.2,0.4,0,0.5l0,0C389.8,365.4,389.6,365.5,389.4,365.3z"/>
		<path id="XMLID_1645_" class="st16" d="M392,366.5l-0.1-0.1c-0.2-0.1-0.3-0.3-0.2-0.5l0,0c0.1-0.2,0.3-0.3,0.5-0.2l0.1,0.1
			c0.2,0.1,0.3,0.3,0.2,0.5l0,0C392.4,366.4,392.2,366.5,392,366.5z"/>
		<path id="XMLID_1644_" class="st16" d="M394.6,366.6h-0.2c-0.2,0-0.4-0.2-0.4-0.4l0,0c0-0.2,0.2-0.4,0.4-0.4h0.2
			c0.2,0,0.4,0.2,0.4,0.4l0,0C395,366.4,394.9,366.6,394.6,366.6z"/>
		<path id="XMLID_1643_" class="st16" d="M397.6,366.4h-0.2c-0.2,0-0.4-0.2-0.4-0.4l0,0c0-0.2,0.2-0.4,0.4-0.4h0.2
			c0.2,0,0.4,0.2,0.4,0.4l0,0C398,366.2,397.8,366.4,397.6,366.4z"/>
		<path id="XMLID_1642_" class="st16" d="M384.3,364.2l-0.1-0.1c-0.2-0.1-0.2-0.4,0-0.5l0,0c0.1-0.2,0.4-0.2,0.5,0l0.1,0.1
			c0.2,0.1,0.2,0.4,0,0.5l0,0C384.7,364.3,384.4,364.3,384.3,364.2z"/>
		<path id="XMLID_1641_" class="st16" d="M385.9,366.4l-0.1-0.1c-0.2-0.1-0.2-0.4,0-0.5l0,0c0.1-0.2,0.4-0.2,0.5,0l0.1,0.1
			c0.2,0.1,0.2,0.4,0,0.5l0,0C386.4,366.6,386.1,366.6,385.9,366.4z"/>
		<path id="XMLID_1640_" class="st16" d="M388.3,368.2l-0.1-0.1c-0.2-0.1-0.2-0.4,0-0.5l0,0c0.1-0.2,0.4-0.2,0.5,0l0.1,0.1
			c0.2,0.1,0.2,0.4,0,0.5l0,0C388.7,368.3,388.4,368.3,388.3,368.2z"/>
		<path id="XMLID_1639_" class="st16" d="M390.8,369.3l-0.1-0.1c-0.2-0.1-0.3-0.3-0.2-0.5l0,0c0.1-0.2,0.3-0.3,0.5-0.2l0.1,0.1
			c0.2,0.1,0.3,0.3,0.2,0.5l0,0C391.2,369.3,391,369.4,390.8,369.3z"/>
		<path id="XMLID_1638_" class="st16" d="M393.5,369.4h-0.2c-0.2,0-0.4-0.2-0.4-0.4l0,0c0-0.2,0.2-0.4,0.4-0.4h0.2
			c0.2,0,0.4,0.2,0.4,0.4l0,0C393.9,369.3,393.7,369.4,393.5,369.4z"/>
		<path id="XMLID_1637_" class="st16" d="M396.4,369.3h-0.2c-0.2,0-0.4-0.2-0.4-0.4l0,0c0-0.2,0.2-0.4,0.4-0.4h0.2
			c0.2,0,0.4,0.2,0.4,0.4l0,0C396.8,369.1,396.6,369.3,396.4,369.3z"/>
		<path id="XMLID_1636_" class="st17" d="M385.2,360.3c0,0,3.1,7.8,13,5.5"/>
		<path id="XMLID_1635_" class="st17" d="M383.6,362c0,0,3.3,9.8,13.8,6.9"/>
	</g>
	<path id="XMLID_1633_" class="st8" d="M462.2,331.2"/>
	
		<ellipse id="XMLID_1632_" transform="matrix(0.2945 -0.9557 0.9557 0.2945 -64.911 616.0611)" class="st18" cx="384.8" cy="352" rx="2.3" ry="4.8"/>
	
		<ellipse id="XMLID_1631_" transform="matrix(0.2945 -0.9557 0.9557 0.2945 -59.5058 638.645)" class="st18" cx="402.8" cy="359.6" rx="2.3" ry="3.9"/>
	<path id="XMLID_1630_" class="st19" d="M406.9,359.2l-5.5-1.4c-1.9-0.5-3-2.4-2.6-4.3l1.7-7c0.5-1.9,2.4-3,4.3-2.6l5.5,1.4
		c1.9,0.5,3,2.4,2.6,4.3l-1.7,7C410.7,358.5,408.8,359.7,406.9,359.2z"/>
	<path id="XMLID_1629_" class="st19" d="M391.6,353.8l-5.5-1.4c-1.9-0.5-3-2.4-2.6-4.3l1.7-7c0.5-1.9,2.4-3,4.3-2.6l5.5,1.4
		c1.9,0.5,3,2.4,2.6,4.3l-1.7,7C395.4,353.1,393.5,354.3,391.6,353.8z"/>
	<line id="XMLID_1628_" class="st19" x1="397.4" y1="344.8" x2="400.6" y2="345.9"/>
</g>
<g id="XMLID_1437_" class="st20">
	<path id="XMLID_1448_" class="st8" d="M444.6,243.4h57.7c0,0-2.9-7-6.5-7.3c-3.6-0.3-4.6,1.9-5.8,1.7c-1.2-0.2-3-6-7.7-6.3
		c-4.6-0.3-6.4,4-8.9,4.8c-2.5,0.8-7.5,0.3-11.4-5.9c-3.9-6.3-11.3,0.5-11.5,5.4c-0.3,7.4-11.6,3.4-11.6,7.7H444.6z"/>
	<path id="XMLID_1447_" class="st21" d="M577.1,343.5h-57.7c0,0,2.9-7.2,6.5-7.5c3.6-0.3,4.6,1.8,5.8,1.6c1.2-0.2,3-6,7.7-6.3
		c4.6-0.3,6.4,4,8.9,4.8c2.5,0.8,7.5,0.3,11.4-5.9c3.9-6.3,11.3,0.7,11.5,5.5c0.3,7.4,11.6,3.5,11.6,7.8H577.1z"/>
	<path id="XMLID_1446_" class="st8" d="M318.9,323.1h-57.7c0,0,2.9-7,6.5-7.3c3.6-0.3,4.6,1.9,5.8,1.7c1.2-0.2,3-6,7.7-6.3
		c4.6-0.3,6.4,4,8.9,4.8c2.5,0.8,7.5,0.3,11.4-5.9c3.9-6.3,11.3,0.5,11.5,5.4c0.3,7.4,11.6,3.4,11.6,7.7H318.9z"/>
</g>
</svg>
