<?xml version="1.0" encoding="utf-8"?>
<!-- Generator: Adobe Illustrator 21.0.0, SVG Export Plug-In . SVG Version: 6.00 Build 0)  -->
<svg version="1.1" id="Layer_1" xmlns="http://www.w3.org/2000/svg" xmlns:xlink="http://www.w3.org/1999/xlink" x="0px" y="0px"
	 viewBox="0 0 700 600" style="enable-background:new 0 0 700 600;" xml:space="preserve">
<style type="text/css">
	.st0{fill:url(#SVGID_1_);}
	.st1{fill:#F4C74A;}
	.st2{opacity:0.4;}
	.st3{fill:#333333;}
	.st4{fill:#FBB03B;}
	.st5{fill:#1D1D1B;}
	.st6{fill:#FFCB9C;}
	.st7{fill:#1E223F;}
	.st8{fill:#FFFFFF;}
	.st9{fill:#DADADA;}
	.st10{fill:#292B51;}
	.st11{fill:#EFEFEF;}
	.st12{fill:#B2B2B2;}
	.st13{fill:#706F6F;}
	.st14{fill:#FFBB83;}
	.st15{fill:#FF6252;}
	.st16{fill:#C6C6C6;}
	.st17{fill:none;stroke:#C6C6C6;stroke-width:0.3;stroke-miterlimit:10;}
	.st18{opacity:0.54;fill:#FF6252;}
	.st19{fill:none;stroke:#1D1D1B;stroke-miterlimit:10;}
	.st20{opacity:0.3;}
	.st21{fill:#FFFFFF;stroke:#FFFFFF;stroke-miterlimit:10;}
</style>
<g>
	<linearGradient id="SVGID_1_" gradientUnits="userSpaceOnUse" x1="373.1353" y1="608.1462" x2="371.6242" y2="-32.8687">
		<stop  offset="9.732377e-02" style="stop-color:#4A69BD"/>
		<stop  offset="0.3504" style="stop-color:#368BAF"/>
		<stop  offset="0.6011" style="stop-color:#27A6A5"/>
		<stop  offset="0.8239" style="stop-color:#1DB69E"/>
		<stop  offset="0.9959" style="stop-color:#1ABC9C"/>
	</linearGradient>
	<path class="st0" d="M693.1,381.9c0,135-186.6,174.4-338.1,174.4c-158.2,0-302.9-11.9-302.9-166.5S155.9,28,314.1,28
		S693.1,286.4,693.1,381.9z"/>
	<path class="st1" d="M52.1,389.8C52.1,236,154.9,30.1,311.7,28c-0.6,0-1.3,0-1.9,0C100.2,28,6.9,241.5,6.9,393.1
		s144.7,163.3,302.9,163.3c5.5,0,11.1-0.1,16.8-0.2C179.9,554.4,52.1,535.1,52.1,389.8z"/>
</g>
<g class="st2">
	<g>
		<path class="st3" d="M202.8,526.9c-2.1-0.7-4.7-1.3-7.6-1.7s-5.9-0.6-8.9-0.6c-2.2,0-4.2,0.1-6,0.3c-1.7,0.2-3.2,0.5-4.4,0.9
			s-2.1,0.9-2.8,1.5c-0.6,0.6-0.9,1.4-0.9,2.2c0,0.7,0.2,1.4,0.5,2.1c0.4,0.7,0.9,1.5,1.5,2.2c0.6,0.7,1.4,1.5,2.3,2.2
			c0.9,0.7,1.9,1.4,2.9,2c-0.9,0-2,0-3.2-0.1c-1,0-2.3,0-3.9,0c-1.5,0-3.3,0-5.2,0c-3.1,0-6.7,0-10.7,0.1c-4,0.1-8.5,0.2-13.5,0.3
			c0.7-0.5,1.3-1.1,1.8-1.7s0.9-1.3,1.3-2c0.4-0.7,0.6-1.4,0.8-2.2c0.2-0.8,0.3-1.5,0.3-2.3c0-1-0.1-1.9-0.4-2.9
			c-0.2-1-0.6-1.9-1.1-2.8c-0.5-0.9-1.1-1.7-1.8-2.5c-0.7-0.8-1.5-1.5-2.5-2.2c4.1,0.1,8.1,0.3,11.9,0.3c3.8,0.1,7.2,0.1,10.1,0.2
			c3.4,0,6.6,0.1,9.6,0.1c0.1,0,0.8,0,2,0c1.2,0,2.8,0,4.8,0s4.1,0,6.5,0c2.4,0,4.8,0,7.3-0.1c2.5,0,4.8-0.1,7.1-0.1
			c2.3,0,4.2-0.1,5.9-0.2L202.8,526.9z"/>
		<path class="st3" d="M286.8,532.6c-1.9,1.2-4.6,2.3-8.1,3.2c-3.5,0.9-7.7,1.6-12.6,2.1c-4.9,0.5-10.4,0.8-16.4,0.8
			c-3.6,0-7-0.1-10.4-0.4c-3.4-0.2-6.5-0.6-9.5-1c-3-0.4-5.7-1-8.2-1.6c-2.5-0.6-4.6-1.3-6.4-2.1c-1.8-0.8-3.1-1.6-4.1-2.4
			c-1-0.9-1.5-1.8-1.5-2.7c0-1.3,0.8-2.5,2.4-3.6c1.6-1.1,4.1-2.1,7.4-2.9c3.3-0.8,7.5-1.5,12.5-2c5-0.5,10.9-0.7,17.8-0.7
			c6.9,0,12.8,0.2,17.8,0.7c5,0.5,9.2,1.1,12.5,2c3.3,0.8,5.7,1.8,7.4,2.9c1.6,1.1,2.4,2.3,2.4,3.6
			C289.7,530,288.7,531.3,286.8,532.6z M259.7,528.2c-0.5-0.4-1.3-0.8-2.2-1.1c-0.9-0.3-2.1-0.6-3.4-0.7s-2.8-0.3-4.5-0.3
			c-1.7,0-3.2,0.1-4.5,0.3c-1.3,0.2-2.4,0.4-3.3,0.7c-0.9,0.3-1.6,0.7-2.1,1.1c-0.5,0.4-0.8,0.9-0.8,1.4c0,0.5,0.3,1,0.9,1.5
			c0.6,0.5,1.3,1,2.3,1.4c1,0.4,2.1,0.8,3.4,1c1.3,0.3,2.6,0.4,4.1,0.4c1.5,0,2.9-0.1,4.2-0.3c1.3-0.2,2.5-0.5,3.5-0.9
			c1-0.4,1.8-0.8,2.3-1.4c0.6-0.5,0.9-1.1,0.9-1.7C260.5,529.1,260.2,528.6,259.7,528.2z"/>
		<path class="st3" d="M360.6,529.1c-5.7-0.1-11.3-0.1-16.9-0.1c1.6-0.1,2.8-0.2,3.6-0.4s1.5-0.3,1.9-0.4c0.4-0.1,0.6-0.3,0.7-0.4
			c0.1-0.1,0.1-0.2,0.1-0.2c0-0.2-0.1-0.4-0.4-0.6c-0.2-0.2-0.7-0.5-1.4-0.7c-0.7-0.2-1.6-0.4-2.7-0.6c-1.1-0.2-2.6-0.2-4.4-0.2
			c-1.9,0-3.6,0.1-5.1,0.3c-1.6,0.2-2.9,0.4-4.1,0.8s-2,0.8-2.7,1.3c-0.6,0.5-1,1.1-1,1.8c0,0.8,0.4,1.5,1.1,2.1s1.6,1.1,2.8,1.5
			c1.1,0.4,2.4,0.7,3.8,1c1.4,0.2,2.8,0.4,4.1,0.6s2.6,0.2,3.8,0.3c1.2,0,2.1,0.1,2.8,0.1c1,0,1.8,0,2.5-0.1c0.7,0,1.3-0.1,1.7-0.2
			c0.4-0.1,0.8-0.2,1-0.2s0.3-0.2,0.3-0.3c0-0.2-0.3-0.3-1-0.5c-0.7-0.1-1.8-0.2-3.5-0.2c-0.7,0-1.4,0-1.9,0.1c-0.5,0-1,0.1-1.6,0.2
			s-0.9,0.2-1.2,0.4c-0.9-0.2-1.5-0.5-2-0.7s-0.7-0.5-0.7-0.7c0-0.3,0.3-0.6,1-0.9c0.6-0.3,1.6-0.5,2.9-0.8c1.3-0.2,2.9-0.4,4.9-0.6
			c2-0.1,4.3-0.2,6.9-0.2c2.6,0,4.9,0.1,7.1,0.3c2.1,0.2,4,0.4,5.6,0.7c1.6,0.3,2.8,0.7,3.7,1.1c0.9,0.4,1.3,0.8,1.3,1.3
			c0,0.3-0.2,0.6-0.6,1s-1,0.7-1.9,1.1c-0.9,0.4-2.1,0.7-3.7,1s-3.5,0.6-5.9,0.9s-5.2,0.5-8.4,0.6c-3.2,0.2-7,0.2-11.4,0.2
			c-4.8,0-9.2-0.1-13.3-0.4c-4.1-0.3-7.9-0.7-11.3-1.2c-3.4-0.5-6.4-1.1-9.1-1.8c-2.7-0.7-4.9-1.4-6.7-2.2c-1.8-0.8-3.2-1.6-4.1-2.5
			c-1-0.9-1.4-1.8-1.4-2.7c0-1.3,0.8-2.5,2.3-3.6c1.5-1.1,3.7-2,6.5-2.7c2.8-0.7,6.1-1.3,9.9-1.7c3.8-0.4,8-0.6,12.6-0.6
			c3,0,5.8,0.1,8.1,0.2c2.4,0.1,4.5,0.3,6.3,0.6s3.4,0.5,4.8,0.8s2.5,0.6,3.4,0.8l-2.9-2c3,0.2,5.7,0.3,8.2,0.4s5,0.1,7.4,0.1
			c2.3,0,4.6,0,6.9-0.1c2.3-0.1,4.9-0.1,7.6-0.3c-1.7,0.8-3,1.6-3.8,2.4c-0.8,0.8-1.2,1.6-1.2,2.3c0,1.6,2,3.2,5.9,4.9
			C372,529.4,366.3,529.2,360.6,529.1z"/>
		<path class="st3" d="M443,522.6c-0.8,0.9-1.5,1.7-2.1,2.6c-0.5,0.9-0.9,1.8-1.2,2.7s-0.4,1.8-0.4,2.7c0,0.8,0.1,1.5,0.3,2.2
			s0.4,1.4,0.8,2c0.3,0.6,0.7,1.3,1.1,1.8c0.4,0.6,0.9,1.1,1.5,1.6c-1,0-2.3-0.1-3.6-0.1c-1.2,0-2.6,0-4.4,0c-1.7,0-3.6,0-5.8,0
			c-3.2,0-6.9,0-10.9,0.1c-4,0.1-8.4,0.2-13.3,0.3c0.6-0.2,1.2-0.5,1.6-0.9c0.5-0.4,0.9-0.8,1.2-1.2c0.4-0.5,0.7-0.9,0.9-1.4
			c0.3-0.5,0.5-1,0.6-1.5c0.2-0.5,0.3-1,0.4-1.4c0.1-0.5,0.2-0.9,0.2-1.2c0-0.4,0.1-0.7,0.1-0.9c0-0.2,0-0.4,0-0.4
			c0-0.2,0-0.5,0-0.9c0-0.4-0.1-0.9-0.3-1.5c-0.1-0.6-0.4-1.2-0.6-1.9c-0.3-0.7-0.7-1.3-1.2-2c-0.5-0.7-1.1-1.3-1.9-1.9
			c-0.8-0.6-1.7-1.1-2.7-1.4c6,0.2,11.5,0.3,16.6,0.3c5.1,0.1,9.6,0.1,13.4,0.1c2,0,3.8,0,5.3,0c1.5,0,2.8,0,3.9,0
			c1.2,0,2.4,0,3.4,0C444.8,521,443.8,521.8,443,522.6z"/>
		<path class="st3" d="M490.3,522.4c-0.8,0.8-1.5,1.5-2,2.3c-0.5,0.8-1,1.6-1.3,2.4c-0.3,0.8-0.5,1.6-0.5,2.4
			c2.4-0.8,4.6-1.5,6.6-2.3s3.7-1.6,5.1-2.4c1.4-0.8,2.5-1.6,3.3-2.4c0.8-0.8,1.2-1.7,1.2-2.5c5.1,0.2,10,0.3,14.4,0.3
			c4.5,0.1,8.4,0.1,11.9,0.1c1.8,0,3.4,0,4.9,0c1.4,0,2.6,0,3.6,0c1.2,0,2.2,0,3.1,0c-1.1,0.8-2.1,1.6-3,2.4
			c-0.8,0.8-1.5,1.7-2.1,2.6c-0.5,0.9-0.9,1.8-1.2,2.7s-0.4,1.8-0.4,2.6c0,0.8,0.1,1.5,0.3,2.2c0.2,0.7,0.4,1.4,0.8,2.1
			c0.3,0.7,0.7,1.3,1.1,1.8s0.9,1.1,1.5,1.6c-1,0-2.1-0.1-3.4-0.1c-1.1,0-2.5,0-4.1,0c-1.6,0-3.5,0-5.6,0c-3.1,0-6.7,0-10.7,0.1
			c-4,0.1-8.4,0.2-13.2,0.3c0.6-0.2,1.2-0.5,1.6-0.9c0.5-0.4,0.9-0.8,1.2-1.2c0.4-0.5,0.7-0.9,0.9-1.4c0.2-0.5,0.5-1,0.6-1.5
			c0.4-1.2,0.6-2.5,0.8-3.8v-0.5c-3.3,1.3-6.2,2.7-8.9,4.2s-5,3.2-7,4.9c-1,0-2.1-0.1-3.4-0.1c-1.1,0-2.5,0-4.1,0
			c-1.6,0-3.5,0-5.6,0c-3.1,0-6.6,0-10.6,0.1c-4,0.1-8.3,0.2-13.1,0.3c0.6-0.2,1.2-0.5,1.6-0.9c0.5-0.4,0.9-0.8,1.2-1.2
			c0.4-0.5,0.7-0.9,0.9-1.4c0.3-0.5,0.5-1,0.6-1.5c0.2-0.5,0.3-1,0.4-1.4c0.1-0.5,0.2-0.9,0.2-1.2c0-0.4,0.1-0.7,0.1-0.9
			c0-0.2,0-0.4,0-0.4c0-0.2,0-0.5,0-0.9c0-0.4-0.1-0.9-0.3-1.5c-0.1-0.6-0.4-1.2-0.6-1.9c-0.3-0.7-0.7-1.3-1.2-2
			c-0.5-0.7-1.1-1.3-1.9-1.9c-0.8-0.6-1.7-1.1-2.7-1.4c6,0.2,11.4,0.3,16.4,0.3c5,0.1,9.3,0.1,13,0.1c1.9,0,3.6,0,5.1,0
			c1.5,0,2.7,0,3.8,0c1.2,0,2.3,0,3.2,0C492,520.9,491,521.6,490.3,522.4z"/>
	</g>
</g>
<g>
	<path class="st4" d="M204.8,520c-1.7-0.4-3.7-0.7-6-1c-2.3-0.3-4.7-0.5-7.2-0.7c-2.5-0.1-4.9-0.3-7.4-0.3c-2.4-0.1-4.6-0.1-6.6-0.1
		s-3.6,0-4.8,0c-1.3,0-1.9,0-2,0c-3,0-6.2,0.2-9.7,0.4c-3,0.2-6.4,0.6-10.2,1c-3.8,0.5-7.9,1.1-12,1.9c1-3.7,1.8-7.9,2.5-12.5
		c0.7-4.6,1.3-9.5,1.8-14.7c0.5-5.2,0.8-10.5,1.1-16c0.2-5.5,0.4-11,0.4-16.5c0-4.5-0.1-9-0.3-13.4c-0.2-4.4-0.4-8.6-0.8-12.7
		c-0.4-4.1-0.8-7.9-1.3-11.5c-0.5-3.6-1.1-6.9-1.8-9.9c5,0.9,9.6,1.5,13.6,1.8c4.1,0.3,7.7,0.4,10.8,0.4c2,0,3.7,0,5.3-0.1
		c1.5-0.1,2.8-0.2,3.9-0.3c1.3-0.1,2.3-0.3,3.3-0.4c-1.1,3.5-2.1,7.2-3,11.3c-0.9,4.1-1.7,8.2-2.4,12.5c-0.7,4.3-1.2,8.6-1.5,12.8
		c-0.4,4.3-0.5,8.4-0.5,12.3c0,5,0.3,9.2,0.9,12.8c0.6,3.5,1.6,6.4,2.8,8.7s2.7,3.9,4.5,5c1.8,1.1,3.8,1.6,6,1.6c3,0,6-1.1,9-3.3
		c3-2.2,5.5-5.4,7.7-9.6L204.8,520z"/>
	<path class="st4" d="M288.9,470.5c0,7.3-0.8,14.2-2.5,20.7c-1.6,6.4-4.1,12.1-7.5,16.9c-3.3,4.8-7.5,8.6-12.6,11.4
		c-5.1,2.8-11.1,4.2-18.1,4.2c-6.9,0-12.9-1.4-18-4.2c-5.1-2.8-9.3-6.6-12.7-11.4c-3.4-4.8-5.8-10.4-7.5-16.9
		c-1.6-6.4-2.5-13.3-2.5-20.7c0-5.4,0.5-10.6,1.5-15.6c1-5,2.4-9.7,4.2-14c1.8-4.3,3.9-8.3,6.4-11.9c2.5-3.6,5.3-6.6,8.3-9.2
		c3-2.5,6.2-4.5,9.6-5.9c3.4-1.4,6.9-2.1,10.5-2.1c6.1,0,11.6,1.5,16.6,4.5c5,3,9.3,7.1,12.8,12.3s6.3,11.5,8.2,18.6
		C287.9,454.3,288.9,462.1,288.9,470.5z M259.3,464.3c0-3.6-0.3-7-0.9-10c-0.6-3.1-1.4-5.7-2.4-8c-1-2.2-2.2-4-3.5-5.3
		c-1.4-1.3-2.8-1.9-4.3-1.9c-1.4,0-2.8,0.8-4.1,2.3s-2.4,3.5-3.4,5.9c-1,2.4-1.8,5.1-2.4,8.1c-0.6,3-0.9,6-0.9,8.9
		c0,2.8,0.3,5.5,0.8,7.9c0.5,2.4,1.2,4.5,2.1,6.3c0.9,1.8,2,3.2,3.4,4.2c1.3,1,2.8,1.6,4.5,1.6c1.6,0,3.1-0.5,4.5-1.6
		c1.4-1,2.5-2.4,3.5-4.2c0.9-1.8,1.7-3.9,2.2-6.3C259.1,469.8,259.3,467.1,259.3,464.3z"/>
	<path class="st4" d="M378,464.6c-4,9.8-5.9,19.3-5.9,28.5c0,4.4,0.4,8.9,1.2,13.4c0.8,4.5,2.1,9.1,3.8,13.8
		c-2.8-0.7-5.3-1.2-7.7-1.5c-2.4-0.3-4.7-0.5-7-0.5c-2.5,0-5,0.2-7.5,0.7c-2.6,0.4-5.3,1.1-8.3,2l3-11.6c-1,1.5-2.1,3.1-3.5,4.7
		c-1.4,1.6-3,3.1-4.8,4.4c-1.9,1.3-4,2.4-6.4,3.2c-2.4,0.8-5.1,1.3-8.2,1.3c-4.6,0-8.9-1.1-12.8-3.3c-3.9-2.2-7.2-5.4-10-9.6
		c-2.8-4.2-5-9.3-6.5-15.4c-1.6-6.1-2.4-13-2.4-20.8c0-5.2,0.5-10.3,1.4-15.4c1-5.1,2.4-9.9,4.2-14.5c1.8-4.6,4.1-8.9,6.8-12.8
		c2.7-3.9,5.8-7.3,9.2-10.2c3.4-2.9,7.2-5.1,11.4-6.7c4.2-1.6,8.7-2.4,13.5-2.4c4.4,0,8.2,0.4,11.5,1.3c3.3,0.9,6.1,2.1,8.5,3.5
		c2.4,1.5,4.4,3.2,6,5.1c1.6,1.9,2.8,3.9,3.7,6c0.9,2.1,1.6,4.1,2,6.2c0.4,2.1,0.6,4,0.6,5.8c0,2.6-0.4,5-1.3,7.4
		c-0.9,2.4-2.1,4.4-3.7,6.2c-1.6,1.8-3.5,3.2-5.6,4.3c-2.2,1.1-4.6,1.6-7.2,1.6c-2.7,0-5-0.4-7-1.2c-2-0.8-3.6-1.9-4.9-3.2
		c-1.3-1.3-2.3-2.8-2.9-4.4c-0.7-1.6-1-3.3-1-4.9c0-1.4,0.2-2.8,0.7-4.3c0.5-1.4,1.2-2.8,2-4.1c0.3,1,0.7,1.8,1.2,2.4
		c0.5,0.6,1.1,1,1.6,1.2c0.6,0.3,1.2,0.5,2,0.5c1.6,0,2.8-0.4,3.5-1.2c0.7-0.8,1-1.8,1-2.8c0-0.5-0.1-1-0.3-1.5
		c-0.2-0.5-0.5-1-1-1.4c-0.4-0.4-1-0.8-1.7-1.1s-1.6-0.4-2.6-0.4c-0.7,0-1.6,0.1-2.8,0.4c-1.2,0.3-2.5,0.8-3.8,1.6
		c-1.4,0.8-2.8,1.9-4.2,3.3c-1.4,1.4-2.7,3.3-3.8,5.7c-1.2,2.4-2.1,5.3-2.8,8.7c-0.7,3.4-1.1,7.5-1.1,12.2c0,3.9,0.3,7.3,1,10.3
		c0.7,2.9,1.6,5.4,2.7,7.4c1.2,2,2.5,3.5,4.1,4.5c1.6,1,3.3,1.5,5.2,1.5c1.8,0,3.3-0.5,4.4-1.4c1.2-0.9,2.1-2,2.7-3.3
		c0.7-1.3,1.1-2.7,1.4-4.1c0.2-1.4,0.4-2.6,0.4-3.5c0,0,0-0.4-0.1-1s-0.3-1.3-0.7-2.2c-0.4-0.8-1-1.7-1.9-2.5
		c-0.9-0.9-2.1-1.6-3.7-2.2c5.7,0,11.4-0.3,17.1-0.8S372.2,465.6,378,464.6z"/>
	<path class="st4" d="M447.3,518.5c-1-0.1-2.1-0.2-3.4-0.3c-1.1-0.1-2.4-0.2-4-0.2c-1.5,0-3.3-0.1-5.4-0.1c-3.9,0-8.4,0.2-13.6,0.5
		c-5.2,0.3-10.8,1-16.8,2c1.1-2.2,2-4.9,2.8-8.2c0.8-3.3,1.4-6.9,1.9-10.7c0.5-3.8,0.9-7.6,1.2-11.5c0.3-3.9,0.5-7.5,0.7-10.9
		c0.1-3.4,0.2-6.3,0.3-8.8c0-2.5,0-4.1,0-5.1c0-0.2,0-0.9,0-2.2c0-1.3-0.1-3-0.1-5.1c0-2.1-0.1-4.5-0.2-7.1
		c-0.1-2.7-0.2-5.5-0.4-8.4c-0.2-2.9-0.4-5.8-0.7-8.8c-0.3-2.9-0.6-5.7-0.9-8.3c-0.4-2.6-0.8-5-1.2-7.1c-0.5-2.1-1-3.8-1.6-5
		c4.9,0.9,9.3,1.4,13.4,1.7c4.1,0.3,7.8,0.4,11,0.4c2.2,0,4.1,0,5.9-0.1s3.2-0.2,4.4-0.3c1.4-0.1,2.6-0.3,3.7-0.4
		c-0.6,2.7-1.1,5.7-1.5,9c-0.4,3.3-0.8,6.8-1.2,10.6c-0.3,3.7-0.6,7.7-0.8,11.8c-0.2,4.1-0.3,8.3-0.3,12.7c0,5,0.1,10.1,0.4,15.3
		c0.2,5.2,0.6,10.3,1.2,15.4c0.6,5.1,1.3,10.1,2.1,15C445,509.3,446,514,447.3,518.5z"/>
	<path class="st4" d="M494.8,518.5c-0.9-0.1-2-0.2-3.3-0.3c-1.1-0.1-2.3-0.2-3.8-0.2c-1.5,0-3.2-0.1-5.1-0.1
		c-3.8,0-8.2,0.2-13.2,0.5c-5,0.3-10.6,1-16.6,2c1.1-2.2,2-4.9,2.8-8.2c0.8-3.3,1.4-6.9,1.9-10.7c0.5-3.8,0.9-7.6,1.2-11.5
		c0.3-3.9,0.5-7.5,0.7-10.9c0.1-3.4,0.2-6.3,0.3-8.8c0-2.5,0-4.1,0-5.1c0-0.2,0-0.9,0-2.2c0-1.3-0.1-3-0.1-5.1
		c0-2.1-0.1-4.5-0.2-7.1c-0.1-2.7-0.2-5.5-0.4-8.4c-0.2-2.9-0.4-5.8-0.7-8.8c-0.3-2.9-0.6-5.7-0.9-8.3c-0.4-2.6-0.8-5-1.2-7.1
		c-0.5-2.1-1-3.8-1.6-5c4.9,0.9,9.3,1.4,13.3,1.7c4,0.3,7.6,0.4,10.7,0.4c2.1,0,4,0,5.7-0.1s3-0.2,4.2-0.3c1.3-0.1,2.5-0.3,3.5-0.4
		c2.1,10.2,4.4,19.7,7.1,28.4c2.7,8.7,5.6,16.8,9,24.3v-3c-0.1-7.9-0.4-15.2-0.8-22c-0.2-2.9-0.4-5.8-0.7-8.8
		c-0.2-2.9-0.5-5.7-0.9-8.3c-0.4-2.6-0.8-5-1.2-7.1c-0.5-2.1-1-3.8-1.6-5c4.8,0.9,9.3,1.4,13.3,1.7c4.1,0.3,7.7,0.4,10.8,0.4
		c2.1,0,4,0,5.7-0.1s3.1-0.2,4.2-0.3c1.3-0.1,2.5-0.3,3.5-0.4c-0.6,2.7-1.1,5.7-1.5,9c-0.4,3.3-0.8,6.9-1.2,10.6
		c-0.3,3.8-0.6,7.7-0.8,11.9c-0.2,4.1-0.3,8.4-0.3,12.8c0,5,0.1,10,0.4,15.2c0.2,5.1,0.6,10.3,1.2,15.3c0.6,5.1,1.3,10.1,2.1,15
		c0.8,4.9,1.8,9.6,3,14.1c-0.9-0.1-1.9-0.2-3.1-0.3c-1-0.1-2.2-0.2-3.7-0.2c-1.4,0-3.1-0.1-4.9-0.1c-3.5,0-7.5,0.2-12,0.5
		c-4.5,0.3-9.4,1-14.6,2c0-5-0.4-9.8-1.2-14.6c-0.8-4.8-1.9-9.4-3.4-14s-3.2-9.1-5.2-13.6c-2-4.4-4.3-8.8-6.7-13.2
		c0,4.5,0.2,9.1,0.5,13.7c0.3,4.6,0.7,9.2,1.3,13.7c0.6,4.5,1.2,9,2,13.3C492.8,510.3,493.8,514.5,494.8,518.5z"/>
</g>
<g id="XMLID_1627_">
	<circle id="XMLID_1712_" class="st5" cx="300.5" cy="223.7" r="7.6"/>
	<circle id="XMLID_1711_" class="st5" cx="302.6" cy="236.5" r="7.6"/>
	<circle id="XMLID_1710_" class="st5" cx="301.7" cy="245.8" r="7.6"/>
	<circle id="XMLID_1709_" class="st5" cx="258" cy="253.5" r="7.6"/>
	<path id="XMLID_1708_" class="st6" d="M303.5,251.2c-2.4,8.6-6.4,16-20.8,18.8c0,0-8.3,5.2-8.5,14.9c-0.2,9.7-25.3,3.1-18.5-8.8
		c6.8-11.9,3.9-28,1.3-37.5c-2.6-9.4,3.4-26.4,15.2-29.6c4.7-1.3,14.7,2.2,20.6,7C302.9,224.2,307,238.7,303.5,251.2z"/>
	
		<ellipse id="XMLID_1707_" transform="matrix(9.419991e-02 -0.9956 0.9956 9.419991e-02 35.194 510.713)" cx="298.3" cy="236" rx="1.9" ry="1.3"/>
	
		<ellipse id="XMLID_1706_" transform="matrix(9.423656e-02 -0.9955 0.9955 9.423656e-02 26.121 491.33)" cx="283.1" cy="231.3" rx="1.9" ry="1.3"/>
	<g id="XMLID_1701_">
		<path id="XMLID_1705_" class="st7" d="M344.6,334.2c-13.4-16.3-41.7,10.9-51.9,17.3c-6.2,3.9-2.3-2.5-6,9.1
			c3.7,6.7,7.7,13.2,10.3,20.3c0.1-0.2,0.2-0.3,0.3-0.5c2.2-3,5.5-4.9,9.2-5.5c2.5-0.4,10.9,1.2,15.3,0.9c-2.6-4.7,5-8.9,8.3-4.2
			c0.4,0.6,0.6,1.1,0.9,1.7c0.8,0.4,1.3,1.1,1.6,1.8c7.8,6,23.7,18.3,27.5,23.1c2.1,2.6,5.1,6.4,8,9.9c3.3-1.8,6.9-3.1,10.5-4.5
			C372.9,388.9,355.6,347.5,344.6,334.2z"/>
		<g id="XMLID_1702_">
			<path id="XMLID_1704_" class="st8" d="M368.2,408l3.2,6.5c1.5,1.6,7.5,2.2,9,0.6l2.5-2.5l-6.3-8.3L368.2,408z"/>
			<path id="XMLID_1703_" d="M371.5,414.5c0,0-2,7.1,1.8,10.7c3.8,3.6,33.8-14.4,33.8-14.4s0.8-1.3-1.6-1.2l-17.2,1.5
				c0,0-7.8-0.4-10.7,1.6C375,414.4,371.5,414.5,371.5,414.5z"/>
		</g>
	</g>
	<path id="XMLID_1700_" class="st9" d="M237.8,373.3c0,0-9.9-3.3-19.4-0.5c-9.4,2.8,3.1,15.1,13,13.8
		C241.5,385.3,237.8,373.3,237.8,373.3z"/>
	<g id="XMLID_1695_">
		<g id="XMLID_1697_">
			<path id="XMLID_1699_" class="st8" d="M323.9,442.6l-3.9,7.6c-0.5,2.2,2.6,7.3,4.7,7.7l3.5,0.6l3.9-16.5L323.9,442.6z"/>
			<path id="XMLID_1698_" d="M320,450.2c0,0-6.9,2.5-7.7,7.7c-0.7,5.2,31.4,19.2,31.4,19.2s1.5-0.1,0-2l-11.2-13.2
				c0,0-4.2-6.6-7.5-7.8C322.2,453,320,450.2,320,450.2z"/>
		</g>
		<path id="XMLID_1696_" class="st10" d="M356.1,356.9c-9-0.4-31.4,0.2-54.6,7.1c0,0-0.1-0.1-0.1-0.1l-74.5,9.2
			c-1.2,3-2.5,7.9-2.5,11.2c0,18.1,19.4,32.7,43.2,32.7c3.6,0,7-0.3,10.3-0.9c0,0,0,0,0,0c15-2.5,35.5-7.2,46.2-14.9
			c0,0,1.9,25.7-0.1,33.6c-0.8,3.3-2,7.9-3.1,12.3c3.6,1.6,7,3.6,10.5,5.6c8.3-13.5,31.8-52.4,35.8-69.2
			C372.2,363,365.4,357.3,356.1,356.9z"/>
	</g>
	<path id="XMLID_1694_" class="st11" d="M216.4,379.9c0,0,1.9-9.8,23.1-5.8c21.1,4,46-0.1,56.3-9.1c0,0,6.5-28.2-11.8-49.7
		c-4.1-4.8-5.9-10.9-5-16.9l0.3-2.2c1.1-7.3-1.5-14.7-7.1-20l0,0c-7.9-7.6-20.4-7.4-28.1,0.3C224.6,296.1,195.1,335.4,216.4,379.9z"
		/>
	<g id="XMLID_1678_">
		<g id="XMLID_1691_">
			<line id="XMLID_1693_" class="st8" x1="380.1" y1="274.5" x2="350.8" y2="351.5"/>
			<path id="XMLID_1692_" class="st9" d="M351,353c-0.3,0-0.5,0-0.8-0.1c-0.8-0.3-1.2-1.2-0.9-2l29.3-77c0.3-0.8,1.2-1.2,2-0.9
				c0.8,0.3,1.2,1.2,0.9,2l-29.3,77C352.1,352.6,351.6,353,351,353z"/>
		</g>
		<g id="XMLID_1689_">
			<path id="XMLID_1690_" class="st12" d="M276.6,362.7l75.7-9.9c0.4,0,0.7,0.2,0.7,0.6l0.4,2.8c0,0.4-0.2,0.7-0.6,0.7l-75.7,9.9
				c-0.4,0-0.7-0.2-0.7-0.6l-0.4-2.8C275.9,363.1,276.2,362.8,276.6,362.7z"/>
		</g>
		<g id="XMLID_1687_">
			
				<rect id="XMLID_1688_" x="343.6" y="354.8" transform="matrix(0.9916 -0.1294 0.1294 0.9916 -43.1036 47.8099)" class="st13" width="5.7" height="1.8"/>
		</g>
		<g id="XMLID_1685_">
			
				<rect id="XMLID_1686_" x="335.4" y="355.9" transform="matrix(0.9916 -0.1294 0.1294 0.9916 -43.3117 46.7537)" class="st13" width="5.7" height="1.8"/>
		</g>
		<g id="XMLID_1683_">
			
				<rect id="XMLID_1684_" x="286.9" y="362.2" transform="matrix(0.9916 -0.1294 0.1294 0.9916 -44.5359 40.5423)" class="st13" width="5.7" height="1.8"/>
		</g>
		<g id="XMLID_1681_">
			
				<ellipse id="XMLID_1682_" transform="matrix(0.9916 -0.1294 0.1294 0.9916 -44.8105 39.1161)" class="st13" cx="278.7" cy="364.5" rx="0.9" ry="0.9"/>
		</g>
		<g id="XMLID_1679_">
			
				<ellipse id="XMLID_1680_" transform="matrix(0.9916 -0.1294 0.1294 0.9916 -44.6966 39.6944)" class="st13" cx="283.2" cy="363.9" rx="0.9" ry="0.9"/>
		</g>
	</g>
	<polygon id="XMLID_1677_" class="st8" points="247.5,271.8 257.5,263.9 277.8,278.8 273.9,292.2 	"/>
	<g id="XMLID_1673_">
		<path id="XMLID_1676_" class="st14" d="M300.4,323.1c0,0,2.5,0.6,4.2-0.6c1.7-1.3,4.1-2.1,5.3-1.8s2.4,0.2,2.4-1.2
			s-3.3-0.7-4.2-1.2C307.2,317.7,300.4,320.3,300.4,323.1z"/>
		<path id="XMLID_1675_" class="st6" d="M241.5,308.8c0,0-5.3,22.9,7.9,40.1c9.8,12.7,37,7.9,51-25.8l-7.5-5
			c0,0-11.2,16.4-19.3,18.9c-5.2,1.6-9.7-3.2-9.7-8.6c0-0.9,0.7-10.9,0.9-11.7L241.5,308.8z"/>
		<path id="XMLID_1674_" class="st6" d="M292.9,318.2c0,0,9.6-11.6,19.7-5.2c7.1,4.5,5.2,9,4.2,9c-1.2,0-1.6-1-2.1-2.1
			c-1.5-3.4-9.7-1.8-11.2,1.2c-0.7,1.3-2,2.3-5,2.3C295.5,323.3,292.9,318.2,292.9,318.2z"/>
	</g>
	<circle id="XMLID_1672_" class="st5" cx="294" cy="213.3" r="7.6"/>
	<circle id="XMLID_1671_" class="st5" cx="301.7" cy="210.9" r="7.6"/>
	<circle id="XMLID_1670_" class="st5" cx="283.1" cy="218.6" r="7.6"/>
	<circle id="XMLID_1669_" class="st5" cx="281.8" cy="205.7" r="7.6"/>
	<circle id="XMLID_1668_" class="st5" cx="272" cy="214.5" r="7.6"/>
	<circle id="XMLID_1667_" class="st5" cx="267.2" cy="208.7" r="7.6"/>
	<circle id="XMLID_1666_" class="st5" cx="259.5" cy="218.6" r="7.6"/>
	<circle id="XMLID_1665_" class="st5" cx="264.3" cy="223.7" r="7.6"/>
	<circle id="XMLID_1664_" class="st5" cx="273.3" cy="222.1" r="7.6"/>
	<circle id="XMLID_1663_" class="st5" cx="255.1" cy="228.4" r="7.6"/>
	<circle id="XMLID_1662_" class="st5" cx="262.8" cy="234.1" r="7.6"/>
	<circle id="XMLID_1661_" class="st5" cx="258" cy="240.2" r="7.6"/>
	<circle id="XMLID_1660_" class="st5" cx="248.6" cy="245.8" r="7.6"/>
	<circle id="XMLID_1659_" class="st5" cx="248.6" cy="237.1" r="7.6"/>
	<circle id="XMLID_1658_" class="st5" cx="247.5" cy="225.5" r="7.6"/>
	<circle id="XMLID_1657_" class="st5" cx="251.9" cy="214.5" r="7.6"/>
	<circle id="XMLID_1656_" class="st5" cx="259.5" cy="205.7" r="7.6"/>
	<circle id="XMLID_1655_" class="st5" cx="273.3" cy="200.1" r="7.6"/>
	<circle id="XMLID_1654_" class="st5" cx="292.2" cy="201.1" r="7.6"/>
	<circle id="XMLID_1653_" class="st5" cx="285.5" cy="201.1" r="7.6"/>
	<polygon id="XMLID_1652_" class="st15" points="293.8,226.8 294.2,246.2 284.9,242.9 	"/>
	<g id="XMLID_1634_">
		<g id="XMLID_1649_">
			<g id="XMLID_1650_">
				<path id="XMLID_1651_" class="st8" d="M287.7,252.6c0,0,2.2-0.3,3.8,0.3c1.6,0.6,2.9,1.8,2.4,3.9c-0.5,2.1-3,2.8-5.8,3
					c-1.7,0.2-6.6-0.9-8.7-3.1c-2-2.2-3-3.7-2.9-5.7c0.1-1.9,2.2-3.1,3.7-3.1c1.5,0,2.7,1.3,3.1,2
					C283.8,250.7,284.9,252.6,287.7,252.6z"/>
			</g>
		</g>
		<path id="XMLID_1648_" class="st16" d="M278.9,249.5l-0.1-0.1c-0.2-0.2-0.2-0.4-0.1-0.6l0,0c0.2-0.2,0.4-0.2,0.6-0.1l0.1,0.1
			c0.2,0.2,0.2,0.4,0.1,0.6l0,0C279.4,249.6,279.1,249.6,278.9,249.5z"/>
		<path id="XMLID_1647_" class="st16" d="M280.8,252.1l-0.1-0.1c-0.2-0.2-0.2-0.4-0.1-0.6l0,0c0.2-0.2,0.4-0.2,0.6-0.1l0.1,0.1
			c0.2,0.2,0.2,0.4,0.1,0.6l0,0C281.3,252.2,281,252.3,280.8,252.1z"/>
		<path id="XMLID_1646_" class="st16" d="M283.5,254.1l-0.1-0.1c-0.2-0.2-0.2-0.4-0.1-0.6l0,0c0.2-0.2,0.4-0.2,0.6-0.1l0.1,0.1
			c0.2,0.2,0.2,0.4,0.1,0.6l0,0C284,254.3,283.7,254.3,283.5,254.1z"/>
		<path id="XMLID_1645_" class="st16" d="M286.5,255.5l-0.2-0.1c-0.2-0.1-0.4-0.3-0.3-0.6l0,0c0.1-0.2,0.3-0.4,0.6-0.3l0.2,0.1
			c0.2,0.1,0.4,0.3,0.3,0.6l0,0C287,255.4,286.7,255.6,286.5,255.5z"/>
		<path id="XMLID_1644_" class="st16" d="M289.6,255.6h-0.2c-0.2,0-0.4-0.2-0.4-0.4l0,0c0-0.2,0.2-0.4,0.4-0.4h0.2
			c0.2,0,0.4,0.2,0.4,0.4l0,0C290,255.4,289.8,255.6,289.6,255.6z"/>
		<path id="XMLID_1643_" class="st16" d="M293,255.4h-0.2c-0.2,0-0.4-0.2-0.4-0.4l0,0c0-0.2,0.2-0.4,0.4-0.4h0.2
			c0.2,0,0.4,0.2,0.4,0.4l0,0C293.5,255.2,293.3,255.4,293,255.4z"/>
		<path id="XMLID_1642_" class="st16" d="M277.5,252.8l-0.1-0.1c-0.2-0.2-0.2-0.4-0.1-0.6l0,0c0.2-0.2,0.4-0.2,0.6-0.1l0.1,0.1
			c0.2,0.2,0.2,0.4,0.1,0.6l0,0C278,252.9,277.7,253,277.5,252.8z"/>
		<path id="XMLID_1641_" class="st16" d="M279.5,255.5l-0.1-0.1c-0.2-0.2-0.2-0.4-0.1-0.6l0,0c0.2-0.2,0.4-0.2,0.6-0.1l0.1,0.1
			c0.2,0.2,0.2,0.4,0.1,0.6l0,0C279.9,255.6,279.7,255.6,279.5,255.5z"/>
		<path id="XMLID_1640_" class="st16" d="M282.2,257.5l-0.1-0.1c-0.2-0.2-0.2-0.4-0.1-0.6l0,0c0.2-0.2,0.4-0.2,0.6-0.1l0.1,0.1
			c0.2,0.2,0.2,0.4,0.1,0.6l0,0C282.6,257.6,282.4,257.7,282.2,257.5z"/>
		<path id="XMLID_1639_" class="st16" d="M285.1,258.8l-0.2-0.1c-0.2-0.1-0.4-0.3-0.3-0.6l0,0c0.1-0.2,0.3-0.4,0.6-0.3l0.2,0.1
			c0.2,0.1,0.4,0.3,0.3,0.6l0,0C285.6,258.8,285.3,258.9,285.1,258.8z"/>
		<path id="XMLID_1638_" class="st16" d="M288.2,259H288c-0.2,0-0.4-0.2-0.4-0.4l0,0c0-0.2,0.2-0.4,0.4-0.4h0.2
			c0.2,0,0.4,0.2,0.4,0.4l0,0C288.7,258.8,288.5,259,288.2,259z"/>
		<path id="XMLID_1637_" class="st16" d="M291.7,258.8h-0.2c-0.2,0-0.4-0.2-0.4-0.4l0,0c0-0.2,0.2-0.4,0.4-0.4h0.2
			c0.2,0,0.4,0.2,0.4,0.4l0,0C292.1,258.6,291.9,258.8,291.7,258.8z"/>
		<path id="XMLID_1636_" class="st17" d="M278.6,248.3c0,0,3.6,9.1,15.1,6.4"/>
		<path id="XMLID_1635_" class="st17" d="M276.7,250.3c0,0,3.8,11.4,16,8"/>
	</g>
	<path id="XMLID_1633_" class="st8" d="M368.2,214.5"/>
	
		<ellipse id="XMLID_1632_" transform="matrix(0.2945 -0.9557 0.9557 0.2945 -31.8414 434.1564)" class="st18" cx="278.1" cy="238.6" rx="2.6" ry="5.6"/>
	
		<ellipse id="XMLID_1631_" transform="matrix(0.2945 -0.9557 0.9557 0.2945 -25.551 460.4395)" class="st18" cx="299.1" cy="247.5" rx="2.6" ry="4.5"/>
	<path id="XMLID_1630_" class="st19" d="M304.4,247.2l-7.6-1.8c-1.9-0.5-3-2.4-2.6-4.3l2.3-9.2c0.5-1.9,2.4-3,4.3-2.6l7.6,1.8
		c1.9,0.5,3,2.4,2.6,4.3l-2.3,9.2C308.2,246.5,306.3,247.6,304.4,247.2z"/>
	<path id="XMLID_1629_" class="st19" d="M286.6,240.9L279,239c-1.9-0.5-3-2.4-2.6-4.3l2.3-9.2c0.5-1.9,2.4-3,4.3-2.6l7.6,1.8
		c1.9,0.5,3,2.4,2.6,4.3l-2.3,9.2C290.4,240.2,288.5,241.4,286.6,240.9z"/>
	<line id="XMLID_1628_" class="st19" x1="292.8" y1="230.2" x2="296.6" y2="231.6"/>
</g>
<g id="XMLID_1437_" class="st20">
	<path id="XMLID_1448_" class="st8" d="M347.8,112.3H415c0,0-3.4-8.2-7.6-8.5c-4.2-0.3-5.4,2.2-6.7,2c-1.3-0.3-3.5-7-8.9-7.3
		c-5.4-0.3-7.5,4.7-10.4,5.6c-2.9,0.9-8.7,0.4-13.3-6.9c-4.5-7.3-13.1,0.6-13.4,6.2c-0.3,8.7-13.5,3.9-13.5,8.9H347.8z"/>
	<path id="XMLID_1447_" class="st21" d="M501.9,228.8h-67.2c0,0,3.4-8.4,7.6-8.7c4.2-0.3,5.4,2.1,6.7,1.9c1.3-0.3,3.5-7,8.9-7.3
		c5.4-0.3,7.5,4.6,10.4,5.6c2.9,0.9,8.7,0.4,13.3-6.9c4.5-7.3,13.1,0.8,13.4,6.4c0.3,8.7,13.5,4.1,13.5,9.1H501.9z"/>
	<path id="XMLID_1446_" class="st8" d="M201.4,205h-67.2c0,0,3.4-8.2,7.6-8.5c4.2-0.3,5.4,2.2,6.7,2c1.3-0.3,3.5-7,8.9-7.3
		c5.4-0.3,7.5,4.7,10.4,5.6c2.9,0.9,8.7,0.4,13.3-6.9c4.5-7.3,13.1,0.6,13.4,6.2c0.3,8.7,13.5,3.9,13.5,8.9H201.4z"/>
</g>
</svg>
