<?xml version="1.0" encoding="utf-8"?>
<!-- Generator: Adobe Illustrator 21.0.0, SVG Export Plug-In . SVG Version: 6.00 Build 0)  -->
<svg version="1.1" id="Layer_1" xmlns="http://www.w3.org/2000/svg" xmlns:xlink="http://www.w3.org/1999/xlink" x="0px" y="0px"
	 viewBox="0 0 700 600" style="enable-background:new 0 0 700 600;" xml:space="preserve">
<style type="text/css">
	.st0{fill:url(#SVGID_1_);}
	.st1{fill:#F4C74A;}
	.st2{opacity:0.3;}
	.st3{fill:#FFFFFF;}
	.st4{fill:#FFFFFF;stroke:#FFFFFF;stroke-miterlimit:10;}
	.st5{opacity:0.4;}
	.st6{fill:#333333;}
	.st7{fill:#FBB03B;}
	.st8{fill:#36A9E1;}
	.st9{fill:#1688B5;}
	.st10{fill:#1B364F;}
	.st11{opacity:0.4;fill:#FFFFFF;}
	.st12{fill:#EDEDED;}
	.st13{fill:#DADADA;}
	.st14{fill:#FFF57D;}
	.st15{fill:#161616;}
	.st16{fill:#1D71B8;}
	.st17{fill:#FFCFC5;}
	.st18{fill:none;stroke:#FFFFFF;stroke-width:2;stroke-miterlimit:10;}
	.st19{fill:#FF6252;}
	.st20{opacity:0.43;fill:#274F6D;}
</style>
<g>
	<linearGradient id="SVGID_1_" gradientUnits="userSpaceOnUse" x1="373.1213" y1="615.7966" x2="371.6111" y2="-24.8321">
		<stop  offset="9.732377e-02" style="stop-color:#4A69BD"/>
		<stop  offset="0.3504" style="stop-color:#368BAF"/>
		<stop  offset="0.6011" style="stop-color:#27A6A5"/>
		<stop  offset="0.8239" style="stop-color:#1DB69E"/>
		<stop  offset="0.9959" style="stop-color:#1ABC9C"/>
	</linearGradient>
	<path class="st0" d="M692.9,389.7C692.9,524.5,506.4,564,355,564c-158.1,0-302.7-11.9-302.7-166.4S156,36,314.1,36
		S692.9,294.3,692.9,389.7z"/>
	<path class="st1" d="M52.3,397.6C52.3,243.8,155,38.1,311.7,36c-0.6,0-1.3,0-1.9,0C100.3,36,7.1,249.4,7.1,400.8
		S151.7,564,309.8,564c5.5,0,11.1-0.1,16.7-0.2C180,562,52.3,542.8,52.3,397.6z"/>
</g>
<g id="XMLID_2045_" class="st2">
	<path id="XMLID_2048_" class="st3" d="M306.3,101.4h-67.2c0,0,3.4-8.2,7.6-8.5c4.2-0.3,5.4,2.2,6.7,2c1.3-0.3,3.5-7,8.9-7.3
		c5.4-0.3,7.5,4.7,10.4,5.6c2.9,0.9,8.7,0.4,13.3-6.9c4.5-7.3,13.1,0.6,13.3,6.2c0.3,8.6,13.5,3.9,13.5,8.9H306.3z"/>
	<path id="XMLID_2047_" class="st4" d="M152.2,217.7h67.2c0,0-3.4-8.4-7.6-8.7c-4.2-0.3-5.4,2.1-6.7,1.9c-1.3-0.3-3.5-7-8.9-7.3
		c-5.4-0.3-7.5,4.6-10.4,5.6c-2.9,0.9-8.7,0.4-13.3-6.9c-4.5-7.3-13.1,0.8-13.3,6.4c-0.3,8.6-13.5,4.1-13.5,9.1H152.2z"/>
	<path id="XMLID_2046_" class="st3" d="M452.6,194h67.2c0,0-3.4-8.2-7.6-8.5c-4.2-0.3-5.4,2.2-6.7,2c-1.3-0.3-3.5-7-8.9-7.3
		c-5.4-0.3-7.5,4.7-10.4,5.6c-2.9,0.9-8.7,0.4-13.3-6.9c-4.5-7.3-13.1,0.6-13.3,6.2c-0.3,8.6-13.5,3.9-13.5,8.9H452.6z"/>
</g>
<g class="st5">
	<g>
		<path class="st6" d="M158.7,515.2c-0.8,0.7-2,1.3-3.4,1.9c-1.4,0.5-3,1-4.8,1.3c-1.8,0.4-3.7,0.6-5.6,0.9
			c-1.9,0.2-3.8,0.4-5.6,0.5c-1.9,0.1-3.5,0.1-5,0.1c-1.4,0-2.9,0-4.5-0.1c-1.6,0-3.3-0.1-5-0.1c-1.7,0-3.5-0.1-5.3-0.1
			c-1.8,0-3.6-0.1-5.3-0.1c-1.9,0-3.9,0-5.7,0.1c-1.9,0.1-3.7,0.1-5.4,0.3c0.9-0.4,1.8-0.9,2.5-1.6c0.7-0.6,1.3-1.3,1.8-2.1
			c0.5-0.8,0.9-1.6,1.1-2.4c0.3-0.9,0.4-1.8,0.4-2.7c0-0.8-0.1-1.7-0.3-2.5c-0.2-0.8-0.5-1.7-1-2.5c-0.4-0.8-1-1.6-1.6-2.3
			c-0.6-0.7-1.4-1.4-2.3-2.1c0.9,0.1,2.2,0.2,3.8,0.2c1.4,0.1,3.1,0.1,5.3,0.2c2.2,0,4.9,0.1,8.1,0.1c2.4,0,5,0,8-0.1
			c2.9,0,6.2-0.1,9.9-0.2c-1.9,0.6-3.4,1.3-4.5,2c-1.1,0.7-2,1.3-2.6,1.8c-0.7,0.6-1.2,1.3-1.6,1.9c1.4-0.2,2.9-0.3,4.4-0.4
			c1.5-0.1,3-0.1,4.5-0.1c2.7,0,5.4,0.1,7.9,0.4c2.6,0.3,4.8,0.6,6.8,1.1c2,0.5,3.6,1.1,4.8,1.8c1.2,0.7,1.8,1.5,1.8,2.3
			C160,513.7,159.5,514.5,158.7,515.2z M129.1,511.2c0,0.1,0,0.3,0,0.4c0,0.1,0,0.3,0,0.6c0,0.3,0.1,0.5,0.2,0.8s0.3,0.6,0.5,0.9
			c0.2,0.3,0.5,0.6,1,0.8s1,0.4,1.6,0.6c0.7,0.2,1.5,0.2,2.5,0.2c1.1,0,2.1-0.1,3-0.3c0.9-0.2,1.4-0.5,1.4-0.9c0-0.3-0.4-0.7-1.1-1
			c-0.7-0.3-1.6-0.7-2.6-1c-1-0.3-2.2-0.6-3.3-0.9c-1.2-0.3-2.2-0.5-3.1-0.7C129.2,510.9,129.1,511,129.1,511.2z"/>
		<path class="st6" d="M221.7,514.2c-1.5,1.2-3.5,2.3-6.2,3.1c-2.6,0.9-5.8,1.6-9.6,2.1c-3.7,0.5-7.9,0.8-12.4,0.8
			c-2.7,0-5.3-0.1-7.9-0.4c-2.5-0.2-4.9-0.6-7.2-1c-2.2-0.4-4.3-0.9-6.2-1.5c-1.9-0.6-3.5-1.3-4.8-2c-1.3-0.7-2.4-1.5-3.1-2.4
			c-0.8-0.8-1.1-1.7-1.1-2.6c0-1.2,0.6-2.4,1.8-3.5c1.2-1.1,3.1-2,5.6-2.8c2.5-0.8,5.6-1.4,9.4-1.9c3.8-0.5,8.3-0.7,13.4-0.7
			c5.2,0,9.7,0.2,13.5,0.7c3.8,0.5,6.9,1.1,9.4,1.9c2.5,0.8,4.3,1.8,5.6,2.8c1.2,1.1,1.8,2.2,1.8,3.5
			C223.9,511.7,223.1,513,221.7,514.2z M201.2,510c-0.4-0.4-0.9-0.8-1.6-1.1c-0.7-0.3-1.6-0.5-2.6-0.7c-1-0.2-2.2-0.3-3.4-0.3
			c-1.3,0-2.4,0.1-3.4,0.3c-1,0.2-1.8,0.4-2.5,0.7c-0.7,0.3-1.2,0.7-1.6,1.1c-0.4,0.4-0.6,0.9-0.6,1.3c0,0.5,0.2,1,0.6,1.5
			c0.4,0.5,1,1,1.8,1.4c0.7,0.4,1.6,0.7,2.6,1c1,0.3,2,0.4,3.1,0.4c1.1,0,2.2-0.1,3.2-0.3c1-0.2,1.9-0.5,2.6-0.9
			c0.7-0.4,1.3-0.8,1.8-1.3c0.4-0.5,0.6-1.1,0.6-1.7C201.8,510.8,201.6,510.4,201.2,510z"/>
		<path class="st6" d="M290.1,502.2c-0.6,0.2-1.2,0.3-1.7,0.5s-0.9,0.4-1.2,0.6c-0.3,0.2-0.6,0.5-0.8,0.7c-0.5,0.5-0.9,1.1-1,1.7
			c-0.1,0.6-0.1,1.1-0.2,1.6c-0.1,0.5-0.4,1-0.9,1.5c-0.6,0.4-1.5,0.8-2.8,1.2c-1.3,0.3-3.2,0.6-5.8,0.9c2.2,0.3,4,0.6,5.5,0.9
			c1.5,0.3,2.7,0.7,3.6,1c0.9,0.4,1.6,0.7,2,1.1c0.4,0.4,0.6,0.7,0.6,1.1c0,0.7-0.4,1.2-1.2,1.7c-0.8,0.5-1.8,0.9-3.2,1.3
			c-1.3,0.4-2.9,0.6-4.8,0.9c-1.8,0.2-3.8,0.4-5.9,0.5c-2.1,0.1-4.3,0.2-6.6,0.3c-2.3,0.1-4.6,0.1-6.9,0.1c-1.7,0-3.2,0-4.5,0
			c-1.4,0-2.7,0-3.9,0c-1.3,0-2.5,0-3.8,0c-1.3,0-2.7,0-4.2,0c-1.7,0-3.8,0-6.3,0s-5,0.1-7.6,0.2c1.1-0.3,2-0.7,2.8-1.1
			c0.7-0.5,1.3-1,1.8-1.6c0.4-0.6,0.8-1.2,1-1.8c0.2-0.6,0.3-1.2,0.4-1.8c0.1-0.6,0.1-1.1,0.1-1.6c0-0.5,0-0.9,0-1.2
			c-0.2-1.3-0.6-2.6-1.3-3.7c-0.3-0.5-0.6-1-1-1.5s-0.8-1-1.4-1.5c-0.5-0.5-1.2-0.9-1.9-1.3c-0.7-0.4-1.5-0.7-2.3-1
			c2.2,0.1,4.7,0.2,7.5,0.3c2.8,0,5.5,0.1,8.3,0.1c2.1,0,4.2,0,6.1,0c2,0,3.7,0,5.2-0.1c1.5,0,2.7-0.1,3.6-0.1
			c0.9,0,1.4-0.1,1.4-0.1c-0.5,0.6-1,1.2-1.3,1.7c-0.4,0.5-0.6,1-0.8,1.5c-0.2,0.5-0.3,0.9-0.4,1.3c-0.1,0.4-0.1,0.8-0.1,1.2
			c0,0.4,0,0.7,0.1,1.1c0,0.3,0.1,0.7,0.2,1.1c1-0.2,1.9-0.4,2.8-0.7c0.8-0.2,1.5-0.6,2.1-1c0.6-0.4,1-0.9,1.3-1.5
			c0.3-0.6,0.5-1.3,0.5-2.2c0-0.2,0-0.4-0.1-0.7c-0.1-0.2-0.1-0.4-0.2-0.6c-0.1-0.2-0.2-0.4-0.4-0.6c-0.1-0.2-0.3-0.5-0.4-0.7
			c1,0.1,2.4,0.1,4,0.2c1.4,0,3.3,0.1,5.6,0.1c2.3,0,5.1,0.1,8.5,0.1c1.7,0,3.6,0,5.6,0c2,0,4.2,0,6.6-0.1
			C291.5,501.9,290.8,502.1,290.1,502.2z M256.4,512.7c0,0.1,0,0.2,0,0.3c0,0.2,0.1,0.4,0.2,0.8c0.1,0.3,0.4,0.7,0.8,1
			c0.4,0.3,0.9,0.6,1.6,0.8c0.7,0.2,1.6,0.4,2.8,0.4c0.8,0,1.6-0.1,2.2-0.2c0.7-0.2,1-0.4,1-0.6c0-0.3-0.3-0.5-0.9-0.8
			c-0.6-0.3-1.3-0.5-2.1-0.8c-0.8-0.2-1.8-0.5-2.8-0.7c-1-0.2-1.9-0.4-2.7-0.5C256.4,512.5,256.4,512.6,256.4,512.7z"/>
		<path class="st6" d="M334.4,504.7c-0.7,0.9-1.3,1.7-1.8,2.6c-0.5,0.9-0.8,1.8-1,2.6c-0.2,0.9-0.4,1.7-0.4,2.5
			c0,0.6,0.1,1.3,0.2,1.9c0.1,0.6,0.3,1.2,0.6,1.7c3.6-0.7,6.9-1.5,10.1-2.5s6-2,8.6-3.1l-2,9.4c-4.6-0.2-9.7-0.3-15.2-0.4
			c-5.5-0.1-11.1-0.1-16.7-0.1c-3.9,0-7.8,0-11.5,0.1c-3.8,0-7.3,0.1-10.7,0.2l-1.3-9.3c1,0.4,2.2,0.9,3.5,1.4
			c1.3,0.5,2.8,0.9,4.3,1.4c1.5,0.5,3.2,0.9,4.8,1.3c1.7,0.4,3.4,0.8,5,1.2c0.2-0.6,0.3-1.2,0.4-1.7c0.1-0.5,0.2-1,0.3-1.4
			c0.1-0.5,0.1-0.9,0.1-1.3c-0.1-0.9-0.3-1.9-0.6-2.9c-0.3-0.9-0.8-1.9-1.5-3c-0.6-1.1-1.6-2.3-2.9-3.5c3.7,0.1,7.2,0.2,10.6,0.3
			c3.3,0,6.3,0.1,9,0.1c1.6,0,3,0,4.3,0c1.3,0,2.4,0,3.3,0c1.1,0,2,0,2.9,0C335.9,502.9,335.1,503.8,334.4,504.7z"/>
		<path class="st6" d="M405.9,519.9c-2.7-0.1-5.6-0.2-8.7-0.3c-2.7-0.1-5.8-0.2-9.4-0.2c-3.6-0.1-7.3-0.1-11.3-0.1
			c-3.5,0-7,0-10.6,0.1c-3.6,0.1-7.1,0.2-10.6,0.3c0.5-0.2,0.9-0.5,1.2-0.8c0.3-0.4,0.6-0.8,0.9-1.2c0.3-0.4,0.5-0.9,0.7-1.4
			c0.2-0.5,0.4-1,0.5-1.5s0.2-1,0.3-1.4c0.1-0.5,0.1-0.9,0.2-1.2s0.1-0.6,0.1-0.9c0-0.2,0-0.3,0-0.4c0-0.2,0-0.4,0-0.9
			c0-0.4-0.1-0.9-0.2-1.5c-0.1-0.6-0.3-1.2-0.5-1.8s-0.5-1.3-0.9-1.9s-0.9-1.2-1.4-1.8c-0.6-0.6-1.3-1-2.1-1.4
			c1.8,0.1,3.8,0.2,5.8,0.3c2,0.1,4,0.2,6,0.2c2,0,3.9,0.1,5.8,0.1c1.9,0,3.7,0,5.3,0c1.4,0,2.6,0,3.7,0c1.1,0,2.1,0,2.9,0
			c0.9,0,1.8,0,2.6,0c-0.8,0.3-1.4,0.7-2,1c-0.6,0.3-1.1,0.7-1.5,1s-0.8,0.7-1.1,1c-0.3,0.3-0.5,0.6-0.7,0.9
			c-0.4,0.7-0.7,1.3-0.8,1.9c0,0.3,0.1,0.5,0.3,0.7c0.2,0.2,0.5,0.4,0.9,0.6c0.4,0.2,1.1,0.3,1.8,0.4c0.8,0.1,1.8,0.1,2.9,0.1
			c0.2,0,0.6,0,1.3,0c0.6,0,1.3-0.1,2.2-0.2c0.8-0.1,1.7-0.2,2.6-0.4c0.9-0.2,1.7-0.4,2.5-0.7v5c-0.9-0.3-1.9-0.5-2.8-0.7
			c-0.9-0.2-1.8-0.3-2.5-0.3c-0.8-0.1-1.4-0.1-1.9-0.1c-0.5,0-0.8,0-0.9,0c-1.2,0-2.2,0.1-3,0.2s-1.4,0.3-1.9,0.4
			c-0.5,0.2-0.8,0.4-1,0.6c-0.2,0.2-0.3,0.4-0.3,0.6c0,0.2,0.1,0.4,0.4,0.6c0.2,0.2,0.7,0.4,1.3,0.5c0.6,0.2,1.5,0.3,2.6,0.4
			c1.1,0.1,2.6,0.2,4.4,0.2c0.1,0,0.8,0,1.9,0c1.1,0,2.5-0.1,4.2-0.2c1.7-0.1,3.5-0.3,5.4-0.5s3.8-0.6,5.6-1V519.9z"/>
		<path class="st6" d="M466.9,514.2c-1.5,1.2-3.5,2.3-6.2,3.1c-2.6,0.9-5.8,1.6-9.6,2.1c-3.7,0.5-7.9,0.8-12.4,0.8
			c-2.7,0-5.3-0.1-7.9-0.4c-2.5-0.2-4.9-0.6-7.2-1c-2.2-0.4-4.3-0.9-6.2-1.5c-1.9-0.6-3.5-1.3-4.8-2c-1.3-0.7-2.4-1.5-3.1-2.4
			s-1.1-1.7-1.1-2.6c0-1.2,0.6-2.4,1.8-3.5c1.2-1.1,3.1-2,5.6-2.8c2.5-0.8,5.6-1.4,9.4-1.9s8.3-0.7,13.4-0.7c5.2,0,9.7,0.2,13.5,0.7
			s6.9,1.1,9.4,1.9c2.5,0.8,4.3,1.8,5.6,2.8c1.2,1.1,1.8,2.2,1.8,3.5C469.1,511.7,468.3,513,466.9,514.2z M446.4,510
			c-0.4-0.4-0.9-0.8-1.6-1.1c-0.7-0.3-1.6-0.5-2.6-0.7c-1-0.2-2.2-0.3-3.4-0.3c-1.3,0-2.4,0.1-3.4,0.3c-1,0.2-1.8,0.4-2.5,0.7
			c-0.7,0.3-1.2,0.7-1.6,1.1c-0.4,0.4-0.6,0.9-0.6,1.3c0,0.5,0.2,1,0.6,1.5c0.4,0.5,1,1,1.8,1.4c0.7,0.4,1.6,0.7,2.6,1
			c1,0.3,2,0.4,3.1,0.4c1.1,0,2.2-0.1,3.2-0.3c1-0.2,1.9-0.5,2.6-0.9c0.7-0.4,1.3-0.8,1.8-1.3c0.4-0.5,0.6-1.1,0.6-1.7
			C447,510.8,446.8,510.4,446.4,510z"/>
		<path class="st6" d="M519.9,508.7c-1.6-0.7-3.5-1.2-5.7-1.6s-4.5-0.6-6.7-0.6c-1.7,0-3.2,0.1-4.5,0.3c-1.3,0.2-2.4,0.5-3.3,0.8
			c-0.9,0.4-1.6,0.9-2.1,1.5c-0.5,0.6-0.7,1.3-0.7,2.2c0,0.7,0.1,1.4,0.4,2.1s0.6,1.4,1.1,2.2c0.5,0.7,1.1,1.4,1.8,2.1
			s1.4,1.3,2.2,1.9c-0.7,0-1.5,0-2.4-0.1c-0.8,0-1.8,0-2.9,0c-1.2,0-2.5,0-3.9,0c-2.3,0-5,0-8.1,0.1s-6.4,0.2-10.2,0.3
			c0.5-0.5,1-1.1,1.4-1.7s0.7-1.3,1-1.9s0.5-1.4,0.6-2.1c0.1-0.7,0.2-1.5,0.2-2.3c0-0.9-0.1-1.9-0.3-2.8c-0.2-0.9-0.5-1.8-0.8-2.7
			c-0.4-0.9-0.8-1.7-1.3-2.5s-1.2-1.5-1.9-2.1c3.1,0.1,6.1,0.2,9,0.3s5.4,0.1,7.6,0.2c2.6,0,5,0.1,7.2,0.1c0.1,0,0.6,0,1.5,0
			s2.1,0,3.6,0c1.5,0,3.1,0,4.9,0c1.8,0,3.7,0,5.5-0.1c1.9,0,3.6-0.1,5.3-0.1c1.7,0,3.2-0.1,4.5-0.2L519.9,508.7z"/>
		<path class="st6" d="M554.6,504.5c-0.6,0.8-1.2,1.7-1.6,2.5c-0.4,0.9-0.7,1.7-0.9,2.6c-0.2,0.9-0.3,1.7-0.3,2.6
			c0,0.7,0.1,1.4,0.2,2.1c0.1,0.7,0.3,1.4,0.6,2c0.3,0.6,0.5,1.2,0.9,1.8c0.3,0.6,0.7,1.1,1.1,1.5c-0.8,0-1.7,0-2.8-0.1
			c-0.9,0-2,0-3.3,0c-1.3,0-2.8,0-4.4,0c-2.4,0-5.2,0-8.2,0.1s-6.4,0.1-10,0.3c0.5-0.2,0.9-0.5,1.2-0.8c0.3-0.4,0.6-0.8,0.9-1.2
			c0.3-0.4,0.5-0.9,0.7-1.4c0.2-0.5,0.4-1,0.5-1.5c0.1-0.5,0.2-1,0.3-1.4c0.1-0.5,0.1-0.9,0.2-1.2c0-0.3,0.1-0.6,0.1-0.9
			c0-0.2,0-0.3,0-0.4c0-0.2,0-0.4,0-0.9c0-0.4-0.1-0.9-0.2-1.5c-0.1-0.6-0.3-1.2-0.5-1.8s-0.5-1.3-0.9-1.9s-0.9-1.2-1.4-1.8
			c-0.6-0.6-1.3-1-2.1-1.4c4.5,0.2,8.7,0.3,12.5,0.3c3.9,0.1,7.2,0.1,10.1,0.1c1.5,0,2.8,0,4,0c1.2,0,2.1,0,3,0c0.9,0,1.8,0,2.5,0
			C556,502.9,555.2,503.7,554.6,504.5z"/>
		<path class="st6" d="M619.1,514.2c-1.5,1.2-3.5,2.3-6.2,3.1c-2.6,0.9-5.8,1.6-9.6,2.1c-3.7,0.5-7.9,0.8-12.4,0.8
			c-2.7,0-5.3-0.1-7.9-0.4c-2.5-0.2-4.9-0.6-7.2-1c-2.2-0.4-4.3-0.9-6.2-1.5c-1.9-0.6-3.5-1.3-4.8-2c-1.3-0.7-2.4-1.5-3.1-2.4
			s-1.1-1.7-1.1-2.6c0-1.2,0.6-2.4,1.8-3.5c1.2-1.1,3.1-2,5.6-2.8c2.5-0.8,5.6-1.4,9.4-1.9s8.3-0.7,13.4-0.7c5.2,0,9.7,0.2,13.5,0.7
			s6.9,1.1,9.4,1.9c2.5,0.8,4.3,1.8,5.6,2.8c1.2,1.1,1.8,2.2,1.8,3.5C621.3,511.7,620.6,513,619.1,514.2z M598.6,510
			c-0.4-0.4-0.9-0.8-1.6-1.1c-0.7-0.3-1.6-0.5-2.6-0.7c-1-0.2-2.2-0.3-3.4-0.3c-1.3,0-2.4,0.1-3.4,0.3c-1,0.2-1.8,0.4-2.5,0.7
			c-0.7,0.3-1.2,0.7-1.6,1.1c-0.4,0.4-0.6,0.9-0.6,1.3c0,0.5,0.2,1,0.6,1.5c0.4,0.5,1,1,1.8,1.4c0.7,0.4,1.6,0.7,2.6,1
			c1,0.3,2,0.4,3.1,0.4c1.1,0,2.2-0.1,3.2-0.3c1-0.2,1.9-0.5,2.6-0.9c0.7-0.4,1.3-0.8,1.8-1.3c0.4-0.5,0.6-1.1,0.6-1.7
			C599.2,510.8,599,510.4,598.6,510z"/>
	</g>
</g>
<g>
	<path class="st7" d="M162.2,457.6c0,3.8-0.6,7.2-1.8,10.2c-1.2,3-2.8,5.6-4.8,7.7c-2,2.1-4.2,3.8-6.8,4.9c-2.5,1.1-5.2,1.7-7.9,1.7
		c-1.5,0-3-0.2-4.5-0.5c-1.5-0.3-2.9-0.9-4.4-1.7c0.3,2.7,0.8,5.4,1.6,8.2c0.6,2.4,1.5,5.1,2.6,8s2.6,5.8,4.5,8.7
		c-3.7-0.4-6.9-0.7-9.9-0.8c-2.9-0.2-5.6-0.2-7.9-0.2c-3.2,0-5.9,0.1-8,0.3c-2.2,0.2-3.9,0.5-5.3,0.8c-1.6,0.3-2.8,0.7-3.8,1
		c0.9-2.8,1.7-5.8,2.3-9c0.6-3.3,1.2-6.7,1.6-10.2s0.8-7.2,1-10.9s0.3-7.4,0.3-11c0-4-0.1-7.9-0.4-11.7c-0.3-3.8-0.6-7.4-1.1-10.7
		c-0.5-3.3-1.1-6.4-1.8-9.2c-0.7-2.8-1.5-5.1-2.5-6.9c1.7,0.5,3.5,0.9,5.4,1.2c1.9,0.2,3.8,0.3,5.7,0.3c1.8,0,3.5-0.1,5.3-0.2
		s3.5-0.3,5.2-0.5c1.7-0.2,3.4-0.3,5-0.5c1.6-0.2,3.1-0.2,4.5-0.2c1.5,0,3.2,0.2,5,0.6c1.8,0.4,3.7,1.1,5.6,2
		c1.9,0.9,3.7,2.2,5.5,3.8c1.8,1.6,3.4,3.5,4.8,5.9c1.4,2.3,2.5,5.1,3.4,8.2C161.7,449.8,162.1,453.4,162.2,457.6z M131.5,466.3
		c0.9-0.9,1.9-1.9,3.1-3.1c1.2-1.2,2.3-2.6,3.3-4c1-1.5,1.9-2.9,2.6-4.5c0.7-1.5,1-3,1-4.4c0-1.6-0.5-2.9-1.4-3.8
		c-0.9-0.9-1.9-1.4-3-1.4c-1,0-1.8,0.3-2.5,1c-0.7,0.7-1.2,1.6-1.6,2.7c-0.4,1.1-0.8,2.3-1,3.7c-0.2,1.3-0.4,2.7-0.5,4
		c-0.1,1.3-0.2,2.5-0.2,3.7s0,2,0,2.7c0,0.6,0,1.2,0,1.8C131.4,465,131.5,465.7,131.5,466.3z"/>
	<path class="st7" d="M225.7,468.5c0,5.4-0.6,10.6-1.8,15.3c-1.2,4.8-3.1,9-5.5,12.5c-2.5,3.6-5.6,6.4-9.4,8.4
		c-3.8,2.1-8.2,3.1-13.4,3.1c-5.1,0-9.6-1-13.3-3.1c-3.8-2.1-6.9-4.9-9.4-8.4c-2.5-3.6-4.3-7.7-5.6-12.5c-1.2-4.8-1.8-9.9-1.8-15.3
		c0-4,0.4-7.9,1.1-11.6c0.8-3.7,1.8-7.2,3.1-10.4c1.3-3.2,2.9-6.2,4.8-8.8c1.9-2.6,3.9-4.9,6.1-6.8c2.2-1.9,4.6-3.3,7.1-4.4
		c2.5-1,5.1-1.6,7.8-1.6c4.5,0,8.6,1.1,12.3,3.3c3.7,2.2,6.9,5.3,9.5,9.2c2.6,3.9,4.7,8.5,6.1,13.8
		C225,456.5,225.7,462.3,225.7,468.5z M203.7,463.9c0-2.7-0.2-5.2-0.6-7.4c-0.4-2.3-1-4.2-1.7-5.9c-0.7-1.7-1.6-3-2.6-3.9
		c-1-0.9-2.1-1.4-3.2-1.4c-1.1,0-2.1,0.6-3.1,1.7c-1,1.1-1.8,2.6-2.6,4.4c-0.7,1.8-1.3,3.8-1.7,6c-0.4,2.2-0.6,4.4-0.6,6.6
		c0,2.1,0.2,4.1,0.6,5.9s0.9,3.4,1.6,4.7c0.7,1.3,1.5,2.4,2.5,3.1c1,0.8,2.1,1.2,3.4,1.2c1.2,0,2.3-0.4,3.4-1.2
		c1-0.8,1.9-1.8,2.6-3.1c0.7-1.3,1.2-2.9,1.6-4.7C203.5,468,203.7,466,203.7,463.9z"/>
	<path class="st7" d="M293.8,505.4c-2.3-0.2-4.5-0.3-6.5-0.3c-2-0.1-3.9-0.1-5.6-0.1c-3.4,0-6.2,0.1-8.4,0.3
		c-2.3,0.2-4.1,0.4-5.5,0.6c-1.7,0.3-3,0.5-4,0.9c0.1-1.1,0.3-2.1,0.4-3.1c0.1-1,0.3-1.9,0.3-2.8c0.1-0.9,0.2-1.8,0.2-2.7
		s0.1-1.9,0.1-2.9c0-3.9-0.2-7.2-0.5-9.8c-0.3-2.6-0.7-4.8-1.3-6.6c-0.6-1.8-1.3-3.2-2.1-4.2c-0.8-1.1-1.7-2-2.7-2.9
		c-0.1,1.6-0.1,3.2-0.2,4.7c0,1.5-0.1,3.1-0.1,4.8c0,1.6,0,3.4,0.1,5.2c0.1,1.8,0.2,3.7,0.4,5.7c0.2,2,0.4,4.1,0.8,6.4
		c0.4,2.3,0.8,4.7,1.3,7.4c0-0.1-0.5-0.3-1.4-0.5c-0.9-0.2-2.1-0.3-3.6-0.5c-1.5-0.1-3.2-0.3-5.2-0.3c-2-0.1-4-0.1-6.1-0.1
		c-2.8,0-5.5,0.1-8.3,0.3c-2.8,0.2-5.2,0.6-7.5,1.2c0.9-1.1,1.6-2.5,2.3-4.2c0.7-1.7,1.3-3.6,1.9-5.6c0.5-2,1-4.2,1.4-6.4
		s0.7-4.5,1-6.7c0.6-5.1,1.1-10.6,1.3-16.4c0-1.4,0-3.2,0-5.4c0-2.2,0-4.6-0.1-7.1c-0.1-2.6-0.2-5.2-0.4-7.9c-0.2-2.7-0.5-5.3-1-7.8
		c-0.4-2.5-1-4.8-1.7-6.9c-0.7-2.1-1.6-3.7-2.7-5c2.6,0.4,5.1,0.7,7.5,0.8c2.4,0.1,4.5,0.2,6.2,0.2c1.5,0,2.9,0,4.2-0.1
		c1.3-0.1,2.5-0.1,3.8-0.2c1.3-0.1,2.6-0.1,3.9-0.2c1.4-0.1,2.9-0.1,4.5-0.1c2.3,0,4.5,0.1,6.8,0.3c2.3,0.2,4.5,0.6,6.6,1.2
		c2.1,0.6,4,1.4,5.9,2.4c1.8,1,3.4,2.3,4.7,3.9s2.4,3.4,3.2,5.6c0.8,2.2,1.2,4.7,1.2,7.6c0,1.6-0.2,3.2-0.6,4.8
		c-0.4,1.6-1.1,3.2-2,4.8c-0.9,1.6-2.1,3-3.6,4.5c-1.5,1.4-3.3,2.7-5.5,3.9c2.5,1,4.5,2.3,5.8,3.9c1.3,1.5,2.2,3.3,2.8,5.3
		c0.6,2,0.9,4.1,0.9,6.4s0.1,4.7,0.2,7.2c0.1,2.7,0.5,5.2,1,7.5c0.2,1,0.5,2,0.8,3c0.3,1,0.8,1.9,1.2,2.8c0.5,0.9,1,1.6,1.7,2.3
		C292.2,504.5,293,505,293.8,505.4z M258.1,459.1c0.8-0.6,1.7-1.3,2.7-2.2c1-0.9,1.9-1.8,2.7-2.9c0.8-1.1,1.5-2.2,2.1-3.4
		s0.9-2.4,0.9-3.5c0-1.1-0.3-2.1-1-2.8c-0.7-0.7-1.4-1.1-2.2-1.1c-1.1,0-2.1,0.5-2.7,1.6c-0.7,1.1-1.2,2.3-1.6,3.7
		c-0.4,1.4-0.6,2.9-0.8,4.3c-0.1,1.5-0.2,2.6-0.2,3.4c0,0.4,0,0.9,0,1.4S258.1,458.6,258.1,459.1z"/>
	<path class="st7" d="M338.2,504.3c-0.8-0.1-1.8-0.1-2.8-0.2c-0.9-0.1-2-0.1-3.3-0.2c-1.3,0-2.7-0.1-4.2-0.1c-2.7,0-5.6,0.1-8.9,0.3
		c-3.3,0.2-6.8,0.6-10.5,1.1c1.3-5.3,2.2-10.4,2.8-15.3s1.1-9.3,1.5-13.1c0.4-4.5,0.6-8.7,0.6-12.6c0-1.7,0-3.5-0.1-5.5
		c-0.1-1.7-0.2-3.7-0.3-6s-0.3-4.7-0.4-7.4c-1.7,1.6-3.4,3.3-5,5.2c-1.7,1.8-3.3,3.8-4.8,5.7c-1.5,2-3,4-4.3,6c-1.3,2-2.5,4-3.5,6
		l1.3-41c3.4,0.4,6.9,0.7,10.7,0.9c3.7,0.2,7.6,0.3,11.5,0.3c5.6,0,11.1-0.2,16.6-0.6c5.5-0.4,10.5-1,15.1-1.7l2,41.5
		c-2.6-4.9-5.4-9.5-8.6-13.8s-6.5-7.9-10-10.8c-0.3,2.4-0.5,5-0.6,7.7c-0.1,2.7-0.2,5.4-0.2,8.2c0,3.6,0.1,7.3,0.3,11.1
		c0.2,3.8,0.6,7.7,1,11.5c0.4,3.9,1,7.7,1.7,11.5C336.3,496.9,337.2,500.6,338.2,504.3z"/>
	<path class="st7" d="M406.8,451.1c-1.8-1.9-3.6-3.4-5.5-4.4c-1.9-1.1-3.7-1.8-5.4-2.3s-3-0.8-4.1-0.9c-1.1-0.1-1.7-0.1-1.9-0.1
		c-1.8,0-3.2,0.2-4.4,0.7c-1.1,0.4-2,1-2.6,1.7c-0.6,0.7-1.1,1.5-1.3,2.4c-0.2,0.9-0.3,1.8-0.3,2.7c0,0.9,0.1,1.8,0.3,2.7
		c0.2,0.9,0.5,1.8,1,2.6c0.5,0.8,1.1,1.4,1.9,1.9c0.8,0.5,1.8,0.8,3,0.8c0.1,0,0.4,0,0.9,0c0.5,0,1.1-0.2,1.9-0.4s1.6-0.7,2.5-1.4
		c0.9-0.7,1.8-1.6,2.8-2.9v21.9c-0.8-1.4-1.6-2.4-2.5-3.2c-0.9-0.8-1.7-1.4-2.6-1.7s-1.5-0.6-2.1-0.7c-0.6-0.1-1-0.1-1.3-0.1
		c-1.2,0-2.2,0.2-2.9,0.6c-0.8,0.4-1.4,0.9-1.8,1.6c-0.4,0.7-0.8,1.5-0.9,2.5c-0.2,1-0.3,2.1-0.3,3.3c0.1,2.8,0.4,5.6,0.8,8.5
		c0.2,1.3,0.4,2.6,0.7,4c0.3,1.4,0.6,2.8,1.1,4.3c0.4,1.5,0.9,3,1.5,4.5c0.6,1.5,1.2,2.9,2,4.4c-0.8,0-1.6-0.1-2.6-0.2
		c-0.8-0.1-1.8-0.1-2.9-0.2c-1.1,0-2.3-0.1-3.7-0.1c-1.6,0-3.4,0-5.3,0.1c-1.9,0.1-3.8,0.2-5.8,0.5c-2,0.2-4,0.5-6,0.9
		c-2,0.4-3.9,0.9-5.7,1.4c0.8-1.6,1.5-3.7,2-6.1c0.6-2.5,1-5.1,1.4-7.9s0.7-5.6,0.9-8.5s0.4-5.6,0.5-8.1c0.1-2.5,0.2-4.7,0.2-6.5
		c0-1.8,0-3.1,0-3.8c0-0.1,0-0.7,0-1.7c0-1,0-2.2-0.1-3.8c0-1.5-0.1-3.3-0.2-5.3c-0.1-2-0.2-4.1-0.3-6.2c-0.1-2.1-0.3-4.3-0.5-6.5
		c-0.2-2.2-0.4-4.3-0.7-6.2s-0.6-3.7-0.9-5.3c-0.3-1.6-0.7-2.8-1.2-3.7c3.4,0.7,6.9,1.2,10.5,1.5c3.6,0.3,7.1,0.5,10.6,0.5
		c4,0,7.7-0.1,11.3-0.4s6.7-0.6,9.3-0.9c3.2-0.4,6.1-0.9,8.7-1.4V451.1z"/>
	<path class="st7" d="M469.6,468.5c0,5.4-0.6,10.6-1.8,15.3c-1.2,4.8-3.1,9-5.5,12.5c-2.5,3.6-5.6,6.4-9.4,8.4
		c-3.8,2.1-8.2,3.1-13.4,3.1c-5.1,0-9.6-1-13.3-3.1c-3.8-2.1-6.9-4.9-9.4-8.4c-2.5-3.6-4.3-7.7-5.6-12.5c-1.2-4.8-1.8-9.9-1.8-15.3
		c0-4,0.4-7.9,1.1-11.6c0.8-3.7,1.8-7.2,3.1-10.4c1.3-3.2,2.9-6.2,4.8-8.8c1.9-2.6,3.9-4.9,6.1-6.8s4.6-3.3,7.1-4.4
		c2.5-1,5.1-1.6,7.8-1.6c4.5,0,8.6,1.1,12.3,3.3s6.9,5.3,9.5,9.2c2.6,3.9,4.7,8.5,6.1,13.8C468.9,456.5,469.6,462.3,469.6,468.5z
		 M447.7,463.9c0-2.7-0.2-5.2-0.6-7.4c-0.4-2.3-1-4.2-1.7-5.9c-0.7-1.7-1.6-3-2.6-3.9c-1-0.9-2.1-1.4-3.2-1.4
		c-1.1,0-2.1,0.6-3.1,1.7s-1.8,2.6-2.6,4.4c-0.7,1.8-1.3,3.8-1.7,6c-0.4,2.2-0.6,4.4-0.6,6.6c0,2.1,0.2,4.1,0.6,5.9s0.9,3.4,1.6,4.7
		c0.7,1.3,1.5,2.4,2.5,3.1c1,0.8,2.1,1.2,3.4,1.2c1.2,0,2.3-0.4,3.4-1.2c1-0.8,1.9-1.8,2.6-3.1c0.7-1.3,1.2-2.9,1.6-4.7
		C447.5,468,447.7,466,447.7,463.9z"/>
	<path class="st7" d="M523.1,505.3c-1.3-0.3-2.7-0.5-4.4-0.8c-1.7-0.2-3.5-0.4-5.3-0.5c-1.8-0.1-3.7-0.2-5.5-0.2
		c-1.8-0.1-3.4-0.1-4.9-0.1s-2.6,0-3.6,0c-0.9,0-1.4,0-1.5,0c-2.2,0-4.6,0.1-7.2,0.3c-2.2,0.2-4.8,0.4-7.6,0.8
		c-2.8,0.3-5.8,0.8-8.9,1.4c0.7-2.8,1.3-5.8,1.9-9.3c0.5-3.4,1-7,1.3-10.9c0.4-3.8,0.6-7.8,0.8-11.9c0.2-4.1,0.3-8.2,0.3-12.2
		c0-3.4-0.1-6.7-0.2-10c-0.1-3.3-0.3-6.4-0.6-9.4s-0.6-5.9-1-8.5s-0.8-5.1-1.4-7.4c3.7,0.7,7.1,1.1,10.1,1.3c3,0.2,5.7,0.3,8,0.3
		c1.5,0,2.8,0,3.9-0.1s2.1-0.1,2.9-0.2c0.9-0.1,1.7-0.2,2.4-0.3c-0.8,2.6-1.5,5.4-2.2,8.4c-0.7,3-1.3,6.1-1.7,9.3s-0.9,6.3-1.1,9.5
		c-0.3,3.2-0.4,6.2-0.4,9.1c0,3.7,0.2,6.8,0.7,9.5c0.5,2.6,1.2,4.8,2.1,6.4s2,2.9,3.3,3.7c1.3,0.8,2.8,1.2,4.5,1.2
		c2.3,0,4.5-0.8,6.7-2.4c2.2-1.6,4.1-4,5.7-7.1L523.1,505.3z"/>
	<path class="st7" d="M557.1,504.2c-0.8-0.1-1.6-0.1-2.5-0.2c-0.8-0.1-1.8-0.1-3-0.2c-1.1,0-2.5-0.1-4-0.1c-2.9,0-6.3,0.1-10.1,0.4
		c-3.8,0.3-8,0.7-12.5,1.5c0.8-1.6,1.5-3.7,2-6.1c0.6-2.5,1-5.1,1.4-7.9c0.4-2.8,0.7-5.7,0.9-8.6s0.4-5.6,0.5-8.1
		c0.1-2.5,0.2-4.7,0.2-6.5c0-1.8,0-3.1,0-3.8c0-0.1,0-0.7,0-1.7c0-1,0-2.2-0.1-3.8c0-1.5-0.1-3.3-0.2-5.3c-0.1-2-0.2-4.1-0.3-6.2
		c-0.1-2.1-0.3-4.3-0.5-6.5c-0.2-2.2-0.4-4.2-0.7-6.2s-0.6-3.7-0.9-5.2c-0.3-1.6-0.7-2.8-1.2-3.7c3.6,0.6,6.9,1.1,10,1.3
		c3,0.2,5.8,0.3,8.2,0.3c1.6,0,3.1,0,4.3-0.1c1.3-0.1,2.4-0.1,3.3-0.2c1-0.1,2-0.2,2.7-0.3c-0.4,2-0.8,4.2-1.1,6.7
		c-0.3,2.5-0.6,5.1-0.9,7.8c-0.3,2.8-0.4,5.7-0.6,8.7c-0.1,3-0.2,6.2-0.2,9.4c0,3.7,0.1,7.5,0.3,11.4c0.2,3.8,0.5,7.7,0.9,11.5
		c0.4,3.8,0.9,7.5,1.6,11.2C555.4,497.4,556.1,500.9,557.1,504.2z"/>
	<path class="st7" d="M621.1,468.5c0,5.4-0.6,10.6-1.8,15.3c-1.2,4.8-3.1,9-5.5,12.5c-2.5,3.6-5.6,6.4-9.4,8.4
		c-3.8,2.1-8.2,3.1-13.4,3.1c-5.1,0-9.6-1-13.3-3.1c-3.8-2.1-6.9-4.9-9.4-8.4c-2.5-3.6-4.3-7.7-5.6-12.5c-1.2-4.8-1.8-9.9-1.8-15.3
		c0-4,0.4-7.9,1.1-11.6c0.8-3.7,1.8-7.2,3.1-10.4c1.3-3.2,2.9-6.2,4.8-8.8c1.9-2.6,3.9-4.9,6.1-6.8s4.6-3.3,7.1-4.4
		c2.5-1,5.1-1.6,7.8-1.6c4.5,0,8.6,1.1,12.3,3.3s6.9,5.3,9.5,9.2c2.6,3.9,4.7,8.5,6.1,13.8C620.4,456.5,621.1,462.3,621.1,468.5z
		 M599.1,463.9c0-2.7-0.2-5.2-0.6-7.4c-0.4-2.3-1-4.2-1.7-5.9c-0.7-1.7-1.6-3-2.6-3.9c-1-0.9-2.1-1.4-3.2-1.4
		c-1.1,0-2.1,0.6-3.1,1.7s-1.8,2.6-2.6,4.4c-0.7,1.8-1.3,3.8-1.7,6c-0.4,2.2-0.6,4.4-0.6,6.6c0,2.1,0.2,4.1,0.6,5.9s0.9,3.4,1.6,4.7
		c0.7,1.3,1.5,2.4,2.5,3.1c1,0.8,2.1,1.2,3.4,1.2c1.2,0,2.3-0.4,3.4-1.2c1-0.8,1.9-1.8,2.6-3.1c0.7-1.3,1.2-2.9,1.6-4.7
		C598.9,468,599.1,466,599.1,463.9z"/>
</g>
<g id="XMLID_1197_">
	<path id="XMLID_2017_" class="st8" d="M288,204.1c0,0,18-11.1,33.1-13.4c15.1-2.3,30.6,11.5,34.6,23.8c4,12.3-51.2,8-51.2,8
		L288,204.1z"/>
	<g id="XMLID_1921_">
		<g id="XMLID_1922_">
			<path id="XMLID_2016_" class="st9" d="M362.3,305.3c0,0-1.2,6-29.6,3.1c-28.3-2.9-41.6,2.5-43,2.7c-1.4,0.3-9.6,1.8-10-3.3
				c-0.3-5.1,30.5-13.5,30.5-13.5l28.6-4.8l14.9,3l8.4,6.4V305.3z"/>
			<g id="XMLID_2010_">
				<polygon id="XMLID_2015_" class="st3" points="336.6,407.9 334.6,416.9 328.8,416.2 328.8,405.9 				"/>
				<polygon id="XMLID_2014_" class="st3" points="308.1,407.3 310.1,416.9 315.9,416.1 315.9,405.2 				"/>
				<path id="XMLID_2013_" d="M328.8,415.4c0,0-3.5,4-2.1,7.6c1.2,3,19.1,2.8,24.1,2.7c1,0,2-0.7,2.2-1.7c0.1-0.5,0-1-0.6-1.3
					l-11.7-4.3c0,0-4.9-2.7-7.5-2.2C331.1,416.5,328.8,415.4,328.8,415.4z"/>
				<path id="XMLID_2012_" d="M315.9,415.4c0,0,3.5,4,2.1,7.6c-1.4,3.5-25.5,1.8-25.5,1.8s-1.8-1.5-0.2-2.2l11.7-4.3
					c0,0,4.9-2.7,7.5-2.2C313.5,416.5,315.9,415.4,315.9,415.4z"/>
				<path id="XMLID_2011_" class="st10" d="M355.1,294.4c0,0,2.5,20.9-2.5,59c-5,38-14.5,56.2-14.5,56.2l-9.8-1.8l-4.4-75.1
					l-7.2,74.6h-12.2c0,0-22.9-79.5-11.7-112.9H355.1z"/>
			</g>
			<path id="XMLID_2009_" class="st8" d="M352.3,217.1c0,0,22.6,31.5,10,88.2c0,0,5.1-18.7-70-1.5c-3.3,0.8-11.1,0.4-12.5,4
				c0,0-6-61.1,14.1-90.1l14-3.5c13-2.8,26.4-2.3,39.2,1.4L352.3,217.1z"/>
		</g>
	</g>
	<path id="XMLID_1920_" class="st11" d="M303.3,235.2c-1.6-1.7-2.6-3.9-2.6-6.3c0-5.4,4.9-9.8,10.9-9.8c6,0,10.9,4.4,10.9,9.8
		c0,0.2,0,0.4,0,0.7l0.1,0c0-0.2,0-0.4,0-0.7c0-5.4,4.9-9.8,10.9-9.8c6,0,10.9,4.4,10.9,9.8c0,2.9-1.4,5.5-3.7,7.3l-18.1,16.5
		l-18.2-16.6C304,235.9,303.7,235.6,303.3,235.2L303.3,235.2L303.3,235.2z"/>
	<g id="XMLID_1914_">
		<path id="XMLID_1919_" class="st12" d="M425,206.6l-39.5-40.1c-3-3.1-8-3.1-11.1,0L335,206.6v42.8h90V206.6z"/>
		<path id="XMLID_1918_" class="st12" d="M335,206.6v56.9c0,2.8,2.3,5.1,5.1,5.1l83.6-0.9L335,206.6z"/>
		<path id="XMLID_1917_" class="st3" d="M425,206.6v58c0,2.2-1.8,3.9-3.9,3.9h-81L425,206.6z"/>
		<polygon id="XMLID_1916_" class="st13" points="381.3,238.4 335,206.6 393.9,229.3 		"/>
		
			<rect id="XMLID_1915_" x="391.2" y="251.6" transform="matrix(-1 -4.491975e-11 4.491975e-11 -1 807.9396 513.3385)" class="st14" width="25.5" height="10.2"/>
	</g>
	<circle id="XMLID_1911_" class="st15" cx="304.8" cy="150.5" r="8.3"/>
	<circle id="XMLID_1908_" class="st15" cx="311.7" cy="138.2" r="8.3"/>
	<circle id="XMLID_1905_" class="st15" cx="303.4" cy="136.1" r="8.3"/>
	<circle id="XMLID_1902_" class="st15" cx="303.4" cy="145.6" r="8.3"/>
	<circle id="XMLID_1899_" class="st15" cx="309.2" cy="126.9" r="8.3"/>
	<ellipse id="XMLID_1842_" class="st16" cx="323.5" cy="196.5" rx="13" ry="7.7"/>
	<circle id="XMLID_1839_" class="st15" cx="325.2" cy="132.9" r="8.3"/>
	<circle id="XMLID_1836_" class="st15" cx="325.2" cy="125.2" r="8.3"/>
	<circle id="XMLID_1833_" class="st15" cx="335" cy="136.5" r="8.3"/>
	<circle id="XMLID_1830_" class="st15" cx="342.6" cy="145.6" r="8.3"/>
	<circle id="XMLID_1827_" class="st15" cx="349.9" cy="142.5" r="8.3"/>
	<circle id="XMLID_1824_" class="st15" cx="345.8" cy="155.8" r="8.3"/>
	<circle id="XMLID_1821_" class="st15" cx="342.6" cy="168.2" r="8.3"/>
	<circle id="XMLID_1818_" class="st15" cx="335" cy="180.6" r="8.3"/>
	<path id="XMLID_1815_" class="st17" d="M326.9,201.4c-1.3,0.2-2.6,0.4-3.9,0.5c-5.3,0.3-9.8-4-9.5-9.3c0.1-0.8-0.1-1.4-0.1-2.6
		c0.1-4.8-10.8-6.7-14.1-15c-3.3-8.3,4-35.5,18.5-36.7c14.6-1.1,25.7,6.5,21.2,26.2c-3.7,16.7-6.2,21.6-6.5,30.4
		C332.5,198,329.9,201,326.9,201.4z"/>
	<g id="XMLID_1812_">
		<g id="XMLID_1813_">
			<path id="XMLID_1814_" class="st3" d="M314.1,172c0,0,2.2-1.2,4-1.1c1.8,0.1,3.6,0.8,3.8,3.1c0.3,2.3-2,3.9-4.8,5.2
				c-1.6,0.8-7.1,1.5-10-0.1c-2.9-1.5-4.4-2.7-5-4.8c-0.6-2,1.1-4,2.7-4.5c1.6-0.5,3.2,0.3,3.9,1C309.5,171.5,311.3,173,314.1,172z"
				/>
		</g>
	</g>
	<g id="XMLID_1803_">
		<g id="XMLID_1807_">
			<g>
				<path id="XMLID_37_" class="st17" d="M278.8,217.1c0,0-8.6,15.7-0.3,36.5c6.1,15.3,34,17.7,57.3-11.7l-7.4-2.1
					c0,0-13.4,8.3-22.1,8.9c-11.9,0.8-15.4-11.5-14.3-16.9c0.6-2.8,1.9-10.8,2.4-11.5L278.8,217.1z"/>
			</g>
		</g>
		<path id="XMLID_1804_" class="st17" d="M333.2,234.9c0,0,9.5-10.2,10.7-10.7c1.2-0.5,1.8,0.9,0.1,2.6c-1.7,1.7-4.4,5.3-4.4,5.3
			s6.7-6,7.5-5.9c0.8,0.1,1.3,1.2,0,2.2c-1.3,1-6,5.6-6,5.6s4.7-3,6.2-3.5c1.4-0.5,0.5,1.5-0.8,2.3c-1.3,0.8-5.1,3.9-5.1,3.9
			s4.1-1.4,4.9-1.1c0.8,0.2,0.5,0.9-0.1,1.2c-0.6,0.3-6.4,2.2-6.4,2.2s-3.7,4.4-7.5,4.1s-4.2-2.5-4-3c0.2-0.6,3.8-9.4,4.9-10.6
			c1.1-1.2,2.1-0.4,0.9,2C332.8,233.6,332.3,235,333.2,234.9z"/>
	</g>
	<path id="XMLID_1622_" class="st8" d="M302.6,217.7l-9.1,19.9l-22.1-3.4c0,0,5.5-32.8,26.4-32.8
		C297.8,201.4,308.8,204.1,302.6,217.7z"/>
	<path id="XMLID_1616_" class="st17" d="M425.4,261.1c0,0-13.1-5-14.3-4.9c-1.3,0.1-1.2,1.6,1.1,2.4c2.3,0.7,6.3,2.8,6.3,2.8
		s-8.6-2.4-9.3-2c-0.7,0.5-0.6,1.7,1,1.9c1.6,0.3,7.9,2.4,7.9,2.4s-5.6-0.6-7.1-0.4c-1.5,0.2,0.2,1.5,1.7,1.7c1.5,0.1,6.1,1,6.1,1
		s-3.8-0.1-4.4,0.5c-0.6,0.6-0.1,1,0.6,1c0.7,0,6.4,0.1,6.4,0.1s5.3,2.3,8.5,0.4c3.2-1.9,2.7-4.1,2.2-4.5c-0.5-0.4-7.5-6.8-9.1-7.4
		c-1.5-0.6-2.1,0.6,0.1,2.1C425.1,259.8,426.2,260.8,425.4,261.1z"/>
	<path id="XMLID_1614_" class="st17" d="M425,244.6c0,0,8.7,9.4,7.2,20.4c-0.3,2.6-7.2,0-7.2,0V244.6z"/>
	<path id="XMLID_1431_" class="st17" d="M335.9,159.8c0,0,2.8-4.9,7.5-2.3c4.7,2.6,2,12.6-1.5,14.9s-4.9-1-4.9-1L335.9,159.8z"/>
	
		<ellipse id="XMLID_1428_" transform="matrix(0.1601 -0.9871 0.9871 0.1601 114.4321 446.0053)" class="st15" cx="319.3" cy="155.8" rx="1.9" ry="1.1"/>
	
		<ellipse id="XMLID_1425_" transform="matrix(0.1601 -0.9871 0.9871 0.1601 105.8904 434.1206)" class="st15" cx="308" cy="154.8" rx="1.9" ry="1.1"/>
	<circle id="XMLID_1422_" class="st15" cx="311.4" cy="142.1" r="6"/>
	<circle id="XMLID_1419_" class="st15" cx="319.3" cy="139" r="6"/>
	<circle id="XMLID_1416_" class="st15" cx="326" cy="145.6" r="6"/>
	<circle id="XMLID_1413_" class="st15" cx="326" cy="141.2" r="6"/>
	<circle id="XMLID_1280_" class="st15" cx="334.3" cy="140.2" r="6"/>
	<circle id="XMLID_1262_" class="st15" cx="335.3" cy="152.9" r="7.9"/>
	<circle id="XMLID_1255_" class="st15" cx="314.3" cy="129.1" r="6"/>
	<circle id="XMLID_1252_" class="st15" cx="334.3" cy="127.5" r="6"/>
	<circle id="XMLID_1227_" class="st15" cx="344.4" cy="132.9" r="6"/>
	<circle id="XMLID_1215_" class="st15" cx="340.8" cy="126.1" r="6"/>
	<ellipse id="XMLID_1213_" class="st18" cx="305.3" cy="158.3" rx="7.1" ry="8.5"/>
	<polygon id="XMLID_1209_" class="st19" points="314.3,151 306.7,166.8 314.2,167.5 	"/>
	<ellipse id="XMLID_1205_" class="st18" cx="321.2" cy="159" rx="7.1" ry="8.5"/>
	<line id="XMLID_1204_" class="st18" x1="308.7" y1="150.9" x2="318.8" y2="151"/>
	<line id="XMLID_1199_" class="st18" x1="341.2" y1="155.3" x2="326.7" y2="153.7"/>
	<path id="XMLID_1198_" class="st20" d="M322.6,334.4c0,0-1.7-13.1-14.5-13.7c-12.9-0.6-9,18.2-4.6,25s2.8,16.1,0.7,20.6
		c-2.1,4.5,0.8,24.6,14.7,17.9L322.6,334.4z"/>
</g>
</svg>
