<?xml version="1.0" encoding="utf-8"?>
<!-- Generator: Adobe Illustrator 21.0.0, SVG Export Plug-In . SVG Version: 6.00 Build 0)  -->
<svg version="1.1" id="Layer_1" xmlns="http://www.w3.org/2000/svg" xmlns:xlink="http://www.w3.org/1999/xlink" x="0px" y="0px"
	 viewBox="0 0 808 800" style="enable-background:new 0 0 808 800;" xml:space="preserve">
<style type="text/css">
	.st0{fill:url(#SVGID_1_);}
	.st1{fill:#F4C74A;}
	.st2{opacity:0.3;}
	.st3{fill:#FFFFFF;}
	.st4{fill:#FFFFFF;stroke:#FFFFFF;stroke-miterlimit:10;}
	.st5{opacity:0.4;}
	.st6{fill:#333333;}
	.st7{font-family:'SpicyRice-Regular';}
	.st8{font-size:21.6865px;}
	.st9{fill:#FBB03B;}
	.st10{font-size:95.4126px;}
	.st11{fill:#36A9E1;}
	.st12{fill:#1688B5;}
	.st13{fill:#1B364F;}
	.st14{opacity:0.4;fill:#FFFFFF;}
	.st15{fill:#EDEDED;}
	.st16{fill:#DADADA;}
	.st17{fill:#FFF57D;}
	.st18{fill:#161616;}
	.st19{fill:#1D71B8;}
	.st20{fill:#FFCFC5;}
	.st21{fill:none;stroke:#FFFFFF;stroke-width:2;stroke-miterlimit:10;}
	.st22{fill:#FF6252;}
	.st23{opacity:0.43;fill:#274F6D;}
</style>
<g>
	<g>
		<linearGradient id="SVGID_1_" gradientUnits="userSpaceOnUse" x1="437.6003" y1="680.4025" x2="436.2903" y2="124.6964">
			<stop  offset="9.732377e-02" style="stop-color:#4A69BD"/>
			<stop  offset="0.3504" style="stop-color:#368BAF"/>
			<stop  offset="0.6011" style="stop-color:#27A6A5"/>
			<stop  offset="0.8239" style="stop-color:#1DB69E"/>
			<stop  offset="0.9959" style="stop-color:#1ABC9C"/>
		</linearGradient>
		<path class="st0" d="M715,484.3c0,117-161.8,151.2-293.1,151.2c-137.1,0-262.6-10.3-262.6-144.4s90-313.6,227.1-313.6
			S715,401.5,715,484.3z"/>
		<path class="st1" d="M159.3,491.1c0-133.4,89.1-311.8,225-313.6c-0.5,0-1.1,0-1.6,0c-181.7,0-262.6,185.1-262.6,316.5
			s125.5,141.5,262.6,141.5c4.8,0,9.7,0,14.5-0.1C270.1,633.8,159.3,617,159.3,491.1z"/>
	</g>
	<g id="XMLID_2045_" class="st2">
		<path id="XMLID_2048_" class="st3" d="M379.6,234.2h-58.3c0,0,2.9-7.1,6.6-7.4c3.6-0.3,4.7,1.9,5.8,1.7c1.2-0.2,3.1-6,7.7-6.3
			c4.7-0.3,6.5,4,9,4.8c2.5,0.8,7.6,0.3,11.5-6c3.9-6.3,11.4,0.5,11.6,5.4c0.3,7.5,11.7,3.4,11.7,7.7H379.6z"/>
		<path id="XMLID_2047_" class="st4" d="M246,335.1h58.3c0,0-2.9-7.3-6.6-7.6c-3.6-0.3-4.7,1.8-5.8,1.6c-1.2-0.2-3.1-6.1-7.7-6.4
			c-4.7-0.3-6.5,4-9,4.8c-2.5,0.8-7.6,0.3-11.5-6c-3.9-6.3-11.4,0.7-11.6,5.6c-0.3,7.5-11.7,3.6-11.7,7.9H246z"/>
		<path id="XMLID_2046_" class="st3" d="M506.5,314.5h58.3c0,0-2.9-7.1-6.6-7.4s-4.7,1.9-5.8,1.7c-1.2-0.2-3.1-6-7.7-6.3
			c-4.7-0.3-6.5,4-9,4.8c-2.5,0.8-7.6,0.3-11.5-6c-3.9-6.3-11.4,0.5-11.6,5.4c-0.3,7.5-11.7,3.4-11.7,7.7H506.5z"/>
	</g>
	<g>
		<g class="st5">
			<text transform="matrix(4.422 0 0 -1 201.2305 581.7412)" class="st6 st7 st8">PORTFOLIO</text>
		</g>
		<g>
			<text transform="matrix(1 0 0 1 203.3506 583.8613)" class="st9 st7 st10">PORTFOLIO</text>
		</g>
	</g>
	<g id="XMLID_1197_">
		<path id="XMLID_2017_" class="st11" d="M363.7,323.3c0,0,15.6-9.6,28.7-11.6c13.1-2,26.5,9.9,30,20.6c3.5,10.7-44.4,6.9-44.4,6.9
			L363.7,323.3z"/>
		<g id="XMLID_1921_">
			<g id="XMLID_1922_">
				<path id="XMLID_2016_" class="st12" d="M428.2,411.1c0,0-1.1,5.2-25.7,2.7c-24.6-2.5-36.1,2.1-37.3,2.4
					c-1.2,0.3-8.3,1.5-8.6-2.9c-0.3-4.4,26.5-11.7,26.5-11.7l24.8-4.1l12.9,2.6l7.3,5.5V411.1z"/>
				<g id="XMLID_2010_">
					<polygon id="XMLID_2015_" class="st3" points="406,500.1 404.2,507.8 399.1,507.2 399.1,498.3 					"/>
					<polygon id="XMLID_2014_" class="st3" points="381.2,499.6 382.9,507.8 388,507.2 388,497.7 					"/>
					<path id="XMLID_2013_" d="M399.1,506.6c0,0-3,3.5-1.8,6.6c1,2.6,16.5,2.4,20.9,2.3c0.9,0,1.7-0.6,1.9-1.5
						c0.1-0.5,0-0.9-0.5-1.1l-10.1-3.7c0,0-4.3-2.3-6.5-2C401.2,507.5,399.1,506.6,399.1,506.6z"/>
					<path id="XMLID_2012_" d="M387.9,506.6c0,0,3,3.5,1.8,6.6c-1.2,3.1-22.1,1.6-22.1,1.6s-1.6-1.3-0.2-1.9l10.1-3.7
						c0,0,4.3-2.3,6.5-2C385.9,507.5,387.9,506.6,387.9,506.6z"/>
					<path id="XMLID_2011_" class="st13" d="M421.9,401.6c0,0,2.2,18.1-2.2,51.1c-4.4,33-12.6,48.7-12.6,48.7l-8.5-1.5l-3.8-65.1
						l-6.3,64.7h-10.6c0,0-19.8-69-10.2-97.9H421.9z"/>
				</g>
				<path id="XMLID_2009_" class="st11" d="M419.5,334.6c0,0,19.6,27.3,8.7,76.5c0,0,4.4-16.2-60.7-1.3c-2.9,0.7-9.7,0.4-10.8,3.5
					c0,0-5.2-53,12.2-78.2l12.2-3c11.3-2.4,22.9-2,34,1.2L419.5,334.6z"/>
			</g>
		</g>
		<path id="XMLID_1920_" class="st14" d="M377,350.3c-1.4-1.5-2.2-3.4-2.2-5.5c0-4.7,4.2-8.5,9.5-8.5c5.2,0,9.5,3.8,9.5,8.5
			c0,0.2,0,0.4,0,0.6l0.1,0c0-0.2,0-0.4,0-0.6c0-4.7,4.2-8.5,9.5-8.5c5.2,0,9.5,3.8,9.5,8.5c0,2.5-1.2,4.8-3.2,6.4l-15.7,14.3
			l-15.8-14.4C377.7,350.9,377.4,350.6,377,350.3L377,350.3L377,350.3z"/>
		<g id="XMLID_1914_">
			<path id="XMLID_1919_" class="st15" d="M482.6,325.4l-34.2-34.8c-2.6-2.7-7-2.7-9.6,0l-34.2,34.8v37.1h78.1V325.4z"/>
			<path id="XMLID_1918_" class="st15" d="M404.5,325.4v49.4c0,2.4,2,4.4,4.4,4.4l72.5-0.8L404.5,325.4z"/>
			<path id="XMLID_1917_" class="st3" d="M482.6,325.4v50.4c0,1.9-1.5,3.4-3.4,3.4h-70.3L482.6,325.4z"/>
			<polygon id="XMLID_1916_" class="st16" points="444.7,353.1 404.5,325.4 455.6,345.1 			"/>
			
				<rect id="XMLID_1915_" x="453.3" y="364.4" transform="matrix(-1 -4.482205e-11 4.482205e-11 -1 928.7189 737.7631)" class="st17" width="22.1" height="8.9"/>
		</g>
		<circle id="XMLID_1911_" class="st18" cx="378.4" cy="276.8" r="7.2"/>
		<circle id="XMLID_1908_" class="st18" cx="384.3" cy="266.1" r="7.2"/>
		<circle id="XMLID_1905_" class="st18" cx="377.1" cy="264.3" r="7.2"/>
		<circle id="XMLID_1902_" class="st18" cx="377.1" cy="272.5" r="7.2"/>
		<circle id="XMLID_1899_" class="st18" cx="382.1" cy="256.3" r="7.2"/>
		<ellipse id="XMLID_1842_" class="st19" cx="394.6" cy="316.7" rx="11.3" ry="6.7"/>
		<circle id="XMLID_1839_" class="st18" cx="396" cy="261.5" r="7.2"/>
		<circle id="XMLID_1836_" class="st18" cx="396" cy="254.9" r="7.2"/>
		<circle id="XMLID_1833_" class="st18" cx="404.5" cy="264.6" r="7.2"/>
		<circle id="XMLID_1830_" class="st18" cx="411.1" cy="272.5" r="7.2"/>
		<circle id="XMLID_1827_" class="st18" cx="417.4" cy="269.8" r="7.2"/>
		<circle id="XMLID_1824_" class="st18" cx="413.9" cy="281.3" r="7.2"/>
		<circle id="XMLID_1821_" class="st18" cx="411.1" cy="292.1" r="7.2"/>
		<circle id="XMLID_1818_" class="st18" cx="404.5" cy="302.9" r="7.2"/>
		<path id="XMLID_1815_" class="st20" d="M397.5,321c-1.2,0.2-2.3,0.3-3.4,0.4c-4.6,0.3-8.5-3.5-8.2-8c0-0.7-0.1-1.2-0.1-2.2
			c0.1-4.1-9.4-5.8-12.3-13c-2.9-7.2,3.4-30.8,16.1-31.8c12.6-1,22.3,5.6,18.4,22.8c-3.2,14.5-5.4,18.7-5.6,26.3
			C402.4,318,400.1,320.6,397.5,321z"/>
		<g id="XMLID_1812_">
			<g id="XMLID_1813_">
				<path id="XMLID_1814_" class="st3" d="M386.4,295.5c0,0,1.9-1,3.5-1c1.6,0,3.1,0.7,3.3,2.7c0.2,2-1.8,3.4-4.2,4.5
					c-1.4,0.7-6.2,1.3-8.7,0c-2.5-1.3-3.8-2.4-4.3-4.1c-0.5-1.8,0.9-3.5,2.3-3.9c1.4-0.4,2.8,0.3,3.4,0.8
					C382.4,295,384,296.3,386.4,295.5z"/>
			</g>
		</g>
		<g id="XMLID_1803_">
			<g id="XMLID_1807_">
				<g>
					<path id="XMLID_23_" class="st20" d="M355.8,334.5c0,0-7.4,13.6-0.2,31.6c5.3,13.3,29.5,15.3,49.7-10.1l-6.5-1.8
						c0,0-11.6,7.2-19.2,7.7c-10.3,0.7-13.4-9.9-12.4-14.7c0.5-2.4,1.7-9.3,2.1-10L355.8,334.5z"/>
				</g>
			</g>
			<path id="XMLID_1804_" class="st20" d="M402.9,350c0,0,8.3-8.9,9.3-9.3c1-0.4,1.5,0.8,0,2.3c-1.5,1.4-3.8,4.6-3.8,4.6
				s5.8-5.2,6.5-5.1c0.7,0.1,1.1,1.1,0,1.9c-1.1,0.8-5.2,4.9-5.2,4.9s4.1-2.6,5.3-3.1c1.2-0.4,0.4,1.3-0.7,2
				c-1.1,0.7-4.4,3.4-4.4,3.4s3.6-1.2,4.3-1c0.7,0.2,0.4,0.8-0.1,1c-0.5,0.3-5.6,1.9-5.6,1.9s-3.2,3.8-6.5,3.5
				c-3.2-0.3-3.6-2.2-3.4-2.6c0.2-0.5,3.3-8.2,4.2-9.2c1-1,1.9-0.3,0.8,1.7C402.6,348.9,402.2,350.1,402.9,350z"/>
		</g>
		<path id="XMLID_1622_" class="st11" d="M376.4,335.1l-7.9,17.2l-19.2-3c0,0,4.7-28.4,22.9-28.4
			C372.3,320.9,381.8,323.3,376.4,335.1z"/>
		<path id="XMLID_1616_" class="st20" d="M482.9,372.7c0,0-11.3-4.3-12.4-4.3c-1.1,0.1-1,1.4,1,2c2,0.6,5.4,2.4,5.4,2.4
			s-7.5-2.1-8.1-1.7c-0.6,0.4-0.5,1.4,0.9,1.7c1.4,0.2,6.8,2.1,6.8,2.1s-4.8-0.5-6.1-0.4c-1.3,0.2,0.2,1.3,1.5,1.4
			c1.3,0.1,5.3,0.8,5.3,0.8s-3.3-0.1-3.9,0.4c-0.6,0.5-0.1,0.9,0.5,0.9c0.6,0,5.5,0,5.5,0s4.6,2,7.4,0.3c2.8-1.7,2.3-3.5,1.9-3.9
			c-0.4-0.3-6.5-5.9-7.9-6.4c-1.3-0.5-1.8,0.5,0.1,1.9C482.7,371.6,483.6,372.5,482.9,372.7z"/>
		<path id="XMLID_1614_" class="st20" d="M482.6,358.4c0,0,7.5,8.2,6.3,17.7c-0.3,2.2-6.3,0-6.3,0V358.4z"/>
		<path id="XMLID_1431_" class="st20" d="M405.3,284.8c0,0,2.4-4.2,6.5-2c4,2.3,1.7,11-1.3,12.9c-3,2-4.2-0.8-4.2-0.8L405.3,284.8z"
			/>
		
			<ellipse id="XMLID_1428_" transform="matrix(0.1601 -0.9871 0.9871 0.1601 50.6109 622.177)" class="st18" cx="390.9" cy="281.3" rx="1.7" ry="0.9"/>
		
			<ellipse id="XMLID_1425_" transform="matrix(0.1601 -0.9871 0.9871 0.1601 43.201 611.8668)" class="st18" cx="381.2" cy="280.5" rx="1.7" ry="0.9"/>
		<circle id="XMLID_1422_" class="st18" cx="384.1" cy="269.5" r="5.2"/>
		<circle id="XMLID_1419_" class="st18" cx="390.9" cy="266.8" r="5.2"/>
		<circle id="XMLID_1416_" class="st18" cx="396.8" cy="272.5" r="5.2"/>
		<circle id="XMLID_1413_" class="st18" cx="396.8" cy="268.7" r="5.2"/>
		<circle id="XMLID_1280_" class="st18" cx="403.9" cy="267.9" r="5.2"/>
		<circle id="XMLID_1262_" class="st18" cx="404.8" cy="278.9" r="6.9"/>
		<circle id="XMLID_1255_" class="st18" cx="386.6" cy="258.2" r="5.2"/>
		<circle id="XMLID_1252_" class="st18" cx="403.9" cy="256.8" r="5.2"/>
		<circle id="XMLID_1227_" class="st18" cx="412.7" cy="261.5" r="5.2"/>
		<circle id="XMLID_1215_" class="st18" cx="409.6" cy="255.6" r="5.2"/>
		<ellipse id="XMLID_1213_" class="st21" cx="378.8" cy="283.6" rx="6.1" ry="7.3"/>
		<polygon id="XMLID_1209_" class="st22" points="386.6,277.2 380,290.9 386.5,291.5 		"/>
		<ellipse id="XMLID_1205_" class="st21" cx="392.6" cy="284.1" rx="6.1" ry="7.3"/>
		<line id="XMLID_1204_" class="st21" x1="381.7" y1="277.1" x2="390.5" y2="277.2"/>
		<line id="XMLID_1199_" class="st21" x1="409.9" y1="280.9" x2="397.3" y2="279.6"/>
		<path id="XMLID_1198_" class="st23" d="M393.8,436.3c0,0-1.5-11.4-12.6-11.9c-11.2-0.5-7.8,15.8-4,21.7c3.8,5.9,2.4,13.9,0.6,17.8
			c-1.8,3.9,0.7,21.3,12.8,15.5L393.8,436.3z"/>
	</g>
</g>
</svg>
