<svg id="Layer_1" data-name="Layer 1" xmlns="http://www.w3.org/2000/svg" xmlns:xlink="http://www.w3.org/1999/xlink" viewBox="0 0 608.97 455.55"><defs><style>.cls-1{opacity:0.03;}.cls-2{fill:#565656;}.cls-3{fill:url(#linear-gradient);}.cls-4{fill:#f4c74a;}.cls-5{fill:#ffcb9c;}.cls-6{fill:#fff;}.cls-7{fill:#4b1568;}.cls-8{fill:#1b364f;}.cls-9{fill:#274f6d;opacity:0.38;}.cls-10{fill:#ed83ac;}.cls-11{fill:#ff6252;}.cls-12{fill:#1d1d1b;}.cls-13{fill:none;stroke:#1d1d1b;stroke-miterlimit:10;}.cls-14{fill:#283560;}.cls-15{opacity:0.4;}.cls-16{font-size:18.41px;fill:#333;}.cls-16,.cls-17{font-family:SpicyRice-Regular, Spicy Rice;}.cls-17{font-size:75.79px;fill:#fbb03b;}.cls-18{fill:#65c5ef;}.cls-19{opacity:0.8;}.cls-20{fill:#fcb6a8;}.cls-21{fill:#154d61;}</style><linearGradient id="linear-gradient" x1="424.83" y1="672.93" x2="423.53" y2="120.21" gradientUnits="userSpaceOnUse"><stop offset="0.1" stop-color="#4a69bd"/><stop offset="0.35" stop-color="#368baf"/><stop offset="0.6" stop-color="#27a6a5"/><stop offset="0.82" stop-color="#1db69e"/><stop offset="1" stop-color="#1abc9c"/></linearGradient></defs><title>QUESTION</title><g class="cls-1"><path class="cls-2" d="M127.87,469.63c-1.93,4-1.61,8.8-1.51,13.15.13,6.15.33,12.29.54,18.44a41.47,41.47,0,0,0,1.21,9.47.64.64,0,0,0,.32,1.05c1.25,3.75,3.52,6.94,7.73,8.26,3.59,1.13,7.79,1.17,11.5,1.28,4.52.13,9.4.65,14,.21-3.23,3.07-5.51,7.31-7.83,11-2,3.24-4.14,6.48-6.08,9.8a10.88,10.88,0,0,0-1.69,2.1.56.56,0,0,0,.13.71l-.2.37-.85.53a.27.27,0,0,0,.21.5l.1,0-.06.11c-.1.2.16.43.32.25s.35-.42.52-.62c6.9-2.18,13.51-6.2,19.51-10.1,6.25-4.07,13.09-8.75,18-14.44a1,1,0,0,0,.22-.56l25.27-1.35c7.8-.41,15.8-.31,23.53-1.52,13.77-2.16,20.12-13.26,20.44-26.48.26-10.69.35-29.79-12.28-34-7.12-2.38-16.17-.91-23.53-.76q-12.88.26-25.75.82c-15.08.65-30.5,1.19-45.57,3.27a30.21,30.21,0,0,0-10.67,1.76l-1.19.22c-.17,0-.13.28,0,.3A13.09,13.09,0,0,0,127.87,469.63Zm26.83,65.63a.43.43,0,0,0,.11.06l-.39.32Zm-15.42-71.95c12.88-.34,25.79-1.69,38.62-2.49q21.86-1.36,43.77-1.73c2.45,0,5.25-.28,8.09-.36l-.53.33a34.56,34.56,0,0,0-3.89,2.33c-.16.12-.08.42.15.35a32.3,32.3,0,0,0,3.77-1.58,17.25,17.25,0,0,0,3.17-1.45,32.11,32.11,0,0,1,4.21.33c-.67.41-1.3.9-1.86,1.29a44.33,44.33,0,0,0-4.54,3.84c-.16.15.05.44.24.31a36.1,36.1,0,0,1,5.11-2.76c1.25-.58,3.1-.92,4-2a13.39,13.39,0,0,1,3.19,1.47,22.58,22.58,0,0,0-3.91,2.33,54.77,54.77,0,0,0-5.24,3.7.23.23,0,0,0,.22.38,54.74,54.74,0,0,0,5.87-2.61,16.26,16.26,0,0,0,4.52-2.69,13.25,13.25,0,0,1,2.07,2.3,13.92,13.92,0,0,0-2.88,2.13c-1.58,1.18-3.13,2.34-4.61,3.64-.13.11,0,.29.17.23,1.85-.88,3.61-1.9,5.39-2.91a13.72,13.72,0,0,0,2.84-1.64,20.6,20.6,0,0,1,1.85,4.85c-1.94.1-4,1.79-5.58,2.76a52.94,52.94,0,0,0-6.11,4.11c-.16.13,0,.39.19.33a52.87,52.87,0,0,0,6.75-3c1.57-.79,3.84-1.54,5-2.93q.24,1.18.42,2.37c-1.75.72-3.35,2.34-4.81,3.43-1.77,1.32-3.54,2.64-5.26,4-.16.13,0,.36.21.27,2.15-1.19,4.23-2.46,6.34-3.72a33.59,33.59,0,0,0,3.75-2.27q.14,1.25.24,2.49c-1.36.35-2.61,1.76-3.65,2.59-1.77,1.41-3.44,3-5.17,4.41-.19.16.06.47.26.34,2-1.17,4-2.26,5.89-3.48a26,26,0,0,0,2.82-1.74c0,.61.09,1.22.13,1.81.06.84.11,1.7.15,2.55a25.25,25.25,0,0,0-4.56,2.7A47.74,47.74,0,0,0,241,491.4a.2.2,0,0,0,.19.33,48,48,0,0,0,5.65-2.59c1.21-.62,2.68-1.18,3.9-2q0,1.3,0,2.59c-1.8.52-3.49,1.83-5.09,2.74a55.69,55.69,0,0,0-6.1,3.9c-.14.11-.07.38.13.31A52.73,52.73,0,0,0,246,493.9a42.57,42.57,0,0,0,4.75-2.44,46.77,46.77,0,0,1-.58,5.52,9.24,9.24,0,0,0-3.41,1.43q-2.3,1.18-4.52,2.52a.16.16,0,0,0,.13.3c1.74-.54,3.47-1.14,5.17-1.79a16.09,16.09,0,0,0,2.37-1q-.33,1.59-.81,3.1a19.51,19.51,0,0,0-2.33,1.33c-1.83,1.05-3.63,2.14-5.44,3.23-.14.08,0,.32.11.26,2.08-.75,4.17-1.48,6.24-2.28l.58-.21c-.25.59-.51,1.18-.8,1.74a21.77,21.77,0,0,0-4,2.37,38.76,38.76,0,0,0-5.5,4,.26.26,0,0,0,.25.43,38.79,38.79,0,0,0,6.14-2.9l.81-.42a19.43,19.43,0,0,1-12.28,6.82c-1.32.23-2.65.4-4,.55.47-.31.93-.65,1.37-1a18.73,18.73,0,0,0,3-2.72c.16-.19,0-.56-.27-.46a18.81,18.81,0,0,0-3.76,2,10.74,10.74,0,0,0-2.89,2.43q-1.77.15-3.55.24l.57-.53a34.15,34.15,0,0,0,3.2-3.37.19.19,0,0,0-.23-.3,34.47,34.47,0,0,0-3.94,2.41,8.9,8.9,0,0,0-2.22,1.92l-4.95.18c.37-.3.7-.66,1-.91a24,24,0,0,0,2.86-2.68.28.28,0,0,0-.34-.44,23.86,23.86,0,0,0-3.23,2.19c-.63.48-1.78,1-1.87,1.89-1.47.05-2.94.11-4.39.18h-.13l.11-.08a26.31,26.31,0,0,0,3.46-3.37.17.17,0,0,0-.2-.26,26,26,0,0,0-4.3,2.29,7.56,7.56,0,0,0-1.94,1.58l-4.49.23.75-.58a25,25,0,0,0,3.39-3.06c.11-.11,0-.35-.17-.29a24.92,24.92,0,0,0-4,2,12.87,12.87,0,0,0-2.88,2.06l-3.37.17h0c1.09-1,2.11-2.08,3.19-3.1a.19.19,0,0,0-.23-.3c-1.25.8-2.54,1.52-3.78,2.34a9.31,9.31,0,0,0-1.7,1.19l-3.71.19c.19-.2.38-.4.56-.58a36,36,0,0,0,3.21-3.22c.16-.2,0-.56-.3-.39a34.33,34.33,0,0,0-3.36,2.84c-.51.46-1.15.92-1.71,1.43l-4,.21a1.19,1.19,0,0,0-1.1,1.43c-6.13,4.43-11.64,9.62-17.9,13.91-3.59,2.46-7.36,4.62-11.12,6.81.74-.64,1.46-1.26,2.17-1.83,3.49-2.79,6.77-5.76,10-8.82a.19.19,0,0,0-.23-.3c-3.8,2.35-7.52,4.75-11.12,7.4l-.22.15.7-.79c.73-.82,1.42-1.68,2.13-2.52,1.8-1.35,3.37-3.2,5-4.68,2.59-2.36,5.18-4.87,8-7,.12-.09,0-.29-.12-.21a76.91,76.91,0,0,0-8.31,5.27c-.82.64-1.73,1.32-2.61,2a30.73,30.73,0,0,0,4.76-8.5c.41-.07.81-.12,1.21-.21.65-.14.42-1-.15-1.07s-.91-.1-1.37-.14c.2-.19.39-.37.55-.5,1-.8,2.32-1.58,2.84-2.78a.26.26,0,0,0-.29-.37c-1.29.22-2.37,1.32-3.38,2.09a8.54,8.54,0,0,0-1.85,1.46c-2.19-.06-4.41,0-6.61,0a18.6,18.6,0,0,0,1.68-1.21,32.72,32.72,0,0,0,3.21-2.86c.16-.15,0-.48-.23-.39a33.07,33.07,0,0,0-4.09,1.86c-1.1.63-2.41,1.23-2.84,2.49,0,0,0,0,0,0l-.6,0c-2-.16-4-.41-6-.7,2.8-.21,5.17-2.8,7-4.62.18-.17-.06-.51-.27-.35a30.18,30.18,0,0,1-4.06,2.23,12.75,12.75,0,0,0-3.63,2.13.36.36,0,0,0,0,.48l-4.39-.64c-.51-.07-1-.18-1.44-.29a14.81,14.81,0,0,0,2.4-1.14,26.57,26.57,0,0,0,5.36-4.11c.16-.15-.05-.44-.24-.31a24.51,24.51,0,0,1-6.1,2.95c-1.37.45-3,.65-4,1.69a10,10,0,0,1-2.78-2,24.48,24.48,0,0,0,3.57-2.33c2.07-1.39,4.08-2.9,6.13-4.33a.31.31,0,0,0-.31-.53c-2.24,1.1-4.53,2.13-6.74,3.28a20.88,20.88,0,0,0-4,2.18,12.89,12.89,0,0,1-1.1-2.18,48,48,0,0,0,5-3.19c2.63-1.68,5.16-3.49,7.76-5.22a.2.2,0,0,0-.2-.34c-2.81,1.37-5.65,2.65-8.43,4.07-1.53.78-3.34,1.49-4.88,2.45a27.79,27.79,0,0,1-.57-3.08,31.84,31.84,0,0,0,5-3.46c2.41-1.74,4.87-3.43,7.19-5.3.17-.14,0-.37-.22-.29-2.82,1.37-5.53,2.94-8.27,4.44-1.23.67-2.67,1.29-3.92,2.11-.09-1.21-.15-2.44-.19-3.67l0-.63a40.28,40.28,0,0,0,4.34-3.07,54.15,54.15,0,0,1,6.41-3.71c.21-.1.06-.47-.16-.39a68.72,68.72,0,0,0-7,2.9,32.25,32.25,0,0,0-3.71,2c0-1.08-.08-2.16-.11-3.24a39.2,39.2,0,0,0,5.07-2.77c2.32-1.29,4.59-2.69,6.87-4.05.11-.06,0-.26-.09-.21-2.33.94-4.68,1.84-7,2.86-1.58.7-3.36,1.29-4.94,2.14q-.05-1.48-.1-3c2.07-.74,4.08-2.46,5.83-3.61,2.2-1.44,4.35-3,6.4-4.6.12-.09,0-.25-.15-.19a82.73,82.73,0,0,0-7.79,4.24,41.07,41.07,0,0,0-4.35,2.63q0-.35,0-.7c0-1.09-.12-2.2-.19-3.32,1.8-.64,3.4-2.11,4.94-3.16q3.14-2.15,6.33-4.21a.16.16,0,0,0-.16-.27q-3.36,1.8-6.76,3.49a36.1,36.1,0,0,0-4.47,2.25c-.06-1.14-.09-2.28-.07-3.42,1.76-.61,3.3-2,4.84-3,2-1.29,4-2.46,6-3.78a.08.08,0,0,0-.08-.14c-2.13,1-4.18,2.19-6.29,3.24a40.06,40.06,0,0,0-4.37,2.12A19.83,19.83,0,0,1,129,473a12.44,12.44,0,0,1,.39-1.34,13.31,13.31,0,0,0,3-1.72c1.5-.93,2.94-1.91,4.36-3,.08-.06,0-.22-.07-.17-1.54.65-3,1.33-4.53,2.1-.61.32-1.32.6-2,.94C132.07,466.47,135.49,464.56,139.27,463.31Z" transform="translate(-109.03 -172.69)"/><path class="cls-2" d="M161.06,492.93c3.56,1.87,8.62.79,10.83-2.64,1.58-2.45,1.37-6.36-.89-8.2h.13c.1,0,.12-.13,0-.18-3.54-2.35-9.06-1.72-11.76,1.64A6.15,6.15,0,0,0,161.06,492.93Zm1.81-10.26a8.57,8.57,0,0,1,5.35-.87.51.51,0,0,0,.17.23c2.74,1.92,3.91,5.07,1.52,7.86a6.86,6.86,0,0,1-4.7,2.13c.5-.61.92-1.34,1.32-1.9,1-1.46,1.94-3,2.93-4.47.08-.12-.1-.26-.2-.16-1.28,1.26-2.62,2.45-3.88,3.74a10.18,10.18,0,0,0-2.19,2.56,4.86,4.86,0,0,1-1.46-.64,5.59,5.59,0,0,0,1.16-1.54,27,27,0,0,0,1.86-3,.19.19,0,0,0-.29-.22A27.08,27.08,0,0,0,162,489a6.25,6.25,0,0,0-1.15,1.43c-.07-.08-.17-.14-.23-.23a4.4,4.4,0,0,1-.62-1.25c1-1.41,1.73-3,2.66-4.46a.12.12,0,0,0-.19-.15c-.84.9-1.76,1.71-2.63,2.58A6.19,6.19,0,0,1,162.87,482.67Z" transform="translate(-109.03 -172.69)"/><path class="cls-2" d="M195.1,494.48c4.67-.69,8.15-5.08,6.27-9.74-1.46-3.63-6.74-6.1-10.27-4a6.47,6.47,0,0,0-5.27,6.28C185.77,492,190.49,495.16,195.1,494.48ZM190.28,482a.31.31,0,0,0,.2.06c3.06-.13,6-1.11,8.46,1.54,3,3.28.57,7.61-3.26,8.58a7,7,0,0,1-1.73.19c.45-.57.83-1.2,1.23-1.73a24.49,24.49,0,0,0,3-4.82c.06-.13-.07-.33-.22-.22a24,24,0,0,0-3.84,3.82,15.58,15.58,0,0,0-2.13,2.66,6.2,6.2,0,0,1-1.29-.59,26.5,26.5,0,0,0,4-5.72.29.29,0,0,0-.45-.35,26.54,26.54,0,0,0-4.73,5.14,5.92,5.92,0,0,1-.74-.91,13.62,13.62,0,0,0,1.6-2.09c.93-1.29,1.76-2.66,2.69-3.95.07-.1-.08-.2-.16-.12-1.17,1.11-2.43,2.13-3.61,3.24-.4.38-.88.78-1.3,1.22A5.13,5.13,0,0,1,190.28,482Z" transform="translate(-109.03 -172.69)"/><path class="cls-2" d="M214,489.91a.62.62,0,0,0,.65.81,6.86,6.86,0,0,0,4.59,2.78c4.07.65,8.72-1.07,9.35-5.58.46-3.32-2.31-7.44-5.92-6.95-3.46-1-7.21.12-8.65,3.76a6.28,6.28,0,0,0,.07,5C214,489.78,214,489.85,214,489.91Zm1.9-5.36c1.1-2,3.59-3,5.89-3.14a.56.56,0,0,0,.34.72c2.79.87,5.81,2.51,4.68,6.06-.71,2.2-2.84,3.23-5,3.42a10.23,10.23,0,0,0,1.63-2.18c.78-1.18,1.47-2.41,2.17-3.64a.23.23,0,0,0-.37-.28c-1,1.07-2.06,2.14-3,3.29a6.28,6.28,0,0,0-1.72,2.84,8.45,8.45,0,0,1-1.76-.27c-.13,0-.23-.1-.35-.15a15.44,15.44,0,0,0,1.75-2.56,43.6,43.6,0,0,0,2.22-3.9c.1-.21-.16-.45-.34-.26a43.07,43.07,0,0,0-2.89,3.39,14,14,0,0,0-1.92,2.7,4.58,4.58,0,0,1-1.1-1.16c.49-.71.91-1.51,1.32-2.21a10.87,10.87,0,0,0,1.7-3.54c0-.14-.12-.29-.26-.2a10.51,10.51,0,0,0-2.5,2.83l-1,1.27A4.73,4.73,0,0,1,215.88,484.55Z" transform="translate(-109.03 -172.69)"/></g><g class="cls-1"><path class="cls-2" d="M628.08,586.71c5.75-5.32,11.52-10.63,17.15-16.07a.49.49,0,0,0,.33.08,184.62,184.62,0,0,0,31.52-5.83c9-2.49,18-5.74,25.53-11.35,14.19-10.55,20.48-29.64,10.62-45.39S683,489.83,666,492.93s-32.58,12.79-41.39,27.91A49.78,49.78,0,0,0,619,535.76a.45.45,0,0,0-.06.31q-.37,1.88-.58,3.78a.36.36,0,0,0-.06.48c-1.17,11.58,2.28,23.08,14.45,27.26-2.33,6-4.08,12.3-6.11,18.43C626.4,586.88,627.58,587.17,628.08,586.71Zm2.57-8.3a.45.45,0,0,0,.51-.1l6.29-6.2c.41-.41-.27-1-.68-.59L631,577.17c.27-.91.53-1.82.8-2.74l6.83-6.21c.43-.39-.26-1-.68-.59l-5.67,5.16c.14-.49.26-1,.39-1.49l5.68-5.68c.41-.41-.27-1-.68-.59l-4.56,4.56c.15-.58.31-1.16.45-1.74,0,0,0,0,0,0,.88.06,1.12-1.29.3-1.74l4.21-4.05c.42-.4-.26-1-.68-.59L633,565.72c-.4-.14-.79-.29-1.17-.45l5.4-5.18c.42-.4-.26-1-.68-.59l-5.6,5.37a19.22,19.22,0,0,1-2.37-1.35l6.69-5.76c.44-.37-.07-1.12-.51-.75l-6.95,6a17.71,17.71,0,0,1-2.09-1.85l8-6.26c.46-.36,0-1.1-.51-.75l-8.13,6.34a18.08,18.08,0,0,1-1.57-2.06l8.32-6.94c.44-.37-.06-1.12-.51-.75l-8.28,6.91a20.39,20.39,0,0,1-1.31-2.67l10.79-8.14c.46-.35,0-1.1-.51-.75l-10.62,8c-.22-.61-.41-1.24-.57-1.87l8.6-7.09c.45-.37-.06-1.12-.51-.75l-8.33,6.87c-.16-.71-.28-1.44-.39-2.17l8.33-7.71c.43-.39-.26-1-.68-.59l-7.79,7.2c-.07-.68-.12-1.37-.14-2.06l9.35-9.09c.42-.41-.27-1-.68-.59l-8.7,8.46q0-1.1.05-2.21L630,533.17c.43-.39-.26-1-.68-.59l-9.3,8.6q.08-.9.19-1.79l10-9.28c.43-.39-.26-1-.68-.59L620.44,538c.15-.91.31-1.81.51-2.71l6.68-5.75c.44-.38-.07-1.12-.51-.75l-5.82,5a50.16,50.16,0,0,1,1.8-5.67l5.31-4.37c.44-.37-.06-1.12-.51-.75l-4.1,3.37a43.33,43.33,0,0,1,2.06-4.19l7.33-4.65c.49-.31,0-1.06-.51-.75l-5.78,3.66c8.17-13.21,21.9-22,37-25.31,14.17-3.12,31.75-2.52,42.83,7.66L699,509.56c-.43.38.07,1.13.51.75l7.92-6.89c.2.19.38.39.57.59a.37.37,0,0,0-.28.09l-9.47,8.14c-.44.38.07,1.13.51.75l9.47-8.14a.46.46,0,0,0,.15-.44q.77.83,1.49,1.74l-9.49,8.29c-.43.38.07,1.13.51.75l9.54-8.33.2.26c.62.84,1.17,1.7,1.68,2.56l-11.08,8.54c-.46.35,0,1.1.51.75l11-8.49q.63,1.14,1.16,2.31a.39.39,0,0,0-.26.08l-9.23,6.91c-.46.35,0,1.09.51.75l9.23-6.91a.42.42,0,0,0,.07-.08q.39,1,.71,1.92a.37.37,0,0,0-.33.09l-8.2,6.86c-.44.37.06,1.12.51.75l8.2-6.86a.48.48,0,0,0,.07-.08,28.89,28.89,0,0,1,.74,3,.43.43,0,0,0-.65-.21l-8.52,6.07c-.47.34,0,1.08.51.75l8.52-6.07a.42.42,0,0,0,.18-.29c.16.89.28,1.79.35,2.68a.46.46,0,0,0-.26.11l-6.8,6.09c-.43.39.25,1,.68.59l6.44-5.76c.52,11.19-5.42,22.32-15.17,29.37-.9.65-1.83,1.27-2.77,1.86l8.05-8.18c.41-.41-.27-1-.68-.59l-8.88,9a.4.4,0,0,0,0,.61q-2.55,1.49-5.24,2.73l8.68-8.77c.41-.41-.27-1-.68-.59l-9.78,9.89a.38.38,0,0,0-.12.31q-2.36,1-4.79,1.86l10.64-9.87c.43-.4-.26-1-.68-.59l-12.06,11.19q-1.75.58-3.51,1.11l9.44-7.62c.45-.36-.05-1.11-.51-.75L677.4,563a.47.47,0,0,0-.13.15l-1.36.39-1.26.32,8.13-6.83c.44-.37-.06-1.12-.51-.75l-8.88,7.45a.46.46,0,0,0-.15.48c-1.36.36-2.72.72-4.09,1l7.11-5.85c.45-.37-.06-1.11-.51-.75l-8.58,7q-2.8.64-5.61,1.22l7.85-6.23c.45-.36-.05-1.11-.51-.75l-9.27,7.35c-1.5.29-3,.56-4.5.82l7.58-5.92c.46-.36,0-1.1-.51-.75l-8.83,6.9a.48.48,0,0,0-.09.11c-1.29.21-2.59.39-3.89.58l8.38-6.22c.47-.35,0-1.09-.51-.75l-9.76,7.25-1.7.25,8-6.56c.45-.37-.06-1.11-.51-.75l-8.27,6.77a.46.46,0,0,0-.1.12.78.78,0,0,0-.58.2c-3.48,3.12-6.9,6.3-10.32,9.5a.47.47,0,0,0-.73-.09L630.18,582a.38.38,0,0,0,0,.55l-1.08,1Q629.86,581,630.65,578.4Z" transform="translate(-109.03 -172.69)"/><path class="cls-2" d="M641.13,532.65l0,0,.1.06.09,0h.06a.45.45,0,0,0,.47-.3.33.33,0,0,0,0-.08h0a.35.35,0,0,0,0-.2,9.74,9.74,0,0,1,8.93-13.93,7.89,7.89,0,0,1,7.56,5.59c1,3.94-2.51,6.28-5.77,7.32-4.81,1.54-9.32,2.57-11.55,7.63a11.43,11.43,0,0,0,2.24,12.28.45.45,0,0,0,.45.08l5.91-1.83a.46.46,0,0,0,.15-.77,8.2,8.2,0,0,1-.67-10.64c2.24-2.77,6-3.38,9.2-4.59,2.43-.93,4.78-2.3,5.9-4.77a9.25,9.25,0,0,0-.52-8.09c-3.3-6-11.69-7.37-17.84-6-6.6,1.46-11.84,6.45-11.89,13.47,0,1.64-.15,6.65,2.19,7,.84.13,5-2.33,4.95-2.36Zm-1.52-.2a14.88,14.88,0,0,1-2.34,1.38c-2.06.78-2.13-2.26-2.3-3.75-1-8.73,5.71-14.61,14-15.14a17.52,17.52,0,0,1,10.35,2.31c3.42,2.15,5.81,6.63,4.18,10.64-2.27,5.58-9.91,4.88-14,8.36-3.68,3.12-3.79,8.85-.82,12.43l-2.73.85c-1.49.46-2.13.71-3.25-.6a9.41,9.41,0,0,1-1.7-5.43,10.52,10.52,0,0,1,6.75-9.94c4.47-1.8,13.29-2.82,11.51-9.9-1.4-5.54-7.89-7.48-12.76-5.5a10.59,10.59,0,0,0-5.73,13.68A5.49,5.49,0,0,0,639.61,532.45Z" transform="translate(-109.03 -172.69)"/><path class="cls-2" d="M648.35,552.09a5.77,5.77,0,0,0-5.44,3.16c-1.11,2.64.94,5.61,3.49,6.39a5,5,0,0,0,6.57-5.24A4.8,4.8,0,0,0,648.35,552.09ZM645,559.86a3.71,3.71,0,0,1-.72-5.12c2.39-2.89,7.11-2.07,7.8,1.73C652.44,560.31,647.79,562.36,645,559.86Z" transform="translate(-109.03 -172.69)"/><path class="cls-2" d="M675,538.32a118.38,118.38,0,0,1,2.88-30.9.46.46,0,0,0-.59-.51,17.75,17.75,0,0,0-7.78,3.48c-2.26,2-2.32,4.53-2.32,7.34,0,8.43-1,17-1.55,25.38a.48.48,0,0,0,.38.57.4.4,0,0,0,.4-.1c2.82-1.58,5.54-3.32,8.39-4.85A.45.45,0,0,0,675,538.32Zm-.93-.79c-.39,1.3-2.56,2-3.67,2.68q-1.9,1.13-3.82,2.24l1.33-20.59c.2-3.14-.6-7.63,1.55-10.14,1.78-2.08,4.75-3.12,7.4-3.77a118.2,118.2,0,0,0-2.68,19.17q-.14,2.6-.17,5.2C674,533.78,674.49,536.15,674.08,537.53Z" transform="translate(-109.03 -172.69)"/><path class="cls-2" d="M674.42,543.17c-3.6-.06-7.66,2.7-7.46,6.62.22,4.14,4.53,6.52,8.28,5.45C680.75,553.1,681.49,543.29,674.42,543.17Zm.52,11.22c-3.55,1-7.92-1.83-7-5.87.74-3.17,4.86-5.2,7.88-4.23C680.75,545.85,678.81,552.89,674.93,554.39Z" transform="translate(-109.03 -172.69)"/><path class="cls-2" d="M696.8,526.47c.39-7.87.89-15.82.92-23.7a.45.45,0,0,0-.6-.39l-5.25,2.45c-.67.31-1.92.54-2.29,1.23-.63,1.17-.42,3.88-.53,5.23s-.21,3-.28,4.47c-.37,7.28-.36,14.57-.67,21.84a.35.35,0,0,0,.31.39.4.4,0,0,0,.39,0c1.94-1.37,4.37-2.26,5.89-4.14S696.67,529,696.8,526.47ZM689,536.73c.24-6,.28-12,.51-18,.13-3.3.31-6.6.63-9.89.2-2,.59-2.52,2.41-3.37l4.22-2c-.07,6.52-.69,13-.82,19.55-.07,3.26.23,7.42-2,10.14C692.74,534.8,690.75,535.66,689,536.73Z" transform="translate(-109.03 -172.69)"/><path class="cls-2" d="M696,538.27c-2.76-1.08-5.45,1.23-6.5,3.63s-1,5.77,1.65,7.17c3.2,1.7,6.46-.68,7.62-3.67a.39.39,0,0,0,0-.06l0-.05C699.57,542.68,698.73,539.34,696,538.27Zm1.94,6.78c-1,2.49-3.64,4.69-6.39,3.21-2.33-1.26-2.09-4.36-1-6.38s3.39-3.84,5.64-2.54C698.11,540.47,698.5,543,697.93,545Z" transform="translate(-109.03 -172.69)"/><path class="cls-2" d="M705.12,535l10.8-8.39c.46-.36,0-1.1-.51-.75l-10.8,8.39C704.16,534.64,704.66,535.39,705.12,535Z" transform="translate(-109.03 -172.69)"/><path class="cls-2" d="M703.84,539.74,715,530.9c.45-.36-.05-1.11-.51-.75L703.33,539C702.88,539.36,703.38,540.11,703.84,539.74Z" transform="translate(-109.03 -172.69)"/><path class="cls-2" d="M711.51,537.17l-3.61,2.89c-.45.36.05,1.11.51.75l3.61-2.88C712.47,537.55,712,536.8,711.51,537.17Z" transform="translate(-109.03 -172.69)"/><path class="cls-2" d="M636.61,511.59A64.8,64.8,0,0,1,702,501.38c.54.22.94-.59.4-.81a65.7,65.7,0,0,0-66.29,10.27C635.66,511.22,636.16,512,636.61,511.59Z" transform="translate(-109.03 -172.69)"/><path class="cls-2" d="M695.83,500.59A67.48,67.48,0,0,0,654,502.51a.45.45,0,0,0,.3.85,66.65,66.65,0,0,1,41.41-1.87C696.22,501.64,696.39,500.75,695.83,500.59Z" transform="translate(-109.03 -172.69)"/></g><path class="cls-3" d="M700.74,477.84c0,116.36-160.93,150.41-291.53,150.41C272.82,628.24,148,618,148,484.65s89.52-312,225.92-312S700.74,395.52,700.74,477.84Z" transform="translate(-109.03 -172.69)"/><path class="cls-4" d="M148,484.65C148,352,236.64,174.52,371.86,172.72l-1.64,0C189.49,172.69,109,356.78,109,487.47s124.8,140.77,261.2,140.77q7.17,0,14.45-.14C258.21,626.55,148,609.92,148,484.65Z" transform="translate(-109.03 -172.69)"/><g id="_Group_" data-name="&lt;Group&gt;"><g id="_Group_2" data-name="&lt;Group&gt;"><path id="_Path_" data-name="&lt;Path&gt;" class="cls-5" d="M373.66,389.38l-42-21.85-2.84,2,37,30.63s1.88-5.3,2.73-6c.27-.23.41-.36.55-.47.88-.68,1.41-1.14,2.23-1.67.23-.15.42-.38.65-.56A7.15,7.15,0,0,0,373.66,389.38Z" transform="translate(-109.03 -172.69)"/><path id="_Path_2" data-name="&lt;Path&gt;" class="cls-5" d="M328.16,363s-7.45-8.64-8.39-9.09-1.49.71-.13,2.12,5.11,6.06,5.11,6.06-6.93-6.72-7.63-6.65-1.08,1,0,1.77,5.43,5.57,5.43,5.57a54.73,54.73,0,0,0-5.64-3.85c-1.16-.45-.45,1.17.58,1.86s4.78,3.63,4.78,3.63-4.08-1.52-4.77-1.36-.44.7,0,1,5.16,2,5.16,2,2.9,3.7,6,3.57,3.51-1.89,3.33-2.35-3.14-8.68-4-9.69S326,358,327,360,328.84,363.07,328.16,363Z" transform="translate(-109.03 -172.69)"/></g><g id="_Group_3" data-name="&lt;Group&gt;"><polygon id="_Path_3" data-name="&lt;Path&gt;" class="cls-6" points="269.43 356.3 271.05 363.85 275.67 363.27 275.67 354.58 269.43 356.3"/><path id="_Path_4" data-name="&lt;Path&gt;" d="M384.64,535.42s2.76,3.19,1.66,6-21,.72-21,.72-.72-.45.56-1l9.27-3.41s3.92-2.11,5.94-1.79A7.38,7.38,0,0,0,384.64,535.42Z" transform="translate(-109.03 -172.69)"/></g><g id="_Group_4" data-name="&lt;Group&gt;"><polygon id="_Path_5" data-name="&lt;Path&gt;" class="cls-6" points="292.05 356.3 290.44 363.85 285.81 363.27 285.81 354.58 292.05 356.3"/><path id="_Path_6" data-name="&lt;Path&gt;" d="M394.89,535.42s-2.76,3.19-1.66,6,21,.72,21,.72.72-.45-.56-1l-9.27-3.41s-3.92-2.11-5.94-1.79A7.38,7.38,0,0,1,394.89,535.42Z" transform="translate(-109.03 -172.69)"/></g><path id="_Path_7" data-name="&lt;Path&gt;" class="cls-7" d="M363.12,460.93s-12.81,8.82-2.47,11.5,37.58-2.95,37.58-2.95Z" transform="translate(-109.03 -172.69)"/><path id="_Path_8" data-name="&lt;Path&gt;" class="cls-8" d="M359.93,449.5s5.72,54.65,17.72,82.18h9.07l1.56-47.41,4.79,47.41h9.25S417.59,496,412.48,453.3,359.93,449.5,359.93,449.5Z" transform="translate(-109.03 -172.69)"/><path id="_Path_9" data-name="&lt;Path&gt;" class="cls-9" d="M361.93,464.11s5-5.13,11.24.74-.71,14,1.67,20.72.61,14.24-6.51,15.34A249.75,249.75,0,0,1,361.93,464.11Z" transform="translate(-109.03 -172.69)"/><path id="_Path_10" data-name="&lt;Path&gt;" class="cls-9" d="M413.35,478.54s-6.44-4.8-14,1.45,0,16.54,4,20.59-2.67,12.82,4.11,14.68A152.82,152.82,0,0,0,413.35,478.54Z" transform="translate(-109.03 -172.69)"/><path id="_Path_11" data-name="&lt;Path&gt;" class="cls-10" d="M366.28,410.41,351.44,395.9l8.49-15L402,393.1l1.67,8.23-.24,6.93h0a44,44,0,0,1,7.22,9.17c10.32,17.16,7.88,48.74,7.88,48.74s-14.57,12.77-29.9,3.52-31.76,0-31.76,0c-5.77-23.32,3.36-48.37,3.36-48.37A36.89,36.89,0,0,1,366.28,410.41Z" transform="translate(-109.03 -172.69)"/><path id="_Path_12" data-name="&lt;Path&gt;" class="cls-10" d="M391.38,392s24.62-2.38,37,23.34l-16.09,9.19Z" transform="translate(-109.03 -172.69)"/><path id="_Path_13" data-name="&lt;Path&gt;" class="cls-5" d="M382.58,372.27c-1,4.85-1.05,9.52,4.32,14.55a19.75,19.75,0,0,0,2.09,1.65c.88.62,2.38,2.36.42,6.3-2.62,5.25,12.7,8.76,12.39.51S407,382.9,411,378.59s5.61-15.1.16-20.14c-2.14-2-8.5-3-13-2C390.48,358,384.22,364.59,382.58,372.27Z" transform="translate(-109.03 -172.69)"/><polygon id="_Path_14" data-name="&lt;Path&gt;" class="cls-11" points="288.29 191.13 281.74 199.57 287.43 202.26 288.29 191.13"/><path id="_Path_15" data-name="&lt;Path&gt;" class="cls-5" d="M411.55,372.33s4.34-2.7,4.82,3.28-5,5.77-6.17,4.14S411.55,372.33,411.55,372.33Z" transform="translate(-109.03 -172.69)"/><g id="_Group_5" data-name="&lt;Group&gt;"><circle id="_Path_16" data-name="&lt;Path&gt;" class="cls-12" cx="381.69" cy="376.97" r="3.8" transform="translate(-173.89 501.56) rotate(-78.3)"/><circle id="_Path_17" data-name="&lt;Path&gt;" class="cls-12" cx="382.78" cy="371.69" r="3.26" transform="translate(-167.85 498.43) rotate(-78.3)"/><circle id="_Path_18" data-name="&lt;Path&gt;" class="cls-12" cx="383.77" cy="366.93" r="2.24" transform="translate(-162.41 495.6) rotate(-78.3)"/><circle id="_Path_19" data-name="&lt;Path&gt;" class="cls-12" cx="408.53" cy="377.03" r="3.26" transform="translate(-152.55 527.89) rotate(-78.3)"/><circle id="_Path_20" data-name="&lt;Path&gt;" class="cls-12" cx="409.52" cy="372.27" r="2.24" transform="translate(-147.1 525.07) rotate(-78.3)"/><circle id="_Path_21" data-name="&lt;Path&gt;" class="cls-12" cx="384.13" cy="376.22" r="3.26" transform="translate(-171.22 503.36) rotate(-78.3)"/><circle id="_Path_22" data-name="&lt;Path&gt;" class="cls-12" cx="388.29" cy="378.34" r="3.8" transform="translate(-169.96 509.12) rotate(-78.3)"/><circle id="_Path_23" data-name="&lt;Path&gt;" class="cls-12" cx="394.57" cy="379.64" r="3.8" transform="translate(-166.23 516.3) rotate(-78.3)"/><circle id="_Path_24" data-name="&lt;Path&gt;" class="cls-12" cx="402.01" cy="381.18" r="3.8" transform="translate(-161.81 524.82) rotate(-78.3)"/><circle id="_Path_25" data-name="&lt;Path&gt;" class="cls-12" cx="402.95" cy="385.25" r="3.8" transform="translate(-165.06 528.98) rotate(-78.3)"/><circle id="_Path_26" data-name="&lt;Path&gt;" class="cls-12" cx="382.16" cy="383.03" r="3.8" transform="translate(-179.45 506.86) rotate(-78.3)"/><circle id="_Path_27" data-name="&lt;Path&gt;" class="cls-12" cx="384.02" cy="388.27" r="3.8" transform="translate(-183.1 512.86) rotate(-78.3)"/><circle id="_Path_28" data-name="&lt;Path&gt;" class="cls-12" cx="389.1" cy="393.21" r="3.8" transform="translate(-183.89 521.76) rotate(-78.3)"/><circle id="_Path_29" data-name="&lt;Path&gt;" class="cls-12" cx="395.37" cy="394.51" r="3.8" transform="translate(-180.16 528.94) rotate(-78.3)"/><circle id="_Path_30" data-name="&lt;Path&gt;" class="cls-12" cx="401.57" cy="391.91" r="3.8" transform="translate(-172.67 532.94) rotate(-78.3)"/><circle id="_Path_31" data-name="&lt;Path&gt;" class="cls-12" cx="397.32" cy="388.44" r="3.8" transform="translate(-172.66 526.02) rotate(-78.3)"/><circle id="_Path_32" data-name="&lt;Path&gt;" class="cls-12" cx="397.68" cy="383.34" r="3.8" transform="translate(-167.38 522.3) rotate(-78.3)"/><circle id="_Path_33" data-name="&lt;Path&gt;" class="cls-12" cx="391.47" cy="389.81" r="3.8" transform="translate(-178.67 521.38) rotate(-78.3)"/><circle id="_Path_34" data-name="&lt;Path&gt;" class="cls-12" cx="392.63" cy="384.19" r="3.8" transform="translate(-172.24 518.04) rotate(-78.3)"/><circle id="_Path_35" data-name="&lt;Path&gt;" class="cls-12" cx="386.21" cy="382.25" r="3.8" transform="translate(-175.47 510.2) rotate(-78.3)"/><circle id="_Path_36" data-name="&lt;Path&gt;" class="cls-12" cx="388.26" cy="386.56" r="3.8" transform="translate(-178.05 515.65) rotate(-78.3)"/><circle id="_Path_37" data-name="&lt;Path&gt;" class="cls-12" cx="407.51" cy="381.95" r="3.8" transform="translate(-158.18 530.82) rotate(-78.3)"/><path id="_Path_38" data-name="&lt;Path&gt;" class="cls-6" d="M385.35,382.5a2.89,2.89,0,0,1-.21-3.33,2.62,2.62,0,0,1,2.33-1.18c3,0,4.39,4,8.89,3.1s3.69,3.94,0,4.67C393.09,386.42,388.1,386,385.35,382.5Z" transform="translate(-109.03 -172.69)"/><circle id="_Path_39" data-name="&lt;Path&gt;" class="cls-12" cx="405.72" cy="387.91" r="3.8" transform="translate(-165.45 533.83) rotate(-78.3)"/></g><ellipse id="_Path_40" data-name="&lt;Path&gt;" class="cls-12" cx="401.65" cy="368.39" rx="1.94" ry="1.08" transform="translate(-201.92 424.72) rotate(-67.38)"/><ellipse id="_Path_41" data-name="&lt;Path&gt;" class="cls-12" cx="392.63" cy="364.69" rx="1.94" ry="1.08" transform="matrix(0.38, -0.92, 0.92, 0.38, -204.06, 414.13)"/><path id="_Path_42" data-name="&lt;Path&gt;" class="cls-5" d="M426,416.74s3.58,9.45-4.78,20.31c-6.18,8-26.22,5.68-30.63-10.31l3.4-3.17s4.51,5.4,9.62,7c3.28,1,11.56,1.3,10-6.87-.11-.57.16.54,0,0Z" transform="translate(-109.03 -172.69)"/><rect id="_Rectangle_" data-name="&lt;Rectangle&gt;" class="cls-13" x="398.31" y="365.58" width="7.41" height="6.86" rx="1.63" ry="1.63" transform="translate(505.64 698.87) rotate(-155.48)"/><rect id="_Rectangle_2" data-name="&lt;Rectangle&gt;" class="cls-13" x="387.76" y="360.4" width="7.41" height="6.86" rx="1.63" ry="1.63" transform="translate(487.64 684.59) rotate(-155.48)"/><line id="_Path_43" data-name="&lt;Path&gt;" class="cls-13" x1="290.65" y1="192.51" x2="286.64" y2="190.86"/><line id="_Path_44" data-name="&lt;Path&gt;" class="cls-13" x1="297.39" y1="195.59" x2="305.27" y2="199"/><g id="_Group_6" data-name="&lt;Group&gt;"><g id="_Group_7" data-name="&lt;Group&gt;"><path id="_Path_45" data-name="&lt;Path&gt;" class="cls-14" d="M387,424.59h0a1.58,1.58,0,0,1-1-2l43.17-124.4a1.58,1.58,0,0,1,2-1h0a1.58,1.58,0,0,1,1,2l-43.17,124.4A1.58,1.58,0,0,1,387,424.59Z" transform="translate(-109.03 -172.69)"/></g><g id="_Group_8" data-name="&lt;Group&gt;"><g id="_Group_9" data-name="&lt;Group&gt;"><path id="_Path_46" data-name="&lt;Path&gt;" class="cls-4" d="M353.82,340.3a11.49,11.49,0,0,1,7.52,8.42A11.46,11.46,0,0,1,380,355a11.46,11.46,0,0,1,18.62,6.31,11.46,11.46,0,0,1,18.62,6.31A11.46,11.46,0,0,1,435.8,374a11.46,11.46,0,0,1,18.62,6.31,11.45,11.45,0,0,1,18.63,6.42,68.85,68.85,0,0,0-130.41-44.19A11.5,11.5,0,0,1,353.82,340.3Z" transform="translate(-109.03 -172.69)"/></g><g id="_Group_10" data-name="&lt;Group&gt;"><path id="_Path_47" data-name="&lt;Path&gt;" class="cls-6" d="M422.72,298.33s-38-1.37-61.38,50.4c0,0-5-15.05-18.7-6.23C342.64,342.49,360,285.77,422.72,298.33Z" transform="translate(-109.03 -172.69)"/></g><g id="_Group_11" data-name="&lt;Group&gt;"><path id="_Path_48" data-name="&lt;Path&gt;" class="cls-6" d="M434.24,302s31.93,23,20.1,78.55c0,0,13-9.16,18.76,6.05C473.1,386.61,493.07,328.62,434.24,302Z" transform="translate(-109.03 -172.69)"/></g><g id="_Group_12" data-name="&lt;Group&gt;"><path id="_Path_49" data-name="&lt;Path&gt;" class="cls-6" d="M428,299.75s-26.65,7.18-37,53.16a13.09,13.09,0,0,1,7.52,8.42s4.79-3.92,10.61-2.27a11.72,11.72,0,0,1,8,8.57s5.75-4,11.1-2.12C428.28,365.53,446.58,327.5,428,299.75Z" transform="translate(-109.03 -172.69)"/></g></g></g><path id="_Path_50" data-name="&lt;Path&gt;" class="cls-5" d="M383.79,422.89a.54.54,0,0,1,.59-.44l1.19.14-1.19-.55a.61.61,0,0,1-.35-.63h0a.61.61,0,0,1,.78-.49,7.08,7.08,0,0,0,.84.21l-.71-.48a.88.88,0,0,1-.53-.89h0a.92.92,0,0,1,1.32-.54l1.14.62-1.53-1.08a.91.91,0,0,1-.34-1h0a.91.91,0,0,1,1.32-.5c1.63,1,3.78,2.35,3.78,2.35.27.08.83,1.37.48,1.11l.38-2.08c1.14,1.68,2.68,4.3,2.8,4.47.23.33.8,3.28-1.6,3.94s-6-3.23-6-3.23l-1.94-.24a.54.54,0,0,1-.46-.63Z" transform="translate(-109.03 -172.69)"/><path id="_Path_51" data-name="&lt;Path&gt;" class="cls-5" d="M391.32,417.09s-.07.31,1.25,4l-2.89-.37Z" transform="translate(-109.03 -172.69)"/></g><g class="cls-15"><text class="cls-16" transform="matrix(4.01, 0, 0, -1, 116.69, 423.06)">QUESTION</text></g><text class="cls-17" transform="translate(111.27 424.04)">QUESTION</text><path class="cls-18" d="M282,421.28c-1.89-8.74-13.36-13.67-25.61-11s-20.65,11.89-18.76,20.62,13.36,13.67,25.61,11a30.7,30.7,0,0,0,8.23-3l8.33,2.13-3.86-5.2C280.61,431.76,283.08,426.43,282,421.28Z" transform="translate(-109.03 -172.69)"/><g class="cls-19"><path class="cls-20" d="M370.1,209.91l-2,0q-.41-2.9-2.94-2.93a2.84,2.84,0,0,0-2.09.76,2.67,2.67,0,0,0-.82,2,2.45,2.45,0,0,0,.28,1.17,6.82,6.82,0,0,0,1.48,1.6,6.63,6.63,0,0,1,1.64,2,6.71,6.71,0,0,1,.42,2.87l-1.86,0a5.55,5.55,0,0,0-.26-2.12,5.93,5.93,0,0,0-1.56-1.73,7.14,7.14,0,0,1-1.74-2,4,4,0,0,1-.45-1.92,3.8,3.8,0,0,1,1.41-3,5.28,5.28,0,0,1,3.59-1.14,5,5,0,0,1,3.44,1.24A4.71,4.71,0,0,1,370.1,209.91Zm-4,11.16-2.15,0,0-2.15,2.15,0Z" transform="translate(-109.03 -172.69)"/></g><g class="cls-19"><path class="cls-20" d="M221.37,475.74,216,476.82q-2.7-7.39-9.36-6a7.63,7.63,0,0,0-5.05,3.17,7.16,7.16,0,0,0-1,5.66,6.58,6.58,0,0,0,1.4,2.92,18.3,18.3,0,0,0,4.79,3.36,17.77,17.77,0,0,1,5.41,4.21q1.69,2.15,2.73,7.28l-4.89,1a14.89,14.89,0,0,0-1.89-5.41q-1.1-1.52-5.07-3.65a19.15,19.15,0,0,1-5.68-4.2,10.69,10.69,0,0,1-2.26-4.77,10.19,10.19,0,0,1,2-8.64,14.17,14.17,0,0,1,8.77-5,13.45,13.45,0,0,1,9.73,1.32A12.63,12.63,0,0,1,221.37,475.74Zm-4.25,31.54-5.66,1.15-1.15-5.66,5.66-1.15Z" transform="translate(-109.03 -172.69)"/></g><g class="cls-19"><path class="cls-20" d="M258.36,308.63l-4.62,1.21q-2.72-6.31-8.46-4.81a6.66,6.66,0,0,0-4.25,3,6.25,6.25,0,0,0-.63,5,5.75,5.75,0,0,0,1.36,2.48,16,16,0,0,0,4.34,2.69,15.52,15.52,0,0,1,4.92,3.4,15.73,15.73,0,0,1,2.74,6.22l-4.21,1.1a13,13,0,0,0-1.91-4.63,13.89,13.89,0,0,0-4.6-2.93,16.73,16.73,0,0,1-5.16-3.38,9.34,9.34,0,0,1-2.21-4.05,8.9,8.9,0,0,1,1.32-7.64,12.38,12.38,0,0,1,7.41-4.8,11.74,11.74,0,0,1,8.55.67A11,11,0,0,1,258.36,308.63Zm-2.15,27.71-4.88,1.28L250,332.75l4.88-1.28Z" transform="translate(-109.03 -172.69)"/></g><g class="cls-19"><path class="cls-20" d="M534.45,325.95l-1.15-.54a1.79,1.79,0,0,0-.92-2.42,1.77,1.77,0,0,0-1.38-.11,1.66,1.66,0,0,0-1,.92,1.53,1.53,0,0,0-.14.74,4.26,4.26,0,0,0,.43,1.29,4.13,4.13,0,0,1,.43,1.53,4.19,4.19,0,0,1-.5,1.74l-1.05-.49a3.46,3.46,0,0,0,.39-1.27,3.7,3.7,0,0,0-.44-1.38,4.45,4.45,0,0,1-.48-1.57,2.49,2.49,0,0,1,.24-1.21,2.37,2.37,0,0,1,1.57-1.34,3.3,3.3,0,0,1,2.33.27,3.13,3.13,0,0,1,1.64,1.59A2.94,2.94,0,0,1,534.45,325.95Zm-5.15,5.31-1.22-.57.57-1.22,1.22.57Z" transform="translate(-109.03 -172.69)"/></g><g class="cls-19"><path class="cls-20" d="M300.42,508.68l-1.15-.54a1.79,1.79,0,0,0-.92-2.42,1.77,1.77,0,0,0-1.38-.11,1.66,1.66,0,0,0-1,.92,1.53,1.53,0,0,0-.14.74,4.26,4.26,0,0,0,.43,1.29,4.13,4.13,0,0,1,.43,1.53,4.19,4.19,0,0,1-.5,1.74l-1.05-.49a3.46,3.46,0,0,0,.39-1.27,3.7,3.7,0,0,0-.44-1.38,4.45,4.45,0,0,1-.48-1.57,2.49,2.49,0,0,1,.24-1.21,2.37,2.37,0,0,1,1.57-1.34,3.3,3.3,0,0,1,2.33.27,3.13,3.13,0,0,1,1.64,1.59A2.94,2.94,0,0,1,300.42,508.68ZM295.27,514l-1.22-.57.57-1.22,1.22.57Z" transform="translate(-109.03 -172.69)"/></g><g class="cls-19"><path class="cls-20" d="M464,242.62a9.39,9.39,0,0,1,6.78-1,9.89,9.89,0,0,1,6.16,3.43,7.11,7.11,0,0,1,1.46,6,7.46,7.46,0,0,1-1.54,3.35,13.37,13.37,0,0,1-3.93,3,11.1,11.1,0,0,0-3.51,2.58,10.39,10.39,0,0,0-1.27,3.79l-3.42-.65a12.57,12.57,0,0,1,1.85-5.1,12.4,12.4,0,0,1,3.74-3,12.78,12.78,0,0,0,3.32-2.38,4.59,4.59,0,0,0,1-2.05,5,5,0,0,0-.77-3.94,5.33,5.33,0,0,0-3.55-2.17q-4.66-.89-6.49,4.29l-3.75-.72A8.81,8.81,0,0,1,464,242.62Zm0,23.46,4,.76-.76,4-4-.76Z" transform="translate(-109.03 -172.69)"/></g><g class="cls-19"><path class="cls-20" d="M596.78,396.62l-5,1q-2.55-6.95-8.81-5.68a7.18,7.18,0,0,0-4.75,3,6.74,6.74,0,0,0-1,5.32,6.19,6.19,0,0,0,1.32,2.75,17.22,17.22,0,0,0,4.51,3.16,16.72,16.72,0,0,1,5.09,4q1.59,2,2.57,6.85l-4.6.93a14,14,0,0,0-1.78-5.09q-1-1.43-4.77-3.43a18,18,0,0,1-5.35-3.95,10.06,10.06,0,0,1-2.13-4.49,9.59,9.59,0,0,1,1.88-8.13,13.34,13.34,0,0,1,8.25-4.72,12.65,12.65,0,0,1,9.15,1.24A11.88,11.88,0,0,1,596.78,396.62Zm-4,29.68-5.33,1.08-1.08-5.33,5.33-1.08Z" transform="translate(-109.03 -172.69)"/></g><g class="cls-19"><path class="cls-20" d="M542.89,486.23a4.55,4.55,0,0,1,2.95-1.53,4.8,4.8,0,0,1,3.37.59,3.45,3.45,0,0,1,1.62,2.52,3.62,3.62,0,0,1-.17,1.78,6.48,6.48,0,0,1-1.33,2,5.38,5.38,0,0,0-1.2,1.74,5,5,0,0,0,0,1.94l-1.67.24a6.09,6.09,0,0,1,0-2.63,6,6,0,0,1,1.24-2,6.19,6.19,0,0,0,1.14-1.62,2.23,2.23,0,0,0,.11-1.09,2.42,2.42,0,0,0-1-1.68,2.58,2.58,0,0,0-2-.43q-2.27.33-2.29,3l-1.83.27A4.27,4.27,0,0,1,542.89,486.23ZM546.61,497l1.93-.28.28,1.93-1.93.28Z" transform="translate(-109.03 -172.69)"/></g><path class="cls-6" d="M494.2,450.9a2.05,2.05,0,0,1-2.8.77l-15.7-8.94a2.05,2.05,0,0,1-.77-2.8l17.59-30.87a2.05,2.05,0,0,1,2.8-.77l15.7,8.94a2.05,2.05,0,0,1,.77,2.8Z" transform="translate(-109.03 -172.69)"/><circle class="cls-21" cx="485.07" cy="444.52" r="1.49" transform="translate(-250.3 473.28) rotate(-60.33)"/><rect class="cls-21" x="501.84" y="412.05" width="0.41" height="5.34" transform="translate(-215.83 472.99) rotate(-60.33)"/><rect class="cls-18" x="479.01" y="419.91" width="29.71" height="18.34" transform="translate(-232.44 473.14) rotate(-60.33)"/><path class="cls-18" d="M318,278.17l-4.32,3.06,7,.46a25.09,25.09,0,0,0,5.62,4.44c8.85,5.17,19,4.24,22.69-2.07s-.5-15.61-9.35-20.78-19-4.24-22.69,2.07C314.77,269.08,315.33,273.83,318,278.17Zm21.28.46a2.41,2.41,0,1,1,.87,3.3A2.41,2.41,0,0,1,339.25,278.64Zm-8-4.68a2.41,2.41,0,1,1,.87,3.3A2.41,2.41,0,0,1,331.23,274Zm-8-4.68a2.41,2.41,0,1,1,.87,3.3A2.41,2.41,0,0,1,323.21,269.27Z" transform="translate(-109.03 -172.69)"/></svg>