<?xml version="1.0" encoding="utf-8"?>
<!-- Generator: Adobe Illustrator 21.0.0, SVG Export Plug-In . SVG Version: 6.00 Build 0)  -->
<svg version="1.1" id="Layer_1" xmlns="http://www.w3.org/2000/svg" xmlns:xlink="http://www.w3.org/1999/xlink" x="0px" y="0px"
	 viewBox="0 0 700 600" style="enable-background:new 0 0 700 600;" xml:space="preserve">
<style type="text/css">
	.st0{fill:url(#SVGID_1_);}
	.st1{fill:#F4C74A;}
	.st2{fill:#FFCB9C;}
	.st3{fill:#FFFFFF;}
	.st4{fill:#4B1568;}
	.st5{fill:#1B364F;}
	.st6{opacity:0.38;fill:#274F6D;}
	.st7{fill:#ED83AC;}
	.st8{fill:#FF6252;}
	.st9{fill:#1D1D1B;}
	.st10{fill:none;stroke:#1D1D1B;stroke-miterlimit:10;}
	.st11{fill:#283560;}
	.st12{fill:#65C5EF;}
	.st13{opacity:0.8;}
	.st14{fill:#FCB6A8;}
	.st15{fill:#154D61;}
	.st16{opacity:0.4;}
	.st17{fill:#333333;}
	.st18{fill:#FBB03B;}
</style>
<g>
	<linearGradient id="SVGID_1_" gradientUnits="userSpaceOnUse" x1="372.9557" y1="613.5339" x2="371.4563" y2="-22.5046">
		<stop  offset="9.732377e-02" style="stop-color:#4A69BD"/>
		<stop  offset="0.3504" style="stop-color:#368BAF"/>
		<stop  offset="0.6011" style="stop-color:#27A6A5"/>
		<stop  offset="0.8239" style="stop-color:#1DB69E"/>
		<stop  offset="0.9959" style="stop-color:#1ABC9C"/>
	</linearGradient>
	<path class="st0" d="M690.5,389c0,133.9-185.2,173.1-335.5,173.1c-157,0-300.6-11.8-300.6-165.2s103-359,260-359
		S690.5,294.3,690.5,389z"/>
	<path class="st1" d="M54.4,396.9c0-152.6,102-356.9,257.6-359c-0.6,0-1.3,0-1.9,0c-208,0-300.6,211.8-300.6,362.2
		s143.6,162,300.6,162c5.5,0,11-0.1,16.6-0.2C181.2,560.2,54.4,541,54.4,396.9z"/>
</g>
<g id="XMLID_113_">
	<g id="XMLID_300_">
		<path id="XMLID_330_" class="st2" d="M314.1,287.2l-48.4-25.1l-3.3,2.3l42.5,35.3c0,0,2.2-6.1,3.1-7c0.3-0.3,0.5-0.4,0.6-0.5
			c1-0.8,1.6-1.3,2.6-1.9c0.3-0.2,0.5-0.4,0.7-0.6C313.3,288.6,314.1,287.2,314.1,287.2z"/>
		<path id="XMLID_317_" class="st2" d="M261.7,256.9c0,0-8.6-9.9-9.7-10.5c-1.1-0.5-1.7,0.8-0.1,2.4c1.6,1.6,5.9,7,5.9,7
			s-8-7.7-8.8-7.7c-0.8,0.1-1.2,1.1,0,2c1.2,0.9,6.3,6.4,6.3,6.4s-5.2-3.9-6.5-4.4c-1.3-0.5-0.5,1.3,0.7,2.1
			c1.2,0.8,5.5,4.2,5.5,4.2s-4.7-1.8-5.5-1.6c-0.8,0.2-0.5,0.8,0,1.1c0.5,0.3,5.9,2.3,5.9,2.3s3.3,4.3,6.9,4.1
			c3.5-0.2,4-2.2,3.8-2.7c-0.2-0.5-3.6-10-4.6-11.2c-1-1.2-2.2,0.5-1.1,2.8C261.4,255.6,262.5,257,261.7,256.9z"/>
	</g>
	<g id="XMLID_268_">
		<polygon id="XMLID_298_" class="st3" points="319.6,447.9 321.4,456.6 326.8,455.9 326.8,445.9 		"/>
		<path id="XMLID_285_" d="M326.7,455.3c0,0,3.2,3.7,1.9,6.9c-1.3,3.2-24.1,0.8-24.1,0.8s-0.8-0.5,0.6-1.1l10.7-3.9
			c0,0,4.5-2.4,6.8-2.1C324.6,456.2,326.7,455.3,326.7,455.3z"/>
	</g>
	<g id="XMLID_255_">
		<polygon id="XMLID_257_" class="st3" points="345.6,447.9 343.8,456.6 338.4,455.9 338.4,445.9 		"/>
		<path id="XMLID_256_" d="M338.5,455.3c0,0-3.2,3.7-1.9,6.9c1.3,3.2,24.1,0.8,24.1,0.8s0.8-0.5-0.6-1.1l-10.7-3.9
			c0,0-4.5-2.4-6.8-2.1C340.6,456.2,338.5,455.3,338.5,455.3z"/>
	</g>
	<path id="XMLID_254_" class="st4" d="M301.9,369.6c0,0-14.7,10.2-2.8,13.2c11.9,3.1,43.2-3.4,43.2-3.4L301.9,369.6z"/>
	<path id="XMLID_253_" class="st5" d="M298.3,356.4c0,0,6.6,62.9,20.4,94.6h10.4l1.8-54.6l5.5,54.6H347c0,0,17.6-41.1,11.7-90.2
		C352.8,311.7,298.3,356.4,298.3,356.4z"/>
	<path id="XMLID_252_" class="st6" d="M300.6,373.2c0,0,5.8-5.9,12.9,0.8c7.2,6.8-0.8,16.1,1.9,23.8c2.7,7.8,0.7,16.4-7.5,17.7
		C307.9,415.6,302.3,394.1,300.6,373.2z"/>
	<path id="XMLID_247_" class="st6" d="M359.7,389.8c0,0-7.4-5.5-16.1,1.7c-8.6,7.2,0,19,4.6,23.7c4.6,4.7-3.1,14.8,4.7,16.9
		C353.1,432.1,359.2,412,359.7,389.8z"/>
	<path id="XMLID_246_" class="st7" d="M305.6,311.4l-17.1-16.7l9.8-17.3l48.4,14.1l1.9,9.5l-0.3,8l0,0c2.9,2.8,5.7,6.3,8.3,10.6
		c11.9,19.7,9.1,56.1,9.1,56.1s-16.8,14.7-34.4,4c-17.6-10.6-36.6,0-36.6,0c-6.6-26.8,3.9-55.7,3.9-55.7
		C299.5,320.9,302,316,305.6,311.4z"/>
	<path id="XMLID_243_" class="st7" d="M334.5,290.3c0,0,28.3-2.7,42.6,26.9l-18.5,10.6L334.5,290.3z"/>
	<path id="XMLID_239_" class="st2" d="M324.3,267.6c-1.2,5.6-1.2,11,5,16.7c0.7,0.7,1.6,1.3,2.4,1.9c1,0.7,2.7,2.7,0.5,7.2
		c-3,6,14.6,10.1,14.3,0.6c-0.4-9.5,6-14.2,10.6-19.2c4.7-5,6.5-17.4,0.2-23.2c-2.5-2.3-9.8-3.4-15-2.3
		C333.4,251.1,326.2,258.7,324.3,267.6z"/>
	<polygon id="XMLID_236_" class="st8" points="341.3,257.8 333.8,267.5 340.3,270.6 	"/>
	<path id="XMLID_235_" class="st2" d="M357.7,267.6c0,0,5-3.1,5.5,3.8c0.6,6.9-5.8,6.6-7.1,4.8C354.8,274.3,357.7,267.6,357.7,267.6
		z"/>
	<g id="XMLID_187_">
		
			<ellipse id="XMLID_225_" transform="matrix(0.2028 -0.9792 0.9792 0.2028 -9.5538 534.1774)" class="st9" cx="323.3" cy="273" rx="4.4" ry="4.4"/>
		
			<ellipse id="XMLID_223_" transform="matrix(0.2028 -0.9792 0.9792 0.2028 -2.6076 530.5747)" class="st9" cx="324.6" cy="266.9" rx="3.8" ry="3.8"/>
		
			<ellipse id="XMLID_222_" transform="matrix(0.2028 -0.9792 0.9792 0.2028 3.6608 527.3124)" class="st9" cx="325.7" cy="261.4" rx="2.6" ry="2.6"/>
		
			<ellipse id="XMLID_221_" transform="matrix(0.2028 -0.9792 0.9792 0.2028 14.9985 564.4774)" class="st9" cx="354.2" cy="273" rx="3.8" ry="3.8"/>
		
			<ellipse id="XMLID_218_" transform="matrix(0.2028 -0.9792 0.9792 0.2028 21.2734 561.223)" class="st9" cx="355.3" cy="267.5" rx="2.6" ry="2.6"/>
		
			<ellipse id="XMLID_217_" transform="matrix(0.2028 -0.9792 0.9792 0.2028 -6.4801 536.2402)" class="st9" cx="326.1" cy="272.1" rx="3.8" ry="3.8"/>
		
			<ellipse id="XMLID_215_" transform="matrix(0.2028 -0.9792 0.9792 0.2028 -5.0366 542.8754)" class="st9" cx="330.9" cy="274.5" rx="4.4" ry="4.4"/>
		
			<ellipse id="XMLID_214_" transform="matrix(0.2028 -0.9792 0.9792 0.2028 -0.7448 551.1392)" class="st9" cx="338.1" cy="276" rx="4.4" ry="4.4"/>
		
			<ellipse id="XMLID_213_" transform="matrix(0.2028 -0.9792 0.9792 0.2028 4.3468 560.9422)" class="st9" cx="346.7" cy="277.8" rx="4.4" ry="4.4"/>
		
			<ellipse id="XMLID_211_" transform="matrix(0.2028 -0.9792 0.9792 0.2028 0.6066 565.7303)" class="st9" cx="347.8" cy="282.5" rx="4.4" ry="4.4"/>
		
			<ellipse id="XMLID_208_" transform="matrix(0.2028 -0.9792 0.9792 0.2028 -15.9521 540.2764)" class="st9" cx="323.9" cy="279.9" rx="4.4" ry="4.4"/>
		
			<ellipse id="XMLID_205_" transform="matrix(0.2028 -0.9792 0.9792 0.2028 -20.1495 547.1774)" class="st9" cx="326" cy="286" rx="4.4" ry="4.4"/>
		
			<ellipse id="XMLID_204_" transform="matrix(0.2028 -0.9792 0.9792 0.2028 -21.0566 557.4197)" class="st9" cx="331.8" cy="291.6" rx="4.4" ry="4.4"/>
		
			<ellipse id="XMLID_203_" transform="matrix(0.2028 -0.9792 0.9792 0.2028 -16.7654 565.6827)" class="st9" cx="339.1" cy="293.1" rx="4.4" ry="4.4"/>
		
			<ellipse id="XMLID_202_" transform="matrix(0.2028 -0.9792 0.9792 0.2028 -8.1517 570.2789)" class="st9" cx="346.2" cy="290.1" rx="4.4" ry="4.4"/>
		
			<ellipse id="XMLID_201_" transform="matrix(0.2028 -0.9792 0.9792 0.2028 -8.1435 562.3146)" class="st9" cx="341.3" cy="286.2" rx="4.4" ry="4.4"/>
		
			<ellipse id="XMLID_196_" transform="matrix(0.2028 -0.9792 0.9792 0.2028 -2.0597 558.0452)" class="st9" cx="341.7" cy="280.3" rx="4.4" ry="4.4"/>
		
			<ellipse id="XMLID_194_" transform="matrix(0.2028 -0.9792 0.9792 0.2028 -15.0592 556.9788)" class="st9" cx="334.6" cy="287.7" rx="4.4" ry="4.4"/>
		
			<ellipse id="XMLID_193_" transform="matrix(0.2028 -0.9792 0.9792 0.2028 -7.6611 553.1365)" class="st9" cx="335.9" cy="281.3" rx="4.4" ry="4.4"/>
		
			<ellipse id="XMLID_192_" transform="matrix(0.2028 -0.9792 0.9792 0.2028 -11.3678 544.1176)" class="st9" cx="328.5" cy="279" rx="4.4" ry="4.4"/>
		
			<ellipse id="XMLID_191_" transform="matrix(0.2028 -0.9792 0.9792 0.2028 -14.3407 550.3825)" class="st9" cx="330.9" cy="284" rx="4.4" ry="4.4"/>
		
			<ellipse id="XMLID_190_" transform="matrix(0.2028 -0.9792 0.9792 0.2028 8.5199 567.8447)" class="st9" cx="353" cy="278.7" rx="4.4" ry="4.4"/>
		<path id="XMLID_189_" class="st3" d="M327.5,279.3c-0.9-1.1-1-2.7-0.2-3.8c0.5-0.7,1.3-1.3,2.7-1.4c3.5,0,5.1,4.7,10.2,3.6
			c5.2-1.1,4.2,4.5,0,5.4C336.4,283.8,330.7,283.4,327.5,279.3z"/>
		
			<ellipse id="XMLID_188_" transform="matrix(0.2028 -0.9792 0.9792 0.2028 0.1611 571.3017)" class="st9" cx="351" cy="285.6" rx="4.4" ry="4.4"/>
	</g>
	
		<ellipse id="XMLID_184_" transform="matrix(0.3847 -0.9231 0.9231 0.3847 -29.7662 481.5118)" class="st9" cx="346.3" cy="263.1" rx="2.2" ry="1.2"/>
	
		<ellipse id="XMLID_181_" transform="matrix(0.3847 -0.9231 0.9231 0.3847 -32.2301 469.3176)" class="st9" cx="335.9" cy="258.8" rx="2.2" ry="1.2"/>
	<path id="XMLID_180_" class="st2" d="M374.3,318.7c0,0,4.1,10.9-5.5,23.4c-7.1,9.2-30.2,6.5-35.2-11.9l3.9-3.7
		c0,0,5.2,6.2,11.1,8.1c3.8,1.2,13.3,1.5,11.5-7.9c-0.1-0.7,0.2,0.6,0,0L374.3,318.7z"/>
	<path id="XMLID_179_" class="st10" d="M342.7,266.3l4.8,2.2c0.8,0.4,1.8,0,2.2-0.8l1.9-4.2c0.4-0.8,0-1.8-0.8-2.2l-4.8-2.2
		c-0.8-0.4-1.8,0-2.2,0.8l-1.9,4.2C341.5,265,341.8,265.9,342.7,266.3z"/>
	<path id="XMLID_172_" class="st10" d="M330.5,260.3l4.8,2.2c0.8,0.4,1.8,0,2.2-0.8l1.9-4.2c0.4-0.8,0-1.8-0.8-2.2l-4.8-2.2
		c-0.8-0.4-1.8,0-2.2,0.8l-1.9,4.2C329.3,259,329.7,260,330.5,260.3z"/>
	<line id="XMLID_167_" class="st10" x1="344" y1="259.4" x2="339.4" y2="257.5"/>
	<line id="XMLID_129_" class="st10" x1="351.8" y1="263" x2="360.8" y2="266.9"/>
	<g id="XMLID_116_">
		<g id="XMLID_127_">
			<path id="XMLID_128_" class="st11" d="M329.5,327.8L329.5,327.8c-0.9-0.3-1.4-1.4-1.1-2.3L378,182.3c0.3-0.9,1.4-1.4,2.3-1.1l0,0
				c0.9,0.3,1.4,1.4,1.1,2.3l-49.7,143.2C331.5,327.6,330.4,328.1,329.5,327.8z"/>
		</g>
		<g id="XMLID_117_">
			<g id="XMLID_124_">
				<path id="XMLID_126_" class="st1" d="M291.2,230.8c4.6,1.5,7.7,5.3,8.7,9.7c3.4-2.9,8.2-4,12.8-2.4c4.6,1.5,7.7,5.3,8.7,9.7
					c3.4-2.9,8.2-4,12.8-2.4c4.6,1.5,7.7,5.3,8.7,9.7c3.4-2.9,8.2-4,12.8-2.4c4.6,1.5,7.7,5.3,8.7,9.7c3.4-2.9,8.2-4,12.8-2.4
					c4.6,1.5,7.7,5.3,8.7,9.7c3.4-2.9,8.2-4,12.8-2.4c4.6,1.5,7.7,5.3,8.7,9.7c3.4-2.9,8.2-4,12.8-2.4c4.6,1.6,7.7,5.4,8.7,9.8
					c13.3-41.2-8.8-85.5-49.9-99.4c-41.1-13.9-85.7,7.8-100.1,48.6C281.8,230.3,286.6,229.2,291.2,230.8z"/>
			</g>
			<g id="XMLID_122_">
				<path id="XMLID_123_" class="st3" d="M370.5,182.5c0,0-43.7-1.6-70.6,58c0,0-5.8-17.3-21.5-7.2
					C278.4,233.3,298.4,168,370.5,182.5z"/>
			</g>
			<g id="XMLID_120_">
				<path id="XMLID_121_" class="st3" d="M383.8,186.7c0,0,36.7,26.4,23.1,90.4c0,0,14.9-10.5,21.6,7
					C428.5,284.1,451.5,217.3,383.8,186.7z"/>
			</g>
			<g id="XMLID_118_">
				<path id="XMLID_119_" class="st3" d="M376.6,184.1c0,0-30.7,8.3-42.6,61.2c0,0,6.4,2.2,8.7,9.7c0,0,5.5-4.5,12.2-2.6
					c0,0,7.1,1.7,9.2,9.9c0,0,6.6-4.6,12.8-2.4C376.9,259.8,398,216,376.6,184.1z"/>
			</g>
		</g>
	</g>
	<path id="XMLID_115_" class="st2" d="M325.7,325.8c0.1-0.3,0.4-0.5,0.7-0.5c0.8,0.1,1.4,0.2,1.4,0.2s-0.6-0.3-1.4-0.6
		c-0.3-0.1-0.4-0.4-0.4-0.7c0,0,0,0,0,0c0.1-0.4,0.5-0.7,0.9-0.6c0.6,0.2,1,0.2,1,0.2s-0.3-0.2-0.8-0.6c-0.4-0.3-0.6-0.4-0.6-1l0,0
		c0.2-0.6,0.9-0.9,1.5-0.6c0.8,0.4,1.3,0.7,1.3,0.7s-0.8-0.5-1.8-1.2c-0.4-0.3-0.5-0.7-0.4-1.2v0c0.2-0.6,0.9-0.9,1.5-0.6
		c1.9,1.1,4.3,2.7,4.3,2.7c0.3,0.1,1,1.6,0.6,1.3l0.4-2.4c1.3,1.9,3.1,5,3.2,5.1c0.3,0.4,0.9,3.8-1.8,4.5c-2.8,0.8-6.9-3.7-6.9-3.7
		s-1.1-0.1-2.2-0.3C325.9,326.5,325.7,326.2,325.7,325.8C325.7,325.8,325.7,325.8,325.7,325.8z"/>
	<path id="XMLID_114_" class="st2" d="M334.4,319.1c0,0-0.1,0.4,1.4,4.6l-3.3-0.4L334.4,319.1z"/>
</g>
<path class="st12" d="M208.5,324c-2.2-10.1-15.4-15.7-29.5-12.7c-14.1,3.1-23.8,13.7-21.6,23.7c2.2,10.1,15.4,15.7,29.5,12.7
	c3.5-0.7,6.6-2,9.5-3.5l9.6,2.5l-4.4-6C207,336,209.8,329.9,208.5,324z"/>
<g class="st13">
	<path class="st14" d="M310,80.7l-2.3,0c-0.3-2.2-1.4-3.4-3.4-3.4c-1,0-1.8,0.3-2.4,0.9c-0.6,0.6-0.9,1.4-0.9,2.3
		c0,0.5,0.1,0.9,0.3,1.4c0.2,0.4,0.8,1,1.7,1.8c0.9,0.8,1.5,1.6,1.9,2.3s0.5,1.8,0.5,3.3l-2.1,0c0-1.1-0.1-1.9-0.3-2.4
		c-0.2-0.5-0.8-1.2-1.8-2c-1-0.8-1.6-1.6-2-2.3s-0.5-1.4-0.5-2.2c0-1.4,0.6-2.6,1.6-3.4c1.1-0.9,2.4-1.3,4.1-1.3
		c1.6,0,2.9,0.5,4,1.4C309.3,77.9,309.9,79.1,310,80.7z M305.4,93.6l-2.5,0l0-2.5l2.5,0L305.4,93.6z"/>
</g>
<g class="st13">
	<path class="st14" d="M138.8,386.6l-6.2,1.2c-2.1-5.7-5.7-8-10.8-6.9c-2.6,0.5-4.5,1.7-5.8,3.6c-1.3,1.9-1.7,4.1-1.2,6.5
		c0.3,1.3,0.8,2.4,1.6,3.4c0.8,1,2.7,2.3,5.5,3.9c2.9,1.6,4.9,3.2,6.2,4.8s2.3,4.4,3.1,8.4l-5.6,1.1c-0.6-3-1.3-5.1-2.2-6.2
		c-0.8-1.2-2.8-2.6-5.8-4.2s-5.2-3.2-6.5-4.8c-1.3-1.6-2.2-3.4-2.6-5.5c-0.7-3.7,0-7,2.3-9.9c2.3-2.9,5.6-4.9,10.1-5.8
		c4.2-0.9,8-0.4,11.2,1.5S137.6,382.6,138.8,386.6z M133.9,422.9l-6.5,1.3l-1.3-6.5l6.5-1.3L133.9,422.9z"/>
</g>
<g class="st13">
	<path class="st14" d="M181.4,194.3l-5.3,1.4c-2.1-4.8-5.3-6.7-9.7-5.5c-2.2,0.6-3.9,1.7-4.9,3.5c-1,1.7-1.3,3.6-0.7,5.7
		c0.3,1.1,0.8,2,1.6,2.9c0.8,0.8,2.4,1.9,5,3.1c2.6,1.2,4.5,2.5,5.7,3.9c1.2,1.4,2.3,3.8,3.1,7.2l-4.8,1.3c-0.7-2.6-1.4-4.3-2.2-5.3
		c-0.8-1-2.6-2.1-5.3-3.4s-4.7-2.6-5.9-3.9c-1.2-1.3-2.1-2.9-2.5-4.7c-0.8-3.2-0.3-6.1,1.5-8.8s4.7-4.5,8.5-5.5
		c3.7-1,6.9-0.7,9.8,0.8S180.1,190.8,181.4,194.3z M178.9,226.2l-5.6,1.5l-1.5-5.6l5.6-1.5L178.9,226.2z"/>
</g>
<g class="st13">
	<path class="st14" d="M499.1,214.2l-1.3-0.6c0.4-1.3,0-2.3-1.1-2.8c-0.6-0.3-1.1-0.3-1.6-0.1s-0.9,0.5-1.1,1.1
		c-0.1,0.3-0.2,0.6-0.2,0.9s0.2,0.8,0.5,1.5c0.3,0.7,0.5,1.3,0.5,1.8c0,0.5-0.2,1.2-0.6,2l-1.2-0.6c0.3-0.6,0.5-1.1,0.5-1.5
		s-0.2-0.9-0.5-1.6s-0.5-1.3-0.6-1.8s0.1-0.9,0.3-1.4c0.4-0.8,1-1.3,1.8-1.5c0.8-0.2,1.7-0.1,2.7,0.3c0.9,0.4,1.5,1,1.9,1.8
		C499.4,212.5,499.4,213.3,499.1,214.2z M493.2,220.4l-1.4-0.7l0.7-1.4l1.4,0.7L493.2,220.4z"/>
</g>
<g class="st13">
	<path class="st14" d="M229.8,424.5l-1.3-0.6c0.4-1.3,0-2.3-1.1-2.8c-0.6-0.3-1.1-0.3-1.6-0.1c-0.5,0.2-0.9,0.5-1.1,1.1
		c-0.1,0.3-0.2,0.6-0.2,0.9s0.2,0.8,0.5,1.5s0.5,1.3,0.5,1.8s-0.2,1.2-0.6,2l-1.2-0.6c0.3-0.6,0.5-1.1,0.5-1.5
		c0-0.3-0.2-0.9-0.5-1.6c-0.3-0.7-0.5-1.3-0.6-1.8c0-0.5,0.1-0.9,0.3-1.4c0.4-0.8,1-1.3,1.8-1.5c0.8-0.2,1.7-0.1,2.7,0.3
		c0.9,0.4,1.5,1,1.9,1.8C230.1,422.7,230.1,423.6,229.8,424.5z M223.9,430.6l-1.4-0.7l0.7-1.4l1.4,0.7L223.9,430.6z"/>
</g>
<g class="st13">
	<path class="st14" d="M418,118.4c2.2-1.3,4.8-1.7,7.8-1.1c3.1,0.6,5.5,1.9,7.1,3.9s2.2,4.3,1.7,6.9c-0.3,1.5-0.9,2.7-1.8,3.9
		s-2.4,2.3-4.5,3.4c-2.1,1.2-3.5,2.2-4,3c-0.6,0.8-1.1,2.3-1.5,4.4l-3.9-0.8c0.5-2.8,1.2-4.7,2.1-5.9c0.9-1.2,2.3-2.3,4.3-3.4
		c2-1.1,3.3-2,3.8-2.7c0.6-0.7,0.9-1.5,1.1-2.4c0.3-1.7,0-3.2-0.9-4.5c-0.9-1.3-2.3-2.2-4.1-2.5c-3.6-0.7-6.1,1-7.5,4.9l-4.3-0.8
		C414.3,121.8,415.8,119.7,418,118.4z M418,145.4l4.6,0.9l-0.9,4.6l-4.6-0.9L418,145.4z"/>
</g>
<g class="st13">
	<path class="st14" d="M570.8,295.6l-5.8,1.2c-2-5.3-5.3-7.5-10.1-6.5c-2.4,0.5-4.3,1.6-5.5,3.4c-1.2,1.8-1.6,3.8-1.1,6.1
		c0.2,1.2,0.7,2.2,1.5,3.2c0.8,0.9,2.5,2.1,5.2,3.6c2.7,1.5,4.6,3,5.9,4.6c1.2,1.5,2.2,4.2,3,7.9l-5.3,1.1c-0.6-2.8-1.3-4.8-2-5.9
		s-2.6-2.4-5.5-3.9c-2.9-1.5-4.9-3-6.2-4.5s-2.1-3.2-2.5-5.2c-0.7-3.5,0-6.6,2.2-9.4c2.1-2.8,5.3-4.6,9.5-5.4
		c4-0.8,7.5-0.3,10.5,1.4C567.6,289,569.7,291.8,570.8,295.6z M566.2,329.7l-6.1,1.2l-1.2-6.1l6.1-1.2L566.2,329.7z"/>
</g>
<g class="st13">
	<path class="st14" d="M508.8,398.7c0.8-1,1.9-1.6,3.4-1.8c1.5-0.2,2.8,0,3.9,0.7c1.1,0.7,1.7,1.6,1.9,2.9c0.1,0.7,0,1.4-0.2,2
		s-0.7,1.4-1.5,2.3c-0.8,0.9-1.2,1.5-1.4,2s-0.1,1.2,0,2.2l-1.9,0.3c-0.2-1.3-0.2-2.4,0-3s0.7-1.4,1.4-2.3c0.7-0.8,1.2-1.5,1.3-1.9
		c0.1-0.4,0.2-0.8,0.1-1.3c-0.1-0.8-0.5-1.5-1.1-1.9s-1.4-0.6-2.3-0.5c-1.7,0.3-2.6,1.4-2.6,3.4l-2.1,0.3
		C507.6,400.9,508,399.7,508.8,398.7z M513.1,411.1l2.2-0.3l0.3,2.2l-2.2,0.3L513.1,411.1z"/>
</g>
<g>
	<path class="st3" d="M452.8,358c-0.6,1.1-2.1,1.5-3.2,0.9l-18.1-10.3c-1.1-0.6-1.5-2.1-0.9-3.2l20.2-35.5c0.6-1.1,2.1-1.5,3.2-0.9
		l18.1,10.3c1.1,0.6,1.5,2.1,0.9,3.2L452.8,358z"/>
	
		<ellipse transform="matrix(0.495 -0.8689 0.8689 0.495 -81.3601 561.4053)" class="st15" cx="442.3" cy="350.7" rx="1.7" ry="1.7"/>
	
		<rect x="461.6" y="313.3" transform="matrix(0.495 -0.8689 0.8689 0.495 -41.694 561.0656)" class="st15" width="0.5" height="6.1"/>
	
		<rect x="435.3" y="322.4" transform="matrix(0.495 -0.8689 0.8689 0.495 -60.8138 561.2333)" class="st12" width="34.2" height="21.1"/>
</g>
<path class="st12" d="M250,159.3l-5,3.5l8.1,0.5c1.8,1.9,4,3.7,6.5,5.1c10.2,5.9,21.9,4.9,26.1-2.4c4.2-7.3-0.6-18-10.8-23.9
	c-10.2-5.9-21.9-4.9-26.1,2.4C246.3,148.8,247,154.3,250,159.3z M274.5,159.8c0.8-1.3,2.5-1.8,3.8-1c1.3,0.8,1.8,2.5,1,3.8
	c-0.8,1.3-2.5,1.8-3.8,1C274.1,162.8,273.7,161.1,274.5,159.8z M265.2,154.4c0.8-1.3,2.5-1.8,3.8-1c1.3,0.8,1.8,2.5,1,3.8
	c-0.8,1.3-2.5,1.8-3.8,1C264.9,157.4,264.5,155.7,265.2,154.4z M256,149c0.8-1.3,2.5-1.8,3.8-1c1.3,0.8,1.8,2.5,1,3.8
	c-0.8,1.3-2.5,1.8-3.8,1C255.7,152.1,255.2,150.3,256,149z"/>
<g class="st16">
	<g>
		<path class="st17" d="M190.4,535c-1.1,1-2.7,1.9-4.7,2.7c-2,0.8-4.5,1.3-7.4,1.8c-2.9,0.4-6,0.6-9.5,0.6c-2.1,0-4.1-0.1-6-0.3
			c-2-0.2-3.8-0.5-5.5-0.8c-1.7-0.4-3.3-0.8-4.8-1.3c-1.4-0.5-2.7-1.1-3.7-1.7c-1-0.6-1.8-1.3-2.4-2c-0.6-0.7-0.9-1.5-0.9-2.2
			c0-1,0.5-2,1.4-3c0.9-0.9,2.4-1.7,4.3-2.4c1.9-0.7,4.3-1.2,7.3-1.6c2.9-0.4,6.4-0.6,10.3-0.6c1.1,0,2.2,0,3.2,0.1s2,0.1,3,0.2
			c1.9-1.1,3.1-2.3,3.8-3.6c3.7,0.9,8.1,1.5,13.1,1.9c-3.8,0.8-6.8,1.7-9,2.7c1.6,0.3,2.9,0.7,4,1.2c1.1,0.5,2.1,1,2.9,1.5
			c0.8,0.5,1.3,1.1,1.7,1.7c0.4,0.6,0.6,1.3,0.6,1.9C192.1,532.9,191.6,534,190.4,535z M174.7,531.4c-0.3-0.3-0.7-0.7-1.3-0.9
			c-0.5-0.3-1.2-0.5-2-0.6c-0.8-0.1-1.7-0.2-2.6-0.2c-1,0-1.8,0.1-2.6,0.2c-0.8,0.1-1.4,0.3-1.9,0.6c-0.5,0.3-0.9,0.6-1.2,0.9
			c-0.3,0.3-0.4,0.7-0.4,1.1c0,0.4,0.2,0.8,0.5,1.3s0.8,0.8,1.3,1.2c0.6,0.3,1.2,0.6,2,0.8c0.7,0.2,1.5,0.3,2.4,0.3
			c0.9,0,1.7-0.1,2.4-0.3c0.8-0.2,1.4-0.4,2-0.8c0.6-0.3,1-0.7,1.3-1.1c0.3-0.4,0.5-0.9,0.5-1.4C175.1,532.1,175,531.8,174.7,531.4z
			"/>
		<path class="st17" d="M240.2,539.6c-0.7,0-1.5,0-2.5,0c-1,0-2.1,0-3.3,0c-1.9,0-4,0-6.4,0.1c-2.4,0-4.9,0.1-7.7,0.2
			c0.4-0.2,0.7-0.4,1-0.7c0.3-0.3,0.5-0.6,0.7-1c0.2-0.4,0.4-0.8,0.5-1.2c0.2-0.4,0.3-0.8,0.4-1.3c0.2-1,0.4-2,0.4-3.1
			c0-0.8-0.1-1.4-0.3-2c-0.2-0.5-0.5-0.9-0.9-1.3c-0.4-0.3-0.9-0.5-1.5-0.7c-0.6-0.1-1.3-0.2-2.2-0.2c-0.6,0-1.2,0.1-1.6,0.2
			c-0.4,0.1-0.8,0.3-1.1,0.6c-0.3,0.3-0.5,0.7-0.6,1.3c-0.1,0.5-0.2,1.2-0.2,2.1c0,0.7,0.1,1.4,0.3,2c0.2,0.7,0.4,1.3,0.7,1.9
			c0.3,0.6,0.6,1.2,1,1.7c0.4,0.5,0.7,1,1.1,1.4c-0.7,0-1.5,0-2.4-0.1c-0.8,0-1.7,0-2.8,0s-2.3,0-3.6,0c-2.1,0-4.3,0-6.8,0.1
			c-2.5,0-5.1,0.1-7.9,0.2c0.7-0.2,1.2-0.6,1.6-1.1c0.4-0.5,0.7-1,0.9-1.6c0.2-0.6,0.4-1.1,0.4-1.7c0.1-0.6,0.1-1.1,0.1-1.6
			c0-0.4,0-0.7,0-1c0-0.3,0-0.5-0.1-0.7c0-0.2-0.1-0.3-0.1-0.5c0-0.1-0.1-0.3-0.1-0.4c0-0.1,0-0.3-0.1-0.4c0-0.2,0-0.3,0-0.6
			c0-0.5,0.1-1,0.3-1.5c0.2-0.5,0.5-1,1.1-1.5c0.5-0.5,1.3-0.9,2.2-1.3c1-0.4,2.2-0.8,3.8-1.1c1.6-0.3,3.5-0.5,5.7-0.7
			c2.3-0.2,4.9-0.3,8.1-0.3c3.3,0,6.2,0.1,8.6,0.3c2.4,0.2,4.4,0.5,6,0.9s2.9,0.8,3.9,1.3c1,0.5,1.7,1,2.2,1.5c0.5,0.5,0.9,1,1,1.6
			c0.2,0.5,0.2,1,0.2,1.5c0,0.2,0,0.4,0,0.6c0,0.2,0,0.4-0.1,0.6c0,0.2,0,0.4-0.1,0.5c0,0.2,0,0.3,0,0.5c0,1.3,0.2,2.5,0.6,3.6
			c0.4,1.1,0.9,2.1,1.5,2.9C241.7,539.6,241,539.6,240.2,539.6z"/>
		<path class="st17" d="M282.8,530.4c-0.6-0.3-1.4-0.5-2.3-0.8c-1-0.3-2.1-0.5-3.2-0.7c-1.2-0.2-2.4-0.4-3.7-0.5
			c-1.3-0.1-2.5-0.2-3.6-0.2c-0.7,0-1.4,0-2.1,0.1c-0.7,0.1-1.2,0.2-1.7,0.3c-0.5,0.1-0.9,0.3-1.2,0.5c-0.3,0.2-0.4,0.5-0.4,0.8
			c0,0.4,0.4,0.8,1.3,1.1c0.9,0.3,2.2,0.4,4,0.4c0.2,0,0.5,0,0.9,0c0.5,0,1-0.1,1.5-0.1c0.6-0.1,1.1-0.2,1.7-0.3
			c0.6-0.2,1.1-0.4,1.6-0.6v4.2c-0.5-0.2-1-0.3-1.5-0.5c-0.5-0.1-1-0.2-1.7-0.3c-0.7-0.1-1.4-0.1-2.2-0.1c-1,0-1.8,0-2.5,0.1
			c-0.7,0.1-1.3,0.2-1.7,0.4c-0.4,0.1-0.8,0.3-1,0.5c-0.2,0.2-0.3,0.4-0.3,0.5c0,0.2,0.1,0.3,0.2,0.5c0.2,0.2,0.5,0.3,1,0.5
			c0.5,0.1,1.2,0.2,2,0.3c0.9,0.1,2,0.1,3.4,0.1c1.2,0,2.4-0.1,3.7-0.2c1.1-0.1,2.4-0.2,3.9-0.4c1.5-0.2,3-0.5,4.6-0.9v4.9
			c-1.9-0.1-4-0.2-6.3-0.2c-2-0.1-4.3-0.1-6.9-0.1s-5.5-0.1-8.5-0.1c-2.5,0-5,0-7.6,0.1s-5.3,0.1-8,0.2c0.4-0.2,0.7-0.4,0.9-0.7
			c0.3-0.3,0.5-0.6,0.7-1c0.2-0.4,0.4-0.8,0.5-1.2c0.2-0.4,0.3-0.8,0.4-1.3c0.1-0.4,0.2-0.8,0.2-1.2c0.1-0.4,0.1-0.7,0.1-1
			c0-0.3,0-0.5,0.1-0.7c0-0.2,0-0.3,0-0.3c0-0.1,0-0.4,0-0.7c0-0.3-0.1-0.8-0.1-1.2s-0.2-1-0.4-1.5s-0.4-1.1-0.7-1.6
			c-0.3-0.5-0.7-1-1.1-1.5c-0.4-0.5-1-0.9-1.6-1.2c1.7,0.1,3.4,0.2,5.2,0.2c1.8,0.1,3.5,0.1,5.2,0.1c1.7,0,3.2,0,4.7,0.1
			s2.7,0,3.8,0c2.2,0,4.3,0,6.2,0c1.9,0,3.7,0,5.4,0c1.7,0,3.3,0,4.8-0.1c1.5,0,3-0.1,4.4-0.2L282.8,530.4z"/>
		<path class="st17" d="M330,537.8c-0.7,0.4-1.8,0.8-3.4,1.2c-1.6,0.3-3.6,0.6-6.1,0.8c-2.5,0.2-5.6,0.3-9.2,0.3
			c-3.6,0-6.8-0.1-9.6-0.4s-5.2-0.6-7.2-1s-3.4-0.9-4.5-1.5c-1-0.6-1.5-1.2-1.5-1.9c0-0.6,0.2-1,0.7-1.4c0.5-0.4,1.2-0.7,2.1-1
			c0.9-0.3,2-0.5,3.3-0.8c1.3-0.2,2.7-0.4,4.3-0.7c1.6-0.2,3.4-0.4,5.3-0.7s3.9-0.5,6.1-0.9c1.1-0.2,2-0.4,2.6-0.7s0.9-0.5,0.9-0.7
			c0-0.1-0.1-0.2-0.3-0.4c-0.2-0.1-0.5-0.2-0.8-0.3c-0.4-0.1-0.8-0.2-1.2-0.2s-1-0.1-1.5-0.1c-0.5,0-1,0-1.4,0.1
			c-0.5,0-0.9,0.1-1.2,0.2c-0.3,0.1-0.6,0.2-0.9,0.3c-0.2,0.1-0.3,0.2-0.3,0.3c0,0.2,0.2,0.4,0.7,0.5c0.4,0.1,1,0.2,1.8,0.2
			c0.4,0,1,0,1.5-0.1c-0.5,0.2-1.1,0.4-1.9,0.6c-0.8,0.2-1.7,0.3-2.7,0.4c-1,0.1-2,0.2-3.2,0.3c-1.1,0.1-2.3,0.1-3.4,0.1
			c-1.5,0-2.9-0.1-4.2-0.2s-2.5-0.3-3.4-0.5c-1-0.2-1.8-0.5-2.3-0.8s-0.8-0.7-0.8-1.1c0-0.6,0.6-1.1,1.7-1.6
			c1.1-0.5,2.7-0.9,4.6-1.3c1.9-0.4,4.2-0.7,6.8-0.9c2.6-0.2,5.3-0.3,8.1-0.3c3.2,0,6.2,0.1,9.1,0.4c2.9,0.3,5.4,0.6,7.6,1.1
			c2.2,0.5,4,1,5.3,1.7c1.3,0.7,2,1.4,2,2.2c0,0.6-0.3,1.1-0.9,1.5c-0.6,0.4-1.4,0.8-2.4,1.1c-1,0.3-2.2,0.6-3.5,0.8
			c-1.3,0.2-2.8,0.4-4.3,0.6c-1.5,0.2-3.1,0.3-4.7,0.5c-1.6,0.2-3.2,0.3-4.7,0.5c-1,0.1-1.9,0.2-2.7,0.4c-0.8,0.1-1.5,0.3-2.1,0.5
			c-0.6,0.2-1.1,0.4-1.4,0.6c-0.3,0.2-0.5,0.4-0.5,0.6c0,0.2,0.2,0.4,0.5,0.6c0.3,0.2,0.7,0.3,1.2,0.4c0.5,0.1,1,0.2,1.6,0.2
			c0.6,0.1,1.1,0.1,1.7,0.1c0.8,0,1.5,0,2-0.1c0.5,0,1-0.1,1.3-0.2c0.3-0.1,0.5-0.2,0.7-0.2c0.1-0.1,0.2-0.2,0.2-0.2
			c0-0.1-0.2-0.2-0.5-0.3c-0.3-0.1-0.9-0.2-1.6-0.2c-0.3,0-0.7,0-1.1,0.1c-0.4,0-0.8,0.1-1.2,0.3c0-0.1,0-0.2,0.1-0.3
			c0.1-0.1,0.2-0.3,0.5-0.5c0.2-0.2,0.6-0.3,1-0.5s1-0.3,1.8-0.5c0.8-0.1,1.7-0.3,2.8-0.4s2.5-0.1,4-0.1c1.4,0,2.8,0.1,4,0.2
			c1.2,0.1,2.3,0.3,3.2,0.5c0.9,0.2,1.6,0.4,2.1,0.7c0.5,0.3,0.8,0.6,0.8,0.9C331.1,536.9,330.7,537.4,330,537.8z"/>
		<path class="st17" d="M367,526.9c-0.6,0.7-1,1.5-1.3,2.2c-0.3,0.7-0.6,1.5-0.8,2.2c-0.2,0.7-0.3,1.4-0.3,2.1c0,0.5,0,1.1,0.1,1.6
			s0.3,1,0.5,1.5c2.7-0.6,5.3-1.3,7.7-2.1s4.6-1.7,6.6-2.7l-1.5,8c-3.5-0.1-7.4-0.3-11.7-0.3c-4.2-0.1-8.5-0.1-12.8-0.1
			c-3,0-6,0-8.9,0.1c-2.9,0-5.6,0.1-8.2,0.2l-1-7.9c0.8,0.4,1.7,0.8,2.7,1.2c1,0.4,2.2,0.8,3.3,1.2s2.4,0.8,3.7,1.1s2.6,0.7,3.9,1
			c0.1-0.5,0.2-1,0.3-1.4c0.1-0.4,0.2-0.8,0.2-1.2c0.1-0.4,0.1-0.7,0.1-1.1c-0.1-0.8-0.2-1.6-0.5-2.4c-0.2-0.7-0.6-1.6-1.1-2.5
			s-1.2-1.9-2.2-2.9c2.9,0.1,5.6,0.2,8.1,0.2s4.9,0.1,6.9,0.1c1.2,0,2.3,0,3.3,0c1,0,1.8,0,2.5,0c0.8,0,1.6,0,2.2,0
			C368.2,525.5,367.5,526.2,367,526.9z"/>
		<path class="st17" d="M405,526.8c-0.5,0.7-0.9,1.4-1.2,2.2c-0.3,0.7-0.5,1.5-0.7,2.2s-0.2,1.5-0.2,2.2c0,0.6,0,1.2,0.1,1.8
			s0.2,1.1,0.4,1.7c0.2,0.5,0.4,1,0.7,1.5c0.2,0.5,0.5,0.9,0.9,1.3c-0.6,0-1.3,0-2.1-0.1c-0.7,0-1.5,0-2.5,0c-1,0-2.1,0-3.4,0
			c-1.9,0-4,0-6.3,0.1c-2.3,0-4.9,0.1-7.7,0.2c0.4-0.2,0.7-0.4,0.9-0.7s0.5-0.6,0.7-1c0.2-0.4,0.4-0.8,0.5-1.2
			c0.2-0.4,0.3-0.8,0.4-1.3c0.1-0.4,0.2-0.8,0.2-1.2c0.1-0.4,0.1-0.7,0.1-1c0-0.3,0-0.5,0.1-0.7c0-0.2,0-0.3,0-0.3
			c0-0.1,0-0.4,0-0.7c0-0.4-0.1-0.8-0.1-1.3s-0.2-1-0.4-1.6s-0.4-1.1-0.7-1.6c-0.3-0.5-0.7-1-1.1-1.5c-0.4-0.5-1-0.9-1.6-1.2
			c3.5,0.1,6.7,0.2,9.6,0.3c3,0,5.6,0.1,7.8,0.1c1.2,0,2.2,0,3.1,0s1.6,0,2.3,0c0.7,0,1.4,0,2,0C406.1,525.4,405.5,526.1,405,526.8z
			"/>
		<path class="st17" d="M454.6,535c-1.1,1-2.7,1.9-4.7,2.7c-2,0.8-4.5,1.3-7.3,1.8c-2.9,0.4-6,0.6-9.5,0.6c-2.1,0-4.1-0.1-6-0.3
			c-2-0.2-3.8-0.5-5.5-0.8c-1.7-0.4-3.3-0.8-4.8-1.3c-1.4-0.5-2.7-1.1-3.7-1.7s-1.8-1.3-2.4-2c-0.6-0.7-0.9-1.5-0.9-2.2
			c0-1,0.5-2,1.4-3c0.9-0.9,2.4-1.7,4.3-2.4c1.9-0.7,4.3-1.2,7.3-1.6c2.9-0.4,6.4-0.6,10.3-0.6c4,0,7.4,0.2,10.4,0.6
			s5.3,0.9,7.2,1.6c1.9,0.7,3.3,1.5,4.3,2.4c0.9,0.9,1.4,1.9,1.4,3C456.3,532.9,455.8,534,454.6,535z M438.9,531.4
			c-0.3-0.3-0.7-0.7-1.3-0.9s-1.2-0.5-2-0.6c-0.8-0.1-1.7-0.2-2.6-0.2c-1,0-1.8,0.1-2.6,0.2c-0.8,0.1-1.4,0.3-1.9,0.6
			c-0.5,0.3-0.9,0.6-1.2,0.9c-0.3,0.3-0.4,0.7-0.4,1.1c0,0.4,0.2,0.8,0.5,1.3s0.8,0.8,1.3,1.2s1.2,0.6,2,0.8
			c0.7,0.2,1.5,0.3,2.4,0.3c0.9,0,1.7-0.1,2.5-0.3c0.8-0.2,1.4-0.4,2-0.8c0.6-0.3,1-0.7,1.3-1.1c0.3-0.4,0.5-0.9,0.5-1.4
			C439.3,532.1,439.2,531.8,438.9,531.4z"/>
		<path class="st17" d="M482.2,526.6c-0.5,0.6-0.8,1.3-1.2,1.9c-0.3,0.6-0.6,1.3-0.7,2c-0.2,0.7-0.3,1.3-0.3,2
			c1.4-0.6,2.7-1.2,3.9-1.9c1.2-0.6,2.2-1.3,3-1.9c0.8-0.7,1.5-1.3,1.9-2c0.5-0.7,0.7-1.4,0.7-2.1c3,0.1,5.8,0.2,8.4,0.3
			c2.6,0,4.9,0.1,6.9,0.1c1.1,0,2,0,2.8,0c0.8,0,1.5,0,2.1,0c0.7,0,1.3,0,1.8,0c-0.7,0.6-1.2,1.3-1.7,2c-0.5,0.7-0.9,1.4-1.2,2.1
			c-0.3,0.7-0.5,1.5-0.7,2.2c-0.1,0.7-0.2,1.5-0.2,2.2c0,0.6,0,1.2,0.1,1.8s0.2,1.2,0.4,1.7c0.2,0.5,0.4,1,0.7,1.5s0.5,0.9,0.9,1.3
			c-0.6,0-1.2,0-2-0.1c-0.6,0-1.4,0-2.4,0s-2,0-3.3,0c-1.8,0-3.9,0-6.2,0.1c-2.3,0-4.9,0.1-7.7,0.2c0.4-0.2,0.7-0.4,0.9-0.7
			c0.3-0.3,0.5-0.6,0.7-1c0.2-0.4,0.4-0.8,0.5-1.2c0.1-0.4,0.3-0.8,0.4-1.3c0.2-1,0.4-2,0.5-3.1v-0.4c-1.9,1.1-3.6,2.2-5.1,3.5
			c-1.5,1.2-2.9,2.6-4.1,4.1c-0.6,0-1.2,0-2-0.1c-0.6,0-1.4,0-2.4,0s-2,0-3.3,0c-1.8,0-3.8,0-6.1,0.1c-2.3,0-4.8,0.1-7.6,0.2
			c0.4-0.2,0.7-0.4,0.9-0.7s0.5-0.6,0.7-1c0.2-0.4,0.4-0.8,0.5-1.2c0.2-0.4,0.3-0.8,0.4-1.3c0.1-0.4,0.2-0.8,0.2-1.2
			c0.1-0.4,0.1-0.7,0.1-1c0-0.3,0-0.5,0.1-0.7c0-0.2,0-0.3,0-0.3c0-0.1,0-0.4,0-0.7c0-0.4-0.1-0.8-0.1-1.3s-0.2-1-0.4-1.6
			s-0.4-1.1-0.7-1.6c-0.3-0.5-0.7-1-1.1-1.5c-0.4-0.5-1-0.9-1.6-1.2c3.5,0.1,6.6,0.2,9.5,0.3c2.9,0,5.4,0.1,7.6,0.1
			c1.1,0,2.1,0,2.9,0c0.9,0,1.6,0,2.2,0c0.7,0,1.3,0,1.9,0C483.2,525.4,482.6,526,482.2,526.6z"/>
	</g>
</g>
<g>
	<path class="st18" d="M187.1,497.3c0,2.7-0.2,5.4-0.6,7.9s-1,4.9-1.7,7.2c-0.8,2.2-1.8,4.3-2.9,6.2c-1.2,1.9-2.6,3.5-4.2,4.9
		c2.2,4.1,5.3,7.8,9.2,11.1c-5.1,1.6-9.6,4.3-13.4,7.8c-0.7-5.3-2-10.1-3.9-14.7c-1,0.3-2,0.5-3.1,0.6c-1.1,0.2-2.2,0.2-3.3,0.2
		c-4.1,0-7.6-0.8-10.6-2.4c-3-1.6-5.5-3.9-7.5-6.7c-2-2.8-3.4-6.1-4.4-9.9c-1-3.8-1.4-7.8-1.4-12.2c0-3.2,0.3-6.2,0.9-9.2
		c0.6-3,1.4-5.7,2.5-8.3c1.1-2.6,2.3-4.9,3.8-7c1.5-2.1,3.1-3.9,4.9-5.4c1.8-1.5,3.7-2.6,5.7-3.5c2-0.8,4.1-1.2,6.2-1.2
		c3.6,0,6.8,0.9,9.8,2.6s5.5,4.2,7.5,7.3s3.7,6.7,4.9,10.9C186.5,487.8,187.1,492.4,187.1,497.3z M169.7,493.6
		c0-2.1-0.2-4.1-0.5-5.9c-0.3-1.8-0.8-3.4-1.4-4.7c-0.6-1.3-1.3-2.4-2.1-3.1c-0.8-0.8-1.6-1.1-2.5-1.1c-0.9,0-1.7,0.4-2.4,1.3
		c-0.8,0.9-1.4,2.1-2,3.5c-0.6,1.4-1,3-1.4,4.8c-0.3,1.8-0.5,3.5-0.5,5.2c0,1.7,0.1,3.2,0.4,4.7c0.3,1.4,0.7,2.7,1.3,3.7
		c0.5,1.1,1.2,1.9,2,2.5c0.8,0.6,1.7,0.9,2.7,0.9c1,0,1.9-0.3,2.7-0.9s1.5-1.4,2-2.5c0.6-1.1,1-2.3,1.3-3.7
		C169.5,496.9,169.7,495.3,169.7,493.6z"/>
	<path class="st18" d="M238.6,464.4c-0.7,3.3-1.2,7.2-1.6,11.8c-0.4,4.6-0.6,9.5-0.6,14.7c0,0.7,0,1.5,0,2.2c0,0.7,0,1.4,0.1,2.2
		s0,1.5,0.1,2.3c0,0.8,0,1.6,0,2.6c0,1.9-0.1,3.9-0.2,6.1c-0.2,2.2-0.5,4.3-1,6.4c-0.5,2.1-1.3,4.2-2.3,6.2c-1,2-2.3,3.7-4,5.2
		c-1.7,1.5-3.7,2.7-6.2,3.6c-2.4,0.9-5.4,1.3-8.8,1.3c-3.2,0-6-0.4-8.3-1.1c-2.3-0.7-4.3-1.7-5.9-3c-1.6-1.3-2.9-2.7-3.9-4.5
		c-1-1.7-1.8-3.5-2.3-5.5c-0.5-2-0.9-4-1.1-6.2c-0.2-2.1-0.3-4.2-0.3-6.3c0-0.9,0-1.7,0-2.4c0-0.6,0-1.2,0.1-1.7s0.1-1.1,0.1-1.6
		c0-0.5,0.1-1.2,0.1-1.9c0-0.7,0-1.6,0.1-2.7c0-1,0-2.4,0-3.9c0-1.9,0-4.1-0.1-6.5c-0.1-2.4-0.2-4.8-0.4-7.1c-0.2-2.3-0.5-4.5-1-6.4
		c-0.4-1.9-1-3.4-1.6-4.4c2.9,0.5,5.6,0.9,8.1,1c2.5,0.2,4.8,0.3,7,0.3c1.4,0,2.6,0,3.7-0.1c1.1-0.1,2.1-0.1,2.9-0.2
		c0.9-0.1,1.7-0.2,2.4-0.3c-0.4,1.8-0.7,3.7-1.1,5.9c-0.4,2.2-0.7,4.5-1,7c-0.3,2.5-0.5,5.1-0.7,7.9s-0.3,5.6-0.3,8.4
		c0,3.5,0.1,6.4,0.2,8.6c0.1,2.2,0.3,3.9,0.6,5.2c0.3,1.2,0.7,2.1,1.1,2.5s1,0.7,1.7,0.7c0.9,0,1.6-0.3,2.2-0.8
		c0.6-0.6,1.1-1.5,1.5-2.8c0.4-1.3,0.7-3.1,0.9-5.2c0.2-2.2,0.3-4.9,0.3-8.1c-0.1-4.6-0.2-8.9-0.4-12.9c-0.1-1.7-0.2-3.4-0.4-5.2
		c-0.2-1.7-0.3-3.4-0.6-4.9s-0.5-2.9-0.7-4.2c-0.3-1.2-0.6-2.2-1-2.9c2.8,0.5,5.5,0.9,7.9,1c2.4,0.2,4.6,0.3,6.5,0.3
		c1.3,0,2.4,0,3.4-0.1c1-0.1,1.9-0.1,2.6-0.2C237.3,464.6,238,464.5,238.6,464.4z"/>
	<path class="st18" d="M282.3,526.4c-1.5-0.3-3-0.5-4.5-0.7c-1.5-0.2-3.2-0.3-4.9-0.4s-3.5-0.1-5.5-0.1c-1.9,0-4.1,0-6.3,0
		c-1.1,0-2.4,0-3.9,0c-1.5,0-3.1,0.1-4.8,0.2c-1.7,0.1-3.5,0.3-5.3,0.5c-1.8,0.2-3.6,0.5-5.3,0.8c0.6-1.3,1.2-2.9,1.6-4.8
		c0.5-1.9,0.8-4,1.1-6.2c0.3-2.2,0.5-4.4,0.7-6.7c0.2-2.3,0.3-4.4,0.4-6.3c0.1-2,0.1-3.7,0.1-5.1c0-1.4,0-2.4,0-3c0-0.1,0-0.6,0-1.3
		c0-0.8,0-1.8-0.1-3c0-1.2-0.1-2.6-0.1-4.2c-0.1-1.6-0.1-3.2-0.2-4.9c-0.1-1.7-0.2-3.4-0.4-5.2c-0.2-1.7-0.3-3.4-0.6-4.9
		s-0.5-2.9-0.7-4.2c-0.3-1.2-0.6-2.2-1-3c2.8,0.4,5.5,0.7,8.2,0.9c2.7,0.2,5.3,0.3,7.8,0.3c3.1,0,6-0.1,8.7-0.3
		c2.7-0.2,5.1-0.4,7.1-0.6c2.4-0.3,4.5-0.6,6.4-0.9v20c-1.6-1.5-3.2-2.7-4.7-3.5c-1.5-0.8-2.8-1.4-4-1.8c-1.4-0.5-2.6-0.7-3.8-0.8
		c-1.4,0-2.6,0.2-3.5,0.5c-0.9,0.4-1.6,0.8-2.1,1.4c-0.5,0.6-0.8,1.2-1,1.9c-0.2,0.7-0.3,1.4-0.3,2.1c0,0.7,0.1,1.5,0.3,2.2
		c0.2,0.7,0.5,1.4,1,2c0.5,0.6,1,1.1,1.8,1.5c0.7,0.4,1.6,0.6,2.6,0.6c0.8,0,1.6-0.2,2.3-0.6c0.7-0.4,1.3-0.8,1.7-1.3
		c0.6-0.5,1.1-1.2,1.6-1.9v17.3c-0.5-1.1-1-1.9-1.6-2.6c-0.6-0.6-1.2-1.1-1.8-1.4c-0.6-0.3-1.1-0.5-1.6-0.6c-0.5-0.1-0.8-0.1-1-0.1
		c-1.8,0-3.2,0.6-4.1,1.7c-0.9,1.1-1.4,2.6-1.4,4.4c0,1.3,0.1,2.4,0.4,3.3c0.3,0.9,0.7,1.6,1.2,2.2c0.5,0.6,1.1,1,1.7,1.2
		c0.7,0.3,1.4,0.4,2.1,0.4c1.1,0,2.4-0.3,3.7-0.8c1.3-0.5,2.6-1.2,3.8-2c1.2-0.9,2.3-1.8,3.3-2.9c1-1.1,1.8-2.2,2.4-3.3L282.3,526.4
		z"/>
	<path class="st18" d="M329.6,477.3c0,1.4-0.3,2.7-0.8,3.9c-0.5,1.1-1.3,2.1-2.2,3s-2,1.5-3.3,1.9c-1.3,0.5-2.6,0.7-4.1,0.7
		c-1.6,0-3-0.2-4.2-0.6c-1.1-0.4-2.1-0.9-2.9-1.5c-0.8-0.6-1.4-1.3-1.9-2c-0.5-0.8-0.8-1.5-1-2.2c-0.2-0.7-0.4-1.4-0.5-2
		c-0.1-0.6-0.1-1-0.1-1.4c0.3,0.6,0.7,0.9,1.2,1.1c0.5,0.2,0.8,0.2,1.1,0.2c0.8,0,1.4-0.2,1.7-0.6c0.3-0.4,0.5-0.9,0.5-1.4
		c0-0.3-0.1-0.6-0.2-1c-0.1-0.3-0.4-0.7-0.7-1c-0.3-0.3-0.8-0.5-1.3-0.7s-1.2-0.3-2.1-0.3c-0.6,0-1.1,0.1-1.7,0.3s-1.1,0.5-1.6,1
		c-0.5,0.4-0.9,1-1.2,1.6c-0.3,0.7-0.5,1.4-0.5,2.3c0,0.9,0.2,1.7,0.5,2.5c0.4,0.8,0.8,1.6,1.4,2.4c0.6,0.7,1.3,1.4,2.2,2
		c0.8,0.6,1.8,1.1,2.7,1.5c1.6,0.7,3.2,1.3,4.8,1.9c1.7,0.6,3.3,1.3,4.8,2c1.6,0.7,3,1.6,4.4,2.5c1.4,1,2.6,2.1,3.6,3.4
		c1,1.3,1.9,2.8,2.5,4.6c0.6,1.7,0.9,3.8,0.9,6.1c0,3.3-0.7,6.4-2,9.1c-1.3,2.7-3.2,5.1-5.4,7c-2.3,1.9-4.9,3.4-7.8,4.5
		c-3,1.1-6.1,1.6-9.3,1.6c-2.9,0-5.7-0.4-8.3-1.3c-2.6-0.9-5-2.1-6.9-3.6c-2-1.5-3.6-3.3-4.7-5.3c-1.2-2-1.8-4.2-1.8-6.6
		c0-1.7,0.3-3.3,0.9-4.6s1.4-2.4,2.4-3.3c1-0.9,2.2-1.5,3.5-1.9c1.3-0.4,2.8-0.6,4.3-0.6c1.2,0,2.4,0.1,3.5,0.4
		c1.1,0.3,2.2,0.6,3.2,1.1c1,0.5,1.9,1.1,2.7,1.8c0.8,0.7,1.5,1.5,1.9,2.4c-0.6-0.2-1.1-0.3-1.6-0.3c-0.8,0-1.4,0.2-1.8,0.7
		c-0.5,0.5-0.7,1.1-0.7,2c0,0.5,0.1,0.9,0.3,1.3c0.2,0.4,0.5,0.8,0.9,1.1c0.4,0.3,0.8,0.6,1.2,0.7c0.5,0.2,1,0.3,1.5,0.3
		c0.6,0,1.1-0.1,1.6-0.4c0.5-0.2,0.9-0.6,1.3-1c0.4-0.4,0.7-0.8,0.9-1.3c0.2-0.5,0.3-1,0.3-1.5c0-1-0.3-2-0.9-3
		c-0.6-1-1.5-1.9-2.7-2.7c-2.2-1.4-4.3-2.5-6.3-3.5s-3.8-1.9-5.4-2.8c-1.6-0.9-3.1-1.8-4.5-2.7c-1.3-0.9-2.4-2-3.4-3.2
		c-0.9-1.2-1.6-2.6-2.1-4.2c-0.5-1.6-0.7-3.5-0.7-5.8c0-2.7,0.5-5.3,1.6-7.7c1.1-2.4,2.6-4.5,4.6-6.2c2-1.8,4.5-3.2,7.3-4.2
		c2.9-1,6.2-1.5,9.9-1.5c3.7,0,6.9,0.4,9.5,1.3c2.6,0.9,4.7,2.1,6.3,3.5c1.6,1.4,2.8,3,3.5,4.7C329.2,473.8,329.6,475.5,329.6,477.3
		z"/>
	<path class="st18" d="M368.4,525.7c-0.7-0.1-1.4-0.1-2.3-0.2c-0.7-0.1-1.6-0.1-2.6-0.1c-1,0-2.1,0-3.4,0c-2.1,0-4.5,0.1-7.1,0.2
		c-2.6,0.2-5.4,0.4-8.3,0.9c1-4.2,1.7-8.2,2.3-12.1c0.5-3.9,0.9-7.4,1.1-10.4c0.3-3.5,0.5-6.9,0.5-10c0-1.3,0-2.8-0.1-4.4
		c-0.1-1.4-0.1-2.9-0.2-4.7c-0.1-1.8-0.2-3.8-0.3-5.9c-1.3,1.3-2.7,2.6-4,4.1c-1.3,1.5-2.6,3-3.8,4.6c-1.2,1.6-2.4,3.2-3.4,4.8
		c-1.1,1.6-2,3.2-2.8,4.8l1-32.5c2.7,0.3,5.5,0.6,8.5,0.7c3,0.2,6,0.3,9.1,0.3c4.4,0,8.8-0.2,13.2-0.5c4.3-0.3,8.3-0.8,12-1.4
		l1.6,32.9c-2-3.9-4.3-7.5-6.8-11c-2.5-3.4-5.1-6.3-7.9-8.6c-0.2,1.9-0.4,4-0.5,6.1c-0.1,2.1-0.1,4.3-0.1,6.5c0,2.9,0.1,5.8,0.3,8.8
		c0.2,3,0.5,6.1,0.8,9.1c0.4,3.1,0.8,6.1,1.4,9.2C367,519.8,367.7,522.8,368.4,525.7z"/>
	<path class="st18" d="M407.3,525.6c-0.6-0.1-1.3-0.1-2-0.2c-0.7-0.1-1.4-0.1-2.3-0.1c-0.9,0-2,0-3.2,0c-2.3,0-5,0.1-8,0.3
		c-3,0.2-6.3,0.6-9.9,1.1c0.6-1.3,1.2-2.9,1.6-4.9c0.5-2,0.8-4.1,1.1-6.3c0.3-2.2,0.5-4.5,0.7-6.8c0.2-2.3,0.3-4.4,0.4-6.4
		c0.1-2,0.1-3.7,0.1-5.2c0-1.4,0-2.4,0-3c0-0.1,0-0.6,0-1.3c0-0.8,0-1.8-0.1-3c0-1.2-0.1-2.6-0.1-4.2c-0.1-1.6-0.1-3.2-0.2-4.9
		c-0.1-1.7-0.2-3.4-0.4-5.2c-0.2-1.7-0.3-3.4-0.6-4.9c-0.2-1.5-0.5-2.9-0.7-4.2c-0.3-1.2-0.6-2.2-1-2.9c2.9,0.5,5.5,0.9,7.9,1
		c2.4,0.2,4.6,0.3,6.5,0.3c1.3,0,2.4,0,3.4-0.1c1-0.1,1.9-0.1,2.6-0.2c0.8-0.1,1.5-0.2,2.2-0.3c-0.3,1.6-0.6,3.4-0.9,5.3
		c-0.3,1.9-0.5,4-0.7,6.2c-0.2,2.2-0.3,4.5-0.4,6.9c-0.1,2.4-0.1,4.9-0.1,7.5c0,3,0.1,6,0.2,9c0.1,3.1,0.4,6.1,0.7,9.1
		c0.3,3,0.7,6,1.2,8.9C406,520.2,406.6,522.9,407.3,525.6z"/>
	<path class="st18" d="M458.1,497.3c0,4.3-0.5,8.4-1.4,12.2c-1,3.8-2.4,7.1-4.4,9.9c-2,2.8-4.4,5.1-7.4,6.7c-3,1.6-6.5,2.4-10.6,2.4
		c-4.1,0-7.6-0.8-10.6-2.4c-3-1.6-5.5-3.9-7.5-6.7c-2-2.8-3.4-6.1-4.4-9.9c-1-3.8-1.4-7.8-1.4-12.2c0-3.2,0.3-6.2,0.9-9.2
		c0.6-3,1.4-5.7,2.5-8.3c1-2.6,2.3-4.9,3.8-7s3.1-3.9,4.9-5.4s3.7-2.6,5.7-3.5c2-0.8,4.1-1.2,6.2-1.2c3.6,0,6.8,0.9,9.8,2.6
		s5.5,4.2,7.5,7.3c2.1,3.1,3.7,6.7,4.9,10.9C457.5,487.8,458.1,492.4,458.1,497.3z M440.7,493.6c0-2.1-0.2-4.1-0.5-5.9
		s-0.8-3.4-1.4-4.7s-1.3-2.4-2.1-3.1s-1.6-1.1-2.5-1.1c-0.9,0-1.7,0.4-2.4,1.3c-0.8,0.9-1.4,2.1-2,3.5s-1,3-1.4,4.8
		c-0.3,1.8-0.5,3.5-0.5,5.2c0,1.7,0.1,3.2,0.4,4.7c0.3,1.4,0.7,2.7,1.3,3.7s1.2,1.9,2,2.5c0.8,0.6,1.7,0.9,2.7,0.9
		c1,0,1.9-0.3,2.7-0.9s1.5-1.4,2-2.5s1-2.3,1.3-3.7S440.7,495.3,440.7,493.6z"/>
	<path class="st18" d="M486.2,525.6c-0.5-0.1-1.2-0.1-1.9-0.2c-0.6-0.1-1.4-0.1-2.3-0.1c-0.9,0-1.9,0-3,0c-2.2,0-4.8,0.1-7.8,0.3
		c-3,0.2-6.2,0.6-9.8,1.1c0.6-1.3,1.2-2.9,1.6-4.9c0.5-2,0.8-4.1,1.1-6.3c0.3-2.2,0.5-4.5,0.7-6.8c0.2-2.3,0.3-4.4,0.4-6.4
		c0.1-2,0.1-3.7,0.1-5.2c0-1.4,0-2.4,0-3c0-0.1,0-0.6,0-1.3c0-0.8,0-1.8-0.1-3c0-1.2-0.1-2.6-0.1-4.2c-0.1-1.6-0.1-3.2-0.2-4.9
		c-0.1-1.7-0.2-3.4-0.4-5.2c-0.2-1.7-0.3-3.4-0.6-4.9c-0.2-1.5-0.5-2.9-0.7-4.2c-0.3-1.2-0.6-2.2-1-2.9c2.9,0.5,5.5,0.9,7.8,1
		c2.4,0.2,4.5,0.3,6.3,0.3c1.2,0,2.4,0,3.3-0.1c1-0.1,1.8-0.1,2.4-0.2c0.8-0.1,1.4-0.2,2-0.3c1.2,6,2.6,11.6,4.2,16.7
		c1.6,5.1,3.3,9.9,5.3,14.3v-1.7c-0.1-4.6-0.2-8.9-0.5-12.9c-0.1-1.7-0.2-3.4-0.4-5.2c-0.1-1.7-0.3-3.4-0.5-4.9s-0.5-2.9-0.7-4.2
		c-0.3-1.2-0.6-2.2-1-2.9c2.8,0.5,5.5,0.9,7.9,1c2.4,0.2,4.5,0.3,6.4,0.3c1.2,0,2.4,0,3.3-0.1c1-0.1,1.8-0.1,2.4-0.2
		c0.8-0.1,1.4-0.2,2-0.3c-0.3,1.6-0.6,3.4-0.9,5.3s-0.5,4-0.7,6.3c-0.2,2.2-0.3,4.5-0.4,7s-0.1,5-0.1,7.5c0,2.9,0.1,5.9,0.2,8.9
		c0.1,3,0.4,6,0.7,9c0.3,3,0.7,5.9,1.2,8.8c0.5,2.9,1.1,5.6,1.8,8.3c-0.5-0.1-1.1-0.1-1.8-0.2c-0.6-0.1-1.3-0.1-2.2-0.1
		c-0.9,0-1.8,0-2.9,0c-2,0-4.4,0.1-7.1,0.3c-2.7,0.2-5.5,0.6-8.6,1.1c0-2.9-0.2-5.8-0.7-8.6c-0.5-2.8-1.1-5.5-2-8.3
		c-0.9-2.7-1.9-5.4-3.1-8c-1.2-2.6-2.5-5.2-4-7.8c0,2.7,0.1,5.4,0.3,8.1s0.4,5.4,0.8,8.1s0.7,5.3,1.2,7.9
		C485.1,520.7,485.6,523.2,486.2,525.6z"/>
</g>
</svg>
