<?xml version="1.0" encoding="utf-8"?>
<!-- Generator: Adobe Illustrator 21.0.0, SVG Export Plug-In . SVG Version: 6.00 Build 0)  -->
<svg version="1.1" id="Layer_1" xmlns="http://www.w3.org/2000/svg" xmlns:xlink="http://www.w3.org/1999/xlink" x="0px" y="0px"
	 viewBox="0 0 808 800" style="enable-background:new 0 0 808 800;" xml:space="preserve">
<style type="text/css">
	.st0{fill:url(#SVGID_1_);}
	.st1{fill:#F4C74A;}
	.st2{opacity:0.3;}
	.st3{fill:#FFFFFF;}
	.st4{fill:#FFFFFF;stroke:#FFFFFF;stroke-miterlimit:10;}
	.st5{fill:#F4A931;}
	.st6{opacity:0.33;fill:#FFBE55;}
	.st7{fill:#FFF57D;}
	.st8{fill:#FFCFC5;}
	.st9{fill:#1D71B8;}
	.st10{fill:#1B364F;}
	.st11{opacity:0.39;fill:#274F6D;}
	.st12{fill:#36A9E1;}
	.st13{fill:#9D9D9C;}
	.st14{opacity:0.4;fill:#AFAFAF;}
	.st15{fill:#BEBEBE;}
	.st16{fill:#878787;}
	.st17{opacity:0.71;fill:#9D9D9C;}
	.st18{fill:#FFE771;}
	.st19{fill:#FFBE55;}
	.st20{fill:#191919;}
	.st21{fill:#CE3E3E;}
	.st22{fill:#FF7D7D;}
	.st23{fill:none;stroke:#1D1D1B;stroke-miterlimit:10;}
	.st24{fill:#FF6252;}
	.st25{opacity:0.39;fill:#FFFFFF;}
	.st26{fill:#FBB03B;}
	.st27{font-family:'SpicyRice-Regular';}
	.st28{font-size:59.5748px;}
</style>
<g>
	<linearGradient id="SVGID_1_" gradientUnits="userSpaceOnUse" x1="450.87" y1="646.0862" x2="449.5424" y2="82.9073">
		<stop  offset="9.732377e-02" style="stop-color:#4A69BD"/>
		<stop  offset="0.3504" style="stop-color:#368BAF"/>
		<stop  offset="0.6011" style="stop-color:#27A6A5"/>
		<stop  offset="0.8239" style="stop-color:#1DB69E"/>
		<stop  offset="0.9959" style="stop-color:#1ABC9C"/>
	</linearGradient>
	<path class="st0" d="M732,447.3c0,118.6-164,153.3-297,153.3c-139,0-266.1-10.5-266.1-146.3S260,136.4,399,136.4
		S732,363.4,732,447.3z"/>
	<path class="st1" d="M168.8,454.2c0-135.1,90.3-316,228.1-317.8c-0.6,0-1.1,0-1.7,0c-184.2,0-266.1,187.6-266.1,320.7
		s127.2,143.4,266.1,143.4c4.9,0,9.8,0,14.7-0.1C281.1,598.8,168.8,581.9,168.8,454.2z"/>
</g>
<g class="st2">
	<path id="XMLID_926_" class="st3" d="M374.1,181.8h59c0,0-3-7.2-6.6-7.5c-3.7-0.3-4.7,1.9-5.9,1.7c-1.2-0.2-3.1-6.1-7.8-6.4
		c-4.7-0.3-6.6,4.1-9.2,4.9c-2.6,0.8-7.7,0.4-11.7-6.1c-4-6.4-11.5,0.5-11.7,5.5c-0.3,7.6-11.9,3.4-11.9,7.8H374.1z"/>
	<path id="XMLID_923_" class="st4" d="M601.4,330.9h-59c0,0,3-7.4,6.6-7.7c3.7-0.3,4.7,1.9,5.9,1.6c1.2-0.2,3.1-6.2,7.8-6.5
		c4.7-0.3,6.6,4.1,9.2,4.9c2.6,0.8,7.7,0.3,11.7-6.1c4-6.4,11.5,0.7,11.7,5.7c0.3,7.6,11.9,3.6,11.9,8H601.4z"/>
	<path id="XMLID_922_" class="st3" d="M277.6,349.1h-59c0,0,3-7.2,6.6-7.5c3.7-0.3,4.7,1.9,5.9,1.7c1.2-0.2,3.1-6.1,7.8-6.4
		c4.7-0.3,6.6,4.1,9.2,4.9c2.6,0.8,7.7,0.4,11.7-6.1c4-6.4,11.5,0.5,11.7,5.5c0.3,7.6,11.9,3.4,11.9,7.8H277.6z"/>
</g>
<g id="XMLID_290_">
	<g id="XMLID_896_">
		
			<ellipse id="XMLID_921_" transform="matrix(0.9881 -0.1537 0.1537 0.9881 -67.5808 72.3228)" class="st5" cx="434.1" cy="473.3" rx="37.4" ry="37.4"/>
		
			<ellipse id="XMLID_915_" transform="matrix(0.9881 -0.1537 0.1537 0.9881 -67.3319 72.0584)" class="st6" cx="432.5" cy="471.6" rx="28.2" ry="28.2"/>
		<path id="XMLID_906_" class="st7" d="M428.3,436.4c-20.4,3.2-34.4,22.3-31.2,42.7c3.2,20.4,22.3,34.4,42.7,31.2
			c20.4-3.2,34.4-22.3,31.2-42.7C467.8,447.2,448.7,433.2,428.3,436.4z M438.2,503.9c-16.8,2.6-32.6-8.9-35.2-25.7
			c-2.6-16.8,8.9-32.6,25.7-35.2s32.6,8.9,35.2,25.7C466.5,485.5,455,501.3,438.2,503.9z"/>
		<path id="XMLID_897_" class="st7" d="M452.6,474.3c-0.9-1.3-1.1-1.9-3.1-3.4c-0.5-0.4-0.6-1-0.3-1.5c0.4-0.9,1-2.4,1-4.5
			c0-3.4-1.1-6.6-3.7-9c-2.3-2.3-5.8-3.4-8.5-3.2c-0.4,0-0.7-0.2-0.8-0.6l-0.4-2.7c-0.1-0.6-0.5-0.9-0.8-0.8l-6.3,1
			c-0.4,0.1-0.6,0.4-0.6,0.8l0.5,2.9c0.1,0.4-0.2,0.7-0.6,0.8l-1.8,0.3c-0.4,0.1-0.7-0.2-0.8-0.6l-0.5-2.9c-0.1-0.4-0.4-0.6-0.8-0.6
			l-6.2,1c-0.4,0.1-0.6,0.4-0.6,0.8l0.5,2.9c0.1,0.4-0.2,0.7-0.6,0.8l-4.1,0.7c-0.4,0.1-0.6,0.4-0.6,0.8l1,6.2
			c0.1,0.4,0.4,0.6,0.8,0.6l2.3-0.4c0.4-0.1,0.7,0.2,0.8,0.6l3.8,23.5c0.1,0.4-0.2,0.7-0.6,0.8l-2.4,0.4c-0.4,0.1-0.6,0.4-0.6,0.8
			l1,6.3c0.1,0.4,0.4,0.6,0.8,0.6l4.1-0.7c0.4-0.1,0.7,0.2,0.8,0.6l0.3,2.1c0.1,0.4,0.4,0.6,0.8,0.6l6.3-1c0.4-0.1,0.6-0.4,0.6-0.8
			l-0.3-1.6c-0.1-0.7,0.3-1.3,1-1.4l0.6-0.1c0.7-0.1,1.3,0.3,1.4,1l0.3,1.6c0.1,0.4,0.4,0.6,0.8,0.6l6.2-1c0.4-0.1,0.6-0.4,0.6-0.8
			l-0.3-1.7c-0.1-0.6,0.3-1.2,0.9-1.4c1.4-0.4,3.9-1.2,5.6-3c0,0,2.2-1.8,3-4.6c0.7-2.4,0.7-4.7,0.7-5.2c0-0.1,0-0.1,0-0.2
			C454.1,479,453.5,475.6,452.6,474.3z M426,462.5c0-0.3,0.2-0.6,0.4-0.6l10.4-1.6c1.2-0.2,2.5,0.2,3.3,1.1c2.5,2.8,0.7,6.5-2.3,7
			l-10.2,1.6c-0.3,0-0.6-0.2-0.6-0.4L426,462.5z M440.5,484.8l-10.2,1.6c-0.3,0-0.6-0.2-0.6-0.4l-1.1-7c0-0.3,0.2-0.6,0.4-0.6
			l10.4-1.6c1.2-0.2,2.5,0.2,3.3,1.1C445.2,480.6,443.5,484.3,440.5,484.8z"/>
	</g>
	<g id="XMLID_375_">
		<g id="XMLID_891_">
			<path id="XMLID_894_" class="st8" d="M389.4,271.5l-56,6.2l-1.5,3.9l56.8,5.9c0,0-1.6-6.5-1.3-7.8c0.1-0.4,0.2-0.6,0.2-0.8
				c0.4-1.2,0.6-2.1,1.1-3.1c0.1-0.3,0.2-0.7,0.3-1C389.6,273.1,389.4,271.5,389.4,271.5z"/>
			<path id="XMLID_892_" class="st8" d="M313.7,274.4c0.6-0.4,10.7,2.2,10.7,2.2s-6-2.4-8-3c-2-0.6-2.1-2-1-2.1
				c1.1-0.1,12.7,4.1,12.7,4.1c0.7-0.3-0.8-0.9-2.7-2.2c-1.9-1.3-1.7-3.3-0.4-2.8c1.4,0.5,8.5,6.6,8.9,7c0.4,0.3,0.9,2.2-1.9,4
				c-1.7,1.1-6.8-0.5-8.9-1.2c-0.4-0.1-0.9-0.3-1.3-0.5c-1-0.5-2.8-1.3-3.1-1.5c-0.5-0.3,1.3-0.3,0.9-0.7c-0.3-1.9,2.7-1.3,0.3-1.3
				c-0.8,0-1.6,0.2-2.1,0.5c-1.4-0.4-2.6-0.7-3.2-0.8C313.2,275.8,313.1,274.8,313.7,274.4z"/>
		</g>
		<path id="XMLID_890_" class="st9" d="M393.5,343.7c0,0,1.1,5.4,26.9,2.8c25.7-2.6,37.8,2.2,39,2.5c1.3,0.3,8.7,1.6,9-3
			c0.3-4.6-27.7-12.2-27.7-12.2l-26-4.3l-13.6,2.8l-7.7,5.8V343.7z"/>
		<g id="XMLID_877_">
			<g id="XMLID_879_">
				<g id="XMLID_887_">
					<path id="XMLID_889_" class="st3" d="M429.6,423.9l1.3,4.6c0,1.2-2.2,3.7-3.4,3.7l-2-0.1l-0.4-9.4L429.6,423.9z"/>
					<path id="XMLID_888_" d="M430.9,428.4c0,0,3.5,2.1,3.4,5c-0.1,2.9-19.1,7.1-19.1,7.1s-0.8-0.2,0.2-1.1l7.5-6c0,0,3-3.2,4.9-3.5
						C429.4,429.7,430.9,428.4,430.9,428.4z"/>
				</g>
				<g id="XMLID_884_">
					<path id="XMLID_886_" class="st3" d="M498.9,389.6l3.8,2.8c1.1,0.4,4.3-0.8,4.6-2l0.6-1.9l-8.7-3.6L498.9,389.6z"/>
					<path id="XMLID_885_" d="M502.8,392.4c0,0,0.8,4,3.6,4.9c2.8,0.9,13.2-15.6,13.2-15.6s0.1-0.8-1.1-0.2l-8.2,5
						c0,0-4,1.7-4.9,3.5C504.5,391.5,502.8,392.4,502.8,392.4z"/>
				</g>
				<path id="XMLID_883_" class="st10" d="M429.3,358.3c-1.5-8.4-6.5-16.8-4.4-25.3l-27.6,2.5c0,0-2.2,12.6,3.3,39.5
					c5.5,26.8,24,53,24,53l6.9-1.8l-1.7-65C429.6,358.2,429.8,361.2,429.3,358.3z"/>
				<path id="XMLID_882_" class="st10" d="M437.8,364.5c-7.3-4.4-2.8-5.3-11.5-6.4l10.8-22.6c0,0,14.6,0.3,37.6,15.3
					c23,15,29.6,34.8,29.6,34.8l-4.1,5.8L440.3,366C437.7,364.7,440.3,366,437.8,364.5z"/>
				<path id="XMLID_881_" class="st11" d="M402.5,382.6c0,0,1.8-4.7,5.7-4.1c3.9,0.6,5.5,8.3,7,16.5c1.5,8.2,5.6,8.1,5.5,12.5
					c-0.1,4.4-4.9,3.9-4.9,3.9S406.7,400,402.5,382.6z"/>
				<path id="XMLID_880_" class="st11" d="M476.7,351.9c0,0-1.4,8.2,3.6,11.6c5,3.5,8.2,2.5,11.3,7.9c3.1,5.4,7.3,3,7.3,3
					S491.2,362.6,476.7,351.9z"/>
			</g>
			<path id="XMLID_878_" class="st10" d="M430.2,373.5c0,0,0.5-10.9,11.6-6.9c11.1,4.1-1-32.9-1-32.9l-23.1-5.7l5.6,40L430.2,373.5z
				"/>
		</g>
		<path id="XMLID_876_" class="st12" d="M410.3,294.2l-15.3,0c-13,0-23.5-10.6-23.3-23.6l0,0l30.9-7.1L410.3,294.2z"/>
		<g id="XMLID_871_">
			<path id="XMLID_874_" class="st8" d="M467.2,271.5l56,6.2l1.5,3.9l-56.8,5.9c0,0,1.6-6.5,1.3-7.8c-0.1-0.4-0.2-0.6-0.2-0.8
				c-0.4-1.2-0.6-2.1-1.1-3.1c-0.1-0.3-0.2-0.7-0.3-1C467,273.1,467.2,271.5,467.2,271.5z"/>
			<path id="XMLID_872_" class="st8" d="M542.9,274.4c-0.6-0.4-10.7,2.2-10.7,2.2s6-2.4,8-3c2-0.6,2.1-2,1-2.1
				c-1.1-0.1-12.7,4.1-12.7,4.1c-0.7-0.3,0.8-0.9,2.7-2.2c1.9-1.3,1.7-3.3,0.4-2.8c-1.4,0.5-8.5,6.6-8.9,7c-0.4,0.3-0.9,2.2,1.9,4
				c1.7,1.1,6.8-0.5,8.9-1.2c0.4-0.1,0.9-0.3,1.3-0.5c1-0.5,2.8-1.3,3.1-1.5c0.5-0.3-1.3-0.3-0.9-0.7c0.3-1.9-2.7-1.3-0.3-1.3
				c0.8,0,1.6,0.2,2.1,0.5c1.4-0.4,2.6-0.7,3.2-0.8C543.4,275.8,543.6,274.8,542.9,274.4z"/>
		</g>
		<path id="XMLID_870_" class="st12" d="M445.7,294.2l15.3,0c13,0,23.5-10.6,23.3-23.6l0,0l-30.9-7.1L445.7,294.2z"/>
		<path id="XMLID_869_" class="st12" d="M402.7,263.6c0,0-20.6,28.6-9.1,80.1c0,0-4.6-16.9,63.6-1.3c3,0.7,10.1,0.4,11.3,3.6
			c0,0,5.4-55.5-12.8-81.9l-12.8-3.2c-11.8-2.5-24-2.1-35.6,1.3L402.7,263.6z"/>
		<g id="XMLID_843_">
			
				<ellipse id="XMLID_867_" transform="matrix(0.28 -0.96 0.96 0.28 6.0967 487.4547)" class="st13" cx="328" cy="239.7" rx="37.4" ry="37.4"/>
			
				<ellipse id="XMLID_865_" transform="matrix(0.28 -0.96 0.96 0.28 6.7878 484.6095)" class="st14" cx="326.5" cy="237.8" rx="29.2" ry="29.2"/>
			<path id="XMLID_859_" class="st15" d="M338.5,203.8c-19.8-5.8-40.6,5.6-46.3,25.4c-5.8,19.8,5.6,40.6,25.4,46.3
				c19.8,5.8,40.6-5.6,46.3-25.4C369.7,230.3,358.3,209.6,338.5,203.8z M318.8,269.1c-16.3-4.8-25.7-21.9-20.9-38.2
				c4.8-16.3,21.9-25.7,38.2-20.9c16.3,4.8,25.7,21.9,20.9,38.2C352.2,264.4,335.1,273.8,318.8,269.1z"/>
			<g id="XMLID_844_">
				<polygon id="XMLID_857_" class="st15" points="335.1,215.4 313,236.2 325.3,249.1 				"/>
				<polygon id="XMLID_855_" class="st16" points="329.7,233.8 313,236.2 325.3,249.1 				"/>
				<polygon id="XMLID_853_" class="st15" points="335.1,215.4 342.6,244.8 325.3,249.1 				"/>
				<polygon id="XMLID_851_" class="st16" points="329.7,233.8 342.6,244.8 325.3,249.1 				"/>
				<polygon id="XMLID_849_" class="st17" points="335.1,215.4 342.6,244.8 325.3,249.1 				"/>
				<polygon id="XMLID_847_" class="st15" points="312.4,238.2 320.9,263.9 324.4,252 				"/>
				<polygon id="XMLID_845_" class="st16" points="342,246.9 320.9,263.9 324.4,252 				"/>
			</g>
		</g>
		<g id="XMLID_836_">
			
				<ellipse id="XMLID_842_" transform="matrix(8.960821e-02 -0.996 0.996 8.960821e-02 244.3664 746.6649)" class="st18" cx="530.6" cy="239.7" rx="37.4" ry="37.4"/>
			
				<ellipse id="XMLID_841_" transform="matrix(8.960916e-02 -0.996 0.996 8.960916e-02 244.169 740.933)" class="st7" cx="527.4" cy="236.9" rx="30.2" ry="30.2"/>
			<path id="XMLID_838_" class="st19" d="M534,202.4c-20.6-1.8-38.7,13.3-40.6,33.9c-1.8,20.6,13.3,38.7,33.9,40.6
				c20.6,1.8,38.7-13.3,40.6-33.9C569.7,222.5,554.5,204.3,534,202.4z M527.2,270.3c-16.9-1.5-29.4-16.5-27.9-33.4
				c1.5-16.9,16.5-29.4,33.4-27.9c16.9,1.5,29.4,16.5,27.9,33.4C559.1,259.3,544.2,271.8,527.2,270.3z"/>
			<path id="XMLID_837_" class="st19" d="M519.5,220.9l6.6,0.6c0.6,0.1,1.2-0.4,1.2-1l0.4-4.6c0.1-0.6,0.6-1.1,1.2-1l5.5,0.5
				c0.6,0.1,1.1,0.6,1,1.2l-0.4,4.6c-0.1,0.6,0.4,1.2,1,1.2l7.3,0.7c0.6,0.1,1.1,0.6,1,1.2l-0.5,5.2c0,0.2-0.1,0.5-0.3,0.6l-15.2,17
				c-0.6,0.7-0.2,1.8,0.7,1.9l11.8,1.1c0.6,0.1,1.1,0.6,1,1.2l-0.6,6.1c-0.1,0.6-0.6,1.1-1.2,1l-7.5-0.7c-0.6-0.1-1.2,0.4-1.2,1
				l-0.4,4.3c-0.1,0.6-0.6,1.1-1.2,1l-5.1-0.5c-0.6-0.1-1.1-0.6-1-1.2l0.4-4.2c0.1-0.6-0.4-1.2-1-1.2l-7.8-0.7
				c-0.6-0.1-1.1-0.6-1-1.2l0.4-4.8c0-0.2,0.1-0.5,0.3-0.6l15.6-17.4c0.6-0.7,0.2-1.8-0.7-1.9l-11-1c-0.6-0.1-1.1-0.6-1-1.2l0.6-6.2
				C518.4,221.3,518.9,220.9,519.5,220.9z"/>
		</g>
		<path id="XMLID_834_" class="st8" d="M527.4,279c0,0,11.8-8.8,13.7-9c0.8-0.1,0.9,0.5,0.1,1.3c-1,1-3.3,2.2-4.3,4.3
			c-1.2,2.5,10.6-5.1,10.6-3c0,2.1-10.7,6.7-14.2,7.1C529.9,280.1,527.4,279,527.4,279z"/>
		<path id="XMLID_832_" class="st8" d="M329.3,279c0,0-11.7-7.8-13.7-8c-0.8-0.1-0.9,0.5-0.1,1.3c1,1,2.7,0.9,3.8,3.1
			c1.2,2.5-10.1-4.9-10.1-2.8c0,2.1,10.7,6.7,14.2,7.1C326.7,280.1,329.3,279,329.3,279z"/>
		<path id="XMLID_830_" class="st8" d="M451.1,237.7c-0.3,6.4-1.9,12.1-11.4,16.4c0,0-4.9,4.9-3.5,11.7c1.4,6.8-17,6.2-14.3-3.1
			c2.8-9.3-1.8-20.1-5.2-26.2c-3.3-6.1-2-18.8,5.7-23c3-1.6,10.6-0.9,15.4,1.5C446.3,219.1,451.5,228.4,451.1,237.7z"/>
		<path id="XMLID_828_" class="st8" d="M418.7,231c0,0-2.2-1.8-5-1.1c-2.8,0.7-3.2,10.8,3.2,12.6c6.5,1.8,4.1-4.6,4.1-4.6L418.7,231
			z"/>
		<path id="XMLID_827_" class="st20" d="M451.4,236.6c-0.2,0-0.5,0.1-0.7,0.1c-0.6,0-1.1-0.1-1.5-0.2c-2.2,1.1-5.8,2.3-9.5,0.4
			c-5.6-2.9-10.6-3.4-13.3-2.1c-4.5,2.2-9.7,1-11.3-6c0,0-0.6,5.6,2.8,8.5c3.4,2.9,3.6,7.5,3,11.3c-0.5,3.8-3.2,8.1,0.2,12.9
			s9.1,0,13.4,1.1s13.6,2.3,15.6-5.4c2-7.7-0.6-10.6,0-13.8C450.7,240.6,451.8,238.9,451.4,236.6z"/>
		<g id="XMLID_822_">
			<g id="XMLID_825_">
				<path id="XMLID_826_" class="st21" d="M438.1,240.4c0,0-1.4-1.2-2.7-1.4c-1.3-0.2-2.7,0-3.3,1.6c-0.6,1.6,0.9,3.1,2.7,4.5
					c1.1,0.8,4.9,2.2,7.2,1.5c2.3-0.7,3.6-1.3,4.3-2.7c0.7-1.4-0.2-3.1-1.2-3.7c-1.1-0.6-2.4-0.3-3,0.1
					C441.5,240.7,440,241.5,438.1,240.4z"/>
			</g>
			<g id="XMLID_823_">
				<path id="XMLID_824_" class="st22" d="M433,243.5c0,0,1.8-0.7,4.2,0.1c2.5,0.8,3.2,2,4.1,3.2c0,0-3,0.3-5.5-1
					C433.7,244.6,433,243.5,433,243.5z"/>
			</g>
		</g>
		<ellipse id="XMLID_821_" class="st20" cx="433.6" cy="227.8" rx="1" ry="2"/>
		<ellipse id="XMLID_820_" class="st20" cx="444.8" cy="229.1" rx="1" ry="2"/>
		<circle id="XMLID_819_" class="st23" cx="446.6" cy="227.8" r="6.4"/>
		<polygon id="XMLID_818_" class="st24" points="440.4,222.4 443.8,235.7 436.9,235 		"/>
		<circle id="XMLID_817_" class="st23" cx="432.5" cy="226.7" r="6.4"/>
		<line id="XMLID_442_" class="st23" x1="441.9" y1="223.5" x2="438" y2="223.5"/>
		<line id="XMLID_426_" class="st23" x1="426.4" y1="225" x2="414.5" y2="228.7"/>
		<circle id="XMLID_423_" class="st20" cx="417.9" cy="238.5" r="3.1"/>
		<circle id="XMLID_398_" class="st20" cx="419.3" cy="242.1" r="2.7"/>
		<circle id="XMLID_397_" class="st20" cx="419.3" cy="246.3" r="3.6"/>
		<circle id="XMLID_396_" class="st20" cx="419.3" cy="252.2" r="3.6"/>
		<circle id="XMLID_395_" class="st20" cx="421" cy="258.6" r="3.6"/>
		<circle id="XMLID_394_" class="st20" cx="425.1" cy="262.6" r="3.6"/>
		<circle id="XMLID_393_" class="st20" cx="432" cy="262.2" r="3.6"/>
		<circle id="XMLID_391_" class="st20" cx="438.8" cy="263.5" r="3.6"/>
		<circle id="XMLID_390_" class="st20" cx="445.7" cy="261.4" r="3.6"/>
		<circle id="XMLID_388_" class="st20" cx="449" cy="256.3" r="3.6"/>
		<circle id="XMLID_387_" class="st20" cx="451.1" cy="249.9" r="3.6"/>
		<circle id="XMLID_385_" class="st20" cx="450.6" cy="243.8" r="3.6"/>
		<ellipse id="XMLID_384_" class="st20" cx="450.8" cy="239.4" rx="3.6" ry="3.4"/>
		<path id="XMLID_376_" class="st25" d="M445.5,303.9c-0.6-1.1-0.7-1.7-2.1-3.2c-0.3-0.3-0.4-0.9-0.1-1.3c0.5-0.7,1.1-1.8,1.4-3.5
			c0.4-2.8-0.2-5.5-1.9-7.8c-1.6-2.1-4.3-3.5-6.5-3.6c-0.3,0-0.6-0.3-0.6-0.6l0-2.3c0-0.5-0.3-0.8-0.6-0.8l-5.2,0.1
			c-0.3,0-0.6,0.3-0.6,0.6l0.1,2.4c0,0.3-0.2,0.6-0.6,0.6l-1.5,0c-0.3,0-0.6-0.2-0.6-0.6l-0.1-2.4c0-0.3-0.3-0.6-0.6-0.6l-5.2,0.1
			c-0.3,0-0.6,0.3-0.6,0.6l0,2.4c0,0.3-0.2,0.6-0.6,0.6l-3.4,0.1c-0.3,0-0.6,0.3-0.6,0.6l0.1,5.2c0,0.3,0.3,0.6,0.6,0.6l2-0.1
			c0.3,0,0.6,0.2,0.6,0.6l0.4,19.6c0,0.3-0.2,0.6-0.6,0.6l-2,0c-0.3,0-0.6,0.3-0.6,0.6l0.1,5.3c0,0.3,0.3,0.6,0.6,0.6l3.4-0.1
			c0.3,0,0.6,0.2,0.6,0.6l0,1.8c0,0.3,0.3,0.6,0.6,0.6l5.3-0.1c0.3,0,0.6-0.3,0.6-0.6l0-1.3c0-0.6,0.4-1,1-1l0.5,0c0.6,0,1,0.4,1,1
			l0,1.3c0,0.3,0.3,0.6,0.6,0.6l5.2-0.1c0.3,0,0.6-0.3,0.6-0.6l0-1.4c0-0.5,0.4-1,0.9-1c1.2-0.1,3.3-0.5,5-1.8c0,0,2-1.3,2.9-3.4
			c0.9-1.9,1.1-3.8,1.1-4.1c0,0,0-0.1,0-0.1C446.2,307.9,446.1,305.1,445.5,303.9z M425.2,291.2c0-0.2,0.2-0.4,0.4-0.4l8.7-0.1
			c1,0,2,0.4,2.6,1.3c1.7,2.6-0.2,5.4-2.7,5.4l-8.5,0.1c-0.2,0-0.4-0.2-0.4-0.4L425.2,291.2z M434.4,311l-8.5,0.1
			c-0.2,0-0.4-0.2-0.4-0.4l-0.1-5.8c0-0.2,0.2-0.4,0.4-0.4l8.7-0.1c1,0,2,0.4,2.6,1.3C438.8,308.2,437,311,434.4,311z"/>
	</g>
</g>
<text transform="matrix(1 0 0 1 209.3691 551.8945)" class="st26 st27 st28">SERVICE  TARIFFS</text>
</svg>
