<?xml version="1.0" encoding="utf-8"?>
<!-- Generator: Adobe Illustrator 21.0.0, SVG Export Plug-In . SVG Version: 6.00 Build 0)  -->
<svg version="1.1" id="Layer_1" xmlns="http://www.w3.org/2000/svg" xmlns:xlink="http://www.w3.org/1999/xlink" x="0px" y="0px"
	 viewBox="0 0 700 600" style="enable-background:new 0 0 700 600;" xml:space="preserve">
<style type="text/css">
	.st0{fill:url(#SVGID_1_);}
	.st1{fill:#F4C74A;}
	.st2{opacity:0.3;}
	.st3{fill:#FFFFFF;}
	.st4{fill:#FFFFFF;stroke:#FFFFFF;stroke-miterlimit:10;}
	.st5{fill:#F4A931;}
	.st6{opacity:0.33;fill:#FFBE55;}
	.st7{fill:#FFF57D;}
	.st8{fill:#FFCFC5;}
	.st9{fill:#1D71B8;}
	.st10{fill:#1B364F;}
	.st11{opacity:0.39;fill:#274F6D;}
	.st12{fill:#36A9E1;}
	.st13{fill:#9D9D9C;}
	.st14{opacity:0.4;fill:#AFAFAF;}
	.st15{fill:#BEBEBE;}
	.st16{fill:#878787;}
	.st17{opacity:0.71;fill:#9D9D9C;}
	.st18{fill:#FFE771;}
	.st19{fill:#FFBE55;}
	.st20{fill:#191919;}
	.st21{fill:#CE3E3E;}
	.st22{fill:#FF7D7D;}
	.st23{fill:none;stroke:#1D1D1B;stroke-miterlimit:10;}
	.st24{fill:#FF6252;}
	.st25{opacity:0.39;fill:#FFFFFF;}
	.st26{opacity:0.4;}
	.st27{fill:#4D4D4D;}
	.st28{fill:#FBB03B;}
</style>
<g>
	<linearGradient id="SVGID_1_" gradientUnits="userSpaceOnUse" x1="373.1272" y1="615.8766" x2="371.6166" y2="-24.9144">
		<stop  offset="9.732377e-02" style="stop-color:#4A69BD"/>
		<stop  offset="0.3504" style="stop-color:#368BAF"/>
		<stop  offset="0.6011" style="stop-color:#27A6A5"/>
		<stop  offset="0.8239" style="stop-color:#1DB69E"/>
		<stop  offset="0.9959" style="stop-color:#1ABC9C"/>
	</linearGradient>
	<path class="st0" d="M693,389.7c0,134.9-186.6,174.4-338,174.4c-158.1,0-302.8-11.9-302.8-166.5S156,35.9,314.1,35.9
		S693,294.3,693,389.7z"/>
	<path class="st1" d="M52.2,397.6C52.2,243.8,154.9,38,311.7,36c-0.6,0-1.3,0-1.9,0C100.3,35.9,7,249.4,7,400.9
		s144.7,163.2,302.8,163.2c5.5,0,11.1-0.1,16.8-0.2C180,562.1,52.2,542.8,52.2,397.6z"/>
</g>
<g class="st2">
	<path id="XMLID_926_" class="st3" d="M285.8,87.6H353c0,0-3.4-8.2-7.6-8.5c-4.2-0.3-5.4,2.2-6.7,2c-1.3-0.3-3.5-7-8.9-7.3
		c-5.4-0.3-7.5,4.7-10.4,5.6c-2.9,0.9-8.7,0.4-13.3-6.9c-4.5-7.3-13.1,0.6-13.4,6.2c-0.3,8.6-13.5,3.9-13.5,8.9H285.8z"/>
	<path id="XMLID_923_" class="st4" d="M544.4,257.2h-67.2c0,0,3.4-8.4,7.6-8.7c4.2-0.3,5.4,2.1,6.7,1.9c1.3-0.3,3.5-7,8.9-7.3
		c5.4-0.3,7.5,4.6,10.4,5.6c2.9,0.9,8.7,0.4,13.3-6.9c4.5-7.3,13.1,0.8,13.4,6.4c0.3,8.6,13.5,4.1,13.5,9.1H544.4z"/>
	<path id="XMLID_922_" class="st3" d="M176,278h-67.2c0,0,3.4-8.2,7.6-8.5c4.2-0.3,5.4,2.2,6.7,2c1.3-0.3,3.5-7,8.9-7.3
		c5.4-0.3,7.5,4.7,10.4,5.6c2.9,0.9,8.7,0.4,13.3-6.9c4.5-7.3,13.1,0.6,13.4,6.2c0.3,8.6,13.5,3.9,13.5,8.9H176z"/>
</g>
<g id="XMLID_290_">
	<g id="XMLID_896_">
		
			<ellipse id="XMLID_921_" transform="matrix(0.9881 -0.1537 0.1537 0.9881 -60.2311 59.3786)" class="st5" cx="354" cy="419.3" rx="42.5" ry="42.5"/>
		
			<ellipse id="XMLID_915_" transform="matrix(0.9881 -0.1537 0.1537 0.9881 -59.9479 59.0778)" class="st6" cx="352.2" cy="417.3" rx="32.1" ry="32.1"/>
		<path id="XMLID_906_" class="st7" d="M347.5,377.3c-23.2,3.6-39.1,25.3-35.5,48.6c3.6,23.2,25.3,39.1,48.6,35.5
			c23.2-3.6,39.1-25.3,35.5-48.6C392.4,389.6,370.7,373.7,347.5,377.3z M358.7,454.1c-19.1,3-37-10.1-40-29.2
			c-3-19.1,10.1-37,29.2-40s37,10.1,40,29.2C390.9,433.2,377.8,451.1,358.7,454.1z"/>
		<path id="XMLID_897_" class="st7" d="M375.1,420.4c-1-1.5-1.2-2.1-3.5-3.9c-0.5-0.4-0.7-1.1-0.4-1.7c0.5-1,1.1-2.7,1.2-5.1
			c0.1-3.9-1.3-7.5-4.2-10.3c-2.7-2.6-6.6-3.9-9.6-3.7c-0.4,0-0.8-0.2-0.9-0.7l-0.5-3.1c-0.1-0.7-0.5-1-1-1l-7.1,1.2
			c-0.4,0.1-0.7,0.5-0.6,0.9l0.5,3.3c0.1,0.4-0.2,0.8-0.6,0.9l-2,0.3c-0.4,0.1-0.8-0.2-0.9-0.6l-0.5-3.3c-0.1-0.4-0.5-0.7-0.9-0.6
			l-7,1.2c-0.4,0.1-0.7,0.5-0.6,0.9l0.5,3.2c0.1,0.4-0.2,0.8-0.6,0.9l-4.7,0.8c-0.4,0.1-0.7,0.5-0.6,0.9l1.2,7.1
			c0.1,0.4,0.5,0.7,0.9,0.6l2.7-0.5c0.4-0.1,0.8,0.2,0.9,0.6l4.4,26.8c0.1,0.4-0.2,0.8-0.6,0.9l-2.7,0.4c-0.4,0.1-0.7,0.5-0.6,0.9
			l1.2,7.2c0.1,0.4,0.5,0.7,0.9,0.6l4.7-0.8c0.4-0.1,0.8,0.2,0.9,0.6l0.4,2.4c0.1,0.4,0.5,0.7,0.9,0.6l7.2-1.2
			c0.4-0.1,0.7-0.5,0.6-0.9l-0.3-1.8c-0.1-0.8,0.4-1.5,1.1-1.6l0.7-0.1c0.8-0.1,1.5,0.4,1.6,1.1l0.3,1.8c0.1,0.4,0.5,0.7,0.9,0.6
			l7.1-1.2c0.4-0.1,0.7-0.5,0.6-0.9l-0.3-1.9c-0.1-0.7,0.3-1.4,1-1.6c1.6-0.4,4.4-1.4,6.4-3.4c0,0,2.5-2.1,3.4-5.2
			c0.8-2.8,0.8-5.4,0.7-5.9c0-0.1,0-0.1,0-0.2C376.8,425.7,376.1,421.9,375.1,420.4z M344.8,407c-0.1-0.3,0.2-0.6,0.5-0.7l11.8-1.8
			c1.4-0.2,2.9,0.2,3.8,1.3c2.8,3.2,0.8,7.4-2.6,8l-11.6,1.8c-0.3,0.1-0.6-0.2-0.7-0.5L344.8,407z M361.3,432.3l-11.6,1.8
			c-0.3,0.1-0.6-0.2-0.7-0.5l-1.2-8c-0.1-0.3,0.2-0.6,0.5-0.7l11.8-1.8c1.4-0.2,2.9,0.2,3.8,1.3
			C366.7,427.6,364.7,431.8,361.3,432.3z"/>
	</g>
	<g id="XMLID_375_">
		<g id="XMLID_891_">
			<path id="XMLID_894_" class="st8" d="M303.2,189.6l-63.7,7l-1.7,4.4l64.6,6.7c0,0-1.9-7.4-1.5-8.8c0.1-0.5,0.2-0.7,0.3-0.9
				c0.5-1.4,0.7-2.3,1.3-3.6c0.1-0.3,0.2-0.7,0.3-1.1C303.4,191.5,303.2,189.6,303.2,189.6z"/>
			<path id="XMLID_892_" class="st8" d="M217,192.9c0.7-0.5,12.2,2.5,12.2,2.5s-6.8-2.7-9.1-3.4c-2.3-0.7-2.4-2.2-1.1-2.3
				c1.3-0.1,14.4,4.6,14.4,4.6c0.8-0.3-0.9-1-3.1-2.5c-2.2-1.5-2-3.7-0.4-3.2c1.5,0.5,9.7,7.5,10.1,7.9c0.5,0.4,1.1,2.5-2.1,4.5
				c-2,1.2-7.7-0.6-10.1-1.4c-0.5-0.2-1-0.3-1.4-0.6c-1.1-0.5-3.2-1.5-3.5-1.7c-0.6-0.3,1.5-0.3,1-0.8c-0.4-2.1,3.1-1.5,0.3-1.5
				c-1,0-1.8,0.2-2.4,0.6c-1.6-0.5-3-0.8-3.6-0.9C216.5,194.6,216.3,193.4,217,192.9z"/>
		</g>
		<path id="XMLID_890_" class="st9" d="M307.9,271.8c0,0,1.3,6.2,30.6,3.2c29.3-3,43,2.5,44.4,2.8c1.4,0.3,9.9,1.8,10.3-3.4
			s-31.6-13.9-31.6-13.9l-29.6-4.9l-15.4,3.1l-8.7,6.6V271.8z"/>
		<g id="XMLID_877_">
			<g id="XMLID_879_">
				<g id="XMLID_887_">
					<path id="XMLID_889_" class="st3" d="M348.9,363l1.5,5.2c0,1.4-2.5,4.3-3.9,4.2l-2.3-0.1l-0.4-10.7L348.9,363z"/>
					<path id="XMLID_888_" d="M350.4,368.2c0,0,4,2.4,3.9,5.7c-0.2,3.3-21.8,8.1-21.8,8.1s-0.9-0.2,0.2-1.2l8.5-6.8
						c0,0,3.4-3.6,5.6-4C348.7,369.7,350.4,368.2,350.4,368.2z"/>
				</g>
				<g id="XMLID_884_">
					<path id="XMLID_886_" class="st3" d="M427.8,324.1l4.4,3.2c1.3,0.5,4.8-0.9,5.3-2.2l0.7-2.1l-9.9-4L427.8,324.1z"/>
					<path id="XMLID_885_" d="M432.2,327.2c0,0,0.9,4.6,4.1,5.6c3.2,1,15-17.8,15-17.8s0.1-0.9-1.2-0.2l-9.3,5.7c0,0-4.5,2-5.6,3.9
						C434.2,326.2,432.2,327.2,432.2,327.2z"/>
				</g>
				<path id="XMLID_883_" class="st10" d="M348.6,288.4c-1.7-9.6-7.4-19.1-5-28.8l-31.4,2.8c0,0-2.5,14.4,3.8,44.9
					c6.3,30.5,27.3,60.3,27.3,60.3l7.8-2l-1.9-73.9C348.9,288.4,349.2,291.7,348.6,288.4z"/>
				<path id="XMLID_882_" class="st10" d="M358.3,295.5c-8.3-5.1-3.2-6-13.1-7.3l12.3-25.7c0,0,16.6,0.4,42.8,17.4
					c26.1,17,33.7,39.6,33.7,39.6l-4.7,6.5l-68.1-28.8C358.2,295.7,361.1,297.2,358.3,295.5z"/>
				<path id="XMLID_881_" class="st11" d="M318.1,316c0,0,2.1-5.3,6.5-4.6c4.4,0.7,6.3,9.5,8,18.8c1.7,9.3,6.4,9.2,6.3,14.2
					c-0.1,5-5.6,4.4-5.6,4.4S322.9,335.9,318.1,316z"/>
				<path id="XMLID_880_" class="st11" d="M402.5,281.1c0,0-1.6,9.3,4.1,13.2c5.7,3.9,9.3,2.8,12.8,9c3.5,6.1,8.3,3.4,8.3,3.4
					S419,293.3,402.5,281.1z"/>
			</g>
			<path id="XMLID_878_" class="st10" d="M349.6,305.7c0,0,0.6-12.4,13.2-7.8c12.6,4.6-1.1-37.4-1.1-37.4l-26.3-6.5l6.4,45.5
				L349.6,305.7z"/>
		</g>
		<path id="XMLID_876_" class="st12" d="M327,215.5l-17.4,0c-14.8,0-26.7-12-26.6-26.8l0,0l35.2-8.1L327,215.5z"/>
		<g id="XMLID_871_">
			<path id="XMLID_874_" class="st8" d="M391.7,189.6l63.7,7l1.7,4.4l-64.6,6.7c0,0,1.9-7.4,1.5-8.8c-0.1-0.5-0.2-0.7-0.3-0.9
				c-0.5-1.4-0.7-2.3-1.3-3.6c-0.1-0.3-0.2-0.7-0.3-1.1C391.5,191.5,391.7,189.6,391.7,189.6z"/>
			<path id="XMLID_872_" class="st8" d="M477.9,192.9c-0.7-0.5-12.2,2.5-12.2,2.5s6.8-2.7,9.1-3.4c2.3-0.7,2.4-2.2,1.1-2.3
				c-1.3-0.1-14.4,4.6-14.4,4.6c-0.8-0.3,0.9-1,3.1-2.5c2.2-1.5,2-3.7,0.4-3.2c-1.5,0.5-9.7,7.5-10.1,7.9c-0.5,0.4-1.1,2.5,2.1,4.5
				c2,1.2,7.7-0.6,10.1-1.4c0.5-0.2,1-0.3,1.4-0.6c1.1-0.5,3.2-1.5,3.5-1.7c0.6-0.3-1.5-0.3-1-0.8c0.4-2.1-3.1-1.5-0.3-1.5
				c1,0,1.8,0.2,2.4,0.6c1.6-0.5,3-0.8,3.6-0.9C478.5,194.6,478.6,193.4,477.9,192.9z"/>
		</g>
		<path id="XMLID_870_" class="st12" d="M367.2,215.5l17.4,0c14.8,0,26.7-12,26.6-26.8l0,0l-35.2-8.1L367.2,215.5z"/>
		<path id="XMLID_869_" class="st12" d="M318.3,180.6c0,0-23.4,32.5-10.4,91.2c0,0-5.2-19.3,72.4-1.5c3.4,0.8,11.5,0.4,12.9,4.1
			c0,0,6.2-63.1-14.6-93.2l-14.5-3.6c-13.4-2.9-27.3-2.4-40.5,1.5L318.3,180.6z"/>
		<g id="XMLID_843_">
			
				<ellipse id="XMLID_867_" transform="matrix(0.28 -0.96 0.96 0.28 20.7028 334.4913)" class="st13" cx="233.3" cy="153.4" rx="42.5" ry="42.5"/>
			
				<ellipse id="XMLID_865_" transform="matrix(0.28 -0.96 0.96 0.28 21.4891 331.2539)" class="st14" cx="231.6" cy="151.3" rx="33.2" ry="33.2"/>
			<path id="XMLID_859_" class="st15" d="M245.3,112.6c-22.5-6.6-46.2,6.4-52.7,28.9c-6.6,22.5,6.4,46.2,28.9,52.7
				s46.2-6.4,52.7-28.9C280.7,142.8,267.8,119.2,245.3,112.6z M222.8,186.9c-18.6-5.4-29.3-24.9-23.8-43.5
				c5.4-18.6,24.9-29.3,43.5-23.8s29.3,24.9,23.8,43.5C260.9,181.6,241.4,192.3,222.8,186.9z"/>
			<g id="XMLID_844_">
				<polygon id="XMLID_857_" class="st15" points="241.4,125.8 216.2,149.5 230.2,164.2 				"/>
				<polygon id="XMLID_855_" class="st16" points="235.3,146.8 216.2,149.5 230.2,164.2 				"/>
				<polygon id="XMLID_853_" class="st15" points="241.4,125.8 249.9,159.3 230.2,164.2 				"/>
				<polygon id="XMLID_851_" class="st16" points="235.3,146.8 249.9,159.3 230.2,164.2 				"/>
				<polygon id="XMLID_849_" class="st17" points="241.4,125.8 249.9,159.3 230.2,164.2 				"/>
				<polygon id="XMLID_847_" class="st15" points="215.5,151.8 225.3,181.1 229.2,167.5 				"/>
				<polygon id="XMLID_845_" class="st16" points="249.2,161.6 225.3,181.1 229.2,167.5 				"/>
			</g>
		</g>
		<g id="XMLID_836_">
			
				<ellipse id="XMLID_842_" transform="matrix(8.960821e-02 -0.996 0.996 8.960821e-02 269.4669 601.6868)" class="st18" cx="463.9" cy="153.4" rx="42.5" ry="42.5"/>
			
				<ellipse id="XMLID_841_" transform="matrix(8.960916e-02 -0.996 0.996 8.960916e-02 269.2424 595.1651)" class="st7" cx="460.2" cy="150.3" rx="34.3" ry="34.3"/>
			<path id="XMLID_838_" class="st19" d="M467.7,111.1c-23.4-2.1-44.1,15.2-46.2,38.5c-2.1,23.4,15.2,44.1,38.5,46.2
				c23.4,2.1,44.1-15.2,46.2-38.5C508.3,133.9,491.1,113.2,467.7,111.1z M460,188.3c-19.3-1.7-33.5-18.8-31.8-38.1
				c1.7-19.3,18.8-33.5,38.1-31.8c19.3,1.7,33.5,18.8,31.8,38.1C496.3,175.8,479.3,190,460,188.3z"/>
			<path id="XMLID_837_" class="st19" d="M451.2,132.1l7.5,0.7c0.7,0.1,1.3-0.5,1.4-1.2l0.5-5.2c0.1-0.7,0.7-1.2,1.4-1.2l6.2,0.6
				c0.7,0.1,1.2,0.7,1.2,1.4l-0.5,5.2c-0.1,0.7,0.5,1.3,1.2,1.4l8.3,0.7c0.7,0.1,1.2,0.7,1.2,1.4l-0.5,5.9c0,0.3-0.1,0.5-0.3,0.7
				L461.3,162c-0.7,0.8-0.2,2,0.8,2.1l13.4,1.2c0.7,0.1,1.2,0.7,1.2,1.4l-0.6,7c-0.1,0.7-0.7,1.2-1.4,1.2l-8.6-0.8
				c-0.7-0.1-1.3,0.5-1.4,1.2l-0.4,4.9c-0.1,0.7-0.7,1.2-1.4,1.2l-5.8-0.5c-0.7-0.1-1.2-0.7-1.2-1.4l0.4-4.8
				c0.1-0.7-0.5-1.3-1.2-1.4l-8.9-0.8c-0.7-0.1-1.2-0.7-1.2-1.4l0.5-5.5c0-0.3,0.1-0.5,0.3-0.7l17.7-19.8c0.7-0.8,0.2-2-0.8-2.1
				l-12.5-1.1c-0.7-0.1-1.2-0.7-1.2-1.4l0.6-7C449.9,132.6,450.5,132.1,451.2,132.1z"/>
		</g>
		<path id="XMLID_834_" class="st8" d="M460.2,198.2c0,0,13.4-10.1,15.6-10.3c1-0.1,1,0.6,0.2,1.5c-1.1,1.2-3.7,2.5-4.9,4.9
			c-1.4,2.8,12.1-5.8,12.1-3.5c0,2.3-12.2,7.6-16.1,8.1C463.1,199.4,460.2,198.2,460.2,198.2z"/>
		<path id="XMLID_832_" class="st8" d="M234.8,198.2c0,0-13.4-8.9-15.6-9.1c-1-0.1-1,0.6-0.2,1.5c1.1,1.2,3,1,4.3,3.5
			c1.4,2.8-11.5-5.6-11.5-3.2c0,2.3,12.2,7.6,16.1,8.1C231.9,199.4,234.8,198.2,234.8,198.2z"/>
		<path id="XMLID_830_" class="st8" d="M373.4,151.2c-0.3,7.2-2.1,13.8-13,18.6c0,0-5.6,5.6-3.9,13.3c1.6,7.7-19.4,7.1-16.2-3.5
			c3.2-10.6-2.1-22.8-5.9-29.8c-3.8-6.9-2.2-21.4,6.5-26.2c3.4-1.9,12-1,17.6,1.7C367.9,130.1,373.8,140.7,373.4,151.2z"/>
		<path id="XMLID_828_" class="st8" d="M336.5,143.6c0,0-2.5-2.1-5.7-1.2c-3.1,0.8-3.7,12.3,3.7,14.3s4.7-5.2,4.7-5.2L336.5,143.6z"
			/>
		<path id="XMLID_827_" class="st20" d="M373.7,149.9c-0.3,0-0.6,0.1-0.9,0.1c-0.6,0-1.2-0.1-1.7-0.3c-2.5,1.2-6.6,2.6-10.8,0.4
			c-6.4-3.3-12.1-3.8-15.1-2.4c-5.2,2.5-11.1,1.2-12.8-6.8c0,0-0.7,6.3,3.2,9.6c3.9,3.3,4.1,8.6,3.5,12.9c-0.6,4.3-3.7,9.2,0.3,14.6
			s10.4,0,15.2,1.3c4.8,1.3,15.5,2.7,17.7-6.1c2.2-8.8-0.7-12.1,0-15.7C372.9,154.5,374.1,152.6,373.7,149.9z"/>
		<g id="XMLID_822_">
			<g id="XMLID_825_">
				<path id="XMLID_826_" class="st21" d="M358.6,154.3c0,0-1.6-1.3-3.1-1.6c-1.5-0.3-3.1,0-3.7,1.8c-0.6,1.8,1,3.6,3,5.1
					c1.2,0.9,5.6,2.5,8.2,1.7c2.7-0.7,4.1-1.5,4.9-3c0.8-1.6-0.2-3.5-1.4-4.2c-1.2-0.7-2.7-0.3-3.4,0.1
					C362.5,154.6,360.7,155.6,358.6,154.3z"/>
			</g>
			<g id="XMLID_823_">
				<path id="XMLID_824_" class="st22" d="M352.8,157.8c0,0,2-0.8,4.8,0.1c2.8,0.9,3.7,2.2,4.7,3.6c0,0-3.4,0.3-6.3-1.2
					C353.6,159.1,352.8,157.8,352.8,157.8z"/>
			</g>
		</g>
		<ellipse id="XMLID_821_" class="st20" cx="353.4" cy="139.9" rx="1.2" ry="2.3"/>
		<ellipse id="XMLID_820_" class="st20" cx="366.3" cy="141.4" rx="1.2" ry="2.3"/>
		<circle id="XMLID_819_" class="st23" cx="368.3" cy="139.9" r="7.3"/>
		<polygon id="XMLID_818_" class="st24" points="361.3,133.8 365.1,149 357.2,148.1 		"/>
		<circle id="XMLID_817_" class="st23" cx="352.3" cy="138.7" r="7.3"/>
		<line id="XMLID_442_" class="st23" x1="362.9" y1="135.1" x2="358.5" y2="135.1"/>
		<line id="XMLID_426_" class="st23" x1="345.3" y1="136.8" x2="331.8" y2="141"/>
		<circle id="XMLID_423_" class="st20" cx="335.6" cy="152.1" r="3.5"/>
		<circle id="XMLID_398_" class="st20" cx="337.2" cy="156.2" r="3.1"/>
		<circle id="XMLID_397_" class="st20" cx="337.2" cy="161" r="4.1"/>
		<circle id="XMLID_396_" class="st20" cx="337.2" cy="167.7" r="4.1"/>
		<circle id="XMLID_395_" class="st20" cx="339.1" cy="175" r="4.1"/>
		<circle id="XMLID_394_" class="st20" cx="343.8" cy="179.5" r="4.1"/>
		<circle id="XMLID_393_" class="st20" cx="351.7" cy="179.1" r="4.1"/>
		<circle id="XMLID_391_" class="st20" cx="359.4" cy="180.6" r="4.1"/>
		<circle id="XMLID_390_" class="st20" cx="367.2" cy="178.2" r="4.1"/>
		<circle id="XMLID_388_" class="st20" cx="371" cy="172.4" r="4.1"/>
		<circle id="XMLID_387_" class="st20" cx="373.4" cy="165.1" r="4.1"/>
		<circle id="XMLID_385_" class="st20" cx="372.8" cy="158.1" r="4.1"/>
		<ellipse id="XMLID_384_" class="st20" cx="373.1" cy="153.1" rx="4.1" ry="3.8"/>
		<path id="XMLID_376_" class="st25" d="M367,226.5c-0.7-1.3-0.7-1.9-2.4-3.6c-0.4-0.4-0.4-1-0.1-1.4c0.5-0.8,1.2-2.1,1.5-4
			c0.5-3.1-0.2-6.3-2.2-8.9c-1.9-2.4-4.9-3.9-7.4-4.1c-0.3,0-0.6-0.3-0.6-0.6l-0.1-2.6c0-0.6-0.3-0.9-0.7-0.9l-5.9,0.1
			c-0.4,0-0.6,0.3-0.6,0.7l0.1,2.7c0,0.4-0.3,0.7-0.6,0.7l-1.7,0c-0.4,0-0.7-0.3-0.7-0.6l-0.1-2.7c0-0.4-0.3-0.6-0.7-0.6l-5.9,0.1
			c-0.4,0-0.6,0.3-0.6,0.7l0.1,2.7c0,0.4-0.3,0.7-0.6,0.7l-3.9,0.1c-0.4,0-0.6,0.3-0.6,0.7l0.1,5.9c0,0.4,0.3,0.6,0.7,0.6l2.2-0.1
			c0.4,0,0.7,0.3,0.7,0.6l0.5,22.3c0,0.4-0.3,0.7-0.6,0.7l-2.3,0c-0.4,0-0.6,0.3-0.6,0.7l0.1,6c0,0.4,0.3,0.6,0.7,0.6l3.9-0.1
			c0.4,0,0.7,0.3,0.7,0.6l0,2c0,0.4,0.3,0.6,0.7,0.6l6-0.1c0.4,0,0.6-0.3,0.6-0.7l0-1.5c0-0.6,0.5-1.1,1.1-1.2l0.6,0
			c0.6,0,1.1,0.5,1.2,1.1l0,1.5c0,0.4,0.3,0.6,0.7,0.6l5.9-0.1c0.4,0,0.6-0.3,0.6-0.7l0-1.6c0-0.6,0.4-1.1,1-1.1
			c1.4-0.1,3.8-0.6,5.6-2.1c0,0,2.3-1.4,3.3-3.8c1-2.2,1.2-4.3,1.3-4.7c0,0,0-0.1,0-0.1C367.8,231.1,367.7,227.9,367,226.5z
			 M343.9,212.1c0-0.3,0.2-0.5,0.5-0.5l9.9-0.1c1.2,0,2.3,0.5,2.9,1.5c1.9,3-0.2,6.1-3,6.2l-9.6,0.1c-0.3,0-0.5-0.2-0.5-0.5
			L343.9,212.1z M354.4,234.7l-9.6,0.1c-0.3,0-0.5-0.2-0.5-0.5l-0.1-6.7c0-0.3,0.2-0.5,0.5-0.5l9.9-0.1c1.2,0,2.3,0.5,2.9,1.5
			C359.4,231.4,357.3,234.6,354.4,234.7z"/>
	</g>
</g>
<g class="st26">
	<path class="st27" d="M126.2,522.2c-0.6,0.6-1.5,1.1-2.8,1.6c-1.3,0.5-2.9,0.9-5,1.2s-4.6,0.5-7.5,0.5c-2.9,0-5.5-0.2-7.8-0.5
		c-2.3-0.4-4.2-0.8-5.8-1.4c-1.6-0.6-2.8-1.3-3.6-2.1c-0.8-0.8-1.3-1.7-1.3-2.6c0-0.8,0.2-1.4,0.6-2s0.9-1,1.7-1.4
		c0.7-0.4,1.6-0.8,2.7-1.1c1-0.3,2.2-0.6,3.5-0.9s2.7-0.6,4.3-1c1.6-0.3,3.2-0.7,5-1.2c0.9-0.3,1.6-0.6,2.1-0.9
		c0.5-0.4,0.7-0.7,0.7-1c0-0.2-0.1-0.3-0.2-0.5c-0.2-0.2-0.4-0.3-0.7-0.5c-0.3-0.1-0.6-0.2-1-0.3c-0.4-0.1-0.8-0.1-1.3-0.1
		c-0.4,0-0.8,0-1.2,0.1s-0.7,0.1-1,0.2c-0.3,0.1-0.5,0.2-0.7,0.4c-0.2,0.1-0.3,0.3-0.3,0.5c0,0.3,0.2,0.5,0.5,0.7
		c0.4,0.2,0.8,0.2,1.5,0.2c0.4,0,0.8,0,1.3-0.1c-0.4,0.3-0.9,0.6-1.5,0.8s-1.4,0.5-2.2,0.6c-0.8,0.2-1.7,0.3-2.6,0.4
		s-1.8,0.1-2.8,0.1c-1.2,0-2.4-0.1-3.4-0.2c-1.1-0.1-2-0.4-2.8-0.7c-0.8-0.3-1.4-0.7-1.9-1.1s-0.7-1-0.7-1.6c0-0.8,0.5-1.6,1.4-2.3
		c0.9-0.7,2.2-1.3,3.8-1.8c1.6-0.5,3.4-0.9,5.5-1.2c2.1-0.3,4.3-0.4,6.6-0.4c2.6,0,5,0.2,7.4,0.5c2.4,0.4,4.4,0.9,6.2,1.5
		s3.2,1.5,4.3,2.4c1.1,0.9,1.6,2,1.6,3.1c0,0.8-0.2,1.5-0.7,2.1s-1.1,1.1-2,1.6c-0.8,0.4-1.8,0.8-2.9,1.2c-1.1,0.3-2.3,0.6-3.5,0.9
		c-1.2,0.3-2.5,0.5-3.8,0.7c-1.3,0.2-2.6,0.4-3.8,0.7c-0.8,0.1-1.5,0.3-2.2,0.5c-0.7,0.2-1.2,0.4-1.7,0.7c-0.5,0.3-0.9,0.5-1.1,0.8
		c-0.3,0.3-0.4,0.6-0.4,0.9c0,0.3,0.1,0.6,0.4,0.8c0.2,0.2,0.6,0.4,1,0.6c0.4,0.2,0.8,0.3,1.3,0.3s0.9,0.1,1.4,0.1
		c0.7,0,1.2,0,1.6-0.1c0.4-0.1,0.8-0.2,1-0.3c0.3-0.1,0.4-0.2,0.5-0.3c0.1-0.1,0.2-0.2,0.2-0.3c0-0.2-0.1-0.3-0.4-0.5
		c-0.3-0.1-0.7-0.2-1.3-0.2c-0.2,0-0.6,0-0.9,0.1c-0.4,0.1-0.7,0.2-0.9,0.4c0-0.1,0-0.3,0.1-0.5c0.1-0.2,0.2-0.4,0.4-0.7
		c0.2-0.2,0.5-0.5,0.8-0.8c0.4-0.3,0.9-0.5,1.5-0.7c0.6-0.2,1.4-0.4,2.3-0.5c0.9-0.1,2-0.2,3.3-0.2c1.2,0,2.3,0.1,3.3,0.2
		c1,0.2,1.9,0.4,2.6,0.7c0.7,0.3,1.3,0.6,1.7,1c0.4,0.4,0.6,0.8,0.6,1.3C127.1,521,126.8,521.6,126.2,522.2z"/>
	<path class="st27" d="M161.6,511.7c-0.5-0.4-1.1-0.8-1.9-1.1c-0.8-0.4-1.7-0.7-2.6-1s-2-0.5-3-0.7c-1-0.2-2-0.3-2.9-0.3
		c-0.6,0-1.1,0-1.7,0.1c-0.5,0.1-1,0.2-1.4,0.4c-0.4,0.2-0.7,0.4-0.9,0.8s-0.4,0.7-0.4,1.1c0,0.6,0.4,1.1,1.1,1.5s1.8,0.6,3.3,0.6
		c0.1,0,0.4,0,0.8,0s0.8-0.1,1.3-0.2c0.5-0.1,0.9-0.3,1.4-0.5c0.5-0.2,0.9-0.5,1.3-0.9v5.9c-0.4-0.2-0.8-0.5-1.3-0.6
		c-0.4-0.2-0.8-0.3-1.4-0.4c-0.5-0.1-1.1-0.2-1.8-0.2c-0.8,0-1.5,0.1-2,0.2c-0.6,0.1-1,0.3-1.4,0.5c-0.4,0.2-0.6,0.4-0.8,0.7
		c-0.2,0.3-0.3,0.5-0.3,0.8c0,0.2,0.1,0.5,0.2,0.7c0.1,0.2,0.4,0.5,0.8,0.6c0.4,0.2,0.9,0.3,1.7,0.5c0.7,0.1,1.6,0.2,2.8,0.2
		c0.9,0,2-0.1,3-0.3c0.9-0.1,2-0.3,3.2-0.6c1.2-0.3,2.4-0.7,3.8-1.2v6.8c-1.5-0.1-3.2-0.2-5.1-0.3c-1.6-0.1-3.5-0.1-5.6-0.2
		c-2.1-0.1-4.4-0.1-6.9-0.1c-2,0-4.1,0-6.2,0.1c-2.1,0.1-4.3,0.2-6.5,0.3c0.3-0.3,0.5-0.6,0.8-1c0.2-0.4,0.4-0.9,0.6-1.4
		c0.2-0.5,0.3-1.1,0.4-1.7c0.1-0.6,0.2-1.2,0.3-1.8c0.1-0.6,0.1-1.1,0.2-1.7c0-0.5,0.1-1,0.1-1.4c0-0.4,0-0.8,0.1-1
		c0-0.3,0-0.4,0-0.5c0-0.2,0-0.5,0-1c0-0.5-0.1-1.1-0.1-1.7c-0.1-0.7-0.2-1.4-0.3-2.2c-0.1-0.8-0.3-1.5-0.6-2.3s-0.5-1.5-0.9-2.1
		s-0.8-1.2-1.3-1.7c1.4,0.1,2.8,0.2,4.2,0.3c1.4,0.1,2.8,0.1,4.2,0.2c1.4,0,2.6,0.1,3.8,0.1c1.2,0,2.2,0,3.1,0c1.8,0,3.5,0,5,0
		s3,0,4.4-0.1c1.4,0,2.7-0.1,3.9-0.1c1.2-0.1,2.4-0.1,3.6-0.2L161.6,511.7z"/>
	<path class="st27" d="M204.7,503.9c-0.4,0.2-0.7,0.4-1,0.6c-0.3,0.2-0.6,0.5-0.8,0.8s-0.4,0.5-0.5,0.8c-0.3,0.6-0.6,1.3-0.6,2
		c0,0.7-0.1,1.3-0.1,2s-0.2,1.2-0.6,1.7c-0.4,0.5-1,1-1.8,1.4c-0.8,0.4-2,0.8-3.6,1.1c1.4,0.3,2.5,0.7,3.4,1.1
		c0.9,0.4,1.7,0.8,2.3,1.2c0.6,0.4,1,0.9,1.3,1.3c0.3,0.4,0.4,0.9,0.4,1.3c0,0.8-0.2,1.5-0.7,2.1s-1.1,1.1-2,1.5s-1.8,0.8-3,1.1
		s-2.4,0.5-3.7,0.7c-1.3,0.2-2.7,0.3-4.1,0.3c-1.4,0.1-2.9,0.1-4.3,0.1c-1,0-2,0-2.8,0s-1.7,0-2.5-0.1c-0.8,0-1.6,0-2.4-0.1
		c-0.8,0-1.7,0-2.6,0c-1.1,0-2.4,0-3.9,0.1c-1.5,0-3.1,0.1-4.7,0.2c0.7-0.3,1.3-0.8,1.7-1.4c0.5-0.6,0.8-1.2,1.1-1.9
		c0.3-0.7,0.5-1.4,0.6-2.1c0.1-0.7,0.2-1.5,0.3-2.2c0.1-0.7,0.1-1.3,0.1-1.9c0-0.6,0-1.1,0-1.5c-0.1-1.6-0.4-3.1-0.8-4.5
		c-0.2-0.6-0.4-1.2-0.6-1.8s-0.5-1.2-0.9-1.8c-0.3-0.6-0.7-1.1-1.2-1.5c-0.4-0.5-0.9-0.8-1.5-1.1c1.4,0.2,3,0.3,4.7,0.3
		c1.7,0.1,3.5,0.1,5.2,0.1c1.3,0,2.6,0,3.8,0c1.2,0,2.3-0.1,3.3-0.1c0.9,0,1.7-0.1,2.3-0.1c0.6,0,0.9-0.1,0.9-0.1
		c-0.3,0.7-0.6,1.4-0.8,2c-0.2,0.6-0.4,1.2-0.5,1.7c-0.1,0.5-0.2,1.1-0.2,1.5c0,0.5-0.1,1-0.1,1.4c0,0.5,0,0.9,0,1.3
		c0,0.4,0.1,0.8,0.1,1.3c0.6-0.2,1.2-0.5,1.7-0.8c0.5-0.3,1-0.7,1.3-1.2c0.4-0.5,0.6-1.1,0.8-1.8c0.2-0.7,0.3-1.6,0.3-2.7
		c0-0.3,0-0.5-0.1-0.8s-0.1-0.5-0.1-0.7c-0.1-0.2-0.1-0.5-0.2-0.8c-0.1-0.3-0.2-0.5-0.3-0.8c0.6,0.1,1.5,0.2,2.5,0.2
		c0.9,0.1,2.1,0.1,3.5,0.2c1.4,0.1,3.2,0.1,5.3,0.1c1.1,0,2.3,0,3.5,0c1.3,0,2.6,0,4.1-0.1C205.6,503.6,205.1,503.7,204.7,503.9z
		 M183.6,516.5c0,0.1,0,0.3,0,0.4c0,0.2,0,0.5,0.1,0.9c0.1,0.4,0.2,0.8,0.5,1.2c0.2,0.4,0.6,0.7,1,1c0.4,0.3,1,0.4,1.7,0.4
		c0.5,0,1-0.1,1.4-0.3c0.4-0.2,0.6-0.4,0.6-0.8c0-0.3-0.2-0.6-0.5-1c-0.4-0.3-0.8-0.6-1.3-0.9s-1.1-0.5-1.7-0.8
		c-0.6-0.2-1.2-0.4-1.7-0.6C183.6,516.2,183.6,516.4,183.6,516.5z"/>
	<path class="st27" d="M242,524.7c-1.6,0-3.1-0.1-4.7-0.1c-1.6,0-3.2,0-4.7,0.1c-1.6,0-3.1,0.1-4.7,0.2c0.5-1.7,0.8-3.4,0.8-5.1
		c0-1.5-0.2-3-0.6-4.5c-0.4-1.5-1-3-1.9-4.5c-1,1.7-1.8,3.5-2.3,5.3c-0.5,1.8-0.8,3.6-0.8,5.5c0,0.6,0,1.1,0.1,1.7
		c0,0.6,0.1,1.1,0.2,1.7c-1.9-0.2-3.8-0.3-5.8-0.4c-1.9-0.1-3.9-0.1-5.8-0.1c-1.4,0-2.7,0-4,0.1s-2.7,0.1-4,0.2
		c1.7-1.7,3.2-3.5,4.5-5.2c1.3-1.7,2.5-3.5,3.6-5.3c1-1.8,1.9-3.5,2.7-5.3c0.8-1.8,1.4-3.5,2-5.3c1.9,0.1,3.8,0.2,5.9,0.2
		c2.1,0.1,4.2,0.1,6.3,0.1c1.3,0,2.6,0,3.9,0c1.3,0,2.5,0,3.7-0.1c0.5,1.8,1.1,3.5,1.7,5.3c0.6,1.8,1.4,3.5,2.2,5.3
		c0.8,1.8,1.8,3.5,2.9,5.3c1.1,1.8,2.3,3.5,3.7,5.3C245.1,524.8,243.5,524.8,242,524.7z"/>
	<path class="st27" d="M266.3,506.7c-0.4,1-0.7,2-1,3c-0.3,1-0.4,2.1-0.6,3.1c-0.1,1-0.2,2.1-0.2,3.1c0,0.9,0,1.7,0.1,2.6
		c0.1,0.8,0.2,1.6,0.4,2.4c0.2,0.8,0.3,1.5,0.5,2.1c0.2,0.7,0.4,1.3,0.7,1.8c-0.5,0-1.1-0.1-1.7-0.1c-0.6,0-1.3,0-2.1-0.1
		c-0.8,0-1.7,0-2.7,0c-1.5,0-3.3,0-5.2,0.1c-1.9,0.1-4,0.2-6.3,0.3c0.3-0.2,0.5-0.6,0.8-1c0.2-0.4,0.4-0.9,0.6-1.4
		c0.2-0.5,0.3-1.1,0.4-1.7c0.1-0.6,0.2-1.2,0.3-1.8c0.1-0.6,0.1-1.1,0.2-1.7c0-0.5,0.1-1,0.1-1.4c0-0.4,0-0.8,0.1-1
		c0-0.3,0-0.4,0-0.5c0-0.2,0-0.5,0-1c0-0.5-0.1-1.1-0.1-1.8c-0.1-0.7-0.2-1.4-0.3-2.2c-0.1-0.8-0.3-1.6-0.6-2.3
		c-0.2-0.8-0.5-1.5-0.9-2.2c-0.4-0.7-0.8-1.2-1.3-1.7c2.8,0.2,5.4,0.3,7.8,0.4c2.4,0.1,4.5,0.1,6.4,0.1c0.9,0,1.8,0,2.5,0
		c0.7,0,1.3,0,1.9,0c0.6,0,1.1,0,1.6-0.1C267.2,504.7,266.7,505.7,266.3,506.7z"/>
	<path class="st27" d="M306.5,520.5c-0.2,0.5-0.5,0.9-0.9,1.4c-0.4,0.5-1,0.9-1.8,1.3c-0.7,0.4-1.7,0.8-2.8,1.1s-2.4,0.6-3.9,0.8
		c-1.5,0.2-3.3,0.3-5.2,0.3c-2.2,0-4.3-0.2-6.2-0.5c-1.9-0.3-3.7-0.8-5.3-1.4s-3.1-1.3-4.3-2c-1.3-0.8-2.4-1.6-3.2-2.5
		c-0.9-0.9-1.6-1.8-2-2.8s-0.7-1.9-0.7-2.9c0-0.9,0.2-1.7,0.5-2.6c0.4-0.8,0.9-1.6,1.6-2.4c0.7-0.8,1.6-1.5,2.6-2.1
		c1-0.6,2.2-1.2,3.6-1.7c1.4-0.5,2.9-0.8,4.6-1.1c1.7-0.3,3.5-0.4,5.4-0.4c2.7,0,5.1,0.2,7.2,0.7c2.2,0.4,4,1,5.5,1.7
		c1.5,0.7,2.7,1.5,3.5,2.5c0.8,0.9,1.2,1.9,1.2,2.9c0,0.7-0.2,1.4-0.6,2.1c-0.4,0.7-1,1.2-1.8,1.7c-0.3-0.7-0.8-1.2-1.5-1.7
		c-0.7-0.4-1.5-0.8-2.4-1s-1.8-0.4-2.7-0.5c-0.9-0.1-1.6-0.1-2.2-0.1c-0.5,0-1,0-1.5,0.1c-0.6,0-1.2,0.1-1.8,0.2
		c-0.6,0.1-1.2,0.3-1.8,0.5c-0.6,0.2-1.1,0.5-1.6,0.8c-0.5,0.3-0.8,0.7-1.1,1.2c-0.3,0.5-0.4,1-0.4,1.6c0,0.9,0.2,1.7,0.5,2.3
		c0.3,0.6,0.7,1.1,1.2,1.6c0.5,0.4,1,0.8,1.6,1s1.2,0.4,1.7,0.5c0.6,0.1,1.1,0.2,1.5,0.2c0.5,0,0.8,0,1.1,0c0.5,0,0.8,0,1.1-0.1
		c0.3-0.1,0.6-0.1,0.8-0.2c0.2-0.1,0.3-0.2,0.4-0.3c0.1-0.1,0.1-0.2,0.1-0.3c0-0.2-0.2-0.4-0.5-0.6c-0.3-0.2-0.8-0.2-1.5-0.2
		c-0.3,0-0.6,0-0.9,0.1c-0.2,0-0.5,0.1-0.7,0.2c-0.2,0.1-0.4,0.3-0.5,0.5c-0.5-0.3-0.9-0.6-1.1-1c-0.2-0.4-0.4-0.8-0.4-1.2
		c0-0.4,0.1-0.8,0.4-1.2s0.7-0.7,1.2-1c0.6-0.3,1.3-0.5,2.1-0.7c0.9-0.2,1.9-0.3,3.1-0.3c1.4,0,2.6,0.1,3.7,0.4c1.1,0.3,2,0.6,2.8,1
		c0.8,0.4,1.3,0.9,1.7,1.4c0.4,0.5,0.6,1,0.6,1.5C306.8,519.6,306.7,520,306.5,520.5z"/>
	<path class="st27" d="M339.6,511.7c-0.5-0.4-1.1-0.8-1.9-1.1s-1.7-0.7-2.6-1s-2-0.5-3-0.7c-1-0.2-2-0.3-2.9-0.3
		c-0.6,0-1.1,0-1.7,0.1c-0.5,0.1-1,0.2-1.4,0.4c-0.4,0.2-0.7,0.4-0.9,0.8s-0.4,0.7-0.4,1.1c0,0.6,0.4,1.1,1.1,1.5s1.8,0.6,3.3,0.6
		c0.1,0,0.4,0,0.8,0s0.8-0.1,1.3-0.2c0.5-0.1,0.9-0.3,1.4-0.5c0.5-0.2,0.9-0.5,1.3-0.9v5.9c-0.4-0.2-0.8-0.5-1.3-0.6
		c-0.4-0.2-0.8-0.3-1.4-0.4c-0.5-0.1-1.1-0.2-1.8-0.2c-0.8,0-1.5,0.1-2,0.2c-0.6,0.1-1,0.3-1.4,0.5c-0.4,0.2-0.6,0.4-0.8,0.7
		c-0.2,0.3-0.3,0.5-0.3,0.8c0,0.2,0.1,0.5,0.2,0.7c0.1,0.2,0.4,0.5,0.8,0.6c0.4,0.2,0.9,0.3,1.7,0.5c0.7,0.1,1.6,0.2,2.8,0.2
		c0.9,0,2-0.1,3-0.3c0.9-0.1,2-0.3,3.2-0.6s2.4-0.7,3.8-1.2v6.8c-1.5-0.1-3.2-0.2-5.1-0.3c-1.6-0.1-3.5-0.1-5.6-0.2
		c-2.1-0.1-4.4-0.1-6.9-0.1c-2,0-4.1,0-6.2,0.1c-2.1,0.1-4.3,0.2-6.5,0.3c0.3-0.3,0.5-0.6,0.8-1c0.2-0.4,0.4-0.9,0.6-1.4
		c0.2-0.5,0.3-1.1,0.4-1.7c0.1-0.6,0.2-1.2,0.3-1.8c0.1-0.6,0.1-1.1,0.2-1.7c0-0.5,0.1-1,0.1-1.4c0-0.4,0-0.8,0.1-1
		c0-0.3,0-0.4,0-0.5c0-0.2,0-0.5,0-1c0-0.5-0.1-1.1-0.1-1.7c-0.1-0.7-0.2-1.4-0.3-2.2c-0.1-0.8-0.3-1.5-0.6-2.3s-0.5-1.5-0.9-2.1
		s-0.8-1.2-1.3-1.7c1.4,0.1,2.8,0.2,4.2,0.3c1.4,0.1,2.8,0.1,4.2,0.2c1.4,0,2.6,0.1,3.8,0.1c1.2,0,2.2,0,3.1,0c1.8,0,3.5,0,5,0
		s3,0,4.4-0.1c1.4,0,2.7-0.1,3.9-0.1c1.2-0.1,2.4-0.1,3.6-0.2L339.6,511.7z"/>
	<path class="st27" d="M390,506.9c-0.5,1-0.8,2.1-1.1,3.1c-0.3,1.1-0.5,2.1-0.6,3.1c-0.1,1-0.2,2-0.2,3c0,0.8,0,1.5,0.1,2.2
		s0.2,1.4,0.4,2.1c2.2-0.8,4.3-1.8,6.3-2.9c2-1.2,3.8-2.4,5.4-3.8L399,525c-2.9-0.2-6.1-0.4-9.5-0.5s-6.9-0.2-10.5-0.2
		c-2.5,0-4.9,0-7.2,0.1s-4.6,0.1-6.7,0.2l-0.8-11.2c0.6,0.5,1.4,1.1,2.2,1.6c0.8,0.6,1.8,1.1,2.7,1.6s2,1.1,3,1.6
		c1,0.5,2.1,1,3.2,1.4c0.1-0.7,0.2-1.4,0.3-2s0.1-1.2,0.2-1.6c0-0.5,0.1-1,0.1-1.5c0-1.1-0.2-2.2-0.4-3.4c-0.2-1-0.5-2.2-0.9-3.6
		c-0.4-1.3-1-2.7-1.8-4.2c2.3,0.1,4.5,0.2,6.6,0.3c2.1,0.1,4,0.1,5.6,0.1c1,0,1.9,0,2.7,0c0.8,0,1.5,0,2.1,0c0.7,0,1.3,0,1.8-0.1
		C391,504.8,390.5,505.8,390,506.9z"/>
	<path class="st27" d="M437.2,508.7c-1.3,1.7-2.4,3.5-3.4,5.2c-1,1.8-1.8,3.6-2.5,5.4c-0.7,1.8-1.1,3.6-1.2,5.5
		c-1.4-0.1-3-0.2-4.7-0.2c-1.7,0-3.4-0.1-5.2-0.1c-2.1,0-4.1,0-6.1,0.1c-2,0-3.8,0.1-5.5,0.2c-0.2-1.9-0.6-3.7-1-5.5
		c-0.5-1.8-1.1-3.5-1.8-5.3c-0.7-1.7-1.6-3.5-2.7-5.2c-1-1.7-2.3-3.5-3.7-5.2c1.6,0.1,3.2,0.1,4.7,0.2s3,0.1,4.5,0.1s3,0,4.5-0.1
		c1.5,0,3-0.1,4.6-0.2c-0.1,0.2-0.2,0.4-0.3,0.5c-0.2,0.2-0.3,0.4-0.5,0.6s-0.3,0.5-0.4,0.8c-0.1,0.3-0.2,0.7-0.2,1.1
		c0,0.4,0.1,0.9,0.2,1.2c0.1,0.4,0.3,0.7,0.6,1s0.7,0.5,1.1,0.7c0.5,0.2,1,0.3,1.7,0.3c0.6,0,1.1-0.1,1.6-0.3
		c0.5-0.2,0.9-0.5,1.2-0.8s0.6-0.7,0.7-1.1c0.2-0.4,0.2-0.9,0.2-1.3c0-0.5,0-0.8-0.1-1.1c-0.1-0.3-0.2-0.5-0.3-0.8
		c-0.1-0.2-0.3-0.4-0.5-0.6c-0.2-0.2-0.3-0.4-0.5-0.6c3.8,0.3,7.4,0.5,11,0.5c1.3,0,2.6,0,3.9,0s2.6-0.1,4-0.2
		C439.8,505.3,438.5,507,437.2,508.7z M421.5,513.8c-0.5-0.3-1.1-0.4-1.8-0.4c-0.7,0-1.2,0.1-1.8,0.4c-0.5,0.3-0.8,0.6-0.8,1.1
		c0,0.2,0.1,0.5,0.2,0.7c0.1,0.3,0.3,0.6,0.5,0.9c0.2,0.3,0.4,0.7,0.6,1.1c0.2,0.4,0.4,0.8,0.6,1.4c0.8-0.8,1.4-1.5,1.8-2
		c0.4-0.5,0.7-0.9,0.9-1.2c0.2-0.4,0.4-0.6,0.4-0.8C422.2,514.5,421.9,514.1,421.5,513.8z"/>
	<path class="st27" d="M479.7,503.9c-0.4,0.2-0.7,0.4-1,0.6c-0.3,0.2-0.6,0.5-0.8,0.8c-0.2,0.3-0.4,0.5-0.5,0.8
		c-0.3,0.6-0.6,1.3-0.6,2c0,0.7-0.1,1.3-0.1,2s-0.2,1.2-0.6,1.7c-0.4,0.5-1,1-1.8,1.4c-0.8,0.4-2,0.8-3.6,1.1
		c1.4,0.3,2.5,0.7,3.4,1.1c0.9,0.4,1.7,0.8,2.3,1.2c0.6,0.4,1,0.9,1.3,1.3c0.3,0.4,0.4,0.9,0.4,1.3c0,0.8-0.2,1.5-0.7,2.1
		c-0.5,0.6-1.1,1.1-2,1.5s-1.8,0.8-3,1.1c-1.1,0.3-2.4,0.5-3.7,0.7c-1.3,0.2-2.7,0.3-4.1,0.3c-1.4,0.1-2.9,0.1-4.3,0.1
		c-1,0-2,0-2.8,0c-0.9,0-1.7,0-2.5-0.1s-1.6,0-2.4-0.1c-0.8,0-1.7,0-2.6,0c-1.1,0-2.4,0-3.9,0.1c-1.5,0-3.1,0.1-4.7,0.2
		c0.7-0.3,1.3-0.8,1.7-1.4s0.8-1.2,1.1-1.9c0.3-0.7,0.5-1.4,0.6-2.1c0.1-0.7,0.2-1.5,0.3-2.2c0.1-0.7,0.1-1.3,0.1-1.9
		c0-0.6,0-1.1,0-1.5c-0.1-1.6-0.4-3.1-0.8-4.5c-0.2-0.6-0.4-1.2-0.6-1.8c-0.2-0.6-0.5-1.2-0.9-1.8c-0.3-0.6-0.7-1.1-1.2-1.5
		c-0.4-0.5-0.9-0.8-1.5-1.1c1.4,0.2,3,0.3,4.7,0.3c1.7,0.1,3.5,0.1,5.2,0.1c1.3,0,2.6,0,3.8,0c1.2,0,2.3-0.1,3.3-0.1
		c0.9,0,1.7-0.1,2.3-0.1s0.9-0.1,0.9-0.1c-0.3,0.7-0.6,1.4-0.8,2s-0.4,1.2-0.5,1.7c-0.1,0.5-0.2,1.1-0.2,1.5c0,0.5-0.1,1-0.1,1.4
		c0,0.5,0,0.9,0,1.3c0,0.4,0.1,0.8,0.1,1.3c0.6-0.2,1.2-0.5,1.7-0.8c0.5-0.3,1-0.7,1.3-1.2c0.4-0.5,0.6-1.1,0.8-1.8
		c0.2-0.7,0.3-1.6,0.3-2.7c0-0.3,0-0.5-0.1-0.8c0-0.2-0.1-0.5-0.1-0.7c-0.1-0.2-0.1-0.5-0.2-0.8c-0.1-0.3-0.2-0.5-0.3-0.8
		c0.6,0.1,1.5,0.2,2.5,0.2c0.9,0.1,2.1,0.1,3.5,0.2s3.2,0.1,5.3,0.1c1.1,0,2.3,0,3.5,0c1.3,0,2.6,0,4.1-0.1
		C480.5,503.6,480.1,503.7,479.7,503.9z M458.5,516.5c0,0.1,0,0.3,0,0.4c0,0.2,0,0.5,0.1,0.9s0.2,0.8,0.5,1.2c0.2,0.4,0.6,0.7,1,1
		c0.4,0.3,1,0.4,1.7,0.4c0.5,0,1-0.1,1.4-0.3c0.4-0.2,0.6-0.4,0.6-0.8c0-0.3-0.2-0.6-0.5-1s-0.8-0.6-1.3-0.9
		c-0.5-0.3-1.1-0.5-1.7-0.8c-0.6-0.2-1.2-0.4-1.7-0.6C458.6,516.2,458.5,516.4,458.5,516.5z"/>
	<path class="st27" d="M501.1,506.7c-0.4,1-0.7,2-1,3c-0.3,1-0.4,2.1-0.6,3.1c-0.1,1-0.2,2.1-0.2,3.1c0,0.9,0,1.7,0.1,2.6
		c0.1,0.8,0.2,1.6,0.4,2.4c0.2,0.8,0.3,1.5,0.5,2.1c0.2,0.7,0.4,1.3,0.7,1.8c-0.5,0-1.1-0.1-1.7-0.1c-0.6,0-1.3,0-2.1-0.1
		c-0.8,0-1.7,0-2.7,0c-1.5,0-3.3,0-5.2,0.1c-1.9,0.1-4,0.2-6.3,0.3c0.3-0.2,0.5-0.6,0.8-1c0.2-0.4,0.4-0.9,0.6-1.4
		c0.2-0.5,0.3-1.1,0.4-1.7c0.1-0.6,0.2-1.2,0.3-1.8c0.1-0.6,0.1-1.1,0.2-1.7s0.1-1,0.1-1.4c0-0.4,0-0.8,0.1-1c0-0.3,0-0.4,0-0.5
		c0-0.2,0-0.5,0-1c0-0.5-0.1-1.1-0.1-1.8c-0.1-0.7-0.2-1.4-0.3-2.2c-0.1-0.8-0.3-1.6-0.6-2.3c-0.2-0.8-0.5-1.5-0.9-2.2
		c-0.4-0.7-0.8-1.2-1.3-1.7c2.8,0.2,5.4,0.3,7.8,0.4c2.4,0.1,4.5,0.1,6.4,0.1c0.9,0,1.8,0,2.5,0s1.3,0,1.9,0c0.6,0,1.1,0,1.6-0.1
		C502,504.7,501.5,505.7,501.1,506.7z"/>
	<path class="st27" d="M537.7,525.1c-1.7-0.1-3.5-0.3-5.5-0.4c-1.7-0.1-3.7-0.2-5.9-0.3s-4.6-0.1-7.1-0.1c-2.2,0-4.4,0-6.6,0.1
		c-2.2,0.1-4.4,0.2-6.6,0.4c0.3-0.3,0.5-0.6,0.8-1c0.2-0.4,0.4-0.9,0.6-1.4s0.3-1.1,0.4-1.7s0.2-1.2,0.3-1.8
		c0.1-0.6,0.1-1.1,0.2-1.7c0-0.5,0.1-1,0.1-1.4c0-0.4,0-0.8,0.1-1s0-0.4,0-0.5c0-0.2,0-0.5,0-1c0-0.5-0.1-1.1-0.1-1.8
		c-0.1-0.7-0.2-1.4-0.3-2.2c-0.1-0.8-0.3-1.6-0.6-2.3c-0.2-0.8-0.5-1.5-0.9-2.1c-0.4-0.7-0.8-1.2-1.3-1.7c1.1,0.2,2.4,0.3,3.6,0.4
		c1.3,0.1,2.5,0.2,3.8,0.2c1.2,0.1,2.5,0.1,3.7,0.1c1.2,0,2.3,0,3.3,0c0.9,0,1.6,0,2.3,0c0.7,0,1.3,0,1.8,0c0.6,0,1.1,0,1.6,0
		c-0.5,0.4-0.9,0.8-1.3,1.2c-0.4,0.4-0.7,0.8-0.9,1.2s-0.5,0.8-0.7,1.2s-0.3,0.7-0.4,1.1c-0.3,0.8-0.4,1.6-0.5,2.3
		c0,0.3,0.1,0.6,0.2,0.9c0.1,0.3,0.3,0.5,0.6,0.7c0.3,0.2,0.7,0.3,1.1,0.4c0.5,0.1,1.1,0.2,1.8,0.2c0.1,0,0.4,0,0.8,0
		c0.4,0,0.8-0.1,1.4-0.2c0.5-0.1,1-0.3,1.6-0.5c0.6-0.2,1.1-0.5,1.6-0.9v5.9c-0.6-0.3-1.2-0.6-1.7-0.8c-0.6-0.2-1.1-0.3-1.6-0.4
		c-0.5-0.1-0.9-0.1-1.2-0.1c-0.3,0-0.5,0-0.5,0c-0.8,0-1.4,0.1-1.9,0.2c-0.5,0.1-0.9,0.3-1.2,0.5c-0.3,0.2-0.5,0.4-0.6,0.7
		s-0.2,0.5-0.2,0.7c0,0.2,0.1,0.5,0.2,0.7s0.4,0.5,0.8,0.6c0.4,0.2,0.9,0.3,1.6,0.5c0.7,0.1,1.6,0.2,2.7,0.2c0.1,0,0.5,0,1.2,0
		c0.7,0,1.6-0.1,2.6-0.2c1-0.1,2.2-0.3,3.4-0.6c1.2-0.3,2.4-0.7,3.5-1.2V525.1z"/>
	<path class="st27" d="M572,525.1c-1.7-0.1-3.5-0.3-5.5-0.4c-1.7-0.1-3.7-0.2-5.9-0.3s-4.6-0.1-7.1-0.1c-2.2,0-4.4,0-6.6,0.1
		c-2.2,0.1-4.4,0.2-6.6,0.4c0.3-0.3,0.5-0.6,0.8-1c0.2-0.4,0.4-0.9,0.6-1.4s0.3-1.1,0.4-1.7s0.2-1.2,0.3-1.8
		c0.1-0.6,0.1-1.1,0.2-1.7c0-0.5,0.1-1,0.1-1.4c0-0.4,0-0.8,0.1-1s0-0.4,0-0.5c0-0.2,0-0.5,0-1c0-0.5-0.1-1.1-0.1-1.8
		c-0.1-0.7-0.2-1.4-0.3-2.2c-0.1-0.8-0.3-1.6-0.6-2.3c-0.2-0.8-0.5-1.5-0.9-2.1c-0.4-0.7-0.8-1.2-1.3-1.7c1.1,0.2,2.4,0.3,3.6,0.4
		c1.3,0.1,2.5,0.2,3.8,0.2c1.2,0.1,2.5,0.1,3.7,0.1c1.2,0,2.3,0,3.3,0c0.9,0,1.6,0,2.3,0c0.7,0,1.3,0,1.8,0c0.6,0,1.1,0,1.6,0
		c-0.5,0.4-0.9,0.8-1.3,1.2c-0.4,0.4-0.7,0.8-0.9,1.2s-0.5,0.8-0.7,1.2s-0.3,0.7-0.4,1.1c-0.3,0.8-0.4,1.6-0.5,2.3
		c0,0.3,0.1,0.6,0.2,0.9c0.1,0.3,0.3,0.5,0.6,0.7c0.3,0.2,0.7,0.3,1.1,0.4c0.5,0.1,1.1,0.2,1.8,0.2c0.1,0,0.4,0,0.8,0
		c0.4,0,0.8-0.1,1.4-0.2c0.5-0.1,1-0.3,1.6-0.5c0.6-0.2,1.1-0.5,1.6-0.9v5.9c-0.6-0.3-1.2-0.6-1.7-0.8c-0.6-0.2-1.1-0.3-1.6-0.4
		c-0.5-0.1-0.9-0.1-1.2-0.1c-0.3,0-0.5,0-0.5,0c-0.8,0-1.4,0.1-1.9,0.2c-0.5,0.1-0.9,0.3-1.2,0.5c-0.3,0.2-0.5,0.4-0.6,0.7
		s-0.2,0.5-0.2,0.7c0,0.2,0.1,0.5,0.2,0.7s0.4,0.5,0.8,0.6c0.4,0.2,0.9,0.3,1.6,0.5c0.7,0.1,1.6,0.2,2.7,0.2c0.1,0,0.5,0,1.2,0
		c0.7,0,1.6-0.1,2.6-0.2c1-0.1,2.2-0.3,3.4-0.6c1.2-0.3,2.4-0.7,3.5-1.2V525.1z"/>
	<path class="st27" d="M608,522.2c-0.6,0.6-1.5,1.1-2.8,1.6c-1.3,0.5-2.9,0.9-5,1.2c-2.1,0.3-4.6,0.5-7.5,0.5
		c-2.9,0-5.5-0.2-7.8-0.5s-4.2-0.8-5.8-1.4s-2.8-1.3-3.6-2.1c-0.8-0.8-1.3-1.7-1.3-2.6c0-0.8,0.2-1.4,0.6-2c0.4-0.5,0.9-1,1.7-1.4
		c0.7-0.4,1.6-0.8,2.7-1.1c1-0.3,2.2-0.6,3.5-0.9c1.3-0.3,2.7-0.6,4.3-1c1.6-0.3,3.2-0.7,5-1.2c0.9-0.3,1.6-0.6,2.1-0.9
		c0.5-0.4,0.7-0.7,0.7-1c0-0.2-0.1-0.3-0.2-0.5c-0.2-0.2-0.4-0.3-0.7-0.5c-0.3-0.1-0.6-0.2-1-0.3c-0.4-0.1-0.8-0.1-1.3-0.1
		c-0.4,0-0.8,0-1.2,0.1s-0.7,0.1-1,0.2c-0.3,0.1-0.5,0.2-0.7,0.4c-0.2,0.1-0.3,0.3-0.3,0.5c0,0.3,0.2,0.5,0.5,0.7
		c0.4,0.2,0.8,0.2,1.5,0.2c0.4,0,0.8,0,1.3-0.1c-0.4,0.3-0.9,0.6-1.5,0.8s-1.4,0.5-2.2,0.6c-0.8,0.2-1.7,0.3-2.6,0.4
		s-1.8,0.1-2.8,0.1c-1.2,0-2.4-0.1-3.4-0.2c-1.1-0.1-2-0.4-2.8-0.7c-0.8-0.3-1.4-0.7-1.9-1.1s-0.7-1-0.7-1.6c0-0.8,0.5-1.6,1.4-2.3
		c0.9-0.7,2.2-1.3,3.8-1.8c1.6-0.5,3.4-0.9,5.5-1.2c2.1-0.3,4.3-0.4,6.6-0.4c2.6,0,5,0.2,7.4,0.5c2.4,0.4,4.4,0.9,6.2,1.5
		c1.8,0.7,3.2,1.5,4.3,2.4s1.6,2,1.6,3.1c0,0.8-0.2,1.5-0.7,2.1c-0.5,0.6-1.1,1.1-2,1.6c-0.8,0.4-1.8,0.8-2.9,1.2s-2.3,0.6-3.5,0.9
		s-2.5,0.5-3.8,0.7c-1.3,0.2-2.6,0.4-3.8,0.7c-0.8,0.1-1.5,0.3-2.2,0.5c-0.7,0.2-1.2,0.4-1.7,0.7c-0.5,0.3-0.9,0.5-1.1,0.8
		c-0.3,0.3-0.4,0.6-0.4,0.9c0,0.3,0.1,0.6,0.4,0.8s0.6,0.4,1,0.6c0.4,0.2,0.8,0.3,1.3,0.3c0.5,0.1,0.9,0.1,1.4,0.1
		c0.7,0,1.2,0,1.6-0.1c0.4-0.1,0.8-0.2,1-0.3c0.3-0.1,0.4-0.2,0.5-0.3c0.1-0.1,0.2-0.2,0.2-0.3c0-0.2-0.1-0.3-0.4-0.5
		c-0.3-0.1-0.7-0.2-1.3-0.2c-0.2,0-0.6,0-0.9,0.1c-0.4,0.1-0.7,0.2-0.9,0.4c0-0.1,0-0.3,0.1-0.5c0.1-0.2,0.2-0.4,0.4-0.7
		c0.2-0.2,0.5-0.5,0.8-0.8c0.4-0.3,0.9-0.5,1.5-0.7c0.6-0.2,1.4-0.4,2.3-0.5c0.9-0.1,2-0.2,3.3-0.2c1.2,0,2.3,0.1,3.3,0.2
		c1,0.2,1.9,0.4,2.6,0.7c0.7,0.3,1.3,0.6,1.7,1c0.4,0.4,0.6,0.8,0.6,1.3C608.9,521,608.6,521.6,608,522.2z"/>
</g>
<g>
	<path class="st28" d="M133.9,470.9c0,1.1-0.2,2.1-0.6,3c-0.4,0.9-1,1.7-1.7,2.3c-0.7,0.6-1.6,1.1-2.6,1.5c-1,0.4-2,0.5-3.2,0.5
		c-1.3,0-2.3-0.2-3.2-0.5c-0.9-0.3-1.6-0.7-2.3-1.2c-0.6-0.5-1.1-1-1.4-1.6c-0.4-0.6-0.6-1.2-0.8-1.7c-0.2-0.6-0.3-1.1-0.4-1.5
		c-0.1-0.5-0.1-0.8-0.1-1.1c0.3,0.4,0.6,0.7,0.9,0.8c0.4,0.1,0.7,0.2,0.9,0.2c0.6,0,1.1-0.2,1.3-0.5c0.3-0.3,0.4-0.7,0.4-1.1
		c0-0.2,0-0.5-0.1-0.8c-0.1-0.3-0.3-0.5-0.5-0.7c-0.3-0.2-0.6-0.4-1-0.6s-1-0.2-1.6-0.2c-0.4,0-0.9,0.1-1.4,0.2
		c-0.5,0.2-0.9,0.4-1.3,0.8c-0.4,0.3-0.7,0.8-0.9,1.3c-0.2,0.5-0.4,1.1-0.4,1.8c0,0.7,0.1,1.3,0.4,2c0.3,0.7,0.7,1.3,1.1,1.8
		c0.5,0.6,1,1.1,1.7,1.6c0.7,0.5,1.4,0.8,2.1,1.2c1.2,0.5,2.5,1,3.8,1.5c1.3,0.5,2.5,1,3.8,1.6c1.2,0.6,2.4,1.2,3.4,2s2,1.6,2.8,2.6
		c0.8,1,1.4,2.2,1.9,3.6c0.5,1.4,0.7,2.9,0.7,4.7c0,2.6-0.5,4.9-1.6,7.1c-1,2.1-2.4,4-4.2,5.5c-1.8,1.5-3.8,2.7-6.1,3.5
		c-2.3,0.8-4.7,1.2-7.2,1.2c-2.3,0-4.4-0.3-6.5-1s-3.9-1.6-5.4-2.8c-1.5-1.2-2.8-2.5-3.7-4.1c-0.9-1.6-1.4-3.3-1.4-5.1
		c0-1.3,0.2-2.5,0.7-3.5c0.4-1,1.1-1.9,1.8-2.5c0.8-0.7,1.7-1.2,2.7-1.5c1-0.3,2.2-0.5,3.4-0.5c0.9,0,1.8,0.1,2.7,0.3
		c0.9,0.2,1.7,0.5,2.5,0.9c0.8,0.4,1.5,0.9,2.1,1.4c0.6,0.6,1.1,1.2,1.5,1.9c-0.5-0.1-0.9-0.2-1.2-0.2c-0.6,0-1.1,0.2-1.4,0.5
		c-0.4,0.4-0.5,0.9-0.5,1.6c0,0.4,0.1,0.7,0.3,1c0.2,0.3,0.4,0.6,0.7,0.8c0.3,0.2,0.6,0.4,1,0.6c0.4,0.1,0.7,0.2,1.1,0.2
		c0.4,0,0.8-0.1,1.2-0.3c0.4-0.2,0.7-0.4,1-0.7c0.3-0.3,0.5-0.7,0.7-1c0.2-0.4,0.2-0.8,0.2-1.2c0-0.8-0.2-1.6-0.7-2.4
		c-0.5-0.8-1.2-1.5-2.1-2.1c-1.7-1.1-3.3-2-4.9-2.7s-2.9-1.5-4.2-2.2c-1.3-0.7-2.4-1.4-3.5-2.1c-1-0.7-1.9-1.5-2.6-2.4
		c-0.7-0.9-1.3-2-1.6-3.3c-0.4-1.2-0.6-2.8-0.6-4.5c0-2.1,0.4-4.1,1.2-6c0.8-1.9,2-3.5,3.6-4.8c1.6-1.4,3.5-2.5,5.7-3.3
		c2.3-0.8,4.8-1.2,7.7-1.2c2.9,0,5.3,0.3,7.3,1c2,0.7,3.6,1.6,4.9,2.7s2.2,2.3,2.7,3.7C133.6,468.3,133.9,469.6,133.9,470.9z"/>
	<path class="st28" d="M169.4,509.2c-1.1-0.2-2.3-0.4-3.5-0.5s-2.5-0.2-3.8-0.3c-1.3-0.1-2.8-0.1-4.3-0.1c-1.5,0-3.1,0-4.9,0
		c-0.8,0-1.8,0-3,0c-1.2,0-2.4,0.1-3.7,0.2c-1.3,0.1-2.7,0.2-4.1,0.4c-1.4,0.2-2.8,0.4-4.1,0.6c0.5-1,0.9-2.2,1.3-3.8
		c0.4-1.5,0.6-3.1,0.9-4.8c0.2-1.7,0.4-3.4,0.5-5.2c0.1-1.8,0.2-3.4,0.3-4.9c0.1-1.5,0.1-2.8,0.1-4c0-1.1,0-1.9,0-2.3
		c0-0.1,0-0.4,0-1c0-0.6,0-1.4,0-2.3c0-0.9-0.1-2-0.1-3.3c0-1.2-0.1-2.5-0.2-3.8c-0.1-1.3-0.2-2.7-0.3-4c-0.1-1.3-0.3-2.6-0.4-3.8
		c-0.2-1.2-0.4-2.3-0.6-3.2c-0.2-1-0.5-1.7-0.7-2.3c2.2,0.3,4.3,0.5,6.4,0.7c2.1,0.1,4.1,0.2,6.1,0.2c2.4,0,4.7-0.1,6.8-0.2
		c2.1-0.1,3.9-0.3,5.5-0.5c1.8-0.2,3.5-0.4,5-0.7v15.5c-1.3-1.2-2.5-2.1-3.7-2.7c-1.2-0.6-2.2-1.1-3.1-1.4c-1.1-0.4-2.1-0.6-3-0.6
		c-1.1,0-2,0.1-2.7,0.4c-0.7,0.3-1.2,0.6-1.6,1.1c-0.4,0.4-0.6,0.9-0.8,1.5c-0.1,0.5-0.2,1.1-0.2,1.6c0,0.6,0.1,1.1,0.2,1.7
		c0.2,0.6,0.4,1.1,0.8,1.6c0.4,0.5,0.8,0.8,1.4,1.1c0.6,0.3,1.2,0.4,2,0.4c0.6,0,1.2-0.1,1.8-0.4c0.5-0.3,1-0.6,1.4-1
		c0.4-0.4,0.8-0.9,1.2-1.5V491c-0.4-0.8-0.8-1.5-1.2-2s-0.9-0.8-1.4-1.1c-0.5-0.2-0.9-0.4-1.2-0.4c-0.4-0.1-0.6-0.1-0.7-0.1
		c-1.4,0-2.5,0.4-3.2,1.3c-0.7,0.9-1.1,2-1.1,3.4c0,1,0.1,1.9,0.3,2.6c0.2,0.7,0.5,1.3,0.9,1.7c0.4,0.4,0.8,0.8,1.4,1
		c0.5,0.2,1.1,0.3,1.6,0.3c0.9,0,1.8-0.2,2.8-0.6c1-0.4,2-0.9,2.9-1.6c0.9-0.7,1.8-1.4,2.6-2.3c0.8-0.8,1.4-1.7,1.9-2.6L169.4,509.2
		z"/>
	<path class="st28" d="M211.1,509.2c-1.4-0.1-2.8-0.2-4-0.2c-1.2,0-2.4,0-3.5,0c-2.1,0-3.8,0.1-5.2,0.2c-1.4,0.1-2.5,0.2-3.4,0.4
		c-1,0.2-1.9,0.3-2.5,0.5c0.1-0.7,0.2-1.3,0.3-1.9s0.2-1.2,0.2-1.7c0.1-0.6,0.1-1.1,0.1-1.7s0-1.2,0-1.8c0-2.4-0.1-4.4-0.3-6.1
		c-0.2-1.6-0.5-3-0.8-4c-0.4-1.1-0.8-2-1.3-2.6c-0.5-0.7-1.1-1.3-1.7-1.8c0,1-0.1,2-0.1,2.9c0,0.9,0,1.9,0,2.9c0,1,0,2.1,0.1,3.2
		c0,1.1,0.1,2.3,0.2,3.5c0.1,1.2,0.3,2.6,0.5,4c0.2,1.4,0.5,2.9,0.8,4.6c0-0.1-0.3-0.2-0.9-0.3c-0.6-0.1-1.3-0.2-2.2-0.3
		s-2-0.2-3.2-0.2s-2.5-0.1-3.8-0.1c-1.7,0-3.4,0.1-5.1,0.2c-1.7,0.1-3.2,0.4-4.6,0.7c0.5-0.7,1-1.6,1.4-2.6c0.4-1,0.8-2.2,1.1-3.5
		s0.6-2.6,0.8-4c0.2-1.4,0.4-2.8,0.6-4.1c0.4-3.2,0.7-6.5,0.8-10.1c0-0.9,0-2,0-3.3c0-1.3,0-2.8-0.1-4.4c-0.1-1.6-0.1-3.2-0.3-4.9
		c-0.1-1.7-0.3-3.3-0.6-4.8c-0.3-1.5-0.6-3-1.1-4.2s-1-2.3-1.7-3.1c1.6,0.2,3.1,0.4,4.6,0.5c1.5,0.1,2.8,0.1,3.8,0.1
		c0.9,0,1.8,0,2.6-0.1c0.8,0,1.6-0.1,2.3-0.1c0.8,0,1.6-0.1,2.4-0.1c0.8,0,1.8-0.1,2.8-0.1c1.4,0,2.8,0.1,4.2,0.2
		c1.4,0.1,2.8,0.4,4.1,0.8s2.5,0.9,3.6,1.5c1.1,0.6,2.1,1.4,2.9,2.4c0.8,1,1.5,2.1,2,3.5c0.5,1.3,0.7,2.9,0.7,4.7c0,1-0.1,2-0.4,3
		c-0.3,1-0.7,2-1.2,2.9c-0.6,1-1.3,1.9-2.2,2.7s-2,1.7-3.4,2.4c1.6,0.6,2.8,1.4,3.6,2.4c0.8,0.9,1.4,2,1.7,3.2
		c0.4,1.2,0.5,2.5,0.6,4c0,1.4,0.1,2.9,0.1,4.5c0.1,1.7,0.3,3.2,0.6,4.6c0.1,0.6,0.3,1.2,0.5,1.8c0.2,0.6,0.5,1.2,0.8,1.7
		s0.6,1,1,1.4C210.2,508.7,210.6,509,211.1,509.2z M189.2,480.7c0.5-0.4,1-0.8,1.6-1.3c0.6-0.5,1.2-1.1,1.7-1.8
		c0.5-0.7,1-1.3,1.3-2.1s0.5-1.5,0.5-2.2c0-0.7-0.2-1.3-0.6-1.7c-0.4-0.4-0.9-0.7-1.4-0.7c-0.7,0-1.3,0.3-1.7,1
		c-0.4,0.7-0.7,1.4-1,2.3c-0.2,0.9-0.4,1.8-0.5,2.7c-0.1,0.9-0.1,1.6-0.1,2.1c0,0.3,0,0.5,0,0.8S189.1,480.4,189.2,480.7z"/>
	<path class="st28" d="M251,460.7c-1.4,4-2.6,7.9-3.6,11.9c-1.1,4-2,8-2.8,12c-0.8,4-1.6,8-2.2,12s-1.2,8-1.7,12
		c-1.1-0.1-2.3-0.2-3.6-0.2c-1.2,0-2.5,0-3.8,0c-2.1,0-4.1,0.1-6.1,0.2c-2,0.1-4,0.3-5.8,0.5c-0.6-4-1.2-8.1-2-12.1s-1.6-8-2.7-12
		c-1-4-2.2-8-3.5-11.9c-1.3-4-2.8-7.9-4.4-11.9c1.3,0.2,2.6,0.3,4,0.4c1.3,0.1,2.6,0.1,4,0.1c1.9,0,3.8-0.1,5.7-0.3
		c1.9-0.2,3.8-0.5,5.6-0.8c-0.1,1.3-0.2,2.6-0.2,3.9c0,1.3,0,2.5,0,3.8c0,4.2,0.3,8.4,0.8,12.4c0.5,4,1.3,8,2.3,11.9
		c0.8-3.4,1.5-6.8,1.9-10.2c0.4-3.4,0.6-6.7,0.6-10.1c0-3.9-0.3-7.8-0.8-11.7c1.5,0.2,3,0.3,4.6,0.4s3.1,0.1,4.6,0.1
		c1.5,0,3.1,0,4.6-0.1C247.8,461,249.4,460.9,251,460.7z"/>
	<path class="st28" d="M271.5,508.5c-0.5,0-1-0.1-1.6-0.1c-0.5,0-1.1-0.1-1.8-0.1c-0.7,0-1.5,0-2.4,0c-1.8,0-3.9,0.1-6.2,0.2
		c-2.4,0.2-4.9,0.5-7.7,0.9c0.5-1,0.9-2.3,1.3-3.8c0.4-1.5,0.6-3.1,0.9-4.9c0.2-1.7,0.4-3.5,0.5-5.3c0.1-1.8,0.2-3.5,0.3-5
		c0.1-1.5,0.1-2.9,0.1-4c0-1.1,0-1.9,0-2.3c0-0.1,0-0.4,0-1c0-0.6,0-1.4,0-2.3c0-0.9-0.1-2-0.1-3.3c0-1.2-0.1-2.5-0.2-3.8
		c-0.1-1.3-0.2-2.7-0.3-4c-0.1-1.3-0.3-2.6-0.4-3.8s-0.4-2.3-0.6-3.2c-0.2-1-0.5-1.7-0.7-2.3c2.2,0.4,4.3,0.7,6.1,0.8
		c1.9,0.1,3.5,0.2,5,0.2c1,0,1.9,0,2.7-0.1c0.8,0,1.5-0.1,2-0.1c0.6-0.1,1.2-0.1,1.7-0.2c-0.3,1.2-0.5,2.6-0.7,4.1
		c-0.2,1.5-0.4,3.1-0.5,4.8c-0.2,1.7-0.3,3.5-0.3,5.4c-0.1,1.9-0.1,3.8-0.1,5.8c0,2.3,0.1,4.6,0.2,7c0.1,2.4,0.3,4.7,0.5,7.1
		c0.3,2.3,0.6,4.6,1,6.9C270.4,504.3,270.9,506.5,271.5,508.5z"/>
	<path class="st28" d="M309.7,473.7c0,1.1-0.2,2.3-0.6,3.4c-0.4,1.2-1,2.2-1.7,3.1c-0.7,0.9-1.6,1.7-2.7,2.3s-2.3,0.9-3.6,0.9
		c-1.2,0-2.2-0.2-3.1-0.6c-0.9-0.4-1.5-1-2.1-1.6c-0.5-0.7-0.9-1.5-1.2-2.3s-0.4-1.8-0.4-2.7s0.1-1.8,0.3-2.7
		c0.2-0.9,0.6-1.6,1.1-2.3c0.1,0.5,0.3,0.8,0.5,1.1c0.2,0.3,0.5,0.4,0.7,0.5c0.3,0.1,0.6,0.2,0.9,0.2c0.7,0,1.2-0.2,1.5-0.6
		s0.4-0.8,0.4-1.3c0-0.2,0-0.4-0.1-0.7c-0.1-0.2-0.2-0.4-0.4-0.6c-0.2-0.2-0.4-0.4-0.7-0.5c-0.3-0.1-0.7-0.2-1.1-0.2
		c-0.2,0-0.6,0-1,0.1c-0.5,0.1-1,0.2-1.5,0.5c-0.6,0.3-1.1,0.7-1.7,1.2s-1.1,1.3-1.6,2.3c-0.5,0.9-0.9,2.1-1.2,3.5s-0.4,3.1-0.4,5.2
		c0,1.4,0.1,2.6,0.4,3.6c0.3,1,0.6,1.9,1.1,2.6c0.4,0.7,0.9,1.3,1.5,1.8c0.6,0.5,1.2,0.8,1.8,1.1s1.2,0.4,1.7,0.5
		c0.6,0.1,1.1,0.1,1.5,0.1c0.6,0,1.3-0.1,2.2-0.3c0.9-0.2,1.7-0.6,2.6-1.1s1.6-1.3,2.3-2.3c0.7-1,1.2-2.2,1.4-3.8
		c0.8,1.1,1.4,2.4,1.8,3.9c0.4,1.5,0.6,3.1,0.6,4.7c0,2.3-0.4,4.4-1.2,6.5c-0.8,2.1-2,4-3.4,5.6c-1.5,1.6-3.3,2.9-5.4,3.9
		c-2.1,1-4.5,1.5-7.1,1.5c-1.9,0-3.7-0.3-5.3-0.9c-1.6-0.6-3.1-1.5-4.5-2.5c-1.3-1.1-2.5-2.4-3.5-3.8c-1-1.5-1.9-3.1-2.6-4.8
		c-0.7-1.7-1.2-3.5-1.6-5.4c-0.4-1.9-0.5-3.8-0.5-5.8c0-2.2,0.2-4.3,0.7-6.5c0.5-2.2,1.1-4.3,2-6.3c0.9-2,1.9-3.9,3.2-5.7
		s2.7-3.3,4.3-4.6c1.6-1.3,3.3-2.4,5.2-3.1c1.9-0.8,3.9-1.1,6.1-1.1c1.9,0,3.7,0.2,5.1,0.7c1.5,0.5,2.8,1.1,3.8,1.8
		c1.1,0.8,2,1.6,2.7,2.6c0.7,1,1.3,2,1.7,3c0.4,1,0.7,2.1,0.9,3.1C309.6,471.8,309.7,472.8,309.7,473.7z"/>
	<path class="st28" d="M343.6,509.2c-1.1-0.2-2.3-0.4-3.5-0.5c-1.2-0.1-2.5-0.2-3.8-0.3c-1.3-0.1-2.8-0.1-4.3-0.1
		c-1.5,0-3.1,0-4.9,0c-0.8,0-1.8,0-3,0c-1.2,0-2.4,0.1-3.7,0.2c-1.3,0.1-2.7,0.2-4.1,0.4c-1.4,0.2-2.8,0.4-4.1,0.6
		c0.5-1,0.9-2.2,1.3-3.8c0.4-1.5,0.6-3.1,0.9-4.8c0.2-1.7,0.4-3.4,0.5-5.2c0.1-1.8,0.2-3.4,0.3-4.9c0.1-1.5,0.1-2.8,0.1-4
		c0-1.1,0-1.9,0-2.3c0-0.1,0-0.4,0-1c0-0.6,0-1.4,0-2.3c0-0.9-0.1-2-0.1-3.3c0-1.2-0.1-2.5-0.2-3.8c-0.1-1.3-0.2-2.7-0.3-4
		c-0.1-1.3-0.3-2.6-0.4-3.8c-0.2-1.2-0.4-2.3-0.6-3.2c-0.2-1-0.5-1.7-0.7-2.3c2.2,0.3,4.3,0.5,6.4,0.7c2.1,0.1,4.1,0.2,6.1,0.2
		c2.4,0,4.7-0.1,6.8-0.2c2.1-0.1,3.9-0.3,5.5-0.5c1.8-0.2,3.5-0.4,5-0.7v15.5c-1.3-1.2-2.5-2.1-3.7-2.7c-1.2-0.6-2.2-1.1-3.1-1.4
		c-1.1-0.4-2.1-0.6-3-0.6c-1.1,0-2,0.1-2.7,0.4c-0.7,0.3-1.2,0.6-1.6,1.1c-0.4,0.4-0.6,0.9-0.8,1.5c-0.1,0.5-0.2,1.1-0.2,1.6
		c0,0.6,0.1,1.1,0.2,1.7c0.2,0.6,0.4,1.1,0.8,1.6c0.4,0.5,0.8,0.8,1.4,1.1c0.6,0.3,1.2,0.4,2,0.4c0.6,0,1.2-0.1,1.8-0.4
		c0.5-0.3,1-0.6,1.4-1c0.4-0.4,0.8-0.9,1.2-1.5V491c-0.4-0.8-0.8-1.5-1.2-2s-0.9-0.8-1.4-1.1c-0.5-0.2-0.9-0.4-1.2-0.4
		c-0.4-0.1-0.6-0.1-0.7-0.1c-1.4,0-2.5,0.4-3.2,1.3c-0.7,0.9-1.1,2-1.1,3.4c0,1,0.1,1.9,0.3,2.6c0.2,0.7,0.5,1.3,0.9,1.7
		c0.4,0.4,0.8,0.8,1.4,1c0.5,0.2,1.1,0.3,1.6,0.3c0.9,0,1.8-0.2,2.8-0.6c1-0.4,2-0.9,2.9-1.6s1.8-1.4,2.6-2.3
		c0.8-0.8,1.4-1.7,1.9-2.6L343.6,509.2z"/>
	<path class="st28" d="M392.7,508.6c-0.5,0-1.1-0.1-1.8-0.1c-0.6,0-1.2-0.1-2-0.1c-0.8,0-1.6,0-2.6,0c-1.6,0-3.5,0.1-5.5,0.2
		c-2,0.1-4.2,0.3-6.5,0.7c0.8-3.3,1.4-6.4,1.8-9.4c0.4-3,0.7-5.7,0.9-8.1c0.2-2.8,0.4-5.4,0.4-7.8c0-1,0-2.2-0.1-3.4
		c0-1.1-0.1-2.3-0.2-3.7c-0.1-1.4-0.2-2.9-0.3-4.6c-1,1-2.1,2.1-3.1,3.2c-1,1.1-2,2.3-3,3.5c-0.9,1.2-1.8,2.5-2.7,3.7
		c-0.8,1.3-1.6,2.5-2.2,3.7l0.8-25.3c2.1,0.2,4.3,0.4,6.6,0.6c2.3,0.1,4.7,0.2,7.1,0.2c3.4,0,6.9-0.1,10.2-0.4
		c3.4-0.2,6.5-0.6,9.3-1.1l1.2,25.6c-1.6-3-3.3-5.9-5.3-8.5c-1.9-2.7-4-4.9-6.2-6.7c-0.2,1.5-0.3,3.1-0.4,4.7
		c-0.1,1.6-0.1,3.3-0.1,5c0,2.2,0.1,4.5,0.2,6.9s0.4,4.7,0.6,7.1c0.3,2.4,0.6,4.8,1.1,7.1S392.1,506.3,392.7,508.6z"/>
	<path class="st28" d="M441.2,509.1c-1.4-0.2-2.7-0.3-4-0.4c-1.3-0.1-2.6-0.1-3.9-0.1c-3.5,0-7.1,0.3-10.8,1c0.1-0.5,0.3-1,0.4-1.4
		c0.2-0.4,0.3-0.9,0.4-1.4c0.1-0.5,0.2-1.1,0.3-1.7c0.1-0.7,0.1-1.5,0.1-2.5c0-1.1-0.1-2.1-0.2-3s-0.4-1.8-0.7-2.5
		c-0.3-0.7-0.7-1.3-1.1-1.8c-0.5-0.4-1-0.7-1.6-0.7c-0.7,0-1.2,0.2-1.7,0.6s-0.8,0.9-1.1,1.6c-0.3,0.7-0.5,1.5-0.6,2.3
		c-0.1,0.9-0.2,1.8-0.2,2.8s0.1,1.8,0.2,2.6c0.1,0.7,0.3,1.3,0.4,1.9c0.2,0.5,0.3,1,0.5,1.4s0.3,0.8,0.3,1.2c-1.5-0.2-3-0.3-4.5-0.4
		c-1.5-0.1-2.9-0.1-4.4-0.1c-1.5,0-2.9,0-4.4,0.1c-1.5,0.1-3,0.2-4.6,0.4c1.4-4,2.6-7.9,3.6-11.8c1-3.9,1.9-7.8,2.6-11.8
		c0.7-4,1.3-7.9,1.8-12c0.5-4,0.8-8.2,1-12.4c1.6,0.2,3.4,0.4,5.4,0.5c2,0.1,4,0.1,6,0.1c1.7,0,3.4,0,5.1-0.1
		c1.6-0.1,3.2-0.3,4.6-0.6c0.2,4.2,0.6,8.4,1.2,12.4s1.4,8.1,2.4,12.1c1,4,2.1,8,3.3,11.9C438.5,501.4,439.8,505.2,441.2,509.1z
		 M422.7,483.4c0-0.4-0.2-1-0.4-1.9c-0.2-0.7-0.5-1.6-0.9-2.8c-0.4-1.2-1-2.7-1.8-4.5c-0.2,1.1-0.4,2.2-0.6,3.1s-0.4,1.7-0.6,2.4
		c-0.2,0.7-0.4,1.4-0.5,2s-0.2,1.2-0.2,1.7c0,1.1,0.3,2,0.8,2.6c0.5,0.6,1.1,0.9,1.7,0.9c0.7,0,1.3-0.3,1.7-1
		C422.4,485.2,422.6,484.4,422.7,483.4z"/>
	<path class="st28" d="M480.2,509.2c-1.4-0.1-2.8-0.2-4-0.2c-1.2,0-2.4,0-3.5,0c-2.1,0-3.8,0.1-5.2,0.2c-1.4,0.1-2.5,0.2-3.4,0.4
		c-1,0.2-1.9,0.3-2.5,0.5c0.1-0.7,0.2-1.3,0.3-1.9c0.1-0.6,0.2-1.2,0.2-1.7c0.1-0.6,0.1-1.1,0.1-1.7c0-0.6,0-1.2,0-1.8
		c0-2.4-0.1-4.4-0.3-6.1c-0.2-1.6-0.5-3-0.8-4c-0.4-1.1-0.8-2-1.3-2.6s-1.1-1.3-1.7-1.8c0,1-0.1,2-0.1,2.9c0,0.9,0,1.9,0,2.9
		c0,1,0,2.1,0.1,3.2c0,1.1,0.1,2.3,0.2,3.5c0.1,1.2,0.3,2.6,0.5,4c0.2,1.4,0.5,2.9,0.8,4.6c0-0.1-0.3-0.2-0.9-0.3
		c-0.6-0.1-1.3-0.2-2.2-0.3s-2-0.2-3.2-0.2c-1.2-0.1-2.5-0.1-3.8-0.1c-1.7,0-3.4,0.1-5.1,0.2s-3.2,0.4-4.6,0.7
		c0.5-0.7,1-1.6,1.4-2.6c0.4-1,0.8-2.2,1.1-3.5c0.3-1.3,0.6-2.6,0.8-4c0.2-1.4,0.4-2.8,0.6-4.1c0.4-3.2,0.7-6.5,0.8-10.1
		c0-0.9,0-2,0-3.3c0-1.3,0-2.8-0.1-4.4c-0.1-1.6-0.1-3.2-0.3-4.9c-0.1-1.7-0.3-3.3-0.6-4.8c-0.3-1.5-0.6-3-1.1-4.2
		c-0.4-1.3-1-2.3-1.7-3.1c1.6,0.2,3.1,0.4,4.6,0.5c1.5,0.1,2.8,0.1,3.8,0.1c0.9,0,1.8,0,2.6-0.1c0.8,0,1.6-0.1,2.3-0.1
		c0.8,0,1.6-0.1,2.4-0.1c0.8,0,1.8-0.1,2.8-0.1c1.4,0,2.8,0.1,4.2,0.2c1.4,0.1,2.8,0.4,4.1,0.8s2.5,0.9,3.6,1.5s2.1,1.4,2.9,2.4
		c0.8,1,1.5,2.1,2,3.5c0.5,1.3,0.7,2.9,0.7,4.7c0,1-0.1,2-0.4,3s-0.7,2-1.2,2.9c-0.6,1-1.3,1.9-2.2,2.7c-0.9,0.9-2,1.7-3.4,2.4
		c1.6,0.6,2.8,1.4,3.6,2.4c0.8,0.9,1.4,2,1.7,3.2c0.4,1.2,0.5,2.5,0.6,4c0,1.4,0.1,2.9,0.1,4.5c0.1,1.7,0.3,3.2,0.6,4.6
		c0.1,0.6,0.3,1.2,0.5,1.8c0.2,0.6,0.5,1.2,0.8,1.7s0.6,1,1,1.4C479.3,508.7,479.7,509,480.2,509.2z M458.3,480.7
		c0.5-0.4,1-0.8,1.6-1.3c0.6-0.5,1.2-1.1,1.7-1.8c0.5-0.7,1-1.3,1.3-2.1c0.4-0.7,0.5-1.5,0.5-2.2c0-0.7-0.2-1.3-0.6-1.7
		s-0.9-0.7-1.4-0.7c-0.7,0-1.3,0.3-1.7,1c-0.4,0.7-0.7,1.4-1,2.3c-0.2,0.9-0.4,1.8-0.5,2.7c-0.1,0.9-0.1,1.6-0.1,2.1
		c0,0.3,0,0.5,0,0.8S458.2,480.4,458.3,480.7z"/>
	<path class="st28" d="M501.2,508.5c-0.5,0-1-0.1-1.6-0.1c-0.5,0-1.1-0.1-1.8-0.1c-0.7,0-1.5,0-2.4,0c-1.8,0-3.9,0.1-6.2,0.2
		s-4.9,0.5-7.7,0.9c0.5-1,0.9-2.3,1.3-3.8c0.4-1.5,0.6-3.1,0.9-4.9s0.4-3.5,0.5-5.3c0.1-1.8,0.2-3.5,0.3-5c0.1-1.5,0.1-2.9,0.1-4
		c0-1.1,0-1.9,0-2.3c0-0.1,0-0.4,0-1c0-0.6,0-1.4,0-2.3c0-0.9-0.1-2-0.1-3.3s-0.1-2.5-0.2-3.8c-0.1-1.3-0.2-2.7-0.3-4
		s-0.3-2.6-0.4-3.8c-0.2-1.2-0.4-2.3-0.6-3.2s-0.5-1.7-0.7-2.3c2.2,0.4,4.3,0.7,6.1,0.8c1.9,0.1,3.5,0.2,5,0.2c1,0,1.9,0,2.7-0.1
		c0.8,0,1.5-0.1,2-0.1c0.6-0.1,1.2-0.1,1.7-0.2c-0.3,1.2-0.5,2.6-0.7,4.1c-0.2,1.5-0.4,3.1-0.5,4.8c-0.2,1.7-0.3,3.5-0.3,5.4
		c-0.1,1.9-0.1,3.8-0.1,5.8c0,2.3,0.1,4.6,0.2,7s0.3,4.7,0.5,7.1c0.3,2.3,0.6,4.6,1,6.9C500.2,504.3,500.7,506.5,501.2,508.5z"/>
	<path class="st28" d="M535.6,475.8c-1.1-1.2-2.2-2.1-3.4-2.7c-1.2-0.7-2.3-1.1-3.3-1.4c-1-0.3-1.9-0.5-2.5-0.5
		c-0.7-0.1-1.1-0.1-1.2-0.1c-1.1,0-2,0.1-2.7,0.4c-0.7,0.3-1.2,0.6-1.6,1.1c-0.4,0.4-0.7,0.9-0.8,1.5c-0.1,0.5-0.2,1.1-0.2,1.6
		c0,0.5,0.1,1.1,0.2,1.7c0.1,0.6,0.3,1.1,0.6,1.6c0.3,0.5,0.7,0.9,1.2,1.2c0.5,0.3,1.1,0.5,1.9,0.5c0,0,0.2,0,0.5,0
		c0.3,0,0.7-0.1,1.2-0.3c0.5-0.2,1-0.5,1.5-0.9s1.1-1,1.7-1.8V491c-0.5-0.8-1-1.5-1.5-2s-1.1-0.8-1.6-1.1c-0.5-0.2-0.9-0.4-1.3-0.4
		c-0.4-0.1-0.6-0.1-0.8-0.1c-0.7,0-1.3,0.1-1.8,0.4c-0.5,0.2-0.8,0.6-1.1,1c-0.3,0.4-0.5,0.9-0.6,1.6c-0.1,0.6-0.2,1.3-0.2,2
		c0.1,1.7,0.2,3.5,0.5,5.3c0.1,0.8,0.3,1.6,0.4,2.4s0.4,1.7,0.7,2.7c0.3,0.9,0.6,1.8,0.9,2.7c0.4,0.9,0.8,1.8,1.2,2.7
		c-0.5,0-1-0.1-1.6-0.1c-0.5,0-1.1-0.1-1.8-0.1c-0.7,0-1.4,0-2.3,0c-1,0-2.1,0-3.2,0.1c-1.2,0.1-2.4,0.1-3.6,0.3
		c-1.2,0.1-2.4,0.3-3.7,0.5c-1.2,0.2-2.4,0.5-3.5,0.9c0.5-1,0.9-2.3,1.3-3.8c0.4-1.5,0.6-3.1,0.9-4.9c0.2-1.7,0.4-3.5,0.5-5.3
		c0.1-1.8,0.2-3.4,0.3-5c0.1-1.5,0.1-2.9,0.1-4c0-1.1,0-1.9,0-2.3c0-0.1,0-0.4,0-1c0-0.6,0-1.4,0-2.3c0-0.9-0.1-2-0.1-3.3
		s-0.1-2.5-0.2-3.8c-0.1-1.3-0.2-2.7-0.3-4c-0.1-1.3-0.3-2.6-0.4-3.8c-0.2-1.2-0.4-2.3-0.6-3.2c-0.2-1-0.5-1.7-0.7-2.3
		c2.1,0.4,4.3,0.8,6.5,0.9s4.4,0.3,6.5,0.3c2.4,0,4.8-0.1,7-0.2c2.2-0.2,4.1-0.4,5.8-0.6c1.9-0.2,3.7-0.5,5.4-0.9V475.8z"/>
	<path class="st28" d="M569.2,475.8c-1.1-1.2-2.2-2.1-3.4-2.7c-1.2-0.7-2.3-1.1-3.3-1.4c-1-0.3-1.9-0.5-2.5-0.5
		c-0.7-0.1-1.1-0.1-1.2-0.1c-1.1,0-2,0.1-2.7,0.4c-0.7,0.3-1.2,0.6-1.6,1.1c-0.4,0.4-0.7,0.9-0.8,1.5c-0.1,0.5-0.2,1.1-0.2,1.6
		c0,0.5,0.1,1.1,0.2,1.7c0.1,0.6,0.3,1.1,0.6,1.6c0.3,0.5,0.7,0.9,1.2,1.2c0.5,0.3,1.1,0.5,1.9,0.5c0,0,0.2,0,0.5,0
		c0.3,0,0.7-0.1,1.2-0.3c0.5-0.2,1-0.5,1.5-0.9s1.1-1,1.7-1.8V491c-0.5-0.8-1-1.5-1.5-2s-1.1-0.8-1.6-1.1c-0.5-0.2-0.9-0.4-1.3-0.4
		c-0.4-0.1-0.6-0.1-0.8-0.1c-0.7,0-1.3,0.1-1.8,0.4c-0.5,0.2-0.8,0.6-1.1,1c-0.3,0.4-0.5,0.9-0.6,1.6c-0.1,0.6-0.2,1.3-0.2,2
		c0.1,1.7,0.2,3.5,0.5,5.3c0.1,0.8,0.3,1.6,0.4,2.4s0.4,1.7,0.7,2.7c0.3,0.9,0.6,1.8,0.9,2.7c0.4,0.9,0.8,1.8,1.2,2.7
		c-0.5,0-1-0.1-1.6-0.1c-0.5,0-1.1-0.1-1.8-0.1c-0.7,0-1.4,0-2.3,0c-1,0-2.1,0-3.2,0.1c-1.2,0.1-2.4,0.1-3.6,0.3
		c-1.2,0.1-2.4,0.3-3.7,0.5c-1.2,0.2-2.4,0.5-3.5,0.9c0.5-1,0.9-2.3,1.3-3.8c0.4-1.5,0.6-3.1,0.9-4.9c0.2-1.7,0.4-3.5,0.5-5.3
		c0.1-1.8,0.2-3.4,0.3-5c0.1-1.5,0.1-2.9,0.1-4c0-1.1,0-1.9,0-2.3c0-0.1,0-0.4,0-1c0-0.6,0-1.4,0-2.3c0-0.9-0.1-2-0.1-3.3
		s-0.1-2.5-0.2-3.8c-0.1-1.3-0.2-2.7-0.3-4c-0.1-1.3-0.3-2.6-0.4-3.8c-0.2-1.2-0.4-2.3-0.6-3.2c-0.2-1-0.5-1.7-0.7-2.3
		c2.1,0.4,4.3,0.8,6.5,0.9s4.4,0.3,6.5,0.3c2.4,0,4.8-0.1,7-0.2c2.2-0.2,4.1-0.4,5.8-0.6c1.9-0.2,3.7-0.5,5.4-0.9V475.8z"/>
	<path class="st28" d="M605.3,470.9c0,1.1-0.2,2.1-0.6,3c-0.4,0.9-1,1.7-1.7,2.3c-0.7,0.6-1.6,1.1-2.6,1.5c-1,0.4-2,0.5-3.2,0.5
		c-1.3,0-2.3-0.2-3.2-0.5c-0.9-0.3-1.6-0.7-2.3-1.2c-0.6-0.5-1.1-1-1.4-1.6c-0.4-0.6-0.6-1.2-0.8-1.7s-0.3-1.1-0.4-1.5
		c-0.1-0.5-0.1-0.8-0.1-1.1c0.3,0.4,0.6,0.7,0.9,0.8c0.4,0.1,0.7,0.2,0.9,0.2c0.6,0,1.1-0.2,1.3-0.5s0.4-0.7,0.4-1.1
		c0-0.2,0-0.5-0.1-0.8c-0.1-0.3-0.3-0.5-0.5-0.7s-0.6-0.4-1-0.6c-0.4-0.2-1-0.2-1.6-0.2c-0.4,0-0.9,0.1-1.4,0.2
		c-0.5,0.2-0.9,0.4-1.3,0.8c-0.4,0.3-0.7,0.8-0.9,1.3c-0.2,0.5-0.4,1.1-0.4,1.8c0,0.7,0.1,1.3,0.4,2c0.3,0.7,0.7,1.3,1.1,1.8
		c0.5,0.6,1,1.1,1.7,1.6c0.7,0.5,1.4,0.8,2.1,1.2c1.2,0.5,2.5,1,3.8,1.5c1.3,0.5,2.5,1,3.8,1.6c1.2,0.6,2.4,1.2,3.4,2
		c1.1,0.7,2,1.6,2.8,2.6c0.8,1,1.4,2.2,1.9,3.6c0.5,1.4,0.7,2.9,0.7,4.7c0,2.6-0.5,4.9-1.6,7.1c-1,2.1-2.4,4-4.2,5.5
		c-1.8,1.5-3.8,2.7-6.1,3.5s-4.7,1.2-7.2,1.2c-2.3,0-4.4-0.3-6.5-1s-3.9-1.6-5.4-2.8c-1.5-1.2-2.8-2.5-3.7-4.1
		c-0.9-1.6-1.4-3.3-1.4-5.1c0-1.3,0.2-2.5,0.7-3.5s1.1-1.9,1.8-2.5c0.8-0.7,1.7-1.2,2.7-1.5s2.2-0.5,3.4-0.5c0.9,0,1.8,0.1,2.7,0.3
		c0.9,0.2,1.7,0.5,2.5,0.9s1.5,0.9,2.1,1.4c0.6,0.6,1.1,1.2,1.5,1.9c-0.5-0.1-0.9-0.2-1.2-0.2c-0.6,0-1.1,0.2-1.4,0.5
		c-0.4,0.4-0.5,0.9-0.5,1.6c0,0.4,0.1,0.7,0.3,1c0.2,0.3,0.4,0.6,0.7,0.8c0.3,0.2,0.6,0.4,1,0.6c0.4,0.1,0.7,0.2,1.1,0.2
		c0.4,0,0.8-0.1,1.2-0.3c0.4-0.2,0.7-0.4,1-0.7c0.3-0.3,0.5-0.7,0.7-1s0.2-0.8,0.2-1.2c0-0.8-0.2-1.6-0.7-2.4
		c-0.5-0.8-1.2-1.5-2.1-2.1c-1.7-1.1-3.3-2-4.9-2.7s-2.9-1.5-4.2-2.2c-1.3-0.7-2.4-1.4-3.5-2.1c-1-0.7-1.9-1.5-2.6-2.4
		c-0.7-0.9-1.3-2-1.6-3.3c-0.4-1.2-0.6-2.8-0.6-4.5c0-2.1,0.4-4.1,1.2-6s2-3.5,3.6-4.8c1.6-1.4,3.5-2.5,5.7-3.3s4.8-1.2,7.7-1.2
		c2.9,0,5.3,0.3,7.3,1c2,0.7,3.6,1.6,4.9,2.7c1.2,1.1,2.2,2.3,2.7,3.7C605,468.3,605.3,469.6,605.3,470.9z"/>
</g>
</svg>
