<?xml version="1.0" encoding="utf-8"?>
<!-- Generator: Adobe Illustrator 21.0.0, SVG Export Plug-In . SVG Version: 6.00 Build 0)  -->
<svg version="1.1" id="Layer_1" xmlns="http://www.w3.org/2000/svg" xmlns:xlink="http://www.w3.org/1999/xlink" x="0px" y="0px"
	 viewBox="0 0 700 600" style="enable-background:new 0 0 700 600;" xml:space="preserve">
<style type="text/css">
	.st0{fill:url(#SVGID_1_);}
	.st1{fill:#F4C74A;}
	.st2{opacity:0.4;}
	.st3{fill:#333333;}
	.st4{fill:#FBB03B;}
	.st5{fill:#1D1D1B;}
	.st6{fill:#FFCB9C;}
	.st7{fill:#1E223F;}
	.st8{fill:#FFFFFF;}
	.st9{fill:#DADADA;}
	.st10{fill:#292B51;}
	.st11{fill:#EFEFEF;}
	.st12{fill:#B2B2B2;}
	.st13{fill:#706F6F;}
	.st14{fill:#FFBB83;}
	.st15{fill:#FF6252;}
	.st16{fill:#C6C6C6;}
	.st17{fill:none;stroke:#C6C6C6;stroke-width:0.3;stroke-miterlimit:10;}
	.st18{opacity:0.54;fill:#FF6252;}
	.st19{fill:none;stroke:#1D1D1B;stroke-miterlimit:10;}
	.st20{opacity:0.62;fill:#FFFFFF;}
	.st21{fill:none;stroke:#FFFFFF;stroke-miterlimit:10;}
	.st22{fill:none;stroke:#FFFFFF;stroke-miterlimit:10;stroke-dasharray:2.0102,7.0357;}
	.st23{fill:none;stroke:#FFFFFF;stroke-miterlimit:10;stroke-dasharray:1.956,6.8461;}
	.st24{fill:none;stroke:#FFFFFF;stroke-miterlimit:10;stroke-dasharray:2,7;}
	.st25{fill:#FF9999;}
</style>
<g>
	<linearGradient id="SVGID_1_" gradientUnits="userSpaceOnUse" x1="373.1272" y1="611.922" x2="371.6166" y2="-28.8691">
		<stop  offset="9.732377e-02" style="stop-color:#4A69BD"/>
		<stop  offset="0.3504" style="stop-color:#368BAF"/>
		<stop  offset="0.6011" style="stop-color:#27A6A5"/>
		<stop  offset="0.8239" style="stop-color:#1DB69E"/>
		<stop  offset="0.9959" style="stop-color:#1ABC9C"/>
	</linearGradient>
	<path class="st0" d="M693,385.7c0,134.9-186.6,174.4-338,174.4c-158.1,0-302.8-11.9-302.8-166.5S156,32,314.1,32
		S693,290.3,693,385.7z"/>
	<path class="st1" d="M52.2,393.6C52.2,239.9,154.9,34.1,311.7,32c-0.6,0-1.3,0-1.9,0C100.3,32,7,245.4,7,396.9
		s144.7,163.2,302.8,163.2c5.5,0,11.1-0.1,16.8-0.2C180,558.2,52.2,538.9,52.2,393.6z"/>
</g>
<g class="st2">
	<g>
		<path class="st3" d="M183,535.1c-1.1,0.5-2.9,0.9-5.4,1.3c-2.5,0.4-5.7,0.7-9.6,0.9c-4,0.2-8.8,0.4-14.5,0.4
			c-5.7,0-10.7-0.1-15.1-0.4c-4.4-0.3-8.2-0.7-11.3-1.1c-3.1-0.5-5.4-1-7-1.7c-1.6-0.6-2.4-1.3-2.4-2.1c0-0.6,0.4-1.1,1.1-1.6
			c0.7-0.4,1.8-0.8,3.2-1.1c1.4-0.3,3.1-0.6,5.2-0.8c2-0.2,4.3-0.5,6.8-0.7c2.5-0.2,5.3-0.5,8.3-0.8c3-0.3,6.2-0.6,9.6-1
			c1.8-0.2,3.1-0.5,4.1-0.7c0.9-0.3,1.4-0.5,1.4-0.8c0-0.1-0.2-0.3-0.5-0.4c-0.3-0.1-0.7-0.2-1.3-0.4c-0.6-0.1-1.2-0.2-2-0.3
			c-0.7-0.1-1.5-0.1-2.4-0.1c-0.8,0-1.5,0-2.3,0.1s-1.3,0.1-1.9,0.2c-0.5,0.1-1,0.2-1.3,0.3c-0.3,0.1-0.5,0.2-0.5,0.4
			c0,0.2,0.3,0.4,1,0.5c0.7,0.1,1.6,0.2,2.8,0.2c0.7,0,1.5,0,2.4-0.1c-0.7,0.2-1.7,0.5-3,0.7c-1.2,0.2-2.6,0.4-4.2,0.5
			c-1.5,0.1-3.2,0.2-5,0.3s-3.6,0.1-5.4,0.1c-2.3,0-4.6-0.1-6.6-0.2c-2.1-0.1-3.9-0.3-5.4-0.5c-1.5-0.2-2.8-0.5-3.6-0.9
			c-0.9-0.4-1.3-0.8-1.3-1.2c0-0.6,0.9-1.2,2.7-1.8c1.8-0.5,4.2-1,7.3-1.4c3-0.4,6.6-0.7,10.6-1c4-0.2,8.3-0.3,12.8-0.3
			c5,0,9.7,0.1,14.3,0.4c4.5,0.3,8.6,0.7,12,1.2c3.5,0.5,6.2,1.2,8.3,1.9c2.1,0.7,3.1,1.6,3.1,2.4c0,0.6-0.5,1.2-1.4,1.6
			c-0.9,0.5-2.2,0.9-3.8,1.2c-1.6,0.4-3.4,0.7-5.5,0.9c-2.1,0.3-4.4,0.5-6.8,0.7c-2.4,0.2-4.9,0.4-7.4,0.5s-5,0.3-7.4,0.5
			c-1.5,0.1-2.9,0.2-4.2,0.4c-1.3,0.2-2.4,0.3-3.3,0.5c-0.9,0.2-1.7,0.4-2.2,0.6c-0.5,0.2-0.8,0.5-0.8,0.7c0,0.2,0.2,0.4,0.7,0.6
			c0.5,0.2,1.1,0.3,1.9,0.4c0.8,0.1,1.6,0.2,2.5,0.3c0.9,0.1,1.8,0.1,2.7,0.1c1.3,0,2.3,0,3.2-0.1c0.8-0.1,1.5-0.1,2-0.2
			c0.5-0.1,0.8-0.2,1-0.3s0.3-0.2,0.3-0.3c0-0.1-0.3-0.3-0.8-0.4c-0.5-0.1-1.4-0.2-2.6-0.2c-0.5,0-1.1,0-1.8,0.1
			c-0.7,0-1.3,0.1-1.8,0.3c0-0.1,0.1-0.2,0.2-0.4c0.1-0.2,0.3-0.3,0.7-0.5c0.4-0.2,0.9-0.4,1.6-0.6c0.7-0.2,1.6-0.4,2.8-0.6
			c1.2-0.2,2.7-0.3,4.4-0.4c1.8-0.1,3.9-0.2,6.4-0.2c2.3,0,4.4,0.1,6.3,0.2c1.9,0.1,3.6,0.3,5.1,0.5c1.4,0.2,2.6,0.5,3.4,0.8
			c0.8,0.3,1.2,0.7,1.2,1C184.7,534.1,184.1,534.6,183,535.1z"/>
		<path class="st3" d="M228,522.9c-0.8,0.8-1.4,1.6-1.9,2.4c-0.5,0.8-0.9,1.6-1.1,2.4c-0.2,0.8-0.3,1.6-0.3,2.4c0,0.7,0.1,1.4,0.2,2
			c0.2,0.6,0.4,1.3,0.7,1.9c0.3,0.6,0.7,1.1,1,1.7s0.8,1,1.4,1.4c-1,0-2.1,0-3.3-0.1c-1.1,0-2.4,0-4,0c-1.6,0-3.3,0-5.3,0
			c-3,0-6.3,0-10,0.1c-3.7,0-7.7,0.1-12.1,0.3c0.6-0.2,1.1-0.5,1.5-0.8c0.4-0.3,0.8-0.7,1.1-1.1c0.3-0.4,0.6-0.9,0.8-1.3
			c0.2-0.5,0.4-0.9,0.6-1.4c0.2-0.5,0.3-0.9,0.4-1.3c0.1-0.4,0.2-0.8,0.2-1.1c0-0.3,0.1-0.6,0.1-0.8c0-0.2,0-0.3,0-0.4
			c0-0.1,0-0.4,0-0.8c0-0.4-0.1-0.9-0.2-1.4c-0.1-0.5-0.3-1.1-0.6-1.7s-0.6-1.2-1.1-1.8c-0.5-0.6-1-1.2-1.7-1.7
			c-0.7-0.5-1.5-1-2.5-1.3c5.4,0.2,10.5,0.3,15.1,0.3c4.7,0.1,8.7,0.1,12.3,0.1c1.8,0,3.4,0,4.8,0c1.4,0,2.6,0,3.6,0
			c1.1,0,2.2,0,3.1,0C229.7,521.4,228.8,522.1,228,522.9z"/>
		<path class="st3" d="M294.8,528.9c-5.2-0.1-10.3-0.1-15.5-0.1c1.4-0.1,2.5-0.2,3.3-0.3c0.8-0.1,1.3-0.3,1.7-0.4
			c0.3-0.1,0.6-0.2,0.6-0.3c0.1-0.1,0.1-0.2,0.1-0.2c0-0.2-0.1-0.3-0.3-0.6c-0.2-0.2-0.6-0.4-1.2-0.6c-0.6-0.2-1.4-0.4-2.5-0.5
			c-1-0.1-2.4-0.2-4-0.2c-1.7,0-3.3,0.1-4.7,0.2c-1.4,0.2-2.7,0.4-3.7,0.7c-1,0.3-1.9,0.7-2.4,1.2c-0.6,0.5-0.9,1-0.9,1.6
			c0,0.7,0.3,1.4,1,1.9c0.7,0.5,1.5,1,2.5,1.4c1,0.4,2.2,0.7,3.5,0.9c1.3,0.2,2.5,0.4,3.8,0.5c1.2,0.1,2.4,0.2,3.5,0.2
			c1.1,0,1.9,0.1,2.5,0.1c0.9,0,1.7,0,2.3-0.1c0.6,0,1.1-0.1,1.5-0.2c0.4-0.1,0.7-0.1,0.9-0.2s0.3-0.2,0.3-0.2
			c0-0.2-0.3-0.3-0.9-0.4c-0.6-0.1-1.7-0.2-3.2-0.2c-0.7,0-1.2,0-1.8,0.1c-0.5,0-1,0.1-1.4,0.2c-0.5,0.1-0.8,0.2-1.1,0.4
			c-0.8-0.2-1.4-0.4-1.8-0.6c-0.4-0.2-0.7-0.5-0.7-0.7c0-0.3,0.3-0.5,0.9-0.8s1.5-0.5,2.6-0.7s2.7-0.4,4.4-0.5
			c1.8-0.1,3.9-0.2,6.3-0.2c2.3,0,4.5,0.1,6.5,0.3c2,0.2,3.7,0.4,5.1,0.7c1.4,0.3,2.6,0.6,3.4,1c0.8,0.4,1.2,0.8,1.2,1.2
			c0,0.3-0.2,0.6-0.5,0.9c-0.3,0.3-0.9,0.7-1.8,1c-0.8,0.3-1.9,0.6-3.4,0.9c-1.4,0.3-3.2,0.6-5.4,0.8c-2.2,0.2-4.7,0.4-7.7,0.6
			c-3,0.1-6.4,0.2-10.4,0.2c-4.4,0-8.4-0.1-12.2-0.4c-3.8-0.3-7.2-0.6-10.3-1.1c-3.1-0.5-5.9-1-8.3-1.6c-2.4-0.6-4.5-1.3-6.1-2
			c-1.7-0.7-2.9-1.5-3.8-2.3c-0.9-0.8-1.3-1.6-1.3-2.4c0-1.2,0.7-2.3,2.1-3.3c1.4-1,3.4-1.8,5.9-2.4c2.5-0.7,5.5-1.2,9-1.5
			c3.5-0.4,7.3-0.5,11.5-0.5c2.8,0,5.3,0.1,7.4,0.2s4.1,0.3,5.7,0.5c1.7,0.2,3.1,0.4,4.3,0.7c1.2,0.3,2.3,0.5,3.1,0.8l-2.7-1.8
			c2.7,0.1,5.2,0.3,7.5,0.3c2.3,0.1,4.6,0.1,6.8,0.1c2.1,0,4.2,0,6.3-0.1c2.1-0.1,4.4-0.1,6.9-0.2c-1.6,0.7-2.7,1.5-3.5,2.2
			c-0.7,0.7-1.1,1.4-1.1,2.1c0,1.5,1.8,3,5.4,4.5C305.2,529.1,300,528.9,294.8,528.9z"/>
		<path class="st3" d="M349.5,522.7c-0.7,0.7-1.3,1.4-1.8,2.1c-0.5,0.7-0.9,1.4-1.2,2.2s-0.4,1.5-0.5,2.2c2.2-0.7,4.2-1.4,6.1-2.1
			c1.8-0.7,3.4-1.4,4.7-2.1c1.3-0.7,2.3-1.5,3-2.2c0.7-0.8,1.1-1.5,1.1-2.3c4.7,0.2,9.1,0.3,13.2,0.3s7.7,0.1,10.8,0.1
			c1.7,0,3.1,0,4.4,0c1.3,0,2.4,0,3.3,0c1.1,0,2,0,2.8,0c-1,0.7-1.9,1.5-2.7,2.2s-1.4,1.6-1.9,2.4s-0.9,1.6-1.1,2.4
			c-0.2,0.8-0.3,1.6-0.3,2.4c0,0.7,0.1,1.4,0.2,2c0.2,0.7,0.4,1.3,0.7,1.9c0.3,0.6,0.7,1.2,1,1.7c0.4,0.5,0.8,1,1.4,1.4
			c-0.9,0-2,0-3.1-0.1c-1,0-2.3,0-3.8,0c-1.5,0-3.2,0-5.1,0c-2.8,0-6.1,0-9.8,0.1s-7.7,0.1-12,0.3c0.6-0.2,1.1-0.5,1.5-0.8
			c0.4-0.3,0.8-0.7,1.1-1.1c0.3-0.4,0.6-0.9,0.8-1.3c0.2-0.5,0.4-0.9,0.6-1.4c0.3-1.1,0.6-2.2,0.7-3.5v-0.5c-3,1.2-5.7,2.5-8.1,3.9
			s-4.5,2.9-6.4,4.5c-0.9,0-2,0-3.1-0.1c-1,0-2.3,0-3.8,0c-1.5,0-3.2,0-5.1,0c-2.8,0-6,0-9.7,0.1c-3.6,0-7.6,0.1-12,0.3
			c0.6-0.2,1.1-0.5,1.5-0.8c0.4-0.3,0.8-0.7,1.1-1.1c0.3-0.4,0.6-0.9,0.8-1.3c0.2-0.5,0.4-0.9,0.6-1.4c0.2-0.5,0.3-0.9,0.4-1.3
			c0.1-0.4,0.2-0.8,0.2-1.1c0-0.3,0.1-0.6,0.1-0.8c0-0.2,0-0.3,0-0.4c0-0.1,0-0.4,0-0.8c0-0.4-0.1-0.9-0.2-1.4
			c-0.1-0.5-0.3-1.1-0.6-1.7s-0.6-1.2-1.1-1.8c-0.5-0.6-1-1.2-1.7-1.7c-0.7-0.5-1.5-1-2.5-1.3c5.4,0.2,10.4,0.3,15,0.3
			c4.5,0.1,8.5,0.1,11.9,0.1c1.7,0,3.3,0,4.6,0c1.3,0,2.5,0,3.5,0c1.1,0,2.1,0,2.9,0C351,521.3,350.2,522,349.5,522.7z"/>
		<path class="st3" d="M490.7,537.1c-1.1,0-2.4,0-3.9,0c-1.5,0-3.3,0-5.3,0c-3,0-6.3,0-10,0.1s-7.7,0.1-12.1,0.3
			c0.6-0.2,1.1-0.5,1.5-0.8c0.4-0.3,0.8-0.7,1.1-1.1c0.3-0.4,0.6-0.9,0.8-1.3s0.4-0.9,0.6-1.4c0.3-1.1,0.6-2.2,0.7-3.5
			c0-0.9-0.2-1.6-0.5-2.2c-0.3-0.6-0.7-1-1.4-1.4c-0.6-0.4-1.4-0.6-2.3-0.8c-0.9-0.1-2.1-0.2-3.4-0.2c-1,0-1.8,0.1-2.5,0.2
			c-0.7,0.1-1.3,0.3-1.7,0.7c-0.4,0.3-0.8,0.8-0.9,1.4c-0.2,0.6-0.3,1.4-0.3,2.3c0,0.8,0.1,1.5,0.4,2.3c0.3,0.7,0.6,1.4,1.1,2.1
			c0.4,0.7,0.9,1.3,1.5,1.9c0.6,0.6,1.1,1.1,1.7,1.6c-1,0-2.3,0-3.7-0.1c-1.2,0-2.7,0-4.4,0c-1.7,0-3.6,0-5.7,0
			c-3.3,0-6.8,0-10.7,0.1c-3.9,0-8,0.1-12.4,0.3c1-0.3,1.9-0.7,2.5-1.2c0.6-0.5,1.1-1.1,1.5-1.7c0.3-0.6,0.6-1.3,0.7-1.9
			c0.1-0.6,0.2-1.2,0.2-1.7c0-0.4,0-0.8,0-1.1c0-0.3-0.1-0.5-0.1-0.7c0-0.2-0.1-0.4-0.1-0.5c0-0.1-0.1-0.3-0.1-0.4
			c0-0.1-0.1-0.3-0.1-0.5c0-0.2,0-0.4,0-0.6c0-0.6,0.1-1.1,0.4-1.7c0.3-0.6,0.8-1.1,1.7-1.7c0.8-0.5,2-1,3.5-1.5
			c1.5-0.5,3.5-0.9,6-1.2c2.5-0.3,5.5-0.6,9-0.8c3.5-0.2,7.8-0.3,12.7-0.3c5.2,0,9.7,0.1,13.4,0.4c3.7,0.2,6.9,0.6,9.4,1
			c2.5,0.4,4.6,0.9,6.1,1.4c1.5,0.5,2.7,1.1,3.5,1.7c0.8,0.6,1.4,1.2,1.6,1.7c0.2,0.6,0.4,1.1,0.4,1.6c0,0.2,0,0.5,0,0.7
			c0,0.2-0.1,0.4-0.1,0.6c0,0.2-0.1,0.4-0.1,0.6c0,0.2,0,0.4,0,0.6c0,1.4,0.3,2.7,0.9,4c0.6,1.2,1.4,2.3,2.4,3.2
			C493.1,537.1,492,537.1,490.7,537.1z"/>
		<path class="st3" d="M566.4,533c-1,0.7-2.4,1.3-4.1,1.8c-1.7,0.5-3.6,0.9-5.8,1.2c-2.2,0.3-4.4,0.6-6.7,0.8
			c-2.3,0.2-4.6,0.3-6.8,0.4c-2.2,0.1-4.3,0.1-6.1,0.1c-1.7,0-3.5,0-5.5-0.1s-4-0.1-6.1-0.1c-2.1,0-4.2-0.1-6.4-0.1
			c-2.2,0-4.3-0.1-6.4-0.1c-2.3,0-4.7,0-7,0.1c-2.3,0-4.5,0.1-6.6,0.2c1.1-0.4,2.1-0.9,3-1.5c0.9-0.6,1.6-1.2,2.2-2
			c0.6-0.7,1-1.5,1.3-2.3s0.5-1.6,0.5-2.5c0-0.8-0.1-1.6-0.4-2.4c-0.3-0.8-0.7-1.6-1.2-2.3c-0.5-0.8-1.2-1.5-2-2.2s-1.7-1.3-2.8-1.9
			c1.1,0.1,2.7,0.1,4.6,0.2c1.7,0.1,3.8,0.1,6.4,0.2c2.6,0,5.9,0.1,9.8,0.1c2.9,0,6.1,0,9.6-0.1c3.5,0,7.5-0.1,12-0.2
			c-2.3,0.6-4.1,1.2-5.5,1.9c-1.4,0.6-2.4,1.2-3.2,1.7c-0.9,0.6-1.5,1.2-1.9,1.7c1.7-0.2,3.5-0.3,5.3-0.4c1.8-0.1,3.6-0.1,5.4-0.1
			c3.3,0,6.5,0.1,9.6,0.4c3.1,0.2,5.8,0.6,8.2,1c2.4,0.5,4.3,1,5.8,1.7s2.2,1.4,2.2,2.2C568,531.5,567.4,532.3,566.4,533z
			 M530.7,529.2c0,0.1,0,0.3,0,0.4c0,0.1,0,0.3,0,0.6c0,0.2,0.1,0.5,0.2,0.8c0.1,0.3,0.3,0.6,0.6,0.8c0.3,0.3,0.7,0.5,1.2,0.8
			c0.5,0.2,1.2,0.4,2,0.6c0.8,0.1,1.8,0.2,3,0.2c1.3,0,2.6-0.1,3.7-0.3c1.1-0.2,1.7-0.5,1.7-0.8c0-0.3-0.4-0.6-1.3-0.9
			c-0.8-0.3-1.9-0.6-3.2-1c-1.3-0.3-2.6-0.6-4-0.9s-2.7-0.5-3.8-0.7C530.7,528.9,530.7,529,530.7,529.2z"/>
	</g>
</g>
<g>
	<path class="st4" d="M183.1,444.1c0,2.2-0.4,4.2-1.2,6c-0.8,1.8-2,3.3-3.4,4.6s-3.2,2.3-5.1,3c-2,0.7-4.1,1.1-6.4,1.1
		c-2.5,0-4.7-0.3-6.4-0.9c-1.8-0.6-3.3-1.4-4.5-2.3c-1.2-0.9-2.2-2-2.9-3.2c-0.7-1.2-1.2-2.3-1.6-3.4c-0.4-1.1-0.6-2.1-0.7-3
		c-0.1-0.9-0.2-1.6-0.2-2.1c0.5,0.9,1.1,1.4,1.9,1.7c0.7,0.2,1.3,0.4,1.8,0.4c1.2,0,2.1-0.3,2.6-1c0.5-0.7,0.8-1.4,0.8-2.1
		c0-0.5-0.1-1-0.3-1.5c-0.2-0.5-0.6-1-1.1-1.5c-0.5-0.5-1.2-0.8-2-1.2c-0.9-0.3-1.9-0.5-3.2-0.5c-0.9,0-1.8,0.2-2.7,0.5
		c-0.9,0.3-1.8,0.8-2.5,1.5c-0.8,0.7-1.4,1.5-1.9,2.5c-0.5,1-0.7,2.2-0.7,3.6c0,1.3,0.3,2.6,0.8,3.9c0.6,1.3,1.3,2.5,2.2,3.7
		c0.9,1.1,2.1,2.2,3.4,3.1c1.3,0.9,2.7,1.7,4.3,2.3c2.4,1,4.9,2,7.5,3c2.6,1,5.1,2,7.5,3.2c2.4,1.1,4.7,2.5,6.8,3.9
		c2.1,1.5,4,3.2,5.6,5.3c1.6,2,2.9,4.4,3.8,7.1c0.9,2.7,1.4,5.9,1.4,9.5c0,5.2-1,9.9-3.1,14.1c-2.1,4.3-4.9,7.9-8.4,10.9
		s-7.6,5.4-12.2,7c-4.6,1.7-9.4,2.5-14.4,2.5c-4.5,0-8.9-0.7-13-2c-4.1-1.3-7.7-3.2-10.8-5.5c-3.1-2.3-5.5-5.1-7.4-8.2
		c-1.8-3.2-2.7-6.6-2.7-10.2c0-2.7,0.4-5,1.3-7.1c0.9-2,2.1-3.7,3.7-5.1c1.6-1.3,3.4-2.3,5.5-3c2.1-0.7,4.3-1,6.7-1
		c1.9,0,3.7,0.2,5.5,0.6c1.8,0.4,3.5,1,5,1.8c1.6,0.8,3,1.7,4.2,2.8c1.3,1.1,2.3,2.4,3,3.8c-0.9-0.3-1.7-0.4-2.4-0.4
		c-1.2,0-2.1,0.4-2.8,1.1c-0.7,0.7-1.1,1.8-1.1,3.2c0,0.7,0.2,1.4,0.5,2.1c0.4,0.6,0.8,1.2,1.4,1.7c0.6,0.5,1.2,0.9,1.9,1.1
		c0.7,0.3,1.5,0.4,2.3,0.4c0.9,0,1.7-0.2,2.4-0.6c0.7-0.4,1.4-0.9,2-1.5c0.6-0.6,1-1.3,1.3-2c0.3-0.7,0.5-1.5,0.5-2.3
		c0-1.5-0.5-3.1-1.4-4.7c-0.9-1.6-2.3-3-4.1-4.2c-3.4-2.1-6.7-3.9-9.7-5.5c-3-1.5-5.8-3-8.4-4.4c-2.6-1.4-4.9-2.8-6.9-4.2
		c-2-1.4-3.8-3-5.2-4.9c-1.4-1.9-2.5-4-3.3-6.5c-0.8-2.5-1.1-5.5-1.1-9c0-4.2,0.8-8.2,2.4-11.9c1.6-3.7,4-6.9,7.1-9.7
		c3.1-2.8,6.9-4.9,11.4-6.5s9.6-2.4,15.3-2.4c5.8,0,10.7,0.7,14.7,2.1c4,1.4,7.3,3.2,9.8,5.4c2.5,2.2,4.3,4.7,5.4,7.4
		S183.1,441.5,183.1,444.1z"/>
	<path class="st4" d="M229.8,519.2c-0.9-0.1-2-0.2-3.1-0.3c-1-0.1-2.2-0.2-3.6-0.2c-1.4,0-3-0.1-4.9-0.1c-3.6,0-7.7,0.2-12.4,0.5
		c-4.7,0.3-9.8,0.9-15.3,1.8c1-2,1.8-4.5,2.5-7.5c0.7-3,1.3-6.3,1.8-9.8c0.5-3.5,0.8-7,1.1-10.5c0.3-3.6,0.5-6.9,0.6-10
		c0.1-3.1,0.2-5.8,0.2-8c0-2.2,0-3.8,0-4.6c0-0.2,0-0.9,0-2c0-1.2-0.1-2.7-0.1-4.6c0-1.9-0.1-4.1-0.2-6.5c-0.1-2.4-0.2-5-0.4-7.6
		c-0.2-2.6-0.4-5.3-0.6-8c-0.2-2.7-0.5-5.2-0.9-7.6c-0.3-2.4-0.7-4.5-1.1-6.4c-0.4-1.9-0.9-3.4-1.5-4.5c4.5,0.8,8.5,1.3,12.3,1.6
		c3.7,0.3,7.1,0.4,10.1,0.4c2,0,3.8,0,5.4-0.1c1.6-0.1,2.9-0.2,4-0.3c1.3-0.1,2.4-0.3,3.4-0.4c-0.5,2.5-1,5.2-1.4,8.2
		c-0.4,3-0.8,6.2-1.1,9.7c-0.3,3.4-0.5,7-0.7,10.7c-0.2,3.7-0.2,7.6-0.2,11.6c0,4.6,0.1,9.2,0.3,14c0.2,4.7,0.6,9.4,1.1,14.1
		c0.5,4.7,1.1,9.3,1.9,13.8C227.7,510.8,228.7,515.1,229.8,519.2z"/>
	<path class="st4" d="M310.4,469.8c-3.6,8.9-5.4,17.6-5.4,26c0,4.1,0.4,8.1,1.1,12.3c0.7,4.1,1.9,8.3,3.5,12.6
		c-2.5-0.6-4.8-1.1-7-1.4c-2.2-0.3-4.3-0.5-6.4-0.5c-2.2,0-4.5,0.2-6.9,0.6c-2.3,0.4-4.9,1-7.6,1.9l2.7-10.6
		c-0.9,1.4-1.9,2.9-3.2,4.3c-1.2,1.5-2.7,2.8-4.4,4c-1.7,1.2-3.6,2.2-5.8,2.9c-2.2,0.8-4.7,1.2-7.5,1.2c-4.2,0-8.1-1-11.7-3
		c-3.5-2-6.6-5-9.2-8.8c-2.6-3.8-4.6-8.5-6-14.1c-1.4-5.6-2.1-11.9-2.1-19c0-4.7,0.4-9.4,1.3-14c0.9-4.6,2.2-9.1,3.8-13.3
		c1.7-4.2,3.7-8.1,6.2-11.7c2.5-3.6,5.3-6.7,8.4-9.3c3.1-2.6,6.6-4.7,10.4-6.1c3.8-1.5,7.9-2.2,12.3-2.2c4,0,7.5,0.4,10.5,1.2
		c3,0.8,5.6,1.9,7.8,3.2c2.2,1.3,4,2.9,5.5,4.6c1.4,1.7,2.6,3.6,3.4,5.5c0.8,1.9,1.4,3.8,1.8,5.7c0.4,1.9,0.5,3.6,0.5,5.3
		c0,2.3-0.4,4.6-1.2,6.7c-0.8,2.2-2,4.1-3.4,5.7c-1.5,1.6-3.2,2.9-5.2,3.9c-2,1-4.2,1.5-6.5,1.5c-2.5,0-4.6-0.4-6.4-1.1
		c-1.8-0.7-3.3-1.7-4.5-2.9c-1.2-1.2-2.1-2.6-2.7-4.1c-0.6-1.5-0.9-3-0.9-4.5c0-1.3,0.2-2.6,0.7-3.9c0.4-1.3,1.1-2.6,1.9-3.7
		c0.3,0.9,0.6,1.6,1.1,2.1c0.5,0.5,1,0.9,1.5,1.1c0.5,0.3,1.1,0.4,1.8,0.5c1.5,0,2.6-0.4,3.2-1.1c0.6-0.7,1-1.6,1-2.6
		c0-0.4-0.1-0.9-0.3-1.4s-0.5-0.9-0.9-1.3c-0.4-0.4-0.9-0.7-1.6-1c-0.6-0.3-1.4-0.4-2.3-0.4c-0.6,0-1.5,0.1-2.5,0.4
		c-1.1,0.2-2.2,0.7-3.5,1.4c-1.3,0.7-2.5,1.7-3.8,3c-1.3,1.3-2.4,3-3.5,5.2c-1.1,2.2-1.9,4.8-2.6,7.9c-0.7,3.1-1,6.9-1,11.2
		c0,3.6,0.3,6.7,0.9,9.4c0.6,2.7,1.4,4.9,2.5,6.7c1.1,1.8,2.3,3.2,3.8,4.1c1.5,0.9,3,1.4,4.8,1.4c1.6,0,3-0.4,4-1.3
		c1.1-0.8,1.9-1.9,2.5-3c0.6-1.2,1-2.4,1.3-3.7c0.2-1.3,0.3-2.4,0.3-3.2c0,0,0-0.4-0.1-0.9c-0.1-0.6-0.3-1.2-0.6-2
		c-0.4-0.7-0.9-1.5-1.7-2.3c-0.8-0.8-1.9-1.5-3.4-2c5.2,0,10.4-0.2,15.7-0.7C299.9,471.5,305.1,470.8,310.4,469.8z"/>
	<path class="st4" d="M352.5,519.2c-0.8-0.1-1.8-0.2-3-0.3c-1-0.1-2.1-0.2-3.5-0.2c-1.4,0-2.9-0.1-4.7-0.1c-3.4,0-7.5,0.2-12.1,0.5
		c-4.6,0.3-9.7,0.9-15.2,1.8c1-2,1.8-4.5,2.5-7.5c0.7-3,1.3-6.3,1.8-9.8c0.5-3.5,0.8-7,1.1-10.5c0.3-3.6,0.5-6.9,0.6-10
		c0.1-3.1,0.2-5.8,0.2-8c0-2.2,0-3.8,0-4.6c0-0.2,0-0.9,0-2c0-1.2-0.1-2.7-0.1-4.6c0-1.9-0.1-4.1-0.2-6.5c-0.1-2.4-0.2-5-0.4-7.6
		c-0.2-2.6-0.4-5.3-0.6-8c-0.2-2.7-0.5-5.2-0.9-7.6c-0.3-2.4-0.7-4.5-1.1-6.4c-0.4-1.9-0.9-3.4-1.5-4.5c4.5,0.8,8.5,1.3,12.2,1.6
		c3.7,0.3,6.9,0.4,9.8,0.4c1.9,0,3.7,0,5.2-0.1c1.5-0.1,2.8-0.2,3.8-0.3c1.2-0.1,2.2-0.3,3.2-0.4c1.9,9.3,4.1,18,6.5,26
		c2.4,8,5.2,15.4,8.2,22.2v-2.7c-0.1-7.2-0.4-13.9-0.7-20.1c-0.2-2.6-0.4-5.3-0.6-8c-0.2-2.7-0.5-5.2-0.8-7.6
		c-0.3-2.4-0.7-4.5-1.1-6.4c-0.4-1.9-0.9-3.4-1.5-4.5c4.4,0.8,8.5,1.3,12.2,1.6c3.7,0.3,7,0.4,9.9,0.4c1.9,0,3.7,0,5.2-0.1
		c1.5-0.1,2.8-0.2,3.8-0.3c1.2-0.1,2.2-0.3,3.2-0.4c-0.5,2.5-1,5.2-1.4,8.3c-0.4,3-0.8,6.3-1.1,9.7c-0.3,3.4-0.5,7.1-0.7,10.8
		c-0.2,3.8-0.2,7.7-0.2,11.7c0,4.5,0.1,9.2,0.3,13.8c0.2,4.7,0.6,9.4,1.1,14c0.5,4.7,1.1,9.2,1.9,13.7c0.8,4.5,1.7,8.8,2.7,12.9
		c-0.8-0.1-1.7-0.2-2.8-0.3c-0.9-0.1-2.1-0.2-3.4-0.2c-1.3,0-2.8-0.1-4.5-0.1c-3.2,0-6.8,0.2-11,0.5c-4.1,0.3-8.6,0.9-13.4,1.8
		c0-4.5-0.4-9-1.1-13.3c-0.7-4.3-1.8-8.6-3.1-12.8s-2.9-8.3-4.8-12.4c-1.9-4.1-3.9-8.1-6.1-12c0,4.1,0.2,8.3,0.5,12.6
		c0.3,4.2,0.7,8.4,1.2,12.6c0.5,4.1,1.1,8.2,1.9,12.2C350.7,511.6,351.6,515.5,352.5,519.2z"/>
	<path class="st4" d="M496.5,424.2c-1,5.1-1.8,11.2-2.4,18.2c-0.6,7.1-0.9,14.7-0.9,22.8c0,1.1,0,2.3,0,3.3c0,1.1,0.1,2.2,0.1,3.3
		c0,1.1,0.1,2.3,0.1,3.6c0,1.2,0,2.6,0,4c0,3-0.1,6.1-0.4,9.5c-0.2,3.3-0.8,6.7-1.6,10c-0.8,3.3-2,6.5-3.6,9.6
		c-1.5,3.1-3.6,5.8-6.2,8.1c-2.6,2.3-5.8,4.2-9.6,5.6c-3.8,1.4-8.3,2.1-13.6,2.1c-5,0-9.3-0.6-12.9-1.7c-3.6-1.1-6.6-2.7-9.1-4.6
		c-2.5-2-4.5-4.3-6-6.9c-1.5-2.6-2.7-5.5-3.6-8.6c-0.8-3.1-1.4-6.2-1.7-9.6c-0.3-3.3-0.4-6.6-0.4-9.9c0-1.5,0-2.7,0-3.7
		c0-1,0.1-1.9,0.1-2.7c0-0.8,0.1-1.6,0.1-2.5c0-0.8,0.1-1.8,0.1-3c0-1.1,0.1-2.5,0.1-4.2c0-1.6,0-3.7,0-6.1c0-3-0.1-6.3-0.2-10
		c-0.1-3.7-0.3-7.4-0.7-11.1c-0.4-3.6-0.8-7-1.5-10c-0.6-3-1.5-5.3-2.5-6.8c4.5,0.8,8.6,1.3,12.5,1.6c3.9,0.3,7.5,0.4,10.8,0.4
		c2.1,0,4,0,5.8-0.1c1.7-0.1,3.2-0.2,4.4-0.3c1.5-0.1,2.7-0.3,3.8-0.4c-0.6,2.7-1.1,5.8-1.7,9.2c-0.6,3.4-1.1,7-1.5,10.9
		c-0.4,3.9-0.8,8-1.1,12.2c-0.3,4.3-0.4,8.6-0.4,13c0,5.5,0.1,10,0.3,13.4c0.2,3.4,0.5,6.1,1,8c0.4,1.9,1,3.2,1.7,3.9
		c0.7,0.7,1.6,1.1,2.6,1.1c1.4,0,2.5-0.4,3.5-1.3c0.9-0.9,1.7-2.3,2.4-4.4c0.6-2,1.1-4.7,1.4-8.1c0.3-3.3,0.5-7.5,0.5-12.6
		c-0.1-7.2-0.3-13.9-0.7-20.1c-0.1-2.6-0.3-5.3-0.6-8c-0.2-2.7-0.5-5.2-0.9-7.6c-0.3-2.4-0.7-4.5-1.2-6.4s-0.9-3.4-1.5-4.5
		c4.4,0.8,8.5,1.3,12.2,1.6c3.7,0.3,7.1,0.4,10.1,0.4c2,0,3.8,0,5.3-0.1c1.6-0.1,2.9-0.2,4-0.3C494.4,424.5,495.5,424.4,496.5,424.2
		z"/>
	<path class="st4" d="M571.4,461.8c0,4.7-0.7,8.9-2.2,12.6c-1.5,3.7-3.4,6.9-5.9,9.5c-2.4,2.6-5.2,4.6-8.3,6
		c-3.1,1.4-6.4,2.1-9.7,2.1c-1.9,0-3.7-0.2-5.5-0.6c-1.8-0.4-3.6-1.1-5.4-2.1c0.4,3.3,1,6.6,1.9,10c0.7,3,1.8,6.2,3.2,9.9
		s3.2,7.2,5.5,10.7c-4.5-0.5-8.5-0.8-12.1-1c-3.6-0.2-6.8-0.3-9.8-0.3c-3.9,0-7.2,0.1-9.9,0.4c-2.7,0.3-4.8,0.6-6.5,0.9
		c-1.9,0.4-3.5,0.8-4.6,1.3c1.1-3.4,2-7.1,2.8-11.1c0.8-4,1.5-8.2,2-12.6c0.5-4.4,0.9-8.8,1.2-13.4c0.3-4.6,0.4-9.1,0.4-13.6
		c0-4.9-0.2-9.7-0.5-14.4c-0.3-4.7-0.8-9.1-1.4-13.2s-1.3-7.9-2.2-11.3c-0.9-3.4-1.9-6.2-3-8.5c2.1,0.7,4.3,1.1,6.6,1.4
		c2.3,0.3,4.7,0.4,7,0.4c2.2,0,4.3-0.1,6.5-0.3s4.3-0.4,6.4-0.6c2.1-0.2,4.2-0.4,6.1-0.6s3.8-0.3,5.6-0.3c1.9,0,3.9,0.2,6.2,0.7
		c2.3,0.5,4.6,1.3,6.9,2.5c2.3,1.2,4.6,2.7,6.8,4.7c2.2,1.9,4.2,4.3,5.9,7.2c1.7,2.9,3.1,6.2,4.1,10.1
		C570.8,452.2,571.3,456.7,571.4,461.8z M533.7,472.6c1.1-1.1,2.4-2.3,3.8-3.9c1.4-1.5,2.8-3.2,4.1-5c1.3-1.8,2.3-3.6,3.2-5.5
		c0.9-1.9,1.3-3.7,1.3-5.4c0-2-0.6-3.6-1.7-4.7c-1.1-1.2-2.4-1.8-3.7-1.8c-1.2,0-2.3,0.4-3.1,1.3c-0.8,0.8-1.5,1.9-2,3.3
		c-0.5,1.3-0.9,2.8-1.2,4.5c-0.3,1.7-0.5,3.3-0.6,4.9c-0.1,1.6-0.2,3.1-0.2,4.5s0,2.5,0,3.3c0,0.8,0,1.5,0,2.2
		C533.5,471,533.6,471.8,533.7,472.6z"/>
</g>
<g id="XMLID_1465_">
	<circle id="XMLID_1550_" class="st5" cx="315.6" cy="233.8" r="7.6"/>
	<circle id="XMLID_1549_" class="st5" cx="317.7" cy="246.7" r="7.6"/>
	<circle id="XMLID_1548_" class="st5" cx="316.8" cy="256" r="7.6"/>
	<circle id="XMLID_1547_" class="st5" cx="273.1" cy="263.7" r="7.6"/>
	<path id="XMLID_1546_" class="st6" d="M318.6,261.4c-2.4,8.6-6.4,16-20.8,18.8c0,0-8.3,5.2-8.5,14.9c-0.2,9.7-25.3,3.1-18.5-8.7
		c6.8-11.8,3.9-28,1.3-37.4c-2.6-9.4,3.3-26.4,15.2-29.6c4.7-1.3,14.7,2.2,20.6,7C317.9,234.4,322.1,248.8,318.6,261.4z"/>
	
		<ellipse id="XMLID_1545_" transform="matrix(9.419991e-02 -0.9956 0.9956 9.419991e-02 38.7178 534.9503)" cx="313.3" cy="246.2" rx="1.9" ry="1.3"/>
	
		<ellipse id="XMLID_1544_" transform="matrix(9.423656e-02 -0.9955 0.9955 9.423656e-02 29.6475 515.5736)" cx="298.2" cy="241.5" rx="1.9" ry="1.3"/>
	<g id="XMLID_1539_">
		<path id="XMLID_1543_" class="st7" d="M359.7,344.3c-13.4-16.3-41.7,10.9-51.9,17.3c-6.2,3.9-2.3-2.5-6,9.1
			c3.7,6.7,7.6,13.2,10.3,20.3c0.1-0.2,0.2-0.3,0.3-0.5c2.2-3,5.5-4.9,9.2-5.5c2.5-0.4,10.9,1.2,15.3,0.9c-2.6-4.7,5-8.9,8.3-4.2
			c0.4,0.6,0.6,1.1,0.9,1.7c0.8,0.4,1.3,1.1,1.6,1.8c7.8,6,23.7,18.3,27.5,23.1c2.1,2.6,5.1,6.4,8,9.9c3.3-1.8,6.9-3.1,10.5-4.5
			C387.9,399,370.7,357.6,359.7,344.3z"/>
		<g id="XMLID_1540_">
			<path id="XMLID_1542_" class="st8" d="M383.3,418.1l3.2,6.5c1.5,1.6,7.5,2.2,9,0.6l2.5-2.5l-6.3-8.3L383.3,418.1z"/>
			<path id="XMLID_1541_" d="M386.5,424.6c0,0-2,7.1,1.8,10.7c3.8,3.6,33.8-14.4,33.8-14.4s0.8-1.3-1.6-1.2l-17.2,1.5
				c0,0-7.8-0.4-10.7,1.6C390.1,424.5,386.5,424.6,386.5,424.6z"/>
		</g>
	</g>
	<path id="XMLID_1538_" class="st9" d="M252.9,383.5c0,0-9.9-3.3-19.3-0.5c-9.4,2.8,3.1,15.1,13,13.8
		C256.6,395.4,252.9,383.5,252.9,383.5z"/>
	<g id="XMLID_1533_">
		<g id="XMLID_1535_">
			<path id="XMLID_1537_" class="st8" d="M339,452.7l-3.9,7.6c-0.5,2.2,2.6,7.3,4.7,7.7l3.5,0.6l3.9-16.5L339,452.7z"/>
			<path id="XMLID_1536_" d="M335.1,460.3c0,0-6.9,2.5-7.7,7.7c-0.7,5.2,31.3,19.2,31.3,19.2s1.5-0.1,0-2L347.6,472
				c0,0-4.2-6.6-7.5-7.8C337.2,463.1,335.1,460.3,335.1,460.3z"/>
		</g>
		<path id="XMLID_1534_" class="st10" d="M371.2,367.1c-9-0.4-31.4,0.2-54.6,7.1c0,0-0.1-0.1-0.1-0.1l-74.5,9.2
			c-1.2,3-2.5,7.9-2.5,11.2c0,18.1,19.3,32.7,43.2,32.7c3.6,0,7-0.3,10.3-0.9c0,0,0,0,0,0c15-2.5,35.5-7.2,46.1-14.9
			c0,0,1.9,25.7-0.1,33.6c-0.8,3.3-2,7.9-3.1,12.3c3.6,1.6,7,3.6,10.5,5.6c8.3-13.5,31.7-52.4,35.8-69.2
			C387.3,373.2,380.5,367.4,371.2,367.1z"/>
	</g>
	<path id="XMLID_1532_" class="st11" d="M231.5,390c0,0,1.9-9.8,23.1-5.8c21.1,4,46-0.1,56.3-9.1c0,0,6.5-28.2-11.8-49.7
		c-4.1-4.8-5.9-10.9-5-16.9l0.3-2.2c1.1-7.3-1.5-14.7-7.1-20l0,0c-7.9-7.6-20.4-7.4-28.1,0.3C239.7,306.2,210.2,345.6,231.5,390z"/>
	<g id="XMLID_1516_">
		<g id="XMLID_1529_">
			<line id="XMLID_1531_" class="st8" x1="395.2" y1="284.7" x2="365.9" y2="361.6"/>
			<path id="XMLID_1530_" class="st9" d="M366.1,363.2c-0.3,0-0.5,0-0.8-0.1c-0.8-0.3-1.2-1.2-0.9-2l29.3-76.9
				c0.3-0.8,1.2-1.2,2-0.9c0.8,0.3,1.2,1.2,0.9,2l-29.3,76.9C367.1,362.7,366.6,363.1,366.1,363.2z"/>
		</g>
		<g id="XMLID_1527_">
			<path id="XMLID_1528_" class="st12" d="M291.6,372.9l75.7-9.9c0.4,0,0.7,0.2,0.7,0.6l0.4,2.8c0,0.4-0.2,0.7-0.6,0.7l-75.7,9.9
				c-0.4,0-0.7-0.2-0.7-0.6l-0.4-2.8C291,373.2,291.3,372.9,291.6,372.9z"/>
		</g>
		<g id="XMLID_1525_">
			
				<rect id="XMLID_1526_" x="358.7" y="364.9" transform="matrix(0.9916 -0.1294 0.1294 0.9916 -44.2888 49.844)" class="st13" width="5.7" height="1.8"/>
		</g>
		<g id="XMLID_1523_">
			
				<rect id="XMLID_1524_" x="350.4" y="366" transform="matrix(0.9916 -0.1294 0.1294 0.9916 -44.4969 48.7882)" class="st13" width="5.7" height="1.8"/>
		</g>
		<g id="XMLID_1521_">
			
				<rect id="XMLID_1522_" x="302" y="372.3" transform="matrix(0.9916 -0.1294 0.1294 0.9916 -45.7207 42.5789)" class="st13" width="5.7" height="1.8"/>
		</g>
		<g id="XMLID_1519_">
			
				<ellipse id="XMLID_1520_" transform="matrix(0.9916 -0.1294 0.1294 0.9916 -45.995 41.153)" class="st13" cx="293.8" cy="374.7" rx="0.9" ry="0.9"/>
		</g>
		<g id="XMLID_1517_">
			
				<ellipse id="XMLID_1518_" transform="matrix(0.9916 -0.1294 0.1294 0.9916 -45.8811 41.731)" class="st13" cx="298.3" cy="374.1" rx="0.9" ry="0.9"/>
		</g>
	</g>
	<polygon id="XMLID_1515_" class="st8" points="262.6,282 272.6,274.1 292.9,288.9 288.9,302.4 	"/>
	<g id="XMLID_1511_">
		<path id="XMLID_1514_" class="st14" d="M315.5,333.3c0,0,2.5,0.6,4.2-0.6s4.1-2.1,5.2-1.8c1.2,0.3,2.4,0.2,2.4-1.2
			c0-1.4-3.3-0.7-4.2-1.2C322.3,327.9,315.4,330.4,315.5,333.3z"/>
		<path id="XMLID_1513_" class="st6" d="M256.6,318.9c0,0-5.3,22.9,7.9,40.1c9.8,12.7,37,7.9,51-25.8l-7.5-5
			c0,0-11.2,16.4-19.3,18.9c-5.2,1.6-9.7-3.2-9.7-8.6c0-0.9,0.7-10.8,0.9-11.7L256.6,318.9z"/>
		<path id="XMLID_1512_" class="st6" d="M308,328.3c0,0,9.6-11.6,19.7-5.2c7.1,4.5,5.2,9,4.2,9c-1.2,0-1.6-1-2.1-2.1
			c-1.5-3.4-9.7-1.8-11.2,1.2c-0.7,1.3-2,2.3-5,2.3C310.5,333.5,308,328.3,308,328.3z"/>
	</g>
	<circle id="XMLID_1510_" class="st5" cx="309.1" cy="223.5" r="7.6"/>
	<circle id="XMLID_1509_" class="st5" cx="316.8" cy="221.1" r="7.6"/>
	<circle id="XMLID_1508_" class="st5" cx="298.2" cy="228.8" r="7.6"/>
	<circle id="XMLID_1507_" class="st5" cx="296.9" cy="215.9" r="7.6"/>
	<circle id="XMLID_1506_" class="st5" cx="287.1" cy="224.7" r="7.6"/>
	<circle id="XMLID_1505_" class="st5" cx="282.3" cy="218.9" r="7.6"/>
	<circle id="XMLID_1504_" class="st5" cx="274.6" cy="228.8" r="7.6"/>
	<circle id="XMLID_1503_" class="st5" cx="279.4" cy="233.8" r="7.6"/>
	<circle id="XMLID_1502_" class="st5" cx="288.4" cy="232.3" r="7.6"/>
	<circle id="XMLID_1501_" class="st5" cx="270.2" cy="238.6" r="7.6"/>
	<circle id="XMLID_1500_" class="st5" cx="277.9" cy="244.3" r="7.6"/>
	<circle id="XMLID_1499_" class="st5" cx="273.1" cy="250.4" r="7.6"/>
	<circle id="XMLID_1498_" class="st5" cx="263.7" cy="256" r="7.6"/>
	<circle id="XMLID_1497_" class="st5" cx="263.7" cy="247.3" r="7.6"/>
	<circle id="XMLID_1496_" class="st5" cx="262.6" cy="235.7" r="7.6"/>
	<circle id="XMLID_1495_" class="st5" cx="267" cy="224.7" r="7.6"/>
	<circle id="XMLID_1494_" class="st5" cx="274.6" cy="215.9" r="7.6"/>
	<circle id="XMLID_1493_" class="st5" cx="288.4" cy="210.3" r="7.6"/>
	<circle id="XMLID_1492_" class="st5" cx="307.3" cy="211.3" r="7.6"/>
	<circle id="XMLID_1491_" class="st5" cx="300.6" cy="211.3" r="7.6"/>
	<polygon id="XMLID_1490_" class="st15" points="308.9,237 309.3,256.4 300,253.1 	"/>
	<g id="XMLID_1472_">
		<g id="XMLID_1487_">
			<g id="XMLID_1488_">
				<path id="XMLID_1489_" class="st8" d="M302.8,262.8c0,0,2.2-0.3,3.8,0.3c1.6,0.6,2.9,1.8,2.4,3.9c-0.5,2.1-3,2.8-5.8,3
					c-1.7,0.2-6.6-0.9-8.7-3.1c-2-2.2-3-3.7-2.9-5.6c0.1-1.9,2.2-3.1,3.7-3.1c1.5,0,2.7,1.3,3.1,2
					C298.9,260.9,300,262.8,302.8,262.8z"/>
			</g>
		</g>
		<path id="XMLID_1486_" class="st16" d="M294,259.6l-0.1-0.1c-0.2-0.2-0.2-0.4-0.1-0.6l0,0c0.2-0.2,0.4-0.2,0.6-0.1l0.1,0.1
			c0.2,0.2,0.2,0.4,0.1,0.6l0,0C294.5,259.8,294.2,259.8,294,259.6z"/>
		<path id="XMLID_1485_" class="st16" d="M295.9,262.3l-0.1-0.1c-0.2-0.2-0.2-0.4-0.1-0.6l0,0c0.2-0.2,0.4-0.2,0.6-0.1l0.1,0.1
			c0.2,0.2,0.2,0.4,0.1,0.6l0,0C296.4,262.4,296.1,262.4,295.9,262.3z"/>
		<path id="XMLID_1484_" class="st16" d="M298.6,264.3l-0.1-0.1c-0.2-0.2-0.2-0.4-0.1-0.6l0,0c0.2-0.2,0.4-0.2,0.6-0.1l0.1,0.1
			c0.2,0.2,0.2,0.4,0.1,0.6l0,0C299.1,264.5,298.8,264.5,298.6,264.3z"/>
		<path id="XMLID_1483_" class="st16" d="M301.6,265.6l-0.2-0.1c-0.2-0.1-0.4-0.3-0.3-0.6l0,0c0.1-0.2,0.3-0.4,0.6-0.3l0.2,0.1
			c0.2,0.1,0.4,0.3,0.3,0.6l0,0C302,265.6,301.8,265.7,301.6,265.6z"/>
		<path id="XMLID_1482_" class="st16" d="M304.7,265.8h-0.2c-0.2,0-0.4-0.2-0.4-0.4l0,0c0-0.2,0.2-0.4,0.4-0.4h0.2
			c0.2,0,0.4,0.2,0.4,0.4l0,0C305.1,265.6,304.9,265.8,304.7,265.8z"/>
		<path id="XMLID_1481_" class="st16" d="M308.1,265.6h-0.2c-0.2,0-0.4-0.2-0.4-0.4l0,0c0-0.2,0.2-0.4,0.4-0.4h0.2
			c0.2,0,0.4,0.2,0.4,0.4l0,0C308.6,265.4,308.4,265.6,308.1,265.6z"/>
		<path id="XMLID_1480_" class="st16" d="M292.6,263l-0.1-0.1c-0.2-0.2-0.2-0.4-0.1-0.6l0,0c0.2-0.2,0.4-0.2,0.6-0.1l0.1,0.1
			c0.2,0.2,0.2,0.4,0.1,0.6l0,0C293.1,263.1,292.8,263.2,292.6,263z"/>
		<path id="XMLID_1479_" class="st16" d="M294.6,265.6l-0.1-0.1c-0.2-0.2-0.2-0.4-0.1-0.6l0,0c0.2-0.2,0.4-0.2,0.6-0.1l0.1,0.1
			c0.2,0.2,0.2,0.4,0.1,0.6l0,0C295,265.8,294.8,265.8,294.6,265.6z"/>
		<path id="XMLID_1478_" class="st16" d="M297.3,267.7l-0.1-0.1c-0.2-0.2-0.2-0.4-0.1-0.6l0,0c0.2-0.2,0.4-0.2,0.6-0.1l0.1,0.1
			c0.2,0.2,0.2,0.4,0.1,0.6l0,0C297.7,267.8,297.5,267.8,297.3,267.7z"/>
		<path id="XMLID_1477_" class="st16" d="M300.2,269l-0.2-0.1c-0.2-0.1-0.4-0.3-0.3-0.6l0,0c0.1-0.2,0.3-0.4,0.6-0.3l0.2,0.1
			c0.2,0.1,0.4,0.3,0.3,0.6l0,0C300.7,269,300.4,269.1,300.2,269z"/>
		<path id="XMLID_1476_" class="st16" d="M303.3,269.1h-0.2c-0.2,0-0.4-0.2-0.4-0.4l0,0c0-0.2,0.2-0.4,0.4-0.4h0.2
			c0.2,0,0.4,0.2,0.4,0.4l0,0C303.8,268.9,303.6,269.1,303.3,269.1z"/>
		<path id="XMLID_1475_" class="st16" d="M306.8,269h-0.2c-0.2,0-0.4-0.2-0.4-0.4l0,0c0-0.2,0.2-0.4,0.4-0.4h0.2
			c0.2,0,0.4,0.2,0.4,0.4l0,0C307.2,268.8,307,269,306.8,269z"/>
		<path id="XMLID_1474_" class="st17" d="M293.7,258.5c0,0,3.6,9.1,15.1,6.4"/>
		<path id="XMLID_1473_" class="st17" d="M291.8,260.5c0,0,3.8,11.4,16,8"/>
	</g>
	<path id="XMLID_1471_" class="st8" d="M383.3,224.7"/>
	
		<ellipse id="XMLID_1470_" transform="matrix(0.2945 -0.9557 0.9557 0.2945 -30.9258 455.759)" class="st18" cx="293.2" cy="248.8" rx="2.6" ry="5.6"/>
	
		<ellipse id="XMLID_1469_" transform="matrix(0.2945 -0.9557 0.9557 0.2945 -24.6375 482.0329)" class="st18" cx="314.1" cy="257.7" rx="2.6" ry="4.5"/>
	<path id="XMLID_1468_" class="st19" d="M319.5,257.3l-7.6-1.8c-1.9-0.5-3-2.4-2.6-4.3l2.3-9.2c0.5-1.9,2.4-3,4.3-2.6l7.6,1.8
		c1.9,0.5,3,2.4,2.6,4.3l-2.3,9.2C323.3,256.6,321.4,257.8,319.5,257.3z"/>
	<path id="XMLID_1467_" class="st19" d="M301.7,251.1l-7.6-1.8c-1.9-0.5-3-2.4-2.6-4.3l2.3-9.2c0.5-1.9,2.4-3,4.3-2.6l7.6,1.8
		c1.9,0.5,3,2.4,2.6,4.3l-2.3,9.2C305.5,250.4,303.6,251.5,301.7,251.1z"/>
	<line id="XMLID_1466_" class="st19" x1="307.9" y1="240.4" x2="311.7" y2="241.8"/>
</g>
<g id="XMLID_757_">
	<g id="XMLID_1433_">
		<g id="XMLID_1457_">
			
				<ellipse id="XMLID_1464_" transform="matrix(0.9854 -0.1701 0.1701 0.9854 -56.3384 35.5893)" class="st20" cx="179.5" cy="346.5" rx="17.3" ry="17.3"/>
			
				<ellipse id="XMLID_1463_" transform="matrix(0.4168 -0.909 0.909 0.4168 -112.2739 311.1149)" class="st20" cx="186.3" cy="243.1" rx="17.3" ry="17.3"/>
			
				<ellipse id="XMLID_1462_" transform="matrix(0.8577 -0.5141 0.5141 0.8577 -47.4462 151.757)" class="st20" cx="250.4" cy="161.6" rx="17.3" ry="17.3"/>
			
				<ellipse id="XMLID_1461_" transform="matrix(6.085394e-02 -0.9981 0.9981 6.085394e-02 197.7106 471.4621)" class="st20" cx="349.4" cy="130.7" rx="17.3" ry="17.3"/>
			
				<ellipse id="XMLID_1460_" transform="matrix(0.6145 -0.7889 0.7889 0.6145 45.799 415.9212)" class="st20" cx="448.5" cy="161.1" rx="17.3" ry="17.3"/>
			
				<ellipse id="XMLID_1459_" transform="matrix(0.9529 -0.3033 0.3033 0.9529 -49.299 167.0018)" class="st20" cx="513" cy="242.2" rx="17.3" ry="17.3"/>
			
				<ellipse id="XMLID_1458_" transform="matrix(0.2886 -0.9575 0.9575 0.2886 39.2901 744.1522)" class="st20" cx="520.4" cy="345.6" rx="17.3" ry="17.3"/>
		</g>
		<g id="XMLID_1451_">
			<g>
				<line class="st21" x1="350.4" y1="147.9" x2="350.5" y2="148.9"/>
				<line class="st22" x1="350.9" y1="155.9" x2="364" y2="360.1"/>
				<line class="st21" x1="364.2" y1="363.6" x2="364.3" y2="364.6"/>
			</g>
		</g>
		<g id="XMLID_1445_">
			<g>
				<line class="st21" x1="442.1" y1="177.2" x2="441.7" y2="178.1"/>
				<line class="st23" x1="439.1" y1="184.4" x2="365.9" y2="360"/>
				<line class="st21" x1="364.6" y1="363.2" x2="364.2" y2="364.1"/>
			</g>
		</g>
		<line id="XMLID_1442_" class="st24" x1="259.3" y1="176.4" x2="364.9" y2="365.5"/>
		<line id="XMLID_1439_" class="st24" x1="202" y1="250.3" x2="365.9" y2="365.5"/>
		<line id="XMLID_1436_" class="st24" x1="196.8" y1="346.5" x2="365.5" y2="365.5"/>
		<line id="XMLID_1435_" class="st24" x1="503.1" y1="350.3" x2="365.9" y2="364.6"/>
		<line id="XMLID_1434_" class="st24" x1="498.7" y1="251.8" x2="367" y2="363.2"/>
	</g>
	<g id="XMLID_1106_">
		<g id="XMLID_1164_">
			<g id="XMLID_1177_">
				<path id="XMLID_1178_" class="st25" d="M172.2,353.7c-3.7,0-6.8-3-6.8-6.8c0-3.7,3-6.8,6.8-6.8c3.7,0,6.8,3,6.8,6.8
					C179,350.7,175.9,353.7,172.2,353.7z M172.2,341.4c-3.1,0-5.6,2.5-5.6,5.6c0,3.1,2.5,5.6,5.6,5.6c3.1,0,5.6-2.5,5.6-5.6
					C177.8,343.9,175.3,341.4,172.2,341.4z"/>
			</g>
			<g id="XMLID_1175_">
				<path id="XMLID_1176_" class="st25" d="M167.9,347.5c-0.3,0-0.6-0.3-0.6-0.6c0-2.7,2.2-4.9,4.9-4.9c0.3,0,0.6,0.3,0.6,0.6
					c0,0.3-0.3,0.6-0.6,0.6c-2,0-3.7,1.7-3.7,3.7C168.5,347.3,168.2,347.5,167.9,347.5z"/>
			</g>
			<g id="XMLID_1173_">
				<path id="XMLID_1174_" class="st25" d="M182.7,347.5c-0.3,0-0.6-0.3-0.6-0.6c0-2.7,2.2-4.9,4.9-4.9c0.3,0,0.6,0.3,0.6,0.6
					c0,0.3-0.3,0.6-0.6,0.6c-2,0-3.7,1.7-3.7,3.7C183.3,347.3,183,347.5,182.7,347.5z"/>
			</g>
			<g id="XMLID_1169_">
				<path id="XMLID_1170_" class="st25" d="M186.7,353.7c-3.7,0-6.8-3-6.8-6.8c0-3.7,3-6.8,6.8-6.8c3.7,0,6.8,3,6.8,6.8
					C193.5,350.7,190.5,353.7,186.7,353.7z M186.7,341.4c-3.1,0-5.6,2.5-5.6,5.6c0,3.1,2.5,5.6,5.6,5.6c3.1,0,5.6-2.5,5.6-5.6
					C192.3,343.9,189.8,341.4,186.7,341.4z"/>
			</g>
			<g id="XMLID_1167_">
				<path id="XMLID_1168_" class="st25" d="M174,340.8h10.6c0,0-4,1.1-4,7.1h-2.2C178.4,347.9,179.4,343.2,174,340.8z"/>
			</g>
			<g id="XMLID_1165_">
				<path id="XMLID_1166_" class="st25" d="M179.4,343L179.4,343c-0.8,0-1.4-0.6-1.4-1.4v-0.9c0-0.8,0.6-1.4,1.4-1.4l0,0
					c0.8,0,1.4,0.6,1.4,1.4v0.9C180.8,342.4,180.1,343,179.4,343z"/>
			</g>
		</g>
		<g id="XMLID_1160_">
			<rect id="XMLID_1163_" x="174.9" y="244.7" class="st25" width="5.6" height="8.5"/>
			<rect id="XMLID_1162_" x="183.5" y="239" class="st25" width="5.6" height="14.3"/>
			<rect id="XMLID_1161_" x="192.2" y="232.1" class="st25" width="5.6" height="21.2"/>
		</g>
		<path id="XMLID_1154_" class="st25" d="M264.3,165.4l-3.3-8.7h0.3c0-1.1-0.9-1.9-1.9-1.9h-7.5c0-0.1,0-0.1,0-0.2v-1.9
			c0-0.3-0.1-0.6-0.3-0.8c0-0.1,0.1-0.2,0.1-0.3c0-0.3-0.1-0.5-0.3-0.6v-1.3c0.2-0.1,0.3-0.4,0.3-0.6c0-0.4-0.4-0.8-0.8-0.8
			c-0.4,0-0.8,0.4-0.8,0.8c0,0.3,0.1,0.5,0.3,0.6v1.3c-0.2,0.1-0.3,0.4-0.3,0.6c0,0.1,0,0.2,0.1,0.3c-0.2,0.2-0.3,0.5-0.3,0.8v1.9
			c0,0.1,0,0.1,0,0.2h-8.5c-1.1,0-1.9,0.9-1.9,1.9h0.6l-3.3,8.7l0.1,0c0,0,0,0,0,0c0,0.1,0,0.1,0.1,0.2c0.6,1.1,1.8,1.9,3.2,1.9
			c1.4,0,2.6-0.8,3.2-1.9c0.1,0,0.1-0.1,0.1-0.2c0,0,0,0,0,0l0,0l-3.3-8.7h9.4c-0.2,1.6-0.3,3.5-0.3,5.5c0,3.1,0.3,5.8,0.6,7.6v0.8
			h-4.4c-1.1,0-1.9,0.9-1.9,1.9h14.8c0-1.1-0.9-1.9-1.9-1.9h-4.4v-0.8c0.4-1.8,0.6-4.5,0.6-7.6c0-2-0.1-3.9-0.3-5.5h8.8l-3.3,8.7
			l0,0c0,0,0,0,0,0c0,0.1,0.1,0.2,0.1,0.2c0.6,1.1,1.8,1.9,3.2,1.9c1.4,0,2.6-0.8,3.2-1.9C264.2,165.5,264.3,165.5,264.3,165.4
			C264.3,165.4,264.3,165.4,264.3,165.4L264.3,165.4z M236.8,165.2l3-7.8v7.8H236.8z M240,165.2v-7.8l3,7.8H240z M261.1,165.2v-7.8
			l3,7.8H261.1z M260.9,165.2h-3l3-7.8V165.2z"/>
		<g id="XMLID_1147_">
			<g id="XMLID_1151_">
				<rect id="XMLID_1153_" x="341.2" y="124.7" class="st25" width="6" height="17.4"/>
				<polygon id="XMLID_1152_" class="st25" points="344.4,117.8 338.7,124.9 349.9,124.9 				"/>
			</g>
			<g id="XMLID_1148_">
				<rect id="XMLID_1150_" x="351.4" y="130.6" class="st25" width="6" height="11.6"/>
				<polygon id="XMLID_1149_" class="st25" points="354.6,123.7 348.9,130.8 360.1,130.8 				"/>
			</g>
		</g>
		<g id="XMLID_1139_">
			<g id="XMLID_1142_">
				<path id="XMLID_1144_" class="st25" d="M452.8,163.2c-1.3,0-2.7-0.4-3.9-1.1c-1.6-1-2.7-2.6-3.1-4.5c-0.4-1.9,0-3.8,1-5.4
					c1-1.6,2.6-2.7,4.5-3.1c1.9-0.4,3.8,0,5.4,1c3.3,2.1,4.2,6.6,2.1,9.9v0C457.4,162.1,455.1,163.2,452.8,163.2z M452.8,151.1
					c-0.4,0-0.7,0-1.1,0.1c-1.3,0.3-2.4,1.1-3.2,2.2c-0.7,1.1-1,2.5-0.7,3.8c0.3,1.3,1.1,2.4,2.2,3.2c2.3,1.5,5.4,0.8,6.9-1.5
					c1.5-2.3,0.8-5.4-1.5-6.9C454.7,151.4,453.7,151.1,452.8,151.1z"/>
			</g>
			<g id="XMLID_1140_">
				<path id="XMLID_1141_" class="st25" d="M442.4,173.2c-0.2,0-0.4-0.1-0.6-0.2c-0.5-0.3-0.6-1-0.3-1.5l7.1-10.9
					c0.3-0.5,1-0.6,1.5-0.3c0.5,0.3,0.6,1,0.3,1.5l-7.1,10.9C443.1,173.1,442.8,173.2,442.4,173.2z"/>
			</g>
		</g>
		<g id="XMLID_1124_">
			<g id="XMLID_1132_">
				<circle id="XMLID_1134_" class="st25" cx="513" cy="237.9" r="3.9"/>
				<path id="XMLID_1133_" class="st25" d="M519.5,250.5h-13v-4.3c0-3.6,2.9-6.5,6.5-6.5l0,0c3.6,0,6.5,2.9,6.5,6.5V250.5z"/>
			</g>
			<g id="XMLID_1129_">
				<circle id="XMLID_1131_" class="st25" cx="520.9" cy="240.3" r="2.5"/>
				<path id="XMLID_1130_" class="st25" d="M525,248.3h-8.3v-2.7c0-2.3,1.9-4.2,4.2-4.2l0,0c2.3,0,4.2,1.9,4.2,4.2V248.3z"/>
			</g>
			<g id="XMLID_1126_">
				<circle id="XMLID_1128_" class="st25" cx="505.3" cy="240.3" r="2.5"/>
				<path id="XMLID_1127_" class="st25" d="M509.4,248.3h-8.3v-2.7c0-2.3,1.9-4.2,4.2-4.2l0,0c2.3,0,4.2,1.9,4.2,4.2V248.3z"/>
			</g>
		</g>
		<g id="XMLID_1107_">
			<g id="XMLID_1116_">
				<path id="XMLID_1121_" class="st25" d="M520.4,357.1c-6.3,0-11.4-5.1-11.4-11.4c0-6.3,5.1-11.4,11.4-11.4s11.4,5.1,11.4,11.4
					C531.8,351.9,526.7,357.1,520.4,357.1z M520.4,335.3c-5.7,0-10.4,4.7-10.4,10.4c0,5.7,4.7,10.4,10.4,10.4
					c5.7,0,10.4-4.7,10.4-10.4C530.8,339.9,526.1,335.3,520.4,335.3z"/>
			</g>
			<g id="XMLID_1114_">
				<rect id="XMLID_1115_" x="519.9" y="335.1" class="st25" width="1.1" height="21.5"/>
			</g>
			<g id="XMLID_1112_">
				<path id="XMLID_1113_" class="st25" d="M519.3,356.9c-4.4-5.2-6.3-10.1-5.5-14.5c1-5.3,5.5-7.9,5.7-8l0.5,0.9
					c0,0-4.3,2.5-5.1,7.3c-0.7,4.1,1.1,8.6,5.3,13.6L519.3,356.9z"/>
			</g>
			<g id="XMLID_1110_">
				<path id="XMLID_1111_" class="st25" d="M521.8,356.9l-0.8-0.7c4.2-5,6-9.5,5.3-13.6c-0.9-4.9-5.1-7.3-5.1-7.3l0.5-0.9
					c0.2,0.1,4.7,2.7,5.7,8C528.1,346.7,526.2,351.6,521.8,356.9z"/>
			</g>
			<g id="XMLID_1108_">
				<rect id="XMLID_1109_" x="509.5" y="345.1" class="st25" width="21.8" height="1.1"/>
			</g>
		</g>
	</g>
</g>
</svg>
