<svg id="Layer_1" data-name="Layer 1" xmlns="http://www.w3.org/2000/svg" xmlns:xlink="http://www.w3.org/1999/xlink" viewBox="0 0 580.91 453.93"><defs><style>.cls-1{fill:url(#linear-gradient);}.cls-2{fill:#f4c74a;}.cls-3{opacity:0.4;}.cls-4{font-size:19.88px;fill:#333;}.cls-4,.cls-5{font-family:SpicyRice-Regular, Spicy Rice;}.cls-5{font-size:114.65px;fill:#fbb03b;}.cls-6{fill:#1d1d1b;}.cls-7{fill:#ffcb9c;}.cls-8{fill:#1e223f;}.cls-21,.cls-9{fill:#fff;}.cls-10{fill:#dadada;}.cls-11{fill:#292b51;}.cls-12{fill:#efefef;}.cls-13{fill:#b2b2b2;}.cls-14{fill:#706f6f;}.cls-15{fill:#ffbb83;}.cls-16,.cls-19{fill:#ff6252;}.cls-17{fill:#c6c6c6;}.cls-18,.cls-20,.cls-22,.cls-23,.cls-24,.cls-25{fill:none;stroke-miterlimit:10;}.cls-18{stroke:#c6c6c6;stroke-width:0.3px;}.cls-19{opacity:0.54;}.cls-20{stroke:#1d1d1b;}.cls-21{opacity:0.62;}.cls-22,.cls-23,.cls-24,.cls-25{stroke:#fff;}.cls-23{stroke-dasharray:2.04 7.15;}.cls-24{stroke-dasharray:2.01 7.02;}.cls-25{stroke-dasharray:2 7;}.cls-26{fill:#f99;}</style><linearGradient id="linear-gradient" x1="450.13" y1="618.76" x2="448.85" y2="76.13" gradientUnits="userSpaceOnUse"><stop offset="0.1" stop-color="#4a69bd"/><stop offset="0.35" stop-color="#368baf"/><stop offset="0.6" stop-color="#27a6a5"/><stop offset="0.82" stop-color="#1db69e"/><stop offset="1" stop-color="#1abc9c"/></linearGradient></defs><title>SIGN UP</title><path class="cls-1" d="M721,427.23c0,114.24-158,147.66-286.2,147.66-133.9,0-256.43-10.09-256.43-141s87.89-306.25,221.79-306.25S721,346.41,721,427.23Z" transform="translate(-140.09 -127.66)"/><path class="cls-2" d="M178.37,433.91c0-130.22,87-304.46,219.75-306.23l-1.61,0c-177.43,0-256.43,180.73-256.43,309s122.53,138.2,256.43,138.2q7,0,14.19-.14C286.55,573.23,178.37,556.89,178.37,433.91Z" transform="translate(-140.09 -127.66)"/><g class="cls-3"><text class="cls-4" transform="matrix(5.7, 0, 0, -1, 91.17, 413.78)">SIGN UP</text></g><text class="cls-5" transform="translate(89.04 412.89)">SIGN UP</text><g id="_Group_" data-name="&lt;Group&gt;"><circle id="_Path_" data-name="&lt;Path&gt;" class="cls-6" cx="261.29" cy="170.94" r="6.48"/><circle id="_Path_2" data-name="&lt;Path&gt;" class="cls-6" cx="263.08" cy="181.82" r="6.48"/><circle id="_Path_3" data-name="&lt;Path&gt;" class="cls-6" cx="262.3" cy="189.72" r="6.48"/><circle id="_Path_4" data-name="&lt;Path&gt;" class="cls-6" cx="225.32" cy="196.2" r="6.48"/><path id="_Path_5" data-name="&lt;Path&gt;" class="cls-7" d="M403.94,321.89c-2,7.29-5.42,13.52-17.63,15.9,0,0-7,4.37-7.17,12.58S357.71,353,363.45,343s3.32-23.73,1.09-31.7,2.84-22.37,12.87-25.09c3.94-1.07,12.46,1.83,17.48,5.94C403.4,299.07,406.89,311.3,403.94,321.89Z" transform="translate(-140.09 -127.66)"/><ellipse id="_Path_6" data-name="&lt;Path&gt;" cx="399.5" cy="309.06" rx="1.59" ry="1.1" transform="translate(-85.91 550.01) rotate(-84.59)"/><ellipse id="_Path_7" data-name="&lt;Path&gt;" cx="386.65" cy="305.07" rx="1.59" ry="1.1" transform="translate(-93.59 533.6) rotate(-84.59)"/><g id="_Group_2" data-name="&lt;Group&gt;"><path id="_Path_8" data-name="&lt;Path&gt;" class="cls-8" d="M438.77,392.14c-11.31-13.77-35.33,9.2-43.92,14.64-5.21,3.3-1.93-2.07-5.06,7.69,3.14,5.68,6.48,11.18,8.75,17.16.09-.14.17-.29.27-.42a11.9,11.9,0,0,1,7.77-4.68c2.14-.35,9.26,1,13,.73-2.23-4,4.24-7.54,7-3.57a6.38,6.38,0,0,1,.73,1.45,3.11,3.11,0,0,1,1.37,1.56c6.62,5.05,20.08,15.51,23.31,19.54,1.78,2.22,4.34,5.38,6.75,8.35a83.87,83.87,0,0,1,8.88-3.83C462.64,438.49,448,403.43,438.77,392.14Z" transform="translate(-140.09 -127.66)"/><g id="_Group_3" data-name="&lt;Group&gt;"><path id="_Path_9" data-name="&lt;Path&gt;" class="cls-9" d="M458.74,454.61l2.73,5.5c1.26,1.38,6.32,1.85,7.63.51l2.11-2.16-5.37-7Z" transform="translate(-140.09 -127.66)"/><path id="_Path_10" data-name="&lt;Path&gt;" d="M461.47,460.11s-1.7,6,1.54,9.1S491.62,457,491.62,457s.69-1.06-1.37-1l-14.59,1.24s-6.59-.38-9.1,1.33A10.94,10.94,0,0,1,461.47,460.11Z" transform="translate(-140.09 -127.66)"/></g></g><path id="_Path_11" data-name="&lt;Path&gt;" class="cls-10" d="M348.36,425.3s-8.42-2.81-16.38-.45,2.62,12.76,11,11.67S348.36,425.3,348.36,425.3Z" transform="translate(-140.09 -127.66)"/><g id="_Group_4" data-name="&lt;Group&gt;"><g id="_Group_5" data-name="&lt;Group&gt;"><path id="_Path_12" data-name="&lt;Path&gt;" class="cls-9" d="M421.2,483.92l-3.27,6.43c-.39,1.83,2.16,6.22,4,6.51l3,.47,3.32-14Z" transform="translate(-140.09 -127.66)"/><path id="_Path_13" data-name="&lt;Path&gt;" d="M417.93,490.35s-5.88,2.11-6.51,6.53S438,513.1,438,513.1s1.26-.05,0-1.68l-9.48-11.16s-3.52-5.58-6.37-6.63A10.94,10.94,0,0,1,417.93,490.35Z" transform="translate(-140.09 -127.66)"/></g><path id="_Path_14" data-name="&lt;Path&gt;" class="cls-11" d="M448.49,411.42a153.45,153.45,0,0,0-46.26,6l-.1-.1-63.05,7.8a29.67,29.67,0,0,0-2.11,9.5c0,15.3,16.38,27.7,36.59,27.7a47.89,47.89,0,0,0,8.76-.8h0c12.67-2.11,30.07-6.06,39.07-12.58,0,0,1.6,21.74-.12,28.46-.71,2.76-1.7,6.72-2.63,10.44a89.49,89.49,0,0,1,8.88,4.7c7.05-11.44,26.89-44.4,30.35-58.62C462.1,416.58,456.35,411.73,448.49,411.42Z" transform="translate(-140.09 -127.66)"/></g><path id="_Path_15" data-name="&lt;Path&gt;" class="cls-12" d="M330.16,430.84s1.64-8.3,19.54-4.87,38.93-.13,47.67-7.73c0,0,5.52-23.86-10-42a17.87,17.87,0,0,1-4.24-14.27l.28-1.89a19.49,19.49,0,0,0-6-17h0a17,17,0,0,0-23.76.26C337.14,359.88,312.19,393.21,330.16,430.84Z" transform="translate(-140.09 -127.66)"/><g id="_Group_6" data-name="&lt;Group&gt;"><g id="_Group_7" data-name="&lt;Group&gt;"><line id="_Path_16" data-name="&lt;Path&gt;" class="cls-9" x1="328.69" y1="213.98" x2="303.88" y2="279.13"/><path id="_Path_17" data-name="&lt;Path&gt;" class="cls-10" d="M444.14,408.12a1.32,1.32,0,0,1-.65-.08,1.34,1.34,0,0,1-.78-1.73l24.81-65.15a1.34,1.34,0,0,1,2.51,1l-24.81,65.15A1.34,1.34,0,0,1,444.14,408.12Z" transform="translate(-140.09 -127.66)"/></g><g id="_Group_8" data-name="&lt;Group&gt;"><rect id="_Rectangle_" data-name="&lt;Rectangle&gt;" class="cls-13" x="380.53" y="412.11" width="65.77" height="3.51" rx="0.66" ry="0.66" transform="translate(-190.16 -70.69) rotate(-7.43)"/></g><g id="_Group_9" data-name="&lt;Group&gt;"><rect id="_Rectangle_2" data-name="&lt;Rectangle&gt;" class="cls-14" x="437.88" y="409.61" width="4.85" height="1.51" transform="translate(-189.48 -67.25) rotate(-7.43)"/></g><g id="_Group_10" data-name="&lt;Group&gt;"><rect id="_Rectangle_3" data-name="&lt;Rectangle&gt;" class="cls-14" x="430.91" y="410.52" width="4.85" height="1.51" transform="translate(-189.65 -68.14) rotate(-7.43)"/></g><g id="_Group_11" data-name="&lt;Group&gt;"><rect id="_Rectangle_4" data-name="&lt;Rectangle&gt;" class="cls-14" x="389.91" y="415.87" width="4.85" height="1.51" transform="translate(-190.69 -73.4) rotate(-7.43)"/></g><g id="_Group_12" data-name="&lt;Group&gt;"><circle id="_Path_18" data-name="&lt;Path&gt;" class="cls-14" cx="382.96" cy="417.84" r="0.75" transform="translate(-190.92 -74.61) rotate(-7.43)"/></g><g id="_Group_13" data-name="&lt;Group&gt;"><circle id="_Path_19" data-name="&lt;Path&gt;" class="cls-14" cx="386.78" cy="417.35" r="0.75" transform="translate(-190.82 -74.12) rotate(-7.43)"/></g></g><polygon id="_Path_20" data-name="&lt;Path&gt;" class="cls-9" points="216.41 211.72 224.93 205.04 242.12 217.59 238.75 228.97 216.41 211.72"/><g id="_Group_14" data-name="&lt;Group&gt;"><path id="_Path_21" data-name="&lt;Path&gt;" class="cls-15" d="M401.3,382.8a4.72,4.72,0,0,0,3.56-.52c1.46-1.07,3.43-1.74,4.45-1.52s2,.16,2-1-2.83-.58-3.53-1.05S401.28,380.39,401.3,382.8Z" transform="translate(-140.09 -127.66)"/><path id="_Path_22" data-name="&lt;Path&gt;" class="cls-7" d="M351.42,370.64s-4.52,19.41,6.69,34c8.29,10.76,31.33,6.67,43.19-21.81L395,378.61s-9.48,13.87-16.32,16c-4.39,1.39-8.19-2.69-8.25-7.3,0-.78.58-9.18.78-9.91Z" transform="translate(-140.09 -127.66)"/><path id="_Path_23" data-name="&lt;Path&gt;" class="cls-7" d="M395,378.61s8.16-9.79,16.69-4.39c6,3.8,4.37,7.62,3.52,7.6s-1.36-.81-1.77-1.77c-1.23-2.87-8.22-1.5-9.48,1-.56,1.11-1.66,2-4.23,2S395,378.61,395,378.61Z" transform="translate(-140.09 -127.66)"/></g><circle id="_Path_24" data-name="&lt;Path&gt;" class="cls-6" cx="255.82" cy="162.2" r="6.48"/><circle id="_Path_25" data-name="&lt;Path&gt;" class="cls-6" cx="262.3" cy="160.17" r="6.48"/><circle id="_Path_26" data-name="&lt;Path&gt;" class="cls-6" cx="246.56" cy="166.64" r="6.48"/><circle id="_Path_27" data-name="&lt;Path&gt;" class="cls-6" cx="245.45" cy="155.72" r="6.48"/><circle id="_Path_28" data-name="&lt;Path&gt;" class="cls-6" cx="237.15" cy="163.18" r="6.48"/><circle id="_Path_29" data-name="&lt;Path&gt;" class="cls-6" cx="233.1" cy="158.29" r="6.48"/><circle id="_Path_30" data-name="&lt;Path&gt;" class="cls-6" cx="226.62" cy="166.64" r="6.48"/><circle id="_Path_31" data-name="&lt;Path&gt;" class="cls-6" cx="230.68" cy="170.94" r="6.48"/><circle id="_Path_32" data-name="&lt;Path&gt;" class="cls-6" cx="238.3" cy="169.65" r="6.48"/><circle id="_Path_33" data-name="&lt;Path&gt;" class="cls-6" cx="222.89" cy="174.93" r="6.48"/><circle id="_Path_34" data-name="&lt;Path&gt;" class="cls-6" cx="229.36" cy="179.82" r="6.48"/><circle id="_Path_35" data-name="&lt;Path&gt;" class="cls-6" cx="225.32" cy="184.95" r="6.48"/><circle id="_Path_36" data-name="&lt;Path&gt;" class="cls-6" cx="217.34" cy="189.73" r="6.48"/><circle id="_Path_37" data-name="&lt;Path&gt;" class="cls-6" cx="217.34" cy="182.31" r="6.48"/><circle id="_Path_38" data-name="&lt;Path&gt;" class="cls-6" cx="216.41" cy="172.53" r="6.48"/><circle id="_Path_39" data-name="&lt;Path&gt;" class="cls-6" cx="220.15" cy="163.18" r="6.48"/><circle id="_Path_40" data-name="&lt;Path&gt;" class="cls-6" cx="226.62" cy="155.72" r="6.48"/><circle id="_Path_41" data-name="&lt;Path&gt;" class="cls-6" cx="238.3" cy="151.01" r="6.48"/><circle id="_Path_42" data-name="&lt;Path&gt;" class="cls-6" cx="254.28" cy="151.81" r="6.48"/><circle id="_Path_43" data-name="&lt;Path&gt;" class="cls-6" cx="248.6" cy="151.81" r="6.48"/><polygon id="_Path_44" data-name="&lt;Path&gt;" class="cls-16" points="255.66 173.62 255.96 190.02 248.12 187.26 255.66 173.62"/><g id="_Group_15" data-name="&lt;Group&gt;"><g id="_Group_16" data-name="&lt;Group&gt;"><g id="_Group_17" data-name="&lt;Group&gt;"><path id="_Path_45" data-name="&lt;Path&gt;" class="cls-9" d="M390.56,323.12a7.55,7.55,0,0,1,3.22.22c1.32.51,2.42,1.5,2,3.26s-2.51,2.35-4.89,2.58c-1.4.13-5.62-.75-7.36-2.63s-2.53-3.15-2.43-4.78a3.1,3.1,0,0,1,3.15-2.62,3.38,3.38,0,0,1,2.64,1.72A4,4,0,0,0,390.56,323.12Z" transform="translate(-140.09 -127.66)"/></g></g><path id="_Path_46" data-name="&lt;Path&gt;" class="cls-17" d="M383.12,320.44l-.12-.1a.38.38,0,0,1,0-.54h0a.38.38,0,0,1,.54,0l.12.1a.38.38,0,0,1,0,.54h0A.38.38,0,0,1,383.12,320.44Z" transform="translate(-140.09 -127.66)"/><path id="_Path_47" data-name="&lt;Path&gt;" class="cls-17" d="M384.75,322.67l-.12-.1a.38.38,0,0,1,0-.54h0a.38.38,0,0,1,.54,0l.12.1a.38.38,0,0,1,0,.54h0A.38.38,0,0,1,384.75,322.67Z" transform="translate(-140.09 -127.66)"/><path id="_Path_48" data-name="&lt;Path&gt;" class="cls-17" d="M387,324.41l-.12-.1a.38.38,0,0,1,0-.54h0a.38.38,0,0,1,.54,0l.12.1a.38.38,0,0,1,0,.54h0A.38.38,0,0,1,387,324.41Z" transform="translate(-140.09 -127.66)"/><path id="_Path_49" data-name="&lt;Path&gt;" class="cls-17" d="M389.52,325.53l-.14-.05a.38.38,0,0,1-.23-.48h0a.38.38,0,0,1,.48-.23l.14.05a.38.38,0,0,1,.23.48h0A.38.38,0,0,1,389.52,325.53Z" transform="translate(-140.09 -127.66)"/><path id="_Path_50" data-name="&lt;Path&gt;" class="cls-17" d="M392.16,325.64H392a.38.38,0,0,1-.38-.38h0a.38.38,0,0,1,.38-.38h.15a.38.38,0,0,1,.38.38h0A.38.38,0,0,1,392.16,325.64Z" transform="translate(-140.09 -127.66)"/><path id="_Path_51" data-name="&lt;Path&gt;" class="cls-17" d="M395.08,325.5h-.15a.38.38,0,0,1-.38-.38h0a.38.38,0,0,1,.38-.38h.15a.38.38,0,0,1,.38.38h0A.38.38,0,0,1,395.08,325.5Z" transform="translate(-140.09 -127.66)"/><path id="_Path_52" data-name="&lt;Path&gt;" class="cls-17" d="M382,323.28l-.12-.1a.38.38,0,0,1,0-.54h0a.38.38,0,0,1,.54,0l.12.1a.38.38,0,0,1,0,.54h0A.38.38,0,0,1,382,323.28Z" transform="translate(-140.09 -127.66)"/><path id="_Path_53" data-name="&lt;Path&gt;" class="cls-17" d="M383.6,325.51l-.12-.1a.38.38,0,0,1,0-.54h0a.38.38,0,0,1,.54,0l.12.1a.38.38,0,0,1,0,.54h0A.38.38,0,0,1,383.6,325.51Z" transform="translate(-140.09 -127.66)"/><path id="_Path_54" data-name="&lt;Path&gt;" class="cls-17" d="M385.88,327.25l-.12-.1a.38.38,0,0,1,0-.54h0a.38.38,0,0,1,.54,0l.12.1a.38.38,0,0,1,0,.54h0A.38.38,0,0,1,385.88,327.25Z" transform="translate(-140.09 -127.66)"/><path id="_Path_55" data-name="&lt;Path&gt;" class="cls-17" d="M388.37,328.37l-.14-.05a.38.38,0,0,1-.23-.48h0a.38.38,0,0,1,.48-.23l.14.05a.38.38,0,0,1,.23.48h0A.38.38,0,0,1,388.37,328.37Z" transform="translate(-140.09 -127.66)"/><path id="_Path_56" data-name="&lt;Path&gt;" class="cls-17" d="M391,328.48h-.15a.38.38,0,0,1-.38-.38h0a.38.38,0,0,1,.38-.38H391a.38.38,0,0,1,.38.38h0A.38.38,0,0,1,391,328.48Z" transform="translate(-140.09 -127.66)"/><path id="_Path_57" data-name="&lt;Path&gt;" class="cls-17" d="M393.92,328.34h-.15a.38.38,0,0,1-.38-.38h0a.38.38,0,0,1,.38-.38h.15a.38.38,0,0,1,.38.38h0A.38.38,0,0,1,393.92,328.34Z" transform="translate(-140.09 -127.66)"/><path id="_Path_58" data-name="&lt;Path&gt;" class="cls-18" d="M382.86,319.47s3,7.67,12.79,5.4" transform="translate(-140.09 -127.66)"/><path id="_Path_59" data-name="&lt;Path&gt;" class="cls-18" d="M381.26,321.13s3.23,9.66,13.55,6.8" transform="translate(-140.09 -127.66)"/></g><path id="_Path_60" data-name="&lt;Path&gt;" class="cls-9" d="M458.74,290.83" transform="translate(-140.09 -127.66)"/><ellipse id="_Path_61" data-name="&lt;Path&gt;" class="cls-19" cx="382.45" cy="311.28" rx="2.22" ry="4.77" transform="translate(-167.74 457.46) rotate(-72.87)"/><ellipse id="_Path_62" data-name="&lt;Path&gt;" class="cls-19" cx="400.18" cy="318.8" rx="2.22" ry="3.81" transform="translate(-162.41 479.71) rotate(-72.87)"/><rect id="_Rectangle_5" data-name="&lt;Rectangle&gt;" class="cls-20" x="396.89" y="303.9" width="12.56" height="14.01" rx="3.52" ry="3.52" transform="translate(-54.72 -214.51) rotate(13.74)"/><path id="_Rectangle_6" data-name="&lt;Rectangle&gt;" class="cls-20" d="M385.33,298.6h5.51a3.53,3.53,0,0,1,3.53,3.53v7a3.53,3.53,0,0,1-3.53,3.53h-5.51a3.52,3.52,0,0,1-3.52-3.52v-7a3.52,3.52,0,0,1,3.52-3.52Z" transform="translate(-56.41 -211.08) rotate(13.74)"/><line id="_Path_63" data-name="&lt;Path&gt;" class="cls-20" x1="254.81" y1="176.52" x2="257.99" y2="177.65"/></g><g id="_Group_18" data-name="&lt;Group&gt;"><g id="_Group_19" data-name="&lt;Group&gt;"><g id="_Group_20" data-name="&lt;Group&gt;"><circle id="_Path_64" data-name="&lt;Path&gt;" class="cls-21" cx="286.14" cy="393.99" r="14.64" transform="matrix(0.99, -0.17, 0.17, 0.99, -202.95, -73.22)"/><circle id="_Path_65" data-name="&lt;Path&gt;" class="cls-21" cx="291.94" cy="306.4" r="14.64" transform="translate(-248.34 316.41) rotate(-65.37)"/><circle id="_Path_66" data-name="&lt;Path&gt;" class="cls-21" cx="346.24" cy="237.42" r="14.64" transform="translate(-212.89 84.14) rotate(-30.94)"/><circle id="_Path_67" data-name="&lt;Path&gt;" class="cls-21" cx="430.03" cy="211.22" r="14.64" transform="translate(52.94 499.95) rotate(-86.51)"/><circle id="_Path_68" data-name="&lt;Path&gt;" class="cls-21" cx="513.96" cy="236.99" r="14.64" transform="translate(-128.93 369.16) rotate(-52.08)"/><circle id="_Path_69" data-name="&lt;Path&gt;" class="cls-21" cx="568.61" cy="305.7" r="14.64" transform="translate(-206.02 59.19) rotate(-17.65)"/><circle id="_Path_70" data-name="&lt;Path&gt;" class="cls-21" cx="574.85" cy="393.26" r="14.64" transform="translate(-107.67 702.5) rotate(-73.23)"/></g><g id="_Group_21" data-name="&lt;Group&gt;"><line class="cls-22" x1="290.81" y1="98.19" x2="290.87" y2="99.18"/><line class="cls-23" x1="291.33" y1="106.32" x2="302.23" y2="277.08"/><line class="cls-22" x1="302.46" y1="280.65" x2="302.52" y2="281.65"/></g><g id="_Group_22" data-name="&lt;Group&gt;"><line class="cls-22" x1="368.43" y1="122.94" x2="368.05" y2="123.86"/><line class="cls-24" x1="365.35" y1="130.34" x2="304.23" y2="277.06"/><line class="cls-22" x1="302.88" y1="280.3" x2="302.5" y2="281.22"/></g><line id="_Path_71" data-name="&lt;Path&gt;" class="cls-25" x1="213.68" y1="122.32" x2="303.05" y2="282.41"/><line id="_Path_72" data-name="&lt;Path&gt;" class="cls-25" x1="165.16" y1="184.84" x2="303.88" y2="282.41"/><line id="_Path_73" data-name="&lt;Path&gt;" class="cls-25" x1="160.7" y1="266.34" x2="303.54" y2="282.41"/><line id="_Path_74" data-name="&lt;Path&gt;" class="cls-25" x1="420.11" y1="269.52" x2="303.88" y2="281.65"/><line id="_Path_75" data-name="&lt;Path&gt;" class="cls-25" x1="416.34" y1="186.18" x2="304.83" y2="280.47"/></g><g id="_Group_23" data-name="&lt;Group&gt;"><g id="_Group_24" data-name="&lt;Group&gt;"><g id="_Group_25" data-name="&lt;Group&gt;"><path id="_Compound_Path_" data-name="&lt;Compound Path&gt;" class="cls-26" d="M280,400.1a5.74,5.74,0,1,1,5.74-5.74A5.74,5.74,0,0,1,280,400.1Zm0-10.45a4.71,4.71,0,1,0,4.71,4.71A4.72,4.72,0,0,0,280,389.65Z" transform="translate(-140.09 -127.66)"/></g><g id="_Group_26" data-name="&lt;Group&gt;"><path id="_Path_76" data-name="&lt;Path&gt;" class="cls-26" d="M276.33,394.88a.51.51,0,0,1-.51-.51A4.17,4.17,0,0,1,280,390.2a.51.51,0,0,1,0,1,3.14,3.14,0,0,0-3.14,3.14A.51.51,0,0,1,276.33,394.88Z" transform="translate(-140.09 -127.66)"/></g><g id="_Group_27" data-name="&lt;Group&gt;"><path id="_Path_77" data-name="&lt;Path&gt;" class="cls-26" d="M288.86,394.88a.51.51,0,0,1-.51-.51,4.17,4.17,0,0,1,4.16-4.16.51.51,0,0,1,0,1,3.14,3.14,0,0,0-3.14,3.14A.51.51,0,0,1,288.86,394.88Z" transform="translate(-140.09 -127.66)"/></g><g id="_Group_28" data-name="&lt;Group&gt;"><path id="_Compound_Path_2" data-name="&lt;Compound Path&gt;" class="cls-26" d="M292.3,400.1a5.74,5.74,0,1,1,5.74-5.74A5.74,5.74,0,0,1,292.3,400.1Zm0-10.45a4.71,4.71,0,1,0,4.71,4.71A4.72,4.72,0,0,0,292.3,389.65Z" transform="translate(-140.09 -127.66)"/></g><g id="_Group_29" data-name="&lt;Group&gt;"><path id="_Path_78" data-name="&lt;Path&gt;" class="cls-26" d="M281.47,389.14h9s-3.4,1-3.4,6h-1.87S286.09,391.17,281.47,389.14Z" transform="translate(-140.09 -127.66)"/></g><g id="_Group_30" data-name="&lt;Group&gt;"><path id="_Path_79" data-name="&lt;Path&gt;" class="cls-26" d="M286,391.06h0a1.2,1.2,0,0,1-1.19-1.19v-.79a1.2,1.2,0,0,1,1.19-1.19h0a1.2,1.2,0,0,1,1.19,1.19v.79A1.2,1.2,0,0,1,286,391.06Z" transform="translate(-140.09 -127.66)"/></g></g><g id="_Group_31" data-name="&lt;Group&gt;"><rect id="_Rectangle_7" data-name="&lt;Rectangle&gt;" class="cls-26" x="142.15" y="180.16" width="4.73" height="7.24"/><rect id="_Rectangle_8" data-name="&lt;Rectangle&gt;" class="cls-26" x="149.48" y="175.28" width="4.73" height="12.12"/><rect id="_Rectangle_9" data-name="&lt;Rectangle&gt;" class="cls-26" x="156.81" y="169.43" width="4.73" height="17.97"/></g><path id="_Compound_Path_3" data-name="&lt;Compound Path&gt;" class="cls-26" d="M358,240.61l-2.83-7.36h.22a1.61,1.61,0,0,0-1.61-1.61h-6.37l0-.13v-1.62a.89.89,0,0,0-.28-.65.66.66,0,0,0-.22-.78v-1.09a.67.67,0,1,0-.79,0v1.09a.66.66,0,0,0-.22.78.89.89,0,0,0-.28.65v1.62l0,.13h-7.17a1.61,1.61,0,0,0-1.61,1.61h.53l-2.83,7.36.06,0h0a.15.15,0,0,0,.09.14,3.09,3.09,0,0,0,5.41,0,.15.15,0,0,0,.11-.15h0l0,0-2.83-7.36h7.94a39.12,39.12,0,0,0-.26,4.66,31.89,31.89,0,0,0,.55,6.41V245h-3.72a1.65,1.65,0,0,0-1.65,1.65h12.52A1.65,1.65,0,0,0,351.1,245h-3.72v-.67a31.89,31.89,0,0,0,.55-6.41,39.1,39.1,0,0,0-.26-4.66h7.46l-2.83,7.36,0,0h0a.15.15,0,0,0,.11.15,3.09,3.09,0,0,0,5.41,0,.15.15,0,0,0,.09-.14h0Zm-23.31-.13,2.56-6.65v6.65Zm2.72,0v-6.65l2.56,6.65Zm17.82,0v-6.65l2.56,6.65Zm-.16,0h-2.56l2.56-6.65Z" transform="translate(-140.09 -127.66)"/><g id="_Group_32" data-name="&lt;Group&gt;"><g id="_Group_33" data-name="&lt;Group&gt;"><rect id="_Rectangle_10" data-name="&lt;Rectangle&gt;" class="cls-26" x="282.98" y="78.54" width="5.1" height="14.74"/><polygon id="_Path_80" data-name="&lt;Path&gt;" class="cls-26" points="285.7 72.71 280.89 78.71 290.35 78.71 285.7 72.71"/></g><g id="_Group_34" data-name="&lt;Group&gt;"><rect id="_Rectangle_11" data-name="&lt;Rectangle&gt;" class="cls-26" x="291.63" y="83.49" width="5.1" height="9.79"/><polygon id="_Path_81" data-name="&lt;Path&gt;" class="cls-26" points="294.36 77.67 289.54 83.66 299 83.66 294.36 77.67"/></g></g><g id="_Group_35" data-name="&lt;Group&gt;"><g id="_Group_36" data-name="&lt;Group&gt;"><path id="_Compound_Path_4" data-name="&lt;Compound Path&gt;" class="cls-26" d="M517.56,238.8a6,6,0,1,1,5.08-2.75h0A6,6,0,0,1,517.56,238.8Zm0-10.28a4.3,4.3,0,0,0-.89.09,4.22,4.22,0,1,0,.89-.09Z" transform="translate(-140.09 -127.66)"/></g><g id="_Group_37" data-name="&lt;Group&gt;"><path id="_Path_82" data-name="&lt;Path&gt;" class="cls-26" d="M508.81,247.27a.9.9,0,0,1-.75-1.39l6-9.26a.9.9,0,1,1,1.51,1l-6,9.26A.9.9,0,0,1,508.81,247.27Z" transform="translate(-140.09 -127.66)"/></g></g><g id="_Group_38" data-name="&lt;Group&gt;"><g id="_Group_39" data-name="&lt;Group&gt;"><circle id="_Path_83" data-name="&lt;Path&gt;" class="cls-26" cx="428.52" cy="174.41" r="3.33"/><path id="_Path_84" data-name="&lt;Path&gt;" class="cls-26" d="M574.07,312.66h-11v-3.61a5.49,5.49,0,0,1,5.49-5.49h0a5.49,5.49,0,0,1,5.49,5.49Z" transform="translate(-140.09 -127.66)"/></g><g id="_Group_40" data-name="&lt;Group&gt;"><circle id="_Path_85" data-name="&lt;Path&gt;" class="cls-26" cx="435.15" cy="176.4" r="2.14"/><path id="_Path_86" data-name="&lt;Path&gt;" class="cls-26" d="M578.75,310.86h-7.05v-2.32a3.53,3.53,0,0,1,3.53-3.53h0a3.53,3.53,0,0,1,3.53,3.53Z" transform="translate(-140.09 -127.66)"/></g><g id="_Group_41" data-name="&lt;Group&gt;"><circle id="_Path_87" data-name="&lt;Path&gt;" class="cls-26" cx="421.93" cy="176.4" r="2.14"/><path id="_Path_88" data-name="&lt;Path&gt;" class="cls-26" d="M565.52,310.86h-7.05v-2.32A3.53,3.53,0,0,1,562,305h0a3.53,3.53,0,0,1,3.53,3.53Z" transform="translate(-140.09 -127.66)"/></g></g><g id="_Group_42" data-name="&lt;Group&gt;"><g id="_Group_43" data-name="&lt;Group&gt;"><path id="_Compound_Path_5" data-name="&lt;Compound Path&gt;" class="cls-26" d="M574.85,402.94a9.68,9.68,0,1,1,9.68-9.68A9.69,9.69,0,0,1,574.85,402.94Zm0-18.46a8.78,8.78,0,1,0,8.78,8.78A8.79,8.79,0,0,0,574.85,384.49Z" transform="translate(-140.09 -127.66)"/></g><g id="_Group_44" data-name="&lt;Group&gt;"><rect id="_Path_89" data-name="&lt;Path&gt;" class="cls-26" x="434.36" y="256.66" width="0.9" height="18.17"/></g><g id="_Group_45" data-name="&lt;Group&gt;"><path id="_Path_90" data-name="&lt;Path&gt;" class="cls-26" d="M573.88,402.76c-3.76-4.43-5.33-8.56-4.66-12.28a10.44,10.44,0,0,1,4.79-6.81l.44.78a9.69,9.69,0,0,0-4.34,6.2c-.61,3.44.89,7.32,4.47,11.53Z" transform="translate(-140.09 -127.66)"/></g><g id="_Group_46" data-name="&lt;Group&gt;"><path id="_Path_91" data-name="&lt;Path&gt;" class="cls-26" d="M576,402.76l-.69-.58c3.57-4.21,5.08-8.09,4.47-11.53a9.69,9.69,0,0,0-4.34-6.2l.44-.78a10.44,10.44,0,0,1,4.79,6.81C581.33,394.2,579.77,398.34,576,402.76Z" transform="translate(-140.09 -127.66)"/></g><g id="_Group_47" data-name="&lt;Group&gt;"><rect id="_Path_92" data-name="&lt;Path&gt;" class="cls-26" x="425.53" y="265.16" width="18.46" height="0.9"/></g></g></g></g></svg>