<?xml version="1.0" encoding="utf-8"?>
<!-- Generator: Adobe Illustrator 21.0.0, SVG Export Plug-In . SVG Version: 6.00 Build 0)  -->
<svg version="1.1" id="Layer_1" xmlns="http://www.w3.org/2000/svg" xmlns:xlink="http://www.w3.org/1999/xlink" x="0px" y="0px"
	 viewBox="0 0 154.7 172.7" style="enable-background:new 0 0 154.7 172.7;" xml:space="preserve">
<style type="text/css">
	.st0{opacity:0.5;}
	.st1{fill:#27A4A5;}
	.st2{fill:#F4C74A;}
	.st3{fill:#E24B70;}
</style>
<g>
	<g class="st0">
		<g>
			<path class="st1" d="M2.2,44.2c0-23.7,19.2-42.9,42.9-42.9S88,20.6,88,44.2c0,23.7-19.2,42.9-42.9,42.9S2.2,67.9,2.2,44.2z
				 M12.6,44.2c0,17.9,14.5,32.4,32.4,32.4s32.4-14.5,32.4-32.4c0-17.9-14.5-32.4-32.4-32.4S12.6,26.4,12.6,44.2z"/>
		</g>
	</g>
	<g class="st0">
		<path class="st2" d="M102.1,87.8c0-14.1,11.4-25.5,25.5-25.5s25.5,11.4,25.5,25.5c0,14.1-11.4,25.5-25.5,25.5
			S102.1,101.8,102.1,87.8z M108.3,87.8c0,10.6,8.6,19.3,19.3,19.3s19.3-8.6,19.3-19.3c0-10.6-8.6-19.3-19.3-19.3
			S108.3,77.1,108.3,87.8z"/>
	</g>
	<g class="st0">
		<g>
			<path class="st3" d="M30.2,134.1c0-20.1,16.3-36.4,36.4-36.4s36.4,16.3,36.4,36.4c0,20.1-16.3,36.4-36.4,36.4
				S30.2,154.2,30.2,134.1z M39.1,134.1c0,15.2,12.3,27.5,27.5,27.5s27.5-12.3,27.5-27.5c0-15.2-12.3-27.5-27.5-27.5
				S39.1,119,39.1,134.1z"/>
		</g>
	</g>
</g>
</svg>
