<?xml version="1.0" encoding="utf-8"?>
<!-- Generator: Adobe Illustrator 21.0.0, SVG Export Plug-In . SVG Version: 6.00 Build 0)  -->
<svg version="1.1" id="Layer_1" xmlns="http://www.w3.org/2000/svg" xmlns:xlink="http://www.w3.org/1999/xlink" x="0px" y="0px"
	 viewBox="0 0 189 192.3" style="enable-background:new 0 0 189 192.3;" xml:space="preserve">
<style type="text/css">
	.st0{opacity:0.5;}
	.st1{fill:#F4C74A;}
	.st2{fill:#E24B70;}
	.st3{fill:#4A69BD;}
</style>
<g>
	<g class="st0">
		<path class="st1" d="M82.5,94.9c-25.9,0-46.9-21-46.9-46.9c0-25.9,21-46.9,46.9-46.9s46.9,21,46.9,46.9
			C129.4,73.9,108.4,94.9,82.5,94.9z M82.5,12.6C63,12.6,47,28.5,47,48C47,67.6,63,83.5,82.5,83.5S118,67.6,118,48
			C118,28.5,102.1,12.6,82.5,12.6z"/>
	</g>
	<g class="st0">
		<g>
			<path class="st2" d="M135.5,175.8c-29.2,0-53-23.8-53-53c0-29.2,23.8-53,53-53s53,23.8,53,53C188.5,152,164.7,175.8,135.5,175.8z
				 M135.5,82.8c-22.1,0-40.1,18-40.1,40.1c0,22.1,18,40.1,40.1,40.1s40.1-18,40.1-40.1C175.5,100.7,157.6,82.8,135.5,82.8z"/>
		</g>
	</g>
	<g class="st0">
		<g>
			<path class="st3" d="M1.5,164c0-15.1,12.3-27.5,27.5-27.5s27.5,12.3,27.5,27.5c0,15.1-12.3,27.5-27.5,27.5S1.5,179.2,1.5,164z
				 M8.2,164c0,11.4,9.3,20.8,20.8,20.8s20.8-9.3,20.8-20.8c0-11.4-9.3-20.8-20.8-20.8S8.2,152.6,8.2,164z"/>
		</g>
	</g>
</g>
</svg>
