<?xml version="1.0" encoding="utf-8"?>
<!-- Generator: Adobe Illustrator 21.0.0, SVG Export Plug-In . SVG Version: 6.00 Build 0)  -->
<svg version="1.1" id="Layer_1" xmlns="http://www.w3.org/2000/svg" xmlns:xlink="http://www.w3.org/1999/xlink" x="0px" y="0px"
	 viewBox="0 0 187 244.3" style="enable-background:new 0 0 187 244.3;" xml:space="preserve">
<style type="text/css">
	.st0{opacity:0.5;}
	.st1{fill:#27A4A5;}
	.st2{fill:#F4C74A;}
	.st3{fill:#4A69BD;}
</style>
<g>
	<g class="st0">
		<g>
			<path class="st1" d="M40.6,170.6c0-39.9,32.5-72.4,72.4-72.4s72.4,32.5,72.4,72.4c0,39.9-32.5,72.4-72.4,72.4
				S40.6,210.5,40.6,170.6z M58.3,170.6c0,30.2,24.5,54.7,54.7,54.7s54.7-24.5,54.7-54.7c0-30.2-24.5-54.7-54.7-54.7
				S58.3,140.4,58.3,170.6z"/>
		</g>
	</g>
	<g class="st0">
		<path class="st2" d="M1.5,99.3c0-13.3,10.8-24,24-24s24,10.8,24,24c0,13.3-10.8,24-24,24S1.5,112.5,1.5,99.3z M7.4,99.3
			c0,10,8.2,18.2,18.2,18.2s18.2-8.2,18.2-18.2c0-10-8.2-18.2-18.2-18.2S7.4,89.3,7.4,99.3z"/>
	</g>
	<g class="st0">
		<g>
			<path class="st3" d="M93.9,92.8c-24.9,0-45.1-20.2-45.1-45.1C48.8,22.9,69,2.6,93.9,2.6S139,22.9,139,47.7
				C139,72.6,118.7,92.8,93.9,92.8z M93.9,13.6c-18.8,0-34.1,15.3-34.1,34.1c0,18.8,15.3,34.1,34.1,34.1S128,66.5,128,47.7
				C128,28.9,112.7,13.6,93.9,13.6z"/>
		</g>
	</g>
</g>
</svg>
