<?xml version="1.0" encoding="utf-8"?>
<!-- Generator: Adobe Illustrator 21.0.0, SVG Export Plug-In . SVG Version: 6.00 Build 0)  -->
<svg version="1.1" id="Layer_1" xmlns="http://www.w3.org/2000/svg" xmlns:xlink="http://www.w3.org/1999/xlink" x="0px" y="0px"
	 viewBox="0 0 238.3 211.3" style="enable-background:new 0 0 238.3 211.3;" xml:space="preserve">
<style type="text/css">
	.st0{opacity:0.5;}
	.st1{fill:#F4C74A;}
	.st2{fill:#E24B70;}
	.st3{fill:#4A69BD;}
</style>
<g>
	<g class="st0">
		<path class="st1" d="M82.5,162.6c-44.4,0-80.6-36.1-80.6-80.6c0-44.4,36.1-80.6,80.6-80.6s80.6,36.1,80.6,80.6
			C163.1,126.4,126.9,162.6,82.5,162.6z M82.5,21.1c-33.6,0-60.9,27.3-60.9,60.9c0,33.6,27.3,60.9,60.9,60.9s60.9-27.3,60.9-60.9
			C143.4,48.4,116.1,21.1,82.5,21.1z"/>
	</g>
	<g class="st0">
		<g>
			<path class="st2" d="M145.5,209.5c-15.3,0-27.7-12.4-27.7-27.7c0-15.3,12.4-27.7,27.7-27.7s27.7,12.4,27.7,27.7
				C173.2,197.1,160.8,209.5,145.5,209.5z M145.5,160.9c-11.6,0-21,9.4-21,21c0,11.6,9.4,20.9,21,20.9c11.6,0,21-9.4,21-20.9
				C166.4,170.3,157,160.9,145.5,160.9z"/>
		</g>
	</g>
	<g class="st0">
		<g>
			<path class="st3" d="M164.4,126.4c0-20,16.3-36.3,36.3-36.3s36.3,16.3,36.3,36.3c0,20-16.3,36.3-36.3,36.3
				S164.4,146.4,164.4,126.4z M173.2,126.4c0,15.1,12.3,27.4,27.4,27.4s27.4-12.3,27.4-27.4c0-15.1-12.3-27.4-27.4-27.4
				S173.2,111.2,173.2,126.4z"/>
		</g>
	</g>
</g>
</svg>
