<?xml version="1.0" encoding="utf-8"?>
<!-- Generator: Adobe Illustrator 21.0.0, SVG Export Plug-In . SVG Version: 6.00 Build 0)  -->
<svg version="1.1" id="Layer_1" xmlns="http://www.w3.org/2000/svg" xmlns:xlink="http://www.w3.org/1999/xlink" x="0px" y="0px"
	 viewBox="0 0 1059.1 960.2" style="enable-background:new 0 0 1059.1 960.2;" xml:space="preserve">
<style type="text/css">
	.st0{opacity:3.000000e-02;}
	.st1{fill:#565656;}
</style>
<g class="st0">
	<path class="st1" d="M260.9,653.9c0.2,7.6,7.7,18.3,16,18.1c-0.9,0,1.2,18.7,1.7,20.4c2.2,7.7,7.7,9.9,15.2,10.2
		c14.2,0.5,28.4,0.7,42.6,1.2c16.1,0.6,32.1,1.2,48.2,2.7c11.3,1.1,25.3,2.5,35.5-3.8c0.3-0.1,0.5-0.2,0.8-0.4
		c0.3-0.2,0.4-0.4,0.6-0.6c4.9-5.2,5.7-12.9,5.7-20.6c3.2-0.1,6.3-1.2,8.9-3c25.2,12.2,53-15.8,58.5-39c2.3-9.5,1.2-19.5,2.3-29.2
		c0.8-7.3,3.5-13.3,7-19c8.9-4.6,18.7-7.9,24.6-17.1c7.3-11.6,6.9-26.3-0.3-37.7c-0.2-0.3-0.4-0.5-0.7-0.6c2.3-2.2,4.1-4.9,4.9-8.4
		c2.8-11.7-6.3-21.6-15.7-26.9c-14.5-8.2-32.1-12.6-48.4-15.2c-9.9-1.6-21.4-3.6-29.9,2.3c-0.9-0.9-2.9-0.7-3.3,1
		c-0.5,1.9-0.7,3.9-0.8,5.8c-9.5,1.8-16.3,8.5-23.8,14.4c-11.4,8.8-25.8,14-39.9,15.8c-26.1,3.3-52.5-5.6-77.4,6.3
		c-6.1,2.9-11.5,6.6-16.2,10.8c-39,22.5-45.3,75.6-15.3,107.9C261.1,650.7,260.9,652.3,260.9,653.9z M270.8,665.3
		c-1.8-1.5-3.3-3.3-4.4-5.4c-0.1-0.1-0.1-0.2-0.2-0.4c-2-4-1.5-9.5,1-13.2c0.7-1,8.9-5.3,9-3.1c0.1,2.6,0.2,5.1,0.3,7.6
		c-3.5,0.7-6.4,3.9-6.1,7.6c0.3,3.7,3.4,6,6.8,6.6C278.7,670.2,272.4,666.7,270.8,665.3z M276.7,653.1c0.2,2.6,0.3,5.2,0.5,7.7
		c0,0.7,0.1,1.4,0.1,2.1c-2.5-0.3-4.7-2.5-4.6-5.1C272.8,655.5,274.6,653.7,276.7,653.1z M280.5,643.4c3.1,0.3,6.3,0.6,9.4,0.9
		c-0.2,0-0.4,0.1-0.5,0.3c-2.8,2.6-5.7,5.3-8.5,7.9C280.6,649.5,280.5,646.5,280.5,643.4z M280.9,655.4c3.2-3,6.5-6,9.7-9
		c0.7-0.7,0.3-1.7-0.4-1.9c1.9,0.2,3.8,0.4,5.6,0.6c-5.7,4-10.7,8.9-14.8,14.5C281,658.1,281,656.7,280.9,655.4z M331.7,648.5
		c0.7,0.1,1.4,0.1,2.1,0.2c-1.1,2.1-1.9,4.3-2.5,6.5c-0.2,0-0.5,0.1-0.7,0.3c-6.1,6.1-12.2,12.3-18.2,18.4c-1.8-0.2-3.6-0.3-5.4-0.5
		c8.2-7.9,16.3-15.8,24.5-23.6C331.9,649.4,331.9,648.9,331.7,648.5z M344.2,661.6c0.5-9.6,6.7-18.7,16.9-20.5
		c8.7-1.6,18.3,2.3,24.2,8.8c7.5,8.4,6.6,18.9,0.1,27.7c-11.7,13.2-34,10.5-40-6.9c-0.8-2.3-1.2-4.6-1.3-6.9
		C344.8,663.1,344.7,662.3,344.2,661.6z M345.2,678.3C345.2,678.3,345.2,678.3,345.2,678.3c-2.3,2-5,2.7-7.4,2.6
		c-1.4-1-2.4-2.2-3-3.5c-0.2-0.8-0.5-1.7-0.7-2.5c-0.2-1.8,0.1-3.5,1-5.2c2-1.1,3.9-2.4,5.8-3.6
		C341.3,670.4,342.7,674.6,345.2,678.3z M347.4,681.2c10.7,12.2,30.4,10.6,41-1.4c8-10.7,8.3-23.9-1.5-33.6c-8.6-8.5-23-12.2-33.9-6
		c-8,4.6-12.1,13-12.4,21.6c-2.3,1.5-4.6,3-7,4.4c-0.6-16.9,11.8-31.6,29-33.1c7.7-0.6,15.5,1.5,21.9,5.8c7.5,5.1,12.3,12,14.3,20.8
		c3.3,14.5-5.2,31.5-20.6,34.9c-11.6,2.6-28.8-0.7-35.8-10.8C344.1,683.5,345.8,682.6,347.4,681.2z M332.5,677.6
		C332.5,677.5,332.5,677.5,332.5,677.6C332.5,677.5,332.5,677.5,332.5,677.6C332.5,677.5,332.5,677.5,332.5,677.6z M329.9,664.3
		c-0.3-0.1-0.6,0-0.9,0.3c-3.4,3.3-6.8,6.6-10.3,9.9c-1.2-0.1-2.4-0.2-3.6-0.3c5.1-5.1,10.2-10.3,15.3-15.4
		C330.2,660.5,330,662.4,329.9,664.3z M330.1,668.2c-1.3,0.7-2.5,1.4-3.8,2.1c1.2-1.2,2.4-2.4,3.7-3.6c0,0.3,0,0.6,0,1
		C330,667.9,330.1,668,330.1,668.2z M325.6,675.1c-1.3-0.1-2.6-0.2-3.9-0.4c1.2-1.1,2.4-2.3,3.5-3.4c-0.1,0.3-0.2,0.6-0.2,1
		C325.1,673.3,325.3,674.2,325.6,675.1z M304.6,672.6c-0.2,0.2-0.2,0.3-0.3,0.5c-2.3-0.2-4.7-0.4-7-0.6c8.9-8,17.8-15.9,26.8-23.9
		c0.3-0.3,0.4-0.6,0.4-0.9c1.8,0.2,3.6,0.4,5.4,0.5C321.4,656.4,313,664.5,304.6,672.6z M294.3,672.2c-2.4-0.2-4.8-0.4-7.1-0.7
		c8.4-8,16.9-16,25.3-24c0.3-0.3,0.4-0.6,0.3-0.9c3,0.3,6.1,0.6,9.1,0.9C312.8,655.7,303.6,664,294.3,672.2z M285.2,670.4
		c-0.3,0.3-0.4,0.6-0.3,0.9c-0.8-0.1-1.6-0.1-2.4-0.2c-0.2-0.2-0.4-0.4-0.8-0.5c-0.1,0-0.2-0.1-0.3-0.1c0-0.6,0-1.2,0-1.7
		c0-0.3,0-0.6,0-0.9c8.3-7.3,16.6-14.6,24.9-21.9c1.4,0.1,2.8,0.3,4.3,0.4C302.1,654.4,293.7,662.4,285.2,670.4z M281.3,665.1
		c0-0.7,0-1.4-0.1-2c4.5-6.7,10.1-12.3,16.7-16.9c0.4-0.3,0.5-0.6,0.4-1c1.7,0.2,3.3,0.3,5,0.5C296,652.1,288.6,658.6,281.3,665.1z
		 M418.6,699.4c-11.9,8-30.1,3.7-43.4,2.5c-13.9-1.3-27.9-1.3-41.8-1.8c-12.4-0.4-24.8-1.1-37.2-1.1c-9.4,0-14.5-4.8-15-14.3
		c-0.2-3.3,0-6.7,0.1-10c15.4,1.4,30.8,2.8,46.2,4.3c2.5,3.6,6.7,5.7,11,5.7c0,0.2,0.1,0.5,0.3,0.7c7.8,12.9,30.3,17.2,43.8,11.9
		c7.6-3,13.2-8.4,16.7-15.1c7.5,0.1,15,0.2,22.5,0.3c1.1,0,1.7-0.7,1.9-1.6C423.5,688.2,422.6,695.5,418.6,699.4z M411.6,655.1
		c-2.9,3.1-5.8,6.1-8.7,9.2c-0.1-1.7-0.3-3.4-0.7-5.1c2.1-1.8,4.1-3.6,6.2-5.5c0.2-0.2,0.3-0.3,0.3-0.5c3.8-0.1,7.5-0.2,11.3-0.3
		c-5.8,6.1-11.6,12.2-17.4,18.3c0.2-1.3,0.3-2.6,0.3-3.9c0.1-0.1,0.2-0.1,0.3-0.2c3.4-3.6,6.7-7.2,10.1-10.7
		C414.4,655.4,412.6,654.1,411.6,655.1z M401.7,656.8c-0.1-0.2-0.1-0.4-0.1-0.6c-0.3-1-0.7-1.9-1-2.9c1.7,0,3.5-0.1,5.2-0.1
		C404.3,654.5,403,655.7,401.7,656.8z M423.5,665.7c0,0.8,0,1.7,0,2.6c-2.6,3-5.1,6-7.7,9c-0.5,0.5-0.3,1.1,0.2,1.5
		c-2.6,0-5.3-0.1-7.9-0.1c5.2-5.3,10.4-10.6,15.5-15.9C423.5,663.7,423.5,664.7,423.5,665.7z M423.6,677.3c-0.8,0.1-1.3,0.8-1.4,1.6
		c0,0,0,0-0.1,0c-1.6,0-3.3,0-4.9-0.1c0.1-0.1,0.1-0.1,0.2-0.2c2-2.3,4-4.7,6-7C423.5,673.4,423.6,675.3,423.6,677.3z M423.7,659.5
		c-6.1,6.2-12.2,12.4-18.2,18.7c-0.1,0.1-0.2,0.3-0.3,0.4c-1.4,0-2.9,0-4.3-0.1c0.4-1.1,0.8-2.2,1.1-3.3c0.1-0.1,0.3-0.1,0.4-0.3
		c6.8-7.1,13.5-14.3,20.3-21.4c0.2-0.2,0.2-0.4,0.3-0.5c0.1,0.7,0.1,1.3,0.2,2c0.1,0.6,0.4,1,0.8,1.3
		C423.7,657.3,423.7,658.4,423.7,659.5z M424.8,634.9c-0.5,4.9-0.7,9.8-0.9,14.8c0,0-0.1,0-0.1,0c-0.3-0.3-0.7-0.4-1.2-0.4
		c-7.9,0.2-15.9,0.4-23.8,0.5c-7.5-14.1-23.3-22.5-39.6-19.9c-10.1,1.7-18.3,7.5-23.5,15.4c-0.2-0.1-0.4-0.2-0.7-0.2
		c-18.2-1.8-36.5-3.6-54.7-5.4c-0.1-4.7-0.1-9.5,0.2-14.3c0.7-12.7,7.9-14.5,19-13.5c26.4,2.4,53.3,1.8,79.8,2.4c1,0,1.9-0.5,2-1.6
		c0.2-2.5-0.4-12.4,1.3-14.1c2.6-2.8,7.5-0.8,11.1-0.4c5.7,0.7,7-0.2,8,5.4c0.7,3.9-0.1,8.6-0.1,12.5c0,0.8,0.3,1.6,1.1,1.9
		c3.4,1.2,8,0.7,11.7,0.9c2.2,0.2,6.4-0.2,8.3,0.9C427.2,622.8,425.2,630.6,424.8,634.9z M302.3,602.5c-3.4-0.7-6.2,2.5-5.9,5.7
		c-0.3,0-0.6,0-0.9,0c-0.1-0.3-0.3-0.6-0.6-0.8c-4.5-3.5,2-7.4,5.2-7.8c3-0.3,7.3,0.6,9.1,3.3c1.7,2.6,0.8,6.6-2.9,6.4
		C305.9,606.6,305.7,603.2,302.3,602.5z M302.4,608.3c-0.1,0.1,0,0.2-0.1,0.3c-0.8-0.1-1.6-0.1-2.4-0.2c0.1-0.2,0.1-0.5,0.1-0.7
		C299.8,605.4,303.5,606,302.4,608.3z M325.7,603.1c-3.7,0-5.9,3.3-5.4,6.5c-0.6,0-1.2,0-1.7,0c0,0,0-0.1,0-0.1
		c-0.4-5.1,4-10.3,9.4-10c5.2,0.3,8.3,5.6,7.8,10.4c-1.3,0-2.6,0-3.9,0C332,606.4,329.6,603.1,325.7,603.1z M328.2,609.8
		c-1.4,0-2.7-0.1-4.1-0.1c-0.9-1.5,0.5-3.2,2.2-2.9C327.8,607.1,328.3,608.5,328.2,609.8z M427,672.8c0-1.7,0-3.4,0-4.9
		c0.1-2.6,0.3-5.2,0.5-7.8c0.1,0,0.1,0.1,0.2,0.1c7.3,0.9,7.3,11.2,0,12.1C427.4,672.5,427.1,672.6,427,672.8z M427.5,677
		c0.2-0.7,0.5-1.3,0.9-1.8c2.2-3.1,7.2-3.8,7.3-8.8c0-3.3-1.9-5.3-4.4-7.1c-1.1-0.8-2-0.7-2.8-1.9c-0.2-0.4-1.2-4-0.3-4
		c2.1,0.1,7.9,2,8.5,4.5c0.1,0.4,0.3,0.7,0.7,0.9c1.2,1.7,2,3.6,2.2,5.7C440,669.8,433.7,679.2,427.5,677z M492.2,628.7
		c-1.5,23.4-26.5,57.8-53.1,46.8c1.4-1.5,2.5-3.3,3.2-5.2c18.1,1.2,34.5-8.2,42.6-24.4c0.6-1.3-1.4-2.1-2-0.8
		c-7.6,15.2-23.1,24-40,23.1c0.2-0.9,0.3-1.9,0.3-2.8c0-1.8-0.3-3.4-0.9-5c12,2.8,24.8,0,33.8-9.1c5.5-5.5,9.1-12.8,10.2-20.5
		c1.5-11-2.3-23,6.4-31.9c1.5-1.5,3.2-2.9,4.9-4.1C493,605.4,493,616.4,492.2,628.7z M517.1,580.4c-3.1,2.2-6.5,3.8-9.9,5.4
		c1.5-2.2,3.1-4.4,4.7-6.7c7.5-10.8,13.5-25.6,4.6-37.3c0.9-0.3,1.8-0.7,2.6-1c8.7,10.7,7.4,25.7-3.3,34.7c-1.1,0.9,0.3,2.6,1.4,1.7
		c11.5-9.6,13.1-25.7,4-37.4c1.3-0.7,2.6-1.4,3.8-2.3c0,0.3,0.1,0.5,0.3,0.8C533.8,552.2,530.6,570.9,517.1,580.4z M438.1,492.1
		c0.1-0.1,0.1-0.1,0.2-0.1c7.7-8,21.5-4.7,31.1-3.1c11.1,1.9,22,4.9,32.6,8.9c9.8,3.7,22.3,8.5,26,19.4c3,8.7-1.3,15.9-9.2,19.8
		c-2.7,1.3-7.8,3.7-10.4,2.1c-2.3-1.5-4.4-6.2-6.5-8.2c-2.3-2.3-4.8-4.3-7.5-6.1c-5.1-3.3-10.7-5.6-16.7-6.7
		c-9.1-1.7-19.3,1.4-27.8-2.9c-7.1-3.6-11.2-10.7-11.9-18.3c0.5-0.6,0.5-1.6,0-2.3C438,493.7,438,492.9,438.1,492.1z M314.8,528
		c22.9-2.9,45.6,3.5,68.4-2.6c9-2.4,17.9-6.1,25.6-11.2c8.5-5.7,15.4-14.2,25.6-16.4c0.2,1.4,0.4,2.7,0.8,4
		c-15.3,10.8-31.4,25.7-50.3,29.2c-1.4,0.3-1.1,2.4,0.3,2.2c19.1-3.5,35.3-18.2,50.7-29.2c0.8,2.2,1.9,4.3,3.3,6.3
		c-26.5,15.6-53.8,37.4-86.2,30c-13.8-3.1-26.9-8.7-41.2-8.7c-5.7,0-11.4,0.8-16.9,2.2C301.1,531,307.8,528.9,314.8,528z M279.4,544
		c6.5-3.7,13.7-6.3,21.1-7.6c25.6-4.7,48.3,12.1,73.7,9.2c24.2-2.7,46.2-20,66.6-32c0.3-0.2,0.5-0.4,0.6-0.6c2.8,3,6.3,5.4,10.5,6.7
		c8.9,2.9,18.6,0.2,27.7,2.5c11.6,2.9,21.2,10.5,27,21c0.4,0.6,1.1,1.3,1.9,1.1c1.4-0.4,2.8-0.8,4.3-1.2c0,0,0,0,0,0.1
		c12.8,15-3.5,32-11.6,44.5c-0.3,0.5-0.5,0.9-0.8,1.4c-4.2,2.1-8.2,4.6-11.4,8.2c-9,10.2-4.3,23.4-7,35.6
		c-4.2,19.4-24.1,29.2-42.3,23.1c-2.8-3.4-7-5.7-11.5-6.3c0.6-8,1.2-16.1,0.8-23.8c-0.3-7-2.5-8.9-8.9-9.8c-3.9-0.5-10.2,0.6-13.7-1
		c-2.5-1.1-1.7-0.1-1.2-4.5c0.5-4.1,0.1-8.5,0.1-12.5c0-1-0.5-1.9-1.6-2c-7.5-0.9-15-1.8-22.5-2.7c-1-0.1-2,0.6-2,1.6
		c-0.3,3.5-0.3,7.2-0.9,10.6c-0.9,4.8-1,4.9-5.8,5.3c-8.2,0.7-17.1-0.4-25.3-0.6c-2.6-0.1-5.2-0.1-7.7-0.1c0.6-7-4.7-14.1-12.1-14.1
		c-7.2,0-12.6,6.7-12.4,13.6c-1.1,0-2.2-0.1-3.3-0.2c0.1-0.1,0.2-0.2,0.3-0.3c4.8-8.4-5-13.7-12.3-12.9c-3.6,0.4-7.5,2.1-9,5.6
		c-1,2.3-0.8,4.8,0.4,6.8c-6.8,0.6-12.4,3.5-13.8,12.9c-0.9,5.8-1.1,12-1,18.3c-0.4-0.1-0.8-0.1-1.2-0.1c-0.1-0.2-0.1-0.3-0.3-0.5
		c-16.3-18.2-22.5-44-14.2-67.3C264.3,560.9,271,551.4,279.4,544z M248.3,582.4c3.1-10.8,9.2-20.4,17.1-28
		c-16.9,25.3-16.1,60.6,5.2,85.5c-1.2,0.4-2.4,0.9-3.5,1.6c-13.5-11.8-19.8-30-16.5-47.6c0.3-1.4-1.9-1.7-2.2-0.3
		c-3.5,18.2,3.1,37,16.9,49.3c-0.9,0.8-1.6,1.8-2.3,2.8C248.1,628.7,242.1,604.4,248.3,582.4z"/>
	<path class="st1" d="M454.9,509.2c-2.3,0.6-1.8,4.2,0.5,3.6c20.1-5.2,40.7-0.3,56.2,13.4c1.8,1.6,4-1.4,2.2-2.9
		C497.6,509.1,475.8,503.8,454.9,509.2z"/>
	<path class="st1" d="M454.3,499.9c22.4-4.5,45,1.7,62.1,16.9c1.8,1.6,4-1.3,2.2-2.9c-17.7-15.8-41.5-22.3-64.8-17.7
		C451.4,496.8,451.9,500.4,454.3,499.9z"/>
	<path class="st1" d="M349.5,657.5c5.5-4.4,10.9-8.8,16.4-13.2c1.1-0.9-0.2-2.6-1.4-1.7c-5.5,4.4-10.9,8.8-16.4,13.2
		C347,656.7,348.4,658.4,349.5,657.5z"/>
	<path class="st1" d="M353.4,662.1c6-4.9,12-9.9,18-14.8c1.1-0.9-0.3-2.6-1.4-1.7c-6,4.9-12,9.9-18,14.8
		C351,661.2,352.3,663,353.4,662.1z"/>
	<path class="st1" d="M352.4,676.1c9.2-7.6,18.3-15.1,27.5-22.7c1.1-0.9-0.3-2.6-1.3-1.7c-9.2,7.6-18.3,15.1-27.5,22.7
		C350,675.3,351.3,677,352.4,676.1z"/>
	<path class="st1" d="M379.5,661.8c-5.6,4.6-11.1,9.2-16.7,13.9c-1.1,0.9,0.3,2.6,1.4,1.7c5.6-4.6,11.1-9.2,16.7-13.9
		C381.9,662.6,380.5,660.9,379.5,661.8z"/>
	<path class="st1" d="M288.4,626.5c-1.1,1.4-2.2,2.8-3.3,4.2c-0.9,1.1,0.9,2.4,1.7,1.3c1.1-1.4,2.2-2.8,3.3-4.2
		C291,626.7,289.3,625.4,288.4,626.5z"/>
	<path class="st1" d="M298,625.2c-1.9,1.9-3.9,3.8-5.8,5.7c-1,1,0.3,2.7,1.4,1.7c1.9-1.9,3.9-3.8,5.8-5.7
		C300.4,625.9,299,624.2,298,625.2z"/>
	<path class="st1" d="M326.1,617c-7.6,5.7-15.2,11.3-22.9,17c-1.1,0.8,0.2,2.6,1.4,1.7c7.6-5.7,15.2-11.3,22.9-17
		C328.6,617.9,327.2,616.2,326.1,617z"/>
	<path class="st1" d="M336.8,624.9c-4.6,3.6-9.2,7.1-13.8,10.7c-1.1,0.9,0.2,2.6,1.4,1.7c4.6-3.6,9.2-7.1,13.8-10.7
		C339.2,625.8,337.9,624,336.8,624.9z"/>
	<path class="st1" d="M337.2,631.3c-1.9,1.8-3.8,3.5-5.7,5.3c-1,1,0.3,2.7,1.3,1.7c1.9-1.8,3.8-3.5,5.7-5.3
		C339.6,632.1,338.3,630.4,337.2,631.3z"/>
	<path class="st1" d="M382.9,623.1c-1.6,0.9-3.3,1.7-4.9,2.6c-1.2,0.7-0.4,2.7,0.9,2c1.6-0.9,3.3-1.7,4.9-2.6
		C385,624.5,384.2,622.4,382.9,623.1z"/>
	<path class="st1" d="M388.1,627.6c-0.7,0.7-1.4,1.3-2.1,2c-1,1,0.3,2.7,1.3,1.7c0.7-0.7,1.4-1.3,2.1-2
		C390.4,628.3,389.1,626.6,388.1,627.6z"/>
	<path class="st1" d="M413.1,630.3c-4,2.9-8.1,5.8-12.1,8.6c-1.2,0.8,0.2,2.6,1.3,1.7c4-2.9,8.1-5.8,12.1-8.6
		C415.6,631.2,414.3,629.4,413.1,630.3z"/>
	<path class="st1" d="M400.1,601.9c-0.2-0.1-0.3-0.2-0.5-0.3c0,0-0.1,0-0.1,0c-0.2,0-0.4,0-0.6,0.1c0,0,0,0-0.1,0
		c0,0,0.1-0.1,0.1-0.1c-0.1,0-0.2,0-0.4-0.1c-0.4-0.2-1.2-0.2-1.6-0.3c-1.2-0.2-2.5-0.5-3.7-0.7c-2.3-0.4-5-1.2-7.4-0.8
		c-5,0.8-2.3,10-2.2,13.2c0,0.4,0.5,0.9,1,0.9c4.5,0.2,8.9,0.5,13.4,0.7c0.6,0,1.1-0.3,1.2-1c0.4-3.5,0.9-7.1,1.3-10.6
		c0.1-0.3,0-0.7-0.2-0.9C400.2,602,400.1,601.9,400.1,601.9z M385.6,611.7c-0.1-0.9-0.2-1.9-0.3-2.8c1.5,1,3,2,4.4,3.1
		C388.4,611.8,387,611.8,385.6,611.7z M392.8,612.1c0.1-0.4,0-0.8-0.4-1c-2.4-1.7-4.9-3.3-7.3-5c0-0.6,0-1.3,0-1.9
		c3.6,2.7,7.3,5.4,10.9,8.1C394.9,612.2,393.8,612.1,392.8,612.1z M397.2,610.4c-3.8-2.8-7.5-5.6-11.3-8.4c0.2-0.1,0.4-0.1,0.7-0.1
		c1.1-0.1,2.2,0.2,3.3,0.4c2.4,0.4,4.7,0.9,7.1,1.3c0.3,0.1,0.7,0.1,1.1,0.2C397.8,606,397.5,608.2,397.2,610.4z M398.6,601.8
		c-0.1,0-0.1,0.1-0.2,0.1C398.6,601.9,398.6,601.8,398.6,601.8C398.7,601.8,398.7,601.8,398.6,601.8z"/>
	<path class="st1" d="M303.7,684c-3.1,2.6-6.1,5.1-9.2,7.7c-1.1,0.9,0.3,2.6,1.3,1.7c3.1-2.6,6.1-5.1,9.2-7.7
		C306.1,684.9,304.7,683.1,303.7,684z"/>
	<path class="st1" d="M317.1,686.5c-2.8,2.3-5.5,4.5-8.2,6.8c-1.1,0.9,0.3,2.6,1.3,1.7c2.8-2.3,5.5-4.5,8.2-6.8
		C319.5,687.4,318.2,685.6,317.1,686.5z"/>
	<path class="st1" d="M327.8,689.8c-1.5,1-3,2.1-4.5,3.1c-1.2,0.8,0.2,2.5,1.4,1.7c1.5-1,3-2.1,4.5-3.1
		C330.3,690.7,329,689,327.8,689.8z"/>
	<path class="st1" d="M405,688.8c-3,2.9-5.9,5.7-8.9,8.6c-1,1,0.3,2.7,1.4,1.7c3-2.9,5.9-5.7,8.9-8.6
		C407.4,689.5,406,687.8,405,688.8z"/>
</g>
</svg>
