<?xml version="1.0" encoding="utf-8"?>
<!-- Generator: Adobe Illustrator 21.0.0, SVG Export Plug-In . SVG Version: 6.00 Build 0)  -->
<svg version="1.1" id="Layer_1" xmlns="http://www.w3.org/2000/svg" xmlns:xlink="http://www.w3.org/1999/xlink" x="0px" y="0px"
	 viewBox="0 0 1059.1 960.2" style="enable-background:new 0 0 1059.1 960.2;" xml:space="preserve">
<style type="text/css">
	.st0{opacity:3.000000e-02;}
	.st1{fill:#565656;}
</style>
<g class="st0">
	<path class="st1" d="M450.2,598.8c3.6,2.1,7.8,2.5,11.3,0.9c0.4,0.1,0.9,0.1,1.4-0.2c15.1-8.5,30.7-15.8,46.8-22.1c0,0,0.1,0,0.1,0
		c5-3.4,13.3-4.9,19-6.7c4.8-1.6,12.3-2.1,9.8-7.2c-0.4-0.9-1.1-1.8-2.2-3c-3-3.2-6.3-5.8-9.1-9.3c-3.8-4.7-7.6-9.5-11.4-14.2
		c-8.7-10.9-17.4-21.7-26.1-32.6c-4.4-5.5-8.9-11.1-13.3-16.6c-1.7-2.2-5.3-10.4-9.1-9.1c-1.8,0.6-2.5,5.1-3.1,6.6
		c-2.1,5.9-4.3,11.9-6.4,17.8c-4.3,11.9-8.5,23.8-12.8,35.6c-3.5,9.9-6.6,20.2-10.7,29.8c-1.2,2.7-2.6,4.3-1.6,7.3
		c1.1,3.4,4.6,6.3,6.6,9.3C442.4,590.1,445,595.7,450.2,598.8z M468.6,484.5c21.5,26.9,43.1,53.7,64.7,80.6c-1.6,0.5-3.1,1-4.7,1.5
		c-6.9-9.2-13.7-18.5-20.6-27.7c-0.9-1.2-2.9,0.1-2,1.3c6.7,9.1,13.5,18.1,20.2,27.2c-1.3,0.4-2.5,0.8-3.8,1.2
		c-4.9-6.8-9.8-13.6-14.7-20.4c-0.9-1.2-2.9,0.1-2,1.3c4.8,6.6,9.6,13.3,14.4,19.9c-1.5,0.5-3,1.1-4.5,1.6
		c-4.9-6.7-9.7-13.4-14.5-20.2c-0.9-1.2-2.9,0.1-2,1.3c4.7,6.6,9.5,13.1,14.2,19.7c-1.5,0.6-3.1,1.1-4.6,1.7
		c-3.8-5.9-7.6-11.9-11.5-17.8c-0.8-1.3-2.8,0-2,1.3c3.7,5.8,7.5,11.6,11.2,17.4c-1.1,0.4-2.1,0.9-3.2,1.3
		c-3.7-5.3-7.4-10.7-11.1-16c-0.9-1.3-2.9,0.1-2,1.3c3.6,5.2,7.2,10.4,10.9,15.6c-1.3,0.6-2.7,1.1-4,1.7c-3.2-5-6.3-9.9-9.5-14.9
		c-0.8-1.3-2.8,0-2,1.3c3.1,4.8,6.2,9.7,9.3,14.5c-1.2,0.5-2.4,1-3.6,1.6c-2.7-3.8-5.4-7.7-8.2-11.5c-0.9-1.2-2.9,0.1-2,1.3
		c2.6,3.7,5.3,7.4,7.9,11.1c-1.4,0.6-2.8,1.3-4.2,2c-2.9-4.3-5.7-8.6-8.6-12.9c-0.8-1.3-2.8,0-2,1.3c2.8,4.2,5.6,8.4,8.4,12.6
		c-0.9,0.4-1.9,0.9-2.8,1.3c-2.9-4.4-5.8-8.7-8.7-13.1c-0.8-1.3-2.8,0-2,1.3c2.8,4.3,5.7,8.5,8.5,12.8c-1.4,0.7-2.7,1.4-4.1,2.1
		c-1.8-2.7-3.6-5.5-5.5-8.2c-0.8-1.3-2.8,0-2,1.3c1.8,2.7,3.5,5.3,5.3,8c-0.8,0.4-1.5,0.8-2.3,1.2c-2-3-4-6-6-9
		c-0.8-1.3-2.8,0-2,1.3c2,2.9,3.9,5.9,5.9,8.8c-0.6,0.3-1.3,0.7-1.9,1c-0.3-0.2-0.6-0.3-0.9-0.4c-7.7-9.8-15.4-19.7-23-29.5
		c-0.2-0.3-0.5-0.5-0.7-0.6C449.8,537,459.2,510.8,468.6,484.5z M436.4,574.2c0.8-2.2,1.6-4.5,2.4-6.7c7.3,9.4,14.7,18.8,22,28.2
		c-6.5,5.1-13.5-4.9-16.6-10.1c-2.4-4-4.8-7.7-8.5-10.5C436,574.9,436.3,574.6,436.4,574.2z"/>
	<path class="st1" d="M556.1,560.9c3.1-0.1,6.2-0.2,9.3-0.3c0.7,0,1.2-0.4,1.5-0.9c0.6-0.3,1.2-0.9,1.2-1.8
		c0.2-8.3-0.6-16.7-2.3-24.9c-4.3-20.8-14.7-40.2-29.6-55.3c-7.5-7.6-16.1-14.1-25.4-19.2c-4.2-2.3-14.8-9-22.1-9.3
		c-2.1-0.1-3.9,0.4-5.2,1.6c-1.8,1.7-3.4,4.8-4,7.1c-1.6,5.5,2.4,6.9,6.6,8.3c5.2,1.7,10.2,4,15,6.6c9.4,5.1,18,11.7,25.3,19.5
		c14.7,15.7,24.1,36,26.6,57.3c0.3,2.7,0.5,5.3,0.6,8c0,0.5,0.2,0.9,0.5,1.2C554.1,559.9,554.8,560.9,556.1,560.9z M482.4,461
		c1.5-2.7,3-5.4,4.6-8.2c0.1,0.1,0.2,0.1,0.3,0.2c46.2,13.6,77.1,55.7,76.8,103.7c-1,0-2,0.1-3,0.1c0.5-28.2-11.3-55.5-32.2-74.5
		c-1.1-1-2.7,0.8-1.6,1.8c20.5,18.5,31.9,45.2,31.4,72.7c-0.4,0-0.8,0-1.3,0C555.5,511.8,525.6,473.9,482.4,461z"/>
	<path class="st1" d="M592.8,558.1c3.7-1.1,6.4-2.1,6.7-4.9c0.1-0.8,0-1.7-0.3-2.7c-2.8-9.8-2.9-20.4-5.4-30.5
		c-5.1-20.7-14.8-40.2-28.4-56.6c-16.5-20-38.5-35.2-63-43.7c-0.9-0.3-1.7,0-2.3,0.6c-0.4,0.2-0.7,0.4-1,0.9
		c-1.7,3.6-7.3,10.8-5,14.8c1.8,3.1,6.8,3.7,9.7,5.1c4.7,2.2,9.3,4.7,13.7,7.5c19.2,12,35.2,29,46.3,48.7
		c5.6,9.8,9.9,20.4,12.8,31.3c1.5,5.5,2.6,11,3.4,16.6c0.4,3.3-1.1,11.7,2,13.9C585,561,589.8,558.9,592.8,558.1z M497.4,434
		c1.6-3.4,3.3-6.8,4.9-10.2c54.9,19.8,91.4,71.2,91.6,129.7c-0.9,0.1-1.8,0.3-2.7,0.4c-2.6-36.9-18.7-71.8-45.1-97.8
		c-1.1-1.1-2.7,0.7-1.6,1.8c26,25.6,41.8,60,44.3,96.4c-1.3,0.2-2.5,0.4-3.8,0.6C582.2,501.7,547.1,453.3,497.4,434z"/>
	<path class="st1" d="M499.1,501.5c7.1,8.1,14.2,16.2,21.3,24.3c0.7,0.8,2.3,1.4,3.1,0.2c11.1-16.6-5-37.7-23.9-29.9
		c-1.5,0.6-1.5,2.5-0.7,3.4C498.6,500,498.5,500.8,499.1,501.5z M523.3,516.8c-2.9-3.7-5.9-7.4-8.8-11.1c-0.9-1.2-2.9,0.1-2,1.3
		c3.2,4.1,6.5,8.1,9.7,12.2c0.1,0.1,0.2,0.2,0.4,0.3c-0.2,0.6-0.5,1.3-0.8,1.9c-6.4-7.3-12.8-14.7-19.3-22
		C514.4,495.7,525.2,505.6,523.3,516.8z"/>
	<path class="st1" d="M450.6,554.7c5.5-15.1,11-30.2,16.5-45.3c0.5-1.4-1.6-2.5-2.1-1c-5.5,15.1-11,30.2-16.5,45.3
		C447.9,555.1,450.1,556.1,450.6,554.7z"/>
</g>
</svg>
