<?xml version="1.0" encoding="utf-8"?>
<!-- Generator: Adobe Illustrator 21.0.0, SVG Export Plug-In . SVG Version: 6.00 Build 0)  -->
<svg version="1.1" id="Layer_1" xmlns="http://www.w3.org/2000/svg" xmlns:xlink="http://www.w3.org/1999/xlink" x="0px" y="0px"
	 viewBox="0 0 1059.1 960.2" style="enable-background:new 0 0 1059.1 960.2;" xml:space="preserve">
<style type="text/css">
	.st0{opacity:3.000000e-02;}
	.st1{fill:#565656;}
</style>
<g class="st0">
	<path class="st1" d="M565.9,348.2c-23.5-9.6-47.3-18.5-71-27.8c-11.6-4.5-23.3-9-34.9-13.5c-11.9-4.6-23.9-10.2-36.3-13.7
		c-0.8-0.2-1.4,1-0.6,1.4c17.2,8.7,36.3,14.6,54.3,21.6c19.4,7.6,38.7,15.1,58.1,22.6c4.7,1.8,9.5,3.7,14.2,5.5
		c3.4,1.3,11.9,3.1,13.6,6.1c1.7,3.1-1.2,10.9-1.8,14.5c-0.9,4.9-1.8,9.8-2.7,14.7c-3.7,19.8-7.9,39.6-11.1,59.5
		c-16.5-8.6-34.1-15.7-51-23.5c-18.2-8.4-36.4-16.7-54.5-25.1c-8.7-4-18.4-7.3-26.7-12.2c-5.3-3.1-3.8-6.1-3-11.7
		c0.7-5,1.4-9.9,2-14.8c2.5-18.5,5.2-37,7.5-55.6c0.1-0.8-1.3-1-1.5-0.2c-4.3,26.9-8,53.8-11.9,80.8c-0.1,0.5,0,1.1,0.6,1.4
		c23.6,11,47.2,22,70.9,32.9c22.8,10.6,45.4,22.5,68.8,31.7c1.4,0.6,2.3-1.7,1-2.4c0,0,0,0-0.1,0c6.3-30.1,11.2-60.5,16.9-90.7
		C566.9,348.9,566.5,348.4,565.9,348.2z"/>
	<path class="st1" d="M537.5,485.1c-4.9,3.1-9.6,6.8-14.1,10.5c-0.9,0.7,0.3,2.3,1.3,1.6c4.8-3.3,9.7-6.8,14-10.7
		C539.4,485.9,538.3,484.6,537.5,485.1z"/>
	<path class="st1" d="M502.5,513.6c-9.6,7.2-19.1,14.7-28.2,22.5c-0.8,0.6,0.3,2,1.1,1.4c9.6-7.2,19.1-14.7,28.2-22.5
		C504.3,514.4,503.3,513,502.5,513.6z"/>
	<path class="st1" d="M417.8,525.4c1.4,4.8,2.9,9.6,4.3,14.5c0.3,1,1.9,0.6,1.6-0.4c-1.4-4.8-2.9-9.6-4.3-14.5
		C419.1,523.9,417.5,524.3,417.8,525.4z"/>
	<path class="st1" d="M445.3,540.6c2.2,5.3,4.5,10.5,6.7,15.8c0.4,1,1.9,0.1,1.5-0.9c-2.2-5.3-4.5-10.5-6.7-15.8
		C446.3,538.7,444.9,539.6,445.3,540.6z"/>
	<path class="st1" d="M413.7,385.2c0.8,2.6,1.6,5.3,2.3,7.9c0.3,1,1.9,0.6,1.6-0.4c-0.8-2.6-1.6-5.3-2.3-7.9
		C415.1,383.7,413.4,384.2,413.7,385.2z"/>
	<path class="st1" d="M420.1,390.3c-1-0.4-1.8,1-0.8,1.5c5.9,2.7,11.8,5.3,17.7,8c1,0.4,1.8-1,0.8-1.5
		C431.9,395.6,426,393,420.1,390.3z"/>
	<path class="st1" d="M503.5,431.9c-0.9-0.6-1.8,0.9-0.8,1.5c5.8,3.5,11.6,7,17.4,10.5c0.9,0.6,1.8-0.9,0.8-1.5
		C515.1,438.8,509.3,435.4,503.5,431.9z"/>
	<path class="st1" d="M440.6,351.1c7.8-4.8,15.6-9.6,23.4-14.4c0.9-0.6,0.1-2-0.8-1.5c-7.8,4.8-15.6,9.6-23.4,14.4
		C438.9,350.2,439.7,351.6,440.6,351.1z"/>
	<path class="st1" d="M473.2,341c-10.2,6.9-20.4,13.9-30.6,20.8c-0.9,0.6,0,2.1,0.8,1.5c10.2-6.9,20.4-13.9,30.6-20.8
		C475,341.8,474.1,340.4,473.2,341z"/>
	<path class="st1" d="M467.4,355.3c-7.3,4.9-14.6,9.7-21.9,14.6c-0.9,0.6-0.1,2.1,0.8,1.5c7.3-4.9,14.6-9.7,21.9-14.6
		C469.1,356.2,468.3,354.7,467.4,355.3z"/>
	<path class="st1" d="M501.7,347.8c-18.1,10.2-36.1,20.5-54.2,30.7c-0.9,0.5-0.1,2,0.9,1.4c18.1-10.2,36.1-20.5,54.2-30.7
		C503.5,348.7,502.6,347.3,501.7,347.8z"/>
	<path class="st1" d="M516.1,357.8c-10.3,6.1-20.6,12.1-30.8,18.2c-0.9,0.6-0.1,2,0.8,1.5c10.3-6.1,20.6-12.1,30.8-18.2
		C517.8,358.7,517,357.3,516.1,357.8z"/>
	<path class="st1" d="M521.1,362.7c-9,5.5-18.1,10.9-27.1,16.4c-0.9,0.6-0.1,2,0.8,1.5c9-5.5,18.1-10.9,27.1-16.4
		C522.8,363.6,522,362.2,521.1,362.7z"/>
	<path class="st1" d="M494,388.7c8.2-5.2,16.4-10.4,24.6-15.6c0.9-0.6,0.1-2-0.8-1.4c-8.2,5.2-16.4,10.4-24.6,15.6
		C492.3,387.8,493.1,389.2,494,388.7z"/>
	<path class="st1" d="M534.4,377.8c-14,8.6-28,17.2-42,25.8c-0.9,0.6-0.1,2,0.8,1.5c14-8.6,28-17.2,42-25.8
		C536.2,378.7,535.3,377.3,534.4,377.8z"/>
	<path class="st1" d="M531.3,395.8c-6.1,4.5-12.1,9-18.2,13.6c-0.9,0.6,0,2.1,0.8,1.5c6.1-4.5,12.1-9,18.2-13.6
		C533,396.6,532.1,395.2,531.3,395.8z"/>
	<path class="st1" d="M448.5,339.2c1-0.4,0.6-2-0.4-1.6c-2.2,0.8-4.3,1.6-6.5,2.4c-1,0.4-0.6,2,0.4,1.6
		C444.1,340.8,446.3,340,448.5,339.2z"/>
	<path class="st1" d="M338.1,420.8c-3.6,1.6-7.1,3.1-10.7,4.7c-1,0.4-0.1,1.9,0.8,1.5c3.6-1.6,7.1-3.1,10.7-4.7
		C339.9,421.8,339,420.4,338.1,420.8z"/>
	<path class="st1" d="M443.9,442.2c1.2-0.9,2.5-1.9,3.7-2.8c0.9-0.6,0-2.1-0.8-1.5c-1.2,0.9-2.5,1.9-3.7,2.8
		C442.2,441.4,443.1,442.9,443.9,442.2z"/>
	<path class="st1" d="M518.6,480.6c-7,5.8-14,11.5-21,17.3c-0.2,0.2-0.3,0.3-0.3,0.5c-0.3-0.2-0.7-0.3-1.1,0
		c-5.7,4.7-11.4,9.4-17.2,14.1c-0.8,0.7,0.4,1.9,1.2,1.2c5.7-4.7,11.4-9.4,17.2-14.1c0.2-0.2,0.3-0.3,0.3-0.5c0.3,0.2,0.7,0.3,1.1,0
		c7-5.8,14-11.5,21-17.3C520.6,481.1,519.4,479.9,518.6,480.6z"/>
	<path class="st1" d="M364.1,464.4c4.4,0.2,8.7,0.3,13.1,0.5c1.1,0,1.1-1.6,0-1.7c-4.4-0.1-8.7-0.3-13.1-0.4
		C363,462.6,363,464.3,364.1,464.4z"/>
	<path class="st1" d="M379.5,471.5c-1.9,0-3.7,0-5.6,0c-1.1,0-1.1,1.7,0,1.7c1.9,0,3.7,0,5.6,0C380.6,473.2,380.6,471.5,379.5,471.5
		z"/>
	<path class="st1" d="M386.1,481.6c4.5,0,9,0,13.5,0c1.1,0,1.1-1.7,0-1.7c-4.5,0-9,0-13.5,0C385,479.9,385,481.6,386.1,481.6z"/>
	<path class="st1" d="M394,487.2c2.3-0.1,4.7-0.3,7-0.4c1.1-0.1,1.1-1.8,0-1.7c-2.3,0.2-4.7,0.3-7,0.4
		C392.9,485.6,392.9,487.3,394,487.2z"/>
	<path class="st1" d="M400.8,490.1c0.8,0.1,1.6,0.3,2.3,0.4c1.1,0.2,1.5-1.4,0.4-1.6c-0.8-0.1-1.6-0.3-2.3-0.4
		C400.2,488.3,399.7,489.9,400.8,490.1z"/>
	<path class="st1" d="M438.4,506.6c-2.2,1.3-4.4,2.5-6.6,3.8l-9.3-5l6.3-3.1l5.7,2.6c0.2,0.1,0.4,0.1,0.6,0.1c0.5,0,1-0.3,1.3-0.8
		c0.3-0.7,0-1.5-0.7-1.9l-4.8-2.3c0-0.1,0-0.2-0.1-0.4c-0.3-0.7-1.2-1-1.9-0.6l-0.1,0l-0.1-0.1c-0.7-0.3-1.5,0-1.9,0.7
		c-0.1,0.1-0.1,0.3-0.1,0.4l-7.2,3.6c-0.7,0.3-1,1.2-0.6,1.9c0.1,0.2,0.2,0.3,0.3,0.4c0,0.5,0.3,0.9,0.7,1.2l11.2,6.1
		c0.2,0.1,0.4,0.2,0.7,0.2c0.5,0,1-0.3,1.2-0.7c0.1-0.2,0.2-0.5,0.1-0.8c0,0,0,0,0,0c0.3,0,0.6,0,0.9,0c0.8,0,0.9-0.8,0.7-1.3
		c1.5-0.9,3-1.7,4.4-2.6C440.2,507.5,439.4,506.1,438.4,506.6z"/>
	<path class="st1" d="M459.9,523.9c-1.4,0.8-2.9,1.7-4.3,2.5l-12.6-8l6.8-3.2l5.2,3.2c0.2,0.1,0.5,0.2,0.7,0.2
		c0.5,0,0.9-0.2,1.2-0.7c0.4-0.7,0.2-1.5-0.5-1.9l-5-3.1c0,0,0,0,0,0c-0.3-0.6-0.9-0.8-1.4-0.8c-0.6-0.2-1.2,0.1-1.6,0.6
		c0,0,0,0,0,0.1l-8.1,3.8c-0.4,0.2-0.7,0.6-0.8,1.1c-0.1,0.1-0.1,0.1-0.2,0.2c-0.4,0.7-0.2,1.5,0.4,1.9l15,9.5
		c0.2,0.1,0.5,0.2,0.7,0.2c0.5,0,0.9-0.2,1.2-0.7c0.2-0.4,0.3-0.8,0.1-1.2c1.3-0.8,2.6-1.5,3.9-2.3
		C461.7,524.8,460.8,523.3,459.9,523.9z"/>
	<path class="st1" d="M453.5,536.3c-0.4,0.6-0.9,0.8-1.6,0.8c-1.1-0.1-1.1,1.6,0,1.7c1.3,0.1,2.3-0.5,3-1.6
		C455.5,536.2,454,535.4,453.5,536.3z"/>
	<path class="st1" d="M424.3,415.1c0.8-0.5,1.6-0.9,2.3-1.4c0.9-0.6,0.1-2-0.8-1.5c-0.8,0.5-1.6,0.9-2.3,1.4
		C422.5,414.2,423.4,415.7,424.3,415.1z"/>
	<path class="st1" d="M467.1,440.4c0.8-0.3,1.6-0.6,2.3-0.9c1-0.4,0.6-2-0.4-1.6c-0.8,0.3-1.6,0.6-2.3,0.9
		C465.6,439.2,466.1,440.8,467.1,440.4z"/>
	<path class="st1" d="M480.2,448c0.9-0.3,1.9-0.6,2.8-0.9c1-0.3,0.6-2-0.4-1.6c-0.9,0.3-1.9,0.6-2.8,0.9
		C478.7,446.7,479.2,448.3,480.2,448z"/>
	<path class="st1" d="M440.3,402.3c0,2,0,4,0,6.1c0,1.1,1.7,1.1,1.7,0c0-2,0-4,0-6.1C442,401.2,440.3,401.2,440.3,402.3z"/>
	<path class="st1" d="M434.8,401.9c-0.6-0.9-2-0.1-1.5,0.8c0.9,1.4,1.9,2.8,2.8,4.2c0.6,0.9,2,0.1,1.5-0.8
		C436.7,404.7,435.8,403.3,434.8,401.9z"/>
	<path class="st1" d="M575.2,360.5c0.6-0.5,1.2-0.9,1.9-1.4c0.9-0.6,0-2.1-0.8-1.5c-0.6,0.5-1.2,0.9-1.9,1.4
		C573.5,359.7,574.3,361.1,575.2,360.5z"/>
	<path class="st1" d="M577.4,362.9c-1.2,1.1-2.5,2.2-3.7,3.3c-0.8,0.7,0.4,1.9,1.2,1.2c1.2-1.1,2.5-2.2,3.7-3.3
		C579.4,363.4,578.2,362.2,577.4,362.9z"/>
	<path class="st1" d="M573.6,390.9c-0.6,0.8-1.3,1.5-1.9,2.3c-0.7,0.8,0.5,2,1.2,1.2c0.6-0.8,1.3-1.5,1.9-2.3
		C575.5,391.2,574.3,390,573.6,390.9z"/>
	<path class="st1" d="M570.7,404.7c0.8-0.8,1.6-1.6,2.3-2.3c0.8-0.8-0.4-2-1.2-1.2c-0.8,0.8-1.6,1.6-2.3,2.3
		C568.7,404.3,569.9,405.5,570.7,404.7z"/>
	<path class="st1" d="M559.5,452.7c-0.5,0.6-0.9,1.2-1.4,1.9c-0.6,0.9,0.8,1.7,1.5,0.8c0.5-0.6,0.9-1.2,1.4-1.9
		C561.6,452.7,560.2,451.9,559.5,452.7z"/>
	<path class="st1" d="M466.7,512.6c-6.8-4.4-13.6-8.8-20.4-13.2c-0.9-0.6-1.8,0.9-0.8,1.5c6.8,4.4,13.6,8.8,20.4,13.2
		C466.7,514.6,467.6,513.2,466.7,512.6z"/>
	<path class="st1" d="M544.2,480.5c-0.5,0.8-0.9,1.7-1.4,2.5c-0.8,1.4,1,2.8,2.2,1.7c0.4-0.4,0.9-0.8,1.3-1.2
		c0.5-0.5,0.5-1.1,0.3-1.5c0,0,0-0.1,0.1-0.1C547.5,480.4,545.1,479,544.2,480.5z"/>
	<path class="st1" d="M582.6,333.3c-0.1-0.1-0.2-0.2-0.3-0.2c-28.3-10.9-56.7-21.5-85.1-32.3c-13.6-5.2-27.2-10.5-40.9-15.5
		c-13.2-4.8-26.9-8.5-41-6.7c-0.4,0.1-0.7,0.3-0.8,0.7c-0.5-0.2-1-0.3-1.4-0.5c-0.7-0.3-1.8,0.3-1.9,1.1c-5.1,35.5-10,71-14.1,106.6
		c-17.5,5.8-34.5,15-51.3,22.5c-18.4,8.2-36.8,16.4-55,25.2c-0.8,0.4-0.2,1.8,0.6,1.5c17.9-7.3,35.7-15.1,53.4-22.9
		c17.3-7.6,36-14.2,52.5-23.5c0,0,0.1,0,0.1,0.1c0.1,0.1,0.2,0.2,0.3,0.2c24.7,13.9,49.9,26.9,74.9,40.2c22.6,12,45,25,68.1,36
		c0.2,0.5,0.8,0.8,1.2,0.6c1.1,0.5,2.3,1.1,3.4,1.6c-0.1,0.2-0.1,0.5-0.2,0.7c-0.1,0.6,0.3,1,0.8,1c-15,11.2-29.3,23.6-43.8,35.4
		c-7.8,6.3-15.6,12.7-23.4,19.1c-6.4,5.3-13.3,10.3-19.5,15.9c-0.1,0-0.3,0-0.4,0c-1.2,0.5-2.5,1-3.7,1.5c-2.3-1.9-4.6-3.7-6.9-5.5
		c0.8-0.6,1.7-1.2,2.5-1.8c0.9-0.6,0-2.1-0.8-1.5c-1,0.7-2,1.4-3.1,2.2c-1.5-1.2-3-2.3-4.5-3.5c0.9-0.5,1.8-1,2.7-1.6
		c0.9-0.5,0.1-2-0.8-1.5c-0.9,0.5-1.8,1.1-2.7,1.6c-0.2,0.1-0.3,0.3-0.4,0.5c-1.1-0.8-2.1-1.7-3.2-2.5c1.1-0.7,2.2-1.3,3.4-2
		c0.9-0.5,0.1-2-0.8-1.5c-1.3,0.8-2.6,1.5-4,2.3c-1.1-0.9-2.3-1.7-3.4-2.5c0.1-0.1,0.2-0.1,0.3-0.2c0.9-0.6,0.1-2.1-0.9-1.5
		c-0.3,0.2-0.6,0.4-0.9,0.6c-1.5-1.1-2.9-2.2-4.4-3.3c0.2-0.1,0.4-0.3,0.6-0.4c0.9-0.6,0-2.1-0.8-1.5c-0.4,0.3-0.8,0.5-1.2,0.8
		c-1.4-1-2.7-2-4.1-3c0.5-0.4,1-0.8,1.6-1.3c0.8-0.7-0.4-1.9-1.2-1.2c-0.6,0.5-1.2,1-1.8,1.4c-1.4-1-2.8-2-4.2-3
		c0.7-0.7,1.3-1.3,2-2c0.8-0.8-0.4-2-1.2-1.2c-0.7,0.7-1.5,1.5-2.2,2.2c-1.7-1.2-3.4-2.4-5.1-3.6c1.4-0.8,2.7-1.6,4.1-2.4
		c0.9-0.6,0.1-2-0.8-1.5c-1.6,0.9-3.1,1.9-4.7,2.8c0,0,0,0,0,0c-1.4-1-2.8-1.9-4.2-2.9c1.7-0.8,3.4-1.7,5.2-2.5
		c1-0.5,0.1-1.9-0.8-1.5c-2,1-3.9,1.9-5.9,2.9c-8.2-5.6-16.5-11.2-24.9-16.6c-9-5.8-18.1-11.5-27.3-17.1c1.7,1,3.9,0.9,5.5-0.3
		c0.2-0.1,0.3-0.3,0.3-0.5c7.5,4.7,14.5,9.4,21.2,13.9c7.6,5.1,15.5,10.5,24.2,15.8l0.8,0.5l0.8-0.6c2.4-1.8,4.5-4,6.5-6.1
		c2-2.1,3.9-4.1,6.1-5.8l1.6-1.2l-24.9-16.6c0-0.1-0.1-0.2-0.2-0.3c-0.3-0.3-0.6-0.5-1-0.5L371,454c0.2,0,0.4,0,0.6-0.1
		c1.4-0.9,2.9-1.9,4.3-2.8c21.5,15.7,43,31.4,64.5,47.2c0.9,0.6,1.7-0.8,0.8-1.5c-21.3-15.6-42.6-31.1-63.8-46.7
		c0.7-0.5,1.4-0.9,2.1-1.4c0.4-0.3,0.4-0.7,0.3-1c6.4,4.1,12.8,8.4,19.3,12.7c0,0.2,0.1,0.3,0.2,0.5c0.3,0.3,0.7,0.5,1.1,0.5
		c0,0,0.1,0,0.1,0c9.3,6.3,18.7,12.7,28,19.3c0.1,0.1,0.1,0.2,0.2,0.3c0.2,0.3,0.6,0.4,0.9,0.5c15.1,10.7,30,21.9,44.4,33.5
		c0.3,0.2,0.6,0.3,0.9,0.3c0.4,0,0.8-0.2,1.1-0.5c0.5-0.6,0.4-1.5-0.2-2c-0.1-0.1-0.2-0.2-0.3-0.2c2.3-1.8,4.6-3.7,7-5.5
		c0.8-0.7-0.3-1.9-1.2-1.2c-2.4,1.9-4.8,3.8-7.1,5.6c-2.1-1.7-4.2-3.3-6.3-5c0.1,0,0.1,0,0.2-0.1c2.6-2.3,5.2-4.6,7.9-6.9
		c2.2,1.7,4.5,3.3,6.7,5c0.3,0.2,0.6,0.3,0.9,0.3c0.4,0,0.8-0.2,1.1-0.6c0.2-0.3,0.3-0.7,0.3-1c0,0,0,0,0,0
		c5.1-4.6,10.9-8.2,16.6-12.1c0.9-0.6,0-2.1-0.8-1.5c-5.7,3.9-11.6,7.6-16.8,12.2c-1.9-1.4-3.8-2.9-5.7-4.3c0.7-0.6,1.3-1.1,2-1.7
		c0.7-0.7,0.5-1.5-0.1-2c-0.2-0.9-1.4-1.7-2.4-0.9c-0.9,0.7-1.8,1.4-2.6,2.2c-0.5-0.4-0.9-0.7-1.4-1.1c2-1.4,4-2.8,6-4.2
		c2.4,1.8,4.9,3.5,7.3,5.3c0.2,0.2,0.5,0.3,0.8,0.3c0.4,0,0.9-0.2,1.1-0.6c0.5-0.6,0.3-1.5-0.3-2c-0.9-0.7-1.8-1.3-2.7-2
		c3.6-2.9,7.1-5.8,10.7-8.7c0.4,0.5,1.1,0.7,1.7,0.5c0.1,0,0.1,0.1,0.2,0.1c-2.4,2.1-4.9,4.1-7.3,6.2c-0.8,0.7,0.4,1.9,1.2,1.2
		c2.5-2.1,5-4.2,7.5-6.3c2.3,1.7,4.6,3.3,6.9,5c0.3,0.2,0.5,0.3,0.8,0.3c0.4,0,0.9-0.2,1.1-0.6c0.1-0.2,0.2-0.4,0.2-0.6
		c2.9-2.3,5.7-4.6,8.6-6.9c0.8-0.7-0.4-1.9-1.2-1.2c-2.7,2.2-5.5,4.4-8.2,6.5c-2-1.5-4.1-2.9-6.1-4.4c4.2-3.5,8.3-7,12.5-10.5
		l0.3,0.2c0.1,0.1,0.2,0.1,0.3,0.2l8,4.6c0.2,0.1,0.5,0.2,0.7,0.2c0.5,0,1-0.3,1.2-0.7c0.4-0.7,0.2-1.5-0.5-1.9l-6.8-3.9
		c0.8-0.6,1.7-1.2,2.5-1.9c0.9-0.6,0-2.1-0.8-1.5c-1.1,0.8-2.1,1.6-3.2,2.4l-4.6-2.7c0.5-0.2,1.1-0.5,1.6-0.7c1-0.4,0.1-1.9-0.8-1.5
		c-0.9,0.4-1.7,0.7-2.6,1.1l-4.5-2.6c0.7-0.3,1.4-0.5,2.1-0.8c1-0.4,0.6-2-0.4-1.6c-1.2,0.4-2.4,0.9-3.6,1.3l-6.6-3.8
		c0.8-0.4,1.6-0.7,2.5-1.1c1-0.4,0.1-1.9-0.8-1.5c-1.1,0.5-2.2,0.9-3.3,1.4c-0.1,0-0.1,0.1-0.1,0.1l-4-2.3c0.9-0.6,1.8-1.3,2.7-1.9
		c0.9-0.6,0-2.1-0.8-1.5c-0.9,0.6-1.9,1.3-2.8,1.9c-0.3,0.2-0.4,0.4-0.4,0.7l-4.4-2.5c0.8-0.3,1.5-0.6,2.3-1c1-0.4,0.1-1.9-0.8-1.5
		c-0.9,0.4-1.8,0.8-2.7,1.2c-0.2,0.1-0.3,0.2-0.4,0.3l-9.3-5.3c1.9-0.9,3.8-1.7,5.7-2.6c1-0.4,0.1-1.9-0.8-1.4c-2.2,1-4.3,2-6.5,2.9
		c-0.1,0-0.1,0.1-0.2,0.1l-11.4-6.6c0.8-0.5,1.7-1.1,2.5-1.6c0.9-0.6,0.1-2-0.8-1.5c-1.1,0.7-2.2,1.4-3.3,2.1l-4.7-2.7
		c0.6-0.3,1.2-0.6,1.9-0.8c1-0.4,0.1-1.9-0.8-1.5c-0.9,0.4-1.9,0.8-2.8,1.3l-6.3-3.6c0.5-0.3,1.1-0.5,1.6-0.8c1-0.5,0.1-1.9-0.8-1.5
		c-0.8,0.4-1.7,0.8-2.5,1.2l-9.3-5.4c0.3-0.2,0.6-0.4,1-0.6c0.9-0.6,0.1-2-0.8-1.5c-0.6,0.4-1.2,0.7-1.8,1.1l-4.6-2.6
		c0.6-0.2,1.3-0.4,1.9-0.6c1-0.3,0.6-2-0.4-1.6c-0.9,0.3-1.9,0.6-2.8,0.9c-0.2,0.1-0.3,0.2-0.4,0.3l-2-1.1c0.1-0.1,0.3-0.2,0.4-0.3
		c0.8-0.7-0.4-1.9-1.2-1.2c-0.3,0.2-0.5,0.4-0.8,0.6l-7.1-4.1c0.2,0,0.3,0,0.5-0.1c1.2-0.8,2.5-1.6,3.7-2.3c0.9-0.6,0.1-2-0.8-1.5
		c-1.2,0.8-2.5,1.6-3.7,2.3c-0.5,0.3-0.5,0.9-0.2,1.3l-1.8-1l1.7-1.1c0.7-0.4,0.9-1.3,0.4-1.9c-0.4-0.7-1.3-0.9-1.9-0.4l-3,1.9
		l-2.1-1.2c0.5-0.4,1-0.8,1.5-1.2c0.9-0.6,0-2.1-0.8-1.5c-0.6,0.5-1.2,0.9-1.9,1.4c-0.1,0.1-0.2,0.2-0.3,0.4l-6.7-3.8
		c0.3-0.2,0.7-0.4,1-0.7c0.1,0.5,0.4,0.8,1,0.6c0.9-0.3,1.9-0.6,2.8-1c1-0.3,0.6-2-0.4-1.6c-0.7,0.2-1.4,0.5-2.1,0.7
		c0.3-1.1-0.8-2.4-2-1.6c-1,0.6-2,1.3-3,1.9l-2-1.1c1.2-0.4,2.3-0.7,3.5-1.1c1-0.3,0.6-1.9-0.4-1.6c-1.6,0.5-3.1,0.9-4.7,1.4
		c-0.1,0-0.2,0.1-0.3,0.2l-1.1-0.6c-0.6-0.4-1.4-0.2-1.8,0.4c-0.2-0.1-0.3-0.1-0.6,0c-9.8,2.9-19.4,6.5-28.6,10.9c0,0,0,0,0,0
		c-3.3,1.6-6.7,3.2-9.9,5c-0.6-0.2-1.3,0.1-1.6,0.6c-0.1,0.1-0.1,0.2-0.1,0.3c-2.7,1.5-5.4,3.1-8.1,4.8c-0.3-0.2-0.6-0.4-0.8-0.5
		c-0.6-0.4-1.5-0.2-1.9,0.5c-0.4,0.7-0.2,1.5,0.5,1.9c2.8,1.7,5.7,3.5,8.5,5.3c-2.2,1.3-4.4,2.7-6.7,4c-0.9,0.6-0.1,2,0.8,1.5
		c2.3-1.4,4.7-2.8,7-4.2c0.1-0.1,0.2-0.2,0.3-0.3c1.7,1,3.3,2,5,3.1c-2.6,1.2-5.3,2.5-7.9,3.7c-1,0.5-0.1,1.9,0.8,1.5
		c2.9-1.4,5.9-2.8,8.8-4.1c1,0.6,2,1.2,2.9,1.9c0.1,0.3,0.3,0.5,0.7,0.5c0,0,0,0,0,0c1.2,0.8,2.5,1.6,3.7,2.4
		c-0.7,0.4-1.4,0.9-2.1,1.3c-0.4-0.3-0.8-0.6-1.2-0.9c0.1,0,0.1-0.1,0.2-0.1c1-0.5,0.1-1.9-0.8-1.5c-0.3,0.1-0.6,0.3-0.8,0.4
		c-0.1-0.1-0.2-0.1-0.3-0.2c-0.7-0.5-1.3,0.3-1.2,0.9c-1.4,0.7-2.8,1.4-4.2,2.1c-1,0.5-0.1,1.9,0.9,1.5c1.6-0.8,3.1-1.6,4.7-2.3
		c0.4,0.3,0.9,0.6,1.3,1c-1.2,0.8-2.4,1.5-3.6,2.3c-0.9,0.6-0.1,2,0.8,1.5c1.4-0.9,2.8-1.8,4.2-2.6c0.7,0.5,1.5,1.1,2.2,1.6
		c-0.1,0-0.3,0.1-0.4,0.2c-0.8,0.6-1.6,1.2-2.3,1.9c-0.8,0.7,0.3,1.9,1.2,1.2c0.8-0.6,1.6-1.2,2.3-1.9c0.2-0.2,0.3-0.4,0.3-0.6
		c0.9,0.6,1.7,1.2,2.6,1.9c-1.5,1-2.9,1.9-4.4,2.9c-0.9,0.6-0.1,2,0.8,1.5c1.7-1.1,3.3-2.2,5-3.3c1.5,1.1,3,2.2,4.5,3.3
		c-1.2,0.8-2.5,1.6-3.7,2.4c-0.5,0.3-0.5,0.9-0.2,1.3l-1.3-0.9l-0.8,0.5c-2.5,1.7-4.9,3.4-7.4,5.1c-2.7,1.8-5.4,3.7-8.1,5.6
		l-1.8,1.2l1.8,1.1c0.5,0.3,1,0.6,1.5,0.9c-1.3,0.9-2.7,0.9-4,0c-0.8-0.6-1.6,0.7-0.9,1.3c-1-0.6-2-1.2-3.1-1.9
		c1.3-0.9,2.7-1.7,4-2.6c0.9-0.6,0.1-2-0.8-1.5c-1.6,1-3.2,2-4.8,3c-0.9-0.5-1.8-1.1-2.7-1.6c1.5-0.9,3.1-1.9,4.6-2.8
		c0.9-0.6,0.1-2-0.8-1.5c-1.8,1.1-3.6,2.2-5.4,3.3c-1.4-0.8-2.8-1.6-4.2-2.5c1.8-0.9,3.5-1.7,5.3-2.6c1-0.5,0.1-1.9-0.8-1.5
		c-1.9,0.9-3.8,1.8-5.6,2.7c-0.2,0.1-0.3,0.2-0.4,0.4c-1.5-0.9-3-1.7-4.5-2.5c3.1-1.8,6.2-3.6,9.4-5.4c0.9-0.5,0.1-2-0.8-1.5
		c-3.3,1.9-6.5,3.7-9.8,5.6c-0.1,0.1-0.2,0.2-0.3,0.3c-1.4-0.8-2.8-1.6-4.2-2.4c3.2-1.5,6.3-3,9.5-4.5c1-0.5,0.1-1.9-0.8-1.5
		c-3.5,1.7-7,3.3-10.4,5c-1.5-0.8-2.9-1.6-4.4-2.4c2-1,3.9-2,5.9-3c1-0.5,0.1-1.9-0.8-1.5c-2.3,1.1-4.5,2.3-6.8,3.4
		c-1.5-0.8-3.1-1.7-4.6-2.5c1.6-0.7,3.2-1.5,4.8-2.2c1-0.5,0.1-1.9-0.8-1.5c-2,0.9-3.9,1.8-5.9,2.7c-1.3-0.7-2.6-1.4-3.9-2
		c2-1,3.9-2,5.9-3c1-0.5,0.1-1.9-0.8-1.5c-2.2,1.1-4.4,2.2-6.5,3.3c-0.1,0.1-0.2,0.1-0.3,0.2c-1.4-0.7-2.8-1.4-4.2-2.1
		c3-1.4,6-2.7,9.1-4.1c1-0.4,0.1-1.9-0.9-1.5c-3.4,1.5-6.8,3.1-10.1,4.6c-1.1-0.6-2.2-1.1-3.3-1.6c3.2-1.4,6.5-2.8,9.7-4.3
		c1-0.4,0.1-1.9-0.8-1.5c-3.6,1.6-7.1,3.1-10.7,4.7c0,0,0,0-0.1,0c-0.9-0.4-1.8-0.9-2.7-1.4c-0.5-0.2-0.9-0.1-1.2,0.3
		c-0.4-0.1-0.9,0-1.1,0.5c-1.1,3.1-1.2,6.3-0.3,9.4c0.2,0.8,0.5,1.6,0.8,2.4c0,0,0,0.1,0,0.1c0,0,0,0,0,0c2.5,5.2,8.7,9.2,13.1,12
		c1.6,1.1,3.2,2.2,4.9,3.4c0,0.1,0.1,0.2,0.1,0.4c0.2,0.6,0.7,0.7,1.2,0.5c10.2,7.1,19.9,14.7,29.9,22.1c2,1.5,4,2.9,6,4.4
		c0.1,0.4,0.4,0.6,0.8,0.6c12.2,8.9,24.7,17.3,37.2,25.6c0,0.1,0.1,0.2,0.1,0.3c0.2,0.6,0.7,0.7,1.2,0.5
		c15.3,10.1,30.9,19.9,46.3,29.8c9.2,5.9,20.5,14.5,32,9.9c10.2-4.1,17.6-13.5,26-20.3c14.1-11.4,28.7-22,42.3-34.1
		c7.1-6.4,14.4-13,20-20.9c-0.1,0.4,0.2,0.8,0.5,1c-0.5,0.9,0.2,2.4,1.6,2.1c19.4-4.9,46.4-10.4,59,10.2c5.7,9.3,3.4,20.3-4.5,27.5
		c-8.3,7.5-19.9,9.1-30.7,8.8c-16.8-0.4-35.2-5-50.7,3.8c-11,6.2-17.3,19.8-11.3,31.6c0.1,0.3,0.3,0.4,0.5,0.5
		c-0.4,4.6,1.9,9.3,6.1,11.6c0.5,0.3,0.9,0.2,1.3,0c-1.2,5.8-0.2,11.9,4.1,16.4c5.8,6,15.1,7.2,22.6,10.1c7.7,3,25.4,11.9,33.9,5.5
		c0,0,0,0,0.1,0c1.2,0.3,1.9-0.8,1.7-1.7c0.3-0.4,0.6-0.7,0.9-1.2c0-0.1,0-0.1,0.1-0.2c0,0,0-0.1,0.1-0.1c2.8-8.9-2.7-17.5-6.5-25.3
		c-3.4-7.1-7.5-14.4-13.9-19.2c-12.8-9.7-32.3-5.4-40.2,8.2c-2.4-2.5-4.9-4.9-7.3-7.4c-0.5-0.5-1.1-0.5-1.6-0.2
		c-4.4-10.9,2.8-22.5,12.9-27.3c10.3-4.9,22.2-4.2,33.2-3.4c17.2,1.4,38.5,3,50.3-12.6c9.2-12.1,4.7-27.3-6.9-35.9
		c-15.5-11.6-35.8-7.2-53.1-2.8c13.9-27.4,23.2-58.5,27.7-90c0,0,0,0,0,0c0.5-0.4,0.4-0.9,0.1-1.3c2.7-19,3.6-38.1,2.7-56.6
		c0-0.1-0.1-0.1-0.1-0.2c0.2-0.1,0.4-0.2,0.6-0.4C583.7,334.5,583.4,333.4,582.6,333.3z M512.1,470.4l0.8,0.4
		c-0.4,0.3-0.7,0.6-1.1,0.9C512.3,471.3,512.3,470.8,512.1,470.4z M385,447.8c-4.8-3.1-9.6-6.2-14.3-9.2l7.7-4.9
		c2.4,1.5,4.9,2.9,7.3,4.4c-1.5,0.8-2.9,1.7-4.4,2.5c-0.9,0.5-0.1,2,0.8,1.5c1.7-1,3.4-2,5.1-2.9c0.3,0.2,0.6,0.3,0.8,0.5
		c-2.1,1.4-4.2,2.7-6.3,4c-0.9,0.6-0.1,2,0.8,1.5c2.3-1.5,4.7-3,7.1-4.5c1,0.6,2,1.2,2.9,1.8L385,447.8
		C385.1,447.7,385,447.8,385,447.8z M400.4,420c2.9,1.6,5.7,3.3,8.6,5c-3.7,2.1-7.3,4.2-11,6.3c-2.6-1.6-5.2-3.3-7.7-4.9L400.4,420z
		 M397.6,418.4C397.6,418.4,397.6,418.4,397.6,418.4C397.6,418.4,397.6,418.4,397.6,418.4L397.6,418.4z M407.1,432.6
		c2.1-1.7,4.2-3.4,6.2-5.2c0.3,0.2,0.6,0.4,0.9,0.6c-0.3,0.2-0.5,0.4-0.8,0.6c-0.1,0-0.1,0-0.2,0.1L404,435
		c-0.9-0.6-1.7-1.1-2.6-1.7c1.9-1.2,3.9-2.5,5.8-3.7c0.7-0.4,0.4-1.4-0.2-1.6c1.2-0.7,2.5-1.4,3.7-2.1c0.4,0.2,0.8,0.4,1.2,0.7
		c-2,1.6-3.9,3.3-5.9,4.9C405.1,432.1,406.3,433.3,407.1,432.6z M413,438.5c2.6-2.2,5.3-4.3,8-6.5c1.3,0.8,2.6,1.5,3.8,2.3
		c-0.2,0.1-0.3,0.3-0.5,0.4c-0.2-0.4-0.6-0.6-1.1-0.3c-3.3,2.2-6.5,4.4-9.7,6.6c-2.3-1.5-4.6-3-6.9-4.5l6.6-4.5c0.1,0,0.2,0,0.2-0.1
		c1.2-0.8,2.4-1.6,3.6-2.5c0.8,0.5,1.6,1,2.4,1.5c-2.5,2.1-5.1,4.2-7.6,6.2C410.9,438,412.1,439.2,413,438.5z M431.8,446.8
		c1.7-1.6,3.5-3.3,5.2-4.9c1.9,1.2,3.9,2.4,5.8,3.6c-1.1,1.1,0.2,3.2,1.6,2.2c0.3-0.2,0.6-0.4,0.9-0.6c4,2.5,8,5.1,11.9,7.7
		l-10.3,8.8c-0.8-0.6-1.7-1.2-2.5-1.8c-0.1-0.2-0.3-0.3-0.5-0.3c-3.1-2.1-6.1-4.2-9.2-6.2l6.8-5.8c0.6-0.5,0.7-1.4,0.2-2
		c-0.5-0.6-1.4-0.7-2-0.2l-7.4,6.3c-0.1-0.1-0.2-0.1-0.3-0.2c0.4-0.3,0.8-0.6,1.2-1c0.8-0.7-0.4-1.9-1.2-1.2c-0.5,0.4-1,0.8-1.5,1.2
		c-3.3-2.2-6.7-4.4-10-6.6l9.9-7.9c0.1,0,0.1,0,0.2,0c1.6,1,3.2,2,4.8,3c-1.7,1.6-3.3,3.1-5,4.7C429.8,446.3,431,447.5,431.8,446.8z
		 M474.9,483.3c-0.1-0.1-0.2-0.1-0.2-0.2c3.7-3,7.4-6,11.1-9c0.1,0.1,0.2,0.1,0.2,0.2L474.9,483.3z M488.3,475.9
		c0.1,0.1,0.3,0.2,0.4,0.3c-3.7,3-7.4,6-11.1,9c-0.1-0.1-0.2-0.2-0.3-0.3L488.3,475.9z M473.2,482.1c-1.9-1.4-3.9-2.8-5.8-4.1
		c3.8-2.8,7.7-5.7,11.5-8.5c1.8,1.2,3.5,2.5,5.3,3.7C480.6,476.1,476.9,479.1,473.2,482.1z M387.6,428c2.5,1.6,5.1,3.2,7.6,4.8
		c-2.2,1.3-4.5,2.6-6.7,3.8c-2.5-1.5-5-3-7.4-4.5L387.6,428z M378.5,430.4c-0.2-0.1-0.3-0.2-0.5-0.3c2.3-1.3,4.5-2.6,6.8-4
		c0.1,0.1,0.2,0.1,0.3,0.2L378.5,430.4z M387.5,424.6c1.5-0.9,3.1-1.8,4.6-2.7l-4.5,2.8C387.6,424.6,387.5,424.6,387.5,424.6z
		 M396.9,433.8c0.1,0.1,0.2,0.1,0.3,0.2c-2.1,1.3-4.2,2.7-6.3,4c-0.2-0.1-0.5-0.3-0.7-0.4C392.4,436.3,394.6,435.1,396.9,433.8z
		 M398.7,435c0.9,0.6,1.8,1.1,2.7,1.7l-6.1,4.1c-1-0.6-1.9-1.2-2.9-1.8C394.5,437.7,396.6,436.3,398.7,435z M399.6,432.2
		c1.1-0.6,2.1-1.2,3.2-1.8c-1,0.6-2,1.3-3.1,2C399.7,432.3,399.7,432.2,399.6,432.2z M404,438.3c2.3,1.5,4.6,3,6.9,4.5
		c-2,1.4-4,2.7-6,4.1c-2.3-1.5-4.7-3-7-4.4L404,438.3z M412.4,443.8c1.1,0.7,2.2,1.5,3.4,2.2l-5.5,4.4c-1.3-0.8-2.6-1.7-3.9-2.5
		C408.5,446.5,410.4,445.2,412.4,443.8z M414.9,442.1c1.4-1,2.8-1.9,4.2-2.9c-1.2,1.1-2.4,2.2-3.7,3.2
		C415.3,442.3,415.1,442.2,414.9,442.1z M418.3,447.7c3.3,2.2,6.7,4.4,10,6.6c-1.8,1.4-3.6,2.9-5.4,4.3c-3.4-2.2-6.7-4.4-10.1-6.6
		L418.3,447.7z M429.7,455.3c0.1,0.1,0.3,0.2,0.4,0.3l-5.2,4.4c-0.2-0.1-0.3-0.2-0.5-0.4C426.1,458.2,427.9,456.7,429.7,455.3z
		 M432.5,457.2c3,2,5.9,4,8.9,6c-1.8,1.4-3.7,2.8-5.5,4.2c-2.9-2-5.7-3.9-8.6-5.8L432.5,457.2z M442.9,464.2
		c0.6,0.4,1.3,0.9,1.9,1.3l-5.2,4.5c-0.7-0.5-1.5-1-2.2-1.5C439.2,467,441,465.6,442.9,464.2z M447.2,467.1c1.2,0.8,2.3,1.6,3.5,2.4
		c-1.2,0.9-2.4,1.8-3.6,2.8c-0.8,0.6,0,2.1,0.8,1.5c1.4-1.1,2.8-2.1,4.2-3.2c0.2,0.1,0.3,0.2,0.5,0.4c-1.9,1.4-3.7,2.8-5.6,4.2
		c-1.7-1.2-3.4-2.4-5.1-3.6L447.2,467.1z M454.1,471.9c1.7,1.2,3.3,2.3,5,3.5c-2.1,1.3-4.1,2.6-6.2,3.8c-1.5-1-2.9-2-4.4-3.1
		C450.3,474.8,452.2,473.3,454.1,471.9z M460.4,476.5l-5.4,4.3c-0.2-0.2-0.5-0.3-0.7-0.5C456.3,479.1,458.4,477.8,460.4,476.5z
		 M462.9,478.2c0.2,0.2,0.5,0.4,0.7,0.5c-0.5,0.3-0.9,0.7-1.4,1c-0.9,0.6,0,2.1,0.9,1.5c0.7-0.5,1.3-1,2-1.5c2,1.4,4,2.8,5.9,4.2
		c-1.8,1.5-3.7,3-5.5,4.5c-2.7-2-5.4-3.9-8.1-5.9L462.9,478.2z M472.4,484.9c0.1,0.1,0.2,0.1,0.2,0.2l-5.5,4.5
		c-0.1-0.1-0.2-0.1-0.2-0.2C468.7,487.9,470.6,486.4,472.4,484.9z M466,476.9c-0.3-0.2-0.5-0.4-0.8-0.6l9.2-7.2
		c0.1,0,0.3-0.1,0.4-0.2c0.6-0.4,1.2-0.8,1.8-1.2c0.3,0.2,0.6,0.4,0.9,0.7C473.7,471.2,469.8,474.1,466,476.9z M473.9,466.1
		c-0.2,0-0.5,0.1-0.7,0.3l-1.1,0.9c0,0,0,0,0,0c-3.5,2.2-7,4.3-10.5,6.5c-1.7-1.2-3.5-2.5-5.2-3.7c3.7-2.8,7.4-5.7,11.2-8.5
		c2.2,1.5,4.4,2.9,6.5,4.4C474,466.1,474,466.1,473.9,466.1z M455,469.1c-0.2-0.1-0.3-0.2-0.5-0.4c3.7-2.8,7.4-5.7,11.1-8.5
		c0.2,0.1,0.4,0.3,0.6,0.4C462.4,463.5,458.7,466.3,455,469.1z M453,467.8c-1.2-0.8-2.4-1.7-3.6-2.5l10.4-8.9c1.5,1,2.9,1.9,4.3,2.9
		C460.4,462.1,456.7,465,453,467.8z M418.1,444.2c-0.4-0.3-0.8-0.5-1.2-0.8c3.1-2.7,6.2-5.5,9.3-8.2c0.6,0.4,1.2,0.7,1.8,1.1
		L418.1,444.2z M385.9,423.5c-0.3-0.2-0.7-0.4-1.1-0.7c3.3-2.1,6.5-4.2,9.8-6.2c0.5,0.3,1,0.6,1.6,0.9
		C392.7,419.5,389.3,421.5,385.9,423.5z M383.2,421.9c-1.7-1.1-3.4-2.1-5.2-3.2l8-4.9c0.2,0.1,0.4,0.1,0.6,0.1c0.7,0,1.1-0.4,1.3-1
		c1.7,0.9,3.3,1.8,5,2.8C389.7,417.8,386.5,419.8,383.2,421.9z M380.6,423.6c-2.2,1.4-4.4,2.8-6.6,4.2c-1.8-1.1-3.6-2.2-5.4-3.2
		l6.7-4.2C377.1,421.4,378.9,422.5,380.6,423.6z M382.2,424.6c0.3,0.2,0.6,0.4,0.9,0.6c-2.3,1.3-4.6,2.6-6.8,4
		c-0.2-0.1-0.4-0.3-0.7-0.4C377.8,427.3,380,425.9,382.2,424.6z M394.9,454.2c-2.4-1.6-4.9-3.2-7.3-4.8l7.8-5.3
		c2.3,1.5,4.7,2.9,7,4.4c-2.4,1.6-4.8,3.3-7.2,4.9C394.9,453.7,394.8,454,394.9,454.2z M396,455c0,0,0.1,0,0.1,0
		c2.6-1.8,5.3-3.6,7.9-5.4c1.4,0.9,2.7,1.8,4.1,2.6l-7.4,5.9C399.1,457.1,397.5,456,396,455z M413.7,466.9
		c-3.5-2.4-7.1-4.8-10.6-7.2l7.4-5.9c3.4,2.2,6.8,4.4,10.1,6.6c-2.3,1.8-4.5,3.7-6.8,5.5C413.5,466.3,413.5,466.6,413.7,466.9z
		 M414.3,467.3c0.2,0,0.5,0,0.7-0.2c2.4-1.9,4.7-3.8,7.1-5.7c0.2,0.1,0.4,0.3,0.6,0.4l-7.3,6.2C415,467.8,414.6,467.6,414.3,467.3z
		 M417.7,469.7l7.3-6.2c2.8,1.9,5.7,3.8,8.5,5.7c-0.3,0.2-0.5,0.4-0.8,0.6c-0.8,0.6,0,2.1,0.8,1.5c0.5-0.4,1-0.7,1.4-1.1
		c0.8,0.5,1.6,1.1,2.3,1.6l-7.5,6.4C425.8,475.4,421.8,472.5,417.7,469.7z M432.2,479.9l7.5-6.4c1.7,1.1,3.3,2.3,4.9,3.4
		c-2.7,2-5.4,4.1-8,6.1C435.2,482,433.7,481,432.2,479.9z M438,484.1c2.7-2,5.4-4.1,8.1-6.1c1.4,1,2.8,1.9,4.1,2.9
		c-2.5,1.6-5,3.1-7.5,4.7c-0.9,0.6-0.1,2,0.8,1.5c2.7-1.7,5.4-3.4,8.2-5.1c0.3,0.2,0.6,0.5,1,0.7l-8,6.3
		C442.5,487.3,440.3,485.7,438,484.1z M455.3,496.8c-2.7-2.1-5.5-4.1-8.3-6.2l8-6.3c2.7,2,5.5,3.9,8.2,5.9c-2.6,2.1-5.2,4.2-7.7,6.3
		C455.4,496.6,455.3,496.7,455.3,496.8z M456.6,497.8c0,0,0.1,0,0.1-0.1c2.6-2.2,5.3-4.3,7.9-6.5c0.1,0.1,0.2,0.1,0.2,0.2l-8.1,6.6
		C456.7,497.9,456.6,497.9,456.6,497.8z M459.1,499.7l8.1-6.6c0.8,0.6,1.5,1.2,2.3,1.7c-2.9,2-5.9,4.1-8.8,6.1
		C460.2,500.5,459.7,500.1,459.1,499.7z M469.7,499.4c-0.7,0.6-0.5,1.4,0,1.9c-1.2,1.1-2.4,2.1-3.7,3.2c-0.1,0.1-0.2,0.3-0.3,0.4
		c-1.2-0.9-2.4-1.9-3.6-2.9c2.9-2,5.9-4.1,8.8-6.1c0.5,0.4,1.1,0.8,1.6,1.2C471.6,497.9,470.7,498.7,469.7,499.4z M471.9,493.2
		c-0.8-0.6-1.7-1.3-2.5-1.9l5.5-4.5c1,0.7,2,1.5,3,2.2C476,490.4,474,491.8,471.9,493.2z M479,486.2c3.7-3,7.4-6,11.2-9.1
		c0.8,0.6,1.6,1.1,2.4,1.7c-4,2.8-8.1,5.6-12.1,8.4C479.9,486.9,479.4,486.6,479,486.2z M483.6,489.2c-0.1,0.1-0.1,0.2-0.2,0.3
		c-0.5-0.4-1.1-0.8-1.6-1.2c4-2.8,8.1-5.6,12.1-8.4c0.2,0.2,0.4,0.3,0.6,0.5C490.9,483.3,487.3,486.3,483.6,489.2z M500.5,481.2
		c0,0-0.1-0.1-0.1-0.1c3.3-2.7,6.6-5.4,9.9-8.1C507,475.8,503.8,478.5,500.5,481.2z M500.5,463.7l10.1,5.8c-0.3,0-0.5,0.1-0.8,0.3
		c-3.9,3.2-7.8,6.4-11.7,9.6c-0.6-0.4-1.1-0.8-1.7-1.2c0.4-0.3,0.8-0.6,1.3-0.9c0.9-0.6,0-2.1-0.8-1.5c-0.6,0.4-1.2,0.9-1.9,1.3
		c-0.9-0.6-1.7-1.2-2.6-1.8c3.6-2.9,7.3-5.9,10.9-8.8c0.8-0.7-0.4-1.9-1.2-1.2c-3.7,3-7.4,6-11.1,9c-0.1-0.1-0.3-0.2-0.4-0.3
		l1.2-0.9c0.6-0.5,0.7-1.4,0.2-2c-0.2-0.3-0.5-0.4-0.9-0.5c3-2.1,6-4.2,9-6.4C500.3,464.2,500.4,463.9,500.5,463.7z M492.6,459.2
		l6.5,3.7c-3.5,2.5-7,5-10.5,7.4c-0.3-0.2-0.7-0.2-1.1,0c-0.3,0.3-0.7,0.6-1,0.8c-1.7-1.2-3.5-2.4-5.2-3.6c3.7-2.7,7.4-5.5,11.1-8.2
		C492.5,459.4,492.6,459.3,492.6,459.2z M490.9,458.2l0.2,0.1c-3.7,2.8-7.5,5.5-11.2,8.3c-0.1-0.1-0.3-0.2-0.4-0.3
		c1.9-1.2,3.7-2.4,5.6-3.6c0.4-0.2,0.4-0.6,0.3-0.9C487.2,460.6,489,459.4,490.9,458.2z M477.9,450.7l10.3,5.9
		c-3.9,2.6-7.7,5.1-11.5,7.7c-2.2-1.5-4.4-3-6.7-4.5c1.4-1.1,2.9-2.2,4.3-3.3c0.8-0.6,0-2.1-0.8-1.5c-1.6,1.2-3.3,2.5-4.9,3.7
		c-0.2-0.1-0.4-0.3-0.6-0.4c3.2-2.5,6.5-5,9.7-7.4C477.7,451,477.8,450.8,477.9,450.7z M446.7,432.8l3.5,2c0,0.6,0.6,1.2,1.3,0.9
		c0,0,0.1,0,0.1-0.1l5.7,3.3c0.1,0.5,0.6,0.9,1.1,0.6l18,10.3c-3.3,2.5-6.6,5.1-10,7.6c-1.5-1-3-2-4.5-3l6.8-5.8
		c0.6-0.5,0.7-1.4,0.2-2s-1.4-0.7-2-0.2l-7.4,6.4c-3.9-2.5-7.7-5-11.6-7.5c1.8-1.2,3.6-2.4,5.4-3.6c1.5-1,0.1-3.4-1.4-2.4
		c-2.2,1.5-4.3,2.9-6.5,4.4c-2.1-1.3-4.1-2.6-6.2-3.9C441.6,437.5,444.2,435.2,446.7,432.8z M437.7,427.7c-0.3,0.7,0.4,1.6,1.1,1.1
		c0.1-0.1,0.2-0.2,0.3-0.2l6,3.4c-2.5,2.3-5,4.7-7.5,7c-1.4-0.9-2.9-1.8-4.3-2.7c1.9-1.6,3.8-3.1,5.7-4.7c1.4-1.1-0.6-3.1-2-2
		c-0.8,0.6-1.6,1.3-2.3,1.9c-0.4,0-0.7,0-1,0.3l-3.3,2.6c-0.6-0.4-1.3-0.8-1.9-1.2c2-1.8,4.1-3.6,6.1-5.4c0.8-0.7-0.4-1.9-1.2-1.2
		c-2.1,1.9-4.3,3.8-6.4,5.7c-1.2-0.8-2.5-1.5-3.7-2.2c2.6-2.1,5.2-4.2,7.7-6.3L437.7,427.7z M426.3,423.2c0.7-0.5,0.7-1.3,0.4-1.9
		l2.7,1.5c-2.6,2.1-5.1,4.2-7.7,6.3c-0.7-0.4-1.5-0.9-2.2-1.3C421.7,426.3,424,424.8,426.3,423.2z M425.4,420.6
		c-0.2,0-0.4,0.1-0.5,0.2c-2.7,1.8-5.3,3.7-8,5.5c-0.4-0.2-0.8-0.5-1.2-0.7c2.5-2.1,5-4.2,7.6-6.3L425.4,420.6z M411.8,412.8
		l9.8,5.6c-2.5,2.1-5,4.2-7.5,6.2c-3.7-2.2-7.4-4.3-11-6.4L411.8,412.8z M398.9,405.4l10.2,5.8l-8.7,5.5c-1-0.6-2-1.2-3-1.7
		c0.9-0.6,1.8-1.2,2.7-1.7c0.9-0.6,0.1-2-0.8-1.4c-1.2,0.7-2.4,1.5-3.5,2.2c-1.8-1-3.5-1.9-5.3-2.9l2-1.2c0.3-0.2,0.5-0.4,0.6-0.7
		C394.9,407.9,396.9,406.6,398.9,405.4z M391.9,401.2C391.9,401.2,391.9,401.2,391.9,401.2c0.2,0.2,0.3,0.3,0.5,0.5l3.7,2.1
		c-3,1.9-5.9,3.7-8.9,5.6c-2.5-1.4-5-2.8-7.5-4.2c0,0-0.1,0-0.1,0C383.7,403.7,387.8,402.4,391.9,401.2z M377.8,405.9
		c-0.3,0.7-0.1,1.4,0.6,1.8c2.1,1.1,4.1,2.3,6.1,3.4c-0.2,0.1-0.3,0.2-0.5,0.3c-0.3,0.2-0.4,0.4-0.5,0.6l-8.1,5c-3.3-2-6.6-4-9.9-6
		C369.5,409.2,373.7,407.5,377.8,405.9z M362.6,412.4c0.1,0.1,0.2,0.3,0.4,0.3c3.1,1.9,6.2,3.8,9.3,5.7c-2.6,1.2-5.3,2.4-7.9,3.6
		c-3.2-1.9-6.4-3.8-9.6-5.6C357.3,415,359.9,413.7,362.6,412.4z M355.9,429.2c-3.8-2.4-7.5-4.7-11.2-7c2.4-1.4,4.7-2.8,7.1-4.2
		c0,0,0,0,0,0c3.1,1.8,6.2,3.6,9.3,5.4c-2.3,1-4.6,2-6.8,3.1c-1,0.4-0.1,1.9,0.8,1.5c2.6-1.2,5.2-2.3,7.8-3.5
		c0.1,0.1,0.2,0.1,0.3,0.2L355.9,429.2z M358.5,430.8l7.4-4.6c1.8,1.1,3.6,2.1,5.4,3.2c-1,0.6-2,1.3-3.1,1.9c-0.9,0.6-0.1,2,0.8,1.5
		c1.3-0.8,2.5-1.6,3.8-2.4c0.2,0.1,0.4,0.2,0.5,0.3c-2,1.1-3.9,2.3-5.9,3.4c-0.9,0.5-0.1,2,0.8,1.5c2.2-1.3,4.5-2.6,6.7-3.9
		c0.2,0.1,0.4,0.2,0.6,0.4l-7.7,4.8C364.9,434.9,361.7,432.8,358.5,430.8z M371.4,445.8c0.2-0.1,0.4-0.2,0.5-0.4
		c0.9-0.6,0.1-2-0.8-1.5c-0.4,0.3-0.8,0.5-1.1,0.8c-1.9-1.4-3.8-2.8-5.8-4.2c0.4-0.2,0.7-0.5,1.1-0.7c0,0.1,0.1,0.3,0.2,0.4
		c0.3,0.4,0.7,0.7,1.2,0.7c0.3,0,0.5-0.1,0.7-0.2l0.7-0.4c3.6,2.3,7.2,4.6,10.8,7c-0.1,0-0.2,0-0.3,0.1c-0.9,0.6-1.8,1.2-2.7,1.8
		C374.4,448,372.9,446.9,371.4,445.8z M412.2,484.9c-1.8,1.5-3.4,3.2-4.9,4.9c-1.8,1.9-3.4,3.7-5.4,5.2c-8-5-15.4-9.9-22.6-14.7
		l11.5-9.6L412.2,484.9z M362.6,460.8c2.2-1.5,4.4-3,6.6-4.6l19.1,12.7l-11.5,9.6c-4.5-3-9.1-6.1-13.8-9.2c0,0,0.1,0,0.1,0
		c5.5,0.3,10.9,0.6,16.4,0.8c1.1,0.1,1.1-1.6,0-1.7c-5.4-0.3-10.9-0.6-16.4-0.8c-0.8,0-1,0.8-0.7,1.3c-2-1.3-4.1-2.6-6.2-3.9
		C358.4,463.7,360.5,462.3,362.6,460.8z M524.7,578.6c0.2-0.5,0.4-1,0.6-1.5c0.8-0.2,1.4-1.2,0.9-2c7.3-14.4,28-16.8,39.4-5.4
		c4.3,4.2,7.2,9.7,9.8,15c3.5,7,9,15.8,6.7,23.6c-0.2,0.4-0.5,0.7-0.8,1c-11.5-4.2-11.9-20.4-22.9-25.7c-4.2-2-9-1.8-13.5-1.2
		c-3.7,0.5-20.4,5-20.7-1.7c0-0.1,0-0.1,0-0.2C524.4,579.9,524.5,579.3,524.7,578.6z M550,584.7c9.1-0.1,13.2,6.2,17.2,12.9
		c0,0,0,0-0.1,0c-4.2,2.4-8.3,4.8-12.5,7.2c-0.9,0.5-0.1,2,0.8,1.5c4.2-2.4,8.3-4.8,12.5-7.2c0,0,0,0,0.1-0.1
		c2.8,4.8,5.8,9.5,10.7,12c-1.1,0.4-2.2,0.7-3.5,0.7c0,0,0.1,0,0.1-0.1c1-0.4,0.1-1.9-0.8-1.5c-1,0.5-2.1,0.9-3.1,1.4
		c-1.2-0.2-2.5-0.4-3.7-0.7c1.1-0.7,2.3-1.4,3.4-2.2c0.9-0.6,0.1-2-0.8-1.5c-1.6,1-3.2,2-4.8,3c-1.4-0.4-2.8-0.9-4.1-1.3
		c2.3-1,4.6-2.1,6.9-3.1c1-0.4,0.1-1.9-0.8-1.5c-2.6,1.2-5.1,2.3-7.7,3.5c-0.2,0.1-0.3,0.2-0.4,0.4c-3.1-1.2-5.9-2.4-7.7-3.1
		c-0.7-0.3-1.5-0.6-2.3-0.8c4.7-2.5,9.3-5.1,14-7.6c0.9-0.5,0.1-2-0.8-1.5c-4.7,2.6-9.3,5.1-14,7.7c-0.4,0.2-0.5,0.6-0.3,1
		c-1.4-0.5-2.8-1-4.2-1.5c6.1-3.5,12.1-7,18.2-10.4c0.9-0.5,0.1-2-0.8-1.5c-6.3,3.6-12.5,7.2-18.8,10.8c-0.2,0.1-0.3,0.3-0.4,0.5
		c-0.9-0.3-1.7-0.6-2.5-0.9c6.1-3.6,12.3-7.2,18.4-10.8c0.9-0.5,0.1-2-0.8-1.5c-6.5,3.8-13,7.6-19.5,11.4c-1.1-0.5-2.2-1-3.3-1.5
		c6.2-3.6,12.4-7.2,18.7-10.8c0.9-0.5,0.1-2-0.8-1.5c-6.3,3.7-12.7,7.3-19.1,11c-0.2,0.1-0.3,0.2-0.3,0.4c-1.8-1-3.4-2.2-4.8-3.5
		c4.1-1.9,8.3-3.7,12.4-5.6c1-0.4,0.1-1.9-0.8-1.5c-4.3,1.9-8.5,3.8-12.8,5.7c-0.6-0.7-1.1-1.4-1.5-2.2c1.4-0.5,2.8-1.1,4.2-1.6
		c1-0.4,0.6-2-0.4-1.6c-1.5,0.6-3,1.1-4.5,1.7c-0.4-1.2-0.7-2.4-0.8-3.8C529.5,589.7,544.6,584.8,550,584.7z M522.9,575.6
		c-0.1,0.2-0.2,0.3-0.2,0.5c-0.3,0.7-0.5,1.5-0.8,2.3c-0.1-0.1-0.2-0.2-0.4-0.3c-3.2-1.8-4.9-5.1-4.7-8.6
		C518.9,571.5,520.9,573.5,522.9,575.6z M458.2,288.2c13.7,5.1,27.3,10.3,41,15.5c9.7,3.7,19.4,7.4,29.1,11.1
		c0.1,0.3,0.3,0.5,0.7,0.5c0.1,0,0.2-0.1,0.3-0.1c1,0.4,2.1,0.8,3.1,1.2c-0.2,0.7,0.1,1.5,0.9,1.8c2.5,0.9,5,1.9,7.5,2.8
		c0.8,0.3,1.4-0.2,1.6-0.8c12.5,4.7,24.9,9.4,37.4,14.1c-1.4,0.6-2.8,1.4-4.2,2.1c-0.1,0.1-0.2,0.1-0.2,0.2
		c-0.1-0.1-0.3-0.2-0.5-0.3c-21.9-9.2-44.9-16.5-67.5-24.1c0.5-0.3,0.7-1.1,0.1-1.4c-5.4-2.8-10.9-5.6-16.3-8.4
		c-1-0.5-1.8,1-0.8,1.5c4.9,2.5,9.9,5.1,14.8,7.6c-3.7-1.3-7.4-2.5-11-3.8c-25.6-9-51.1-18-76.6-27.1
		C431.5,279.4,444.9,283.3,458.2,288.2z M289.3,442c0-0.3-0.2-0.5-0.4-0.6c0.1-1.1,0.3-2.3,0.7-3.4c1.1,0.6,2.3,1.3,3.4,1.9
		c0,0.1,0,0.3,0,0.5c1.8,5.4,3.6,11.2,6.1,16.4C293.6,452.9,288.9,448.2,289.3,442z M300.7,457.7c0.3-0.2,0.5-0.5,0.4-0.9
		c-1.3-5.3-3.7-10.5-5.8-15.6c2.1,1.2,4.3,2.4,6.4,3.6c1.3,5.3,2.6,10.7,4,16C304,459.8,302.3,458.8,300.7,457.7z M529,501.5
		c-12.6,11.4-26.2,21.6-39.6,31.9c-5.7,4.4-10.9,9.3-16.4,14c-0.1,0.1-0.3,0.2-0.4,0.4c0-0.1,0-0.1,0-0.2c-1.2-2.7-2.4-5.3-3.6-8
		c-0.4-1-1.9-0.1-1.4,0.8c1.2,2.7,2.4,5.3,3.6,8c0.1,0.2,0.2,0.3,0.3,0.3c-1.4,1.2-2.8,2.3-4.3,3.4c-1.6-3-3.1-5.9-4.7-8.9
		c-0.5-1-2-0.1-1.5,0.8c1.6,3,3.1,5.9,4.7,8.9c0,0,0,0.1,0.1,0.1c-1.9,1.3-4,2.4-6.1,3.1c0-0.1,0-0.2-0.1-0.3
		c-1.6-3.1-3.1-6.2-4.7-9.3c-0.5-1-1.9-0.1-1.4,0.8c1.5,3.1,3.1,6.1,4.6,9.2c-1.1,0.3-2.2,0.4-3.3,0.4c-3.6,0-7.2-1.1-10.5-2.8
		c0.4-0.2,0.8-0.7,0.5-1.2c-2.1-4.8-4.1-9.6-6.2-14.4c-0.4-1-1.9-0.1-1.5,0.8c2,4.8,4.1,9.5,6.1,14.3c-1.3-0.7-2.6-1.4-3.8-2.1
		c0.1-0.2,0.2-0.4,0.1-0.7c-1.6-5.3-3.2-10.6-4.8-15.9c-0.3-1-1.9-0.6-1.6,0.4c1.5,5,3,10,4.5,15c-1.2-0.8-2.5-1.6-3.6-2.3
		c-0.5-0.3-0.9-0.6-1.4-0.9c-2.2-5.9-4.4-11.9-6.6-17.8c-0.4-1-2-0.6-1.6,0.4c2,5.3,3.9,10.6,5.9,15.9c-4.3-2.7-8.5-5.5-12.8-8.2
		c0-0.1,0-0.2,0-0.3c-2.1-6.4-4.2-12.7-6.3-19.1c-0.3-1-2-0.6-1.6,0.4c1.9,5.9,3.8,11.7,5.8,17.6c-1.4-0.9-2.7-1.7-4.1-2.6
		c0.1-0.1,0.1-0.3,0-0.5c-2.4-6.5-4.8-13-7.2-19.6c-0.4-1-2-0.6-1.6,0.4c2.2,6.1,4.5,12.2,6.7,18.3c-2.3-1.4-4.5-2.9-6.8-4.3
		c0,0,0,0,0,0c-1.8-6-3.6-12.1-5.5-18.1c-0.3-1-1.9-0.6-1.6,0.4c1.6,5.4,3.3,10.9,4.9,16.3c-2.4-1.5-4.8-3.1-7.2-4.6
		c0,0,0-0.1,0-0.1c-2.2-7.1-4.3-14.2-6.5-21.4c-0.3-1-1.9-0.6-1.6,0.4c2,6.5,4,13.1,6,19.7c-2.7-1.7-5.4-3.5-8-5.2
		c-1.9-6.5-3.8-13-5.7-19.5c-0.3-1-1.9-0.6-1.6,0.4c1.7,5.9,3.5,11.8,5.2,17.7c-1.3-0.8-2.6-1.7-3.9-2.5c-2-7.7-4.1-15.4-6.1-23.1
		c-0.3-1-1.9-0.6-1.6,0.4c1.9,7.1,3.7,14.2,5.6,21.3c-1.5-1-2.9-2-4.4-3c-2.5-6.4-5-12.8-7.5-19.2c-0.4-1-2-0.6-1.6,0.4
		c2.2,5.7,4.4,11.4,6.7,17.1c-1.8-1.2-3.6-2.5-5.3-3.7c-2.3-5.7-4.7-11.3-7-17c-0.4-1-2-0.6-1.6,0.4c2,4.9,4.1,9.8,6.1,14.8
		c-1.2-0.8-2.4-1.7-3.6-2.5c-1-0.7-2-1.5-3-2.2c-2.5-7-5-13.9-7.5-20.9c-0.4-1-2-0.6-1.6,0.4c2.2,6.2,4.5,12.5,6.7,18.7
		c-2.1-1.6-4.2-3.1-6.3-4.7c-1.9-6.4-3.8-12.8-5.7-19.1c-0.3-1-1.9-0.6-1.6,0.4c1.7,5.7,3.4,11.3,5.1,17c-1.6-1.2-3.1-2.4-4.7-3.6
		c-2.4-7.2-4.8-14.5-7.2-21.7c-0.3-1-2-0.6-1.6,0.4c2.2,6.5,4.3,13,6.5,19.5c-2-1.5-4-3.1-6-4.6c0.3-0.2,0.5-0.5,0.3-0.9
		c-2.4-6.5-4.8-13-7.2-19.5c-0.4-1-2-0.6-1.6,0.4c2.3,6.3,4.6,12.5,6.9,18.8c-2-1.5-4-3-6-4.5c0.2-0.2,0.4-0.5,0.2-0.8
		c-2-5.8-4-11.5-6-17.3c-0.4-1-2-0.6-1.6,0.4c1.9,5.5,3.8,11,5.7,16.4c-1.9-1.4-3.9-2.9-5.9-4.3c0.3-0.2,0.4-0.5,0.3-0.9
		c-1.3-4.6-2.6-9.3-4-13.9c-0.3-1-1.9-0.6-1.6,0.4c1.3,4.4,2.5,8.9,3.8,13.3c-1.4-1-3.1-2-4.9-3c-1.3-5.3-2.6-10.7-4-16
		c3.3,1.9,6.7,3.7,10,5.6c-0.1,0.6,0.5,1.3,1.3,0.9c0.1,0,0.1-0.1,0.2-0.1c20.1,11.4,40.1,23,59.6,35.6c26.7,17.3,52.2,36,77.4,55.4
		c-0.1,0.6,0.3,1.3,1,1c0.1,0,0.1-0.1,0.2-0.1c0.4,0.3,0.7,0.6,1.1,0.8c-0.1,0.5,0.4,1.1,1,0.8c0,0,0.1,0,0.1-0.1
		c0.8,0.2,1.5-0.4,1.8-1.1c7.1-4.6,13.5-10.5,20.1-15.7c8.2-6.5,16.5-13.1,24.7-19.7c16-12.8,32.5-25.1,47.9-38.7
		c-0.1,0.3-0.2,0.6-0.3,1c-0.5,1.5,1.8,2.2,2.4,0.8C552.6,482.2,533.9,497.1,529,501.5z M546.8,469.2c0-0.1,0.1-0.2,0.1-0.4
		c0.1,0,0.2,0.1,0.2,0.1C547,469,546.9,469.1,546.8,469.2z M550.4,468.5c0.1,0,0.2,0,0.3-0.1c0,0.1-0.1,0.2-0.1,0.4
		C550.5,468.7,550.4,468.6,550.4,468.5z M575,403.3c-0.3-0.2-0.6-0.2-0.9,0.2c-2,2.3-4,4.7-6.1,7c-0.7,0.8,0.5,2,1.2,1.2
		c1.8-2.1,3.6-4.1,5.4-6.2c-0.4,2.2-0.8,4.4-1.3,6.6c-3.7,17.3-9.2,33.8-15.4,50.1c-0.2-0.2-0.5-0.2-0.9,0c-0.6,0.5-1.2,0.9-1.9,1.4
		c-0.9,0.6,0,2.1,0.8,1.5c0.4-0.3,0.7-0.6,1.1-0.8c-0.9,2.3-1.8,4.5-2.7,6.8c-0.1-1-0.4-2-1-3c0.6-1.9,1.2-3.9,1.7-5.8
		c0.3,0.3,0.8,0.4,1.2,0c0.3-0.3,0.6-0.6,0.9-0.9c0.8-0.8-0.4-2-1.2-1.2c-0.1,0.1-0.3,0.3-0.4,0.4c0.7-2.4,1.3-4.7,2-7.1
		c0.3,0.1,0.6,0.1,0.9-0.2c1.2-1.2,2.5-2.5,3.7-3.7c0.5-0.5,0.2-1-0.2-1.3c0.2-0.2,0.5-0.4,0.7-0.6c0.8-0.7-0.4-1.9-1.2-1.2
		c-0.9,0.7-1.8,1.5-2.7,2.2c0.2-0.9,0.5-1.7,0.7-2.6c0.3,0.4,0.8,0.7,1.3,0.2c0.9-0.9,1.9-1.9,2.8-2.8c0.8-0.8-0.4-2-1.2-1.2
		c-0.9,0.9-1.7,1.7-2.6,2.6c0.5-1.8,1-3.7,1.4-5.5c0.3,0.2,0.7,0.2,1-0.1c1.6-1.2,3.1-2.5,4.7-3.7c0.8-0.7-0.4-1.9-1.2-1.2
		c-1.4,1.1-2.7,2.2-4.1,3.3c0.2-0.9,0.4-1.9,0.6-2.9c0.3,0.1,0.6,0.1,0.8-0.2c1.6-1.7,3.1-3.4,4.7-5.1c0.7-0.8-0.5-2-1.2-1.2
		c-1.3,1.4-2.5,2.7-3.8,4.1c0.3-1.5,0.7-3.1,1-4.6c1.9-1.4,3.8-2.7,5.7-4.1c0.9-0.6,0-2.1-0.8-1.4c-1.5,1-2.9,2.1-4.4,3.1
		c0.2-0.9,0.4-1.8,0.6-2.7c0.3,0.1,0.6,0.1,0.9-0.1c1.5-1.4,3.1-2.9,4.6-4.3c0.8-0.7-0.4-1.9-1.2-1.2c-1.3,1.2-2.6,2.5-4,3.7
		c0.3-1.4,0.5-2.9,0.8-4.3c0.3,0.3,0.8,0.4,1.2,0.1c1.6-1.2,3.1-2.5,4.7-3.7c0.8-0.7-0.4-1.9-1.2-1.2c-1.5,1.2-3,2.4-4.4,3.6
		c0.9-4.8,1.8-9.6,2.5-14.5c0.2,0.3,0.6,0.4,1,0.1c2.1-1.6,4.3-3.2,6.4-4.8C575.9,398.3,575.5,400.8,575,403.3z M558.2,451.2
		c0.1-0.5,0.2-0.9,0.4-1.4c0.1,0.2,0.4,0.4,0.6,0.4C558.9,450.5,558.6,450.9,558.2,451.2z M576.7,393.4c-2.5,1.9-5,3.8-7.5,5.7
		c0.4-2.7,0.9-5.5,1.3-8.2c0.2,0,0.5,0,0.7-0.2c1.6-1.4,3.1-2.8,4.7-4.2c0.8-0.7-0.4-1.9-1.2-1.2c-1.3,1.2-2.6,2.3-3.9,3.5
		c0.2-1.6,0.4-3.1,0.6-4.7c0.3,0.3,0.8,0.4,1.2,0.1c1.6-1.2,3.1-2.5,4.7-3.7c0.8-0.7-0.4-1.9-1.2-1.2c-1.5,1.2-3,2.4-4.6,3.6
		c0.2-1.5,0.4-3.1,0.6-4.6c0.2,0.1,0.5,0.2,0.8,0c1.6-1.1,3.1-2.2,4.7-3.3c0.9-0.6,0-2.1-0.8-1.5c-1.5,1-2.9,2.1-4.4,3.1
		c0.1-1.1,0.3-2.2,0.4-3.4c0.2,0.1,0.5,0.1,0.7,0c1.9-1,3.7-1.9,5.6-2.9c1-0.5,0.1-1.9-0.8-1.5c-1.8,0.9-3.5,1.8-5.3,2.7
		c0.6-5.9,1.1-11.9,1.5-17.8c0.2,0.2,0.6,0.3,0.9,0.1c0.9-0.5,1.9-0.9,2.8-1.4c1-0.5,0.1-1.9-0.8-1.5c-0.9,0.5-1.8,0.9-2.8,1.4
		c0.1-2,0.2-3.9,0.3-5.9c0,0,0,0,0,0c1.3,0.7,2.7,0.3,3.4-0.9c0.6-0.9-0.9-1.8-1.5-0.8c-0.3,0.5-0.6,0.6-1.1,0.3
		c-0.3-0.2-0.6-0.1-0.8,0c0.1-1.7,0.2-3.3,0.3-5c0-1-1.5-1-1.6,0c-2.8,42-10,83-21.5,123.4c0.3-1.2,0.5-2.4,0.8-3.6
		c0.2-1.1-1.4-1.5-1.6-0.4c-0.6,2.7-1.2,5.3-1.7,8c0,0.1,0,0.2,0,0.3c-0.1-0.1-0.2-0.3-0.4-0.4c-0.5-0.3-1.1-0.6-1.6-1
		c0.3-1.4,0.7-2.8,1-4.2c0.3-1.1-1.4-1.5-1.6-0.4c-0.3,1.2-0.6,2.5-0.9,3.7c-1.1-0.6-2.2-1.3-3.2-1.9c0.3-1.7,0.6-3.4,1-5.1
		c0.2-1.1-1.4-1.5-1.6-0.4c-0.3,1.6-0.6,3.1-0.9,4.7c-0.9-0.5-1.8-1-2.7-1.5c0.5-1.7,1-3.3,1.5-5c0.3-1-1.3-1.5-1.6-0.4
		c-0.4,1.5-0.9,3.1-1.3,4.6c-0.9-0.5-1.7-1-2.6-1.4c0.1-2.5,0.3-5.1,0.4-7.6c0.1-1.1-1.6-1.1-1.7,0c-0.1,2.2-0.2,4.4-0.4,6.7
		c-1.7-1-3.5-1.9-5.3-2.9c0.4-2,0.8-3.9,1.1-5.9c0.2-1.1-1.4-1.5-1.6-0.4c-0.4,1.8-0.7,3.7-1.1,5.5c-1.4-0.8-2.8-1.5-4.2-2.3
		c0.5-1.6,1-3.1,1.4-4.6c0.3-1-1.3-1.5-1.6-0.4c-0.4,1.4-0.9,2.9-1.3,4.3c-1.2-0.6-2.4-1.3-3.7-1.9c0.5-1.3,1-2.5,1.5-3.8
		c0.4-1-1.2-1.4-1.6-0.4c-0.5,1.1-0.9,2.3-1.4,3.5c-1.5-0.8-3.1-1.6-4.6-2.4c0.2,0,0.4-0.2,0.5-0.4c0.8-1.2,1.5-2.5,2.3-3.7
		c0.6-0.9-0.9-1.8-1.5-0.9c-0.8,1.2-1.5,2.5-2.3,3.7c-0.2,0.3-0.2,0.5,0,0.8c-1.7-0.9-3.5-1.8-5.2-2.7c0.2-0.9,0.4-1.7,0.6-2.6
		c0.3-1.1-1.4-1.5-1.6-0.4c-0.2,0.8-0.4,1.5-0.6,2.3c-0.9-0.5-1.9-1-2.8-1.5c0.4-1.7,0.8-3.4,1.2-5c0.3-1.1-1.4-1.5-1.6-0.4
		c-0.4,1.6-0.8,3.1-1.2,4.7c-0.8-0.4-1.7-0.9-2.5-1.3c0.5-1.5,1.1-2.9,1.6-4.4c0.4-1-1.3-1.5-1.6-0.4c-0.5,1.4-1,2.7-1.5,4.1
		c-1-0.5-1.9-1-2.9-1.5c0.3-1.2,0.6-2.3,0.9-3.5c0.3-1.1-1.4-1.5-1.6-0.4c-0.3,1.1-0.5,2.1-0.8,3.2c-1.4-0.7-2.9-1.5-4.3-2.2
		c0.5,0.2,1.1-0.1,1.2-0.8c0.2-2.3,0.3-4.7,0.5-7c0.1-1.1-1.6-1.1-1.7,0c-0.2,2.3-0.3,4.7-0.5,7c0,0.4,0.2,0.6,0.4,0.7
		c-1.1-0.5-2.1-1.1-3.2-1.6c0,0,0,0,0,0c0.3-2.3,0.6-4.7,0.9-7c0.1-1.1-1.5-1.1-1.7,0c-0.3,2.1-0.5,4.2-0.8,6.2
		c-1.4-0.7-2.9-1.5-4.3-2.2c0.3-0.1,0.5-0.3,0.5-0.7c0.2-2.3,0.3-4.7,0.5-7c0.1-1.1-1.6-1.1-1.7,0c-0.2,2.3-0.3,4.7-0.5,7
		c0,0,0,0.1,0,0.1c-0.5-0.2-0.9-0.5-1.4-0.7c-0.8-0.4-1.5-0.8-2.3-1.2c-0.1-2.2-0.3-4.4-0.4-6.6c-0.1-1.1-1.7-1.1-1.7,0
		c0.1,1.9,0.2,3.8,0.3,5.6c-1.1-0.6-2.2-1.2-3.4-1.8c0,0,0-0.1,0-0.1c0.1-1.9,0.3-3.7,0.4-5.6c0.1-1.1-1.6-1.1-1.7,0
		c-0.1,1.6-0.3,3.3-0.4,4.9c-0.8-0.4-1.7-0.9-2.5-1.3c0.3-0.1,0.5-0.3,0.5-0.8c-0.3-2.3-0.6-4.7-0.9-7c-0.1-1.1-1.8-1.1-1.7,0
		c0.3,2.3,0.6,4.7,0.9,7c0,0.1,0,0.1,0.1,0.2c-1.2-0.6-2.3-1.2-3.5-1.9c0-2.7,0-5.4,0-8.1c0-1.1-1.7-1.1-1.7,0c0,2.4,0,4.8,0,7.2
		c-0.7-0.4-1.4-0.7-2.1-1.1c0,0,0,0,0,0c0-2.5,0-5,0-7.5c0-1.1-1.7-1.1-1.7,0c0,2.2,0,4.4,0,6.6c-1.8-0.9-3.5-1.9-5.3-2.8
		c0.2-0.1,0.3-0.3,0.3-0.6c0.2-1.7,0.3-3.4,0.5-5.1c0.1-1.1-1.6-1.1-1.7,0c-0.2,1.7-0.3,3.4-0.5,5c-11-5.8-22.1-11.6-33.2-17.3
		c0.5,0,0.9-0.4,0.7-1c-1.6-4.8-3.2-9.6-4.8-14.4c-0.3-1-2-0.6-1.6,0.4c1.6,4.8,3.2,9.6,4.8,14.4c0,0.1,0.1,0.1,0.1,0.2
		c-4.2-2.2-8.4-4.3-12.7-6.4c0.2-0.1,0.4-0.2,0.6-0.3c1-0.6,0.4-2.2-0.6-2.1c0.7-4.6,1.4-9.1,2.1-13.7c1.3,5.4,2.6,10.9,3.9,16.3
		c0.3,1.1,1.9,0.6,1.6-0.4c-1.5-6.1-2.9-12.1-4.4-18.2c-0.1-0.4-0.4-0.6-0.7-0.6c4.4-28.9,8.3-57.9,12.1-86.8
		c26.4,9.3,52.8,18.6,79.3,28c26.9,9.5,53.6,20.5,81,28.4c0.8,0.2,1.4-0.2,1.6-0.8c0.2,0.1,0.4,0.1,0.6,0c1.5-0.6,3.1-1.2,4.5-2
		C580.7,355.4,579.6,374.5,576.7,393.4z"/>
	<path class="st1" d="M529.6,576.9c4.8-4.3,10.7-6.6,17.1-6.8c1.8-0.1,1.8-2.9,0-2.8c-7.2,0.3-13.7,2.9-19.1,7.7
		C526.3,576.1,528.3,578,529.6,576.9z"/>
</g>
</svg>
