<?xml version="1.0" encoding="utf-8"?>
<!-- Generator: Adobe Illustrator 21.0.0, SVG Export Plug-In . SVG Version: 6.00 Build 0)  -->
<svg version="1.1" id="Layer_1" xmlns="http://www.w3.org/2000/svg" xmlns:xlink="http://www.w3.org/1999/xlink" x="0px" y="0px"
	 viewBox="0 0 1059.1 960.2" style="enable-background:new 0 0 1059.1 960.2;" xml:space="preserve">
<style type="text/css">
	.st0{opacity:3.000000e-02;}
	.st1{fill:#565656;}
</style>
<g class="st0">
	<path class="st1" d="M558.2,508.4c-0.8-6.4-2-12.8-3.7-19.1c-1-3.7-2.3-8.5-6.5-9.8c-4.3-1.3-8,2.2-10.1,5.5
		c-3,4.7-6.1,10.3-8,15.6c-2.5-3.8-5.8-7.2-9.1-10.3c-3-2.8-6.5-6.2-10.5-7.5c-3-1-6.2-0.6-8.2,2c-0.4,0.5-0.7,1.1-1,1.7
		c-0.7,1.3-0.9,2.9-0.8,4.5c0.1,5.2,0.9,10.5,1.5,15.7c0.7,5.4,1.3,10.8,1.9,16.1c0.5,3.8,0.5,8.4,2.5,11.8
		c3.2,5.5,10.2,3.3,12.4-1.9c1.2-2.9,1.3-6.1,0.4-9.1c-0.9-3.1-4.7-11,0.8-11.9c0.1,0,0.1,0,0.2-0.1c2.7,2.6,4.9,6.1,8.8,6.5
		c5.7,0.7,9.1-5.2,10.3-10c1,5.2,1.9,10.7,3.6,15.7c1.4,4,4.1,8.1,8.8,8.6C562.7,533.4,558.9,514.3,558.2,508.4z M554.4,529.6
		c-0.4,0.3-0.7,0.7-1.1,1c-0.6,0.1-1.2,0.1-1.9,0c0.5-0.7,1.1-1.3,1.6-2c0.3-0.4-0.3-1-0.6-0.5c-0.6,0.8-1.3,1.5-1.9,2.3
		c-0.1,0-0.3-0.1-0.4-0.1c-0.4-0.1-0.8-0.3-1.1-0.5c0.9-1,1.8-1.9,2.7-2.9c0.4-0.4-0.3-0.9-0.6-0.5c-0.9,1-1.9,2-2.8,3
		c-0.3-0.2-0.6-0.4-0.8-0.7c0.6-0.7,1.3-1.4,1.9-2.1c0.4-0.4-0.3-0.9-0.6-0.5c-0.6,0.7-1.2,1.4-1.8,2c-0.3-0.3-0.5-0.6-0.8-1
		c0.7-0.6,1.3-1.3,2-1.9c0.4-0.4-0.2-0.9-0.6-0.5c-0.6,0.6-1.2,1.2-1.8,1.8c-0.2-0.4-0.4-0.7-0.5-1.1c0.8-0.8,1.6-1.7,2.4-2.5
		c0.4-0.4-0.2-0.9-0.6-0.5c-0.7,0.7-1.4,1.5-2.2,2.2c-0.1-0.4-0.3-0.8-0.4-1.1c0.9-0.8,1.8-1.7,2.7-2.5c0.4-0.4-0.2-0.9-0.6-0.5
		c-0.8,0.7-1.6,1.5-2.4,2.2c-0.1-0.4-0.2-0.7-0.3-1.1c0,0,0,0,0,0c0.9-0.9,1.7-1.8,2.6-2.7c0.4-0.4-0.3-0.9-0.6-0.5
		c-0.7,0.8-1.5,1.6-2.2,2.4c-0.1-0.6-0.3-1.2-0.4-1.7c0-0.1-0.1-0.3-0.1-0.4c0.7-0.7,1.4-1.5,2.1-2.2c0.4-0.4-0.3-0.9-0.6-0.5
		c-0.6,0.6-1.1,1.2-1.7,1.8c-0.1-0.6-0.3-1.3-0.4-1.9c0.6-0.5,1.2-1.1,1.7-1.6c0.4-0.4-0.2-0.9-0.6-0.5c-0.4,0.4-0.9,0.8-1.3,1.2
		c-0.2-0.8-0.4-1.6-0.5-2.4c0.5-0.5,1-1,1.5-1.5c0.4-0.4-0.2-0.9-0.6-0.5c-0.4,0.4-0.7,0.7-1.1,1.1c-0.1-0.4-0.2-0.7-0.2-1.1
		c0-0.2-0.1-0.4-0.1-0.6c0.7-0.7,1.5-1.4,2.2-2c0.4-0.4-0.2-0.9-0.6-0.5c-0.6,0.5-1.2,1.1-1.8,1.6c-0.1-0.8-0.3-1.6-0.7-2.1
		c0.6-0.5,1.3-1,1.9-1.6c0.4-0.3-0.1-1-0.5-0.7c-0.7,0.5-1.3,1.1-2,1.6c-0.4-0.2-0.9-0.2-1.6,0.5c-0.8,0.8-0.3,1.6-0.5,2.5
		c-0.2,0.9-0.7,1.9-1,2.7c-0.8,1.7-1.8,3.4-3.4,4.4c-0.1,0.1-0.2,0.1-0.3,0.2c0.1-0.3-0.2-0.8-0.6-0.5c-0.5,0.4-1.1,0.8-1.6,1.3
		c0,0,0,0.1-0.1,0.1c-0.4,0-0.7,0.1-1,0c0.6-0.8,1.3-1.7,1.9-2.5c0.3-0.4-0.3-1-0.6-0.5c-0.7,1-1.5,1.9-2.2,2.9
		c-0.3-0.1-0.6-0.2-0.9-0.3c0.6-0.8,1.3-1.6,1.9-2.4c0.3-0.4-0.3-1-0.6-0.5c-0.7,0.9-1.3,1.7-2,2.6c-0.4-0.2-0.8-0.5-1.1-0.8
		c0.6-0.6,1.3-1.3,1.9-1.9c0.4-0.4-0.2-0.9-0.6-0.5c-0.6,0.6-1.3,1.3-1.9,1.9c-0.2-0.2-0.4-0.4-0.6-0.6c-0.2-0.2-0.3-0.3-0.5-0.5
		c0.4-0.4,0.7-0.9,1.1-1.3c0.3-0.4-0.3-0.9-0.6-0.5c-0.3,0.4-0.7,0.8-1,1.3c-0.2-0.2-0.4-0.5-0.7-0.7c0.6-0.6,1.2-1.2,1.8-1.8
		c0.4-0.4-0.3-0.9-0.6-0.5c-0.6,0.6-1.2,1.2-1.8,1.8c-0.3-0.3-0.5-0.5-0.8-0.7c0.6-0.5,1.1-1.1,1.7-1.6c0.4-0.4-0.2-0.9-0.6-0.5
		c-0.6,0.5-1.1,1.1-1.7,1.6c-0.7-0.6-1.5-1-2.3-1.2c0.7-0.7,1.5-1.5,2.2-2.2c0.4-0.4-0.2-0.9-0.6-0.5c-0.9,0.9-1.8,1.8-2.7,2.7
		c-0.5,0.1-1,0.3-1.5,0.8c-1.6,1.6-0.4,5.9,0,7.8c0.6,2.6,1.6,5.1,1.8,7.8c0.2,2.3,0.4,4.7-0.6,6.8c-1.2,2.6-4.5,4.8-7.4,3.6
		c0.4-0.6,0.8-1.1,1.2-1.7c0.3-0.4-0.3-1-0.6-0.5c-0.4,0.6-0.9,1.2-1.3,1.8c-0.3-0.2-0.6-0.4-0.8-0.6c0.7-1,1.4-1.9,2.1-2.9
		c0.3-0.4-0.3-1-0.6-0.5c-0.7,0.9-1.3,1.9-2,2.8c-0.2-0.3-0.4-0.6-0.6-0.9c0.6-0.7,1.2-1.3,1.8-2c0.4-0.4-0.3-0.9-0.6-0.5
		c-0.5,0.6-1.1,1.1-1.6,1.7c-0.3-0.7-0.5-1.5-0.6-2.2c0,0,0,0,0.1-0.1c0.4-0.5,0.8-1.1,1.2-1.6c0.3-0.4-0.3-1-0.6-0.5
		c-0.3,0.4-0.6,0.7-0.8,1.1c0-0.3-0.1-0.6-0.1-0.9c0.6-0.9,1.2-1.8,1.9-2.6c0.3-0.4-0.3-1-0.6-0.5c-0.5,0.6-0.9,1.3-1.4,1.9
		c0-0.4-0.1-0.7-0.1-1.1c0.7-0.9,1.3-1.9,2-2.8c0.3-0.4-0.3-1-0.6-0.5c-0.5,0.7-1,1.4-1.4,2.1c0-0.1,0-0.3,0-0.4
		c0-0.3-0.1-0.7-0.1-1c0.8-1,1.6-2,2.3-2.9c0.3-0.4-0.3-1-0.6-0.5c-0.6,0.8-1.2,1.5-1.8,2.3c-0.1-0.5-0.1-1.1-0.2-1.6
		c0.7-0.9,1.3-1.8,2-2.7c0.3-0.4-0.3-1-0.6-0.5c-0.5,0.7-1,1.4-1.5,2.1c-0.1-0.5-0.1-1-0.2-1.5c0.7-0.8,1.3-1.6,2-2.4
		c0.3-0.4-0.3-1-0.6-0.5c-0.5,0.6-1,1.2-1.5,1.8c-0.1-0.5-0.1-0.9-0.2-1.4c0.6-0.7,1.2-1.5,1.8-2.2c0.3-0.4-0.3-0.9-0.6-0.5
		c-0.5,0.5-0.9,1.1-1.4,1.6c-0.1-0.7-0.2-1.3-0.2-2c0.4-0.5,0.9-1.1,1.3-1.6c0.3-0.4-0.3-0.9-0.6-0.5c-0.3,0.3-0.6,0.7-0.8,1
		c-0.1-0.5-0.1-1-0.2-1.6c0.6-0.8,1.2-1.6,1.9-2.5c0.3-0.4-0.3-1-0.6-0.5c-0.5,0.6-0.9,1.2-1.4,1.8c0-0.3-0.1-0.7-0.1-1
		c0.7-0.9,1.4-1.7,2.1-2.6c0.3-0.4-0.3-0.9-0.6-0.5c-0.5,0.7-1.1,1.3-1.6,2c-0.1-0.5-0.1-1-0.2-1.6c0.8-0.9,1.7-1.8,2.5-2.7
		c0.4-0.4-0.3-0.9-0.6-0.5c-0.7,0.7-1.4,1.4-2,2.1c0-0.3-0.1-0.7-0.1-1c0.7-0.8,1.5-1.6,2.2-2.3c0.4-0.4-0.3-0.9-0.6-0.5
		c-0.6,0.6-1.1,1.2-1.7,1.8c0-0.4-0.1-0.8-0.1-1.2c0.6-0.6,1.2-1.1,1.8-1.7c0.4-0.4-0.2-0.9-0.6-0.5c-0.4,0.4-0.9,0.8-1.3,1.3
		c0-0.3-0.1-0.6-0.1-0.9c0.8-1.1,1.6-2.2,2.4-3.3c0.3-0.4-0.3-1-0.6-0.5c-0.6,0.9-1.3,1.8-1.9,2.7c-0.1-0.5-0.2-1-0.3-1.6
		c0.7-1,1.4-2.1,2.2-3.1c0.3-0.4-0.3-1-0.6-0.5c-0.6,0.9-1.2,1.7-1.8,2.6c-0.1-0.6-0.3-1.2-0.4-1.9c0,0,0.1-0.1,0.1-0.1
		c0.8-1.4,1.7-2.7,2.5-4.1c0.3-0.4-0.5-0.8-0.7-0.4c-0.6,1-1.3,2.1-1.9,3.1c0.2-2.7,1-5.3,3.3-6.9c3.8-2.4,8.3,1.1,11.1,3.3
		c5.2,4.1,9.3,8.9,13.6,13.9c0.2,0.2,0.5,0.3,0.7,0.2c-0.2,0.1-0.3,0.2-0.5,0.3c-0.4,0.3,0,1,0.5,0.7c0.9-0.6,1.9-1.2,2.8-1.7
		c0.4-0.3,0-1-0.5-0.7c-0.8,0.5-1.5,0.9-2.3,1.4c0.2-0.1,0.3-0.3,0.3-0.5c0.1-0.2,0.2-0.4,0.4-0.5c0.1,0,0.2,0,0.3-0.1
		c1.4-1,2.7-1.9,4.1-2.9c0.4-0.3,0-1-0.5-0.7c-0.9,0.7-1.9,1.3-2.8,2c0.1-0.1,0.2-0.2,0.2-0.4c1-0.7,2-1.4,3-2.1
		c0.4-0.3,0-1-0.5-0.7c-0.5,0.4-1,0.7-1.5,1.1c0.1-0.2,0.2-0.4,0.3-0.6c1.4-1,2.8-2.1,4.2-3.1c0.4-0.3,0-1-0.5-0.7
		c-0.9,0.7-1.9,1.4-2.8,2.1c0.3-0.5,0.6-1.1,0.9-1.6c0,0,0,0,0.1,0c1.3-1.1,2.6-2.1,3.9-3.2c0.4-0.3-0.1-1-0.5-0.7
		c-0.8,0.7-1.7,1.4-2.5,2.1c0.1-0.1,0.1-0.2,0.2-0.3c0.1-0.3,0.3-0.5,0.4-0.8c1.8-1.4,3.6-2.8,5.4-4.2c0.4-0.3,0-1-0.5-0.7
		c-1.3,1.1-2.7,2.1-4,3.2c0.4-0.7,0.8-1.5,1.2-2.2c0.9-0.7,1.8-1.4,2.7-2.1c0.4-0.3,0-1-0.5-0.7c-0.3,0.2-0.6,0.4-0.9,0.7
		c1.4-1.9,3.2-3.4,5.6-3.5c5.4-0.2,6.6,6.9,7.5,10.9c1.2,4.9,2.1,9.8,2.8,14.8c0.6,4.3,3.4,19.2-1.1,23.2
		C554.9,529.5,554.6,529.4,554.4,529.6z"/>
	<path class="st1" d="M577.4,516.8c-0.2,0.1-0.3,0.3-0.5,0.4c-0.4,0.3,0.1,1,0.5,0.7c0.6-0.5,1.1-0.9,1.7-1.4c0.7-0.1,1.4-0.3,2-0.5
		c-0.4,0.3-0.7,0.6-1.1,0.9c-0.4,0.3,0.1,1,0.5,0.7c1.1-0.9,2.1-1.7,3.2-2.6c0.2-0.1,0.3-0.2,0.4-0.3c0,0,0.1-0.1,0.1-0.1
		c0.1,0.1,0.3,0,0.4-0.1c0,0,0.1-0.1,0.1-0.1c-0.6,0.7-1.2,1.3-1.8,2c-0.3,0.4,0.3,0.9,0.6,0.5c1-1.1,1.9-2.2,2.9-3.3
		c0.2-0.3,0-0.6-0.2-0.7c0.7-0.6,1.4-1.3,2.1-1.9c0.4-0.4-0.2-0.9-0.6-0.5c-0.5,0.4-1,0.9-1.5,1.4c0.2-0.5,0.3-1,0.3-1.6
		c0.4-0.4,0.9-0.8,1.3-1.2c0.4-0.4-0.2-0.9-0.6-0.5c-0.2,0.2-0.5,0.5-0.7,0.7c0-0.3-0.1-0.7-0.2-1c0.3-0.3,0.5-0.5,0.8-0.8
		c0.4-0.4-0.3-0.9-0.6-0.5c-0.2,0.2-0.3,0.3-0.5,0.5c-0.2-0.3-0.4-0.6-0.6-0.9c0.4-0.3,0.8-0.7,1.3-1c0.4-0.3,0-1-0.5-0.7
		c-0.4,0.4-0.9,0.7-1.3,1.1c-0.3-0.3-0.6-0.5-0.9-0.8c0.6-0.4,1.2-0.8,1.7-1.3c0.4-0.3,0-1-0.5-0.7c-0.7,0.5-1.4,1-2,1.5
		c-0.3-0.2-0.7-0.3-1-0.4c0.6-0.4,1.2-0.7,1.8-1.1c0.5-0.3,0-1-0.5-0.7c-0.8,0.5-1.6,1-2.5,1.5c-0.2,0-0.4-0.1-0.7-0.1
		c0.6-0.4,1.2-0.7,1.8-1.1c0.5-0.3,0-1-0.5-0.7c-1,0.6-2.1,1.3-3.1,1.9c0,0-0.1,0.1-0.1,0.1c-0.6,0.1-1.2,0.3-1.7,0.6
		c-3,1.5-7.2,7.8-4.4,11.1C573.3,516.8,575.3,517,577.4,516.8z M577,506.5c2.8-1.7,7.1-0.9,7.8,2.7c0.1,0.6,0.1,1.1,0,1.6
		c-0.1,0.1-0.1,0.1-0.2,0.2c-0.2,0.2-0.1,0.4,0,0.5c-0.6,1.6-2.1,2.4-4,2.9c-0.1-0.1-0.2-0.1-0.4,0c0,0-0.1,0-0.1,0.1
		c-1.2,0.3-2.5,0.4-3.6,0.5c-1.3,0.1-2.1-0.2-2.6-0.7C572.2,512.4,574.7,507.9,577,506.5z"/>
	<path class="st1" d="M595.6,522.5c-0.9-2-2.9-2.8-5-2.3c-1.9,0.4-3.5,1.8-5.4,2.4c-2.9,0.9-5.8,0.3-8.3-1.2
		c5.4,1.7,11.8-0.5,14.6-5.5c3.2-5.6,1.6-12.7-3.6-16.5c-5.7-4.1-13.4-3.2-18.6,1.2c-4.9,4.2-6.8,10.5-6.1,16.7
		c0,2.5,0.6,4.9,1.7,7.2c3.7,7.4,12.6,9.1,20.1,7.9C589.5,531.7,598.5,529.1,595.6,522.5z M594.1,526.4c-0.2,0.4-0.4,0.8-0.7,1.1
		c-0.1,0-0.2,0-0.4,0.1c-0.3,0.3-0.6,0.6-0.9,1c-0.4,0.3-0.8,0.5-1.3,0.7c0.4-0.6,0.8-1.1,1.2-1.7c0.3-0.4-0.3-1-0.6-0.5
		c-0.7,0.9-1.3,1.8-2,2.8c-0.6,0.2-1.2,0.3-1.8,0.5c0.7-0.8,1.4-1.6,2.1-2.4c0.3-0.4-0.3-0.9-0.6-0.5c-0.9,1-1.8,2.1-2.7,3.1
		c0,0,0,0,0,0.1c-0.6,0.1-1.2,0.2-1.7,0.2c0.9-1,1.8-1.9,2.6-2.9c0.4-0.4-0.3-0.9-0.6-0.5c-1.1,1.2-2.2,2.4-3.2,3.5
		c-0.3,0-0.6,0.1-1,0.1c1-1,2-2.1,2.9-3.1c0.4-0.4-0.3-0.9-0.6-0.5c-1.2,1.2-2.3,2.5-3.5,3.7c-0.6,0-1.1,0-1.7,0
		c0.7-0.8,1.4-1.5,2.1-2.3c0.4-0.4-0.3-0.9-0.6-0.5c-0.9,0.9-1.7,1.8-2.6,2.8c-0.6-0.1-1.3-0.2-1.9-0.3c0.4-0.5,0.9-1,1.3-1.5
		c0.3-0.4-0.3-0.9-0.6-0.5c-0.5,0.6-1.1,1.3-1.6,1.9c-0.5-0.1-0.9-0.2-1.4-0.4c0.9-0.9,1.9-1.9,2.8-2.8c0.4-0.4-0.2-0.9-0.6-0.5
		c-1,1-2,2.1-3,3.1c-0.4-0.1-0.8-0.3-1.2-0.5c0.7-1,1.5-2,2.2-3.1c0.3-0.4-0.3-1-0.6-0.5c-0.7,1-1.5,2-2.2,3.1
		c0,0.1-0.1,0.1-0.1,0.2c-0.4-0.2-0.8-0.4-1.2-0.7c0.7-1,1.4-1.9,2.1-2.9c0.3-0.4-0.3-1-0.6-0.5c-0.7,1-1.5,2-2.2,3
		c-0.4-0.3-0.8-0.6-1.2-1c0.8-0.9,1.5-1.9,2.3-2.8c0.3-0.4-0.3-0.9-0.6-0.5c-0.7,0.9-1.5,1.8-2.2,2.8c-0.4-0.5-0.8-1-1.2-1.6
		c1-1.1,1.9-2.3,2.9-3.4c0.3-0.4-0.3-0.9-0.6-0.5c-0.9,1.1-1.8,2.1-2.7,3.2c-0.2-0.3-0.4-0.7-0.5-1.1c-0.1-0.2-0.1-0.4-0.2-0.5
		c0.1,0,0.3,0,0.4-0.1c1-1,1.9-2.1,2.9-3.1c0.4-0.4-0.3-0.9-0.6-0.5c-1,1-1.9,2.1-2.9,3.1c-0.1-0.4-0.3-0.9-0.4-1.3
		c1.1-1.2,2.2-2.4,3.2-3.5c0.4-0.4-0.3-0.9-0.6-0.5c-0.9,1-1.9,2.1-2.8,3.1c-0.1-0.4-0.1-0.8-0.1-1.2c0.9-1.1,1.9-2.2,2.8-3.4
		c0.3-0.4-0.3-0.9-0.6-0.5c-0.7,0.9-1.5,1.8-2.2,2.7c0-0.8,0-1.6,0.1-2.4c0.9-1.1,1.9-2.1,2.8-3.2c0.4-0.4-0.3-0.9-0.6-0.5
		c-0.7,0.7-1.3,1.5-2,2.2c0.1-0.7,0.3-1.5,0.5-2.2c0.1,0.1,0.3,0.1,0.5-0.1c1-1.1,1.9-2.2,2.9-3.3c0.3-0.4-0.3-0.9-0.6-0.5
		c-0.8,0.9-1.5,1.8-2.3,2.6c0.4-1.2,1-2.4,1.7-3.5c0.9-0.8,1.8-1.7,2.7-2.5c0.3-0.3,0-0.7-0.4-0.6c3.7-4,9.1-6,15.1-3.2
		c5.3,2.4,7.9,8.3,5.9,13.8c-2.3,6.2-8.8,8.2-14.6,6.2c-0.7-0.2-1.1,0.9-0.4,1.2c0,0,0,0,0,0c-0.1,0.1-0.1,0.2,0,0.3
		c2.6,3.2,6.7,4.2,10.5,2.6c1.2-0.5,2.3-1.5,3.6-1.9C593,521,595.5,523.5,594.1,526.4z"/>
	<path class="st1" d="M619.4,518c1.5-1.6,2.4-3.7,2.5-5.9c0.1-1.2-0.1-2.5-0.5-3.7c-0.2-0.6-0.4-1.1-0.6-1.6
		c-0.4-0.8-0.7-1.6-1.4-2.2c-0.7-0.7-1.6-1.1-2.6-1.4c-1.1-0.3-2.3-0.6-3.5-0.6c-2.3-0.1-4.6,0.6-5.9,2.7c-2.2,3.7-2,10.3,1.3,13.3
		C611.9,521.3,616.6,520.8,619.4,518z M608.8,506.4c1.2-2.2,3.9-2.4,6.1-2.3c0.5,0,1.1,0.1,1.6,0.2c1.6,0.2,2.6,1.4,3.4,2.8
		c0.3,0.6,0.6,1.4,0.8,2.1c0.7,2.6,0.2,5.3-1.6,7.3c-2.6,2.8-7.3,3.3-9.8,0C607.4,514.1,607.3,509.1,608.8,506.4z"/>
	<path class="st1" d="M610,528.5c5.9,0.3,12.4-3.6,15.5-8.6c0.1,0.2,0.3,0.4,0.5,0.6c0,0.3,0.2,0.5,0.5,0.5
		c2.7,2.7,7.3,3.7,10.7,1.9c1.9-1,2.9-3,2-5.1c-1.3-2.9-4.7-3.5-6.1-6.3c-1.1-6.5-2.6-12.9-3.1-19.5c-0.3-4.2,1.4-10.8-3.6-12.9
		c-3.8-1.6-6.9,0.8-7.9,4.5c-1.4,5.2-0.7,11.6,1.3,16.8c-3.9-4.4-10.3-5.3-15.3-2.1c-6.3,4.1-6.4,11.6-5.5,18.3
		C599.7,522.9,603,528.1,610,528.5z M600.2,509.1c1.2-1.1,2.4-2.2,3.6-3.4c0.4-0.4-0.2-0.9-0.6-0.5c-0.9,0.9-1.9,1.8-2.8,2.7
		c0.1-1,0.4-2,0.7-3c0.9-0.7,1.8-1.4,2.7-2.1c0.4-0.3,0-1-0.5-0.7c-0.5,0.4-1,0.8-1.5,1.2c0.4-0.7,0.8-1.3,1.4-1.9
		c2-2.2,4.8-3.4,7.8-3.4c2.5,0,6.5,0.8,8,3c0.2,0.3,0.3,0.5,0.6,0.7c0.2,0.2,0.6,0.2,0.9,0.1c0.2-0.1,0.2-0.4,0.2-0.7
		c0.1-0.2,0.3-0.3,0.4-0.5c0.3-0.4-0.3-0.9-0.6-0.5c-0.1-0.4-0.2-0.7-0.3-0.9c0,0,0,0,0.1,0c0.5-0.7,1-1.3,1.6-2
		c0.3-0.4-0.3-1-0.6-0.5c-0.4,0.5-0.8,1-1.2,1.5c-0.1-0.5-0.2-1.1-0.3-1.6c0.7-0.7,1.4-1.4,2.1-2.1c0.4-0.4-0.2-0.9-0.6-0.5
		c-0.6,0.6-1.1,1.1-1.7,1.7c0-0.1,0-0.2-0.1-0.3c-0.1-0.4-0.1-0.7-0.1-1.1c0.7-0.8,1.3-1.5,2-2.3c0.3-0.4-0.3-0.9-0.6-0.5
		c-0.5,0.6-1,1.1-1.5,1.7c-0.1-0.5-0.1-1.1-0.1-1.6c0.6-0.8,1.1-1.5,1.7-2.3c0.3-0.4-0.3-1-0.6-0.5c-0.4,0.5-0.8,1-1.2,1.5
		c0-0.6,0-1.2,0-1.7c0.5-0.6,1.1-1.2,1.6-1.8c0.4-0.4-0.3-0.9-0.6-0.5c-0.3,0.4-0.7,0.7-1,1.1c0-0.6,0.1-1.3,0.2-2
		c0.6-0.6,1.1-1.3,1.7-1.9c0.3-0.4-0.3-0.9-0.6-0.5c-0.2,0.3-0.4,0.5-0.7,0.8c0.6-1.9,1.7-3.4,3.8-3.6c4.4-0.3,4.9,4.1,4.8,7.2
		c-0.1,4.7,0.4,9.4,1.1,14.1c0.4,2.6,0.7,5.1,1.2,7.7c0.5,2.5,1,4.5,2.9,6.4c0.8,0.8,1.6,1.5,2.3,2.4c0.6,0.8,1.2,2,0.9,2.9
		c-0.1-0.2-0.3-0.3-0.5-0.1c-0.6,0.5-1.1,0.9-1.7,1.4c-0.3,0.1-0.6,0.1-0.9,0.1c-0.2,0-0.5,0-0.7,0c0.4-0.4,0.8-0.9,1.2-1.3
		c0.4-0.4-0.3-0.9-0.6-0.5c-0.5,0.6-1.1,1.2-1.6,1.7c-0.3,0-0.6-0.1-0.9-0.2c0.4-0.5,0.8-0.9,1.2-1.4c0.3-0.4-0.3-0.9-0.6-0.5
		c-0.5,0.6-1,1.1-1.5,1.7c-0.5-0.2-1.1-0.4-1.6-0.6c0.2-0.3,0.4-0.6,0.6-0.9c0.3-0.4-0.5-0.8-0.7-0.4c-0.2,0.3-0.4,0.6-0.6,0.9
		c-0.2-0.1-0.3-0.2-0.5-0.3c0,0-0.1,0-0.1-0.1c0.3-0.4,0.7-0.9,1-1.3c0.3-0.4-0.3-1-0.6-0.5c-0.4,0.5-0.7,0.9-1.1,1.4
		c-0.1-0.1-0.3-0.2-0.4-0.4c-0.1-0.1-0.1-0.2-0.2-0.2c0.3-0.4,0.5-0.7,0.8-1.1c0.3-0.4-0.3-1-0.6-0.5c-0.3,0.4-0.6,0.8-0.9,1.2
		c0,0-0.1,0-0.1,0c-0.7,0-0.9,0.5-1.2,0.9c-0.4,0.5-0.9,0.9-1.3,1.3c-0.2-0.1-0.4-0.2-0.5,0.1c-0.3,0.5-0.7,0.9-1,1.4
		c-0.4,0.3-0.7,0.7-1.1,1c-0.7,0.6-1.5,1.2-2.3,1.7c0.5-0.7,1-1.4,1.5-2.1c0.3-0.4-0.3-1-0.6-0.5c-0.8,1.2-1.7,2.4-2.5,3.5
		c-0.5,0.2-1.1,0.4-1.6,0.6c1-1.2,2-2.5,3-3.7c0.3-0.4-0.3-1-0.6-0.5c-1.2,1.5-2.3,2.9-3.5,4.3c-0.1,0.1-0.1,0.2-0.1,0.2
		c-0.7,0.1-1.3,0.2-1.9,0.3c0.7-0.9,1.4-1.9,2.1-2.8c0.3-0.4-0.3-1-0.6-0.5c-0.8,1.1-1.7,2.2-2.5,3.4c-0.4,0-0.7,0-1.1-0.1
		c0.7-0.9,1.4-1.9,2.1-2.8c0.3-0.4-0.3-1-0.6-0.5c-0.8,1.1-1.6,2.1-2.4,3.2c-0.5-0.1-1-0.3-1.4-0.5c0.9-1,1.8-2,2.7-3.1
		c0.3-0.4-0.3-0.9-0.6-0.5c-0.9,1.1-1.9,2.1-2.8,3.2c-0.4-0.2-0.8-0.5-1.1-0.7c0.8-1,1.5-2,2.3-3c0.3-0.4-0.3-1-0.6-0.5
		c-0.8,1-1.5,2-2.3,3c-0.3-0.3-0.6-0.6-0.9-0.9c0.8-1,1.6-1.9,2.5-2.9c0.3-0.4-0.3-0.9-0.6-0.5c-0.8,0.9-1.6,1.9-2.4,2.8
		c-0.2-0.3-0.5-0.7-0.7-1.1c1-1.1,1.9-2.2,2.9-3.3c0.3-0.4-0.3-0.9-0.6-0.5c-0.9,1-1.8,2-2.7,3.1c-0.2-0.4-0.3-0.7-0.5-1.1
		c0.9-1,1.7-2,2.6-3.1c0.3-0.4-0.3-0.9-0.6-0.5c-0.8,0.9-1.5,1.8-2.3,2.7c-0.1-0.4-0.2-0.9-0.3-1.3c0.9-1,1.9-2.1,2.8-3.1
		c0.4-0.4-0.3-0.9-0.6-0.5c-0.8,0.9-1.6,1.8-2.3,2.6c-0.1-0.6-0.2-1.2-0.2-1.8c1-1.1,2-2.2,3-3.3c0.4-0.4-0.3-0.9-0.6-0.5
		c-0.8,0.9-1.6,1.8-2.5,2.7c0-0.4-0.1-0.7-0.1-1.1c1-1.1,1.9-2.2,2.9-3.4c0.3-0.4-0.3-0.9-0.6-0.5c-0.8,0.9-1.6,1.8-2.3,2.7
		C600.1,510.6,600.2,509.9,600.2,509.1z"/>
	<path class="st1" d="M645.4,522.4c1.1,1.1,2.6,1.7,4.3,1.3c3.2-0.6,4.2-4.1,4.4-6.9c0.4-5.2-0.5-10.7-1.7-15.8
		c-0.9-3.6-2.2-13.7-7.9-10.8c-0.1,0-0.1,0.1-0.2,0.1c-0.6,0.3-1.2,0.8-1.7,1.3c-2.5,2.9-2.3,6.5-1.9,10c-0.1,0.2-0.1,0.4,0.1,0.5
		c0,0.1,0,0.2,0,0.3c0.6,5,0.7,10.4,2,15.3c0.3,1.4,1,2.9,2,4C644.9,522.1,645.2,522.4,645.4,522.4z M644.7,519.1
		c-0.2-0.4-0.3-0.9-0.4-1.3c0.9-1.2,1.9-2.5,2.8-3.7c0.3-0.4-0.3-1-0.6-0.5c-0.8,1.1-1.6,2.1-2.4,3.2c-0.1-0.4-0.1-0.8-0.2-1.2
		c0-0.3-0.1-0.5-0.1-0.8c0.7-0.8,1.5-1.7,2.2-2.5c0.3-0.4-0.3-0.9-0.6-0.5c-0.6,0.7-1.2,1.3-1.7,2c-0.1-0.6-0.2-1.3-0.2-1.9
		c0.1,0.1,0.3,0.1,0.5-0.1c0.5-0.7,1.1-1.3,1.6-2c0.3-0.4-0.3-1-0.6-0.5c-0.5,0.6-1,1.3-1.5,1.9c0-0.4-0.1-0.9-0.1-1.3
		c0,0,0.1,0,0.1-0.1c1-1.1,2-2.2,3-3.3c0.4-0.4-0.3-0.9-0.6-0.5c-0.9,0.9-1.7,1.9-2.6,2.8c-0.1-0.5-0.1-1.1-0.2-1.6c0,0,0,0,0,0
		c1.1-1,2.2-2,3.2-3c0.4-0.4-0.2-0.9-0.6-0.5c-0.9,0.8-1.8,1.7-2.7,2.5c-0.1-0.6-0.2-1.2-0.3-1.8c1-0.9,2-1.7,3.1-2.6
		c0.4-0.3-0.1-1-0.5-0.7c-0.9,0.8-1.8,1.6-2.8,2.3c-0.1-0.5-0.2-1.1-0.3-1.6c0.8-0.8,1.6-1.5,2.4-2.3c0.4-0.4-0.2-0.9-0.6-0.5
		c-0.6,0.6-1.2,1.2-1.9,1.8c-0.1-0.5-0.1-1-0.1-1.5c0.5-0.6,1.1-1.2,1.6-1.7c0.4-0.4-0.3-0.9-0.6-0.5c-0.4,0.4-0.7,0.7-1.1,1.1
		c0-0.7,0-1.3,0.2-2c0-0.1,0-0.1,0-0.2c0.6-0.6,1.3-1.3,1.9-1.9c0.4-0.4-0.2-0.9-0.6-0.5c-0.3,0.3-0.5,0.5-0.8,0.8
		c0.8-2,2.4-3.8,4.7-3.1c0,0,0,0,0,0c2.6,1.2,3.6,7.3,4.1,9.4c1.3,5.5,2.9,12.1,1.5,17.8c-0.2,1-0.6,2-1.3,2.9
		c-1.2,0.6-2.2,0.9-3.1,0.9c0.8-1,1.6-2,2.4-2.9c0.3-0.4-0.3-1-0.6-0.5c-0.9,1.1-1.8,2.2-2.7,3.3c-0.4-0.1-0.8-0.3-1.1-0.5
		c0.5-0.6,1-1.3,1.5-1.9c0.3-0.4-0.3-1-0.6-0.5c-0.5,0.6-1,1.2-1.5,1.9c-0.2-0.2-0.4-0.5-0.5-0.8c-0.1-0.1-0.1-0.2-0.1-0.3
		c0.1,0,0.1-0.1,0.2-0.1c0.9-1.1,1.8-2.2,2.7-3.3c0.3-0.4-0.3-0.9-0.6-0.5C646.5,516.9,645.6,518,644.7,519.1z"/>
	<path class="st1" d="M643.1,478.3c-2.3,0.5-4.2,2.6-4.3,5c-0.2,3.2,2.5,6.1,5.8,5.8c3.1-0.3,5.2-3.4,4.6-6.4
		C648.6,480.1,645.8,477.8,643.1,478.3z M645.4,487.3c0.4-0.4,0.7-0.7,1.1-1.1c0.4-0.4-0.3-0.9-0.6-0.5c-0.6,0.6-1.2,1.3-1.8,1.9
		c0,0,0,0,0,0c-0.3,0-0.6-0.1-0.9-0.1c0.5-0.5,1-1.1,1.5-1.6c0.4-0.4-0.3-0.9-0.6-0.5c-0.6,0.6-1.1,1.2-1.7,1.8
		c-0.2-0.1-0.5-0.3-0.7-0.5c0.5-0.5,1-1,1.6-1.5c0.4-0.4-0.2-0.9-0.6-0.5c-0.5,0.5-1,1-1.5,1.5c-0.2-0.3-0.4-0.6-0.5-0.9
		c0,0,0,0,0.1,0c0.6-0.7,1.3-1.5,1.9-2.2c0.3-0.4-0.3-0.9-0.6-0.5c-0.5,0.6-1.1,1.2-1.6,1.9c-0.1-0.4-0.1-0.8-0.1-1.2
		c0-0.1,0-0.2,0-0.2c0,0,0,0,0,0c0.8-0.8,1.6-1.6,2.5-2.4c0.1-0.1,0.1-0.3,0.1-0.4c2-0.5,4.6,0.4,5.2,2.7
		C648.5,484.7,647.3,486.6,645.4,487.3z"/>
	<path class="st1" d="M666.2,520.8c5.6,2.7,11.6-0.1,15.8-3.9c1.9,4,8.9,4.3,12.4,2.1c1.6-1,2-2.7,1.1-4.3c-2.1-4-7.7-1.9-8.4-7.5
		c-0.5-4.2-0.9-8.4-1.4-12.6c-0.3-2.3-0.6-4.7-3-5.8c-2.7-1.3-4.9,0.7-5.1,2.9c-1.5-4.2-6.5-5.8-10.8-3.8
		c-6.4,2.9-7.7,10.3-7.3,16.6C659.8,510.2,660.3,517.9,666.2,520.8z M662.5,498.6c-0.5,0.6-1.1,1.1-1.6,1.7c0.1-0.6,0.1-1.3,0.3-1.9
		c0.8-1,1.6-2,2.4-3c0.3-0.4-0.3-1-0.6-0.5c-0.4,0.5-0.8,1-1.3,1.6c0.4-1.1,0.9-2.1,1.5-3.1c1-1.5,2.5-2.6,4.2-3.4
		c-1,0.9-2.1,1.9-3.1,2.8c-0.4,0.4,0.2,0.9,0.6,0.5c1.3-1.2,2.7-2.5,4-3.7c0.1-0.1,0.1-0.2,0.1-0.3c0.6-0.2,1.3-0.3,1.9-0.3
		c-0.7,0.6-1.4,1.2-2.1,1.8c-0.4,0.3,0.1,1,0.5,0.7c0.9-0.8,1.9-1.6,2.8-2.4c0.4,0,0.8,0.1,1.2,0.3c-0.6,0.5-1.2,1-1.7,1.5
		c-0.4,0.3,0.1,1,0.5,0.7c0.7-0.6,1.4-1.2,2.1-1.8c0.4,0.2,0.8,0.4,1.2,0.7c-0.4,0.4-0.9,0.7-1.3,1.1c-0.4,0.3,0.1,1,0.5,0.7
		c0.5-0.4,1-0.8,1.5-1.2c0.3,0.4,0.7,0.8,0.9,1.2c0.3,0.6,0.5,1.3,0.7,2c0.1,0.3,0.3,0.7,0.6,0.7c0.2,0,0.4-0.1,0.5-0.3
		c0.4-0.8,0-1.6,0.1-2.5c0.1-1,1-2.2,2-2.3c2.7-0.5,3.3,2.9,3.5,4.8c0.3,1.9,0.4,3.8,0.6,5.6c0.3,2.9,0.1,6.5,1,9.3
		c0.6,1.8,2.4,3,4.2,3.5c1.4,0.4,3.9,1.3,3.5,3.2c0,0.1,0,0.2-0.1,0.3c-0.2,0.7-0.7,1.2-1.4,1.5c-0.5,0.3-1.1,0.5-1.7,0.5
		c0.4-0.3,0.8-0.7,1.1-1c0.4-0.3-0.1-1-0.5-0.7c-0.6,0.6-1.3,1.1-1.9,1.7c0,0-0.1,0.1-0.1,0.1c-0.4,0-0.8,0-1.3,0
		c0.6-0.6,1.2-1.1,1.8-1.7c0.4-0.4-0.2-0.9-0.6-0.5c-0.7,0.7-1.4,1.4-2.2,2.1c-0.4-0.1-0.8-0.2-1.2-0.4c0.5-0.6,1.1-1.2,1.6-1.8
		c0.4-0.4-0.3-0.9-0.6-0.5c-0.6,0.6-1.2,1.3-1.8,1.9c-0.2-0.1-0.4-0.3-0.6-0.5c-0.1-0.1-0.2-0.2-0.3-0.3c0.7-0.8,1.4-1.6,2.1-2.4
		c0.3-0.4-0.3-0.9-0.6-0.5c-0.6,0.7-1.3,1.5-1.9,2.2c-0.2-0.4-0.5-0.7-0.7-0.9c0.5-0.5,1.1-1.1,1.6-1.6c0.4-0.4-0.2-0.9-0.6-0.5
		c-0.8,0.7-1.5,1.5-2.3,2.2c-0.1,0.1-0.1,0.1-0.1,0.2c-0.2,0.2-0.4,0.4-0.5,0.6c-0.5,0.5-1,0.8-1.6,1.2c-0.7,0.5-1.4,0.9-2.2,1.3
		c0.5-0.6,0.9-1.2,1.4-1.8c0.3-0.4-0.3-1-0.6-0.5c-0.7,0.9-1.5,1.8-2.2,2.7c-0.1,0.1-0.1,0.2-0.1,0.3c-0.7,0.3-1.4,0.5-2.2,0.6
		c0.6-0.8,1.3-1.7,1.9-2.5c0.3-0.4-0.3-1-0.6-0.5c-0.7,1-1.5,1.9-2.2,2.9c-0.1,0.1-0.1,0.2-0.1,0.3c-0.4,0.1-0.9,0.1-1.3,0.1
		c0.9-1.1,1.9-2.1,2.8-3.2c0.4-0.4-0.3-0.9-0.6-0.5c-1,1.1-2,2.3-3.1,3.4c-0.1,0.1-0.1,0.2-0.1,0.2c-0.5,0-0.9-0.1-1.4-0.2
		c0.5-0.7,1.1-1.3,1.6-2c0.3-0.4-0.3-0.9-0.6-0.5c-0.6,0.8-1.3,1.5-1.9,2.3c-0.5-0.1-0.9-0.3-1.3-0.5c0.5-0.5,1-0.9,1.5-1.4
		c0.4-0.4-0.2-0.9-0.6-0.5c-0.5,0.5-1.1,1-1.6,1.5c-0.4-0.2-0.7-0.5-1-0.8c0.5-0.6,0.9-1.2,1.4-1.8c0.3-0.4-0.3-1-0.6-0.5
		c-0.4,0.6-0.9,1.2-1.3,1.8c-0.2-0.2-0.4-0.5-0.6-0.7c0.4-0.5,0.9-1.1,1.3-1.6c0.3-0.4-0.3-1-0.6-0.5c-0.4,0.5-0.8,0.9-1.1,1.4
		c-0.3-0.5-0.5-1-0.7-1.5c0.6-0.7,1.2-1.5,1.8-2.2c0.3-0.4-0.3-1-0.6-0.5c-0.5,0.6-1,1.2-1.5,1.8c-0.2-0.7-0.4-1.4-0.6-2.2
		c0.5-0.7,1-1.3,1.4-2c0.3-0.4-0.3-1-0.6-0.5c-0.3,0.5-0.7,0.9-1,1.4c-0.1-0.7-0.2-1.3-0.3-2c0.6-0.8,1.1-1.5,1.7-2.3
		c0.3-0.4-0.3-1-0.6-0.5c-0.4,0.6-0.8,1.1-1.3,1.7c-0.1-0.7-0.2-1.4-0.2-2.1c0.7-0.8,1.3-1.7,2-2.5c0.3-0.4-0.3-1-0.6-0.5
		c-0.5,0.6-1,1.2-1.4,1.8c0-0.8,0-1.6,0-2.3c0.8-0.8,1.5-1.6,2.3-2.5C663.5,498.8,662.9,498.2,662.5,498.6z"/>
	<path class="st1" d="M517.4,504c0.3-0.4-0.4-0.8-0.7-0.4c-0.6,0.9-1.4,1.6-2.3,2.1c-0.5,0.3,0,0.9,0.5,0.7
		C515.9,505.9,516.7,505.1,517.4,504z"/>
	<path class="st1" d="M518.9,504.3c-1.2,1.4-2.4,2.8-3.6,4.2c-0.3,0.4,0.3,0.9,0.6,0.5c1.2-1.4,2.4-2.8,3.6-4.2
		C519.9,504.4,519.3,503.9,518.9,504.3z"/>
	<path class="st1" d="M671.3,516.2c2.6,0.8,5.6-0.7,7.5-2.7c0.2,0.1,0.4,0.1,0.5,0c0.8-0.9,1.6-1.8,2.4-2.7c0.3-0.4-0.3-0.9-0.6-0.5
		c-0.1,0.1-0.3,0.3-0.4,0.4c0.6-0.8,1.2-1.6,1.8-2.4c0.3-0.4-0.3-1-0.6-0.5c-0.3,0.3-0.5,0.7-0.8,1c0.1-0.3,0.1-0.7,0.1-1
		c0.6-0.7,1.2-1.3,1.8-2c0.4-0.4-0.3-0.9-0.6-0.5c-0.4,0.4-0.8,0.9-1.2,1.3c0-0.4,0-0.8-0.1-1.2c0-0.2-0.1-0.5-0.1-0.7
		c0.5-0.6,1-1.1,1.4-1.7c0.3-0.4-0.3-0.9-0.6-0.5c-0.3,0.4-0.7,0.8-1,1.2c-0.1-0.6-0.3-1.1-0.5-1.7c0.6-0.5,1.2-0.9,1.7-1.4
		c0.4-0.3-0.1-1-0.5-0.7c-0.5,0.4-1.1,0.9-1.6,1.3c-0.2-0.5-0.4-1-0.7-1.4c0.8-0.6,1.6-1.1,2.4-1.7c0.4-0.3,0-1-0.5-0.7
		c-0.8,0.6-1.6,1.1-2.4,1.7c-0.2-0.3-0.5-0.7-0.7-1c0.7-0.6,1.4-1.1,2-1.7c0.4-0.3-0.1-1-0.5-0.7c-0.7,0.6-1.4,1.2-2.1,1.8
		c-1.1-1.2-2.5-2.1-4.2-2.4c-1.5-0.2-3,0.1-4.3,0.9c-3.6,2-4.3,7-3.9,10.7C665.8,510.1,667.4,514.9,671.3,516.2z M668.6,498.3
		c3.6-4.8,9,0.3,10.5,4.2c0.6,1.5,0.9,3.1,0.9,4.7c0,1.4-0.4,2.4-0.9,3.7c-0.6,1.5-1.8,2.9-3.4,3.6c-0.7,0.3-1.5,0.5-2.3,0.4
		c-1.2-0.1-2.4-0.5-3.4-1.3c-2.1-1.6-2.8-4.4-3-7C666.8,503.9,666.9,500.6,668.6,498.3z"/>
	<path class="st1" d="M622.9,504.6c0.6-0.6,1.2-1.2,1.7-1.9c0.4-0.4-0.3-0.9-0.6-0.5c-0.6,0.6-1.2,1.2-1.7,1.9
		C621.9,504.5,622.5,505,622.9,504.6z"/>
	<path class="st1" d="M623.8,506.2c0.5-0.6,1.1-1.1,1.6-1.7c0.4-0.4-0.3-0.9-0.6-0.5c-0.5,0.6-1.1,1.1-1.6,1.7
		C622.8,506.1,623.4,506.6,623.8,506.2z"/>
	<path class="st1" d="M625.2,507.6c-0.4,0.5-0.8,1-1.3,1.5c-0.3,0.4,0.3,0.9,0.6,0.5c0.4-0.5,0.8-1,1.3-1.5
		C626.2,507.8,625.6,507.2,625.2,507.6z"/>
	<path class="st1" d="M624.8,512.7c0.3-0.3,0.6-0.6,1-0.9c0.4-0.4-0.2-0.9-0.6-0.5c-0.3,0.3-0.6,0.6-1,0.9
		C623.8,512.5,624.4,513.1,624.8,512.7z"/>
	<path class="st1" d="M625.7,512.3c-0.7,0.3-1.2,0.8-1.4,1.5c-0.2,0.5,0.7,0.7,0.8,0.2c0.1-0.5,0.5-0.8,0.9-0.9
		C626.5,512.9,626.2,512.1,625.7,512.3z"/>
	<path class="st1" d="M507.8,596.9c7.6-8.6,7.4-22.6-2.1-29.7c-6.7-5.1-15.5-4.1-23.1-6.7c-4.6-1.6-9.5-5.2-9.7-10.5
		c-0.1-3.3,1.7-6.4,4.3-8.3c0.9-0.6,1.9-1.2,2.9-1.6c0.4-0.1,0.7-0.3,1.1-0.4c2.3-1,4.2-0.4,5.8,2c-4.6,8.5,7.6,16.6,13.2,8.3
		c3.2-4.7,0.6-10.9-2.8-14.6c-3.6-3.9-8.7-6.4-14-6.9c-11.2-1.1-21.4,7.8-22.4,19c-0.5,5.5,1.5,11.1,5.1,15.3
		c4,4.8,9.4,6.6,15.4,7.7c4.5,0.8,9.6,1.4,13.2,4.5c3.8,3.3,4.4,9,2,13.3c-5.6,9.9-18.9,6.1-23.5-2.3c3.9,1.3,5.8-3.1,4.5-6.4
		c-1.5-4.1-6.5-5-10.2-3.6c-4.7,1.7-7.4,6.8-7,11.7c0.5,6.1,5,10.9,10.1,13.6C482.1,606.9,498.9,607,507.8,596.9z M503.9,597.7
		c-0.2,0.2-0.4,0.3-0.7,0.5c0.4-0.6,0.8-1.2,1.2-1.8c0.3-0.5-0.4-1.2-0.7-0.6c-0.8,1.1-1.5,2.3-2.3,3.4c-0.1,0.1-0.1,0.2-0.1,0.3
		c-0.5,0.3-1,0.6-1.5,0.8c0.6-1,1.2-2,1.8-3c0.3-0.5-0.6-1-0.9-0.4c-0.8,1.4-1.6,2.7-2.4,4.1c-0.7,0.3-1.4,0.5-2.2,0.7
		c0.5-0.7,1-1.4,1.5-2.2c0.4-0.5-0.4-1.2-0.7-0.6c-0.7,1.1-1.5,2.1-2.2,3.2c-0.4,0.1-0.9,0.2-1.3,0.3c0.8-1.1,1.6-2.1,2.4-3.2
		c0.4-0.5-0.4-1.1-0.7-0.6c-1,1.4-2,2.7-3,4.1c-0.5,0.1-1,0.1-1.5,0.1c0.9-0.9,1.7-1.9,2.6-2.8c0.4-0.5-0.3-1.1-0.7-0.6
		c-1.1,1.2-2.2,2.4-3.2,3.6c-0.6,0-1.1,0-1.7,0c0.6-0.7,1.2-1.3,1.8-2c0.4-0.5-0.3-1.1-0.7-0.6c-0.8,0.9-1.5,1.8-2.3,2.6
		c-0.4,0-0.8-0.1-1.2-0.1c0.4-0.5,0.9-1,1.3-1.5c0.4-0.5-0.3-1.1-0.7-0.6c-0.6,0.7-1.2,1.4-1.7,2.1c-0.1,0-0.2,0-0.3,0
		c-0.6-0.1-1.1-0.1-1.7-0.2c0.5-0.4,1-0.9,1.5-1.3c0.5-0.4-0.1-1.2-0.5-0.8c-0.7,0.6-1.4,1.3-2.2,1.9c-0.5-0.1-1-0.2-1.5-0.3
		c0.8-0.7,1.6-1.4,2.4-2.1c0.5-0.4-0.1-1.2-0.5-0.8c-1,0.9-2,1.8-3,2.6c-0.7-0.2-1.3-0.4-2-0.6c0.7-0.7,1.3-1.3,2-2
		c0.4-0.4-0.3-1.1-0.7-0.6c-0.8,0.8-1.5,1.5-2.3,2.3c-0.4-0.1-0.7-0.3-1.1-0.4c0.5-0.4,0.9-0.9,1.4-1.3c0.5-0.4-0.3-1.1-0.7-0.6
		c-0.5,0.5-1.1,1-1.6,1.5c-0.3-0.1-0.5-0.2-0.8-0.4c0.7-0.6,1.3-1.3,2-1.9c0.5-0.4-0.3-1.1-0.7-0.6c-0.7,0.7-1.5,1.4-2.2,2.1
		c-0.5-0.3-0.9-0.5-1.3-0.8c0.9-0.9,1.7-1.8,2.6-2.7c0.4-0.5-0.3-1.1-0.7-0.6c-0.9,0.9-1.8,1.9-2.6,2.8c-0.4-0.3-0.7-0.6-1.1-0.8
		c0.5-0.4,1-0.9,1.5-1.3c0.5-0.4-0.1-1.2-0.5-0.8c-0.6,0.5-1.1,1-1.7,1.5c-0.3-0.3-0.7-0.7-1-1c0.7-0.5,1.4-1,2.1-1.6
		c0.5-0.4,0-1.2-0.5-0.8c-0.7,0.5-1.4,1.1-2.1,1.6c-0.2-0.3-0.5-0.6-0.7-1c0.6-0.4,1.3-0.9,1.9-1.3c0.5-0.4,0-1.2-0.5-0.8
		c-0.6,0.4-1.3,0.9-1.9,1.3c-0.1-0.2-0.3-0.5-0.4-0.7c-0.1-0.2-0.2-0.5-0.3-0.7c0.8-0.6,1.7-1.3,2.5-1.9c0.5-0.4,0-1.2-0.5-0.8
		c-0.8,0.6-1.6,1.2-2.4,1.8c-0.1-0.4-0.2-0.8-0.3-1.2c0.7-0.5,1.3-1,2-1.5c0.5-0.4-0.1-1.2-0.5-0.8c-0.5,0.4-1.1,0.8-1.6,1.3
		c0-0.3-0.1-0.6-0.1-0.9c0.6-0.5,1.3-1.1,1.9-1.6c0.5-0.4-0.1-1.2-0.5-0.8c-0.5,0.4-0.9,0.8-1.4,1.2c0-0.2,0-0.5,0.1-0.7
		c0.9-0.8,1.7-1.5,2.6-2.3c0.5-0.4-0.1-1.2-0.5-0.8c-0.6,0.5-1.1,1-1.7,1.5c0.2-0.6,0.4-1.1,0.7-1.7c0.9-0.6,1.9-1.3,2.8-1.9
		c0.5-0.4,0-1.2-0.5-0.8c-0.1,0.1-0.2,0.1-0.3,0.2c1.5-1.3,3.4-2.1,5.4-2.1c1,0,1.8,0.2,2.6,0.6c0.2,0,0.4,0.1,0.6,0.2
		c-0.1-0.1-0.3-0.1-0.5,0c-0.5,0.3-0.9,0.7-1.4,1c-0.5,0.4,0,1.2,0.5,0.8c0.5-0.3,0.9-0.7,1.4-1c0.3-0.2,0.2-0.6,0-0.8
		c0.4,0.2,0.7,0.6,0.9,1.1c0,0,0,0.1,0,0.1c-0.8,0.6-1.7,1.3-2.5,1.9c-0.5,0.4,0,1.2,0.5,0.8c0.7-0.6,1.5-1.1,2.2-1.7
		c0.1,0.4,0.2,0.8,0.2,1.2c-0.7,0.7-1.5,1.3-2.5,1.7c-0.6,0.2-0.3,1.1,0.3,0.9c0.7-0.3,1.4-0.7,2-1.1c-0.3,0.8-1,1.5-2.2,1.6
		c-0.4,0-0.8,0-1.2,0.2c-3,1.9,4.7,8.1,6,8.9c4.4,2.5,9.8,2.8,14.3,0.7c1.9-0.9,3.5-2.3,4.8-3.9c0.9-0.6,1.8-1.1,2.6-1.7
		c0.5-0.3,0-1.1-0.5-0.8c-0.3,0.2-0.5,0.3-0.8,0.5c0.1-0.2,0.2-0.3,0.3-0.5c1-0.9,2-1.8,2.9-2.7c0.5-0.4-0.3-1.1-0.7-0.6
		c-0.5,0.4-1,0.9-1.4,1.3c0.2-0.6,0.3-1.1,0.4-1.7c0.8-0.8,1.6-1.6,2.4-2.4c0.4-0.4-0.3-1.1-0.7-0.6c-0.5,0.5-1,1-1.5,1.5
		c0-0.6,0-1.2-0.1-1.8c0.4-0.3,0.9-0.5,1.3-0.8c0.5-0.3,0-1.1-0.5-0.8c-0.3,0.2-0.6,0.4-0.9,0.6c-0.1-0.5-0.2-1-0.4-1.6
		c0.7-0.4,1.4-0.9,2.1-1.3c0.5-0.3,0-1.1-0.5-0.8c-0.6,0.4-1.3,0.8-1.9,1.2c-0.2-0.4-0.4-0.7-0.6-1.1c0.7-0.6,1.4-1.2,2.1-1.7
		c0.5-0.4-0.1-1.2-0.5-0.8c-0.7,0.6-1.4,1.1-2,1.7c-0.2-0.3-0.5-0.6-0.7-0.9c0.5-0.3,0.9-0.6,1.4-1c0.5-0.4,0-1.2-0.5-0.8
		c-0.5,0.4-1,0.7-1.5,1.1c-0.3-0.3-0.7-0.6-1-0.9c0.5-0.4,1-0.7,1.5-1.1c0.5-0.4,0-1.2-0.5-0.8c-0.6,0.4-1.2,0.9-1.8,1.3
		c-0.4-0.3-0.9-0.6-1.3-0.8c0.6-0.4,1.2-0.8,1.8-1.2c0.5-0.3,0-1.1-0.5-0.8c-0.8,0.5-1.5,1-2.3,1.5c-0.5-0.2-1-0.4-1.5-0.6
		c0.7-0.5,1.3-1,2-1.4c0.5-0.4,0-1.2-0.5-0.8c-0.9,0.6-1.7,1.3-2.6,1.9c-0.5-0.2-1-0.3-1.5-0.4c0.4-0.3,0.9-0.6,1.3-0.9
		c0.5-0.3,0-1.1-0.5-0.8c-0.7,0.4-1.4,0.9-2.1,1.3c-0.6-0.1-1.3-0.3-1.9-0.4c0.5-0.3,1.1-0.7,1.6-1c0.5-0.3,0-1.1-0.5-0.8
		c-0.8,0.5-1.7,1.1-2.5,1.6c-0.5-0.1-1-0.2-1.5-0.3c0.5-0.4,1-0.7,1.5-1.1c0.5-0.4,0-1.2-0.5-0.8c-0.7,0.6-1.5,1.1-2.2,1.7
		c-0.2-0.1-0.5-0.1-0.7-0.2c0.4-0.3,0.9-0.6,1.3-0.8c0.5-0.3,0-1.1-0.5-0.8c-0.7,0.4-1.4,0.9-2.1,1.3c-0.5-0.1-1-0.2-1.4-0.4
		c0.5-0.5,1-1,1.5-1.5c0.4-0.4-0.3-1.1-0.7-0.6c-0.6,0.6-1.2,1.2-1.8,1.8c-0.6-0.2-1.1-0.4-1.7-0.6c0.6-0.6,1.2-1.2,1.7-1.7
		c0.4-0.4-0.3-1.1-0.7-0.6c-0.7,0.7-1.3,1.3-2,2c-0.4-0.2-0.8-0.4-1.2-0.6c0.6-0.5,1.2-1.1,1.7-1.6c0.5-0.4-0.3-1.1-0.7-0.6
		c-0.6,0.6-1.2,1.2-1.9,1.7c-0.3-0.2-0.7-0.4-1-0.7c0.7-0.6,1.3-1.2,2-1.9c0.5-0.4-0.3-1.1-0.7-0.6c-0.7,0.6-1.4,1.3-2,1.9
		c-0.4-0.4-0.9-0.7-1.3-1.2c0.6-0.5,1.2-1,1.7-1.5c0.5-0.4-0.1-1.2-0.5-0.8c-0.6,0.5-1.2,1.1-1.9,1.6c-0.3-0.4-0.7-0.8-1-1.2
		c0.6-0.6,1.3-1.2,1.9-1.8c0.5-0.4-0.3-1.1-0.7-0.6c-0.6,0.5-1.2,1.1-1.8,1.6c-0.3-0.4-0.5-0.8-0.7-1.1c0.7-0.6,1.4-1.1,2.1-1.7
		c0.5-0.4-0.1-1.2-0.5-0.8c-0.7,0.5-1.3,1.1-2,1.6c-0.2-0.5-0.4-0.9-0.6-1.4c0.9-0.8,1.8-1.5,2.7-2.3c0.5-0.4-0.1-1.2-0.5-0.8
		c-0.8,0.7-1.7,1.4-2.5,2.1c-0.2-0.5-0.3-1-0.4-1.6c0.7-0.6,1.4-1.1,2-1.7c0.5-0.4-0.1-1.2-0.5-0.8c-0.6,0.5-1.2,0.9-1.7,1.4
		c-0.1-0.5-0.1-0.9-0.2-1.4c1.1-1,2.1-2,3.2-3c0.5-0.4-0.3-1.1-0.7-0.6c-0.8,0.8-1.7,1.6-2.5,2.4c0-0.2,0-0.5,0-0.7
		c0.8-0.6,1.6-1.2,2.4-1.9c0.5-0.4,0-1.2-0.5-0.8c-0.6,0.5-1.2,0.9-1.8,1.4c0-0.6,0.1-1.2,0.2-1.9c1.1-1,2.1-1.9,3.2-2.9
		c0.5-0.4-0.3-1.1-0.7-0.6c-0.7,0.6-1.4,1.3-2.1,1.9c0.2-1,0.5-1.9,0.9-2.8c1.2-0.8,2.4-1.6,3.6-2.4c0.5-0.4,0-1.2-0.5-0.8
		c-0.7,0.5-1.4,1-2.2,1.5c2.6-4.8,7.1-8.6,13.1-9.5c6.9-1.1,14.5,1.9,18.5,7.7c2.7,3.9,3.8,11-2.1,12.7c-0.4,0.1-0.7,0.2-1.1,0.2
		c0.4-0.3,0.7-0.7,0.9-1.1c0.3-0.5-0.5-1-0.9-0.4c-0.4,0.7-1.1,1.2-1.9,1.5c-0.4-0.1-0.7-0.2-1.1-0.3c0.6-0.4,1.2-0.9,1.7-1.3
		c0.5-0.4,0-1.2-0.5-0.8c-0.7,0.5-1.5,1.1-2.2,1.6c-0.4-0.3-0.8-0.6-1.2-1c0.9-0.8,1.8-1.6,2.6-2.4c0.5-0.4-0.3-1.1-0.7-0.6
		c-0.8,0.8-1.7,1.5-2.5,2.3c-0.1-0.2-0.3-0.4-0.4-0.7c0.7-0.6,1.4-1.3,2.1-1.9c0.5-0.4-0.3-1.1-0.7-0.6c-0.6,0.5-1.1,1-1.7,1.6
		c-0.1-0.4-0.1-0.7-0.1-1.1c0.8-0.7,1.6-1.4,2.4-2.1c0.5-0.4-0.1-1.2-0.5-0.8c-0.5,0.4-1,0.8-1.5,1.3c0.2-0.5,0.4-1,0.6-1.5
		c0.8-0.6,1.6-1.2,2.4-1.7c0.5-0.4,0-1.2-0.5-0.8c-0.5,0.4-1,0.7-1.5,1.1c0-0.4,0-0.7-0.1-1.1c0,0,0,0,0,0c0.5-0.4,0.9-0.7,1.4-1.1
		c0.5-0.4,0-1.2-0.5-0.8c-0.4,0.3-0.8,0.6-1.2,0.9c-0.2-0.3-0.4-0.5-0.6-0.7c0.7-0.4,1.3-0.9,2-1.3c0.5-0.3,0-1.2-0.5-0.8
		c-0.8,0.5-1.5,1-2.3,1.5c-0.4-0.2-0.9-0.4-1.4-0.5c0.2-0.1,0.3-0.2,0.5-0.3c0.5-0.3,0-1.1-0.5-0.8c-0.6,0.3-1.2,0.7-1.7,1
		c-3.8,0.2-7.8,2.4-10.1,5.4c-6.1,7.9,0,16.6,8.1,19.5c5.3,1.9,11.1,1.9,16.5,3.5c7,2.1,11.9,7.7,12.8,15c0.4,3.7-0.4,7.3-2.1,10.5
		c-0.2-0.2-0.6-0.3-0.8,0.1c-0.5,1.2-1.1,2.4-1.6,3.6C505.8,595.9,504.9,596.9,503.9,597.7z"/>
	<path class="st1" d="M546.4,567.5c-4.7-4.3-12.6-7.1-19-5.1c-1,0.3-1.9,0.7-2.8,1.2c-6.6,4-8.6,12.3-6.6,19.4
		c0.7,2.6,2,5.1,3.5,7.4c0,0.1,0.1,0.2,0.2,0.3c4.7,6.7,12.5,11.1,20.9,8.4c10-3.2,12.8-15.2,9-24.1
		C550.6,572.2,548.7,569.6,546.4,567.5z M548.5,592.9c-0.1-0.4-0.5-0.6-0.8-0.2c-0.8,1.1-1.7,2.2-2.5,3.3c-0.6,0.4-1.2,0.7-1.9,1
		c0.5-0.5,0.9-1.1,1.4-1.6c0.4-0.5-0.3-1.1-0.7-0.6c-0.8,1-1.7,1.9-2.5,2.9c-0.6,0.2-1.3,0.3-1.9,0.4c0.4-0.4,0.8-0.9,1.2-1.3
		c0.4-0.5-0.3-1.1-0.7-0.6c-0.6,0.7-1.3,1.4-1.9,2.1c-0.6,0-1.2,0-1.8,0c0.5-0.6,0.9-1.3,1.4-1.9c0.4-0.5-0.4-1.1-0.7-0.6
		c-0.6,0.8-1.2,1.6-1.8,2.4c-0.3-0.1-0.6-0.1-1-0.2c0.5-0.6,1-1.1,1.5-1.7c0.4-0.5-0.3-1.1-0.7-0.6c-0.6,0.7-1.2,1.3-1.7,2
		c-0.5-0.2-1.1-0.4-1.6-0.6c0.4-0.5,0.8-1,1.2-1.5c0.4-0.5-0.3-1.1-0.7-0.6c-0.5,0.6-1,1.1-1.4,1.7c-0.5-0.2-0.9-0.5-1.4-0.8
		c0.3-0.4,0.6-0.8,0.9-1.1c0.4-0.5-0.3-1.1-0.7-0.6c-0.3,0.4-0.7,0.8-1,1.2c-0.3-0.2-0.5-0.4-0.8-0.6c0.6-0.7,1.2-1.4,1.9-2.1
		c0.4-0.5-0.3-1.1-0.7-0.6c-0.6,0.7-1.3,1.4-1.9,2.2c-0.3-0.2-0.5-0.5-0.8-0.7c0.6-0.7,1.2-1.5,1.8-2.2c0.4-0.5-0.3-1.1-0.7-0.6
		c-0.6,0.7-1.2,1.4-1.8,2.1c-0.3-0.3-0.7-0.7-1-1.1c0.6-0.6,1.3-1.3,1.9-1.9c0.4-0.4-0.3-1.1-0.7-0.6c-0.6,0.6-1.2,1.2-1.8,1.8
		c-0.2-0.3-0.4-0.5-0.6-0.8c0.6-0.6,1.1-1.2,1.7-1.8c0.4-0.5-0.3-1.1-0.7-0.6c-0.5,0.6-1,1.1-1.5,1.7c-0.1-0.2-0.3-0.4-0.4-0.6
		c0.4-0.4,0.8-0.8,1.2-1.2c0.4-0.4-0.3-1.1-0.7-0.6c-0.3,0.3-0.7,0.6-1,1c-0.2-0.4-0.4-0.8-0.6-1.2c1-1.1,2-2.2,3-3.2
		c0.4-0.5-0.3-1.1-0.7-0.6c-0.9,1-1.8,2-2.7,2.9c-0.1-0.3-0.2-0.6-0.4-0.9c0.8-0.9,1.7-1.8,2.5-2.7c0.4-0.5-0.3-1.1-0.7-0.6
		c-0.7,0.8-1.5,1.5-2.2,2.3c-0.1-0.3-0.2-0.7-0.3-1c1-1.1,2-2.1,3.1-3.2c0.4-0.5-0.3-1.1-0.7-0.6c-0.9,0.9-1.7,1.8-2.6,2.7
		c-0.1-0.4-0.2-0.7-0.2-1.1c0,0,0,0,0,0c1.2-1.4,2.4-2.8,3.5-4.3c0.4-0.5-0.3-1.1-0.7-0.6c-1,1.2-2,2.4-3,3.7c0-0.4-0.1-0.7-0.1-1.1
		c0.7-0.8,1.4-1.6,2.1-2.4c0.4-0.5-0.3-1.1-0.7-0.6c-0.5,0.5-0.9,1.1-1.4,1.6c0-0.3,0-0.7,0.1-1c0.8-1,1.5-2,2.3-2.9
		c0.4-0.5-0.3-1.1-0.7-0.6c-0.4,0.5-0.9,1.1-1.3,1.6c0.2-0.7,0.4-1.5,0.6-2.1c1-0.8,2.1-1.7,3.1-2.5c0.5-0.4-0.1-1.2-0.5-0.8
		c-0.6,0.5-1.1,0.9-1.7,1.4c1.7-3.1,4-4.2,7.4-5.2c7.2-2.1,15.8,1.7,20,7.7c0.5,0.7,0.9,1.4,1.3,2.1
		C552.6,579.8,552.5,587.7,548.5,592.9z"/>
	<path class="st1" d="M579.1,584.3c-0.7,0.2-1.1,0.7-1.6,1.2c-1,1.1-1.1,2.1-2.7,2.7c-1.2,0.4-2.6,0.5-3.8,0.2
		c-2.5-0.6-4.3-2.7-4.8-5.2c-0.7-3.5,1-7.7,4.6-8.8c1.7-0.5,3.4,0.2,5,0.7c4.4,1.3,8.1-3.7,7-7.7c-1.2-4.1-5.7-6.2-9.7-6.7
		c-9.8-1.2-16,5.7-16.5,15c-0.2,3,0.1,6.2,0.9,9.3c-0.1,0.2,0,0.4,0.2,0.5c0.1,0.5,0.3,1,0.5,1.6c-0.1,0.2,0,0.4,0.2,0.5
		c0.6,1.6,1.3,3.1,2.3,4.5c0,0.2,0.1,0.4,0.3,0.5c0.7,0.9,1.4,1.8,2.2,2.6c0.1,0.1,0.2,0.3,0.3,0.3c1.2,1.1,2.6,1.9,4.2,2.6
		c0.1,0.1,0.3,0.2,0.4,0.2c0.8,0.3,1.6,0.5,2.5,0.7c4,0.7,8.3-0.5,11.1-3.5c2.3-2.4,4.1-6.9,1.7-9.8
		C582.3,584.4,580.7,583.7,579.1,584.3z M577.5,596.5c0.5-0.6,0.9-1.3,1.4-1.9c0.4-0.5-0.4-1.2-0.7-0.6c-0.7,0.9-1.3,1.9-2,2.8
		c-0.1,0.1-0.1,0.2-0.1,0.4c-0.5,0.2-1.1,0.3-1.6,0.4c0.2-0.3,0.4-0.6,0.6-0.8c0.4-0.5-0.3-1.1-0.7-0.6c-0.4,0.5-0.8,1.1-1.3,1.6
		c-0.6,0-1.2,0-1.8-0.1c0.5-0.6,1.1-1.3,1.6-1.9c0.4-0.5-0.3-1.1-0.7-0.6c-0.7,0.8-1.3,1.5-2,2.3c0,0,0,0,0,0
		c-0.3-0.1-0.7-0.2-1-0.3c0.6-0.7,1.3-1.3,1.9-2c0.4-0.4-0.3-1.1-0.7-0.6c-0.7,0.8-1.5,1.5-2.2,2.3c-0.3-0.1-0.7-0.3-1-0.4
		c-0.2-0.1-0.3-0.2-0.5-0.3c0.5-0.5,1-1,1.5-1.5c0.5-0.4-0.3-1.1-0.7-0.6c-0.6,0.5-1.1,1.1-1.7,1.6c-0.4-0.3-0.9-0.6-1.3-0.9
		c0.7-0.7,1.4-1.4,2-2.1c0.4-0.5-0.3-1.1-0.7-0.6c-0.7,0.7-1.3,1.4-2,2.1c-0.3-0.3-0.6-0.6-0.9-0.9c0.2-0.3,0.5-0.5,0.7-0.8
		c0.4-0.5-0.3-1.1-0.7-0.6c-0.2,0.2-0.4,0.4-0.6,0.7c-0.1-0.2-0.3-0.3-0.4-0.4c0.3-0.3,0.6-0.6,0.9-0.9c0.4-0.4-0.3-1.1-0.7-0.6
		c-0.2,0.2-0.5,0.5-0.7,0.7c-0.2-0.3-0.4-0.6-0.5-0.9c0.3-0.4,0.7-0.9,1-1.3c0.4-0.5-0.3-1.1-0.7-0.6c-0.3,0.3-0.6,0.7-0.8,1.1
		c-0.1-0.1-0.1-0.3-0.2-0.4c0.7-0.7,1.4-1.4,2-2.1c0.4-0.4-0.3-1.1-0.7-0.6c-0.6,0.6-1.1,1.2-1.7,1.7c-0.1-0.3-0.3-0.6-0.4-1
		c0.7-0.8,1.3-1.5,2-2.3c0.4-0.5-0.3-1.1-0.7-0.6c-0.5,0.6-1.1,1.2-1.6,1.8c-0.1-0.3-0.2-0.6-0.3-1c0.5-0.6,1.1-1.2,1.6-1.9
		c0.4-0.5-0.3-1.1-0.7-0.6c-0.4,0.4-0.8,0.9-1.2,1.3c-0.1-0.4-0.2-0.8-0.3-1.3c0.6-0.7,1.2-1.4,1.8-2.1c0.4-0.5-0.3-1.1-0.7-0.6
		c-0.4,0.5-0.8,1-1.2,1.5c-0.1-0.5-0.1-0.9-0.1-1.4c0,0,0-0.1,0-0.1c0.6-0.7,1.3-1.4,1.9-2c0.4-0.5-0.3-1.1-0.7-0.6
		c-0.4,0.4-0.8,0.9-1.2,1.3c0-0.5,0-1,0-1.5c1.1-1,2.2-2,3.3-3c0.5-0.4-0.3-1.1-0.7-0.6c-0.8,0.7-1.7,1.5-2.5,2.2
		c0-0.3,0.1-0.6,0.1-0.9c1.4-1.3,2.7-2.6,4.1-3.9c0.5-0.4-0.3-1.1-0.7-0.6c-1,1-2,2-3.1,2.9c0.1-0.5,0.2-1,0.4-1.5
		c1-0.9,2.1-1.9,3.1-2.8c0.5-0.4-0.3-1.1-0.7-0.6c-0.5,0.5-1.1,1-1.6,1.5c0.3-0.7,0.7-1.4,1.1-2c0,0,0,0,0.1,0
		c1-0.9,2.1-1.7,3.1-2.6c0.2-0.2,0.2-0.4,0.2-0.6c0.7-0.4,1.4-0.8,2.3-1.1c2.6-0.9,5.4-1.1,8.1-0.5c4.8,1,11.1,7.8,4.3,11.2
		c-0.1-0.1-0.2-0.1-0.4-0.1c-0.1,0-0.3,0-0.4,0c0.6-0.7,1.2-1.5,1.9-2.2c0.4-0.5-0.3-1.1-0.7-0.6c-0.8,0.9-1.6,1.9-2.4,2.8
		c-0.3,0-0.6-0.1-0.9-0.2c0.7-0.8,1.4-1.5,2.1-2.3c0.4-0.5-0.3-1.1-0.7-0.6c-0.8,0.9-1.6,1.7-2.4,2.6c-0.3-0.1-0.5-0.2-0.8-0.2
		c0.6-0.9,1.2-1.8,1.8-2.7c0.3-0.5-0.4-1.2-0.7-0.6c-0.6,0.9-1.2,1.8-1.8,2.7c-0.1,0.1-0.1,0.3-0.1,0.4c-0.4-0.1-0.8-0.2-1.3-0.2
		c0.5-0.5,1-1,1.4-1.5c0.4-0.4-0.3-1.1-0.7-0.6c-0.7,0.8-1.5,1.5-2.2,2.3c-0.6,0.2-1.2,0.4-1.8,0.9c-2.8,2-4.4,5.7-3.8,9.1
		c0.5,3.2,2.8,6.2,5.8,7.3c1.5,0.6,3.3,0.8,4.8,0.1c1.7-0.7,2.1-2.7,3.6-3.7c1.7-1.1,3.5-0.7,4.1,1.2
		C584.1,591.2,580.4,594.9,577.5,596.5z"/>
	<path class="st1" d="M598.4,564.1c-3.6-3.9-10.2-6.4-12.9-0.3c-1.8,4.1,0.2,10.3,0.8,14.5c0.6,4.5,0.6,9.9,2.9,14
		c1.5,2.7,4.3,4.9,7.5,4.6c3.4-0.3,5.1-3.3,6.1-6.2c2.8-8.2,1.4-17-2.7-24.4C599.5,565.5,599,564.8,598.4,564.1z M600.9,591.1
		c-0.8,1.9-1.8,3.7-3.9,4.2c0.5-0.6,1-1.1,1.5-1.7c0.4-0.5-0.3-1.1-0.7-0.6c-0.7,0.8-1.4,1.6-2.1,2.4c-0.2,0-0.4,0-0.6,0
		c-0.3,0-0.6-0.1-0.8-0.2c0.6-0.7,1.2-1.4,1.8-2c0.4-0.5-0.3-1.1-0.7-0.6c-0.7,0.7-1.3,1.5-2,2.2c-0.4-0.3-0.8-0.6-1.2-1
		c0.6-0.5,1.1-1,1.7-1.6c0.5-0.4-0.3-1.1-0.7-0.6c-0.5,0.5-1.1,1-1.6,1.5c-0.2-0.3-0.4-0.5-0.6-0.8c0.8-0.9,1.7-1.9,2.5-2.8
		c0.4-0.5-0.3-1.1-0.7-0.6c-0.8,0.9-1.5,1.7-2.3,2.6c-0.1-0.3-0.3-0.6-0.4-0.9c0,0,0,0,0,0c0.8-0.8,1.7-1.7,2.5-2.5
		c0.4-0.4-0.3-1.1-0.7-0.6c-0.7,0.7-1.4,1.4-2.1,2.1c-0.1-0.4-0.3-0.7-0.4-1.1c1-1.1,1.9-2.2,2.9-3.3c0.4-0.5-0.3-1.1-0.7-0.6
		c-0.8,0.9-1.6,1.9-2.5,2.8c0-0.1-0.1-0.2-0.1-0.3c0.7-1,1.4-2,2.2-3c0.4-0.5-0.4-1.1-0.7-0.6c-0.6,0.8-1.1,1.5-1.7,2.3
		c-0.1-0.6-0.2-1.3-0.3-2c0.7-0.9,1.5-1.7,2.2-2.6c0.4-0.5-0.3-1.1-0.7-0.6c-0.5,0.6-1.1,1.3-1.6,1.9c-0.1-0.7-0.2-1.5-0.2-2.2
		c0.1,0,0.2-0.1,0.3-0.2c0.8-1,1.7-2.1,2.5-3.1c0.4-0.5-0.3-1.1-0.7-0.6c-0.7,0.9-1.5,1.8-2.2,2.8c0-0.5-0.1-0.9-0.1-1.3
		c0.8-0.9,1.6-1.8,2.3-2.7c0.4-0.5-0.3-1.1-0.7-0.6c-0.6,0.7-1.2,1.3-1.7,2c0-0.5-0.1-1-0.2-1.5c0.7-0.8,1.4-1.5,2-2.3
		c0.4-0.5-0.3-1.1-0.7-0.6c-0.5,0.6-1,1.1-1.4,1.7c0-0.2-0.1-0.5-0.1-0.8c0.5-0.7,1-1.3,1.5-2c0.4-0.5-0.4-1.1-0.7-0.6
		c-0.3,0.4-0.7,0.9-1,1.3c-0.1-0.4-0.1-0.8-0.2-1.2c0,0,0.1,0,0.1-0.1c0.7-0.9,1.3-1.9,2-2.8c0.4-0.5-0.4-1.2-0.7-0.6
		c-0.5,0.7-1,1.4-1.5,2.1c0-0.5-0.1-1-0.1-1.5c0.8-1,1.6-2.1,2.4-3.1c0.4-0.5-0.3-1.1-0.7-0.6c-0.5,0.6-1,1.3-1.5,1.9
		c0.2-1.2,0.8-2.2,1.8-3.1c3.8-3.2,7.8,0.7,9.8,4c2.8,4.5,4.4,10.2,4.3,15.5C602.5,584.9,602.1,588.3,600.9,591.1z"/>
	<path class="st1" d="M588.6,545.3c-3.6,0.4-6.2,4-6.4,7.3c-0.3,3.5,1.7,6.8,5.5,6.7c3.7-0.1,6.9-3.1,7-6.9
		C594.8,549.5,592,544.9,588.6,545.3z M593.2,551.7c0.3,3-1.9,5.6-4.7,6.1c-0.3,0.1-0.6,0.1-0.8,0.1c0.6-0.5,1.1-1,1.7-1.6
		c0.5-0.4-0.3-1.1-0.7-0.6c-0.7,0.7-1.5,1.3-2.2,2c0,0,0,0-0.1,0.1c-0.3-0.1-0.5-0.2-0.7-0.3c0.8-0.8,1.5-1.6,2.3-2.4
		c0.4-0.4-0.3-1.1-0.7-0.6c-0.8,0.8-1.6,1.6-2.4,2.4c-0.1-0.1-0.3-0.3-0.4-0.5c0.7-0.6,1.4-1.3,2.1-1.9c0.5-0.4-0.3-1.1-0.7-0.6
		c-0.6,0.6-1.2,1.1-1.9,1.7c-0.1-0.2-0.1-0.3-0.2-0.5c0.9-1.1,1.8-2.1,2.7-3.2c0.4-0.5-0.3-1.1-0.7-0.6c-0.8,0.9-1.5,1.8-2.3,2.6
		c-0.1-0.5-0.1-1,0-1.5c0.7-0.8,1.4-1.7,2.1-2.5c0.4-0.5-0.3-1.1-0.7-0.6c-0.3,0.4-0.6,0.7-0.9,1.1c0.7-1.9,2.2-3.5,4.5-3.5
		C590.8,547.5,593,548.9,593.2,551.7z"/>
	<path class="st1" d="M608.6,593c0.4,0.3,0.8,0.7,1.2,1c0.1,0.1,0.2,0.2,0.3,0.2c4.7,3.2,11.4,3.1,15.6-1.7
		c2.9,3.7,9.1,3.5,11.5-0.8c0.1-0.2,0.1-0.5,0-0.6c0-0.2-0.1-0.4-0.4-0.5c-0.4-0.1-0.8-0.1-1.2,0c-11.3-1.9-4.6-18.6-8.5-25.9
		c-2.9-5.5-9.1-8.5-15.3-7.2c-4,0.8-9.4,3.8-7.8,8.7c0.6,1.8,2.1,3.3,4,3.8c1.1,0.3,2.2,0.1,3.3-0.1c3.8-0.8,6.9-1.4,9.8,1.4
		c0,0.1,0,0.2,0.1,0.3c0.1,0.1,0.1,0.2,0.2,0.3c-8.9-2.6-18,4.9-16.4,14.6c0.4,2.5,1.6,4.7,3.2,6.3C608.3,592.8,608.4,593,608.6,593
		z M607.5,589.5C607.6,589.4,607.6,589.4,607.5,589.5c0.4-0.5,0.8-1.1,1.1-1.6c0.4-0.5-0.4-1.1-0.7-0.6c-0.3,0.4-0.6,0.8-0.9,1.2
		c-0.2-0.6-0.4-1.3-0.6-2c0.5-0.4,0.9-0.8,1.4-1.2c0.5-0.4-0.1-1.2-0.5-0.8c-0.3,0.3-0.7,0.6-1,0.9c0-0.1,0-0.2,0-0.2
		c0-0.5,0-1,0-1.5c0.5-0.5,1-1,1.5-1.5c0.4-0.4-0.3-1.1-0.7-0.6c-0.2,0.2-0.4,0.4-0.6,0.6c1.2-7.4,9.2-11.2,16.4-8.4
		c0.7,0.3,0.8,0,0.8-0.5c0.4-0.3,0.9-0.7,1.3-1c0.5-0.4,0-1.2-0.5-0.8c-0.3,0.3-0.7,0.5-1,0.8c-0.1-0.3-0.3-0.6-0.4-0.9
		c0.4-0.3,0.7-0.6,1.1-0.9c0.5-0.4-0.1-1.2-0.5-0.8c-0.4,0.3-0.7,0.6-1.1,0.9c-0.3-0.4-0.7-0.8-1.1-1.1c0.3-0.3,0.7-0.6,1-0.8
		c0.5-0.4-0.1-1.2-0.5-0.8c-0.3,0.3-0.7,0.6-1,0.9c-0.1,0.1-0.2,0.2-0.2,0.3c-0.2-0.1-0.4-0.2-0.6-0.3c0.5-0.5,0.9-1,1.4-1.5
		c0.4-0.5-0.3-1.1-0.7-0.6c-0.5,0.6-1.1,1.2-1.6,1.8c-0.5-0.1-1-0.3-1.6-0.3c0.7-0.7,1.4-1.4,2.1-2c0.4-0.4-0.3-1.1-0.7-0.6
		c-0.7,0.7-1.4,1.4-2.1,2.1c-0.2,0.2-0.2,0.4-0.1,0.5c-0.6,0-1.2,0-1.8,0c0.7-0.7,1.4-1.4,2.1-2.1c0.4-0.4-0.3-1.1-0.7-0.6
		c-0.9,1-1.9,1.9-2.8,2.9c0,0,0,0,0,0c-0.3,0-0.5,0.1-0.8,0.1c0.8-0.9,1.6-1.8,2.3-2.6c0.4-0.5-0.3-1.1-0.7-0.6c-1,1.2-2,2.3-3,3.5
		c-0.5,0-1,0-1.6,0c0.8-0.9,1.6-1.7,2.4-2.6c0.4-0.5-0.3-1.1-0.7-0.6c-0.9,1-1.9,2-2.8,3.1c-0.4-0.1-0.7-0.2-1.1-0.4
		c0.9-0.9,1.9-1.8,2.8-2.7c0.5-0.4-0.3-1.1-0.7-0.6c-1,0.9-2,1.9-2.9,2.8c-0.2-0.2-0.5-0.4-0.6-0.6c0.6-0.7,1.2-1.4,1.8-2.1
		c0.4-0.5-0.3-1.1-0.7-0.6c-0.5,0.6-1,1.2-1.5,1.8c-0.1-0.3-0.1-0.6-0.1-0.9c0.5-0.6,1.1-1.1,1.6-1.7c0.4-0.5-0.3-1.1-0.7-0.6
		c-0.2,0.2-0.4,0.4-0.5,0.6c0.9-2,3.7-3.3,5.5-3.9c3.8-1.2,8-0.5,11.2,1.8c7.5,5.5,4.2,14,5.5,21.7c0.7,4.2,3.1,7.8,7.3,8.6
		c0.1,0.1,0.2,0.2,0.3,0.2c0.1,0,0.2,0,0.4,0c-1.4,1.3-3,1.9-4.5,1.9c0.2-0.2,0.5-0.4,0.7-0.6c0.5-0.4-0.1-1.2-0.5-0.8
		c-0.5,0.4-1,0.8-1.5,1.2c-0.4-0.1-0.8-0.2-1.2-0.4c0.4-0.4,0.8-0.8,1.2-1.1c0.5-0.4-0.3-1.1-0.7-0.6c-0.5,0.4-0.9,0.9-1.4,1.3
		c-0.2-0.1-0.3-0.2-0.5-0.3c0.1-0.7,0.3-1.1,0.9-1.5c0.5-0.3,0-1.1-0.5-0.8c-0.6,0.4-1,0.9-1.2,1.6c-0.1-0.2-0.2-0.3-0.4-0.4
		c0,0,0,0-0.1-0.1c-0.1-0.1-0.2-0.1-0.3-0.1c0.1-0.2,0.2-0.3,0.3-0.5c0.3-0.5-0.5-1-0.9-0.4c-0.7,1-1.4,2.1-2.1,3.1
		c-0.4,0.3-0.9,0.5-1.3,0.7c0.5-0.6,1-1.2,1.4-1.8c0.4-0.5-0.3-1.1-0.7-0.6c-0.8,1-1.7,2-2.5,3c-0.7,0.2-1.4,0.3-2.1,0.4
		c0.8-0.9,1.6-1.7,2.4-2.6c0.4-0.5-0.3-1.1-0.7-0.6c-1,1.1-2,2.2-3,3.3c-0.4,0-0.9,0-1.3-0.1c1-1,1.9-2,2.9-2.9
		c0.4-0.4-0.3-1.1-0.7-0.6c-1.1,1.1-2.2,2.2-3.2,3.3c-0.3-0.1-0.6-0.2-0.9-0.3c0.5-0.6,0.9-1.2,1.4-1.9c0.4-0.5-0.4-1.1-0.7-0.6
		c-0.5,0.7-1.1,1.4-1.6,2.1c-0.2-0.1-0.4-0.2-0.7-0.4c0.2-0.2,0.5-0.3,0.7-0.5c0.5-0.4,0-1.2-0.5-0.8c-0.3,0.2-0.7,0.5-1,0.7
		c-0.3-0.2-0.6-0.4-0.8-0.6c0.5-0.5,0.9-1,1.4-1.5c0.4-0.5-0.3-1.1-0.7-0.6c-0.4,0.5-0.9,1-1.3,1.4c-0.2-0.2-0.3-0.3-0.4-0.5
		c0.3-0.3,0.7-0.7,1-1c0.4-0.4-0.3-1.1-0.7-0.6c-0.3,0.3-0.5,0.6-0.8,0.8C607.8,590,607.7,589.7,607.5,589.5z"/>
	<path class="st1" d="M634.2,549.3c1.6,6.7,2.3,13.4,2.7,20.3c0.3,5.5,0.4,11.5,2.4,16.7c1.3,3.4,4.5,6.9,8.3,7.5
		c2.5,0.4,4.8-0.5,6.4-2.6c1.7-2.4,0-5.5-0.6-8.1c-1.6-7.1-3-14.4-3.7-21.6c-0.8-7.5-0.4-16.2-5.1-22.6c-2.4-3.3-7.3-6.1-10.2-1.7
		c-2.1,3.2-1.6,7.8-0.1,11.8C634.2,549.1,634.1,549.2,634.2,549.3z M634.7,541.1c0.8-4.1,5.8-4.9,8.2-1.9c4,4.9,4.3,11.7,4.8,17.7
		c0.5,6.4,1.3,12.8,2.5,19.2c0.6,3.2,1.2,6.5,2.1,9.6c0.4,1.3,0.9,2.8,0.5,4c-0.2,0.6-0.6,1.2-1.3,1.7c-0.8,0.6-1.6,0.9-2.5,0.9
		c0.1-0.1,0.2-0.3,0.3-0.4c0.4-0.5-0.3-1.1-0.7-0.6c-0.3,0.3-0.6,0.7-0.9,1c-0.2,0-0.3,0-0.5-0.1c-0.2-0.1-0.5-0.1-0.7-0.2
		c0.5-0.5,1-1.1,1.5-1.6c0.4-0.5-0.3-1.1-0.7-0.6c-0.6,0.6-1.1,1.3-1.7,1.9c-0.5-0.3-1-0.6-1.5-0.9c0.7-0.6,1.4-1.2,2.1-1.8
		c0.5-0.4-0.1-1.2-0.5-0.8c-0.8,0.7-1.5,1.3-2.3,2c-0.4-0.4-0.8-0.8-1.1-1.2c0.6-0.4,1.2-0.9,1.8-1.3c0.5-0.4,0-1.2-0.5-0.8
		c-0.6,0.4-1.2,0.9-1.8,1.3c-0.3-0.4-0.5-0.8-0.7-1.3c0.5-0.5,1-1,1.5-1.4c0.5-0.4-0.3-1.1-0.7-0.6c-0.4,0.4-0.8,0.8-1.2,1.1
		c-0.2-0.4-0.3-0.9-0.4-1.3c0.6-0.6,1.1-1.3,1.7-1.9c0.4-0.5-0.3-1.1-0.7-0.6c-0.4,0.5-0.9,1-1.3,1.5c-0.1-0.6-0.3-1.1-0.4-1.7
		c0.5-0.5,0.9-0.9,1.4-1.4c0.4-0.4-0.3-1.1-0.7-0.6c-0.3,0.3-0.6,0.6-0.9,0.9c-0.1-0.6-0.2-1.2-0.3-1.8c0,0,0.1,0,0.1-0.1
		c0.8-0.8,1.5-1.5,2.3-2.3c0.4-0.4-0.3-1.1-0.7-0.6c-0.6,0.6-1.2,1.2-1.8,1.8c-0.1-0.5-0.1-1.1-0.1-1.6c0.8-0.7,1.6-1.5,2.4-2.2
		c0.5-0.4-0.3-1.1-0.7-0.6c-0.6,0.5-1.2,1.1-1.8,1.6c0-0.3,0-0.5-0.1-0.8c0,0,0,0,0,0c0.5-0.6,1.1-1.2,1.6-1.7
		c0.4-0.5-0.3-1.1-0.7-0.6c-0.3,0.4-0.7,0.7-1,1.1c0,0,0,0,0,0c0-0.3,0-0.6-0.1-0.9c0.1,0,0.3,0,0.4-0.2c0.6-0.7,1.2-1.4,1.8-2.1
		c0.4-0.5-0.3-1.1-0.7-0.6c-0.5,0.6-1,1.2-1.5,1.8c-0.1-0.8-0.1-1.7-0.2-2.5c0.1,0,0.1-0.1,0.1-0.1c0.7-0.8,1.4-1.6,2.1-2.5
		c0.4-0.5-0.3-1.1-0.7-0.6c-0.5,0.6-1.1,1.3-1.6,1.9c0-0.8-0.1-1.6-0.2-2.3c0.5-0.5,0.9-1,1.4-1.6c0.4-0.5-0.3-1.1-0.7-0.6
		c-0.2,0.3-0.5,0.6-0.7,0.8c0-0.6-0.1-1.2-0.2-1.8c0.5-0.6,1.1-1.2,1.6-1.7c0.4-0.5-0.3-1.1-0.7-0.6c-0.3,0.4-0.7,0.7-1,1.1
		c-0.3-2.2-0.6-4.3-1.1-6.5c0.5,0.8,1,1.6,1.4,2.2c0.3,0.4,1,0,0.7-0.5c-0.1-0.2-0.2-0.5-0.4-0.7c0.5-0.5,0.9-1,1.4-1.5
		c0.4-0.5-0.3-1.1-0.7-0.6c-0.4,0.4-0.8,0.8-1.2,1.2c-0.2-0.3-0.4-0.7-0.5-1c0,0,0.1,0,0.1-0.1c0.4-0.4,0.8-0.8,1.1-1.2
		c0.4-0.4-0.3-1.1-0.7-0.6c-0.3,0.3-0.6,0.6-0.9,0.9c-0.3-0.7-0.6-1.4-0.8-2.1c0.5-0.5,1-0.9,1.5-1.4c0.5-0.4-0.3-1.1-0.7-0.6
		c-0.4,0.3-0.7,0.7-1.1,1c-0.1-0.5-0.3-1-0.4-1.5c0.4-0.6,0.8-1.1,1.1-1.7c0.3-0.5-0.5-0.9-0.9-0.4c-0.2,0.3-0.4,0.5-0.5,0.8
		c0-0.2-0.1-0.3-0.1-0.5c0-0.3-0.1-0.5-0.1-0.8c0,0,0,0,0,0c0.5-0.5,1-1.1,1.5-1.6c0.4-0.5-0.3-1.1-0.7-0.6c-0.3,0.3-0.6,0.6-0.9,1
		C634.6,542.4,634.6,541.7,634.7,541.1z"/>
	<path class="st1" d="M546,579.6c-0.5,0.5-0.9,1.1-1.4,1.6c0-0.1,0-0.1,0-0.2c0-0.4-0.1-0.8-0.2-1.1c0.6-0.7,1.2-1.4,1.8-2.1
		c0.4-0.5-0.3-1.1-0.7-0.6c-0.5,0.5-0.9,1-1.4,1.5c-0.1-0.5-0.3-1-0.5-1.5c0.6-0.6,1.1-1.1,1.7-1.7c0.4-0.5-0.3-1.1-0.7-0.6
		c-0.5,0.5-0.9,0.9-1.4,1.4c-0.2-0.4-0.4-0.8-0.7-1.1c0.4-0.4,0.8-0.9,1.2-1.3c0.4-0.5-0.3-1.1-0.7-0.6c-0.4,0.4-0.7,0.8-1.1,1.1
		c-0.2-0.3-0.5-0.5-0.7-0.8c0.5-0.5,1-1,1.6-1.5c0.5-0.4-0.3-1.1-0.7-0.6c-0.5,0.5-1,1-1.5,1.5c-0.3-0.3-0.6-0.5-0.9-0.8
		c0.5-0.4,0.9-0.7,1.4-1.1c0.5-0.4,0-1.2-0.5-0.8c-0.6,0.4-1.1,0.9-1.7,1.3c-0.1-0.1-0.2-0.2-0.3-0.2c-0.3-0.2-0.5-0.3-0.8-0.5
		c0.3-0.2,0.6-0.5,1-0.7c0.5-0.4,0-1.2-0.5-0.8c-0.4,0.3-0.9,0.7-1.3,1c-0.2-0.1-0.4-0.2-0.6-0.2c0.2-0.2,0.4-0.4,0.6-0.6
		c0.4-0.5-0.3-1.1-0.7-0.6c-0.3,0.3-0.6,0.7-1,1c0,0,0,0,0,0c-0.4,0-0.9,0.1-1.4,0.3c0.3-0.3,0.6-0.7,0.9-1c0.4-0.5-0.3-1.1-0.7-0.6
		c-0.8,1-1.7,2-2.5,3c-0.1,0.1-0.1,0.3-0.1,0.4c-0.8,0.8-1.5,1.7-1.9,2.7c-1,2.2-1.1,4.8-0.7,7.1c0.8,4.6,4.1,9.4,9.1,9.4
		c1.9,0,3.3-0.7,4.4-1.9c0.2,0.1,0.4,0.1,0.6-0.1c1.1-1.2,2.2-2.4,3.2-3.5c0.4-0.5-0.3-1.1-0.7-0.6c-0.5,0.6-1,1.1-1.5,1.7
		c0.2-0.5,0.4-1,0.5-1.6c0.8-0.9,1.5-1.7,2.3-2.6c0.4-0.5-0.3-1.1-0.7-0.6c-0.4,0.5-0.8,0.9-1.2,1.4c0-0.1,0-0.3,0-0.4
		c0.7-0.8,1.4-1.7,2.1-2.5C547.1,579.7,546.4,579.1,546,579.6z M539.9,588.6c-4.6,2-8.2-2.2-9.4-6.2c-0.9-2.9-0.7-7.1,1.2-9.5
		c3.1-3.9,7.9,0,9.8,3.1c0.3,0.4,0.5,0.9,0.7,1.4c0,0.1,0.1,0.2,0.1,0.3C544.1,581.5,544,586.8,539.9,588.6z"/>
	<path class="st1" d="M615.6,589.5c3.4,1,7.1-0.8,8.5-4c0.7-0.6,1.3-1.3,2-1.9c0.5-0.4-0.3-1.1-0.7-0.6c-0.3,0.3-0.6,0.6-0.9,0.8
		c0.1-0.6,0.2-1.2,0.2-1.8c0.5-0.4,0.9-0.8,1.4-1.3c0.5-0.4-0.3-1.1-0.7-0.6c-0.3,0.3-0.5,0.5-0.8,0.8c-0.1-0.4-0.2-0.7-0.4-1.1
		c0.5-0.5,0.9-1,1.4-1.5c0.4-0.5-0.3-1.1-0.7-0.6c-0.4,0.4-0.7,0.8-1.1,1.2c-0.2-0.4-0.5-0.7-0.8-1c0.5-0.4,0.9-0.7,1.4-1.1
		c0.5-0.4-0.1-1.2-0.5-0.8c-0.5,0.4-1,0.8-1.5,1.2c-0.3-0.2-0.5-0.4-0.8-0.5c0.3-0.4,0.7-0.7,1-1.1c0.4-0.4-0.3-1.1-0.7-0.6
		c-0.4,0.4-0.8,0.9-1.2,1.3c0,0,0,0,0,0c-0.7-0.2-1.3-0.3-2-0.3c0.1-0.1,0.1-0.2,0.2-0.2c0.4-0.5-0.3-1.1-0.7-0.6
		c-0.3,0.3-0.6,0.7-0.9,1.1c-2.3,0.5-4.3,2.2-5.2,4.4C610,584.1,611.7,588.4,615.6,589.5z M613.2,580.6c1.1-2.1,3.6-3.5,6-3.1
		c2.4,0.5,3.7,2.3,4.1,4.5c-0.1,0.2-0.1,0.3,0.1,0.4c0.1,0.6,0.1,1.2,0,1.8c-0.1,0-0.1,0.1-0.2,0.2c-1.3,2.5-3.6,4.4-6.6,3.8
		C613.1,587.5,611.5,583.7,613.2,580.6z"/>
	<path class="st1" d="M595.2,566.1c4.3,6.9,5.9,15,4.3,23c-0.1,0.6,0.8,0.8,1,0.2c1.6-8.2,0-16.7-4.5-23.8
		C595.7,565,594.9,565.5,595.2,566.1z"/>
	<path class="st1" d="M506.8,589.4c2.8-6.3,1.9-13.6-2.5-18.9c-0.4-0.5-1.2,0.1-0.8,0.5c4.2,5,5.1,12,2.4,17.9
		C505.7,589.6,506.6,590,506.8,589.4z"/>
	<path class="st1" d="M650.1,583.6c0.3,0.6,1.2,0.3,0.9-0.3c-5.7-12.7-3.1-27.2-7.3-40.3c-0.2-0.6-1.1-0.3-0.9,0.3
		C647,556.4,644.4,570.8,650.1,583.6z"/>
	<path class="st1" d="M609.7,560.6c-0.6,0.3-0.3,1.2,0.3,0.9c4-1.8,8.6-0.9,11.7,2.1c0.4,0.4,1.1-0.3,0.6-0.7
		C619,559.7,614,558.7,609.7,560.6z"/>
	<path class="st1" d="M566,565.3c4.6-2.4,9.7-1.5,13.2,2.2c0.4,0.5,1.1-0.3,0.6-0.7c-3.8-4.1-9.5-4.9-14.4-2.3
		C564.9,564.8,565.4,565.6,566,565.3z"/>
	<path class="st1" d="M471.9,535.8c8.1-5.9,19.3-3.5,24.1,5.2c0.3,0.5,1.1,0,0.8-0.5c-5.1-9.2-17-11.7-25.5-5.5
		C470.9,535.4,471.4,536.2,471.9,535.8z"/>
</g>
</svg>
