<?xml version="1.0" encoding="utf-8"?>
<!-- Generator: Adobe Illustrator 21.0.0, SVG Export Plug-In . SVG Version: 6.00 Build 0)  -->
<svg version="1.1" id="Layer_1" xmlns="http://www.w3.org/2000/svg" xmlns:xlink="http://www.w3.org/1999/xlink" x="0px" y="0px"
	 viewBox="0 0 1059.1 960.2" style="enable-background:new 0 0 1059.1 960.2;" xml:space="preserve">
<style type="text/css">
	.st0{opacity:3.000000e-02;}
	.st1{fill:#565656;}
</style>
<g class="st0">
	<path class="st1" d="M425.7,374.5c5.3-4.9,10.6-9.8,15.8-14.8c0.1,0.1,0.2,0.1,0.3,0.1c9.9-1,19.6-2.7,29.1-5.4
		c8.3-2.3,16.6-5.3,23.6-10.5c13.1-9.7,18.9-27.4,9.8-41.9c-9.2-14.6-27.9-16.9-43.6-14.1c-15.7,2.9-30.1,11.8-38.2,25.8
		c-2.3,3.9-4.1,8.8-5.1,13.8c-0.1,0.1-0.1,0.2-0.1,0.3c-0.2,1.2-0.4,2.3-0.5,3.5c-0.2,0.1-0.1,0.3-0.1,0.4
		c-1.1,10.7,2.1,21.3,13.3,25.2c-2.2,5.6-3.8,11.4-5.6,17C424.1,374.6,425.2,374.9,425.7,374.5z M428.1,366.8
		c0.1,0.1,0.3,0.1,0.5-0.1c1.9-1.9,3.9-3.8,5.8-5.7c0.4-0.4-0.2-0.9-0.6-0.5c-1.8,1.7-3.5,3.5-5.3,5.2c0.3-0.8,0.5-1.7,0.7-2.5
		c2.1-1.9,4.2-3.8,6.3-5.7c0.4-0.4-0.2-0.9-0.6-0.5c-1.7,1.6-3.5,3.2-5.2,4.8c0.1-0.5,0.2-0.9,0.4-1.4c1.8-1.7,3.5-3.5,5.2-5.2
		c0.4-0.4-0.3-0.9-0.6-0.5c-1.4,1.4-2.8,2.8-4.2,4.2c0.1-0.5,0.3-1.1,0.4-1.6c0,0,0,0,0,0c0.8,0.1,1-1.2,0.3-1.6
		c1.3-1.2,2.6-2.5,3.9-3.7c0.4-0.4-0.2-0.9-0.6-0.5c-1.4,1.3-2.7,2.6-4.1,4c-0.4-0.1-0.7-0.3-1.1-0.4c1.7-1.6,3.3-3.2,5-4.8
		c0.4-0.4-0.2-0.9-0.6-0.5c-1.7,1.7-3.4,3.3-5.2,5c-0.8-0.4-1.5-0.8-2.2-1.3c2.1-1.8,4.1-3.5,6.2-5.3c0.4-0.3-0.1-1-0.5-0.7
		c-2.1,1.8-4.3,3.7-6.4,5.5c-0.7-0.5-1.3-1.1-1.9-1.7c2.5-1.9,4.9-3.9,7.4-5.8c0.4-0.3,0-1-0.5-0.7c-2.5,2-5,3.9-7.5,5.9
		c-0.5-0.6-1-1.2-1.5-1.9c2.6-2.1,5.1-4.3,7.7-6.4c0.4-0.3-0.1-1-0.5-0.7c-2.5,2.1-5.1,4.3-7.6,6.4c-0.5-0.8-0.9-1.6-1.2-2.5
		c3.3-2.5,6.6-5,10-7.5c0.4-0.3,0-1-0.5-0.7c-3.3,2.5-6.5,4.9-9.8,7.4c-0.2-0.6-0.4-1.1-0.5-1.7c2.6-2.2,5.3-4.4,7.9-6.5
		c0.4-0.3-0.1-1-0.5-0.7c-2.6,2.1-5.1,4.2-7.7,6.3c-0.1-0.7-0.3-1.3-0.4-2c2.6-2.4,5.1-4.7,7.7-7.1c0.4-0.4-0.2-0.9-0.6-0.5
		c-2.4,2.2-4.8,4.4-7.2,6.7c-0.1-0.6-0.1-1.3-0.1-1.9c2.9-2.8,5.8-5.6,8.6-8.4c0.4-0.4-0.2-0.9-0.6-0.5c-2.7,2.6-5.4,5.2-8,7.8
		c0-0.7,0-1.4,0-2c3.1-2.9,6.2-5.7,9.3-8.6c0.4-0.4-0.2-0.9-0.6-0.5c-2.9,2.6-5.7,5.3-8.6,7.9c0-0.6,0.1-1.1,0.2-1.7
		c3.1-2.9,6.2-5.7,9.3-8.6c0.4-0.4-0.2-0.9-0.6-0.5c-2.8,2.6-5.6,5.2-8.5,7.8c0.1-0.8,0.3-1.7,0.5-2.5c2.1-1.8,4.1-3.5,6.2-5.3
		c0.4-0.3-0.1-1-0.5-0.7c-1.8,1.5-3.6,3.1-5.4,4.6c0.5-1.8,1-3.6,1.7-5.2c1.6-1.3,3.3-2.7,4.9-4c0.4-0.3-0.1-1-0.5-0.7
		c-1.3,1-2.5,2.1-3.8,3.1c0.6-1.4,1.2-2.7,1.9-3.9c2.3-1.4,4.5-2.9,6.8-4.3c0.5-0.3,0-1-0.5-0.7c-1.8,1.1-3.6,2.3-5.3,3.4
		c7.5-12.2,20.2-20.3,34.2-23.4c13.1-2.9,29.3-2.3,39.6,7.1c-2.4,2.1-4.8,4.2-7.2,6.2c-0.4,0.3,0.1,1,0.5,0.7
		c2.4-2.1,4.9-4.2,7.3-6.4c0.2,0.2,0.4,0.4,0.5,0.5c-0.1,0-0.2,0-0.3,0.1c-2.9,2.5-5.8,5-8.7,7.5c-0.4,0.3,0.1,1,0.5,0.7
		c2.9-2.5,5.8-5,8.7-7.5c0.1-0.1,0.2-0.3,0.1-0.4c0.5,0.5,0.9,1,1.4,1.6c-2.9,2.6-5.8,5.1-8.8,7.7c-0.4,0.3,0.1,1,0.5,0.7
		c2.9-2.6,5.9-5.1,8.8-7.7c0.1,0.1,0.1,0.2,0.2,0.2c0.6,0.8,1.1,1.6,1.6,2.4c-3.4,2.6-6.8,5.3-10.2,7.9c-0.4,0.3,0,1,0.5,0.7
		c3.4-2.6,6.8-5.2,10.2-7.8c0.4,0.7,0.7,1.4,1.1,2.1c-0.1,0-0.2,0-0.2,0.1c-2.8,2.1-5.7,4.3-8.5,6.4c-0.4,0.3,0,1,0.5,0.7
		c2.8-2.1,5.7-4.3,8.5-6.4c0,0,0,0,0.1-0.1c0.2,0.6,0.5,1.2,0.7,1.8c-0.1,0-0.2,0-0.3,0.1c-2.5,2.1-5,4.2-7.6,6.3
		c-0.4,0.3,0.1,1,0.5,0.7c2.5-2.1,5-4.2,7.6-6.3c0,0,0-0.1,0.1-0.1c0.3,0.9,0.5,1.9,0.7,2.8c-0.1-0.2-0.4-0.4-0.6-0.2
		c-2.6,1.9-5.2,3.7-7.9,5.6c-0.4,0.3,0,1,0.5,0.7c2.6-1.9,5.2-3.7,7.9-5.6c0.1-0.1,0.2-0.2,0.2-0.3c0.1,0.8,0.3,1.6,0.3,2.5
		c-0.1,0-0.2,0-0.2,0.1c-2.1,1.9-4.2,3.7-6.3,5.6c-0.4,0.4,0.2,0.9,0.6,0.5c2-1.8,4-3.5,5.9-5.3c0.5,10.3-5,20.6-14,27.1
		c-0.8,0.6-1.7,1.2-2.6,1.7c2.5-2.5,5-5,7.4-7.6c0.4-0.4-0.3-0.9-0.6-0.5c-2.7,2.8-5.5,5.6-8.2,8.3c-0.2,0.2-0.1,0.4,0,0.6
		c-1.6,0.9-3.2,1.8-4.8,2.5c2.7-2.7,5.3-5.4,8-8.1c0.4-0.4-0.3-0.9-0.6-0.5c-3,3-6,6.1-9,9.1c-0.1,0.1-0.1,0.2-0.1,0.3
		c-1.5,0.6-2.9,1.2-4.4,1.7c3.3-3,6.5-6.1,9.8-9.1c0.4-0.4-0.2-0.9-0.6-0.5c-3.7,3.4-7.4,6.9-11.1,10.3c-1.1,0.4-2.2,0.7-3.2,1
		c2.9-2.3,5.8-4.7,8.7-7c0.4-0.3,0-1-0.5-0.7c-3.4,2.7-6.7,5.4-10.1,8.2c-0.1,0-0.1,0.1-0.1,0.1c-0.4,0.1-0.8,0.2-1.3,0.4
		c-0.4,0.1-0.8,0.2-1.2,0.3c2.5-2.1,5-4.2,7.5-6.3c0.4-0.3-0.1-1-0.5-0.7c-2.7,2.3-5.5,4.6-8.2,6.9c-0.1,0.1-0.2,0.3-0.1,0.4
		c-1.3,0.3-2.5,0.7-3.8,1c2.2-1.8,4.4-3.6,6.6-5.4c0.4-0.3-0.1-1-0.5-0.7c-2.6,2.2-5.3,4.3-7.9,6.5c-1.7,0.4-3.4,0.8-5.2,1.1
		c2.4-1.9,4.8-3.8,7.3-5.8c0.4-0.3,0-1-0.5-0.7c-2.9,2.3-5.7,4.5-8.6,6.8c-1.4,0.3-2.8,0.5-4.2,0.8c2.3-1.8,4.7-3.6,7-5.5
		c0.4-0.3,0-1-0.5-0.7c-2.7,2.1-5.4,4.2-8.2,6.4c0,0-0.1,0.1-0.1,0.1c-1.2,0.2-2.4,0.4-3.6,0.5c2.6-1.9,5.2-3.8,7.7-5.7
		c0.4-0.3,0-1-0.5-0.7c-3,2.2-6,4.5-9,6.7c-0.5,0.1-1,0.2-1.6,0.2c2.5-2,4.9-4,7.4-6.1c0.4-0.3-0.1-1-0.5-0.7
		c-2.5,2.1-5.1,4.2-7.6,6.3c0,0-0.1,0.1-0.1,0.1c-0.2,0-0.4,0-0.5,0.2c-3.2,2.9-6.4,5.8-9.5,8.8c-0.1-0.2-0.5-0.3-0.7-0.1
		c-1,1-1.9,2-2.9,3c-0.2,0.2-0.1,0.4,0,0.5c-0.3,0.3-0.7,0.6-1,0.9C427.1,370,427.6,368.4,428.1,366.8z"/>
	<path class="st1" d="M437.7,324.5C437.7,324.6,437.8,324.6,437.7,324.5c0.1,0.1,0.1,0.1,0.1,0.1c0,0,0.1,0,0.1,0c0,0,0,0,0.1,0
		c0.2,0,0.4-0.1,0.4-0.3c0,0,0,0,0-0.1c0,0,0,0,0,0c0-0.1,0-0.1,0-0.2c-2.7-6,1.5-13,8.2-12.9c3.1,0.1,6.2,2,7,5.2
		c0.9,3.6-2.3,5.8-5.3,6.8c-4.4,1.4-8.6,2.4-10.7,7.1c-1.7,3.9-0.7,8.3,2.1,11.3c0.1,0.1,0.3,0.1,0.4,0.1c1.8-0.6,3.6-1.1,5.5-1.7
		c0.3-0.1,0.3-0.5,0.1-0.7c-2.5-2.5-2.9-7-0.6-9.8c2.1-2.6,5.6-3.1,8.5-4.2c2.2-0.9,4.4-2.1,5.4-4.4c1.1-2.4,0.7-5.2-0.5-7.5
		c-3-5.6-10.8-6.8-16.5-5.5c-6.1,1.3-10.9,6-11,12.4c0,1.5-0.1,6.1,2,6.5C433.9,326.8,437.7,324.5,437.7,324.5
		C437.7,324.5,437.7,324.5,437.7,324.5z M436.3,324.4c-0.7,0.4-1.4,1-2.2,1.3c-1.9,0.7-2-2.1-2.1-3.5c-0.9-8.1,5.3-13.5,12.9-14
		c3.3-0.2,6.8,0.4,9.6,2.1c3.2,2,5.4,6.1,3.9,9.8c-2.1,5.2-9.2,4.5-12.9,7.7c-3.4,2.9-3.5,8.2-0.8,11.5c-0.8,0.3-1.7,0.5-2.5,0.8
		c-1.4,0.4-2,0.7-3-0.6c-1.1-1.3-1.5-3.4-1.6-5c-0.1-4.1,2.5-7.7,6.2-9.2c4.1-1.7,12.3-2.6,10.6-9.1c-1.3-5.1-7.3-6.9-11.8-5.1
		c-5,2-7.2,7.7-5.3,12.6C437,323.9,436.6,324.2,436.3,324.4z"/>
	<path class="st1" d="M444.4,342.5c-2-0.1-4.2,1-5,2.9c-1,2.4,0.9,5.2,3.2,5.9c3.2,1,6.4-1.5,6.1-4.8
		C448.3,344.2,446.8,342.6,444.4,342.5z M441.3,349.7c-1.4-1.2-1.9-3.3-0.7-4.7c2.2-2.7,6.6-1.9,7.2,1.6
		C448.2,350.1,443.9,352,441.3,349.7z"/>
	<path class="st1" d="M469,329.8c-0.4-9.6,0.5-19.2,2.7-28.5c0.1-0.3-0.3-0.5-0.5-0.5c-2.5,0.6-5.2,1.5-7.2,3.2
		c-2.1,1.8-2.1,4.2-2.1,6.8c0,7.8-0.9,15.7-1.4,23.4c-0.1,0.2,0.1,0.5,0.4,0.5c0.1,0,0.3,0,0.4-0.1c2.6-1.5,5.1-3.1,7.7-4.5
		C469,330.1,469,329.9,469,329.8z M468.2,329.1c-0.4,1.2-2.4,1.9-3.4,2.5c-1.2,0.7-2.3,1.4-3.5,2.1c0.4-6.3,0.8-12.7,1.2-19
		c0.2-2.9-0.6-7.1,1.4-9.4c1.6-1.9,4.4-2.9,6.8-3.5c-1.3,5.8-2.1,11.7-2.5,17.7c-0.1,1.6-0.1,3.2-0.2,4.8
		C468.1,325.6,468.5,327.8,468.2,329.1z"/>
	<path class="st1" d="M468.5,334.3c-3.3-0.1-7.1,2.5-6.9,6.1c0.2,3.8,4.2,6,7.6,5C474.3,343.4,475,334.4,468.5,334.3z M469,344.6
		c-3.3,0.9-7.3-1.7-6.4-5.4c0.7-2.9,4.5-4.8,7.3-3.9C474.3,336.7,472.5,343.2,469,344.6z"/>
	<path class="st1" d="M489.1,318.8c0.4-7.3,0.8-14.6,0.8-21.9c0-0.3-0.3-0.5-0.6-0.4c-1.6,0.8-3.2,1.5-4.8,2.3
		c-0.6,0.3-1.8,0.5-2.1,1.1c-0.6,1.1-0.4,3.6-0.5,4.8c-0.1,1.4-0.2,2.8-0.3,4.1c-0.3,6.7-0.3,13.5-0.6,20.2c0,0.2,0.1,0.3,0.3,0.4
		c0.1,0,0.2,0,0.4,0c1.8-1.3,4-2.1,5.4-3.8C488.7,323.7,489,321.2,489.1,318.8z M482,328.3c0.2-5.5,0.3-11.1,0.5-16.6
		c0.1-3,0.3-6.1,0.6-9.1c0.2-1.9,0.5-2.3,2.2-3.1c1.3-0.6,2.6-1.2,3.9-1.8c-0.1,6-0.6,12-0.8,18.1c-0.1,3,0.2,6.9-1.8,9.4
		C485.4,326.5,483.6,327.3,482,328.3z"/>
	<path class="st1" d="M488.4,329.7c-2.6-1-5,1.1-6,3.4c-1,2.3-0.9,5.3,1.5,6.6c3,1.6,6-0.6,7-3.4c0,0,0,0,0-0.1c0,0,0,0,0,0
		C491.7,333.8,490.9,330.7,488.4,329.7z M490.2,336c-0.9,2.3-3.4,4.3-5.9,3c-2.2-1.2-1.9-4-1-5.9c0.9-1.8,3.1-3.5,5.2-2.3
		C490.4,331.8,490.7,334.1,490.2,336z"/>
	<path class="st1" d="M496.8,326.7c3.3-2.6,6.7-5.2,10-7.8c0.4-0.3,0-1-0.5-0.7c-3.3,2.6-6.7,5.2-10,7.8
		C495.9,326.4,496.4,327.1,496.8,326.7z"/>
	<path class="st1" d="M495.7,331.1c3.4-2.7,6.9-5.4,10.3-8.2c0.4-0.3,0-1-0.5-0.7c-3.4,2.7-6.9,5.4-10.3,8.2
		C494.8,330.7,495.2,331.4,495.7,331.1z"/>
	<path class="st1" d="M502.7,328.7c-1.1,0.9-2.2,1.8-3.3,2.7c-0.4,0.3,0,1,0.5,0.7c1.1-0.9,2.2-1.8,3.3-2.7
		C503.6,329.1,503.2,328.4,502.7,328.7z"/>
	<path class="st1" d="M433.6,305.1c16.5-13.9,40.4-17.7,60.4-9.4c0.5,0.2,0.9-0.5,0.4-0.7c-20.2-8.3-44.5-4.6-61.2,9.5
		C432.7,304.8,433.1,305.4,433.6,305.1z"/>
	<path class="st1" d="M488.3,294.9c-12.7-3.5-26.3-2.9-38.7,1.8c-0.5,0.2-0.2,1,0.3,0.8c12.2-4.6,25.6-5.2,38.2-1.7
		C488.6,295.9,488.8,295.1,488.3,294.9z"/>
</g>
</svg>
