<?xml version="1.0" encoding="utf-8"?>
<!-- Generator: Adobe Illustrator 21.0.0, SVG Export Plug-In . SVG Version: 6.00 Build 0)  -->
<svg version="1.1" id="Layer_1" xmlns="http://www.w3.org/2000/svg" xmlns:xlink="http://www.w3.org/1999/xlink" x="0px" y="0px"
	 viewBox="0 0 1059.1 960.2" style="enable-background:new 0 0 1059.1 960.2;" xml:space="preserve">
<style type="text/css">
	.st0{opacity:3.000000e-02;}
	.st1{fill:#565656;}
</style>
<g class="st0">
	<path class="st1" d="M628.2,508.5c-5.9,7.2-10,20.2-0.9,26.8c8.4,6.1,21.3,1.5,28.5-4.3c9.4-7.5,14.4-21.1,10.4-32.6
		c-0.2-0.7-1-1-1.6-0.9c-0.3-19.1-3.1-38.4-4.8-57.5c-1.7-18.2-2.9-36.7-5.6-54.8c-0.1-0.6-0.6-0.8-1.1-0.8c0.6-1.3-0.7-3.2-2.5-2.8
		c-17.3,3.4-34.6,11.5-51.2,17.4c-14.6,5.2-30.1,9.8-44.1,16.4c3-9.9,3-20.3-2.5-30c-10.4-18.5-34.6-11.6-48-25.4
		c-0.5-0.5-1.3-0.5-1.7-0.1c-0.4-0.1-0.8,0.1-0.8,0.5c0.3,15.9,1,31.9,1.8,47.8c0.8,16.2,1.2,32.6,2.7,48.8
		c-10.3-4.6-22.5-4-32.4,1.6c-8.7,5-18.1,17.2-9.9,26.8c7.6,8.8,25.5,5.7,34.7,1.6c10.1-4.4,19.5-15.9,15.6-27.5
		c-0.1-0.2-0.2-0.3-0.3-0.4c-0.4-14-1.5-27.9-2.4-41.9c-1-15.4-1.7-30.9-3.2-46.2c5.4,3.8,10.8,7.5,16.2,11.2
		c6,4.1,12.6,8,16.8,14.1c8.7,12.7,4,28.8-1.6,41.7c-0.4,1,1,1.6,1.6,0.8c3.8-4.4,7.1-9.3,9.8-14.6c2.1,24.6,4.7,49.1,7.3,73.6
		c-13.1-5.1-27.8-4.1-39.7,4.1c-9,6.1-20.1,20.1-15,31.7c5.7,13.3,27.1,11.3,38,7.5c16.5-5.8,29.6-21.2,30.5-39
		c0-0.7-0.4-1.1-0.9-1.3c-1.1-17.1-4.3-34.5-6.8-51.4c13.8-4.6,27.2-11.2,40.5-17.2c11.7-5.2,24.6-9.9,36.1-16
		c0.4,0,0.8-0.1,1.1-0.5c0,0,0,0,0,0c1.5-0.8,3-1.7,4.5-2.6c2.1,27.1,4.8,55.3,10.1,81.9C646.2,494.6,635.3,499.9,628.2,508.5z
		 M551.1,420c0.1-0.4,0.1-0.8,0.2-1.2c0,0.2,0,0.4,0.1,0.6C551.3,419.5,551.2,419.8,551.1,420z M551.7,417.7
		c-0.1,0.1-0.2,0.2-0.3,0.3c0.9-6.3,0.3-12.9-2.1-19c-4.2-10.6-13.4-18.8-24.3-22.1c-0.8-0.2-1.3,1-0.5,1.3
		c10.3,3.1,19,10.6,23.2,20.5c4,9.3,3.6,19.9-0.5,29c-0.7,1.2-1.4,2.4-2.2,3.6c4-11,6.3-23.2,0.4-33.9c-3.2-5.9-8.5-9.9-13.8-13.6
		c-7.7-5.3-15.5-10.4-23.3-15.5c-0.6-0.4-1.6-0.1-1.5,0.7c0.5,15.5,1.8,31,2.8,46.5c1,15.1,1.9,30.2,3.4,45.2c0.2,3-0.1,5.9-0.8,8.5
		c-0.3-0.4-1-0.5-1.2,0.1c-1.2,2.9-2.4,5.7-3.5,8.6c-1.3,1.5-2.8,2.8-4.5,4c2.4-4.7,4.9-9.4,7.3-14.1c0.4-0.8-0.9-1.2-1.2-0.5
		c-2.7,5.2-5.4,10.5-8.1,15.7c0,0.1-0.1,0.2-0.1,0.2c-0.9,0.5-1.8,1-2.8,1.4c-1,0.4-2.1,0.8-3.3,1.2c2.3-4.3,4.7-8.7,7-13
		c0.4-0.7-0.7-1.5-1.1-0.8c-2.6,4.8-5.1,9.6-7.7,14.3c-1.4,0.4-2.9,0.8-4.4,1.1c2.4-4.2,4.8-8.4,7.2-12.6c0.4-0.7-0.7-1.5-1.1-0.8
		c-2.6,4.6-5.2,9.1-7.8,13.7c-1,0.2-1.9,0.3-2.9,0.4c2.4-4.5,4.9-8.9,7.3-13.4c0.4-0.7-0.7-1.5-1.1-0.8c-2.6,4.8-5.2,9.5-7.8,14.3
		c-1.2,0.1-2.3,0.1-3.5,0c2.3-4.3,4.6-8.7,6.9-13c0.4-0.8-0.9-1.2-1.2-0.5c-2.4,4.5-4.7,8.9-7.1,13.4c-1-0.1-1.9-0.2-2.8-0.4
		c2.4-4.4,4.8-8.8,7.2-13.1c0.4-0.7-0.7-1.5-1.1-0.8c-2.5,4.5-5,9.1-7.5,13.6c-0.8-0.2-1.6-0.6-2.4-0.9c2.5-4.6,5-9.1,7.5-13.7
		c0.4-0.7-0.7-1.5-1.1-0.8c-2.5,4.6-5.1,9.2-7.6,13.8c-0.7-0.4-1.4-1-2-1.5c1.8-3.7,3.6-7.4,5.3-11.1c0.4-0.8-0.9-1.2-1.3-0.5
		c-1.7,3.5-3.4,7.1-5.1,10.6c-0.6-0.7-1.1-1.5-1.5-2.2c1.7-3.2,3.5-6.5,5.2-9.7c0.4-0.8-0.7-1.5-1.1-0.8c-1.6,3-3.2,6-4.8,8.9
		c-2.8-8.9,8.7-17.9,16.2-20.7c9.3-3.6,19.4-2.9,28.4,1.1c0.8,0.3,1.4-0.9,0.7-1.3c-0.2-0.1-0.5-0.3-0.8-0.4
		c0.1-0.1,0.1-0.3,0.1-0.5c-0.2-15.9-1.5-31.9-2.4-47.8c-0.9-15.9-1.8-31.7-3.2-47.6c11.9,11.5,31.4,7.5,43,19.4
		c8.3,8.4,9.6,18.7,7.4,28.8c0.1-9.7-3.4-19.2-10-26.6c-0.6-0.6-1.6,0.2-1,0.9c7.9,8.7,11.2,20.7,9.1,32.1
		C551.9,417.1,551.7,417.4,551.7,417.7z M635.1,507.1c6.9-6,15.3-8.5,24.3-8.7c1.9-0.1,2.1-2.5,0.6-3.1c0-0.1,0.1-0.1,0.1-0.2
		c-1.4-27.7-5.8-56.5-10.5-83.9c0.4-1.3-0.4-2.8-1.8-2.9c1.1-1.6,2.2-3.3,3.2-4.9c0.9-1.3-1.3-2.6-2.1-1.2c-1.6,2.4-3.1,4.8-4.7,7.1
		c-2.3,0.7-4.6,1.6-6.9,2.5c1.3-1.9,2.7-3.8,4-5.7c0.9-1.3-1.2-2.5-2.1-1.2c-2,2.9-4.1,5.8-6.1,8.7c-1.7,0.8-3.5,1.5-5.2,2.3
		c0.2-1.1-1.5-1.8-2.3-0.7c-0.7,1-1.4,1.9-2.1,2.9c-2.4,1.2-4.8,2.3-7.2,3.5c1.1-1.7,2.2-3.4,3.3-5.1c0.9-1.3-1.3-2.6-2.1-1.2
		c-1.8,2.8-3.6,5.6-5.5,8.4c-1.8,0.8-3.5,1.7-5.3,2.5c-0.2,0.1-0.4,0.2-0.6,0.2c1.5-2.2,3-4.3,4.6-6.5c0.9-1.3-1.2-2.5-2.1-1.2
		c-2.3,3.2-4.5,6.4-6.8,9.7c-2.3,1-4.6,2.1-6.9,3.1c2.5-3.9,5-7.7,7.6-11.6c0.9-1.3-1.3-2.6-2.1-1.2c-3,4.6-6,9.1-8.9,13.7
		c-0.2,0.3-0.2,0.5-0.2,0.8c-2.8,1.2-5.5,2.5-8.2,3.7c1.7-2.7,3.4-5.4,5.2-8c0.9-1.3-1.3-2.6-2.1-1.2c-2.1,3.2-4.1,6.4-6.2,9.6
		c-0.3,0.4-0.2,0.9,0,1.2c-2.3,1.1-4.5,2.2-6.7,3.3c2.5-3.9,4.9-7.7,7.4-11.6c0.9-1.3-1.3-2.6-2.1-1.2c-2.8,4.3-5.5,8.7-8.3,13
		c-0.3,0.5-0.2,1,0.1,1.4c-1.4,0.8-2.9,1.5-4.3,2.3c1.3-3.2,2.6-6.3,3.9-9.5c0.6-1.5-1.8-2.1-2.4-0.7c-1.6,3.9-3.2,7.8-4.8,11.6
		c-0.3,0.7,0.1,1.2,0.6,1.4c0,0.1,0,0.2,0.1,0.2c-0.2,0.2-0.3,0.4-0.3,0.7c1.9,17.4,3,35.3,6.4,52.4c0.1,0.4,0.4,0.7,0.7,0.9
		c-1.2,4.3-2.6,8.4-4.5,12.3c0.9-2.4,1.8-4.7,2.7-7.1c0.6-1.5-1.8-2.1-2.4-0.7c-2.3,5.9-4.6,11.9-6.9,17.8c0,0,0,0.1,0,0.1
		c-2.2,2.6-4.7,4.9-7.7,6.9c3.2-6.3,6.3-12.6,9.5-19c0.7-1.4-1.4-2.7-2.1-1.2c-3.8,7.6-7.6,15.1-11.4,22.7c-2.2,1.1-5.1,2.3-8.4,3.2
		c4.3-6.9,8.6-13.7,12.8-20.6c0.8-1.4-1.3-2.6-2.1-1.2c-4.7,7.6-9.4,15.1-14.2,22.7c-2,0.5-4.1,0.8-6.3,1c4.4-7,8.8-14,13.2-20.9
		c0.8-1.3-1.3-2.6-2.1-1.2c-4.7,7.5-9.4,14.9-14.1,22.4c-1.7,0.1-3.4,0-5-0.2c4.1-6,8.2-12.1,12.4-18.1c0.9-1.3-1.2-2.5-2.1-1.2
		c-4.3,6.3-8.6,12.6-12.9,18.9c-1.7-0.4-3.3-1.1-4.7-1.9c5.3-7.4,10.7-14.7,16-22.1c0.9-1.3-1.2-2.5-2.1-1.2
		c-5.3,7.3-10.6,14.5-15.8,21.8c-0.9-0.9-1.7-2-2.3-3.3c4-5.8,8-11.6,12-17.4c0.9-1.3-1.2-2.5-2.1-1.2c-3.6,5.2-7.2,10.5-10.8,15.7
		c-1.8-10,9.4-20.7,17-25c10.7-6,24.1-6.6,35.1-1.4c1.3,0.6,3.4-0.1,3.2-1.8c-3.1-27.1-6.2-54.3-10-81.3c0.1-0.3,0.2-0.6,0.3-0.9
		c3-0.6,6-1.4,8.9-2.2c-1.8,3.1-3.5,6.2-5.3,9.3c-0.8,1.4,1.3,2.6,2.1,1.2c1.8-3.2,3.6-6.4,5.5-9.6c0.3-0.6,0.1-1.1-0.3-1.5
		c2.5-0.7,5-1.5,7.4-2.3c-1.8,3.1-3.6,6.2-5.4,9.3c-0.8,1.4,1.3,2.6,2.1,1.2c2.3-3.9,4.5-7.8,6.8-11.7c2.4-0.8,4.9-1.7,7.3-2.5
		c-1.7,2.8-3.4,5.5-5.1,8.2c-0.8,1.4,1.3,2.6,2.1,1.2c2.2-3.6,4.5-7.2,6.7-10.8c4-1.5,8-2.9,12-4.3c-3.2,3.7-6.4,7.3-9.7,11
		c-1,1.2,0.7,2.9,1.7,1.7c3.4-3.9,6.8-7.8,10.3-11.6c0.6-0.6,0.3-1.4-0.2-1.8c1.1-0.4,2.3-0.8,3.4-1.2c0.9-0.3,1.8-0.6,2.6-0.9
		c-2,3.3-3.9,6.6-5.9,9.9c-0.8,1.4,1.3,2.6,2.1,1.2c2.4-4.1,4.9-8.2,7.3-12.3c3.2-1,6.4-2,9.6-3c-2.9,4-5.8,8-8.7,12
		c-0.9,1.3,1.2,2.5,2.1,1.2c3.5-4.8,7-9.7,10.6-14.5c5.6-1.8,11.1-3.6,16.5-5.8c-2.6,3.6-5.3,7.3-7.9,10.9c-0.9,1.3,1.2,2.5,2.1,1.2
		c3.4-4.7,6.8-9.3,10.2-14c2.2-1,4.4-2,6.6-3.1c0.6,19.5,3,39.1,4.7,58.5c1.6,18.2,2.3,36.8,5.4,54.9c0.1,0.9,1,1.1,1.7,0.8
		c0.5,8.7-0.3,16.8-5.9,23.7c1.7-5,3.3-10,5-15c0.5-1.5-1.9-2.2-2.4-0.7c-2,6.2-4.1,12.3-6.1,18.5c-0.1,0.3-0.1,0.6,0,0.8
		c-1.7,1.4-3.6,2.8-5.8,4c2.7-6.4,5.3-12.8,8-19.3c0.6-1.5-1.8-2.1-2.4-0.7c-3,7.2-5.9,14.3-8.9,21.5c-1.7,0.7-3.5,1.2-5.3,1.5
		c0,0,0,0,0-0.1c2.7-5.7,5.5-11.4,8.2-17.1c0.7-1.4-1.4-2.7-2.1-1.2c-2.7,5.7-5.5,11.4-8.2,17.1c-0.3,0.6-0.1,1.1,0.3,1.5
		c-2.6,0.1-5.2-0.4-7.4-1.8c-1.7-1.1-2.8-2.4-3.6-3.8c0.1-0.1,0.1-0.1,0.2-0.2c2.3-5,4.7-10,7-15c0.7-1.4-1.5-2.7-2.1-1.2
		c-2,4.3-4.1,8.7-6.1,13C625.4,518.8,630.5,511.2,635.1,507.1z"/>
	<path class="st1" d="M632.6,532.1c2.2-4.8,4.5-9.6,6.7-14.4c0.7-1.4-1.5-2.7-2.1-1.2c-2.2,4.8-4.5,9.6-6.7,14.4
		C629.8,532.3,631.9,533.5,632.6,532.1z"/>
	<path class="st1" d="M632.5,394.3c-3.2,3.9-6.4,7.8-9.6,11.6c-1,1.2,0.7,3,1.7,1.7c3.2-3.9,6.4-7.8,9.6-11.6
		C635.3,394.8,633.5,393,632.5,394.3z"/>
	<path class="st1" d="M648.6,388.3c-1.6,2.5-3.2,5-4.8,7.5c-0.9,1.3,1.3,2.6,2.1,1.2c1.6-2.5,3.2-5,4.8-7.5
		C651.6,388.2,649.5,386.9,648.6,388.3z"/>
</g>
</svg>
