<?xml version="1.0" encoding="utf-8"?>
<!-- Generator: Adobe Illustrator 21.0.0, SVG Export Plug-In . SVG Version: 6.00 Build 0)  -->
<svg version="1.1" id="Layer_1" xmlns="http://www.w3.org/2000/svg" xmlns:xlink="http://www.w3.org/1999/xlink" x="0px" y="0px"
	 viewBox="0 0 1059.1 960.2" style="enable-background:new 0 0 1059.1 960.2;" xml:space="preserve">
<style type="text/css">
	.st0{opacity:3.000000e-02;}
	.st1{fill:#565656;}
</style>
<g class="st0">
	<path class="st1" d="M396.2,466.5c15.5,9.4,32.1,16.5,47.6,25.8c0.4,0.2,0.9,0.2,1.1-0.2c16-21.8,30.9-44.3,46.8-66.1
		c0.3-0.5,0.1-1-0.4-1.3c-15.7-8.6-32-16-48.2-23.5c-0.3-0.2-0.8,0-1,0.3c-15.4,20.5-31,41.1-45.4,62.3c-0.3,0.4-0.1,0.9,0.2,1.1
		C396.2,464.8,395.4,466,396.2,466.5z M443.1,403C442.8,403.1,442.8,402.9,443.1,403L443.1,403z M398.2,465
		c11.5-16.9,23.8-33.3,36-49.7c3-4,5.8-8.3,9-12.1c0.1,0.1,0.2,0.1,0.4,0.3c0.9,0.7,2.4,1.1,3.4,1.6c4,1.9,8.1,3.8,12.1,5.7
		c10.3,4.9,20.7,9.8,30.8,15.3c-13.2,18.1-25.7,36.7-38.8,54.9c-1.5,2.2-3.1,4.3-4.7,6.5c-0.7,1-1.5,2.8-3,2.9
		c-0.8,0.1-2.6-1.5-3.2-1.9c-4.2-2.4-8.5-4.7-12.7-6.9c-10.1-5.2-20.4-10.3-30.1-16.1C397.7,465.4,398,465.3,398.2,465z"/>
	<path class="st1" d="M433.9,427.1c8.5-3.3,16.9-6.6,25.4-9.9c1-0.4,0.3-1.9-0.7-1.5c-8.5,3.3-16.9,6.6-25.4,9.9
		C432.3,426,433,427.5,433.9,427.1z"/>
	<path class="st1" d="M426.6,436.3c9.3-3.8,18.5-7.6,27.8-11.5c1-0.4,0.3-1.9-0.7-1.5c-9.3,3.8-18.5,7.6-27.8,11.5
		C424.9,435.2,425.6,436.7,426.6,436.3z"/>
	<path class="st1" d="M453.4,429.4c-7.3,3.2-14.5,6.3-21.8,9.5c-1,0.4-0.3,1.9,0.7,1.5c7.3-3.2,14.5-6.3,21.8-9.5
		C455.1,430.5,454.4,429,453.4,429.4z"/>
	<path class="st1" d="M423.5,450.9c15.9-5.8,31.8-11.5,47.7-17.3c1-0.4,0.3-1.9-0.7-1.5c-15.9,5.8-31.8,11.5-47.7,17.3
		C421.8,449.7,422.5,451.2,423.5,450.9z"/>
	<path class="st1" d="M458.1,445.4c-3,0.9-6.1,1.9-9.1,2.8c-1,0.3-0.3,1.8,0.7,1.5c3-0.9,6.1-1.8,9.1-2.8
		C459.7,446.6,459.1,445.1,458.1,445.4z"/>
	<path class="st1" d="M455.7,453c-3.5,1-6.9,1.9-10.4,2.9c-1,0.3-0.8,1.9,0.3,1.6c3.5-1,6.9-1.9,10.4-2.9
		C457,454.3,456.8,452.7,455.7,453z"/>
	<path class="st1" d="M441.6,465c-6.4,2.4-12.8,4.8-19.3,7.2c-1,0.4-0.3,1.9,0.7,1.5c6.4-2.4,12.8-4.8,19.3-7.2
		C443.2,466.2,442.5,464.7,441.6,465z"/>
	<path class="st1" d="M412.5,482c-4.4,2.3-7,7.8-4.9,12.5c2,4.6,8,6.9,12.5,4.9c4.4-2,6.7-7.6,5-12.1
		C423.3,482.2,417.4,480.2,412.5,482z M419.5,497.9c-3.5,1.5-8.1-0.1-10-3.4c-2.3-4-0.3-9,3.6-11.1c3.8-1.4,8.7,0.1,10.4,4
		C425.2,491.3,423.3,496.3,419.5,497.9z"/>
	<path class="st1" d="M420.3,489.5c-1.9-0.9-3.9-1.8-5.8-2.7c-0.6-0.3-1,0.2-1.1,0.7c-0.1,0.1-0.2,0.3-0.3,0.5
		c-0.3,2.1-0.6,4.2-0.9,6.3c-0.1,0.6,0.6,1.2,1.2,0.8c2.3-1.4,4.6-2.8,6.9-4.2C420.9,490.6,421,489.8,420.3,489.5z M414.1,492.8
		c0.2-1.4,0.4-2.7,0.6-4.1c1.2,0.5,2.3,1.1,3.5,1.6C416.9,491.2,415.5,492,414.1,492.8z"/>
	<path class="st1" d="M380.5,486.5c0,0.1,0.1,0.2,0.1,0.3c-0.4,0-0.8,0.2-0.8,0.7c-0.4,14.4,18.8,22.7,29.3,28.4
		c6.9,3.7,15.7,8.8,24,7.4c3.1-0.5,5.7-2.6,8-4.6c8.6-7.4,15.5-17,22.2-26.1c7.6-10.4,14.8-21.2,21.9-32c2.7-4.1,5.3-8.2,8.1-12.2
		c5.3-7.7,10.7-16.5,6.5-25.9c-0.1-0.3-0.4-0.4-0.6-0.4c-1.5-4.8-8.1-7.4-12.1-9.2c-8-3.6-15.8-7.5-23.6-11.3
		c-6.4-3.1-13.7-7-21.1-5.5c-7,1.4-11.3,7.4-15,13c-9.5,14.2-18.9,28.5-28.4,42.7c-4.4,6.6-8.7,13.2-13.2,19.8
		C382.8,475.8,379.1,481.1,380.5,486.5z M485.1,457.7c-6.1,9.3-12.2,18.5-18.6,27.5c-6.4,9-12.9,18.1-20.4,26.2
		c-2.8,3-5.7,6.1-9.1,8.3c-4.8,3.2-10.5,1.9-15.7,0c-8.3-3-16.5-7.9-24-12.6c-6.5-4.1-15.3-10-15.8-18.5c2.1,3.6,6.4,5.8,9.7,7.9
		c6.7,4.3,13.6,8.3,20.7,12c5.7,3,12.4,7.6,19,7.4c3.1-0.1,5.9-1.3,8.4-3c0.1,0,0.2-0.1,0.3-0.2c1.5-1.1,2.9-2.3,4.2-3.6
		c7.1-7.3,12.6-16.6,18.6-24.8c4.3-6,8.8-11.9,13-17.9c4.5-6.3,8.7-12.8,12.6-19.5c0.3,0,0.5-0.4,0.4-0.6c0.1-0.2,0.3-0.4,0.4-0.6
		c2.5-4.3,5-8.6,7.1-13.1c0.9-1.9,2.5-4.7,3.2-7.3C502.2,437,491.1,448.6,485.1,457.7z M486.9,417.5c-0.5,1.8-2.2,2.3-3.5,1.7
		c0.8-0.3,1.6-0.6,2.4-0.9c0.6-0.2,0.2-1.1-0.4-0.9c-1,0.3-1.9,0.7-2.9,1c0,0-0.1,0-0.1,0.1c-0.1-0.1-0.2-0.3-0.3-0.4
		c1.6-0.6,3.2-1.3,4.8-1.9C487,416.6,487,417.1,486.9,417.5z M481.8,417.2c0,0,0-0.1,0-0.1c1.5-0.6,3.1-1.1,4.6-1.7
		C484.8,416,483.3,416.6,481.8,417.2z M400.6,452.1c9.3-14,18.6-28.1,27.9-42.1c3.8-5.7,8.3-12.1,15.9-12.6c7-0.5,13.7,3.4,19.8,6.4
		c6.5,3.1,13,6.4,19.6,9.4c0,0,0,0,0.1,0c-0.7,0-1.5,0.3-2.1,0.8c-0.5,0.4,0.1,1.2,0.6,0.8c1-0.8,2.4-0.8,3.3-0.2
		c-1.3,0.5-2.6,0.9-3.8,1.4c0,0,0,0,0-0.1c0.2-0.6-0.7-1-0.9-0.4c-0.2,0.7-0.3,1.5-0.1,2.2c0,0.2,0,0.4,0.1,0.5c0.3,0.9,1,1.6,1.9,2
		c1.8,0.7,3.7,0,4.6-1.7c0.7-1.5,0.4-2.9-0.4-3.9c3.9,1.7,8.3,3.7,10.1,7.3c0.8,1.6,0.2,3.8-0.7,5.9c0-0.1-0.1-0.2-0.2-0.2
		c-1.1-0.4-2.2-0.8-3.2-1.2c-0.6-0.2-1,0.7-0.4,0.9c1.1,0.4,2.2,0.8,3.2,1.2c0.1,0,0.2,0,0.3,0c-0.4,0.8-0.8,1.6-1.2,2.4
		c0,0-0.1-0.1-0.1-0.1c-1.3-0.7-2.6-1.5-3.9-2.2c-0.5-0.3-1.1,0.5-0.6,0.8c1.3,0.7,2.6,1.5,3.9,2.2c0.1,0.1,0.2,0.1,0.3,0.1
		c-0.2,0.3-0.3,0.6-0.4,0.9c-0.1,0.3-0.3,0.6-0.5,0.9c-1.6-0.6-3.3-1.2-4.9-1.8c-0.6-0.2-1,0.7-0.4,0.9c1.6,0.6,3.2,1.2,4.8,1.8
		c-0.6,1.1-1.2,2.3-1.8,3.4c-1.7-0.7-3.4-1.4-5.1-2.1c-0.6-0.2-0.9,0.7-0.4,0.9c1.7,0.7,3.3,1.4,5,2.1c-0.5,0.9-1,1.9-1.6,2.8
		c-1.5-0.9-2.9-1.8-4.4-2.7c-0.5-0.3-1.1,0.5-0.6,0.8c1.5,0.9,3,1.9,4.5,2.8c-0.6,1-1.2,2-1.8,3c-0.1,0.1-0.2,0.3-0.2,0.4
		c-1.5-0.6-3-1.1-4.4-1.7c-0.6-0.2-1,0.7-0.4,0.9c1.4,0.6,2.9,1.1,4.3,1.7c-0.7,1.2-1.4,2.3-2.1,3.4c-1.5-0.9-3.1-1.7-4.6-2.6
		c-0.5-0.3-1.1,0.5-0.6,0.8c1.5,0.9,3.1,1.7,4.6,2.6c-0.5,0.8-1,1.7-1.6,2.5c-1.4-0.6-2.8-1.3-4.1-1.9c-0.6-0.3-0.9,0.7-0.4,0.9
		c1.3,0.6,2.6,1.2,4,1.8c-0.5,0.8-1.1,1.7-1.6,2.5c-1.3-0.8-2.6-1.6-3.9-2.4c-0.5-0.3-1.1,0.5-0.6,0.8c1.3,0.8,2.6,1.6,3.9,2.4
		c-0.5,0.8-1.1,1.6-1.6,2.4c-1.3-0.7-2.7-1.3-4-2c-0.6-0.3-0.9,0.6-0.4,0.9c1.3,0.6,2.6,1.3,3.8,1.9c-0.8,1.2-1.6,2.4-2.4,3.6
		c-0.1,0.1-0.1,0.2-0.2,0.3c0,0-0.1-0.1-0.2-0.1c-1.6-0.8-3.2-1.5-4.8-2.3c-0.6-0.3-0.9,0.6-0.4,0.9c1.6,0.8,3.2,1.5,4.8,2.3
		c-0.6,0.8-1.1,1.6-1.7,2.4c0,0-0.1-0.1-0.1-0.1c-1.2-0.8-2.5-1.6-3.7-2.5c-0.5-0.3-1.1,0.4-0.6,0.8c1.2,0.8,2.5,1.6,3.7,2.5
		c0,0,0.1,0,0.1,0.1c-0.5,0.7-1,1.4-1.5,2.1c0-0.1-0.1-0.2-0.2-0.2c-1.2-0.6-2.4-1.1-3.6-1.7c-0.6-0.3-0.9,0.7-0.4,0.9
		c1.2,0.6,2.4,1.1,3.6,1.7c0,0,0,0,0.1,0c-0.7,0.9-1.3,1.8-2,2.7c-1.5-0.9-2.9-1.7-4.4-2.6c-0.5-0.3-1.1,0.5-0.6,0.8
		c1.5,0.9,2.9,1.7,4.4,2.6c-0.6,0.8-1.1,1.6-1.7,2.3c-1.6-0.6-3.1-1.2-4.7-1.7c-0.6-0.2-1,0.7-0.4,0.9c1.5,0.5,2.9,1.1,4.4,1.6
		c-0.7,0.9-1.3,1.8-2,2.8c-1.4-0.9-2.9-1.7-4.3-2.6c-0.5-0.3-1.1,0.5-0.6,0.8c1.4,0.9,2.9,1.7,4.3,2.6c-0.6,0.7-1.1,1.5-1.7,2.2
		c-1.5-0.9-3-1.8-4.5-2.7c-0.5-0.3-1.1,0.5-0.6,0.8c1.5,0.9,3,1.8,4.4,2.7c-0.7,0.9-1.4,1.9-2.1,2.8c0-0.1-0.1-0.2-0.2-0.2
		c-1.4-0.7-2.8-1.4-4.2-2.1c-0.6-0.3-0.9,0.6-0.4,0.9c1.4,0.7,2.8,1.4,4.2,2.1c0,0,0,0,0,0c-0.9,1.2-1.7,2.3-2.5,3.5
		c-1.5-0.8-3.1-1.7-4.6-2.5c-0.6-0.3-1.1,0.5-0.6,0.8c1.5,0.8,3.1,1.7,4.6,2.5c-0.6,0.9-1.3,1.8-1.9,2.7c-1.4-0.7-2.9-1.4-4.3-2.1
		c-0.6-0.3-0.9,0.6-0.4,0.9c1.4,0.7,2.7,1.3,4.1,2c-0.2,0.3-0.4,0.5-0.6,0.8c-0.5,0.7-1,1.4-1.5,2.1c0-0.2-0.1-0.4-0.3-0.5
		c-1.7-0.8-3.4-1.7-5.1-2.5c-0.6-0.3-0.9,0.6-0.4,0.9c1.7,0.8,3.4,1.7,5.1,2.5c0.1,0.1,0.2,0.1,0.3,0c-0.8,1.1-1.6,2.2-2.4,3.3
		c0-0.2,0-0.5-0.3-0.6c-2.1-1.1-4.3-2.3-6.4-3.4c-0.6-0.3-0.9,0.6-0.4,0.9c2.1,1.1,4.3,2.3,6.4,3.4c0.1,0.1,0.3,0.1,0.4,0
		c-1.7,2.3-3.5,4.5-5.6,6.4c0-0.1-0.1-0.2-0.2-0.2c-1.6-0.9-3.2-1.7-4.8-2.6c-0.6-0.3-0.9,0.6-0.4,0.9c1.6,0.8,3.2,1.7,4.8,2.5
		c0,0-0.1,0.1-0.1,0.1c-0.7,0.6-1.4,1.1-2.1,1.6c-1.9-1.1-3.9-2.1-5.8-3.2c-0.6-0.3-0.9,0.6-0.4,0.9c1.7,0.9,3.5,1.9,5.2,2.8
		c-1,0.6-2,1-3,1.3c0.2-0.2,0.3-0.7-0.1-0.9c-1.6-0.9-3.2-1.7-4.8-2.6c-0.6-0.3-0.9,0.6-0.4,0.9c1.6,0.9,3.2,1.7,4.8,2.6
		c0.1,0,0.1,0.1,0.2,0.1c-0.7,0.2-1.4,0.4-2.2,0.4c-2-1.1-4-2.2-5.9-3.2c-0.6-0.3-0.9,0.6-0.4,0.9c1.5,0.8,2.9,1.6,4.4,2.4
		c-2.4,0-4.9-0.7-7.5-1.9c-12.4-5.7-25.1-12.4-36.1-20.5c-8.1-5.9-3.5-13.6,1-20.3C392,465.1,396.3,458.6,400.6,452.1z"/>
	<path class="st1" d="M489.9,446.1c-2,3-4.1,5.9-6.1,8.9c-0.6,0.9,0.7,1.8,1.3,1c2-3,4.1-5.9,6.1-8.9
		C491.8,446.2,490.5,445.2,489.9,446.1z"/>
	<path class="st1" d="M472.6,472.3c-5.5,7.6-11,15.3-16.5,22.9c-0.6,0.9,0.7,1.8,1.3,1c5.5-7.6,11-15.3,16.5-22.9
		C474.5,472.4,473.2,471.5,472.6,472.3z"/>
	<path class="st1" d="M411.1,510.8c-3.7-1.6-7.5-3.3-11.2-4.9c-1-0.4-1.6,1.1-0.6,1.5c3.7,1.6,7.5,3.3,11.2,4.9
		C411.5,512.8,412.1,511.3,411.1,510.8z"/>
	<path class="st1" d="M438.2,503.5c1.6,0.9,3.3,1.9,4.9,2.8c0.5,0.3,1.1-0.5,0.6-0.8c-1.6-0.9-3.3-1.9-4.9-2.8
		C438.2,502.3,437.6,503.1,438.2,503.5z"/>
	<path class="st1" d="M480.2,413.8c0.6,0.2,0.9-0.7,0.4-0.9c-6.8-2.8-13.7-5.6-20.5-8.4c-0.6-0.2-0.9,0.7-0.4,0.9
		C466.5,408.2,473.3,411,480.2,413.8z"/>
	<path class="st1" d="M492.6,423.4c0.5,0.4,1.1-0.4,0.6-0.8c-1.5-1.2-3-2.3-4.4-3.5c-0.5-0.4-1.1,0.4-0.6,0.8
		C489.6,421.1,491.1,422.3,492.6,423.4z"/>
	<path class="st1" d="M429.6,464.7c-3.1,1.1-6.1,2.3-9.2,3.5c-0.6,0.2-0.2,1.1,0.4,0.9c3.1-1.2,6.1-2.3,9.2-3.5
		C430.6,465.4,430.1,464.5,429.6,464.7z"/>
	<path class="st1" d="M433.7,450.8c-5.4,2.3-10.7,4.6-16.1,7c-0.6,0.3-0.2,1.2,0.4,0.9c5.4-2.3,10.7-4.6,16.1-7
		C434.7,451.5,434.3,450.6,433.7,450.8z"/>
	<path class="st1" d="M444.7,439c5.5-2.4,11.1-4.8,16.6-7.2c0.6-0.3,0.2-1.2-0.4-0.9c-5.5,2.4-11.1,4.8-16.6,7.2
		C443.7,438.3,444.1,439.2,444.7,439z"/>
	<path class="st1" d="M438.2,428.1c-0.6,0.2-0.2,1.1,0.4,0.9c3.5-1.5,7-2.9,10.4-4.4c0.6-0.2,0.2-1.1-0.4-0.9
		C445.1,425.2,441.6,426.6,438.2,428.1z"/>
	<path class="st1" d="M437.7,419.7c4.1-1.9,8.3-3.7,12.4-5.6c0.6-0.3,0.2-1.2-0.4-0.9c-4.1,1.9-8.3,3.7-12.4,5.6
		C436.7,419,437.1,419.9,437.7,419.7z"/>
	<path class="st1" d="M419.3,510c0.5,0.3,1.1-0.5,0.6-0.8c-10.1-6-20.2-11.9-30.2-17.9c-0.5-0.3-1.1,0.5-0.6,0.8
		C399.2,498.1,409.3,504,419.3,510z"/>
</g>
</svg>
