<?xml version="1.0" encoding="utf-8"?>
<!-- Generator: Adobe Illustrator 21.0.0, SVG Export Plug-In . SVG Version: 6.00 Build 0)  -->
<svg version="1.1" id="Layer_1" xmlns="http://www.w3.org/2000/svg" xmlns:xlink="http://www.w3.org/1999/xlink" x="0px" y="0px"
	 viewBox="0 0 1059.1 960.2" style="enable-background:new 0 0 1059.1 960.2;" xml:space="preserve">
<style type="text/css">
	.st0{opacity:3.000000e-02;}
	.st1{fill:#565656;}
</style>
<g class="st0">
	<path class="st1" d="M376.3,495.3c18.8,10.9,43.8,4.1,56-13.4c15.3-23.7,2.4-60.8-26.7-65.9c-18.7-3.3-37.5,8.6-44.6,25.8
		C353.4,460.2,358.2,484.9,376.3,495.3z M403,417.7c12.9,1.4,23.6,10.3,29.2,21.8c6.4,13.1,6.3,28.8-1.6,41.2
		c-10.4,15.1-30.6,22-48,15.5c-19.5-7.3-26.9-30.3-21.4-49.3C366.5,429.1,384.1,415.6,403,417.7z"/>
	<path class="st1" d="M238.3,407.5c14.9,10.2,33,17.9,50.8,21.6c2.2,0.5,4.5,0.9,6.7,1.3c4.3,0.7,9.1,0.3,13.2,1.7
		c-1.9,4.6,3.7,8.4,6.9,10.5c1.2,0.8,2.5,1.6,3.9,2.1c0.6,0.2,1.1,0.7,1.7,0.9c0.4,0.1,0.8,0.1,1.2,0.2c2.5,0.5,6.2,1.4,8.6-0.1
		c0.7-0.4,0.9-1.4,1.3-2.1c0.5-1,0.9-2,1.4-3.1c4.2,1.8,8.4,3.7,12.6,5.5c0,0,0,0,0.1,0c-2.6,9.9-2.7,20.4,0.5,30.2
		c8.5,23,32.5,37.9,57,34.7c24.5-3.3,44.7-22.7,48.4-47.3c2.8-18.4-5.3-37.2-19.4-49.1c-14.8-12.6-34.8-15.9-52.8-8.4
		c-9.9,4.1-18.3,11.3-24.5,20.3c-4.2-2-8.4-3.9-12.7-5.9c-0.2-0.1,2.3-4.4,2.4-4.9c0.2-1.5-0.3-2.1-1.3-3.3c-2.1-2.3-5.1-4-7.8-5.5
		c-2.7-1.5-5.8-3-8.9-3.4c-1.3-0.1-3.3-0.3-4.4,0.6c-0.4,0.3-2.3,3.8-2.1,4c-22.2-21.4-52.7-36.1-83.7-37.6c-0.7,0-1.4-0.1-2.1-0.1
		c-0.3-0.1-0.7-0.1-0.9,0c-5.3,0.1-11.1,1.3-14.1,6c-2.9,4.4-2.1,10.3,0.5,14.7C224.2,398.1,231.9,403.1,238.3,407.5z M374.1,411.5
		c16.8-9.8,37-9.6,53.1,1.4c13.8,9.4,23.2,25.3,23.6,42.2c0.6,23.3-15.5,44.5-37.4,51.8c-26.2,8.7-55.1-5.3-64.7-31.2
		C341.3,452.5,353.4,423.6,374.1,411.5z M354.5,428.2c-3.2,5-5.7,10.4-7.4,16c-0.8-0.3-1.5-0.7-2.3-1c1.6-3.6,3.1-7.1,4.7-10.7
		c0.5-1.2-1.3-2-1.8-0.8c-1.6,3.6-3.1,7.1-4.7,10.7c-0.3-0.1-0.6-0.2-0.8-0.4c0,0,0,0,0,0c2.1-4.4,4.2-8.9,6.3-13.3
		c0.6-1.2-1.3-2-1.8-0.8c-2.1,4.4-4.2,8.9-6.3,13.3c0,0,0,0,0,0.1c-0.9-0.4-1.8-0.8-2.6-1.2c1.9-3.8,3.8-7.5,5.7-11.3
		c0.6-1.2-1.3-2-1.8-0.8c-1.9,3.8-3.8,7.5-5.7,11.3c-0.4-0.2-0.7-0.3-1.1-0.5c2.5-5.4,5-10.9,7.5-16.3
		C346.2,424.4,350.4,426.3,354.5,428.2z M326.1,405.6c1.3,0,2.9,0.6,4.1,1c2.7,0.8,5.2,2.1,7.4,3.7c0.7,0.5,5.9,4.3,5.5,5.1
		c-4.4,9.7-8.8,19.3-13.3,29c-1.9,0.2-3.9,0-5.7-0.3c2.4-4.1,4.7-8.3,7.1-12.4c0.6-1.1-1.2-1.9-1.8-0.8c-2.4,4.2-4.8,8.5-7.2,12.7
		c-1.1-0.3-2.1-0.8-3.1-1.3c5.2-8.2,9.7-16.7,13.6-25.5c0.5-1.2-1.3-2-1.8-0.8c-3.8,8.8-8.3,17.2-13.4,25.4
		c-2.8-1.8-5.1-4.3-6.7-7.3c-0.2-0.3,0-1.2,0.4-2.2c0,0,0,0,0,0c2.4-4.5,4.8-9,7.2-13.5c0.1-0.1,0.1-0.2,0.1-0.3
		c0.1-0.1,0.2-0.3,0.2-0.4c1.6-3.4,2.9-6.8,4.8-10.1C324.5,405.4,323.9,405.7,326.1,405.6z M219.9,383.3c-0.2-8,6.5-10.3,13.2-10.7
		c-1,5.6-3.1,10.7-6.3,15.4c-0.7,1,0.8,2.3,1.6,1.2c3.5-5,5.9-10.6,6.8-16.7c2.2,0,4.3,0.2,6.1,0.3c14.2,1.5,28,5.4,41,11.3
		c13.9,6.4,26.6,15.1,37.5,25.8c-3.2,6.7-6.3,13.3-9.5,20c-0.3,0-0.5,0-0.8-0.1c2.1-4.8,4.3-9.6,6.4-14.4c0.3-0.7-0.8-1.2-1.1-0.5
		c-2.2,4.9-4.4,9.8-6.5,14.7c-1.6-0.1-3.1-0.2-4.7-0.4c2.4-3.4,4.8-6.8,7.3-10.3c0.7-1.1-0.8-2.3-1.6-1.2c-2.6,3.7-5.3,7.5-7.9,11.2
		c0,0,0,0,0,0c-1.2-0.2-2.4-0.3-3.6-0.5c3.5-3.8,6.1-8.1,7.8-13c0.4-1.2-1.4-2-1.8-0.8c-1.7,5.1-4.5,9.6-8.3,13.4
		c-1.3-0.2-2.7-0.5-4-0.7c3.7-4,6.5-8.7,8.3-13.9c0.4-1.2-1.4-2-1.8-0.8c-1.8,5.4-4.7,10.2-8.7,14.2c-1.4-0.3-2.7-0.6-4.1-0.9
		c4.3-4,7.2-9.1,8.5-14.9c0.3-1.3-1.7-1.6-2-0.3c-1.3,5.8-4.4,10.8-8.9,14.6c-0.9-0.2-1.8-0.5-2.8-0.8c3.9-3.7,6.8-8.3,8.4-13.5
		c0.4-1.2-1.5-2-1.8-0.8c-1.7,5.3-4.7,9.9-8.8,13.6c-1.5-0.5-3-0.9-4.4-1.4c5.8-5.1,9.5-12.1,10.3-19.8c0.1-1.3-1.9-1.6-2-0.3
		c-0.8,7.7-4.5,14.5-10.5,19.4c-2.1-0.7-4.1-1.5-6.1-2.4c5.8-4.9,10.2-10.9,13.2-17.9c0.5-1.2-1.3-2-1.8-0.8c-3,7-7.5,13-13.4,17.8
		c-0.8-0.4-1.6-0.7-2.5-1.1c5.7-5.3,10.2-11.7,13.1-19c0.5-1.2-1.4-2-1.8-0.8c-2.9,7.3-7.4,13.6-13.2,18.9c-1-0.5-2-0.9-2.9-1.4
		c6.4-5.6,10.8-12.8,12.9-21.2c0.3-1.3-1.7-1.6-2-0.3c-2,8.1-6.5,15.1-12.8,20.5c-1.7-0.9-3.5-1.8-5.2-2.8
		c5.7-4.5,10.1-10.1,13-16.8c0.5-1.2-1.3-2-1.8-0.8c-2.9,6.6-7.2,12.2-13,16.5c-0.7-0.4-1.5-0.9-2.2-1.4c5.2-4.5,9-10.1,11.3-16.6
		c0.4-1.2-1.4-2-1.8-0.8c-2.2,6.2-5.8,11.6-10.8,15.9c-0.2,0.1-0.2,0.3-0.3,0.5c-1.6-1-3.2-2.1-4.7-3.2c0.4,0.1,0.8,0.1,1.1-0.3
		c4.8-4.9,8.2-10.7,10.1-17.3c0.4-1.2-1.6-1.5-2-0.3c-1.8,6.3-5.1,11.8-9.7,16.4c-0.4,0.4-0.3,0.8-0.1,1.1c-1.1-0.7-2.1-1.5-3.1-2.3
		c4.8-4.7,8.1-10.5,9.5-17.2c0.3-1.3-1.7-1.6-2-0.3c-1.4,6.3-4.5,11.8-9.1,16.3c-0.8-0.6-1.6-1.2-2.4-1.8c3.6-3.4,6.3-7.5,7.8-12.3
		c0.4-1.2-1.5-2-1.8-0.8c-1.4,4.5-3.9,8.6-7.4,11.8c0,0,0,0,0,0C224.2,394,220.1,389.3,219.9,383.3z"/>
	<path class="st1" d="M389.4,442.4c6.5-2.2,12.9-4.3,19.4-6.4c1.2-0.4,0.5-2.3-0.7-1.9c-6.5,2.1-12.9,4.3-19.4,6.4
		C387.4,440.9,388.2,442.8,389.4,442.4z"/>
	<path class="st1" d="M385.1,449c8.3-3.3,16.6-6.5,24.9-9.8c1.2-0.5,0.5-2.3-0.7-1.9c-8.3,3.3-16.6,6.5-24.9,9.8
		C383.2,447.6,383.9,449.5,385.1,449z"/>
	<path class="st1" d="M377,462.2c14-6.5,28-13.1,42-19.6c1.2-0.5,0.4-2.4-0.7-1.9c-14,6.5-28,13.1-42,19.6
		C375.1,460.9,375.8,462.7,377,462.2z"/>
	<path class="st1" d="M384.8,465.5c5.3-2.1,10.6-4.2,15.9-6.2c1.2-0.5,0.5-2.3-0.7-1.9c-5.3,2.1-10.6,4.2-15.9,6.2
		C382.8,464.1,383.6,466,384.8,465.5z"/>
	<path class="st1" d="M383.8,470.5c4-1.9,8.1-3.9,12.1-5.8c1.2-0.6,0.4-2.4-0.7-1.9c-4,1.9-8.1,3.9-12.1,5.8
		C381.9,469.1,382.7,471,383.8,470.5z"/>
	<path class="st1" d="M385.4,473.6c3.7-1.3,7.4-2.7,11-4c1.2-0.4,0.5-2.3-0.7-1.9c-3.7,1.3-7.4,2.7-11,4
		C383.5,472.2,384.2,474,385.4,473.6z"/>
	<path class="st1" d="M385,479.9c11.9-4.6,23.8-9.1,35.6-13.7c1.2-0.5,0.5-2.3-0.7-1.9c-11.9,4.6-23.8,9.1-35.6,13.7
		C383.1,478.5,383.8,480.4,385,479.9z"/>
	<path class="st1" d="M440.1,458.1c-0.1,1.3,1.9,1.6,2,0.3c1.7-30.5-26.9-53.6-56.3-45.3c-1.2,0.3-0.5,2.2,0.7,1.9
		C414.4,407.1,441.8,429.2,440.1,458.1z"/>
	<path class="st1" d="M368.7,494.1c14.7,13.9,37.9,15.8,53.6,2.3c1-0.8-0.2-2.5-1.2-1.6c-15,12.9-37.1,11.1-51.1-2.3
		c-14.6-13.9-17.2-35.3-10.5-53.7c0.4-1.2-1.4-2-1.8-0.8C350.6,457.3,353.4,479.6,368.7,494.1z"/>
	<path class="st1" d="M314.6,437c-0.6,1.1,1.2,1.9,1.8,0.8c3.4-5.9,6.8-11.9,10.2-17.8c0.6-1.1-1.2-1.9-1.8-0.8
		C321.4,425.1,318,431,314.6,437z"/>
	<path class="st1" d="M291.9,398.1c1.1,0.7,2.3-0.9,1.2-1.6c-13.5-9-28.1-15.7-43.7-20.1c-1.2-0.3-1.5,1.6-0.3,2
		C264.4,382.7,278.8,389.3,291.9,398.1z"/>
</g>
</svg>
