<?xml version="1.0" encoding="utf-8"?>
<!-- Generator: Adobe Illustrator 21.0.0, SVG Export Plug-In . SVG Version: 6.00 Build 0)  -->
<svg version="1.1" id="Layer_1" xmlns="http://www.w3.org/2000/svg" xmlns:xlink="http://www.w3.org/1999/xlink" x="0px" y="0px"
	 viewBox="0 0 220 280" style="enable-background:new 0 0 220 280;" xml:space="preserve">
<style type="text/css">
	.st0{fill:#F27A38;}
	.st1{fill:#D35D22;}
	.st2{fill:#CE8C5F;}
	.st3{fill:#E5A87A;}
	.st4{fill:#F4BA92;}
	.st5{opacity:0.6;fill:url(#SVGID_1_);}
	.st6{opacity:0.6;fill:url(#SVGID_2_);}
	.st7{fill:#492207;}
	.st8{fill:#632F0B;}
	.st9{fill:#FFFFFF;}
	.st10{fill:#AF5B1C;}
	.st11{fill:#DB6B49;}
	.st12{fill:#D8976A;}
</style>
<g>
	<g>
		<path class="st0" d="M17.4,207.5c0.3-8.9,3.9-18,11.9-22.6c15.4-8.9,37.1-6,54.1-5.2c22.3,1.1,45.9-3.8,68.2-1.1
			c16.6,2,31.7,3,40.4,18.4c4.2,7.5,6,15,5.8,23.8c-0.1,5.5-1.6,18-8.4,19.4c5.1-6.1-3.7-5.1-7.9-4.9c-5,0.2-10.2,0.5-14.6,2.4
			l-24.1,8.1c0.5-0.3-0.4,0-0.8,0.1c-7.6,3-19.6,1.8-27.8,1.1c-17.5-1.5-36.5,0.1-53.6-3.9c-6.3-1.4-7.8-2.8-11.3-7.5
			c-2.6-3.5-5.2-5.1-9.6-5.5c-4.1-0.4-18.5,0.2-18.9,5.1c-0.7-4.6-3-8.9-3.7-13.5C16.4,217,17.2,212.3,17.4,207.5z"/>
		<path class="st1" d="M167,236.9c5.8-1.7,12.8-3.5,18.9-2.9c3.6,0.4,5,2.1,5.3,5.9c0.3-0.2,0.7-0.4,0.9-0.8c1.4-2.1,2-4.6,2.7-7
			c1.7-5.7,2.4-10.9,1.8-16.9c-0.7-8.2-3.7-15-8.7-21.4c-4.6-5.9-13.2-11.8-21.1-11.8c-1.1,0-1.2-1.8-0.1-1.8
			c14.8,0,28.8,15.4,30.8,30c1,7.2,1.1,13.5-0.6,20.5c-0.8,3-1.7,5.9-3,8.7c-0.5,1-2.7,2.5-2.7,2.6c-0.4,0.8-1.6,0.5-1.7-0.4
			c-0.5-4.6-2.1-6-6.6-5.7c-5.3,0.3-10.5,1.3-15.5,2.8C166.5,238.9,165.9,237.2,167,236.9z"/>
		<path class="st1" d="M66.3,175.7l75,6.2c-0.3,6.7-9.2,13.5-14.5,16.3c-7.9,4-17.7,6.4-26.4,6.4C87.2,204.5,59.4,194.3,66.3,175.7z
			"/>
		<path class="st2" d="M24,112.5c5.1,0.8,13.4,2.8,13.3,9.6l11.6,31.1c-7.3,1.1-12.9,0.3-18.6-6.2c-5.3-6.1-8-13.7-10.9-21.1
			C16.7,119.1,14.5,111,24,112.5z"/>
		<path class="st3" d="M179.7,131.7c0,0-0.4,42.3-60.3,57.7c0,0-19.6,11.1-39.4-5c-19.8-16.1-35.1-20.3-43.6-63.6
			c0,0-26.2-71.4,69.7-68.4C201.9,55.5,179.7,131.7,179.7,131.7z"/>
		<path class="st4" d="M50.2,104.5c1.6-12.1,5.5-24.9,17.9-28.7c10-3.1,20.7-1.6,30.8-0.7c21.1,1.8,53.7-3,63.6,20.5
			c4.3,10.1,3.9,21,3.9,31.9c-0.1,20-9.6,47.9-30.1,55c-15.6,5.4-36.7,8.1-52.4,1.4C56.7,172.3,46.8,131.3,50.2,104.5z"/>
		
			<radialGradient id="SVGID_1_" cx="5238.687" cy="-76.4219" r="16.0165" gradientTransform="matrix(-1.691 7.154728e-02 4.892676e-02 1.1568 9003.0225 -151.2609)" gradientUnits="userSpaceOnUse">
			<stop  offset="0" style="stop-color:#ED7D51;stop-opacity:0.9"/>
			<stop  offset="1" style="stop-color:#ED7D51;stop-opacity:0"/>
		</radialGradient>
		<path class="st5" d="M131.4,116.8c5.8-1.5,12.2-1.4,17.2-0.1c11.3,2.9,26.4,16.9,13.4,29c-12.8,12-50.7,16.3-46.9-12.6
			C116.4,123.9,123.4,118.8,131.4,116.8z"/>
		
			<radialGradient id="SVGID_2_" cx="5277.0454" cy="-77.1484" r="16.0167" gradientTransform="matrix(-1.691 7.154728e-02 4.892676e-02 1.1568 9003.001 -151.7551)" gradientUnits="userSpaceOnUse">
			<stop  offset="0" style="stop-color:#ED7D51;stop-opacity:0.9"/>
			<stop  offset="1" style="stop-color:#ED7D51;stop-opacity:0"/>
		</radialGradient>
		<path class="st6" d="M66.5,118.2c5.8-1.5,12.2-1.4,17.2-0.1c11.3,2.9,26.4,16.9,13.4,29c-12.8,12-50.7,16.3-46.9-12.6
			C51.5,125.3,58.5,120.2,66.5,118.2z"/>
		<path class="st7" d="M39,43.5c0.5,0.3,0.9,0.7,1.3,1.1l31.1,19.2C56,64.4,44.2,67.3,39.3,83.3c-4.1,13.2-3.3,27.2-2.7,40.9
			c-0.7-8-11.8-13.4-18.3-11.6C10.8,92.4,13.8,50,39,43.5z"/>
		<path class="st8" d="M76.4,14.9c25.2-8.8,54.7-11.8,80-1.6c39.9,16.1,60.7,67.6,42,106c-0.7-0.2-1.7-0.6-2.3-1.2l-3.9,3.3
			c-4.8-2.8-11.6,7.7-13.3,11.6c-0.7-25.4-1.2-59.7-29.3-70.7c-23.7-9.3-51.9,4.4-76.2,2.8c-11.4-0.8-23-2.4-32.1-9.7
			c-11.5-9.2-20.5-26.9-21.4-41.8C33.7,35.8,57.8,21.4,76.4,14.9z"/>
		<path class="st7" d="M57.8,63c20.2,2.5,40-2.5,60.1-4.2c13.7-1.2,28.9-0.8,40.4,7.8c19.7,14.6,22,42.6,21.5,65.1
			c0,1.1-1.8,1.2-1.8,0.1c0.5-22.2-1.6-50.3-21.5-64.3c-12.6-8.8-29-7.9-43.5-6.4c-18.5,1.9-36.8,6-55.5,3.7
			C56.2,64.6,56.6,62.9,57.8,63z"/>
		<path class="st7" d="M19.7,13.4C19.7,13.4,19.7,13.5,19.7,13.4c0.3,0.2,0.5,0.3,0.6,0.6c2.6,9.1,15.8,11.4,23.8,10.9
			c6.1-0.3,12.2-2.9,17.8-5.2c5.7-2.3,11.3-4.6,17.2-6.4c18.8-6,39-9.1,58.7-6.5c21.1,2.8,38,13.8,50.7,30.7
			c13.1,17.5,17.7,38.7,15,60.2c-0.9,7.1-2.6,14.1-4.7,20.9c-0.3,1.1-2.1,0.7-1.7-0.4c7.1-23.1,8.1-47.2-3.2-69.1
			c-10.9-21-29.5-35.7-52.7-40C120.2,5.2,98.3,9,78.5,15.4C67.3,19,56.7,25.1,45,26.6c-6.9,0.9-15.9-0.9-21.5-5.3
			c-0.3-0.2-0.5-0.4-0.8-0.7c1.1,3.5,1.9,7,3.2,10.4c2.7,7.6,7.2,14.3,10.6,21.6c0.5,1-1,2-1.5,1c-3.1-6.5-7-12.5-9.8-19.1
			c-2.8-6.6-3.5-14-7-20.2C17.7,13.4,19.2,12.4,19.7,13.4z"/>
		<g>
			<path class="st9" d="M150.6,117.6c0,0,4.6-17.4-8.7-18.8c-13.3-1.5-13.6,17.7-13.6,17.7S145.1,114.8,150.6,117.6z"/>
			<path d="M138.2,116c-0.5-5.6,2.1-13.4,7-16.4c9.1,3.8,5.3,18,5.3,18C148,116.3,142.9,115.9,138.2,116z"/>
		</g>
		<g>
			<path class="st9" d="M83.8,116.9c0,0,1-18-12.3-16.7c-13.3,1.3-9.7,20.1-9.7,20.1S77.9,115.2,83.8,116.9z"/>
			<path d="M71.4,117.8c-1.7-5.4-0.7-13.5,3.6-17.5c9.7,1.9,8.9,16.6,8.9,16.6C81,116.1,75.9,116.9,71.4,117.8z"/>
		</g>
		<path class="st2" d="M177.1,134c0.4-7.1,3.8-12.4,10-15.2c7.2-3.2,14.9-2.9,13.1,6.7c-1.9,10.1-13.6,37.9-27.9,31.4
			c-0.6-0.3-1.3-0.8-1.8-1.2L177.1,134z"/>
		<path class="st10" d="M126.2,117.3c-0.1,0.9,1.2,1.6,1.6,0.6c0,0,0-0.1,0-0.1c8.3-1.9,17.2-1.1,25.3,1.7c1.1,0.4,1.5-1.4,0.4-1.7
			c-0.2-0.1-0.5-0.1-0.7-0.2c0,0,0,0,0,0c-2.2-7.1,0.3-17.9-9.6-19.3c-11.8-1.6-13.5,9.6-16.7,18.1
			C126.2,116.5,126.1,116.9,126.2,117.3z M128.6,115.8c2.6-7.8,5.2-19.2,16.1-15.5c6.3,2.1,5,11,6.2,16.6
			C143.6,114.8,135.9,114.4,128.6,115.8z"/>
		<path class="st10" d="M61.4,122.3c7.1-4.2,16.6-5.3,24.5-3.2c1.1,0.3,1.5-1.4,0.4-1.7c-0.3-0.1-0.5-0.1-0.8-0.2
			c-1.9-8.4-4.7-21.2-16.5-18.1c-9.4,2.5-6.9,14.1-8.2,21.3c0,0.1,0,0.1,0,0.1c-0.2,0.1-0.3,0.2-0.5,0.2
			C59.4,121.4,60.4,122.9,61.4,122.3z M62.8,119.6c0.5-6-0.9-16.7,6-18.6c10.8-2.9,13.2,7.8,14.9,15.8
			C76.7,115.6,69.1,116.6,62.8,119.6z"/>
		<path class="st7" d="M137.7,84.5c5.4-0.2,11,0.7,15,4.6c2.5,2.4-1.1,6.3-3.6,3.9c-3-2.9-7.2-3.3-11.2-3.2
			C134.5,90,134.2,84.6,137.7,84.5z"/>
		<path class="st7" d="M59.6,93.1c3-4.2,8-6.8,13.2-6.7c3.4,0.1,3.7,5.4,0.2,5.3c-4-0.1-7.2,1.8-9.5,5
			C61.5,99.5,57.6,95.8,59.6,93.1z"/>
		<path class="st11" d="M89.8,130.6c3.4-5.3,8.2-5.7,12.3-13.9c1.7-3.5,3.5-10.8,3.5-10.8c6.5,11,12.7,36.8-6.8,39.5
			C90.3,146.5,85.3,137.5,89.8,130.6z"/>
		<path class="st11" d="M69.7,151c1,0,1.5,0.6,1.7,1.3c20.5,7,46.6,10.2,66-1.6c-0.3-1.5,1.5-3,2.9-1.7c0.2,0.1,0.3,0.3,0.5,0.4
			c1.6,1.5-0.6,4-2.2,2.7c-19.8,12.2-46.5,9.1-67.5,1.9c-0.3,0.3-0.6,0.5-1.1,0.5C67.6,154.7,67.4,151.1,69.7,151z"/>
		<path class="st1" d="M42.3,179.8c1.1-0.1,1.2,1.7,0.1,1.8c-25.8,1.8-27.2,32-21.3,51.5c5.6-4.7,14.9-3.8,21.5-2.8
			c1.1,0.2,0.7,1.9-0.4,1.7c-6.4-1-16.1-2-20.9,3.3c-0.6,0.7-1.6,0-1.5-0.7C13,214.1,14.8,181.7,42.3,179.8z"/>
		<path class="st11" d="M96.9,166.8c3.4,1,6.6,0.6,10,0c1.1-0.2,1.2,1.6,0.1,1.8c-3.6,0.6-7,1-10.5,0
			C95.4,168.2,95.8,166.5,96.9,166.8z"/>
		<path class="st2" d="M127,118.1c8.7-3.5,18.2-2.3,26.8,1c1.1,0.4,0.2,2-0.8,1.6c-8.2-3.2-17.2-4.3-25.5-0.9
			C126.5,120.2,125.9,118.5,127,118.1z"/>
		<path class="st2" d="M61,121.8c8.2-3.8,17-6.4,25.8-3.1c1.1,0.4,0.2,2-0.8,1.6c-8.3-3.2-16.8-0.3-24.4,3.2
			C60.5,123.9,59.9,122.2,61,121.8z"/>
	</g>
	<g>
		<path class="st12" d="M158.7,253.5c0.1-10,3.8-22.4,15.3-22.9c6.8-0.3,15.4,1.1,18.2,8.1c0,0-2,0.4-2.1,0.4
			c2.1-0.4-2.5,10.2-3.1,11.2c-3.6,6.8-9.1,17.7-16.7,20.8C161.1,274.9,158.7,259.5,158.7,253.5z"/>
		<path class="st12" d="M34.6,222c5.5-1,11.1,0.1,14.4,4.9c3.8,5.7,4.3,15.5,0.4,21.1l-3.3,20.6C30.7,262.5,5.1,227.5,34.6,222z"/>
		<g>
			<path class="st4" d="M40.5,231.2c2.5-7.1,6.5-12.8,9.6-19.7c2.4-5.4,7.6-15.3,3.5-21c-3.7-5.3-10.9-7.5-14.4-13.6
				c-3.1-5.4-2-14.4-0.1-19.9c1.8-5,7.5-13.6,10.8-4.8c2.6,6.8,3.9,11.2,10.1,15.9c7.6,5.8,23.3,10.1,21,22
				c-1.5,7.6-5.1,14.5-6.4,22.3c-1.6,10.3,2.1,22.3-0.2,32.5c-1.5,6.4-3.4,14.2-6.8,19.8c-3.7,6.1-12.4,5.5-18.8,4.3
				C30.8,265.7,36.7,241.7,40.5,231.2z"/>
			<path class="st2" d="M36.1,250.6c-1.3,8,2,17.1,10.5,19.6c5.6,1.6,14.5,1.8,19.4-2.2c5-4.1,6-12.4,7.4-18.3
				c4.1-17.6,0.9-37.5,7-54.7c2-5.7,1.7-12.3-2.8-16.6c-4.3-4-10.2-5.5-15-8.6c-5.4-3.5-6.6-8-8.9-13.7c-1.1-2.8-2.4-5.6-5.1-7.1
				c-6.1-3.4-10.6,7.5-11.8,11.6c-1.4,4.6-1.7,9.8,0.6,14.2c2.2,4.4,5.7,7.2,9.4,10.4c5.1,4.4,7.5,9.1,5.9,15.8
				c-1.2,5.2-3.4,10.1-5.7,15c-2.9,6.4-5.6,12.9-8.1,19.5C37,240.4,37,245.4,36.1,250.6z M42.6,230.7c2.6-6.2,5.3-12.3,7.9-18.5
				c2.5-5.9,6.3-14.3,3.5-20.7c-4-8.9-16.1-11.9-16.6-22.8c-0.2-4.8,1.2-9.8,3.7-13.8c1.1-1.7,3.3-5.3,5.9-4.4
				c2.4,0.8,3.6,3.1,4.5,5.3c1.3,3.2,2,6.8,3.9,9.8c2,3.2,5.2,5.5,8.5,7.2c4.3,2.2,9.7,4.1,13,7.7c2,2.2,2.5,4.8,2.7,7.6
				c0.1,4.8-2.2,9.1-3.5,13.6c-1.1,4.2-2,8.4-2.8,12.7c-1.6,8.8,1.2,19.4-0.5,28.2c-1.3,6.6-2.3,14.9-5.8,20.8
				c-2.3,3.9-10.9,6-15.1,5.8c-2.3-0.1-4.3-0.5-5.9-1.1C32.8,263.1,38.3,241.2,42.6,230.7z"/>
		</g>
		<g>
			<path class="st4" d="M168.7,234.2c-2.5-7.1-7.4-14.6-10.5-21.5c-2.4-5.4-6.7-13.4-2.7-19.2c3.7-5.4,7.4-5.6,10.9-11.7
				c3-5.4,2-14.4,0-19.9c-1.8-5-7.5-13.5-10.8-4.8c-2.6,6.8-3.8,11.2-10.1,16c-7.6,5.8-23.2,10.2-20.9,22.1
				c1.5,7.6,5.2,14.5,6.4,22.3c1.6,10.3,1.6,20.7,3.9,30.9c1.5,6.4,3.4,14.2,6.9,19.8c3.7,6.1,16,5.3,22.4,4.1
				C182.2,268.9,172.5,244.7,168.7,234.2z"/>
			<path class="st2" d="M80.2,186.2c6.7,5.2,15,8.3,23.6,8c8.1-0.3,14.7-2.9,21.5-6.7c-1.7,3.9-1.5,8.5,0,12.6
				c6.2,17.2,6.6,35.4,10.8,53.1c1.4,5.9,0.6,12.5,5.6,16.6c4.9,4,19.2,5.4,24.8,3.7c8.5-2.5,9.8-11.8,8.5-19.7
				c-0.9-5.2-2.7-10.3-4.6-15.2c-2.5-6.5-5.2-13.1-8.1-19.4c-2.3-4.9-4.5-9.8-5.7-15c-1.6-6.7-2.6-9.5,2.4-13.9
				c3.7-3.2,7.1-5.9,9.3-10.4c2.2-4.4,1.9-9.6,0.5-14.2c-0.2-0.7-0.6-1.7-1-2.8c0.1,0,0.1-0.1,0.2-0.1c2-1.9,3.2-4.5,4.1-7.1
				c0.4-1.1-1.4-1.5-1.7-0.4c-0.7,2.1-1.7,4.2-3.3,5.9c-2.1-4.5-5.7-9.5-10.1-7c-2.7,1.5-4,4.3-5.1,7.1c-2.2,5.6-3.4,10.2-8.8,13.7
				c-4.8,3.2-10.7,4.6-15,8.7c-0.2,0.2-0.4,0.5-0.7,0.8c-0.1,0-0.1,0-0.2,0.1c-6.9,4.1-13.8,7.8-22,8.1c-8.7,0.3-16.8-2.2-23.8-7.5
				C80.5,184.2,79.3,185.5,80.2,186.2z M125.9,193.1c0.2-2.8,0.7-5.4,2.7-7.6c3.3-3.7,8.7-5.6,13-7.8c3.4-1.7,6.5-4,8.5-7.3
				c1.8-2.9,2.6-6.6,3.9-9.8c0.9-2.2,2.1-4.5,4.5-5.3c2.6-0.9,4.9,2.7,6,4.4c2.5,4.1,3.9,9.1,3.7,13.8c-0.5,10.9-9.1,12-13,20.9
				c-2.8,6.5,1,14.8,3.5,20.7c2.7,6.2,5.4,12.3,8,18.4c4.4,10.5,13.7,32.5,0.2,37.6c-1.6,0.6-3.6,1-5.9,1.2
				c-4.1,0.2-16.3-1.7-18.6-5.6c-3.5-5.9-4.6-14.2-5.8-20.8c-1.7-8.8-2.5-17.8-4.2-26.6c-0.8-4.3-1.7-8.5-2.8-12.7
				C128.2,202.2,125.8,197.9,125.9,193.1z"/>
		</g>
		<path class="st1" d="M168.1,230.6c5.7,0.7,29.7-1.4,23.7,10.5c-0.5,1-2.1,0.2-1.6-0.8c4.6-9.1-17.8-7.4-22.5-8
			C166.6,232.2,167,230.4,168.1,230.6z"/>
		<path class="st1" d="M19.9,233.2c5.4-9.7,13.5-12.9,24.3-12.1c1.1,0.1,1.2,1.9,0.1,1.8c-10.1-0.7-17.7,2-22.8,11.2
			C20.9,235.1,19.3,234.3,19.9,233.2z"/>
	</g>
</g>
</svg>
