<?xml version="1.0" encoding="utf-8"?>
<!-- Generator: Adobe Illustrator 21.0.0, SVG Export Plug-In . SVG Version: 6.00 Build 0)  -->
<svg version="1.1" id="Layer_1" xmlns="http://www.w3.org/2000/svg" xmlns:xlink="http://www.w3.org/1999/xlink" x="0px" y="0px"
	 viewBox="0 0 220 280" style="enable-background:new 0 0 220 280;" xml:space="preserve">
<style type="text/css">
	.st0{fill:#CE8C5F;}
	.st1{fill:#D89A71;}
	.st2{fill:#E5A87A;}
	.st3{opacity:0.8;fill:url(#SVGID_1_);}
	.st4{opacity:0.8;fill:url(#SVGID_2_);}
	.st5{fill:#632F0B;}
	.st6{fill:#512507;}
	.st7{fill:#DB6B49;}
	.st8{fill:#FFFFFF;}
</style>
<g>
	<g>
		<path class="st0" d="M178.2,175.6c15.2,6.5-3.9,19.8-11.5,24.2c-5.4,3.1-11.4,6.3-17.3,7.3c-8.2,1.5-11.4-0.4-15.3-7.5
			L178.2,175.6z"/>
		<path class="st0" d="M14,94c-0.3-7.6,2.8-17,5.5-24.1c2.2-5.9,6.2-18.2,13.9-18.5c9.9-0.4,7.9,13.5,9,19.9l-14.7,35.6
			c-2.6-1.1-6.3-0.4-9-2.4C15.6,102.4,14.2,97.6,14,94z"/>
		<path class="st1" d="M16.7,129.8c-1.5-22.7,6.2-46.6,23.4-61.4c5.2-4.5,12.5-8,19.2-9.4c7.1-1.5,15.2-2,22.4-1.2
			c12.4,1.3,27.5,5,37.5,13.2c6.1,5,12.2,10.1,17.7,15.7c2.8,2.8,4.2,6.1,7.6,8.5c3,2.1,6.4,3.5,9.4,5.6c10.2,7.1,20.9,13.1,27.1,24
			c5.6,10,5.7,25.6,2.2,36.3c-3.1,9.6-11.8,16.8-19,23.5c-8.1,7.6-16.9,14.4-27.2,18.8c-37.5,15.9-87.5,14.8-108.6-25.5
			C20.7,162.6,17.1,134.6,16.7,129.8z"/>
		<path class="st2" d="M39.2,86.2c8.3-12.5,27-20.5,42.5-15.9c17.2,5.1,24.4,22,36.6,32.5c17.4,15,38.9,20.4,48.6,42.2
			c4.4,10,3.2,20.4-2.9,29.7c-13.6,20.6-42.9,30.5-68.3,29.1c-16.2-0.9-33.4-3.7-46.9-12C11.7,169,18.7,117.1,39.2,86.2z"/>
		
			<radialGradient id="SVGID_1_" cx="5055.0166" cy="2804.7214" r="21.2441" gradientTransform="matrix(-0.953 -0.6068 -0.4304 0.6759 6083.2617 1292.5894)" gradientUnits="userSpaceOnUse">
			<stop  offset="0" style="stop-color:#ED7D51;stop-opacity:0.9"/>
			<stop  offset="1" style="stop-color:#ED7D51;stop-opacity:0"/>
		</radialGradient>
		<path class="st3" d="M61.4,102.4c5,1.8,9.6,5.1,12.5,8.7c6.7,7.9,10.3,26.1-5.4,28.6c-15.6,2.5-45.3-13.5-27.4-33.3
			C46.7,100.1,54.5,99.9,61.4,102.4z"/>
		
			<radialGradient id="SVGID_2_" cx="3751.1184" cy="4097.4136" r="21.2447" gradientTransform="matrix(-0.7119 -0.8773 -0.6222 0.5049 5338.6694 1392.871)" gradientUnits="userSpaceOnUse">
			<stop  offset="0" style="stop-color:#ED7D51;stop-opacity:0.9"/>
			<stop  offset="1" style="stop-color:#ED7D51;stop-opacity:0"/>
		</radialGradient>
		<path class="st4" d="M127.2,154c4.2,3.3,7.4,7.9,9.1,12.2c3.8,9.6,1.5,28-14.2,25.5c-15.6-2.5-38.7-27.1-15.5-40.3
			C114.1,147.2,121.5,149.5,127.2,154z"/>
		<g>
			<path class="st5" d="M31.6,69.5c5.8-10.3,34.7-52.7,81.5-49c-2.6,2.6-6.8,6.5-8.7,10.1c19.9-10.4,43.3-10.3,63.1-21.1
				c0.9,13.4,13.2,26.1,19.3,37.7c6.1,11.7,10.9,24.1,5.7,37c2.1-3.4,3.1-10.6,5.1-14c2.9,8.7,5.1,26.7,5.9,36.1
				c1,11.7,1,24.3-0.8,35.8c-1.8,10.9-6.9,18.3-14.1,26.4c-2.6,2.9-5.8,5.8-8.7,8.5c-1.4,1.4-18.9,10.6-20.8,12.4
				c6.9-8.9,16.2-17,20.9-27.4c9.2-20.5-5.5-46.1-22.9-57c-8-5-14.3-6.5-20.8-13.9C117,69.4,87.9,49.8,53.4,66.2
				c-6.6,3.1-16.9,8.6-20.9,15.1c-1.3,2.1-2.2,4.4-3.2,6.3C28.5,79.2,28.2,79.5,31.6,69.5z"/>
		</g>
		<path class="st6" d="M104.1,32.3c0,0,0-0.1,0-0.1c0.2-5,4.5-8.1,8-11.2c1.2-1,2.6,0.9,1.4,1.9c-1.9,1.6-4.1,3.3-5.5,5.3
			c6.6-5,16.2-6.5,24.1-7.8c12.3-2.2,24.2-5.5,35.2-11.5c0.3-0.2,0.6-0.2,0.8-0.1c0.6-0.2,1.3,0.1,1.4,0.9c1.1,14,12.3,24.6,18,37
			c5,10.9,7.8,21,6.5,32.4c1.3-2.2,2.4-4.6,2.8-7.2c0.2-1.5,2.6-1.2,2.3,0.3c0,0.1,0,0.2-0.1,0.3c0,0.1,0.1,0.1,0.1,0.2
			c7.6,21.8,8.5,48.2,4.5,70.8c-4.2,24.2-24.5,35.2-43.8,46.9c-1.3,0.8-2.7-1.1-1.4-1.9c8.9-5.4,18-10.4,26.1-17
			c9.5-7.8,14.9-17.7,17-29.7c3.6-20.7,2.7-45.2-3.7-65.5c-1.2,3.1-3.1,5.9-5,8.7c-0.1,0.1-0.1,0.2-0.2,0.3
			c-0.1,0.2-0.3,0.4-0.4,0.6c-0.8,1.3-2.7-0.2-1.9-1.4c0.1-0.2,0.2-0.4,0.4-0.6c3.2-14.7-0.8-26.8-7.2-40.1
			c-5.3-11.1-14.6-19.9-16.3-32.5c-9.1,4.8-19.1,8.4-29.2,10.2c-10.2,1.8-24.7,2.6-31.8,11.3c-0.1,0.4-0.5,0.5-0.8,0.6
			C104.8,33.8,104,33.1,104.1,32.3C104.1,32.3,104.1,32.3,104.1,32.3C104.1,32.3,104.1,32.3,104.1,32.3z"/>
		<path class="st5" d="M137.2,130.1c6.4,1.4,11.6,6.2,14,12.3c1.1,2.8-3.2,4.7-4.3,1.8c-1.8-4.5-5.5-8.4-10.3-9.5
			C133.6,134.1,134.2,129.4,137.2,130.1z"/>
		<path class="st7" d="M106.7,127c-12.8,8.4-5.6,35-20.4,27.5C60.9,141.5,106.7,127,106.7,127z"/>
		<path class="st7" d="M70.1,158.7c9.6,17.5,27.9,30.4,48.4,28.4c0.2-1.4,0.2-2.7,0.1-4.1c-0.2-1.5,2.2-1.8,2.3-0.3
			c0.4,3.8-0.2,7.4-1.7,10.9c-0.6,1.4-2.8,0.5-2.2-0.9c0.4-1,0.8-2.1,1-3.2c-21.3,1.7-40.1-11.7-50.1-29.9
			C67.2,158.3,69.3,157.4,70.1,158.7z"/>
		<g>
			<g>
				<path class="st8" d="M138.7,170.2c0,0-9.8-11.4-18.1-17.1c0,0,8.5-15.8,19.3-5.3C150.8,158.3,138.7,170.2,138.7,170.2z"/>
				<path d="M137.8,146.3c1.1,4.9-2.4,11.1-7.3,12.7c-0.8,0.2-1.6,0.4-2.6,0.4c-2.4-2.4-5-4.7-7.4-6.5
					C120.5,152.8,128.3,139.4,137.8,146.3z"/>
			</g>
			<path class="st7" d="M120.3,154c6.8,5.2,11.9,11.9,17.7,18.1c0.6,0.6,1.3,0.3,1.7-0.2c0,0,0.1,0,0.1-0.1c3.1-4,6.7-7.9,7.7-13
				c0.8-4.3-1.5-9.5-4.6-12.4c-7.4-6.7-17.2-2.7-22.9,4.2c-0.5,0.7-0.2,1.5,0.3,1.8C119.8,152.8,119.7,153.5,120.3,154z
				 M121.9,152.3c-0.1-0.1-0.2-0.1-0.2-0.1c4.4-5.3,13.6-10.5,19.5-4c7.2,7.8,2.6,14.4-2.5,21.2
				C133.3,163.5,128.3,157.2,121.9,152.3z"/>
		</g>
		<g>
			<g>
				<path class="st8" d="M80,113.3c0,0-12.8-7.9-22.4-10.8c0,0,3.4-17.6,16.9-10.9C87.9,98.4,80,113.3,80,113.3z"/>
				<path d="M71.9,90.8c2.5,4.3,1.1,11.3-3.2,14.3c-0.7,0.5-1.5,0.8-2.3,1.1c-3-1.5-6.1-3-9-3.9C57.4,102.3,60.8,87.1,71.9,90.8z"/>
			</g>
			<path class="st5" d="M76,80.1c6.3,0.8,10.3,5.7,12.6,11.2c1.2,2.8-3.2,4.5-4.4,1.7c-1.7-4-4.3-7.7-8.9-8.3
				C72.3,84.4,73,79.7,76,80.1z"/>
			<path class="st7" d="M56.3,101.6c8.2,4,16.6,7.8,23.9,13.2c0.6,0.5,1.3,0.2,1.7-0.3c0.4,0,0.8-0.2,1-0.7c2.7-8.8,3-19.1-6.5-23.8
				c-8.9-4.5-14.9,1.7-20,8.5c-0.2,0.3-0.3,0.7-0.2,1C55.5,100,55.3,101.2,56.3,101.6z M58.3,100c3.6-4.8,8.9-11.9,15.9-8.4
				c8.7,4.4,9.2,12.4,6.7,20.9C73.8,107.4,66,103.8,58.3,100z"/>
		</g>
		<path class="st0" d="M15.6,120.6c0-6.1,2.4-12.1,1.5-18.2c-0.2-1.5,2.1-1.8,2.3-0.3c0.6,4.1-0.3,8-1.1,12
			c-1.1,5.6-0.5,11.8,0,17.5c0.9,11.3,3,22.4,6.9,33c3.6,10,8.9,19.9,16.1,27.9c25.2,27.9,64.7,19.4,96.5,10.6
			c1.4-0.4,2.4,1.8,0.9,2.2c-24.6,6.9-54.9,14.5-79.2,2.8c-6.5-3.1-13.8-7.7-18.9-12.9c-7.1-7.3-12.1-16.5-16.1-25.8
			c-4.2-9.8-6.5-20.3-7.9-30.8C16,132.6,15.6,126.6,15.6,120.6z"/>
	</g>
	<g>
		<path class="st2" d="M79.5,261.1c0.2-5.6,8.8-5,12.9-5.8c-4.5-0.9-14.6-2.8-13.5-8.9c3.8-1.6,8.1-3.5,12.3-2.9
			c-2.4-1.1-11-2.6-9.8-6.8c1-3.6,12-3.1,14.7-3c3.5,0.1,10.6,0.2,13.6,2.1c3.8,2.5,3.6,7.4-2.1,8.4l-0.6,0.2
			c3.4,0.6,6.7,4.5,5.5,8.2c-1.1,3.6-5.8,4.2-9.3,5.3c4.1,1.4,9.5,5.3,5.3,9.7c-3,3.1-12.6,1-16.3,0.3
			C88.2,267.5,79.3,266.7,79.5,261.1z"/>
		<path class="st0" d="M91,269.2c4.7,0.7,15.6,4.5,19.1-0.5c3.3-4.7,1-8.5-2.9-10.8c0.9-0.3,1.7-0.6,2.4-1.1c5.4-3.4,4.6-8.9-0.1-12
			c3.5-2.5,3.4-8.2-0.9-10.5c-3.8-2-8.6-1.8-12.8-1.5c-3.3,0.2-6.7,0.2-9.9,1c-5.5,1.3-6.6,5-1.5,8.3c0.1,0.1,0.2,0.1,0.3,0.2
			c-2.8,0.4-5.5,1.5-6.1,3.9c-1,3.9,2.3,6.5,5.8,8.1c-3.2,0.9-6,2.8-6.6,6.1C76.8,266.6,87.1,268.5,91,269.2z M107.6,243.7
			c-0.1,0-0.2-0.1-0.3-0.1c-4.6-0.1-9.5-0.2-14.1-0.7c-0.7-0.1-1.5-0.2-2.2-0.3c-0.1-0.2-0.3-0.3-0.6-0.4c-0.3,0-0.7-0.1-1.1-0.1
			c-1.7-0.5-3.3-1.2-4.7-2.4c-2.2-2-1-3.2,1.3-3.7c4.1-1,8.7-1.1,12.9-1.2c2.8-0.1,7.4-0.4,9.6,1.8
			C110.5,238.8,110.9,242.3,107.6,243.7z M105.6,256c-0.9,0.1-1.7,0.1-2.6,0.2h0c-0.2,0-0.3,0-0.5,0c-1,0-1.9-0.1-2.9-0.2
			c-2.7-0.4-5.4-0.8-8-1.5c-0.1,0-0.5-0.1-0.9-0.3c-0.1-0.2-0.3-0.3-0.6-0.4c-0.2,0-0.3,0-0.5,0c-4.2-1.5-13-5.4-7.8-8.3
			c2.2-1.2,4.7-1.5,7.2-1.4c5.7,1.7,12.5,1.3,18.1,1.4c0,0,0,0,0,0c0.1,0.2,0.2,0.3,0.4,0.4C112.8,248.7,111,255.5,105.6,256z
			 M80.7,259c2-2.1,4.9-3.2,7.8-3.2c0.5,0.1,0.9,0.3,1.3,0.4c3.8,0.9,9.1,2.4,13.7,2.3c1,0.3,2,0.6,2.9,1.1c3.8,5.6,3.4,8.7-1.3,9.3
			c-2.1,0.1-4.2-0.1-6.3-0.5c-2.9-0.5-5.8-0.8-8.6-1.4C88,266.5,76.1,263.8,80.7,259z"/>
	</g>
</g>
</svg>
