<?xml version="1.0" encoding="utf-8"?>
<!-- Generator: Adobe Illustrator 21.0.0, SVG Export Plug-In . SVG Version: 6.00 Build 0)  -->
<svg version="1.1" id="Layer_1" xmlns="http://www.w3.org/2000/svg" xmlns:xlink="http://www.w3.org/1999/xlink" x="0px" y="0px"
	 viewBox="0 0 230 250" style="enable-background:new 0 0 230 250;" xml:space="preserve">
<style type="text/css">
	.st0{fill:url(#SVGID_1_);}
	.st1{fill:url(#SVGID_2_);}
	.st2{fill:url(#SVGID_3_);}
	.st3{fill:#194970;}
	.st4{fill:url(#SVGID_4_);}
</style>
<g>
	<linearGradient id="SVGID_1_" gradientUnits="userSpaceOnUse" x1="-0.5292" y1="100.4892" x2="62.7051" y2="100.4892">
		<stop  offset="0.3911" style="stop-color:#4A69BD"/>
		<stop  offset="0.9959" style="stop-color:#1ABC9C"/>
	</linearGradient>
	<path class="st0" d="M66.3,89.7c0,0-12.9-10.1-21.2-2.2c0,0-15.4,16.2-21.9,18.3c0,0,26.6,26.6,47.1-5.4c0,0-15.4,48.5-63.2,2.2
		c0,0,14.4-2.2,26.6-18C33.6,84.7,49,67.4,66.3,89.7z"/>
	<linearGradient id="SVGID_2_" gradientUnits="userSpaceOnUse" x1="33.8269" y1="98.0101" x2="60.4141" y2="98.0101">
		<stop  offset="0.3911" style="stop-color:#4A69BD"/>
		<stop  offset="0.9959" style="stop-color:#1ABC9C"/>
	</linearGradient>
	<path class="st1" d="M67.4,93.3c0,0-14,7.2-26.6,9.3C40.8,102.6,61.2,104.4,67.4,93.3z"/>
	<linearGradient id="SVGID_3_" gradientUnits="userSpaceOnUse" x1="63.6331" y1="140.4233" x2="146.3943" y2="140.4233">
		<stop  offset="0.3911" style="stop-color:#4A69BD"/>
		<stop  offset="0.9959" style="stop-color:#1ABC9C"/>
	</linearGradient>
	<path class="st2" d="M71.3,108c0,0-43.1,77.6,75.1,74.4c0,0-15.1-17.2-12.9-34.5c0,0,8.6-59.3-42.4-48.1c0,0,23.7,3.2,25.2,31.3
		c0,0,1.1,30.2,6.1,38.4C122.3,169.5,65.9,177.7,71.3,108z"/>
	<rect x="122.5" y="204.1" class="st3" width="41.7" height="5.7"/>
	<rect x="122.5" y="213.8" class="st3" width="41.7" height="5.7"/>
	<path class="st3" d="M164.2,223.2v5.7h-10.8c-1.2,4.4-5.3,7.5-10,7.5s-8.8-3.2-10-7.5h-10.8v-5.7H164.2z"/>
	<linearGradient id="SVGID_4_" gradientUnits="userSpaceOnUse" x1="74.9397" y1="21.2773" x2="218.3096" y2="159.139">
		<stop  offset="9.732377e-02" style="stop-color:#4A69BD"/>
		<stop  offset="0.3504" style="stop-color:#368BAF"/>
		<stop  offset="0.6011" style="stop-color:#27A6A5"/>
		<stop  offset="0.8239" style="stop-color:#1DB69E"/>
		<stop  offset="0.9959" style="stop-color:#1ABC9C"/>
	</linearGradient>
	<path class="st4" d="M221.8,76.3c-1.6-8.3-4.5-16.1-8.5-23.1c-13-23.1-37.3-38.6-65.1-38.6c-41.5,0-75.1,34.5-75.1,77.1
		c0,2.2,0.1,4.3,0.3,6.4c0.2,2.4,0.5,4.8,0.9,7.2c1.2,5.5,2.8,10.9,4.7,16.3c0,0,0,0,0,0c4.1,10,10.2,18.9,17.7,26.2
		c-10.2-12.7-16.4-29.3-16.4-47.6c0-39.1,28.4-70.9,63.6-71.6c0.4,0,0.7,0,1.1,0c16.4,0,31.4,6.8,42.8,17.9c0,0,0.1,0,0.1,0.1
		c15.1,13.9,24.6,34.7,24.6,58c0,28.5-14.4,53.3-35.6,66.3c-5.4,3.6-5.9,13.2-5.9,13.2c-0.2,4.4-3,9.4-5.1,12.5
		c-0.4,0.6-0.7,1.1-1.2,1.7c-0.1,0.1-0.2,0.2-0.3,0.4c-0.4,0.6-0.7,0.9-0.7,0.9l0,0c-0.1,0.1-0.1,0.1-0.2,0.2c0.1-0.1,0.9-0.8,2-1.8
		c2.3-2.2,5.9-6,8.3-9.9c1.1-1.8,1.7-3.3,2-4.9c0,0,0.3-1.4,1.1-3.2c1-2.2,2.7-5,5.6-7c0,0,0,0,0,0c4-2.4,7.7-5.2,11.2-8.3
		c18.4-16.1,30.1-40.6,30.1-68C224,89.7,223.2,82.9,221.8,76.3z"/>
</g>
</svg>
