<?xml version="1.0" encoding="utf-8"?>
<!-- Generator: Adobe Illustrator 21.0.0, SVG Export Plug-In . SVG Version: 6.00 Build 0)  -->
<svg version="1.1" id="Layer_1" xmlns="http://www.w3.org/2000/svg" xmlns:xlink="http://www.w3.org/1999/xlink" x="0px" y="0px"
	 viewBox="0 0 1059.1 960.2" style="enable-background:new 0 0 1059.1 960.2;" xml:space="preserve">
<style type="text/css">
	.st0{fill:url(#SVGID_1_);}
	.st1{fill:url(#SVGID_2_);}
	.st2{fill:url(#SVGID_3_);}
	.st3{fill:#194970;}
	.st4{fill:url(#SVGID_4_);}
</style>
<g>
	<linearGradient id="SVGID_1_" gradientUnits="userSpaceOnUse" x1="361.2587" y1="386.7897" x2="378.2831" y2="386.7897">
		<stop  offset="0.3911" style="stop-color:#4A69BD"/>
		<stop  offset="0.9959" style="stop-color:#1ABC9C"/>
	</linearGradient>
	<path class="st0" d="M379.2,383.9c0,0-3.5-2.7-5.7-0.6c0,0-4.2,4.4-5.9,4.9c0,0,7.2,7.2,12.7-1.5c0,0-4.2,13.1-17,0.6
		c0,0,3.9-0.6,7.2-4.8C370.4,382.5,374.6,377.9,379.2,383.9z"/>
	<linearGradient id="SVGID_2_" gradientUnits="userSpaceOnUse" x1="370.5083" y1="386.1223" x2="377.6663" y2="386.1223">
		<stop  offset="0.3911" style="stop-color:#4A69BD"/>
		<stop  offset="0.9959" style="stop-color:#1ABC9C"/>
	</linearGradient>
	<path class="st1" d="M379.5,384.9c0,0-3.8,1.9-7.2,2.5C372.4,387.4,377.9,387.8,379.5,384.9z"/>
	<linearGradient id="SVGID_3_" gradientUnits="userSpaceOnUse" x1="378.5329" y1="397.541" x2="400.8144" y2="397.541">
		<stop  offset="0.3911" style="stop-color:#4A69BD"/>
		<stop  offset="0.9959" style="stop-color:#1ABC9C"/>
	</linearGradient>
	<path class="st2" d="M380.6,388.8c0,0-11.6,20.9,20.2,20c0,0-4.1-4.6-3.5-9.3c0,0,2.3-16-11.4-13c0,0,6.4,0.9,6.8,8.4
		c0,0,0.3,8.1,1.6,10.4C394.3,405.4,379.1,407.6,380.6,388.8z"/>
	<rect x="394.4" y="414.7" class="st3" width="11.2" height="1.5"/>
	<rect x="394.4" y="417.3" class="st3" width="11.2" height="1.5"/>
	<path class="st3" d="M405.6,419.8v1.5h-2.9c-0.3,1.2-1.4,2-2.7,2s-2.4-0.9-2.7-2h-2.9v-1.5H405.6z"/>
	<linearGradient id="SVGID_4_" gradientUnits="userSpaceOnUse" x1="381.5769" y1="365.4637" x2="420.176" y2="402.5798">
		<stop  offset="9.732377e-02" style="stop-color:#4A69BD"/>
		<stop  offset="0.3504" style="stop-color:#368BAF"/>
		<stop  offset="0.6011" style="stop-color:#27A6A5"/>
		<stop  offset="0.8239" style="stop-color:#1DB69E"/>
		<stop  offset="0.9959" style="stop-color:#1ABC9C"/>
	</linearGradient>
	<path class="st4" d="M421.1,380.3c-0.4-2.2-1.2-4.3-2.3-6.2c-3.5-6.2-10-10.4-17.5-10.4c-11.2,0-20.2,9.3-20.2,20.8
		c0,0.6,0,1.2,0.1,1.7c0.1,0.7,0.1,1.3,0.2,1.9c0.3,1.5,0.8,2.9,1.3,4.4c0,0,0,0,0,0c1.1,2.7,2.7,5.1,4.8,7.1
		c-2.7-3.4-4.4-7.9-4.4-12.8c0-10.5,7.6-19.1,17.1-19.3c0.1,0,0.2,0,0.3,0c4.4,0,8.5,1.8,11.5,4.8c0,0,0,0,0,0
		c4.1,3.8,6.6,9.4,6.6,15.6c0,7.7-3.9,14.3-9.6,17.9c-1.5,1-1.6,3.6-1.6,3.6c-0.1,1.2-0.8,2.5-1.4,3.4c-0.1,0.2-0.2,0.3-0.3,0.5
		c0,0-0.1,0.1-0.1,0.1c-0.1,0.2-0.2,0.2-0.2,0.2l0,0c0,0,0,0,0,0.1c0,0,0.2-0.2,0.5-0.5c0.6-0.6,1.6-1.6,2.2-2.7
		c0.3-0.5,0.5-0.9,0.5-1.3c0,0,0.1-0.4,0.3-0.9c0.3-0.6,0.7-1.3,1.5-1.9c0,0,0,0,0,0c1.1-0.7,2.1-1.4,3-2.2
		c4.9-4.3,8.1-10.9,8.1-18.3C421.7,383.9,421.5,382,421.1,380.3z"/>
</g>
</svg>
