<?xml version="1.0" encoding="utf-8"?>
<!-- Generator: Adobe Illustrator 21.0.0, SVG Export Plug-In . SVG Version: 6.00 Build 0)  -->
<svg version="1.1" id="Layer_1" xmlns="http://www.w3.org/2000/svg" xmlns:xlink="http://www.w3.org/1999/xlink" x="0px" y="0px"
	 viewBox="0 0 1059.1 960.2" style="enable-background:new 0 0 1059.1 960.2;" xml:space="preserve">
<style type="text/css">
	.st0{fill:url(#SVGID_1_);}
	.st1{fill:url(#SVGID_2_);}
	.st2{fill:url(#SVGID_3_);}
	.st3{fill:#194970;}
	.st4{fill:url(#SVGID_4_);}
	.st5{fill:url(#SVGID_5_);}
	.st6{fill:url(#SVGID_6_);}
	.st7{fill:url(#SVGID_7_);}
	.st8{fill:url(#SVGID_8_);}
	.st9{fill:url(#SVGID_9_);}
	.st10{fill:url(#SVGID_10_);}
	.st11{fill:url(#SVGID_11_);}
	.st12{fill:url(#SVGID_12_);}
</style>
<g>
	<linearGradient id="SVGID_1_" gradientUnits="userSpaceOnUse" x1="300.9189" y1="381.786" x2="332.3438" y2="381.786">
		<stop  offset="0.3911" style="stop-color:#4A69BD"/>
		<stop  offset="0.9959" style="stop-color:#1ABC9C"/>
	</linearGradient>
	<path class="st0" d="M334.1,376.4c0,0-6.4-5-10.5-1.1c0,0-7.7,8-10.9,9.1c0,0,13.2,13.2,23.4-2.7c0,0-7.7,24.1-31.4,1.1
		c0,0,7.1-1.1,13.2-8.9C317.9,373.9,325.5,365.4,334.1,376.4z"/>
	<linearGradient id="SVGID_2_" gradientUnits="userSpaceOnUse" x1="317.9925" y1="380.554" x2="331.2052" y2="380.554">
		<stop  offset="0.3911" style="stop-color:#4A69BD"/>
		<stop  offset="0.9959" style="stop-color:#1ABC9C"/>
	</linearGradient>
	<path class="st1" d="M334.7,378.2c0,0-7,3.6-13.2,4.6C321.4,382.8,331.6,383.7,334.7,378.2z"/>
	<linearGradient id="SVGID_3_" gradientUnits="userSpaceOnUse" x1="332.8049" y1="401.6316" x2="373.9338" y2="401.6316">
		<stop  offset="0.3911" style="stop-color:#4A69BD"/>
		<stop  offset="0.9959" style="stop-color:#1ABC9C"/>
	</linearGradient>
	<path class="st2" d="M336.6,385.5c0,0-21.4,38.6,37.3,37c0,0-7.5-8.6-6.4-17.1c0,0,4.3-29.5-21.1-23.9c0,0,11.8,1.6,12.5,15.5
		c0,0,0.5,15,3,19.1C362,416.1,333.9,420.2,336.6,385.5z"/>
	<rect x="362.1" y="433.3" class="st3" width="20.7" height="2.9"/>
	<rect x="362.1" y="438.1" class="st3" width="20.7" height="2.9"/>
	<path class="st3" d="M382.8,442.8v2.9h-5.4c-0.6,2.2-2.6,3.7-5,3.7c-2.4,0-4.4-1.6-5-3.7h-5.4v-2.9H382.8z"/>
	<linearGradient id="SVGID_4_" gradientUnits="userSpaceOnUse" x1="338.4238" y1="342.4209" x2="409.6728" y2="410.9325">
		<stop  offset="9.732377e-02" style="stop-color:#4A69BD"/>
		<stop  offset="0.3504" style="stop-color:#368BAF"/>
		<stop  offset="0.6011" style="stop-color:#27A6A5"/>
		<stop  offset="0.8239" style="stop-color:#1DB69E"/>
		<stop  offset="0.9959" style="stop-color:#1ABC9C"/>
	</linearGradient>
	<path class="st4" d="M411.4,369.8c-0.8-4.1-2.3-8-4.2-11.5c-6.4-11.5-18.5-19.2-32.3-19.2c-20.6,0-37.3,17.2-37.3,38.3
		c0,1.1,0,2.1,0.1,3.2c0.1,1.2,0.2,2.4,0.4,3.6c0.6,2.7,1.4,5.4,2.3,8.1c0,0,0,0,0,0c2,5,5.1,9.4,8.8,13c-5.1-6.3-8.1-14.6-8.1-23.7
		c0-19.5,14.1-35.3,31.6-35.6c0.2,0,0.4,0,0.5,0c8.2,0,15.6,3.4,21.3,8.9c0,0,0,0,0,0c7.5,6.9,12.2,17.3,12.2,28.8
		c0,14.2-7.1,26.5-17.7,33c-2.7,1.8-2.9,6.6-2.9,6.6c-0.1,2.2-1.5,4.7-2.5,6.2c-0.2,0.3-0.4,0.6-0.6,0.8c0,0.1-0.1,0.1-0.1,0.2
		c-0.2,0.3-0.3,0.4-0.3,0.4l0,0c0,0-0.1,0.1-0.1,0.1c0,0,0.4-0.4,1-0.9c1.1-1.1,2.9-3,4.1-4.9c0.5-0.9,0.9-1.7,1-2.4
		c0,0,0.1-0.7,0.6-1.6c0.5-1.1,1.4-2.5,2.8-3.5c0,0,0,0,0,0c2-1.2,3.8-2.6,5.6-4.1c9.1-8,15-20.2,15-33.8
		C412.5,376.4,412.1,373,411.4,369.8z"/>
</g>
<g>
	<linearGradient id="SVGID_5_" gradientUnits="userSpaceOnUse" x1="416.6448" y1="414.8304" x2="514.4304" y2="403.234">
		<stop  offset="9.732377e-02" style="stop-color:#4A69BD"/>
		<stop  offset="0.3504" style="stop-color:#368BAF"/>
		<stop  offset="0.6011" style="stop-color:#27A6A5"/>
		<stop  offset="0.8239" style="stop-color:#1DB69E"/>
		<stop  offset="0.9959" style="stop-color:#1ABC9C"/>
	</linearGradient>
	<path class="st5" d="M422.3,419.3l-0.6-1.6h-5.3l-0.6,1.7c-0.2,0.6-0.4,1.1-0.6,1.3c-0.2,0.2-0.5,0.3-0.8,0.3
		c-0.3,0-0.6-0.1-0.9-0.4c-0.3-0.2-0.4-0.5-0.4-0.8c0-0.2,0-0.4,0.1-0.5c0.1-0.2,0.2-0.5,0.3-0.8l3.3-8.4c0.1-0.2,0.2-0.5,0.3-0.9
		c0.1-0.3,0.3-0.6,0.4-0.8c0.2-0.2,0.3-0.4,0.6-0.5c0.2-0.1,0.5-0.2,0.9-0.2c0.4,0,0.7,0.1,0.9,0.2c0.2,0.1,0.4,0.3,0.6,0.5
		c0.2,0.2,0.3,0.5,0.4,0.7c0.1,0.3,0.2,0.6,0.4,1l3.4,8.4c0.3,0.6,0.4,1.1,0.4,1.4c0,0.3-0.1,0.6-0.4,0.8s-0.6,0.4-0.9,0.4
		c-0.2,0-0.4,0-0.5-0.1c-0.1-0.1-0.3-0.2-0.4-0.3c-0.1-0.1-0.2-0.3-0.3-0.6C422.5,419.7,422.4,419.5,422.3,419.3z M417.1,415.7h3.9
		l-2-5.3L417.1,415.7z"/>
	<linearGradient id="SVGID_6_" gradientUnits="userSpaceOnUse" x1="416.7997" y1="416.1364" x2="514.5853" y2="404.5401">
		<stop  offset="9.732377e-02" style="stop-color:#4A69BD"/>
		<stop  offset="0.3504" style="stop-color:#368BAF"/>
		<stop  offset="0.6011" style="stop-color:#27A6A5"/>
		<stop  offset="0.8239" style="stop-color:#1DB69E"/>
		<stop  offset="0.9959" style="stop-color:#1ABC9C"/>
	</linearGradient>
	<path class="st6" d="M430.5,409.1l5,7.6v-7.7c0-0.5,0.1-0.9,0.3-1.1c0.2-0.3,0.5-0.4,0.9-0.4c0.4,0,0.7,0.1,0.9,0.4
		c0.2,0.3,0.3,0.6,0.3,1.1v10.2c0,1.1-0.5,1.7-1.4,1.7c-0.2,0-0.4,0-0.6-0.1s-0.4-0.2-0.5-0.3c-0.2-0.1-0.3-0.3-0.5-0.5
		c-0.1-0.2-0.3-0.4-0.4-0.6l-4.9-7.5v7.6c0,0.5-0.1,0.9-0.3,1.1c-0.2,0.3-0.5,0.4-0.9,0.4c-0.4,0-0.7-0.1-0.9-0.4
		c-0.2-0.3-0.3-0.6-0.3-1.1v-10c0-0.4,0-0.8,0.1-1c0.1-0.3,0.3-0.5,0.6-0.6c0.3-0.2,0.5-0.3,0.8-0.3c0.2,0,0.4,0,0.6,0.1
		c0.2,0.1,0.3,0.2,0.4,0.3s0.3,0.3,0.4,0.5C430.2,408.7,430.3,408.9,430.5,409.1z"/>
	<linearGradient id="SVGID_7_" gradientUnits="userSpaceOnUse" x1="416.9332" y1="417.2619" x2="514.7188" y2="405.6655">
		<stop  offset="9.732377e-02" style="stop-color:#4A69BD"/>
		<stop  offset="0.3504" style="stop-color:#368BAF"/>
		<stop  offset="0.6011" style="stop-color:#27A6A5"/>
		<stop  offset="0.8239" style="stop-color:#1DB69E"/>
		<stop  offset="0.9959" style="stop-color:#1ABC9C"/>
	</linearGradient>
	<path class="st7" d="M440.9,419.4v-10.2c0-0.5,0.1-0.9,0.4-1.2s0.6-0.4,0.9-0.4c0.4,0,0.7,0.1,1,0.4c0.2,0.3,0.4,0.7,0.4,1.2v10.2
		c0,0.5-0.1,0.9-0.4,1.2c-0.2,0.3-0.6,0.4-1,0.4c-0.4,0-0.7-0.1-0.9-0.4S440.9,419.9,440.9,419.4z"/>
	<linearGradient id="SVGID_8_" gradientUnits="userSpaceOnUse" x1="417.0923" y1="418.604" x2="514.8779" y2="407.0076">
		<stop  offset="9.732377e-02" style="stop-color:#4A69BD"/>
		<stop  offset="0.3504" style="stop-color:#368BAF"/>
		<stop  offset="0.6011" style="stop-color:#27A6A5"/>
		<stop  offset="0.8239" style="stop-color:#1DB69E"/>
		<stop  offset="0.9959" style="stop-color:#1ABC9C"/>
	</linearGradient>
	<path class="st8" d="M450.8,418.8l-2.1-8.3v8.9c0,0.5-0.1,0.9-0.3,1.1c-0.2,0.2-0.5,0.4-0.9,0.4c-0.4,0-0.6-0.1-0.9-0.4
		c-0.2-0.2-0.3-0.6-0.3-1.1v-10.3c0-0.6,0.1-0.9,0.4-1.1c0.3-0.2,0.7-0.3,1.2-0.3h0.8c0.5,0,0.8,0,1.1,0.1c0.2,0.1,0.4,0.2,0.5,0.5
		c0.1,0.2,0.2,0.6,0.4,1.1l1.9,7.1l1.9-7.1c0.1-0.5,0.3-0.9,0.4-1.1c0.1-0.2,0.3-0.4,0.5-0.5c0.2-0.1,0.6-0.1,1.1-0.1h0.8
		c0.5,0,0.9,0.1,1.2,0.3c0.3,0.2,0.4,0.6,0.4,1.1v10.3c0,0.5-0.1,0.9-0.3,1.1c-0.2,0.2-0.5,0.4-0.9,0.4c-0.3,0-0.6-0.1-0.9-0.4
		c-0.2-0.2-0.3-0.6-0.3-1.1v-8.9l-2.1,8.3c-0.1,0.5-0.2,0.9-0.3,1.2c-0.1,0.3-0.2,0.5-0.5,0.7c-0.2,0.2-0.5,0.3-1,0.3
		c-0.3,0-0.6-0.1-0.8-0.2s-0.4-0.3-0.5-0.5c-0.1-0.2-0.2-0.4-0.3-0.7C451,419.3,450.9,419.1,450.8,418.8z"/>
	<linearGradient id="SVGID_9_" gradientUnits="userSpaceOnUse" x1="417.3037" y1="420.3867" x2="515.0893" y2="408.7904">
		<stop  offset="9.732377e-02" style="stop-color:#4A69BD"/>
		<stop  offset="0.3504" style="stop-color:#368BAF"/>
		<stop  offset="0.6011" style="stop-color:#27A6A5"/>
		<stop  offset="0.8239" style="stop-color:#1DB69E"/>
		<stop  offset="0.9959" style="stop-color:#1ABC9C"/>
	</linearGradient>
	<path class="st9" d="M469.8,419.3l-0.6-1.6h-5.3l-0.6,1.7c-0.2,0.6-0.4,1.1-0.6,1.3c-0.2,0.2-0.5,0.3-0.8,0.3
		c-0.3,0-0.6-0.1-0.9-0.4c-0.3-0.2-0.4-0.5-0.4-0.8c0-0.2,0-0.4,0.1-0.5c0.1-0.2,0.2-0.5,0.3-0.8l3.3-8.4c0.1-0.2,0.2-0.5,0.3-0.9
		c0.1-0.3,0.3-0.6,0.4-0.8c0.1-0.2,0.3-0.4,0.6-0.5c0.2-0.1,0.5-0.2,0.9-0.2c0.4,0,0.7,0.1,0.9,0.2c0.2,0.1,0.4,0.3,0.6,0.5
		s0.3,0.5,0.4,0.7c0.1,0.3,0.2,0.6,0.4,1l3.4,8.4c0.3,0.6,0.4,1.1,0.4,1.4c0,0.3-0.1,0.6-0.4,0.8c-0.3,0.3-0.6,0.4-0.9,0.4
		c-0.2,0-0.4,0-0.5-0.1c-0.1-0.1-0.3-0.2-0.4-0.3c-0.1-0.1-0.2-0.3-0.3-0.6C470,419.7,469.9,419.5,469.8,419.3z M464.6,415.7h3.9
		l-2-5.3L464.6,415.7z"/>
	<linearGradient id="SVGID_10_" gradientUnits="userSpaceOnUse" x1="417.4023" y1="421.2177" x2="515.1879" y2="409.6213">
		<stop  offset="9.732377e-02" style="stop-color:#4A69BD"/>
		<stop  offset="0.3504" style="stop-color:#368BAF"/>
		<stop  offset="0.6011" style="stop-color:#27A6A5"/>
		<stop  offset="0.8239" style="stop-color:#1DB69E"/>
		<stop  offset="0.9959" style="stop-color:#1ABC9C"/>
	</linearGradient>
	<path class="st10" d="M481.4,410h-2.9v9.4c0,0.5-0.1,0.9-0.4,1.2s-0.6,0.4-0.9,0.4c-0.4,0-0.7-0.1-1-0.4c-0.2-0.3-0.4-0.7-0.4-1.2
		V410H473c-0.4,0-0.8-0.1-1-0.3c-0.2-0.2-0.3-0.5-0.3-0.8c0-0.3,0.1-0.6,0.3-0.8c0.2-0.2,0.6-0.3,1-0.3h8.3c0.5,0,0.8,0.1,1,0.3
		c0.2,0.2,0.3,0.5,0.3,0.8c0,0.3-0.1,0.6-0.3,0.8C482.2,409.9,481.8,410,481.4,410z"/>
	<linearGradient id="SVGID_11_" gradientUnits="userSpaceOnUse" x1="417.5881" y1="422.7843" x2="515.3737" y2="411.1879">
		<stop  offset="9.732377e-02" style="stop-color:#4A69BD"/>
		<stop  offset="0.3504" style="stop-color:#368BAF"/>
		<stop  offset="0.6011" style="stop-color:#27A6A5"/>
		<stop  offset="0.8239" style="stop-color:#1DB69E"/>
		<stop  offset="0.9959" style="stop-color:#1ABC9C"/>
	</linearGradient>
	<path class="st11" d="M492.8,409.8h-5.9v3.2h5.4c0.4,0,0.7,0.1,0.9,0.3c0.2,0.2,0.3,0.4,0.3,0.7s-0.1,0.5-0.3,0.7
		c-0.2,0.2-0.5,0.3-0.9,0.3h-5.4v3.7h6.1c0.4,0,0.7,0.1,0.9,0.3c0.2,0.2,0.3,0.4,0.3,0.8c0,0.3-0.1,0.6-0.3,0.7
		c-0.2,0.2-0.5,0.3-0.9,0.3h-7.1c-0.6,0-1-0.1-1.2-0.4c-0.3-0.3-0.4-0.7-0.4-1.2v-9.7c0-0.4,0.1-0.7,0.2-0.9
		c0.1-0.2,0.3-0.4,0.5-0.5c0.2-0.1,0.5-0.2,0.9-0.2h6.9c0.4,0,0.7,0.1,0.9,0.3c0.2,0.2,0.3,0.4,0.3,0.7c0,0.3-0.1,0.6-0.3,0.7
		C493.5,409.7,493.2,409.8,492.8,409.8z"/>
	<linearGradient id="SVGID_12_" gradientUnits="userSpaceOnUse" x1="417.7342" y1="424.0166" x2="515.5198" y2="412.4202">
		<stop  offset="9.732377e-02" style="stop-color:#4A69BD"/>
		<stop  offset="0.3504" style="stop-color:#368BAF"/>
		<stop  offset="0.6011" style="stop-color:#27A6A5"/>
		<stop  offset="0.8239" style="stop-color:#1DB69E"/>
		<stop  offset="0.9959" style="stop-color:#1ABC9C"/>
	</linearGradient>
	<path class="st12" d="M498,407.8h3.4c0.9,0,1.7,0.1,2.3,0.2c0.6,0.2,1.2,0.5,1.7,0.9c1.3,1.2,2,2.9,2,5.3c0,0.8-0.1,1.5-0.2,2.1
		c-0.1,0.6-0.3,1.2-0.6,1.7c-0.3,0.5-0.6,1-1.1,1.4c-0.3,0.3-0.7,0.6-1.1,0.8c-0.4,0.2-0.9,0.3-1.3,0.4c-0.5,0.1-1,0.1-1.6,0.1H498
		c-0.5,0-0.8-0.1-1.1-0.2c-0.2-0.1-0.4-0.3-0.5-0.6c-0.1-0.3-0.1-0.6-0.1-1v-9.5c0-0.6,0.1-1,0.4-1.2
		C497,407.9,497.4,407.8,498,407.8z M499,409.9v8.8h2c0.4,0,0.8,0,1,0s0.5-0.1,0.8-0.2s0.5-0.2,0.7-0.4c0.9-0.7,1.3-2,1.3-3.8
		c0-1.3-0.2-2.2-0.6-2.9c-0.4-0.6-0.9-1-1.4-1.2c-0.6-0.2-1.2-0.3-2.1-0.3H499z"/>
</g>
<g>
	<path class="st3" d="M425.3,439.3v-10.2c0-0.5,0.1-0.9,0.4-1.2c0.2-0.3,0.6-0.4,0.9-0.4c0.4,0,0.7,0.1,1,0.4
		c0.2,0.3,0.4,0.7,0.4,1.2v10.2c0,0.5-0.1,0.9-0.4,1.2c-0.2,0.3-0.6,0.4-1,0.4c-0.4,0-0.7-0.1-0.9-0.4
		C425.4,440.3,425.3,439.9,425.3,439.3z"/>
	<path class="st3" d="M441.9,427.8h3.4c0.9,0,1.7,0.1,2.3,0.2s1.2,0.5,1.7,0.9c1.3,1.2,2,2.9,2,5.3c0,0.8-0.1,1.5-0.2,2.1
		c-0.1,0.6-0.3,1.2-0.6,1.7s-0.6,1-1.1,1.4c-0.3,0.3-0.7,0.6-1.1,0.8c-0.4,0.2-0.9,0.3-1.3,0.4c-0.5,0.1-1,0.1-1.6,0.1h-3.4
		c-0.5,0-0.8-0.1-1.1-0.2c-0.2-0.1-0.4-0.3-0.5-0.6c-0.1-0.3-0.1-0.6-0.1-1v-9.5c0-0.6,0.1-1,0.4-1.2
		C440.9,427.9,441.3,427.8,441.9,427.8z M442.9,429.8v8.8h2c0.4,0,0.8,0,1,0c0.2,0,0.5-0.1,0.8-0.2s0.5-0.2,0.7-0.4
		c0.9-0.7,1.3-2,1.3-3.8c0-1.3-0.2-2.2-0.6-2.9c-0.4-0.6-0.9-1-1.4-1.2c-0.6-0.2-1.2-0.3-2.1-0.3H442.9z"/>
	<path class="st3" d="M471.6,429.8h-5.9v3.2h5.4c0.4,0,0.7,0.1,0.9,0.3c0.2,0.2,0.3,0.4,0.3,0.7c0,0.3-0.1,0.5-0.3,0.7
		c-0.2,0.2-0.5,0.3-0.9,0.3h-5.4v3.7h6.1c0.4,0,0.7,0.1,0.9,0.3c0.2,0.2,0.3,0.4,0.3,0.8c0,0.3-0.1,0.6-0.3,0.7
		c-0.2,0.2-0.5,0.3-0.9,0.3h-7.1c-0.6,0-1-0.1-1.2-0.4c-0.3-0.3-0.4-0.7-0.4-1.2v-9.7c0-0.4,0.1-0.7,0.2-0.9
		c0.1-0.2,0.3-0.4,0.5-0.5s0.5-0.2,0.9-0.2h6.9c0.4,0,0.7,0.1,0.9,0.3c0.2,0.2,0.3,0.4,0.3,0.7c0,0.3-0.1,0.6-0.3,0.7
		C472.3,429.7,472,429.8,471.6,429.8z"/>
	<path class="st3" d="M492.8,439.2l-0.6-1.6h-5.3l-0.6,1.7c-0.2,0.6-0.4,1.1-0.6,1.3c-0.2,0.2-0.5,0.3-0.8,0.3
		c-0.3,0-0.6-0.1-0.9-0.4c-0.3-0.2-0.4-0.5-0.4-0.8c0-0.2,0-0.4,0.1-0.5s0.2-0.5,0.3-0.8l3.3-8.4c0.1-0.2,0.2-0.5,0.3-0.9
		c0.1-0.3,0.3-0.6,0.4-0.8c0.2-0.2,0.3-0.4,0.6-0.5s0.5-0.2,0.9-0.2c0.4,0,0.7,0.1,0.9,0.2s0.4,0.3,0.6,0.5c0.2,0.2,0.3,0.5,0.4,0.7
		c0.1,0.3,0.2,0.6,0.4,1l3.4,8.4c0.3,0.6,0.4,1.1,0.4,1.4c0,0.3-0.1,0.6-0.4,0.8c-0.3,0.3-0.6,0.4-0.9,0.4c-0.2,0-0.4,0-0.5-0.1
		c-0.1-0.1-0.3-0.2-0.4-0.3c-0.1-0.1-0.2-0.3-0.3-0.6C493,439.7,492.9,439.4,492.8,439.2z M487.6,435.6h3.9l-2-5.3L487.6,435.6z"/>
</g>
</svg>
