<svg id="Layer_1" data-name="Layer 1" xmlns="http://www.w3.org/2000/svg" xmlns:xlink="http://www.w3.org/1999/xlink" viewBox="0 0 592.78 322.31"><defs><style>.cls-1{fill:url(#linear-gradient);}.cls-2{fill:url(#linear-gradient-2);}.cls-3{fill:url(#linear-gradient-3);}.cls-4{fill:#194970;}.cls-5{fill:url(#linear-gradient-4);}.cls-6{fill:url(#linear-gradient-5);}.cls-7{fill:url(#linear-gradient-6);}.cls-8{fill:url(#linear-gradient-7);}.cls-9{fill:url(#linear-gradient-8);}.cls-10{fill:url(#linear-gradient-9);}.cls-11{fill:url(#linear-gradient-10);}.cls-12{fill:url(#linear-gradient-11);}.cls-13{fill:url(#linear-gradient-12);}</style><linearGradient id="linear-gradient" x1="-6.7" y1="163.55" x2="85.16" y2="163.55" gradientUnits="userSpaceOnUse"><stop offset="0.39" stop-color="#4a69bd"/><stop offset="1" stop-color="#1abc9c"/></linearGradient><linearGradient id="linear-gradient-2" x1="43.21" y1="159.94" x2="81.83" y2="159.94" xlink:href="#linear-gradient"/><linearGradient id="linear-gradient-3" x1="86.51" y1="221.56" x2="206.74" y2="221.56" xlink:href="#linear-gradient"/><linearGradient id="linear-gradient-4" x1="102.94" y1="48.47" x2="311.22" y2="248.75" gradientUnits="userSpaceOnUse"><stop offset="0.1" stop-color="#4a69bd"/><stop offset="0.35" stop-color="#368baf"/><stop offset="0.6" stop-color="#27a6a5"/><stop offset="0.82" stop-color="#1db69e"/><stop offset="1" stop-color="#1abc9c"/></linearGradient><linearGradient id="linear-gradient-5" x1="331.6" y1="260.14" x2="617.45" y2="226.24" xlink:href="#linear-gradient-4"/><linearGradient id="linear-gradient-6" x1="332.05" y1="263.96" x2="617.91" y2="230.06" xlink:href="#linear-gradient-4"/><linearGradient id="linear-gradient-7" x1="332.44" y1="267.25" x2="618.3" y2="233.35" xlink:href="#linear-gradient-4"/><linearGradient id="linear-gradient-8" x1="332.91" y1="271.18" x2="618.76" y2="237.28" xlink:href="#linear-gradient-4"/><linearGradient id="linear-gradient-9" x1="333.52" y1="276.39" x2="619.38" y2="242.49" xlink:href="#linear-gradient-4"/><linearGradient id="linear-gradient-10" x1="333.81" y1="278.82" x2="619.67" y2="244.92" xlink:href="#linear-gradient-4"/><linearGradient id="linear-gradient-11" x1="334.36" y1="283.4" x2="620.21" y2="249.5" xlink:href="#linear-gradient-4"/><linearGradient id="linear-gradient-12" x1="334.78" y1="287" x2="620.64" y2="253.1" xlink:href="#linear-gradient-4"/></defs><title>LOGO</title><path class="cls-1" d="M90.35,147.86s-18.79-14.61-30.8-3.13c0,0-22.44,23.49-31.84,26.62,0,0,38.62,38.62,68.38-7.83,0,0-22.44,70.46-91.86,3.13,0,0,20.88-3.13,38.62-26.1C42.85,140.55,65.29,115.5,90.35,147.86Z" transform="translate(-4.22 -38.77)"/><path class="cls-2" d="M91.91,153.08s-20.36,10.44-38.62,13.57C53.29,166.65,83,169.26,91.91,153.08Z" transform="translate(-4.22 -38.77)"/><path class="cls-3" d="M97.65,174.48S35,287.22,206.74,282.53c0,0-21.92-25.05-18.79-50.11,0,0,12.53-86.12-61.59-69.94,0,0,34.45,4.7,36.54,45.41,0,0,1.57,43.84,8.87,55.85C171.77,263.73,89.82,275.74,97.65,174.48Z" transform="translate(-4.22 -38.77)"/><rect class="cls-4" x="167.81" y="275.33" width="60.55" height="8.35"/><rect class="cls-4" x="167.81" y="289.42" width="60.55" height="8.35"/><path class="cls-4" d="M232.58,341.77v8.35H216.86a15.14,15.14,0,0,1-29.1,0H172v-8.35Z" transform="translate(-4.22 -38.77)"/><path class="cls-5" d="M316.26,128.44a112.88,112.88,0,0,0-12.39-33.6C285,61.32,249.75,38.77,209.35,38.77c-60.25,0-109.09,50.15-109.09,112q0,4.69.37,9.27.42,5.3,1.32,10.44a206.37,206.37,0,0,0,6.81,23.71v0a112.41,112.41,0,0,0,25.74,38.05c-14.8-18.38-23.8-42.61-23.8-69.17,0-56.86,41.23-103.06,92.41-104l1.54,0c23.86,0,45.64,9.85,62.21,26.07l.12.11c21.9,20.25,35.8,50.48,35.8,84.24,0,41.37-20.86,77.43-51.75,96.34-7.89,5.22-8.54,19.17-8.54,19.17-.33,6.44-4.41,13.73-7.37,18.22-.51.82-1.07,1.64-1.69,2.48l-.41.53c-.6.81-1,1.28-1,1.28l0,0-.23.28c.13-.11,1.26-1.09,2.9-2.67,3.3-3.16,8.62-8.76,12-14.34a19.64,19.64,0,0,0,2.84-7.1,25.8,25.8,0,0,1,1.66-4.7,24.93,24.93,0,0,1,8.2-10.21l0,0a118.52,118.52,0,0,0,16.34-12c26.68-23.34,43.71-58.91,43.71-98.76A136.81,136.81,0,0,0,316.26,128.44Z" transform="translate(-4.22 -38.77)"/><path class="cls-6" d="M348.15,273.14l-1.81-4.75h-15.4l-1.81,4.86a17,17,0,0,1-1.81,3.84,2.88,2.88,0,0,1-2.45,1,3.6,3.6,0,0,1-2.56-1.06,3.24,3.24,0,0,1-1.11-2.4,5.34,5.34,0,0,1,.26-1.6q.26-.83.85-2.3l9.69-24.6,1-2.55a12.85,12.85,0,0,1,1.24-2.47,5,5,0,0,1,1.73-1.59,5.3,5.3,0,0,1,2.65-.61,5.36,5.36,0,0,1,2.67.61,5.15,5.15,0,0,1,1.73,1.56,10.88,10.88,0,0,1,1.11,2.05q.45,1.1,1.15,2.93l9.89,24.44a12.3,12.3,0,0,1,1.16,4.06,3.36,3.36,0,0,1-1.1,2.42,3.61,3.61,0,0,1-2.65,1.1,3.42,3.42,0,0,1-1.55-.32,3.15,3.15,0,0,1-1.08-.88,8,8,0,0,1-.94-1.7Q348.51,274,348.15,273.14ZM333,262.63h11.32L338.57,247Z" transform="translate(-4.22 -38.77)"/><path class="cls-7" d="M372,243.51l14.75,22.32V243.3a5,5,0,0,1,.94-3.29,3.19,3.19,0,0,1,2.55-1.1,3.28,3.28,0,0,1,2.61,1.1,4.9,4.9,0,0,1,1,3.29v29.79q0,5-4.13,5a5.49,5.49,0,0,1-1.86-.3,4.68,4.68,0,0,1-1.55-.94,9.09,9.09,0,0,1-1.34-1.51q-.62-.86-1.24-1.77l-14.39-22.06v22.19a4.73,4.73,0,0,1-1,3.28,3.33,3.33,0,0,1-2.58,1.11,3.29,3.29,0,0,1-2.61-1.12,4.82,4.82,0,0,1-1-3.27V244.47a8.27,8.27,0,0,1,.41-2.92,4.17,4.17,0,0,1,1.63-1.9,4.44,4.44,0,0,1,2.45-.74,4,4,0,0,1,3.06,1.24,9.36,9.36,0,0,1,1.14,1.47Z" transform="translate(-4.22 -38.77)"/><path class="cls-8" d="M402.49,273.4V243.56a5,5,0,0,1,1.06-3.49,3.53,3.53,0,0,1,2.74-1.16,3.66,3.66,0,0,1,2.8,1.15,5,5,0,0,1,1.07,3.5V273.4a5,5,0,0,1-1.07,3.51,3.64,3.64,0,0,1-2.8,1.16,3.53,3.53,0,0,1-2.73-1.18A5,5,0,0,1,402.49,273.4Z" transform="translate(-4.22 -38.77)"/><path class="cls-9" d="M431.52,271.72l-6.07-24.13v26.15a4.76,4.76,0,0,1-1,3.26,3.56,3.56,0,0,1-5.1,0,4.7,4.7,0,0,1-1-3.27v-30q0-2.48,1.29-3.35a6.19,6.19,0,0,1,3.49-.86h2.38a9,9,0,0,1,3.11.39,2.61,2.61,0,0,1,1.43,1.39,21.7,21.7,0,0,1,1.06,3.28l5.5,20.74,5.5-20.74a21.67,21.67,0,0,1,1.06-3.28,2.61,2.61,0,0,1,1.43-1.39,9,9,0,0,1,3.11-.39h2.38a6.19,6.19,0,0,1,3.49.86q1.29.87,1.29,3.35v30a4.76,4.76,0,0,1-1,3.26,3.31,3.31,0,0,1-2.6,1.08,3.23,3.23,0,0,1-2.51-1.08,4.71,4.71,0,0,1-1-3.26V247.59l-6.07,24.13q-.59,2.35-1,3.45a4.77,4.77,0,0,1-1.38,2,4,4,0,0,1-2.79.9,4.08,4.08,0,0,1-3.72-2.07,8.42,8.42,0,0,1-.81-2Q431.83,272.91,431.52,271.72Z" transform="translate(-4.22 -38.77)"/><path class="cls-10" d="M487,273.14l-1.81-4.75h-15.4L468,273.25a17,17,0,0,1-1.81,3.84,2.88,2.88,0,0,1-2.45,1,3.6,3.6,0,0,1-2.56-1.06,3.24,3.24,0,0,1-1.11-2.4,5.34,5.34,0,0,1,.26-1.6q.26-.83.85-2.3l9.69-24.6,1-2.55a12.85,12.85,0,0,1,1.24-2.47,5,5,0,0,1,1.73-1.59,5.3,5.3,0,0,1,2.65-.61,5.37,5.37,0,0,1,2.68.61,5.15,5.15,0,0,1,1.73,1.56,11,11,0,0,1,1.11,2.05q.45,1.1,1.15,2.93l9.89,24.44a12.3,12.3,0,0,1,1.16,4.06,3.36,3.36,0,0,1-1.1,2.42,3.61,3.61,0,0,1-2.65,1.1,3.42,3.42,0,0,1-1.55-.32,3.15,3.15,0,0,1-1.08-.88,8,8,0,0,1-.94-1.7Q487.41,274,487,273.14Zm-15.19-10.52h11.32L477.46,247Z" transform="translate(-4.22 -38.77)"/><path class="cls-11" d="M520.81,245.89h-8.37V273.4a5.06,5.06,0,0,1-1.06,3.53,3.55,3.55,0,0,1-2.74,1.15,3.61,3.61,0,0,1-2.78-1.16,5,5,0,0,1-1.07-3.51V245.89h-8.37a4.24,4.24,0,0,1-2.92-.87,2.94,2.94,0,0,1-1-2.29,2.91,2.91,0,0,1,1-2.33,4.31,4.31,0,0,1,2.88-.85h24.39a4.29,4.29,0,0,1,3,.88,3,3,0,0,1,1,2.3,2.9,2.9,0,0,1-1,2.29A4.34,4.34,0,0,1,520.81,245.89Z" transform="translate(-4.22 -38.77)"/><path class="cls-12" d="M554.24,245.47H537v9.3h15.91a3.79,3.79,0,0,1,2.62.79,2.68,2.68,0,0,1,.87,2.08,2.78,2.78,0,0,1-.85,2.11,3.7,3.7,0,0,1-2.63.81H537v10.77h17.88a3.91,3.91,0,0,1,2.73.84,2.89,2.89,0,0,1,.92,2.24,2.82,2.82,0,0,1-.92,2.18,3.91,3.91,0,0,1-2.73.84H534a4,4,0,0,1-4.7-4.7V244.26a6.39,6.39,0,0,1,.49-2.7,3.05,3.05,0,0,1,1.54-1.53,6.47,6.47,0,0,1,2.68-.48h20.26a3.94,3.94,0,0,1,2.73.81,2.75,2.75,0,0,1,.89,2.13,2.78,2.78,0,0,1-.89,2.16A3.94,3.94,0,0,1,554.24,245.47Z" transform="translate(-4.22 -38.77)"/><path class="cls-13" d="M569.33,239.56h10a26.93,26.93,0,0,1,6.69.72,12.3,12.3,0,0,1,5.06,2.71q5.92,5.06,5.92,15.4a30.21,30.21,0,0,1-.59,6.23,18.39,18.39,0,0,1-1.83,5.08,15.77,15.77,0,0,1-3.18,4,13.17,13.17,0,0,1-3.33,2.2,15.05,15.05,0,0,1-3.89,1.16,29.67,29.67,0,0,1-4.69.34h-10a6.26,6.26,0,0,1-3.15-.63A2.94,2.94,0,0,1,565,275a11.28,11.28,0,0,1-.32-3V244.26a4,4,0,0,1,4.7-4.7Zm3,6.07v25.71h5.81q1.91,0,3-.1a9.4,9.4,0,0,0,2.25-.52,6.1,6.1,0,0,0,2-1.16q3.85-3.26,3.85-11.21,0-5.61-1.69-8.4a7.54,7.54,0,0,0-4.17-3.55,20.62,20.62,0,0,0-6-.76Z" transform="translate(-4.22 -38.77)"/><path class="cls-4" d="M356.94,331.78V301.94a5,5,0,0,1,1.06-3.49,3.53,3.53,0,0,1,2.74-1.16,3.66,3.66,0,0,1,2.8,1.15,5,5,0,0,1,1.07,3.5v29.84a5,5,0,0,1-1.07,3.51,3.64,3.64,0,0,1-2.8,1.16,3.53,3.53,0,0,1-2.73-1.18A5,5,0,0,1,356.94,331.78Z" transform="translate(-4.22 -38.77)"/><path class="cls-4" d="M405.41,297.93h10a27,27,0,0,1,6.69.72,12.3,12.3,0,0,1,5.06,2.71q5.92,5.06,5.92,15.4a30.21,30.21,0,0,1-.59,6.23,18.41,18.41,0,0,1-1.83,5.08,15.78,15.78,0,0,1-3.18,4,13.17,13.17,0,0,1-3.33,2.2,15.1,15.1,0,0,1-3.89,1.16,29.6,29.6,0,0,1-4.69.34h-10a6.26,6.26,0,0,1-3.15-.63,2.94,2.94,0,0,1-1.38-1.78,11.3,11.3,0,0,1-.32-3V302.63a4,4,0,0,1,4.7-4.7Zm3,6.07v25.71h5.81q1.91,0,3-.1a9.37,9.37,0,0,0,2.25-.52,6.12,6.12,0,0,0,2-1.16q3.85-3.26,3.85-11.21,0-5.61-1.69-8.4a7.53,7.53,0,0,0-4.17-3.55,20.59,20.59,0,0,0-6-.76Z" transform="translate(-4.22 -38.77)"/><path class="cls-4" d="M492.23,303.85H475v9.3h15.91a3.79,3.79,0,0,1,2.62.79,2.68,2.68,0,0,1,.87,2.08,2.78,2.78,0,0,1-.85,2.11,3.7,3.7,0,0,1-2.64.81H475v10.77h17.88a3.91,3.91,0,0,1,2.73.84,2.88,2.88,0,0,1,.92,2.23,2.82,2.82,0,0,1-.92,2.18,3.91,3.91,0,0,1-2.73.84H472a4,4,0,0,1-4.7-4.7V302.63a6.38,6.38,0,0,1,.49-2.7,3,3,0,0,1,1.54-1.52,6.46,6.46,0,0,1,2.67-.48h20.25a3.94,3.94,0,0,1,2.73.81,2.75,2.75,0,0,1,.89,2.13A2.78,2.78,0,0,1,495,303,3.94,3.94,0,0,1,492.23,303.85Z" transform="translate(-4.22 -38.77)"/><path class="cls-4" d="M554.26,331.52l-1.81-4.75h-15.4l-1.81,4.86a17,17,0,0,1-1.81,3.84,2.88,2.88,0,0,1-2.45,1,3.6,3.6,0,0,1-2.56-1.06,3.24,3.24,0,0,1-1.11-2.4,5.36,5.36,0,0,1,.26-1.6q.26-.83.85-2.3l9.69-24.6,1-2.54a12.87,12.87,0,0,1,1.24-2.47,5,5,0,0,1,1.73-1.59,5.31,5.31,0,0,1,2.65-.61,5.36,5.36,0,0,1,2.67.61,5.14,5.14,0,0,1,1.73,1.56,11,11,0,0,1,1.11,2.05q.45,1.1,1.15,2.93l9.89,24.44a12.28,12.28,0,0,1,1.16,4.06,3.36,3.36,0,0,1-1.1,2.42,3.61,3.61,0,0,1-2.65,1.1,3.43,3.43,0,0,1-1.55-.32,3.17,3.17,0,0,1-1.09-.88,8.08,8.08,0,0,1-.94-1.71Q554.63,332.4,554.26,331.52ZM539.07,321h11.32l-5.71-15.63Z" transform="translate(-4.22 -38.77)"/></svg>